<svg xmlns="http://www.w3.org/2000/svg" xmlns:rdkit="http://www.rdkit.org/xml" xmlns:xlink="http://www.w3.org/1999/xlink" version="1.1" baseProfile="full" xml:space="preserve" width="150px" height="150px" viewBox="0 0 150 150">
<!-- END OF HEADER -->
<rect style="opacity:1.0;fill:#FFFFFF;stroke:none" width="150.0" height="150.0" x="0.0" y="0.0"> </rect>
<ellipse cx="97.8" cy="93.4" rx="6.3" ry="6.3" class="atom-1" style="fill:#E5E533;fill-rule:evenodd;stroke:#E5E533;stroke-width:1.0px;stroke-linecap:butt;stroke-linejoin:miter;stroke-opacity:1"/>
<ellipse cx="97.8" cy="39.1" rx="6.3" ry="6.3" class="atom-3" style="fill:#E5E533;fill-rule:evenodd;stroke:#E5E533;stroke-width:1.0px;stroke-linecap:butt;stroke-linejoin:miter;stroke-opacity:1"/>
<ellipse cx="82.1" cy="66.3" rx="6.3" ry="6.3" class="atom-4" style="fill:#9999E5;fill-rule:evenodd;stroke:#9999E5;stroke-width:1.0px;stroke-linecap:butt;stroke-linejoin:miter;stroke-opacity:1"/>
<path class="bond-0 atom-0 atom-1" d="M 126.0,95.8 L 96.5,95.8" style="fill:none;fill-rule:evenodd;stroke:#E5E5E5;stroke-width:1.7px;stroke-linecap:butt;stroke-linejoin:miter;stroke-opacity:1"/>
<path class="bond-0 atom-0 atom-1" d="M 126.0,91.1 L 96.5,91.1" style="fill:none;fill-rule:evenodd;stroke:#E5E5E5;stroke-width:1.7px;stroke-linecap:butt;stroke-linejoin:miter;stroke-opacity:1;stroke-dasharray:6,4"/>
<path class="bond-1 atom-2 atom-3" d="M 126.0,41.5 L 96.5,41.5" style="fill:none;fill-rule:evenodd;stroke:#E5E5E5;stroke-width:1.7px;stroke-linecap:butt;stroke-linejoin:miter;stroke-opacity:1"/>
<path class="bond-1 atom-2 atom-3" d="M 126.0,36.8 L 96.5,36.8" style="fill:none;fill-rule:evenodd;stroke:#E5E5E5;stroke-width:1.7px;stroke-linecap:butt;stroke-linejoin:miter;stroke-opacity:1;stroke-dasharray:6,4"/>
<path class="bond-2 atom-1 atom-4" d="M 97.8,93.4 L 82.1,66.3" style="fill:none;fill-rule:evenodd;stroke:#000000;stroke-width:2.0px;stroke-linecap:butt;stroke-linejoin:miter;stroke-opacity:1"/>
<path class="bond-2 atom-1 atom-4" d="M 100.5,88.7 L 87.6,66.3" style="fill:none;fill-rule:evenodd;stroke:#000000;stroke-width:2.0px;stroke-linecap:butt;stroke-linejoin:miter;stroke-opacity:1;stroke-dasharray:6,4"/>
<path class="bond-3 atom-1 atom-5" d="M 97.8,93.4 L 85.3,115.2" style="fill:none;fill-rule:evenodd;stroke:#E5E5E5;stroke-width:1.7px;stroke-linecap:butt;stroke-linejoin:miter;stroke-opacity:1"/>
<path class="bond-4 atom-3 atom-4" d="M 97.8,39.1 L 82.1,66.3" style="fill:none;fill-rule:evenodd;stroke:#000000;stroke-width:2.0px;stroke-linecap:butt;stroke-linejoin:miter;stroke-opacity:1"/>
<path class="bond-4 atom-3 atom-4" d="M 100.5,43.8 L 87.6,66.3" style="fill:none;fill-rule:evenodd;stroke:#000000;stroke-width:2.0px;stroke-linecap:butt;stroke-linejoin:miter;stroke-opacity:1;stroke-dasharray:6,4"/>
<path class="bond-5 atom-3 atom-6" d="M 97.8,39.1 L 85.3,17.6" style="fill:none;fill-rule:evenodd;stroke:#E5E5E5;stroke-width:1.7px;stroke-linecap:butt;stroke-linejoin:miter;stroke-opacity:1"/>
<path class="bond-6 atom-4 atom-7" d="M 82.1,66.3 L 68.4,66.3" style="fill:none;fill-rule:evenodd;stroke:#000000;stroke-width:2.0px;stroke-linecap:butt;stroke-linejoin:miter;stroke-opacity:1"/>
<path class="bond-6 atom-4 atom-7" d="M 68.4,66.3 L 54.7,66.3" style="fill:none;fill-rule:evenodd;stroke:#CCCC00;stroke-width:2.0px;stroke-linecap:butt;stroke-linejoin:miter;stroke-opacity:1"/>
<path class="bond-7 atom-8 atom-7" d="M 24.0,66.3 L 46.9,66.3" style="fill:none;fill-rule:evenodd;stroke:#E5E5E5;stroke-width:1.7px;stroke-linecap:butt;stroke-linejoin:miter;stroke-opacity:1"/>
<path class="bond-8 atom-9 atom-7" d="M 53.2,35.5 L 53.2,60.8" style="fill:none;fill-rule:evenodd;stroke:#E5E5E5;stroke-width:1.7px;stroke-linecap:butt;stroke-linejoin:miter;stroke-opacity:1"/>
<path class="bond-8 atom-9 atom-7" d="M 48.5,35.5 L 48.5,60.8" style="fill:none;fill-rule:evenodd;stroke:#E5E5E5;stroke-width:1.7px;stroke-linecap:butt;stroke-linejoin:miter;stroke-opacity:1"/>
<path class="bond-9 atom-10 atom-7" d="M 48.5,92.1 L 48.5,72.0" style="fill:none;fill-rule:evenodd;stroke:#E5E5E5;stroke-width:1.7px;stroke-linecap:butt;stroke-linejoin:miter;stroke-opacity:1"/>
<path class="bond-9 atom-10 atom-7" d="M 53.2,92.1 L 53.2,72.0" style="fill:none;fill-rule:evenodd;stroke:#E5E5E5;stroke-width:1.7px;stroke-linecap:butt;stroke-linejoin:miter;stroke-opacity:1"/>
<path class="atom-0" d="M 127.5 92.4 L 128.8 91.1 L 127.0 90.7 L 127.3 89.9 L 128.9 90.7 L 128.7 88.9 L 129.6 88.9 L 129.4 90.6 L 131.0 89.9 L 131.2 90.7 L 129.5 91.1 L 130.7 92.4 L 130.0 93.0 L 129.1 91.3 L 128.2 93.0 L 127.5 92.4 " fill="#191919"/>
<path class="atom-0" d="M 132.2 89.1 L 133.4 89.1 L 133.4 92.8 L 137.9 92.8 L 137.9 89.1 L 139.1 89.1 L 139.1 97.9 L 137.9 97.9 L 137.9 93.8 L 133.4 93.8 L 133.4 97.9 L 132.2 97.9 L 132.2 89.1 " fill="#191919"/>
<path class="atom-2" d="M 127.5 38.2 L 128.8 36.8 L 127.0 36.5 L 127.3 35.6 L 128.9 36.4 L 128.7 34.6 L 129.6 34.6 L 129.4 36.4 L 131.0 35.6 L 131.2 36.5 L 129.5 36.8 L 130.7 38.1 L 130.0 38.7 L 129.1 37.0 L 128.2 38.7 L 127.5 38.2 " fill="#191919"/>
<path class="atom-2" d="M 132.2 34.8 L 133.4 34.8 L 133.4 38.6 L 137.9 38.6 L 137.9 34.8 L 139.1 34.8 L 139.1 43.7 L 137.9 43.7 L 137.9 39.6 L 133.4 39.6 L 133.4 43.7 L 132.2 43.7 L 132.2 34.8 " fill="#191919"/>
<path class="atom-5" d="M 74.0 119.6 L 75.3 118.2 L 73.5 117.9 L 73.8 117.0 L 75.4 117.8 L 75.2 116.1 L 76.1 116.0 L 75.8 117.8 L 77.5 117.0 L 77.7 117.9 L 76.0 118.2 L 77.2 119.5 L 76.5 120.1 L 75.6 118.4 L 74.7 120.1 L 74.0 119.6 " fill="#191919"/>
<path class="atom-5" d="M 78.7 116.2 L 79.9 116.2 L 79.9 120.0 L 84.4 120.0 L 84.4 116.2 L 85.6 116.2 L 85.6 125.1 L 84.4 125.1 L 84.4 121.0 L 79.9 121.0 L 79.9 125.1 L 78.7 125.1 L 78.7 116.2 " fill="#191919"/>
<path class="atom-5" d="M 87.3 124.8 Q 87.5 124.2, 88.0 123.9 Q 88.5 123.6, 89.2 123.6 Q 90.1 123.6, 90.6 124.1 Q 91.1 124.5, 91.1 125.4 Q 91.1 126.3, 90.5 127.1 Q 89.8 127.9, 88.5 128.8 L 91.2 128.8 L 91.2 129.5 L 87.3 129.5 L 87.3 128.9 Q 88.3 128.2, 89.0 127.6 Q 89.6 127.0, 90.0 126.5 Q 90.3 126.0, 90.3 125.4 Q 90.3 124.9, 90.0 124.6 Q 89.7 124.2, 89.2 124.2 Q 88.8 124.2, 88.4 124.4 Q 88.1 124.6, 87.9 125.0 L 87.3 124.8 " fill="#191919"/>
<path class="atom-6" d="M 74.0 11.0 L 75.3 9.7 L 73.5 9.3 L 73.8 8.5 L 75.4 9.3 L 75.2 7.5 L 76.1 7.5 L 75.8 9.2 L 77.5 8.5 L 77.7 9.3 L 76.0 9.7 L 77.2 11.0 L 76.5 11.6 L 75.6 9.9 L 74.7 11.6 L 74.0 11.0 " fill="#191919"/>
<path class="atom-6" d="M 78.7 7.7 L 79.9 7.7 L 79.9 11.4 L 84.4 11.4 L 84.4 7.7 L 85.6 7.7 L 85.6 16.5 L 84.4 16.5 L 84.4 12.4 L 79.9 12.4 L 79.9 16.5 L 78.7 16.5 L 78.7 7.7 " fill="#191919"/>
<path class="atom-7" d="M 48.3 69.3 Q 48.4 69.4, 48.8 69.5 Q 49.2 69.7, 49.7 69.8 Q 50.2 69.9, 50.6 69.9 Q 51.4 69.9, 51.9 69.5 Q 52.4 69.1, 52.4 68.4 Q 52.4 67.9, 52.2 67.6 Q 51.9 67.3, 51.6 67.1 Q 51.2 67.0, 50.6 66.8 Q 49.8 66.6, 49.3 66.3 Q 48.8 66.1, 48.5 65.6 Q 48.2 65.2, 48.2 64.4 Q 48.2 63.2, 48.9 62.5 Q 49.7 61.9, 51.2 61.9 Q 52.2 61.9, 53.4 62.3 L 53.1 63.3 Q 52.0 62.9, 51.2 62.9 Q 50.4 62.9, 49.9 63.2 Q 49.4 63.6, 49.4 64.2 Q 49.4 64.7, 49.6 65.0 Q 49.9 65.3, 50.3 65.4 Q 50.6 65.6, 51.2 65.8 Q 52.0 66.0, 52.5 66.3 Q 53.0 66.5, 53.3 67.0 Q 53.7 67.5, 53.7 68.4 Q 53.7 69.6, 52.8 70.3 Q 52.0 70.9, 50.7 70.9 Q 49.9 70.9, 49.3 70.8 Q 48.7 70.6, 48.0 70.3 L 48.3 69.3 " fill="#CCCC00"/>
<path class="atom-8" d="M 11.3 65.3 L 12.6 64.0 L 10.9 63.6 L 11.1 62.7 L 12.7 63.5 L 12.5 61.8 L 13.4 61.8 L 13.2 63.5 L 14.8 62.8 L 15.1 63.6 L 13.3 63.9 L 14.6 65.3 L 13.8 65.8 L 12.9 64.2 L 12.1 65.8 L 11.3 65.3 " fill="#191919"/>
<path class="atom-8" d="M 16.0 61.9 L 17.2 61.9 L 17.2 65.7 L 21.8 65.7 L 21.8 61.9 L 23.0 61.9 L 23.0 70.8 L 21.8 70.8 L 21.8 66.7 L 17.2 66.7 L 17.2 70.8 L 16.0 70.8 L 16.0 61.9 " fill="#191919"/>
<path class="atom-9" d="M 49.1 34.0 L 50.4 32.6 L 48.7 32.3 L 49.0 31.4 L 50.6 32.2 L 50.3 30.4 L 51.3 30.4 L 51.0 32.2 L 52.6 31.4 L 52.9 32.3 L 51.2 32.6 L 52.4 33.9 L 51.6 34.5 L 50.8 32.8 L 49.9 34.5 L 49.1 34.0 " fill="#191919"/>
<path class="atom-10" d="M 49.1 96.6 L 50.4 95.3 L 48.7 94.9 L 49.0 94.1 L 50.6 94.9 L 50.3 93.1 L 51.3 93.1 L 51.0 94.8 L 52.6 94.1 L 52.9 94.9 L 51.2 95.3 L 52.4 96.6 L 51.6 97.2 L 50.8 95.5 L 49.9 97.2 L 49.1 96.6 " fill="#191919"/>
<path class="legend" d="M 57.9 141.1 L 60.4 141.1 L 60.4 132.6 L 57.6 133.5 L 57.3 132.5 L 60.7 131.0 L 61.9 131.2 L 61.9 141.1 L 64.1 141.1 L 64.1 142.4 L 57.9 142.4 L 57.9 141.1 " fill="#000000"/>
<path class="legend" d="M 69.7 142.5 Q 67.6 142.5, 66.5 141.0 Q 65.5 139.4, 65.5 136.7 Q 65.5 134.0, 66.5 132.4 Q 67.6 130.9, 69.7 130.9 Q 71.7 130.9, 72.8 132.4 Q 73.8 134.0, 73.8 136.7 Q 73.8 139.4, 72.8 141.0 Q 71.7 142.5, 69.7 142.5 M 69.7 141.2 Q 70.9 141.2, 71.5 140.1 Q 72.2 138.9, 72.2 136.7 Q 72.2 134.5, 71.5 133.3 Q 70.9 132.2, 69.7 132.2 Q 68.4 132.2, 67.8 133.3 Q 67.1 134.5, 67.1 136.7 Q 67.1 138.9, 67.8 140.1 Q 68.4 141.2, 69.7 141.2 " fill="#000000"/>
<path class="legend" d="M 75.6 133.2 Q 76.0 132.1, 77.0 131.5 Q 78.0 130.9, 79.4 130.9 Q 81.1 130.9, 82.1 131.8 Q 83.0 132.8, 83.0 134.4 Q 83.0 136.1, 81.8 137.7 Q 80.5 139.2, 78.0 141.1 L 83.2 141.1 L 83.2 142.4 L 75.6 142.4 L 75.6 141.3 Q 77.7 139.8, 78.9 138.7 Q 80.2 137.6, 80.8 136.5 Q 81.4 135.5, 81.4 134.5 Q 81.4 133.4, 80.9 132.8 Q 80.3 132.2, 79.4 132.2 Q 78.5 132.2, 77.9 132.6 Q 77.3 132.9, 76.8 133.7 L 75.6 133.2 " fill="#000000"/>
<path class="legend" d="M 85.5 141.1 L 88.0 141.1 L 88.0 132.6 L 85.3 133.5 L 84.9 132.5 L 88.4 131.0 L 89.5 131.2 L 89.5 141.1 L 91.7 141.1 L 91.7 142.4 L 85.5 142.4 L 85.5 141.1 " fill="#000000"/>
</svg>