<svg xmlns="http://www.w3.org/2000/svg" xmlns:rdkit="http://www.rdkit.org/xml" xmlns:xlink="http://www.w3.org/1999/xlink" version="1.1" baseProfile="full" xml:space="preserve" width="150px" height="150px" viewBox="0 0 150 150">
<!-- END OF HEADER -->
<rect style="opacity:1.0;fill:#FFFFFF;stroke:none" width="150.0" height="150.0" x="0.0" y="0.0"> </rect>
<ellipse cx="76.2" cy="78.4" rx="7.3" ry="7.3" class="atom-8" style="fill:#9999E5;fill-rule:evenodd;stroke:#9999E5;stroke-width:1.0px;stroke-linecap:butt;stroke-linejoin:miter;stroke-opacity:1"/>
<path class="bond-0 atom-0 atom-1" d="M 93.9,127.0 L 109.4,93.8" style="fill:none;fill-rule:evenodd;stroke:#000000;stroke-width:2.0px;stroke-linecap:butt;stroke-linejoin:miter;stroke-opacity:1"/>
<path class="bond-1 atom-2 atom-1" d="M 124.8,60.7 L 109.4,93.8" style="fill:none;fill-rule:evenodd;stroke:#000000;stroke-width:2.0px;stroke-linecap:butt;stroke-linejoin:miter;stroke-opacity:1"/>
<path class="bond-2 atom-3 atom-1" d="M 142.5,109.3 L 109.4,93.8" style="fill:none;fill-rule:evenodd;stroke:#000000;stroke-width:2.0px;stroke-linecap:butt;stroke-linejoin:miter;stroke-opacity:1"/>
<path class="bond-3 atom-4 atom-5" d="M 13.6,45.0 L 34.7,30.2" style="fill:none;fill-rule:evenodd;stroke:#E5E5E5;stroke-width:1.9px;stroke-linecap:butt;stroke-linejoin:miter;stroke-opacity:1"/>
<path class="bond-4 atom-6 atom-5" d="M 73.0,42.0 L 59.0,35.5" style="fill:none;fill-rule:evenodd;stroke:#000000;stroke-width:2.0px;stroke-linecap:butt;stroke-linejoin:miter;stroke-opacity:1"/>
<path class="bond-4 atom-6 atom-5" d="M 59.0,35.5 L 45.0,29.0" style="fill:none;fill-rule:evenodd;stroke:#0000FF;stroke-width:2.0px;stroke-linecap:butt;stroke-linejoin:miter;stroke-opacity:1"/>
<path class="bond-5 atom-6 atom-7" d="M 73.3,45.2 L 85.9,36.3" style="fill:none;fill-rule:evenodd;stroke:#000000;stroke-width:2.0px;stroke-linecap:butt;stroke-linejoin:miter;stroke-opacity:1"/>
<path class="bond-5 atom-6 atom-7" d="M 85.9,36.3 L 98.5,27.4" style="fill:none;fill-rule:evenodd;stroke:#FF0000;stroke-width:2.0px;stroke-linecap:butt;stroke-linejoin:miter;stroke-opacity:1"/>
<path class="bond-5 atom-6 atom-7" d="M 70.1,40.7 L 82.8,31.8" style="fill:none;fill-rule:evenodd;stroke:#000000;stroke-width:2.0px;stroke-linecap:butt;stroke-linejoin:miter;stroke-opacity:1"/>
<path class="bond-5 atom-6 atom-7" d="M 82.8,31.8 L 95.4,23.0" style="fill:none;fill-rule:evenodd;stroke:#FF0000;stroke-width:2.0px;stroke-linecap:butt;stroke-linejoin:miter;stroke-opacity:1"/>
<path class="bond-6 atom-6 atom-8" d="M 73.0,42.0 L 74.3,57.0" style="fill:none;fill-rule:evenodd;stroke:#000000;stroke-width:2.0px;stroke-linecap:butt;stroke-linejoin:miter;stroke-opacity:1"/>
<path class="bond-6 atom-6 atom-8" d="M 74.3,57.0 L 75.7,72.0" style="fill:none;fill-rule:evenodd;stroke:#FF0000;stroke-width:2.0px;stroke-linecap:butt;stroke-linejoin:miter;stroke-opacity:1"/>
<path class="bond-7 atom-1 atom-8" d="M 109.4,93.8 L 95.8,87.5" style="fill:none;fill-rule:evenodd;stroke:#000000;stroke-width:2.0px;stroke-linecap:butt;stroke-linejoin:miter;stroke-opacity:1"/>
<path class="bond-7 atom-1 atom-8" d="M 95.8,87.5 L 82.2,81.2" style="fill:none;fill-rule:evenodd;stroke:#FF0000;stroke-width:2.0px;stroke-linecap:butt;stroke-linejoin:miter;stroke-opacity:1"/>
<path d="M 72.3,41.7 L 73.0,42.0 L 73.1,42.8" style="fill:none;stroke:#000000;stroke-width:2.0px;stroke-linecap:butt;stroke-linejoin:miter;stroke-opacity:1;"/>
<path class="atom-4" d="M 8.0 46.4 L 9.5 44.9 L 7.5 44.5 L 7.8 43.4 L 9.7 44.4 L 9.4 42.3 L 10.5 42.3 L 10.2 44.3 L 12.1 43.5 L 12.4 44.5 L 10.4 44.8 L 11.8 46.4 L 10.9 47.1 L 9.9 45.1 L 8.9 47.1 L 8.0 46.4 " fill="#191919"/>
<path class="atom-5" d="M 37.6 21.4 L 41.0 26.9 Q 41.3 27.4, 41.9 28.4 Q 42.4 29.4, 42.4 29.5 L 42.4 21.4 L 43.8 21.4 L 43.8 31.8 L 42.4 31.8 L 38.7 25.8 Q 38.3 25.1, 37.9 24.3 Q 37.4 23.5, 37.3 23.2 L 37.3 31.8 L 35.9 31.8 L 35.9 21.4 L 37.6 21.4 " fill="#0000FF"/>
<path class="atom-5" d="M 35.8 10.0 L 37.2 10.0 L 37.2 14.4 L 42.5 14.4 L 42.5 10.0 L 43.9 10.0 L 43.9 20.4 L 42.5 20.4 L 42.5 15.6 L 37.2 15.6 L 37.2 20.4 L 35.8 20.4 L 35.8 10.0 " fill="#0000FF"/>
<path class="atom-7" d="M 98.2 21.0 Q 98.2 18.6, 99.4 17.2 Q 100.6 15.8, 102.9 15.8 Q 105.2 15.8, 106.5 17.2 Q 107.7 18.6, 107.7 21.0 Q 107.7 23.6, 106.4 25.0 Q 105.2 26.4, 102.9 26.4 Q 100.7 26.4, 99.4 25.0 Q 98.2 23.6, 98.2 21.0 M 102.9 25.2 Q 104.5 25.2, 105.4 24.2 Q 106.2 23.1, 106.2 21.0 Q 106.2 19.0, 105.4 18.0 Q 104.5 17.0, 102.9 17.0 Q 101.4 17.0, 100.5 18.0 Q 99.6 19.0, 99.6 21.0 Q 99.6 23.1, 100.5 24.2 Q 101.4 25.2, 102.9 25.2 " fill="#FF0000"/>
<path class="atom-8" d="M 71.5 78.4 Q 71.5 76.0, 72.7 74.6 Q 73.9 73.2, 76.2 73.2 Q 78.5 73.2, 79.7 74.6 Q 81.0 76.0, 81.0 78.4 Q 81.0 81.0, 79.7 82.4 Q 78.5 83.8, 76.2 83.8 Q 73.9 83.8, 72.7 82.4 Q 71.5 81.0, 71.5 78.4 M 76.2 82.6 Q 77.8 82.6, 78.7 81.6 Q 79.5 80.5, 79.5 78.4 Q 79.5 76.4, 78.7 75.4 Q 77.8 74.4, 76.2 74.4 Q 74.6 74.4, 73.8 75.4 Q 72.9 76.4, 72.9 78.4 Q 72.9 80.5, 73.8 81.6 Q 74.6 82.6, 76.2 82.6 " fill="#FF0000"/>
<path class="legend" d="M 56.6 141.1 L 59.1 141.1 L 59.1 132.6 L 56.4 133.5 L 56.0 132.5 L 59.5 131.0 L 60.6 131.2 L 60.6 141.1 L 62.8 141.1 L 62.8 142.4 L 56.6 142.4 L 56.6 141.1 " fill="#000000"/>
<path class="legend" d="M 68.4 142.5 Q 66.4 142.5, 65.3 141.0 Q 64.3 139.4, 64.3 136.7 Q 64.3 134.0, 65.3 132.4 Q 66.3 130.9, 68.4 130.9 Q 70.5 130.9, 71.6 132.4 Q 72.6 134.0, 72.6 136.7 Q 72.6 139.4, 71.5 141.0 Q 70.5 142.5, 68.4 142.5 M 68.4 141.2 Q 69.7 141.2, 70.3 140.1 Q 71.0 138.9, 71.0 136.7 Q 71.0 134.5, 70.3 133.3 Q 69.7 132.2, 68.4 132.2 Q 67.2 132.2, 66.5 133.3 Q 65.9 134.5, 65.9 136.7 Q 65.9 138.9, 66.5 140.1 Q 67.2 141.2, 68.4 141.2 " fill="#000000"/>
<path class="legend" d="M 81.8 138.5 L 83.1 138.5 L 83.1 139.8 L 81.8 139.8 L 81.8 142.4 L 80.3 142.4 L 80.3 139.8 L 74.4 139.8 L 74.4 138.8 L 79.4 131.0 L 81.8 131.0 L 81.8 138.5 M 76.3 138.5 L 80.3 138.5 L 80.3 132.1 L 76.3 138.5 " fill="#000000"/>
<path class="legend" d="M 88.9 142.5 Q 86.8 142.5, 85.8 141.0 Q 84.7 139.4, 84.7 136.7 Q 84.7 134.0, 85.8 132.4 Q 86.8 130.9, 88.9 130.9 Q 91.0 130.9, 92.0 132.4 Q 93.0 134.0, 93.0 136.7 Q 93.0 139.4, 92.0 141.0 Q 91.0 142.5, 88.9 142.5 M 88.9 141.2 Q 90.1 141.2, 90.8 140.1 Q 91.4 138.9, 91.4 136.7 Q 91.4 134.5, 90.8 133.3 Q 90.1 132.2, 88.9 132.2 Q 87.7 132.2, 87.0 133.3 Q 86.3 134.5, 86.3 136.7 Q 86.3 138.9, 87.0 140.1 Q 87.7 141.2, 88.9 141.2 " fill="#000000"/>
</svg>