<svg xmlns="http://www.w3.org/2000/svg" xmlns:rdkit="http://www.rdkit.org/xml" xmlns:xlink="http://www.w3.org/1999/xlink" version="1.1" baseProfile="full" xml:space="preserve" width="150px" height="150px" viewBox="0 0 150 150">
<!-- END OF HEADER -->
<rect style="opacity:1.0;fill:#FFFFFF;stroke:none" width="150.0" height="150.0" x="0.0" y="0.0"> </rect>
<ellipse cx="27.5" cy="105.6" rx="6.3" ry="6.3" class="atom-0" style="fill:#E5E533;fill-rule:evenodd;stroke:#E5E533;stroke-width:1.0px;stroke-linecap:butt;stroke-linejoin:miter;stroke-opacity:1"/>
<ellipse cx="13.8" cy="77.0" rx="6.3" ry="6.3" class="atom-1" style="fill:#E5E533;fill-rule:evenodd;stroke:#E5E533;stroke-width:1.0px;stroke-linecap:butt;stroke-linejoin:miter;stroke-opacity:1"/>
<ellipse cx="59.2" cy="108.1" rx="6.3" ry="6.3" class="atom-2" style="fill:#9999E5;fill-rule:evenodd;stroke:#9999E5;stroke-width:1.0px;stroke-linecap:butt;stroke-linejoin:miter;stroke-opacity:1"/>
<ellipse cx="77.1" cy="81.9" rx="6.3" ry="6.3" class="atom-4" style="fill:#E5E533;fill-rule:evenodd;stroke:#E5E533;stroke-width:1.0px;stroke-linecap:butt;stroke-linejoin:miter;stroke-opacity:1"/>
<ellipse cx="63.4" cy="53.3" rx="6.3" ry="6.3" class="atom-5" style="fill:#E5E533;fill-rule:evenodd;stroke:#E5E533;stroke-width:1.0px;stroke-linecap:butt;stroke-linejoin:miter;stroke-opacity:1"/>
<path class="bond-0 atom-0 atom-1" d="M 27.5,105.6 L 13.8,77.0" style="fill:none;fill-rule:evenodd;stroke:#000000;stroke-width:2.0px;stroke-linecap:butt;stroke-linejoin:miter;stroke-opacity:1"/>
<path class="bond-1 atom-0 atom-2" d="M 27.5,105.6 L 59.2,108.1" style="fill:none;fill-rule:evenodd;stroke:#000000;stroke-width:2.0px;stroke-linecap:butt;stroke-linejoin:miter;stroke-opacity:1"/>
<path class="bond-1 atom-0 atom-2" d="M 30.6,101.1 L 56.8,103.1" style="fill:none;fill-rule:evenodd;stroke:#000000;stroke-width:2.0px;stroke-linecap:butt;stroke-linejoin:miter;stroke-opacity:1"/>
<path class="bond-2 atom-1 atom-3" d="M 13.8,77.0 L 27.9,56.4" style="fill:none;fill-rule:evenodd;stroke:#E5E5E5;stroke-width:1.7px;stroke-linecap:butt;stroke-linejoin:miter;stroke-opacity:1"/>
<path class="bond-2 atom-1 atom-3" d="M 19.3,77.4 L 31.9,59.1" style="fill:none;fill-rule:evenodd;stroke:#E5E5E5;stroke-width:1.7px;stroke-linecap:butt;stroke-linejoin:miter;stroke-opacity:1"/>
<path class="bond-3 atom-2 atom-4" d="M 59.2,108.1 L 77.1,81.9" style="fill:none;fill-rule:evenodd;stroke:#000000;stroke-width:2.0px;stroke-linecap:butt;stroke-linejoin:miter;stroke-opacity:1"/>
<path class="bond-4 atom-3 atom-5" d="M 36.4,51.2 L 63.4,53.3" style="fill:none;fill-rule:evenodd;stroke:#E5E5E5;stroke-width:1.7px;stroke-linecap:butt;stroke-linejoin:miter;stroke-opacity:1"/>
<path class="bond-5 atom-6 atom-4" d="M 108.7,84.4 L 77.1,81.9" style="fill:none;fill-rule:evenodd;stroke:#000000;stroke-width:2.0px;stroke-linecap:butt;stroke-linejoin:miter;stroke-opacity:1"/>
<path class="bond-6 atom-6 atom-7" d="M 108.7,84.4 L 137.2,86.6" style="fill:none;fill-rule:evenodd;stroke:#E5E5E5;stroke-width:1.7px;stroke-linecap:butt;stroke-linejoin:miter;stroke-opacity:1"/>
<path class="bond-6 atom-6 atom-7" d="M 109.1,79.7 L 137.6,81.9" style="fill:none;fill-rule:evenodd;stroke:#E5E5E5;stroke-width:1.7px;stroke-linecap:butt;stroke-linejoin:miter;stroke-opacity:1"/>
<path class="bond-6 atom-6 atom-7" d="M 108.4,89.1 L 136.8,91.4" style="fill:none;fill-rule:evenodd;stroke:#E5E5E5;stroke-width:1.7px;stroke-linecap:butt;stroke-linejoin:miter;stroke-opacity:1"/>
<path class="bond-7 atom-4 atom-5" d="M 77.1,81.9 L 63.4,53.3" style="fill:none;fill-rule:evenodd;stroke:#000000;stroke-width:2.0px;stroke-linecap:butt;stroke-linejoin:miter;stroke-opacity:1"/>
<path class="bond-7 atom-4 atom-5" d="M 71.6,81.5 L 60.3,57.8" style="fill:none;fill-rule:evenodd;stroke:#000000;stroke-width:2.0px;stroke-linecap:butt;stroke-linejoin:miter;stroke-opacity:1"/>
<path class="bond-8 atom-5 atom-8" d="M 63.4,53.3 L 81.0,27.7" style="fill:none;fill-rule:evenodd;stroke:#E5E5E5;stroke-width:1.7px;stroke-linecap:butt;stroke-linejoin:miter;stroke-opacity:1"/>
<path d="M 26.8,104.2 L 27.5,105.6 L 29.1,105.7" style="fill:none;stroke:#000000;stroke-width:2.0px;stroke-linecap:butt;stroke-linejoin:miter;stroke-opacity:1;"/>
<path d="M 14.2,77.7 L 13.8,77.0 L 14.2,76.5" style="fill:none;stroke:#000000;stroke-width:2.0px;stroke-linecap:butt;stroke-linejoin:miter;stroke-opacity:1;"/>
<path d="M 57.6,108.0 L 59.2,108.1 L 60.0,106.8" style="fill:none;stroke:#000000;stroke-width:2.0px;stroke-linecap:butt;stroke-linejoin:miter;stroke-opacity:1;"/>
<path d="M 108.0,84.3 L 108.7,84.4 L 109.5,84.5" style="fill:none;stroke:#000000;stroke-width:2.0px;stroke-linecap:butt;stroke-linejoin:miter;stroke-opacity:1;"/>
<path class="atom-3" d="M 23.5 49.8 L 24.8 48.5 L 23.1 48.1 L 23.4 47.2 L 25.0 48.0 L 24.7 46.3 L 25.7 46.3 L 25.4 48.0 L 27.1 47.3 L 27.3 48.1 L 25.6 48.4 L 26.8 49.8 L 26.1 50.4 L 25.2 48.7 L 24.3 50.4 L 23.5 49.8 " fill="#191919"/>
<path class="atom-3" d="M 28.3 46.4 L 29.5 46.4 L 29.5 50.2 L 34.1 50.2 L 34.1 46.4 L 35.3 46.4 L 35.3 55.4 L 34.1 55.4 L 34.1 51.2 L 29.5 51.2 L 29.5 55.4 L 28.3 55.4 L 28.3 46.4 " fill="#191919"/>
<path class="atom-7" d="M 138.7 85.9 L 140.0 84.5 L 138.2 84.2 L 138.5 83.3 L 140.1 84.1 L 139.9 82.3 L 140.9 82.3 L 140.6 84.1 L 142.2 83.3 L 142.5 84.2 L 140.7 84.5 L 142.0 85.9 L 141.2 86.4 L 140.3 84.7 L 139.5 86.4 L 138.7 85.9 " fill="#191919"/>
<path class="atom-8" d="M 79.7 26.1 L 81.0 24.8 L 79.3 24.4 L 79.5 23.5 L 81.1 24.3 L 80.9 22.6 L 81.9 22.6 L 81.6 24.3 L 83.2 23.6 L 83.5 24.4 L 81.7 24.8 L 83.0 26.1 L 82.2 26.7 L 81.4 25.0 L 80.5 26.7 L 79.7 26.1 " fill="#191919"/>
<path class="atom-8" d="M 84.5 22.7 L 85.7 22.7 L 85.7 26.5 L 90.3 26.5 L 90.3 22.7 L 91.5 22.7 L 91.5 31.7 L 90.3 31.7 L 90.3 27.6 L 85.7 27.6 L 85.7 31.7 L 84.5 31.7 L 84.5 22.7 " fill="#191919"/>
<path class="legend" d="M 57.4 141.1 L 59.9 141.1 L 59.9 132.6 L 57.1 133.5 L 56.8 132.5 L 60.2 131.0 L 61.4 131.2 L 61.4 141.1 L 63.6 141.1 L 63.6 142.4 L 57.4 142.4 L 57.4 141.1 " fill="#000000"/>
<path class="legend" d="M 69.2 142.5 Q 67.1 142.5, 66.0 141.0 Q 65.0 139.4, 65.0 136.7 Q 65.0 134.0, 66.0 132.4 Q 67.1 130.9, 69.2 130.9 Q 71.3 130.9, 72.3 132.4 Q 73.3 134.0, 73.3 136.7 Q 73.3 139.4, 72.3 141.0 Q 71.2 142.5, 69.2 142.5 M 69.2 141.2 Q 70.4 141.2, 71.1 140.1 Q 71.7 138.9, 71.7 136.7 Q 71.7 134.5, 71.1 133.3 Q 70.4 132.2, 69.2 132.2 Q 67.9 132.2, 67.3 133.3 Q 66.6 134.5, 66.6 136.7 Q 66.6 138.9, 67.3 140.1 Q 67.9 141.2, 69.2 141.2 " fill="#000000"/>
<path class="legend" d="M 79.5 135.3 Q 80.5 135.3, 81.3 135.7 Q 82.1 136.2, 82.5 136.9 Q 83.0 137.7, 83.0 138.7 Q 83.0 139.8, 82.5 140.7 Q 82.0 141.5, 81.1 142.0 Q 80.3 142.5, 79.2 142.5 Q 77.1 142.5, 76.1 141.1 Q 75.1 139.8, 75.1 137.0 Q 75.1 134.0, 76.4 132.5 Q 77.6 130.9, 80.0 130.9 Q 80.7 130.9, 81.3 131.1 Q 81.9 131.2, 82.5 131.6 L 81.9 132.6 Q 81.1 132.2, 80.1 132.2 Q 78.5 132.2, 77.6 133.2 Q 76.8 134.3, 76.7 136.4 Q 77.3 135.9, 78.0 135.6 Q 78.8 135.3, 79.5 135.3 M 79.2 141.2 Q 79.8 141.2, 80.3 140.9 Q 80.8 140.5, 81.1 140.0 Q 81.4 139.4, 81.4 138.7 Q 81.4 137.7, 80.8 137.2 Q 80.3 136.6, 79.3 136.6 Q 78.6 136.6, 77.9 136.9 Q 77.2 137.1, 76.7 137.6 Q 76.8 139.5, 77.4 140.3 Q 78.0 141.2, 79.2 141.2 " fill="#000000"/>
<path class="legend" d="M 84.6 133.2 Q 85.1 132.1, 86.1 131.5 Q 87.0 130.9, 88.4 130.9 Q 90.1 130.9, 91.1 131.8 Q 92.1 132.8, 92.1 134.4 Q 92.1 136.1, 90.8 137.7 Q 89.6 139.2, 87.0 141.1 L 92.2 141.1 L 92.2 142.4 L 84.6 142.4 L 84.6 141.3 Q 86.7 139.8, 88.0 138.7 Q 89.2 137.6, 89.8 136.5 Q 90.5 135.5, 90.5 134.5 Q 90.5 133.4, 89.9 132.8 Q 89.4 132.2, 88.4 132.2 Q 87.5 132.2, 86.9 132.6 Q 86.3 132.9, 85.9 133.7 L 84.6 133.2 " fill="#000000"/>
</svg>