<svg xmlns="http://www.w3.org/2000/svg" xmlns:rdkit="http://www.rdkit.org/xml" xmlns:xlink="http://www.w3.org/1999/xlink" version="1.1" baseProfile="full" xml:space="preserve" width="150px" height="150px" viewBox="0 0 150 150">
<!-- END OF HEADER -->
<rect style="opacity:1.0;fill:#FFFFFF;stroke:none" width="150.0" height="150.0" x="0.0" y="0.0"> </rect>
<ellipse cx="87.5" cy="67.9" rx="5.7" ry="5.7" class="atom-3" style="fill:#9999E5;fill-rule:evenodd;stroke:#9999E5;stroke-width:1.0px;stroke-linecap:butt;stroke-linejoin:miter;stroke-opacity:1"/>
<path class="bond-0 atom-0 atom-1" d="M 19.4,45.8 L 43.8,44.9" style="fill:none;fill-rule:evenodd;stroke:#E5E5E5;stroke-width:1.5px;stroke-linecap:butt;stroke-linejoin:miter;stroke-opacity:1"/>
<path class="bond-1 atom-2 atom-3" d="M 102.7,92.0 L 87.5,67.9" style="fill:none;fill-rule:evenodd;stroke:#000000;stroke-width:2.0px;stroke-linecap:butt;stroke-linejoin:miter;stroke-opacity:1"/>
<path class="bond-2 atom-2 atom-4" d="M 102.7,92.0 L 114.6,91.6" style="fill:none;fill-rule:evenodd;stroke:#000000;stroke-width:2.0px;stroke-linecap:butt;stroke-linejoin:miter;stroke-opacity:1"/>
<path class="bond-2 atom-2 atom-4" d="M 114.6,91.6 L 126.6,91.1" style="fill:none;fill-rule:evenodd;stroke:#FF0000;stroke-width:2.0px;stroke-linecap:butt;stroke-linejoin:miter;stroke-opacity:1"/>
<path class="bond-3 atom-1 atom-5" d="M 43.8,44.9 L 49.9,54.4" style="fill:none;fill-rule:evenodd;stroke:#000000;stroke-width:2.0px;stroke-linecap:butt;stroke-linejoin:miter;stroke-opacity:1"/>
<path class="bond-3 atom-1 atom-5" d="M 49.9,54.4 L 55.9,64.0" style="fill:none;fill-rule:evenodd;stroke:#FF0000;stroke-width:2.0px;stroke-linecap:butt;stroke-linejoin:miter;stroke-opacity:1"/>
<path class="bond-4 atom-3 atom-5" d="M 87.5,67.9 L 75.6,68.4" style="fill:none;fill-rule:evenodd;stroke:#000000;stroke-width:2.0px;stroke-linecap:butt;stroke-linejoin:miter;stroke-opacity:1"/>
<path class="bond-4 atom-3 atom-5" d="M 75.6,68.4 L 63.7,68.8" style="fill:none;fill-rule:evenodd;stroke:#FF0000;stroke-width:2.0px;stroke-linecap:butt;stroke-linejoin:miter;stroke-opacity:1"/>
<path d="M 43.2,44.9 L 43.8,44.9 L 44.0,45.1" style="fill:none;stroke:#E5E5E5;stroke-width:1.5px;stroke-linecap:butt;stroke-linejoin:miter;stroke-opacity:1;"/>
<path d="M 102.0,90.8 L 102.7,92.0 L 103.3,92.0" style="fill:none;stroke:#000000;stroke-width:2.0px;stroke-linecap:butt;stroke-linejoin:miter;stroke-opacity:1;"/>
<path d="M 88.3,69.1 L 87.5,67.9 L 86.9,67.9" style="fill:none;stroke:#000000;stroke-width:2.0px;stroke-linecap:butt;stroke-linejoin:miter;stroke-opacity:1;"/>
<path class="atom-0" d="M 7.9 45.1 L 9.1 43.8 L 7.5 43.5 L 7.7 42.7 L 9.2 43.4 L 9.0 41.9 L 9.8 41.8 L 9.6 43.4 L 11.1 42.7 L 11.3 43.5 L 9.7 43.8 L 10.9 45.0 L 10.2 45.5 L 9.4 44.0 L 8.6 45.5 L 7.9 45.1 " fill="#191919"/>
<path class="atom-0" d="M 12.2 42.0 L 13.3 42.0 L 13.3 45.4 L 17.4 45.4 L 17.4 42.0 L 18.5 42.0 L 18.5 50.1 L 17.4 50.1 L 17.4 46.3 L 13.3 46.3 L 13.3 50.1 L 12.2 50.1 L 12.2 42.0 " fill="#191919"/>
<path class="atom-0" d="M 20.0 49.8 Q 20.2 49.3, 20.7 49.0 Q 21.1 48.7, 21.8 48.7 Q 22.6 48.7, 23.0 49.1 Q 23.5 49.6, 23.5 50.4 Q 23.5 51.1, 22.9 51.9 Q 22.3 52.6, 21.1 53.5 L 23.6 53.5 L 23.6 54.1 L 20.0 54.1 L 20.0 53.6 Q 21.0 52.9, 21.6 52.4 Q 22.2 51.8, 22.5 51.4 Q 22.7 50.9, 22.7 50.4 Q 22.7 49.9, 22.5 49.6 Q 22.2 49.3, 21.8 49.3 Q 21.4 49.3, 21.1 49.5 Q 20.8 49.7, 20.6 50.0 L 20.0 49.8 " fill="#191919"/>
<path class="atom-4" d="M 127.5 91.0 Q 127.5 89.0, 128.5 87.9 Q 129.4 86.9, 131.2 86.9 Q 133.0 86.9, 134.0 87.9 Q 134.9 89.0, 134.9 91.0 Q 134.9 92.9, 134.0 94.0 Q 133.0 95.2, 131.2 95.2 Q 129.4 95.2, 128.5 94.0 Q 127.5 92.9, 127.5 91.0 M 131.2 94.2 Q 132.4 94.2, 133.1 93.4 Q 133.8 92.6, 133.8 91.0 Q 133.8 89.4, 133.1 88.6 Q 132.4 87.8, 131.2 87.8 Q 130.0 87.8, 129.3 88.6 Q 128.6 89.4, 128.6 91.0 Q 128.6 92.6, 129.3 93.4 Q 130.0 94.2, 131.2 94.2 " fill="#FF0000"/>
<path class="atom-4" d="M 136.2 87.0 L 137.3 87.0 L 137.3 90.4 L 141.4 90.4 L 141.4 87.0 L 142.5 87.0 L 142.5 95.0 L 141.4 95.0 L 141.4 91.3 L 137.3 91.3 L 137.3 95.0 L 136.2 95.0 L 136.2 87.0 " fill="#FF0000"/>
<path class="atom-5" d="M 55.3 69.0 Q 55.3 67.1, 56.3 66.0 Q 57.2 64.9, 59.0 64.9 Q 60.8 64.9, 61.8 66.0 Q 62.7 67.1, 62.7 69.0 Q 62.7 71.0, 61.8 72.1 Q 60.8 73.2, 59.0 73.2 Q 57.3 73.2, 56.3 72.1 Q 55.3 71.0, 55.3 69.0 M 59.0 72.3 Q 60.3 72.3, 60.9 71.5 Q 61.6 70.6, 61.6 69.0 Q 61.6 67.4, 60.9 66.6 Q 60.3 65.8, 59.0 65.8 Q 57.8 65.8, 57.1 66.6 Q 56.5 67.4, 56.5 69.0 Q 56.5 70.6, 57.1 71.5 Q 57.8 72.3, 59.0 72.3 " fill="#FF0000"/>
<path class="legend" d="M 57.3 141.1 L 59.7 141.1 L 59.7 132.6 L 57.0 133.5 L 56.6 132.5 L 60.1 131.0 L 61.2 131.2 L 61.2 141.1 L 63.5 141.1 L 63.5 142.4 L 57.3 142.4 L 57.3 141.1 " fill="#000000"/>
<path class="legend" d="M 69.1 142.5 Q 67.0 142.5, 65.9 141.0 Q 64.9 139.4, 64.9 136.7 Q 64.9 134.0, 65.9 132.4 Q 67.0 130.9, 69.1 130.9 Q 71.1 130.9, 72.2 132.4 Q 73.2 134.0, 73.2 136.7 Q 73.2 139.4, 72.2 141.0 Q 71.1 142.5, 69.1 142.5 M 69.1 141.2 Q 70.3 141.2, 70.9 140.1 Q 71.6 138.9, 71.6 136.7 Q 71.6 134.5, 70.9 133.3 Q 70.3 132.2, 69.1 132.2 Q 67.8 132.2, 67.2 133.3 Q 66.5 134.5, 66.5 136.7 Q 66.5 138.9, 67.2 140.1 Q 67.8 141.2, 69.1 141.2 " fill="#000000"/>
<path class="legend" d="M 79.4 135.3 Q 80.4 135.3, 81.2 135.7 Q 82.0 136.2, 82.4 136.9 Q 82.9 137.7, 82.9 138.7 Q 82.9 139.8, 82.4 140.7 Q 81.9 141.5, 81.0 142.0 Q 80.2 142.5, 79.1 142.5 Q 77.0 142.5, 76.0 141.1 Q 75.0 139.8, 75.0 137.0 Q 75.0 134.0, 76.3 132.5 Q 77.5 130.9, 79.9 130.9 Q 80.6 130.9, 81.2 131.1 Q 81.8 131.2, 82.4 131.6 L 81.8 132.6 Q 81.0 132.2, 79.9 132.2 Q 78.3 132.2, 77.5 133.2 Q 76.7 134.3, 76.6 136.4 Q 77.2 135.9, 77.9 135.6 Q 78.7 135.3, 79.4 135.3 M 79.1 141.2 Q 79.7 141.2, 80.2 140.9 Q 80.7 140.5, 81.0 140.0 Q 81.3 139.4, 81.3 138.7 Q 81.3 137.7, 80.7 137.2 Q 80.1 136.6, 79.1 136.6 Q 78.5 136.6, 77.8 136.9 Q 77.1 137.1, 76.6 137.6 Q 76.7 139.5, 77.3 140.3 Q 77.9 141.2, 79.1 141.2 " fill="#000000"/>
<path class="legend" d="M 88.3 130.9 Q 90.3 130.9, 91.3 132.3 Q 92.4 133.7, 92.4 136.4 Q 92.4 139.4, 91.1 140.9 Q 89.9 142.5, 87.4 142.5 Q 86.7 142.5, 86.1 142.3 Q 85.5 142.2, 85.0 141.8 L 85.6 140.8 Q 86.4 141.2, 87.4 141.2 Q 89.0 141.2, 89.8 140.2 Q 90.7 139.2, 90.8 137.0 Q 90.2 137.6, 89.4 137.8 Q 88.7 138.1, 87.9 138.1 Q 86.9 138.1, 86.2 137.7 Q 85.4 137.3, 84.9 136.5 Q 84.5 135.7, 84.5 134.7 Q 84.5 133.6, 85.0 132.7 Q 85.5 131.9, 86.4 131.4 Q 87.2 130.9, 88.3 130.9 M 86.1 134.7 Q 86.1 135.7, 86.7 136.3 Q 87.2 136.8, 88.2 136.8 Q 88.9 136.8, 89.6 136.6 Q 90.3 136.3, 90.8 135.8 Q 90.7 133.9, 90.1 133.1 Q 89.5 132.2, 88.3 132.2 Q 87.7 132.2, 87.2 132.5 Q 86.7 132.9, 86.4 133.4 Q 86.1 134.0, 86.1 134.7 " fill="#000000"/>
</svg>