<svg xmlns="http://www.w3.org/2000/svg" xmlns:rdkit="http://www.rdkit.org/xml" xmlns:xlink="http://www.w3.org/1999/xlink" version="1.1" baseProfile="full" xml:space="preserve" width="150px" height="150px" viewBox="0 0 150 150">
<!-- END OF HEADER -->
<rect style="opacity:1.0;fill:#FFFFFF;stroke:none" width="150.0" height="150.0" x="0.0" y="0.0"> </rect>
<ellipse cx="99.2" cy="52.6" rx="5.1" ry="5.1" class="atom-1" style="fill:#CCCCCC;fill-rule:evenodd;stroke:#CCCCCC;stroke-width:1.0px;stroke-linecap:butt;stroke-linejoin:miter;stroke-opacity:1"/>
<ellipse cx="107.0" cy="77.1" rx="5.1" ry="5.1" class="atom-3" style="fill:#CCCCCC;fill-rule:evenodd;stroke:#CCCCCC;stroke-width:1.0px;stroke-linecap:butt;stroke-linejoin:miter;stroke-opacity:1"/>
<ellipse cx="64.7" cy="90.6" rx="5.1" ry="5.1" class="atom-7" style="fill:#CCCCCC;fill-rule:evenodd;stroke:#CCCCCC;stroke-width:1.0px;stroke-linecap:butt;stroke-linejoin:miter;stroke-opacity:1"/>
<ellipse cx="56.9" cy="66.1" rx="5.1" ry="5.1" class="atom-8" style="fill:#CCCCCC;fill-rule:evenodd;stroke:#CCCCCC;stroke-width:1.0px;stroke-linecap:butt;stroke-linejoin:miter;stroke-opacity:1"/>
<ellipse cx="74.2" cy="47.1" rx="5.1" ry="5.1" class="atom-9" style="fill:#9999E5;fill-rule:evenodd;stroke:#9999E5;stroke-width:1.0px;stroke-linecap:butt;stroke-linejoin:miter;stroke-opacity:1"/>
<path class="bond-0 atom-0 atom-1" d="M 116.5,33.6 L 99.2,52.6" style="fill:none;fill-rule:evenodd;stroke:#000000;stroke-width:2.0px;stroke-linecap:butt;stroke-linejoin:miter;stroke-opacity:1"/>
<path class="bond-1 atom-2 atom-3" d="M 128.8,65.6 L 107.0,77.1" style="fill:none;fill-rule:evenodd;stroke:#E5E5E5;stroke-width:1.4px;stroke-linecap:butt;stroke-linejoin:miter;stroke-opacity:1"/>
<path class="bond-2 atom-4 atom-5" d="M 18.2,75.6 L 31.8,60.6" style="fill:none;fill-rule:evenodd;stroke:#E5E5E5;stroke-width:1.4px;stroke-linecap:butt;stroke-linejoin:miter;stroke-opacity:1"/>
<path class="bond-3 atom-6 atom-7" d="M 84.0,94.8 L 64.7,90.6" style="fill:none;fill-rule:evenodd;stroke:#E5E5E5;stroke-width:1.4px;stroke-linecap:butt;stroke-linejoin:miter;stroke-opacity:1"/>
<path class="bond-4 atom-6 atom-3" d="M 93.8,91.6 L 107.0,77.1" style="fill:none;fill-rule:evenodd;stroke:#E5E5E5;stroke-width:1.4px;stroke-linecap:butt;stroke-linejoin:miter;stroke-opacity:1"/>
<path class="bond-5 atom-5 atom-8" d="M 31.8,60.6 L 42.6,63.0" style="fill:none;fill-rule:evenodd;stroke:#000000;stroke-width:2.0px;stroke-linecap:butt;stroke-linejoin:miter;stroke-opacity:1"/>
<path class="bond-5 atom-5 atom-8" d="M 42.6,63.0 L 53.3,65.3" style="fill:none;fill-rule:evenodd;stroke:#0000FF;stroke-width:2.0px;stroke-linecap:butt;stroke-linejoin:miter;stroke-opacity:1"/>
<path class="bond-6 atom-7 atom-8" d="M 64.7,90.6 L 61.5,80.6" style="fill:none;fill-rule:evenodd;stroke:#000000;stroke-width:2.0px;stroke-linecap:butt;stroke-linejoin:miter;stroke-opacity:1"/>
<path class="bond-6 atom-7 atom-8" d="M 61.5,80.6 L 58.3,70.6" style="fill:none;fill-rule:evenodd;stroke:#0000FF;stroke-width:2.0px;stroke-linecap:butt;stroke-linejoin:miter;stroke-opacity:1"/>
<path class="bond-7 atom-9 atom-1" d="M 74.2,47.1 L 99.2,52.6" style="fill:none;fill-rule:evenodd;stroke:#000000;stroke-width:2.0px;stroke-linecap:butt;stroke-linejoin:miter;stroke-opacity:1"/>
<path class="bond-8 atom-9 atom-8" d="M 74.2,47.1 L 67.3,54.6" style="fill:none;fill-rule:evenodd;stroke:#000000;stroke-width:2.0px;stroke-linecap:butt;stroke-linejoin:miter;stroke-opacity:1"/>
<path class="bond-8 atom-9 atom-8" d="M 67.3,54.6 L 60.5,62.2" style="fill:none;fill-rule:evenodd;stroke:#0000FF;stroke-width:2.0px;stroke-linecap:butt;stroke-linejoin:miter;stroke-opacity:1"/>
<path class="bond-9 atom-1 atom-3" d="M 99.2,52.6 L 107.0,77.1" style="fill:none;fill-rule:evenodd;stroke:#000000;stroke-width:2.0px;stroke-linecap:butt;stroke-linejoin:miter;stroke-opacity:1"/>
<path class="bond-10 atom-10 atom-3" d="M 120.2,94.0 L 107.0,77.1" style="fill:none;fill-rule:evenodd;stroke:#E5E5E5;stroke-width:1.4px;stroke-linecap:butt;stroke-linejoin:miter;stroke-opacity:1"/>
<path d="M 31.5,61.0 L 31.8,60.6 L 32.1,60.7" style="fill:none;stroke:#E5E5E5;stroke-width:1.4px;stroke-linecap:butt;stroke-linejoin:miter;stroke-opacity:1;"/>
<path d="M 65.2,90.7 L 64.7,90.6 L 64.6,90.3" style="fill:none;stroke:#E5E5E5;stroke-width:1.4px;stroke-linecap:butt;stroke-linejoin:miter;stroke-opacity:1;"/>
<path d="M 75.4,47.4 L 74.2,47.1 L 73.8,47.5" style="fill:none;stroke:#000000;stroke-width:2.0px;stroke-linecap:butt;stroke-linejoin:miter;stroke-opacity:1;"/>
<path class="atom-2" d="M 128.4 64.3 L 129.5 63.2 L 128.0 63.0 L 128.3 62.2 L 129.6 62.9 L 129.4 61.5 L 130.1 61.4 L 129.9 62.9 L 131.2 62.3 L 131.5 63.0 L 130.0 63.2 L 131.1 64.3 L 130.4 64.8 L 129.7 63.4 L 129.0 64.8 L 128.4 64.3 " fill="#191919"/>
<path class="atom-2" d="M 132.3 61.6 L 133.2 61.6 L 133.2 64.7 L 137.0 64.7 L 137.0 61.6 L 137.9 61.6 L 137.9 68.8 L 137.0 68.8 L 137.0 65.5 L 133.2 65.5 L 133.2 68.8 L 132.3 68.8 L 132.3 61.6 " fill="#191919"/>
<path class="atom-2" d="M 141.6 69.9 Q 142.0 70.1, 142.3 70.4 Q 142.5 70.7, 142.5 71.2 Q 142.5 71.6, 142.3 71.9 Q 142.1 72.2, 141.7 72.4 Q 141.3 72.5, 140.9 72.5 Q 140.3 72.5, 140.0 72.4 Q 139.6 72.2, 139.3 71.8 L 139.7 71.4 Q 140.0 71.7, 140.2 71.9 Q 140.5 72.0, 140.9 72.0 Q 141.3 72.0, 141.6 71.8 Q 141.8 71.5, 141.8 71.1 Q 141.8 70.7, 141.5 70.4 Q 141.3 70.2, 140.7 70.2 L 140.3 70.2 L 140.3 69.7 L 140.6 69.7 Q 141.2 69.7, 141.4 69.5 Q 141.7 69.3, 141.7 68.8 Q 141.7 68.5, 141.5 68.3 Q 141.3 68.2, 140.9 68.2 Q 140.5 68.2, 140.2 68.3 Q 140.0 68.4, 139.8 68.8 L 139.3 68.5 Q 139.5 68.2, 139.9 67.9 Q 140.3 67.6, 140.9 67.6 Q 141.6 67.6, 142.0 67.9 Q 142.4 68.3, 142.4 68.8 Q 142.4 69.2, 142.2 69.5 Q 142.0 69.8, 141.6 69.9 " fill="#191919"/>
<path class="atom-4" d="M 7.8 78.8 L 8.9 77.7 L 7.5 77.4 L 7.7 76.7 L 9.0 77.4 L 8.8 75.9 L 9.6 75.9 L 9.4 77.3 L 10.7 76.7 L 10.9 77.4 L 9.5 77.7 L 10.5 78.8 L 9.9 79.2 L 9.2 77.9 L 8.5 79.2 L 7.8 78.8 " fill="#191919"/>
<path class="atom-4" d="M 11.7 76.0 L 12.7 76.0 L 12.7 79.1 L 16.4 79.1 L 16.4 76.0 L 17.4 76.0 L 17.4 83.3 L 16.4 83.3 L 16.4 80.0 L 12.7 80.0 L 12.7 83.3 L 11.7 83.3 L 11.7 76.0 " fill="#191919"/>
<path class="atom-4" d="M 18.8 83.1 Q 18.9 82.6, 19.3 82.4 Q 19.8 82.1, 20.4 82.1 Q 21.1 82.1, 21.5 82.5 Q 21.9 82.9, 21.9 83.6 Q 21.9 84.3, 21.4 85.0 Q 20.8 85.6, 19.8 86.4 L 22.0 86.4 L 22.0 86.9 L 18.7 86.9 L 18.7 86.5 Q 19.6 85.9, 20.2 85.4 Q 20.7 84.9, 21.0 84.5 Q 21.2 84.1, 21.2 83.6 Q 21.2 83.2, 21.0 82.9 Q 20.8 82.6, 20.4 82.6 Q 20.0 82.6, 19.7 82.8 Q 19.5 82.9, 19.3 83.3 L 18.8 83.1 " fill="#191919"/>
<path class="atom-6" d="M 85.2 95.2 L 86.2 94.1 L 84.8 93.8 L 85.0 93.1 L 86.3 93.8 L 86.1 92.3 L 86.9 92.3 L 86.7 93.8 L 88.0 93.1 L 88.3 93.8 L 86.8 94.1 L 87.8 95.2 L 87.2 95.7 L 86.5 94.3 L 85.8 95.7 L 85.2 95.2 " fill="#191919"/>
<path class="atom-6" d="M 89.0 92.5 L 90.0 92.5 L 90.0 95.6 L 93.7 95.6 L 93.7 92.5 L 94.7 92.5 L 94.7 99.7 L 93.7 99.7 L 93.7 96.4 L 90.0 96.4 L 90.0 99.7 L 89.0 99.7 L 89.0 92.5 " fill="#191919"/>
<path class="atom-6" d="M 96.1 99.5 Q 96.2 99.0, 96.7 98.8 Q 97.1 98.5, 97.7 98.5 Q 98.4 98.5, 98.8 98.9 Q 99.2 99.3, 99.2 100.0 Q 99.2 100.7, 98.7 101.4 Q 98.2 102.0, 97.1 102.8 L 99.3 102.8 L 99.3 103.4 L 96.1 103.4 L 96.1 102.9 Q 96.9 102.3, 97.5 101.8 Q 98.0 101.3, 98.3 100.9 Q 98.5 100.5, 98.5 100.0 Q 98.5 99.6, 98.3 99.3 Q 98.1 99.1, 97.7 99.1 Q 97.3 99.1, 97.0 99.2 Q 96.8 99.4, 96.6 99.7 L 96.1 99.5 " fill="#191919"/>
<path class="atom-8" d="M 55.3 62.5 L 57.7 66.3 Q 57.9 66.7, 58.3 67.4 Q 58.7 68.1, 58.7 68.1 L 58.7 62.5 L 59.7 62.5 L 59.7 69.7 L 58.7 69.7 L 56.1 65.5 Q 55.8 65.0, 55.5 64.5 Q 55.2 63.9, 55.1 63.7 L 55.1 69.7 L 54.1 69.7 L 54.1 62.5 L 55.3 62.5 " fill="#0000FF"/>
<path class="atom-10" d="M 121.4 96.6 L 122.4 95.5 L 121.0 95.2 L 121.2 94.4 L 122.5 95.1 L 122.3 93.7 L 123.1 93.7 L 122.9 95.1 L 124.2 94.5 L 124.4 95.2 L 123.0 95.4 L 124.0 96.5 L 123.4 97.0 L 122.7 95.6 L 122.0 97.0 L 121.4 96.6 " fill="#191919"/>
<path class="legend" d="M 57.8 141.1 L 60.2 141.1 L 60.2 132.6 L 57.5 133.5 L 57.1 132.5 L 60.6 131.0 L 61.7 131.2 L 61.7 141.1 L 64.0 141.1 L 64.0 142.4 L 57.8 142.4 L 57.8 141.1 " fill="#000000"/>
<path class="legend" d="M 69.5 142.5 Q 67.5 142.5, 66.4 141.0 Q 65.4 139.4, 65.4 136.7 Q 65.4 134.0, 66.4 132.4 Q 67.4 130.9, 69.5 130.9 Q 71.6 130.9, 72.7 132.4 Q 73.7 134.0, 73.7 136.7 Q 73.7 139.4, 72.6 141.0 Q 71.6 142.5, 69.5 142.5 M 69.5 141.2 Q 70.8 141.2, 71.4 140.1 Q 72.1 138.9, 72.1 136.7 Q 72.1 134.5, 71.4 133.3 Q 70.8 132.2, 69.5 132.2 Q 68.3 132.2, 67.7 133.3 Q 67.0 134.5, 67.0 136.7 Q 67.0 138.9, 67.7 140.1 Q 68.3 141.2, 69.5 141.2 " fill="#000000"/>
<path class="legend" d="M 81.4 132.3 L 75.5 132.3 L 75.5 131.0 L 83.0 131.0 L 83.0 132.2 L 78.4 142.4 L 76.9 142.4 L 81.4 132.3 " fill="#000000"/>
<path class="legend" d="M 84.3 133.2 Q 84.7 132.1, 85.7 131.5 Q 86.7 130.9, 88.0 130.9 Q 89.7 130.9, 90.7 131.8 Q 91.7 132.8, 91.7 134.4 Q 91.7 136.1, 90.4 137.7 Q 89.2 139.2, 86.6 141.1 L 91.9 141.1 L 91.9 142.4 L 84.2 142.4 L 84.2 141.3 Q 86.3 139.8, 87.6 138.7 Q 88.9 137.6, 89.5 136.5 Q 90.1 135.5, 90.1 134.5 Q 90.1 133.4, 89.5 132.8 Q 89.0 132.2, 88.0 132.2 Q 87.1 132.2, 86.5 132.6 Q 85.9 132.9, 85.5 133.7 L 84.3 133.2 " fill="#000000"/>
</svg>