<svg xmlns="http://www.w3.org/2000/svg" xmlns:rdkit="http://www.rdkit.org/xml" xmlns:xlink="http://www.w3.org/1999/xlink" version="1.1" baseProfile="full" xml:space="preserve" width="150px" height="150px" viewBox="0 0 150 150">
<!-- END OF HEADER -->
<rect style="opacity:1.0;fill:#FFFFFF;stroke:none" width="150.0" height="150.0" x="0.0" y="0.0"> </rect>
<ellipse cx="65.6" cy="88.4" rx="5.8" ry="5.8" class="atom-1" style="fill:#CCCCCC;fill-rule:evenodd;stroke:#CCCCCC;stroke-width:1.0px;stroke-linecap:butt;stroke-linejoin:miter;stroke-opacity:1"/>
<ellipse cx="116.1" cy="85.5" rx="5.8" ry="5.8" class="atom-3" style="fill:#CCCCCC;fill-rule:evenodd;stroke:#CCCCCC;stroke-width:1.0px;stroke-linecap:butt;stroke-linejoin:miter;stroke-opacity:1"/>
<ellipse cx="36.1" cy="16.9" rx="5.8" ry="5.8" class="atom-4" style="fill:#E5E533;fill-rule:evenodd;stroke:#E5E533;stroke-width:1.0px;stroke-linecap:butt;stroke-linejoin:miter;stroke-opacity:1"/>
<ellipse cx="62.2" cy="30.0" rx="5.8" ry="5.8" class="atom-5" style="fill:#E5E533;fill-rule:evenodd;stroke:#E5E533;stroke-width:1.0px;stroke-linecap:butt;stroke-linejoin:miter;stroke-opacity:1"/>
<ellipse cx="63.9" cy="59.2" rx="5.8" ry="5.8" class="atom-7" style="fill:#9999E5;fill-rule:evenodd;stroke:#9999E5;stroke-width:1.0px;stroke-linecap:butt;stroke-linejoin:miter;stroke-opacity:1"/>
<ellipse cx="90.0" cy="72.4" rx="5.8" ry="5.8" class="atom-8" style="fill:#CCCCCC;fill-rule:evenodd;stroke:#CCCCCC;stroke-width:1.0px;stroke-linecap:butt;stroke-linejoin:miter;stroke-opacity:1"/>
<ellipse cx="13.3" cy="62.1" rx="5.8" ry="5.8" class="atom-9" style="fill:#E5E533;fill-rule:evenodd;stroke:#E5E533;stroke-width:1.0px;stroke-linecap:butt;stroke-linejoin:miter;stroke-opacity:1"/>
<ellipse cx="39.5" cy="75.3" rx="5.8" ry="5.8" class="atom-10" style="fill:#E5E533;fill-rule:evenodd;stroke:#E5E533;stroke-width:1.0px;stroke-linecap:butt;stroke-linejoin:miter;stroke-opacity:1"/>
<ellipse cx="88.3" cy="43.2" rx="5.8" ry="5.8" class="atom-13" style="fill:#CCCCCC;fill-rule:evenodd;stroke:#CCCCCC;stroke-width:1.0px;stroke-linecap:butt;stroke-linejoin:miter;stroke-opacity:1"/>
<path class="bond-0 atom-0 atom-1" d="M 66.9,112.4 L 65.6,88.4" style="fill:none;fill-rule:evenodd;stroke:#E5E5E5;stroke-width:1.6px;stroke-linecap:butt;stroke-linejoin:miter;stroke-opacity:1"/>
<path class="bond-1 atom-2 atom-3" d="M 117.5,109.5 L 116.1,85.5" style="fill:none;fill-rule:evenodd;stroke:#E5E5E5;stroke-width:1.6px;stroke-linecap:butt;stroke-linejoin:miter;stroke-opacity:1"/>
<path class="bond-2 atom-4 atom-5" d="M 36.1,16.9 L 62.2,30.0" style="fill:none;fill-rule:evenodd;stroke:#000000;stroke-width:2.0px;stroke-linecap:butt;stroke-linejoin:miter;stroke-opacity:1"/>
<path class="bond-3 atom-4 atom-6" d="M 36.1,16.9 L 14.6,31.0" style="fill:none;fill-rule:evenodd;stroke:#E5E5E5;stroke-width:1.6px;stroke-linecap:butt;stroke-linejoin:miter;stroke-opacity:1"/>
<path class="bond-3 atom-4 atom-6" d="M 36.4,22.0 L 17.0,34.7" style="fill:none;fill-rule:evenodd;stroke:#E5E5E5;stroke-width:1.6px;stroke-linecap:butt;stroke-linejoin:miter;stroke-opacity:1"/>
<path class="bond-4 atom-5 atom-7" d="M 62.2,30.0 L 63.9,59.2" style="fill:none;fill-rule:evenodd;stroke:#000000;stroke-width:2.0px;stroke-linecap:butt;stroke-linejoin:miter;stroke-opacity:1"/>
<path class="bond-4 atom-5 atom-7" d="M 58.0,32.8 L 59.4,57.0" style="fill:none;fill-rule:evenodd;stroke:#000000;stroke-width:2.0px;stroke-linecap:butt;stroke-linejoin:miter;stroke-opacity:1"/>
<path class="bond-5 atom-1 atom-8" d="M 65.6,88.4 L 90.0,72.4" style="fill:none;fill-rule:evenodd;stroke:#000000;stroke-width:2.0px;stroke-linecap:butt;stroke-linejoin:miter;stroke-opacity:1"/>
<path class="bond-6 atom-9 atom-6" d="M 13.3,62.1 L 11.7,33.5" style="fill:none;fill-rule:evenodd;stroke:#E5E5E5;stroke-width:1.6px;stroke-linecap:butt;stroke-linejoin:miter;stroke-opacity:1"/>
<path class="bond-7 atom-9 atom-10" d="M 13.3,62.1 L 39.5,75.3" style="fill:none;fill-rule:evenodd;stroke:#000000;stroke-width:2.0px;stroke-linecap:butt;stroke-linejoin:miter;stroke-opacity:1"/>
<path class="bond-7 atom-9 atom-10" d="M 17.6,59.3 L 39.2,70.2" style="fill:none;fill-rule:evenodd;stroke:#000000;stroke-width:2.0px;stroke-linecap:butt;stroke-linejoin:miter;stroke-opacity:1"/>
<path class="bond-8 atom-7 atom-10" d="M 63.9,59.2 L 39.5,75.3" style="fill:none;fill-rule:evenodd;stroke:#000000;stroke-width:2.0px;stroke-linecap:butt;stroke-linejoin:miter;stroke-opacity:1"/>
<path class="bond-9 atom-7 atom-8" d="M 63.9,59.2 L 90.0,72.4" style="fill:none;fill-rule:evenodd;stroke:#000000;stroke-width:2.0px;stroke-linecap:butt;stroke-linejoin:miter;stroke-opacity:1"/>
<path class="bond-10 atom-10 atom-11" d="M 39.5,75.3 L 40.1,87.3" style="fill:none;fill-rule:evenodd;stroke:#000000;stroke-width:2.0px;stroke-linecap:butt;stroke-linejoin:miter;stroke-opacity:1"/>
<path class="bond-10 atom-10 atom-11" d="M 40.1,87.3 L 40.8,99.3" style="fill:none;fill-rule:evenodd;stroke:#FF0000;stroke-width:2.0px;stroke-linecap:butt;stroke-linejoin:miter;stroke-opacity:1"/>
<path class="bond-11 atom-12 atom-13" d="M 111.9,27.7 L 93.1,40.1" style="fill:none;fill-rule:evenodd;stroke:#E5E5E5;stroke-width:1.6px;stroke-linecap:butt;stroke-linejoin:miter;stroke-opacity:1"/>
<path class="bond-12 atom-3 atom-14" d="M 116.1,85.5 L 139.7,70.0" style="fill:none;fill-rule:evenodd;stroke:#E5E5E5;stroke-width:1.6px;stroke-linecap:butt;stroke-linejoin:miter;stroke-opacity:1"/>
<path class="bond-13 atom-3 atom-8" d="M 116.1,85.5 L 90.0,72.4" style="fill:none;fill-rule:evenodd;stroke:#000000;stroke-width:2.0px;stroke-linecap:butt;stroke-linejoin:miter;stroke-opacity:1"/>
<path class="bond-14 atom-8 atom-13" d="M 90.0,72.4 L 89.3,60.4" style="fill:none;fill-rule:evenodd;stroke:#000000;stroke-width:2.0px;stroke-linecap:butt;stroke-linejoin:miter;stroke-opacity:1"/>
<path class="bond-14 atom-8 atom-13" d="M 89.3,60.4 L 88.6,48.5" style="fill:none;fill-rule:evenodd;stroke:#FF0000;stroke-width:2.0px;stroke-linecap:butt;stroke-linejoin:miter;stroke-opacity:1"/>
<path d="M 65.6,89.0 L 65.6,88.4 L 66.2,88.0" style="fill:none;stroke:#E5E5E5;stroke-width:1.6px;stroke-linecap:butt;stroke-linejoin:miter;stroke-opacity:1;"/>
<path d="M 36.8,17.2 L 36.1,16.9 L 35.6,17.3" style="fill:none;stroke:#000000;stroke-width:2.0px;stroke-linecap:butt;stroke-linejoin:miter;stroke-opacity:1;"/>
<path d="M 60.9,29.4 L 62.2,30.0 L 62.3,31.5" style="fill:none;stroke:#000000;stroke-width:2.0px;stroke-linecap:butt;stroke-linejoin:miter;stroke-opacity:1;"/>
<path d="M 13.3,61.4 L 13.3,62.1 L 14.0,62.4" style="fill:none;stroke:#E5E5E5;stroke-width:1.6px;stroke-linecap:butt;stroke-linejoin:miter;stroke-opacity:1;"/>
<path class="atom-0" d="M 65.7 116.7 L 66.9 115.4 L 65.3 115.1 L 65.5 114.3 L 67.0 115.0 L 66.8 113.4 L 67.7 113.4 L 67.4 115.0 L 68.9 114.3 L 69.2 115.1 L 67.5 115.4 L 68.7 116.7 L 68.0 117.2 L 67.2 115.6 L 66.4 117.2 L 65.7 116.7 " fill="#191919"/>
<path class="atom-0" d="M 70.1 113.5 L 71.2 113.5 L 71.2 117.0 L 75.4 117.0 L 75.4 113.5 L 76.5 113.5 L 76.5 121.8 L 75.4 121.8 L 75.4 118.0 L 71.2 118.0 L 71.2 121.8 L 70.1 121.8 L 70.1 113.5 " fill="#191919"/>
<path class="atom-0" d="M 78.1 121.5 Q 78.3 121.0, 78.8 120.7 Q 79.2 120.4, 79.9 120.4 Q 80.7 120.4, 81.2 120.9 Q 81.7 121.3, 81.7 122.1 Q 81.7 122.9, 81.1 123.7 Q 80.5 124.4, 79.2 125.3 L 81.7 125.3 L 81.7 125.9 L 78.1 125.9 L 78.1 125.4 Q 79.1 124.7, 79.7 124.2 Q 80.3 123.6, 80.6 123.1 Q 80.9 122.6, 80.9 122.1 Q 80.9 121.6, 80.6 121.3 Q 80.4 121.0, 79.9 121.0 Q 79.5 121.0, 79.2 121.2 Q 78.9 121.4, 78.7 121.8 L 78.1 121.5 " fill="#191919"/>
<path class="atom-2" d="M 116.2 113.8 L 117.4 112.5 L 115.8 112.2 L 116.1 111.4 L 117.5 112.1 L 117.3 110.5 L 118.2 110.5 L 118.0 112.1 L 119.5 111.4 L 119.7 112.2 L 118.1 112.5 L 119.3 113.8 L 118.5 114.3 L 117.7 112.7 L 116.9 114.3 L 116.2 113.8 " fill="#191919"/>
<path class="atom-2" d="M 120.6 110.6 L 121.7 110.6 L 121.7 114.2 L 126.0 114.2 L 126.0 110.6 L 127.1 110.6 L 127.1 118.9 L 126.0 118.9 L 126.0 115.1 L 121.7 115.1 L 121.7 118.9 L 120.6 118.9 L 120.6 110.6 " fill="#191919"/>
<path class="atom-2" d="M 128.6 118.6 Q 128.8 118.1, 129.3 117.8 Q 129.8 117.5, 130.5 117.5 Q 131.3 117.5, 131.7 118.0 Q 132.2 118.4, 132.2 119.2 Q 132.2 120.0, 131.6 120.8 Q 131.0 121.5, 129.8 122.4 L 132.3 122.4 L 132.3 123.1 L 128.6 123.1 L 128.6 122.5 Q 129.6 121.8, 130.2 121.3 Q 130.8 120.7, 131.1 120.2 Q 131.4 119.8, 131.4 119.3 Q 131.4 118.7, 131.2 118.4 Q 130.9 118.1, 130.5 118.1 Q 130.0 118.1, 129.7 118.3 Q 129.4 118.5, 129.2 118.9 L 128.6 118.6 " fill="#191919"/>
<path class="atom-6" d="M 10.1 32.0 L 11.3 30.8 L 9.7 30.4 L 10.0 29.6 L 11.5 30.4 L 11.2 28.7 L 12.1 28.7 L 11.9 30.4 L 13.4 29.7 L 13.6 30.4 L 12.0 30.7 L 13.2 32.0 L 12.5 32.5 L 11.7 31.0 L 10.8 32.5 L 10.1 32.0 " fill="#191919"/>
<path class="atom-11" d="M 37.3 104.5 Q 37.3 102.5, 38.3 101.4 Q 39.3 100.3, 41.1 100.3 Q 43.0 100.3, 43.9 101.4 Q 44.9 102.5, 44.9 104.5 Q 44.9 106.5, 43.9 107.6 Q 42.9 108.8, 41.1 108.8 Q 39.3 108.8, 38.3 107.6 Q 37.3 106.5, 37.3 104.5 M 41.1 107.8 Q 42.4 107.8, 43.1 107.0 Q 43.7 106.1, 43.7 104.5 Q 43.7 102.8, 43.1 102.0 Q 42.4 101.2, 41.1 101.2 Q 39.9 101.2, 39.2 102.0 Q 38.5 102.8, 38.5 104.5 Q 38.5 106.1, 39.2 107.0 Q 39.9 107.8, 41.1 107.8 " fill="#FF0000"/>
<path class="atom-11" d="M 46.2 100.4 L 47.3 100.4 L 47.3 103.9 L 51.6 103.9 L 51.6 100.4 L 52.7 100.4 L 52.7 108.6 L 51.6 108.6 L 51.6 104.8 L 47.3 104.8 L 47.3 108.6 L 46.2 108.6 L 46.2 100.4 " fill="#FF0000"/>
<path class="atom-12" d="M 111.2 26.2 L 112.4 25.0 L 110.8 24.7 L 111.1 23.8 L 112.5 24.6 L 112.3 23.0 L 113.2 23.0 L 113.0 24.6 L 114.5 23.9 L 114.7 24.7 L 113.1 25.0 L 114.3 26.2 L 113.5 26.7 L 112.7 25.2 L 111.9 26.7 L 111.2 26.2 " fill="#191919"/>
<path class="atom-13" d="M 84.5 43.2 Q 84.5 41.2, 85.5 40.1 Q 86.5 39.0, 88.3 39.0 Q 90.2 39.0, 91.1 40.1 Q 92.1 41.2, 92.1 43.2 Q 92.1 45.2, 91.1 46.4 Q 90.1 47.5, 88.3 47.5 Q 86.5 47.5, 85.5 46.4 Q 84.5 45.2, 84.5 43.2 M 88.3 46.6 Q 89.6 46.6, 90.3 45.7 Q 91.0 44.9, 91.0 43.2 Q 91.0 41.6, 90.3 40.8 Q 89.6 39.9, 88.3 39.9 Q 87.1 39.9, 86.4 40.8 Q 85.7 41.6, 85.7 43.2 Q 85.7 44.9, 86.4 45.7 Q 87.1 46.6, 88.3 46.6 " fill="#FF0000"/>
<path class="atom-14" d="M 139.0 68.6 L 140.2 67.3 L 138.6 67.0 L 138.8 66.2 L 140.3 66.9 L 140.1 65.3 L 141.0 65.3 L 140.7 66.9 L 142.2 66.2 L 142.5 67.0 L 140.9 67.3 L 142.0 68.6 L 141.3 69.1 L 140.5 67.5 L 139.7 69.1 L 139.0 68.6 " fill="#191919"/>
<path class="legend" d="M 58.4 141.1 L 60.9 141.1 L 60.9 132.6 L 58.1 133.5 L 57.8 132.5 L 61.2 131.0 L 62.4 131.2 L 62.4 141.1 L 64.6 141.1 L 64.6 142.4 L 58.4 142.4 L 58.4 141.1 " fill="#000000"/>
<path class="legend" d="M 66.6 141.1 L 69.1 141.1 L 69.1 132.6 L 66.4 133.5 L 66.0 132.5 L 69.5 131.0 L 70.6 131.2 L 70.6 141.1 L 72.8 141.1 L 72.8 142.4 L 66.6 142.4 L 66.6 141.1 " fill="#000000"/>
<path class="legend" d="M 80.2 132.3 L 74.2 132.3 L 74.2 131.0 L 81.8 131.0 L 81.8 132.2 L 77.2 142.4 L 75.6 142.4 L 80.2 132.3 " fill="#000000"/>
<path class="legend" d="M 87.1 142.5 Q 85.0 142.5, 84.0 141.0 Q 83.0 139.4, 83.0 136.7 Q 83.0 134.0, 84.0 132.4 Q 85.0 130.9, 87.1 130.9 Q 89.2 130.9, 90.2 132.4 Q 91.2 134.0, 91.2 136.7 Q 91.2 139.4, 90.2 141.0 Q 89.2 142.5, 87.1 142.5 M 87.1 141.2 Q 88.3 141.2, 89.0 140.1 Q 89.6 138.9, 89.6 136.7 Q 89.6 134.5, 89.0 133.3 Q 88.3 132.2, 87.1 132.2 Q 85.9 132.2, 85.2 133.3 Q 84.6 134.5, 84.6 136.7 Q 84.6 138.9, 85.2 140.1 Q 85.9 141.2, 87.1 141.2 " fill="#000000"/>
</svg>