<svg xmlns="http://www.w3.org/2000/svg" xmlns:rdkit="http://www.rdkit.org/xml" xmlns:xlink="http://www.w3.org/1999/xlink" version="1.1" baseProfile="full" xml:space="preserve" width="150px" height="150px" viewBox="0 0 150 150">
<!-- END OF HEADER -->
<rect style="opacity:1.0;fill:#FFFFFF;stroke:none" width="150.0" height="150.0" x="0.0" y="0.0"> </rect>
<ellipse cx="90.3" cy="106.4" rx="6.0" ry="6.0" class="atom-0" style="fill:#E5E533;fill-rule:evenodd;stroke:#E5E533;stroke-width:1.0px;stroke-linecap:butt;stroke-linejoin:miter;stroke-opacity:1"/>
<ellipse cx="105.2" cy="80.6" rx="6.0" ry="6.0" class="atom-2" style="fill:#E5E533;fill-rule:evenodd;stroke:#E5E533;stroke-width:1.0px;stroke-linecap:butt;stroke-linejoin:miter;stroke-opacity:1"/>
<ellipse cx="45.5" cy="80.6" rx="6.0" ry="6.0" class="atom-3" style="fill:#E5E533;fill-rule:evenodd;stroke:#E5E533;stroke-width:1.0px;stroke-linecap:butt;stroke-linejoin:miter;stroke-opacity:1"/>
<ellipse cx="90.3" cy="54.7" rx="6.0" ry="6.0" class="atom-4" style="fill:#9999E5;fill-rule:evenodd;stroke:#9999E5;stroke-width:1.0px;stroke-linecap:butt;stroke-linejoin:miter;stroke-opacity:1"/>
<ellipse cx="60.5" cy="54.7" rx="6.0" ry="6.0" class="atom-6" style="fill:#E5E533;fill-rule:evenodd;stroke:#E5E533;stroke-width:1.0px;stroke-linecap:butt;stroke-linejoin:miter;stroke-opacity:1"/>
<path class="bond-0 atom-0 atom-1" d="M 90.3,106.4 L 64.8,106.4" style="fill:none;fill-rule:evenodd;stroke:#E5E5E5;stroke-width:1.6px;stroke-linecap:butt;stroke-linejoin:miter;stroke-opacity:1"/>
<path class="bond-1 atom-0 atom-2" d="M 90.3,106.4 L 105.2,80.6" style="fill:none;fill-rule:evenodd;stroke:#000000;stroke-width:2.0px;stroke-linecap:butt;stroke-linejoin:miter;stroke-opacity:1"/>
<path class="bond-1 atom-0 atom-2" d="M 87.7,101.9 L 100.1,80.6" style="fill:none;fill-rule:evenodd;stroke:#000000;stroke-width:2.0px;stroke-linecap:butt;stroke-linejoin:miter;stroke-opacity:1"/>
<path class="bond-2 atom-1 atom-3" d="M 57.5,101.3 L 45.5,80.6" style="fill:none;fill-rule:evenodd;stroke:#E5E5E5;stroke-width:1.6px;stroke-linecap:butt;stroke-linejoin:miter;stroke-opacity:1"/>
<path class="bond-2 atom-1 atom-3" d="M 61.4,99.0 L 50.7,80.6" style="fill:none;fill-rule:evenodd;stroke:#E5E5E5;stroke-width:1.6px;stroke-linecap:butt;stroke-linejoin:miter;stroke-opacity:1"/>
<path class="bond-3 atom-2 atom-4" d="M 105.2,80.6 L 90.3,54.7" style="fill:none;fill-rule:evenodd;stroke:#000000;stroke-width:2.0px;stroke-linecap:butt;stroke-linejoin:miter;stroke-opacity:1"/>
<path class="bond-4 atom-2 atom-5" d="M 105.2,80.6 L 118.2,80.6" style="fill:none;fill-rule:evenodd;stroke:#000000;stroke-width:2.0px;stroke-linecap:butt;stroke-linejoin:miter;stroke-opacity:1"/>
<path class="bond-4 atom-2 atom-5" d="M 118.2,80.6 L 131.2,80.6" style="fill:none;fill-rule:evenodd;stroke:#7F4C19;stroke-width:2.0px;stroke-linecap:butt;stroke-linejoin:miter;stroke-opacity:1"/>
<path class="bond-5 atom-3 atom-6" d="M 45.5,80.6 L 60.5,54.7" style="fill:none;fill-rule:evenodd;stroke:#000000;stroke-width:2.0px;stroke-linecap:butt;stroke-linejoin:miter;stroke-opacity:1"/>
<path class="bond-6 atom-3 atom-7" d="M 45.5,80.6 L 20.0,80.6" style="fill:none;fill-rule:evenodd;stroke:#E5E5E5;stroke-width:1.6px;stroke-linecap:butt;stroke-linejoin:miter;stroke-opacity:1"/>
<path class="bond-7 atom-4 atom-6" d="M 90.3,54.7 L 60.5,54.7" style="fill:none;fill-rule:evenodd;stroke:#000000;stroke-width:2.0px;stroke-linecap:butt;stroke-linejoin:miter;stroke-opacity:1"/>
<path class="bond-7 atom-4 atom-6" d="M 87.7,59.2 L 63.1,59.2" style="fill:none;fill-rule:evenodd;stroke:#000000;stroke-width:2.0px;stroke-linecap:butt;stroke-linejoin:miter;stroke-opacity:1"/>
<path class="bond-8 atom-4 atom-8" d="M 90.3,54.7 L 96.3,44.4" style="fill:none;fill-rule:evenodd;stroke:#000000;stroke-width:2.0px;stroke-linecap:butt;stroke-linejoin:miter;stroke-opacity:1"/>
<path class="bond-8 atom-4 atom-8" d="M 96.3,44.4 L 102.2,34.1" style="fill:none;fill-rule:evenodd;stroke:#33CCCC;stroke-width:2.0px;stroke-linecap:butt;stroke-linejoin:miter;stroke-opacity:1"/>
<path class="bond-9 atom-6 atom-9" d="M 60.5,54.7 L 54.5,44.4" style="fill:none;fill-rule:evenodd;stroke:#000000;stroke-width:2.0px;stroke-linecap:butt;stroke-linejoin:miter;stroke-opacity:1"/>
<path class="bond-9 atom-6 atom-9" d="M 54.5,44.4 L 48.6,34.1" style="fill:none;fill-rule:evenodd;stroke:#33CCCC;stroke-width:2.0px;stroke-linecap:butt;stroke-linejoin:miter;stroke-opacity:1"/>
<path d="M 89.7,106.4 L 90.3,106.4 L 90.7,105.8" style="fill:none;stroke:#E5E5E5;stroke-width:1.6px;stroke-linecap:butt;stroke-linejoin:miter;stroke-opacity:1;"/>
<path class="atom-1" d="M 52.7 105.5 L 53.9 104.2 L 52.3 103.9 L 52.5 103.0 L 54.0 103.8 L 53.8 102.1 L 54.7 102.1 L 54.5 103.8 L 56.0 103.0 L 56.3 103.9 L 54.6 104.2 L 55.8 105.4 L 55.1 106.0 L 54.2 104.4 L 53.4 106.0 L 52.7 105.5 " fill="#191919"/>
<path class="atom-1" d="M 57.2 102.2 L 58.3 102.2 L 58.3 105.8 L 62.6 105.8 L 62.6 102.2 L 63.8 102.2 L 63.8 110.7 L 62.6 110.7 L 62.6 106.8 L 58.3 106.8 L 58.3 110.7 L 57.2 110.7 L 57.2 102.2 " fill="#191919"/>
<path class="atom-5" d="M 136.3 80.3 Q 137.1 80.6, 137.5 81.1 Q 138.0 81.6, 138.0 82.3 Q 138.0 83.5, 137.2 84.1 Q 136.5 84.8, 135.1 84.8 L 132.2 84.8 L 132.2 76.3 L 134.7 76.3 Q 136.2 76.3, 136.9 76.9 Q 137.6 77.5, 137.6 78.6 Q 137.6 79.8, 136.3 80.3 M 133.4 77.3 L 133.4 79.9 L 134.7 79.9 Q 135.6 79.9, 136.0 79.6 Q 136.4 79.3, 136.4 78.6 Q 136.4 77.3, 134.7 77.3 L 133.4 77.3 M 135.1 83.8 Q 135.9 83.8, 136.3 83.4 Q 136.8 83.0, 136.8 82.3 Q 136.8 81.6, 136.3 81.2 Q 135.8 80.9, 134.9 80.9 L 133.4 80.9 L 133.4 83.8 L 135.1 83.8 " fill="#7F4C19"/>
<path class="atom-5" d="M 139.9 78.6 L 140.0 79.5 Q 140.7 78.5, 141.7 78.5 Q 142.0 78.5, 142.5 78.7 L 142.3 79.7 Q 141.8 79.5, 141.5 79.5 Q 141.0 79.5, 140.7 79.7 Q 140.4 79.9, 140.1 80.4 L 140.1 84.8 L 139.0 84.8 L 139.0 78.6 L 139.9 78.6 " fill="#7F4C19"/>
<path class="atom-7" d="M 7.9 79.6 L 9.1 78.3 L 7.5 78.0 L 7.8 77.2 L 9.3 77.9 L 9.1 76.3 L 9.9 76.3 L 9.7 77.9 L 11.2 77.2 L 11.5 78.0 L 9.8 78.3 L 11.0 79.6 L 10.3 80.1 L 9.5 78.5 L 8.6 80.1 L 7.9 79.6 " fill="#191919"/>
<path class="atom-7" d="M 12.4 76.4 L 13.5 76.4 L 13.5 80.0 L 17.9 80.0 L 17.9 76.4 L 19.0 76.4 L 19.0 84.9 L 17.9 84.9 L 17.9 80.9 L 13.5 80.9 L 13.5 84.9 L 12.4 84.9 L 12.4 76.4 " fill="#191919"/>
<path class="atom-8" d="M 102.7 24.6 L 107.8 24.6 L 107.8 25.6 L 103.9 25.6 L 103.9 28.2 L 107.3 28.2 L 107.3 29.1 L 103.9 29.1 L 103.9 33.1 L 102.7 33.1 L 102.7 24.6 " fill="#33CCCC"/>
<path class="atom-9" d="M 43.0 24.6 L 48.1 24.6 L 48.1 25.6 L 44.2 25.6 L 44.2 28.2 L 47.6 28.2 L 47.6 29.1 L 44.2 29.1 L 44.2 33.1 L 43.0 33.1 L 43.0 24.6 " fill="#33CCCC"/>
<path class="legend" d="M 58.1 141.1 L 60.6 141.1 L 60.6 132.6 L 57.8 133.4 L 57.5 132.5 L 60.9 130.9 L 62.1 131.1 L 62.1 141.1 L 64.3 141.1 L 64.3 142.3 L 58.1 142.3 L 58.1 141.1 " fill="#000000"/>
<path class="legend" d="M 66.3 141.1 L 68.8 141.1 L 68.8 132.6 L 66.1 133.4 L 65.7 132.5 L 69.2 130.9 L 70.3 131.1 L 70.3 141.1 L 72.5 141.1 L 72.5 142.3 L 66.3 142.3 L 66.3 141.1 " fill="#000000"/>
<path class="legend" d="M 79.7 136.3 Q 80.8 136.8, 81.3 137.5 Q 81.9 138.1, 81.9 139.2 Q 81.9 140.2, 81.4 140.9 Q 80.9 141.7, 80.1 142.1 Q 79.2 142.5, 78.0 142.5 Q 76.1 142.5, 75.0 141.6 Q 73.9 140.8, 73.9 139.2 Q 73.9 138.3, 74.4 137.6 Q 74.9 136.9, 75.9 136.4 Q 75.2 136.0, 74.8 135.4 Q 74.4 134.7, 74.4 133.8 Q 74.4 132.5, 75.3 131.7 Q 76.3 130.9, 77.9 130.9 Q 79.6 130.9, 80.5 131.7 Q 81.5 132.5, 81.5 133.8 Q 81.5 134.6, 81.1 135.2 Q 80.6 135.8, 79.7 136.3 M 77.9 132.1 Q 77.0 132.1, 76.5 132.5 Q 76.0 133.0, 76.0 133.8 Q 76.0 134.4, 76.3 134.8 Q 76.7 135.2, 77.2 135.4 Q 77.7 135.6, 78.6 135.9 Q 79.3 135.5, 79.6 134.9 Q 79.9 134.4, 79.9 133.8 Q 79.9 133.0, 79.4 132.5 Q 78.9 132.1, 77.9 132.1 M 78.0 141.3 Q 79.1 141.3, 79.7 140.7 Q 80.3 140.2, 80.3 139.2 Q 80.3 138.6, 80.0 138.2 Q 79.7 137.8, 79.2 137.6 Q 78.7 137.4, 77.8 137.1 L 77.0 136.9 Q 76.2 137.3, 75.9 137.9 Q 75.5 138.5, 75.5 139.2 Q 75.5 140.2, 76.2 140.7 Q 76.9 141.3, 78.0 141.3 " fill="#000000"/>
<path class="legend" d="M 88.1 135.3 Q 89.1 135.3, 89.9 135.7 Q 90.7 136.1, 91.1 136.9 Q 91.5 137.7, 91.5 138.7 Q 91.5 139.8, 91.0 140.7 Q 90.6 141.5, 89.7 142.0 Q 88.8 142.5, 87.7 142.5 Q 85.7 142.5, 84.7 141.1 Q 83.7 139.7, 83.7 137.0 Q 83.7 134.0, 84.9 132.5 Q 86.2 130.9, 88.6 130.9 Q 89.3 130.9, 89.9 131.0 Q 90.5 131.2, 91.1 131.5 L 90.5 132.6 Q 89.6 132.2, 88.6 132.2 Q 87.0 132.2, 86.2 133.2 Q 85.4 134.2, 85.3 136.4 Q 85.9 135.8, 86.6 135.6 Q 87.3 135.3, 88.1 135.3 M 87.8 141.2 Q 88.4 141.2, 88.9 140.8 Q 89.4 140.5, 89.7 140.0 Q 89.9 139.4, 89.9 138.7 Q 89.9 137.7, 89.4 137.1 Q 88.8 136.5, 87.8 136.5 Q 87.1 136.5, 86.5 136.8 Q 85.8 137.1, 85.3 137.6 Q 85.4 139.5, 86.0 140.3 Q 86.6 141.2, 87.8 141.2 " fill="#000000"/>
</svg>