<svg xmlns="http://www.w3.org/2000/svg" xmlns:rdkit="http://www.rdkit.org/xml" xmlns:xlink="http://www.w3.org/1999/xlink" version="1.1" baseProfile="full" xml:space="preserve" width="150px" height="150px" viewBox="0 0 150 150">
<!-- END OF HEADER -->
<rect style="opacity:1.0;fill:#FFFFFF;stroke:none" width="150.0" height="150.0" x="0.0" y="0.0"> </rect>
<ellipse cx="114.9" cy="76.8" rx="4.8" ry="4.8" class="atom-1" style="fill:#E5E533;fill-rule:evenodd;stroke:#E5E533;stroke-width:1.0px;stroke-linecap:butt;stroke-linejoin:miter;stroke-opacity:1"/>
<ellipse cx="31.8" cy="70.7" rx="4.8" ry="4.8" class="atom-4" style="fill:#CCCCCC;fill-rule:evenodd;stroke:#CCCCCC;stroke-width:1.0px;stroke-linecap:butt;stroke-linejoin:miter;stroke-opacity:1"/>
<ellipse cx="73.3" cy="73.8" rx="4.8" ry="4.8" class="atom-5" style="fill:#9999E5;fill-rule:evenodd;stroke:#9999E5;stroke-width:1.0px;stroke-linecap:butt;stroke-linejoin:miter;stroke-opacity:1"/>
<path class="bond-0 atom-0 atom-1" d="M 131.4,90.2 L 113.0,77.7" style="fill:none;fill-rule:evenodd;stroke:#E5E5E5;stroke-width:1.3px;stroke-linecap:butt;stroke-linejoin:miter;stroke-opacity:1"/>
<path class="bond-0 atom-0 atom-1" d="M 133.4,87.2 L 115.1,74.7" style="fill:none;fill-rule:evenodd;stroke:#E5E5E5;stroke-width:1.3px;stroke-linecap:butt;stroke-linejoin:miter;stroke-opacity:1;stroke-dasharray:6,4"/>
<path class="bond-1 atom-2 atom-1" d="M 118.5,53.4 L 116.7,78.0" style="fill:none;fill-rule:evenodd;stroke:#E5E5E5;stroke-width:1.3px;stroke-linecap:butt;stroke-linejoin:miter;stroke-opacity:1"/>
<path class="bond-1 atom-2 atom-1" d="M 114.9,53.1 L 113.0,77.7" style="fill:none;fill-rule:evenodd;stroke:#E5E5E5;stroke-width:1.3px;stroke-linecap:butt;stroke-linejoin:miter;stroke-opacity:1;stroke-dasharray:6,4"/>
<path class="bond-2 atom-3 atom-4" d="M 51.7,84.2 L 31.8,70.7" style="fill:none;fill-rule:evenodd;stroke:#000000;stroke-width:2.0px;stroke-linecap:butt;stroke-linejoin:miter;stroke-opacity:1"/>
<path class="bond-3 atom-3 atom-5" d="M 51.7,84.2 L 73.3,73.8" style="fill:none;fill-rule:evenodd;stroke:#000000;stroke-width:2.0px;stroke-linecap:butt;stroke-linejoin:miter;stroke-opacity:1"/>
<path class="bond-4 atom-1 atom-6" d="M 114.9,76.8 L 105.8,81.2" style="fill:none;fill-rule:evenodd;stroke:#000000;stroke-width:2.0px;stroke-linecap:butt;stroke-linejoin:miter;stroke-opacity:1"/>
<path class="bond-4 atom-1 atom-6" d="M 105.8,81.2 L 96.6,85.7" style="fill:none;fill-rule:evenodd;stroke:#0000FF;stroke-width:2.0px;stroke-linecap:butt;stroke-linejoin:miter;stroke-opacity:1"/>
<path class="bond-5 atom-4 atom-7" d="M 31.8,70.7 L 11.5,78.0" style="fill:none;fill-rule:evenodd;stroke:#E5E5E5;stroke-width:1.3px;stroke-linecap:butt;stroke-linejoin:miter;stroke-opacity:1"/>
<path class="bond-6 atom-4 atom-8" d="M 31.8,70.7 L 31.0,47.1" style="fill:none;fill-rule:evenodd;stroke:#E5E5E5;stroke-width:1.3px;stroke-linecap:butt;stroke-linejoin:miter;stroke-opacity:1"/>
<path class="bond-7 atom-5 atom-6" d="M 73.3,73.8 L 81.6,79.4" style="fill:none;fill-rule:evenodd;stroke:#000000;stroke-width:2.0px;stroke-linecap:butt;stroke-linejoin:miter;stroke-opacity:1"/>
<path class="bond-7 atom-5 atom-6" d="M 81.6,79.4 L 89.9,85.0" style="fill:none;fill-rule:evenodd;stroke:#0000FF;stroke-width:2.0px;stroke-linecap:butt;stroke-linejoin:miter;stroke-opacity:1"/>
<path class="bond-7 atom-5 atom-6" d="M 75.4,70.8 L 83.6,76.4" style="fill:none;fill-rule:evenodd;stroke:#000000;stroke-width:2.0px;stroke-linecap:butt;stroke-linejoin:miter;stroke-opacity:1"/>
<path class="bond-7 atom-5 atom-6" d="M 83.6,76.4 L 91.9,82.0" style="fill:none;fill-rule:evenodd;stroke:#0000FF;stroke-width:2.0px;stroke-linecap:butt;stroke-linejoin:miter;stroke-opacity:1"/>
<path class="bond-8 atom-5 atom-9" d="M 73.3,73.8 L 74.1,63.9" style="fill:none;fill-rule:evenodd;stroke:#000000;stroke-width:2.0px;stroke-linecap:butt;stroke-linejoin:miter;stroke-opacity:1"/>
<path class="bond-8 atom-5 atom-9" d="M 74.1,63.9 L 74.8,54.1" style="fill:none;fill-rule:evenodd;stroke:#FF0000;stroke-width:2.0px;stroke-linecap:butt;stroke-linejoin:miter;stroke-opacity:1"/>
<path d="M 50.7,83.6 L 51.7,84.2 L 52.8,83.7" style="fill:none;stroke:#000000;stroke-width:2.0px;stroke-linecap:butt;stroke-linejoin:miter;stroke-opacity:1;"/>
<path class="atom-0" d="M 133.6 89.6 L 134.6 88.6 L 133.2 88.3 L 133.4 87.6 L 134.6 88.2 L 134.5 86.9 L 135.2 86.9 L 135.0 88.2 L 136.2 87.6 L 136.4 88.3 L 135.1 88.5 L 136.1 89.6 L 135.5 90.0 L 134.8 88.7 L 134.1 90.0 L 133.6 89.6 " fill="#191919"/>
<path class="atom-0" d="M 137.2 87.0 L 138.1 87.0 L 138.1 89.9 L 141.6 89.9 L 141.6 87.0 L 142.5 87.0 L 142.5 93.8 L 141.6 93.8 L 141.6 90.7 L 138.1 90.7 L 138.1 93.8 L 137.2 93.8 L 137.2 87.0 " fill="#191919"/>
<path class="atom-2" d="M 115.4 52.1 L 116.4 51.0 L 115.1 50.8 L 115.3 50.1 L 116.5 50.7 L 116.3 49.4 L 117.1 49.3 L 116.8 50.7 L 118.1 50.1 L 118.3 50.8 L 117.0 51.0 L 117.9 52.0 L 117.3 52.5 L 116.7 51.2 L 116.0 52.5 L 115.4 52.1 " fill="#191919"/>
<path class="atom-2" d="M 119.0 49.5 L 119.9 49.5 L 119.9 52.4 L 123.4 52.4 L 123.4 49.5 L 124.4 49.5 L 124.4 56.3 L 123.4 56.3 L 123.4 53.1 L 119.9 53.1 L 119.9 56.3 L 119.0 56.3 L 119.0 49.5 " fill="#191919"/>
<path class="atom-6" d="M 91.7 83.9 L 94.0 87.5 Q 94.2 87.9, 94.6 88.5 Q 94.9 89.1, 94.9 89.2 L 94.9 83.9 L 95.8 83.9 L 95.8 90.7 L 94.9 90.7 L 92.5 86.8 Q 92.2 86.3, 91.9 85.8 Q 91.6 85.2, 91.6 85.1 L 91.6 90.7 L 90.7 90.7 L 90.7 83.9 L 91.7 83.9 " fill="#0000FF"/>
<path class="atom-7" d="M 7.8 78.1 L 8.8 77.1 L 7.5 76.8 L 7.7 76.1 L 8.9 76.7 L 8.8 75.4 L 9.5 75.4 L 9.3 76.7 L 10.5 76.2 L 10.7 76.8 L 9.4 77.1 L 10.3 78.1 L 9.8 78.5 L 9.1 77.2 L 8.4 78.5 L 7.8 78.1 " fill="#191919"/>
<path class="atom-8" d="M 29.7 45.9 L 30.7 44.9 L 29.4 44.6 L 29.6 43.9 L 30.8 44.5 L 30.6 43.2 L 31.4 43.2 L 31.2 44.5 L 32.4 43.9 L 32.6 44.6 L 31.3 44.8 L 32.2 45.9 L 31.6 46.3 L 31.0 45.0 L 30.3 46.3 L 29.7 45.9 " fill="#191919"/>
<path class="atom-9" d="M 72.0 49.8 Q 72.0 48.1, 72.8 47.2 Q 73.6 46.3, 75.1 46.3 Q 76.6 46.3, 77.4 47.2 Q 78.2 48.1, 78.2 49.8 Q 78.2 51.4, 77.4 52.4 Q 76.6 53.3, 75.1 53.3 Q 73.6 53.3, 72.8 52.4 Q 72.0 51.4, 72.0 49.8 M 75.1 52.5 Q 76.1 52.5, 76.7 51.8 Q 77.3 51.1, 77.3 49.8 Q 77.3 48.4, 76.7 47.8 Q 76.1 47.1, 75.1 47.1 Q 74.1 47.1, 73.5 47.8 Q 72.9 48.4, 72.9 49.8 Q 72.9 51.2, 73.5 51.8 Q 74.1 52.5, 75.1 52.5 " fill="#FF0000"/>
<path class="atom-9" d="M 79.3 46.4 L 80.2 46.4 L 80.2 49.3 L 83.7 49.3 L 83.7 46.4 L 84.6 46.4 L 84.6 53.2 L 83.7 53.2 L 83.7 50.1 L 80.2 50.1 L 80.2 53.2 L 79.3 53.2 L 79.3 46.4 " fill="#FF0000"/>
<path class="legend" d="M 57.7 141.1 L 60.1 141.1 L 60.1 132.6 L 57.4 133.5 L 57.0 132.5 L 60.5 131.0 L 61.6 131.2 L 61.6 141.1 L 63.9 141.1 L 63.9 142.4 L 57.7 142.4 L 57.7 141.1 " fill="#000000"/>
<path class="legend" d="M 65.9 141.1 L 68.4 141.1 L 68.4 132.6 L 65.7 133.5 L 65.3 132.5 L 68.8 131.0 L 69.9 131.2 L 69.9 141.1 L 72.1 141.1 L 72.1 142.4 L 65.9 142.4 L 65.9 141.1 " fill="#000000"/>
<path class="legend" d="M 77.4 130.9 Q 79.4 130.9, 80.4 132.3 Q 81.4 133.7, 81.4 136.4 Q 81.4 139.4, 80.1 140.9 Q 78.9 142.5, 76.5 142.5 Q 75.8 142.5, 75.2 142.3 Q 74.6 142.2, 74.0 141.8 L 74.6 140.8 Q 75.5 141.2, 76.5 141.2 Q 78.1 141.2, 78.9 140.2 Q 79.7 139.2, 79.8 137.0 Q 79.2 137.6, 78.5 137.8 Q 77.8 138.1, 77.0 138.1 Q 76.0 138.1, 75.2 137.7 Q 74.4 137.3, 74.0 136.5 Q 73.5 135.7, 73.5 134.7 Q 73.5 133.6, 74.0 132.7 Q 74.5 131.9, 75.4 131.4 Q 76.3 130.9, 77.4 130.9 M 75.2 134.7 Q 75.2 135.7, 75.7 136.3 Q 76.3 136.8, 77.3 136.8 Q 78.0 136.8, 78.6 136.6 Q 79.3 136.3, 79.8 135.8 Q 79.7 133.9, 79.1 133.1 Q 78.5 132.2, 77.3 132.2 Q 76.7 132.2, 76.2 132.5 Q 75.7 132.9, 75.4 133.4 Q 75.2 134.0, 75.2 134.7 " fill="#000000"/>
<path class="legend" d="M 90.6 138.5 L 92.0 138.5 L 92.0 139.8 L 90.6 139.8 L 90.6 142.4 L 89.1 142.4 L 89.1 139.8 L 83.2 139.8 L 83.2 138.8 L 88.2 131.0 L 90.6 131.0 L 90.6 138.5 M 85.1 138.5 L 89.1 138.5 L 89.1 132.1 L 85.1 138.5 " fill="#000000"/>
</svg>