<svg xmlns="http://www.w3.org/2000/svg" xmlns:rdkit="http://www.rdkit.org/xml" xmlns:xlink="http://www.w3.org/1999/xlink" version="1.1" baseProfile="full" xml:space="preserve" width="150px" height="150px" viewBox="0 0 150 150">
<!-- END OF HEADER -->
<rect style="opacity:1.0;fill:#FFFFFF;stroke:none" width="150.0" height="150.0" x="0.0" y="0.0"> </rect>
<ellipse cx="90.4" cy="96.4" rx="5.7" ry="5.7" class="atom-0" style="fill:#E5E533;fill-rule:evenodd;stroke:#E5E533;stroke-width:1.0px;stroke-linecap:butt;stroke-linejoin:miter;stroke-opacity:1"/>
<ellipse cx="98.6" cy="69.1" rx="5.7" ry="5.7" class="atom-2" style="fill:#E5E533;fill-rule:evenodd;stroke:#E5E533;stroke-width:1.0px;stroke-linecap:butt;stroke-linejoin:miter;stroke-opacity:1"/>
<ellipse cx="43.1" cy="82.1" rx="5.7" ry="5.7" class="atom-3" style="fill:#E5E533;fill-rule:evenodd;stroke:#E5E533;stroke-width:1.0px;stroke-linecap:butt;stroke-linejoin:miter;stroke-opacity:1"/>
<ellipse cx="79.1" cy="48.3" rx="5.7" ry="5.7" class="atom-4" style="fill:#9999E5;fill-rule:evenodd;stroke:#9999E5;stroke-width:1.0px;stroke-linecap:butt;stroke-linejoin:miter;stroke-opacity:1"/>
<ellipse cx="51.4" cy="54.8" rx="5.7" ry="5.7" class="atom-5" style="fill:#E5E533;fill-rule:evenodd;stroke:#E5E533;stroke-width:1.0px;stroke-linecap:butt;stroke-linejoin:miter;stroke-opacity:1"/>
<path class="bond-0 atom-0 atom-1" d="M 90.4,96.4 L 69.1,101.4" style="fill:none;fill-rule:evenodd;stroke:#E5E5E5;stroke-width:1.5px;stroke-linecap:butt;stroke-linejoin:miter;stroke-opacity:1"/>
<path class="bond-1 atom-0 atom-2" d="M 90.4,96.4 L 98.6,69.1" style="fill:none;fill-rule:evenodd;stroke:#000000;stroke-width:2.0px;stroke-linecap:butt;stroke-linejoin:miter;stroke-opacity:1"/>
<path class="bond-1 atom-0 atom-2" d="M 87.0,92.8 L 93.8,70.2" style="fill:none;fill-rule:evenodd;stroke:#000000;stroke-width:2.0px;stroke-linecap:butt;stroke-linejoin:miter;stroke-opacity:1"/>
<path class="bond-2 atom-1 atom-3" d="M 57.9,97.9 L 43.1,82.1" style="fill:none;fill-rule:evenodd;stroke:#E5E5E5;stroke-width:1.5px;stroke-linecap:butt;stroke-linejoin:miter;stroke-opacity:1"/>
<path class="bond-2 atom-1 atom-3" d="M 61.0,94.9 L 47.9,81.0" style="fill:none;fill-rule:evenodd;stroke:#E5E5E5;stroke-width:1.5px;stroke-linecap:butt;stroke-linejoin:miter;stroke-opacity:1"/>
<path class="bond-3 atom-4 atom-2" d="M 79.1,48.3 L 98.6,69.1" style="fill:none;fill-rule:evenodd;stroke:#000000;stroke-width:2.0px;stroke-linecap:butt;stroke-linejoin:miter;stroke-opacity:1"/>
<path class="bond-4 atom-4 atom-5" d="M 79.1,48.3 L 51.4,54.8" style="fill:none;fill-rule:evenodd;stroke:#000000;stroke-width:2.0px;stroke-linecap:butt;stroke-linejoin:miter;stroke-opacity:1"/>
<path class="bond-4 atom-4 atom-5" d="M 77.7,53.0 L 54.7,58.4" style="fill:none;fill-rule:evenodd;stroke:#000000;stroke-width:2.0px;stroke-linecap:butt;stroke-linejoin:miter;stroke-opacity:1"/>
<path class="bond-5 atom-2 atom-6" d="M 98.6,69.1 L 110.5,66.3" style="fill:none;fill-rule:evenodd;stroke:#000000;stroke-width:2.0px;stroke-linecap:butt;stroke-linejoin:miter;stroke-opacity:1"/>
<path class="bond-5 atom-2 atom-6" d="M 110.5,66.3 L 122.4,63.6" style="fill:none;fill-rule:evenodd;stroke:#0000FF;stroke-width:2.0px;stroke-linecap:butt;stroke-linejoin:miter;stroke-opacity:1"/>
<path class="bond-6 atom-5 atom-3" d="M 51.4,54.8 L 43.1,82.1" style="fill:none;fill-rule:evenodd;stroke:#000000;stroke-width:2.0px;stroke-linecap:butt;stroke-linejoin:miter;stroke-opacity:1"/>
<path class="bond-7 atom-5 atom-7" d="M 51.4,54.8 L 42.9,45.8" style="fill:none;fill-rule:evenodd;stroke:#000000;stroke-width:2.0px;stroke-linecap:butt;stroke-linejoin:miter;stroke-opacity:1"/>
<path class="bond-7 atom-5 atom-7" d="M 42.9,45.8 L 34.5,36.8" style="fill:none;fill-rule:evenodd;stroke:#7F4C19;stroke-width:2.0px;stroke-linecap:butt;stroke-linejoin:miter;stroke-opacity:1"/>
<path class="bond-8 atom-3 atom-8" d="M 43.1,82.1 L 19.4,87.7" style="fill:none;fill-rule:evenodd;stroke:#E5E5E5;stroke-width:1.5px;stroke-linecap:butt;stroke-linejoin:miter;stroke-opacity:1"/>
<path d="M 89.9,96.5 L 90.4,96.4 L 90.6,95.7" style="fill:none;stroke:#E5E5E5;stroke-width:1.5px;stroke-linecap:butt;stroke-linejoin:miter;stroke-opacity:1;"/>
<path d="M 80.1,49.4 L 79.1,48.3 L 77.7,48.6" style="fill:none;stroke:#000000;stroke-width:2.0px;stroke-linecap:butt;stroke-linejoin:miter;stroke-opacity:1;"/>
<path class="atom-1" d="M 57.5 102.0 L 58.7 100.8 L 57.1 100.5 L 57.4 99.7 L 58.8 100.4 L 58.6 98.8 L 59.5 98.8 L 59.2 100.4 L 60.7 99.7 L 60.9 100.5 L 59.3 100.8 L 60.5 102.0 L 59.8 102.5 L 59.0 101.0 L 58.2 102.5 L 57.5 102.0 " fill="#191919"/>
<path class="atom-1" d="M 61.8 98.9 L 62.9 98.9 L 62.9 102.4 L 67.0 102.4 L 67.0 98.9 L 68.1 98.9 L 68.1 107.0 L 67.0 107.0 L 67.0 103.3 L 62.9 103.3 L 62.9 107.0 L 61.8 107.0 L 61.8 98.9 " fill="#191919"/>
<path class="atom-6" d="M 124.6 58.6 L 127.3 62.9 Q 127.5 63.3, 128.0 64.1 Q 128.4 64.8, 128.4 64.9 L 128.4 58.6 L 129.5 58.6 L 129.5 66.7 L 128.4 66.7 L 125.5 62.0 Q 125.2 61.4, 124.8 60.8 Q 124.5 60.2, 124.4 60.0 L 124.4 66.7 L 123.4 66.7 L 123.4 58.6 L 124.6 58.6 " fill="#0000FF"/>
<path class="atom-6" d="M 131.0 58.6 L 132.1 58.6 L 132.1 62.0 L 136.2 62.0 L 136.2 58.6 L 137.3 58.6 L 137.3 66.7 L 136.2 66.7 L 136.2 62.9 L 132.1 62.9 L 132.1 66.7 L 131.0 66.7 L 131.0 58.6 " fill="#0000FF"/>
<path class="atom-6" d="M 138.9 66.4 Q 139.1 65.9, 139.6 65.6 Q 140.1 65.3, 140.7 65.3 Q 141.5 65.3, 142.0 65.8 Q 142.4 66.2, 142.4 67.0 Q 142.4 67.8, 141.8 68.5 Q 141.2 69.2, 140.0 70.1 L 142.5 70.1 L 142.5 70.7 L 138.9 70.7 L 138.9 70.2 Q 139.9 69.5, 140.5 69.0 Q 141.1 68.4, 141.4 68.0 Q 141.7 67.5, 141.7 67.0 Q 141.7 66.5, 141.4 66.2 Q 141.1 65.9, 140.7 65.9 Q 140.3 65.9, 140.0 66.1 Q 139.7 66.3, 139.5 66.6 L 138.9 66.4 " fill="#0000FF"/>
<path class="atom-7" d="M 27.6 33.8 Q 28.4 34.0, 28.8 34.5 Q 29.2 35.0, 29.2 35.7 Q 29.2 36.8, 28.5 37.4 Q 27.8 38.1, 26.4 38.1 L 23.7 38.1 L 23.7 30.0 L 26.1 30.0 Q 27.5 30.0, 28.2 30.5 Q 28.9 31.1, 28.9 32.1 Q 28.9 33.3, 27.6 33.8 M 24.8 30.9 L 24.8 33.4 L 26.1 33.4 Q 26.9 33.4, 27.3 33.1 Q 27.7 32.8, 27.7 32.1 Q 27.7 30.9, 26.1 30.9 L 24.8 30.9 M 26.4 37.1 Q 27.2 37.1, 27.6 36.8 Q 28.1 36.4, 28.1 35.7 Q 28.1 35.0, 27.6 34.7 Q 27.1 34.3, 26.3 34.3 L 24.8 34.3 L 24.8 37.1 L 26.4 37.1 " fill="#7F4C19"/>
<path class="atom-7" d="M 31.0 32.2 L 31.2 33.0 Q 31.8 32.1, 32.8 32.1 Q 33.1 32.1, 33.5 32.2 L 33.4 33.2 Q 32.9 33.0, 32.6 33.0 Q 32.1 33.0, 31.8 33.2 Q 31.5 33.4, 31.2 33.9 L 31.2 38.1 L 30.2 38.1 L 30.2 32.2 L 31.0 32.2 " fill="#7F4C19"/>
<path class="atom-8" d="M 7.9 87.7 L 9.1 86.5 L 7.5 86.2 L 7.7 85.4 L 9.2 86.1 L 9.0 84.5 L 9.8 84.5 L 9.6 86.1 L 11.1 85.4 L 11.3 86.2 L 9.7 86.5 L 10.9 87.7 L 10.2 88.2 L 9.4 86.7 L 8.6 88.2 L 7.9 87.7 " fill="#191919"/>
<path class="atom-8" d="M 12.2 84.6 L 13.3 84.6 L 13.3 88.1 L 17.4 88.1 L 17.4 84.6 L 18.5 84.6 L 18.5 92.7 L 17.4 92.7 L 17.4 89.0 L 13.3 89.0 L 13.3 92.7 L 12.2 92.7 L 12.2 84.6 " fill="#191919"/>
<path class="legend" d="M 57.5 141.1 L 59.9 141.1 L 59.9 132.6 L 57.2 133.5 L 56.8 132.5 L 60.3 131.0 L 61.4 131.2 L 61.4 141.1 L 63.7 141.1 L 63.7 142.4 L 57.5 142.4 L 57.5 141.1 " fill="#000000"/>
<path class="legend" d="M 65.1 133.2 Q 65.5 132.1, 66.5 131.5 Q 67.5 130.9, 68.9 130.9 Q 70.6 130.9, 71.6 131.8 Q 72.5 132.8, 72.5 134.4 Q 72.5 136.1, 71.3 137.7 Q 70.1 139.2, 67.5 141.1 L 72.7 141.1 L 72.7 142.4 L 65.1 142.4 L 65.1 141.3 Q 67.2 139.8, 68.5 138.7 Q 69.7 137.6, 70.3 136.5 Q 70.9 135.5, 70.9 134.5 Q 70.9 133.4, 70.4 132.8 Q 69.8 132.2, 68.9 132.2 Q 68.0 132.2, 67.4 132.6 Q 66.8 132.9, 66.3 133.7 L 65.1 133.2 " fill="#000000"/>
<path class="legend" d="M 78.6 142.5 Q 76.5 142.5, 75.5 141.0 Q 74.4 139.4, 74.4 136.7 Q 74.4 134.0, 75.5 132.4 Q 76.5 130.9, 78.6 130.9 Q 80.7 130.9, 81.7 132.4 Q 82.7 134.0, 82.7 136.7 Q 82.7 139.4, 81.7 141.0 Q 80.7 142.5, 78.6 142.5 M 78.6 141.2 Q 79.8 141.2, 80.5 140.1 Q 81.1 138.9, 81.1 136.7 Q 81.1 134.5, 80.5 133.3 Q 79.8 132.2, 78.6 132.2 Q 77.4 132.2, 76.7 133.3 Q 76.0 134.5, 76.0 136.7 Q 76.0 138.9, 76.7 140.1 Q 77.4 141.2, 78.6 141.2 " fill="#000000"/>
<path class="legend" d="M 84.6 133.2 Q 85.0 132.1, 86.0 131.5 Q 87.0 130.9, 88.3 130.9 Q 90.1 130.9, 91.0 131.8 Q 92.0 132.8, 92.0 134.4 Q 92.0 136.1, 90.7 137.7 Q 89.5 139.2, 86.9 141.1 L 92.2 141.1 L 92.2 142.4 L 84.5 142.4 L 84.5 141.3 Q 86.6 139.8, 87.9 138.7 Q 89.2 137.6, 89.8 136.5 Q 90.4 135.5, 90.4 134.5 Q 90.4 133.4, 89.8 132.8 Q 89.3 132.2, 88.3 132.2 Q 87.4 132.2, 86.8 132.6 Q 86.2 132.9, 85.8 133.7 L 84.6 133.2 " fill="#000000"/>
</svg>