<svg xmlns="http://www.w3.org/2000/svg" xmlns:rdkit="http://www.rdkit.org/xml" xmlns:xlink="http://www.w3.org/1999/xlink" version="1.1" baseProfile="full" xml:space="preserve" width="150px" height="150px" viewBox="0 0 150 150">
<!-- END OF HEADER -->
<rect style="opacity:1.0;fill:#FFFFFF;stroke:none" width="150.0" height="150.0" x="0.0" y="0.0"> </rect>
<ellipse cx="93.1" cy="79.1" rx="8.0" ry="8.0" class="atom-1" style="fill:#CCCCCC;fill-rule:evenodd;stroke:#CCCCCC;stroke-width:1.0px;stroke-linecap:butt;stroke-linejoin:miter;stroke-opacity:1"/>
<ellipse cx="56.4" cy="94.5" rx="8.0" ry="8.0" class="atom-2" style="fill:#CCCCCC;fill-rule:evenodd;stroke:#CCCCCC;stroke-width:1.0px;stroke-linecap:butt;stroke-linejoin:miter;stroke-opacity:1"/>
<ellipse cx="24.7" cy="70.4" rx="8.0" ry="8.0" class="atom-3" style="fill:#9999E5;fill-rule:evenodd;stroke:#9999E5;stroke-width:1.0px;stroke-linecap:butt;stroke-linejoin:miter;stroke-opacity:1"/>
<ellipse cx="29.7" cy="30.8" rx="8.0" ry="8.0" class="atom-4" style="fill:#CCCCCC;fill-rule:evenodd;stroke:#CCCCCC;stroke-width:1.0px;stroke-linecap:butt;stroke-linejoin:miter;stroke-opacity:1"/>
<ellipse cx="66.5" cy="15.5" rx="8.0" ry="8.0" class="atom-5" style="fill:#CCCCCC;fill-rule:evenodd;stroke:#CCCCCC;stroke-width:1.0px;stroke-linecap:butt;stroke-linejoin:miter;stroke-opacity:1"/>
<path class="bond-0 atom-0 atom-1" d="M 100.3,111.0 L 93.1,79.1" style="fill:none;fill-rule:evenodd;stroke:#E5E5E5;stroke-width:2.1px;stroke-linecap:butt;stroke-linejoin:miter;stroke-opacity:1"/>
<path class="bond-1 atom-2 atom-3" d="M 56.4,94.5 L 24.7,70.4" style="fill:none;fill-rule:evenodd;stroke:#000000;stroke-width:2.0px;stroke-linecap:butt;stroke-linejoin:miter;stroke-opacity:1"/>
<path class="bond-2 atom-2 atom-1" d="M 56.4,94.5 L 93.1,79.1" style="fill:none;fill-rule:evenodd;stroke:#000000;stroke-width:2.0px;stroke-linecap:butt;stroke-linejoin:miter;stroke-opacity:1"/>
<path class="bond-3 atom-3 atom-4" d="M 24.7,70.4 L 26.8,54.1" style="fill:none;fill-rule:evenodd;stroke:#000000;stroke-width:2.0px;stroke-linecap:butt;stroke-linejoin:miter;stroke-opacity:1"/>
<path class="bond-3 atom-3 atom-4" d="M 26.8,54.1 L 28.8,37.8" style="fill:none;fill-rule:evenodd;stroke:#0000FF;stroke-width:2.0px;stroke-linecap:butt;stroke-linejoin:miter;stroke-opacity:1"/>
<path class="bond-4 atom-5 atom-6" d="M 66.5,15.5 L 94.2,36.6" style="fill:none;fill-rule:evenodd;stroke:#E5E5E5;stroke-width:2.1px;stroke-linecap:butt;stroke-linejoin:miter;stroke-opacity:1"/>
<path class="bond-5 atom-5 atom-4" d="M 66.5,15.5 L 50.9,22.0" style="fill:none;fill-rule:evenodd;stroke:#000000;stroke-width:2.0px;stroke-linecap:butt;stroke-linejoin:miter;stroke-opacity:1"/>
<path class="bond-5 atom-5 atom-4" d="M 50.9,22.0 L 35.3,28.5" style="fill:none;fill-rule:evenodd;stroke:#0000FF;stroke-width:2.0px;stroke-linecap:butt;stroke-linejoin:miter;stroke-opacity:1"/>
<path class="bond-6 atom-6 atom-1" d="M 98.1,40.4 L 93.1,79.1" style="fill:none;fill-rule:evenodd;stroke:#E5E5E5;stroke-width:2.1px;stroke-linecap:butt;stroke-linejoin:miter;stroke-opacity:1"/>
<path class="bond-7 atom-7 atom-1" d="M 128.9,77.5 L 93.1,79.1" style="fill:none;fill-rule:evenodd;stroke:#E5E5E5;stroke-width:2.1px;stroke-linecap:butt;stroke-linejoin:miter;stroke-opacity:1"/>
<path d="M 54.8,93.3 L 56.4,94.5 L 58.2,93.7" style="fill:none;stroke:#000000;stroke-width:2.0px;stroke-linecap:butt;stroke-linejoin:miter;stroke-opacity:1;"/>
<path d="M 26.3,71.6 L 24.7,70.4 L 24.8,69.5" style="fill:none;stroke:#000000;stroke-width:2.0px;stroke-linecap:butt;stroke-linejoin:miter;stroke-opacity:1;"/>
<path d="M 67.2,16.0 L 66.5,15.5 L 66.1,15.6" style="fill:none;stroke:#E5E5E5;stroke-width:2.1px;stroke-linecap:butt;stroke-linejoin:miter;stroke-opacity:1;"/>
<path class="atom-0" d="M 99.7 116.8 L 101.4 115.1 L 99.2 114.6 L 99.5 113.5 L 101.6 114.5 L 101.3 112.3 L 102.5 112.3 L 102.1 114.5 L 104.2 113.5 L 104.5 114.6 L 102.3 115.0 L 103.9 116.7 L 102.9 117.4 L 101.8 115.3 L 100.7 117.4 L 99.7 116.8 " fill="#191919"/>
<path class="atom-0" d="M 105.7 112.5 L 107.3 112.5 L 107.3 117.3 L 113.0 117.3 L 113.0 112.5 L 114.6 112.5 L 114.6 123.8 L 113.0 123.8 L 113.0 118.5 L 107.3 118.5 L 107.3 123.8 L 105.7 123.8 L 105.7 112.5 " fill="#191919"/>
<path class="atom-0" d="M 120.2 125.5 Q 121.0 125.7, 121.3 126.2 Q 121.7 126.6, 121.7 127.4 Q 121.7 128.0, 121.4 128.5 Q 121.0 129.0, 120.5 129.2 Q 119.9 129.5, 119.1 129.5 Q 118.3 129.5, 117.7 129.2 Q 117.1 128.9, 116.7 128.4 L 117.3 127.8 Q 117.7 128.3, 118.1 128.5 Q 118.5 128.7, 119.1 128.7 Q 119.8 128.7, 120.2 128.3 Q 120.6 127.9, 120.6 127.3 Q 120.6 126.6, 120.2 126.2 Q 119.8 125.9, 118.8 125.9 L 118.3 125.9 L 118.3 125.1 L 118.8 125.1 Q 119.6 125.1, 120.0 124.8 Q 120.5 124.4, 120.5 123.8 Q 120.5 123.3, 120.1 123.0 Q 119.7 122.7, 119.1 122.7 Q 118.5 122.7, 118.1 122.9 Q 117.7 123.1, 117.4 123.7 L 116.7 123.3 Q 117.0 122.7, 117.6 122.3 Q 118.2 121.9, 119.1 121.9 Q 120.2 121.9, 120.9 122.4 Q 121.5 122.9, 121.5 123.8 Q 121.5 124.4, 121.2 124.8 Q 120.9 125.2, 120.2 125.5 " fill="#191919"/>
<path class="atom-4" d="M 14.4 25.2 L 15.9 25.2 L 15.9 30.0 L 21.7 30.0 L 21.7 25.2 L 23.2 25.2 L 23.2 36.5 L 21.7 36.5 L 21.7 31.3 L 15.9 31.3 L 15.9 36.5 L 14.4 36.5 L 14.4 25.2 " fill="#0000FF"/>
<path class="atom-4" d="M 27.2 25.2 L 30.9 31.2 Q 31.3 31.8, 31.9 32.8 Q 32.5 33.9, 32.5 34.0 L 32.5 25.2 L 34.0 25.2 L 34.0 36.5 L 32.5 36.5 L 28.5 29.9 Q 28.0 29.2, 27.5 28.3 Q 27.1 27.4, 26.9 27.2 L 26.9 36.5 L 25.5 36.5 L 25.5 25.2 L 27.2 25.2 " fill="#0000FF"/>
<path class="atom-6" d="M 96.1 38.4 L 97.7 36.7 L 95.5 36.2 L 95.9 35.1 L 97.9 36.1 L 97.6 33.9 L 98.8 33.9 L 98.5 36.1 L 100.5 35.1 L 100.9 36.2 L 98.6 36.6 L 100.2 38.3 L 99.3 39.0 L 98.2 36.9 L 97.0 39.0 L 96.1 38.4 " fill="#191919"/>
<path class="atom-6" d="M 102.0 34.1 L 103.6 34.1 L 103.6 38.9 L 109.3 38.9 L 109.3 34.1 L 110.9 34.1 L 110.9 45.4 L 109.3 45.4 L 109.3 40.1 L 103.6 40.1 L 103.6 45.4 L 102.0 45.4 L 102.0 34.1 " fill="#191919"/>
<path class="atom-7" d="M 130.8 76.0 L 132.5 74.3 L 130.3 73.9 L 130.6 72.7 L 132.6 73.8 L 132.3 71.6 L 133.5 71.5 L 133.2 73.7 L 135.2 72.8 L 135.6 73.9 L 133.4 74.3 L 135.0 76.0 L 134.0 76.7 L 132.9 74.6 L 131.8 76.7 L 130.8 76.0 " fill="#191919"/>
<path class="legend" d="M 57.8 141.2 L 60.3 141.2 L 60.3 132.8 L 57.6 133.6 L 57.2 132.7 L 60.7 131.1 L 61.8 131.3 L 61.8 141.2 L 64.0 141.2 L 64.0 142.5 L 57.8 142.5 L 57.8 141.2 " fill="#000000"/>
<path class="legend" d="M 65.5 133.3 Q 65.9 132.2, 66.9 131.7 Q 67.9 131.0, 69.3 131.0 Q 71.0 131.0, 71.9 132.0 Q 72.9 132.9, 72.9 134.5 Q 72.9 136.2, 71.7 137.8 Q 70.4 139.4, 67.9 141.2 L 73.1 141.2 L 73.1 142.5 L 65.5 142.5 L 65.5 141.4 Q 67.6 139.9, 68.8 138.8 Q 70.1 137.7, 70.7 136.7 Q 71.3 135.7, 71.3 134.6 Q 71.3 133.5, 70.8 132.9 Q 70.2 132.3, 69.3 132.3 Q 68.4 132.3, 67.8 132.7 Q 67.1 133.1, 66.7 133.9 L 65.5 133.3 " fill="#000000"/>
<path class="legend" d="M 75.4 141.2 L 77.9 141.2 L 77.9 132.8 L 75.2 133.6 L 74.8 132.7 L 78.3 131.1 L 79.4 131.3 L 79.4 141.2 L 81.6 141.2 L 81.6 142.5 L 75.4 142.5 L 75.4 141.2 " fill="#000000"/>
<path class="legend" d="M 90.4 138.6 L 91.8 138.6 L 91.8 139.9 L 90.4 139.9 L 90.4 142.5 L 88.9 142.5 L 88.9 139.9 L 83.1 139.9 L 83.1 138.9 L 88.0 131.2 L 90.4 131.2 L 90.4 138.6 M 84.9 138.6 L 88.9 138.6 L 88.9 132.2 L 84.9 138.6 " fill="#000000"/>
</svg>