<svg xmlns="http://www.w3.org/2000/svg" xmlns:rdkit="http://www.rdkit.org/xml" xmlns:xlink="http://www.w3.org/1999/xlink" version="1.1" baseProfile="full" xml:space="preserve" width="150px" height="150px" viewBox="0 0 150 150">
<!-- END OF HEADER -->
<rect style="opacity:1.0;fill:#FFFFFF;stroke:none" width="150.0" height="150.0" x="0.0" y="0.0"> </rect>
<ellipse cx="77.2" cy="79.5" rx="5.2" ry="5.2" class="atom-4" style="fill:#9999E5;fill-rule:evenodd;stroke:#9999E5;stroke-width:1.0px;stroke-linecap:butt;stroke-linejoin:miter;stroke-opacity:1"/>
<ellipse cx="121.3" cy="70.8" rx="5.2" ry="5.2" class="atom-7" style="fill:#E5E533;fill-rule:evenodd;stroke:#E5E533;stroke-width:1.0px;stroke-linecap:butt;stroke-linejoin:miter;stroke-opacity:1"/>
<path class="bond-0 atom-0 atom-1" d="M 91.7,37.0 L 96.7,62.5" style="fill:none;fill-rule:evenodd;stroke:#000000;stroke-width:2.0px;stroke-linecap:butt;stroke-linejoin:miter;stroke-opacity:1"/>
<path class="bond-1 atom-2 atom-3" d="M 52.7,71.2 L 33.2,88.3" style="fill:none;fill-rule:evenodd;stroke:#000000;stroke-width:2.0px;stroke-linecap:butt;stroke-linejoin:miter;stroke-opacity:1"/>
<path class="bond-2 atom-2 atom-4" d="M 52.7,71.2 L 77.2,79.5" style="fill:none;fill-rule:evenodd;stroke:#000000;stroke-width:2.0px;stroke-linecap:butt;stroke-linejoin:miter;stroke-opacity:1"/>
<path class="bond-3 atom-3 atom-5" d="M 33.2,88.3 L 10.0,80.4" style="fill:none;fill-rule:evenodd;stroke:#E5E5E5;stroke-width:1.4px;stroke-linecap:butt;stroke-linejoin:miter;stroke-opacity:1"/>
<path class="bond-3 atom-3 atom-5" d="M 32.3,83.9 L 11.3,76.7" style="fill:none;fill-rule:evenodd;stroke:#E5E5E5;stroke-width:1.4px;stroke-linecap:butt;stroke-linejoin:miter;stroke-opacity:1"/>
<path class="bond-4 atom-4 atom-1" d="M 77.2,79.5 L 96.7,62.5" style="fill:none;fill-rule:evenodd;stroke:#000000;stroke-width:2.0px;stroke-linecap:butt;stroke-linejoin:miter;stroke-opacity:1"/>
<path class="bond-5 atom-6 atom-7" d="M 123.5,92.0 L 119.1,70.1" style="fill:none;fill-rule:evenodd;stroke:#E5E5E5;stroke-width:1.4px;stroke-linecap:butt;stroke-linejoin:miter;stroke-opacity:1"/>
<path class="bond-5 atom-6 atom-7" d="M 127.3,91.3 L 122.9,69.3" style="fill:none;fill-rule:evenodd;stroke:#E5E5E5;stroke-width:1.4px;stroke-linecap:butt;stroke-linejoin:miter;stroke-opacity:1;stroke-dasharray:6,4"/>
<path class="bond-6 atom-1 atom-7" d="M 96.7,62.5 L 121.3,70.8" style="fill:none;fill-rule:evenodd;stroke:#000000;stroke-width:2.0px;stroke-linecap:butt;stroke-linejoin:miter;stroke-opacity:1"/>
<path class="bond-7 atom-7 atom-8" d="M 121.7,73.0 L 141.5,55.7" style="fill:none;fill-rule:evenodd;stroke:#E5E5E5;stroke-width:1.4px;stroke-linecap:butt;stroke-linejoin:miter;stroke-opacity:1"/>
<path class="bond-7 atom-7 atom-8" d="M 119.1,70.1 L 138.9,52.7" style="fill:none;fill-rule:evenodd;stroke:#E5E5E5;stroke-width:1.4px;stroke-linecap:butt;stroke-linejoin:miter;stroke-opacity:1;stroke-dasharray:6,4"/>
<path d="M 51.7,72.1 L 52.7,71.2 L 53.9,71.6" style="fill:none;stroke:#000000;stroke-width:2.0px;stroke-linecap:butt;stroke-linejoin:miter;stroke-opacity:1;"/>
<path d="M 33.6,87.9 L 33.2,88.3 L 32.6,88.1" style="fill:none;stroke:#000000;stroke-width:2.0px;stroke-linecap:butt;stroke-linejoin:miter;stroke-opacity:1;"/>
<path d="M 76.0,79.1 L 77.2,79.5 L 78.2,78.7" style="fill:none;stroke:#000000;stroke-width:2.0px;stroke-linecap:butt;stroke-linejoin:miter;stroke-opacity:1;"/>
<path class="atom-5" d="M 7.9 77.3 L 8.9 76.2 L 7.5 75.9 L 7.7 75.2 L 9.0 75.8 L 8.8 74.4 L 9.6 74.4 L 9.4 75.8 L 10.7 75.2 L 11.0 75.9 L 9.5 76.2 L 10.6 77.3 L 9.9 77.7 L 9.2 76.4 L 8.5 77.7 L 7.9 77.3 " fill="#191919"/>
<path class="atom-6" d="M 124.9 95.4 L 126.0 94.3 L 124.6 94.0 L 124.8 93.3 L 126.1 94.0 L 125.9 92.5 L 126.7 92.5 L 126.5 93.9 L 127.8 93.3 L 128.0 94.0 L 126.6 94.3 L 127.6 95.4 L 127.0 95.9 L 126.3 94.5 L 125.6 95.9 L 124.9 95.4 " fill="#191919"/>
<path class="atom-6" d="M 128.8 92.6 L 129.8 92.6 L 129.8 95.8 L 133.6 95.8 L 133.6 92.6 L 134.6 92.6 L 134.6 100.0 L 133.6 100.0 L 133.6 96.6 L 129.8 96.6 L 129.8 100.0 L 128.8 100.0 L 128.8 92.6 " fill="#191919"/>
<path class="atom-8" d="M 139.4 52.9 L 140.5 51.8 L 139.0 51.5 L 139.2 50.8 L 140.6 51.4 L 140.4 50.0 L 141.2 50.0 L 140.9 51.4 L 142.3 50.8 L 142.5 51.5 L 141.0 51.8 L 142.1 52.9 L 141.5 53.3 L 140.7 52.0 L 140.0 53.3 L 139.4 52.9 " fill="#191919"/>
<path class="legend" d="M 57.5 141.1 L 60.0 141.1 L 60.0 132.6 L 57.2 133.4 L 56.9 132.5 L 60.3 130.9 L 61.5 131.1 L 61.5 141.1 L 63.7 141.1 L 63.7 142.3 L 57.5 142.3 L 57.5 141.1 " fill="#000000"/>
<path class="legend" d="M 70.6 136.4 Q 71.7 136.7, 72.2 137.4 Q 72.7 138.1, 72.7 139.2 Q 72.7 140.2, 72.3 140.9 Q 71.8 141.7, 70.9 142.1 Q 70.0 142.5, 68.9 142.5 Q 67.6 142.5, 66.7 142.1 Q 65.8 141.7, 65.1 140.8 L 66.0 139.9 Q 66.7 140.6, 67.3 140.9 Q 67.9 141.2, 68.9 141.2 Q 69.9 141.2, 70.5 140.7 Q 71.1 140.1, 71.1 139.2 Q 71.1 138.1, 70.5 137.6 Q 69.8 137.0, 68.4 137.0 L 67.6 137.0 L 67.6 135.9 L 68.4 135.9 Q 69.6 135.9, 70.2 135.3 Q 70.9 134.8, 70.9 133.8 Q 70.9 133.0, 70.4 132.6 Q 69.8 132.2, 68.9 132.2 Q 67.9 132.2, 67.3 132.5 Q 66.8 132.8, 66.3 133.7 L 65.2 133.1 Q 65.6 132.1, 66.6 131.5 Q 67.5 130.9, 68.9 130.9 Q 70.5 130.9, 71.5 131.7 Q 72.5 132.5, 72.5 133.8 Q 72.5 134.7, 72.0 135.3 Q 71.5 136.0, 70.6 136.4 " fill="#000000"/>
<path class="legend" d="M 78.6 142.5 Q 76.5 142.5, 75.5 140.9 Q 74.4 139.4, 74.4 136.7 Q 74.4 133.9, 75.5 132.4 Q 76.5 130.9, 78.6 130.9 Q 80.7 130.9, 81.7 132.4 Q 82.7 133.9, 82.7 136.7 Q 82.7 139.4, 81.7 140.9 Q 80.7 142.5, 78.6 142.5 M 78.6 141.2 Q 79.8 141.2, 80.5 140.1 Q 81.1 138.9, 81.1 136.7 Q 81.1 134.4, 80.5 133.3 Q 79.8 132.2, 78.6 132.2 Q 77.4 132.2, 76.7 133.3 Q 76.0 134.4, 76.0 136.7 Q 76.0 138.9, 76.7 140.1 Q 77.4 141.2, 78.6 141.2 " fill="#000000"/>
<path class="legend" d="M 90.0 136.4 Q 91.1 136.7, 91.6 137.4 Q 92.1 138.1, 92.1 139.2 Q 92.1 140.2, 91.7 140.9 Q 91.2 141.7, 90.3 142.1 Q 89.4 142.5, 88.3 142.5 Q 87.1 142.5, 86.1 142.1 Q 85.2 141.7, 84.5 140.8 L 85.4 139.9 Q 86.1 140.6, 86.7 140.9 Q 87.3 141.2, 88.3 141.2 Q 89.3 141.2, 89.9 140.7 Q 90.5 140.1, 90.5 139.2 Q 90.5 138.1, 89.9 137.6 Q 89.2 137.0, 87.9 137.0 L 87.0 137.0 L 87.0 135.9 L 87.8 135.9 Q 89.0 135.9, 89.6 135.3 Q 90.3 134.8, 90.3 133.8 Q 90.3 133.0, 89.8 132.6 Q 89.2 132.2, 88.3 132.2 Q 87.3 132.2, 86.8 132.5 Q 86.2 132.8, 85.7 133.7 L 84.6 133.1 Q 85.0 132.1, 86.0 131.5 Q 86.9 130.9, 88.3 130.9 Q 90.0 130.9, 90.9 131.7 Q 91.9 132.5, 91.9 133.8 Q 91.9 134.7, 91.4 135.3 Q 90.9 136.0, 90.0 136.4 " fill="#000000"/>
</svg>