<svg xmlns="http://www.w3.org/2000/svg" xmlns:rdkit="http://www.rdkit.org/xml" xmlns:xlink="http://www.w3.org/1999/xlink" version="1.1" baseProfile="full" xml:space="preserve" width="150px" height="150px" viewBox="0 0 150 150">
<!-- END OF HEADER -->
<rect style="opacity:1.0;fill:#FFFFFF;stroke:none" width="150.0" height="150.0" x="0.0" y="0.0"> </rect>
<ellipse cx="51.9" cy="89.3" rx="4.5" ry="4.5" class="atom-3" style="fill:#E5E533;fill-rule:evenodd;stroke:#E5E533;stroke-width:1.0px;stroke-linecap:butt;stroke-linejoin:miter;stroke-opacity:1"/>
<ellipse cx="52.0" cy="66.7" rx="4.5" ry="4.5" class="atom-5" style="fill:#E5E533;fill-rule:evenodd;stroke:#E5E533;stroke-width:1.0px;stroke-linecap:butt;stroke-linejoin:miter;stroke-opacity:1"/>
<ellipse cx="32.5" cy="55.3" rx="4.5" ry="4.5" class="atom-6" style="fill:#E5E533;fill-rule:evenodd;stroke:#E5E533;stroke-width:1.0px;stroke-linecap:butt;stroke-linejoin:miter;stroke-opacity:1"/>
<ellipse cx="110.6" cy="78.3" rx="4.5" ry="4.5" class="atom-9" style="fill:#CCCCCC;fill-rule:evenodd;stroke:#CCCCCC;stroke-width:1.0px;stroke-linecap:butt;stroke-linejoin:miter;stroke-opacity:1"/>
<ellipse cx="71.6" cy="55.5" rx="4.5" ry="4.5" class="atom-11" style="fill:#9999E5;fill-rule:evenodd;stroke:#9999E5;stroke-width:1.0px;stroke-linecap:butt;stroke-linejoin:miter;stroke-opacity:1"/>
<path class="bond-0 atom-0 atom-1" d="M 79.7,86.4 L 91.1,66.9" style="fill:none;fill-rule:evenodd;stroke:#000000;stroke-width:2.0px;stroke-linecap:butt;stroke-linejoin:miter;stroke-opacity:1"/>
<path class="bond-1 atom-2 atom-1" d="M 102.5,47.4 L 91.1,66.9" style="fill:none;fill-rule:evenodd;stroke:#000000;stroke-width:2.0px;stroke-linecap:butt;stroke-linejoin:miter;stroke-opacity:1"/>
<path class="bond-2 atom-3 atom-4" d="M 51.9,89.3 L 35.5,98.7" style="fill:none;fill-rule:evenodd;stroke:#E5E5E5;stroke-width:1.2px;stroke-linecap:butt;stroke-linejoin:miter;stroke-opacity:1"/>
<path class="bond-2 atom-3 atom-4" d="M 48.5,87.3 L 33.8,95.7" style="fill:none;fill-rule:evenodd;stroke:#E5E5E5;stroke-width:1.2px;stroke-linecap:butt;stroke-linejoin:miter;stroke-opacity:1;stroke-dasharray:6,4"/>
<path class="bond-3 atom-3 atom-5" d="M 51.9,89.3 L 52.0,66.7" style="fill:none;fill-rule:evenodd;stroke:#000000;stroke-width:2.0px;stroke-linecap:butt;stroke-linejoin:miter;stroke-opacity:1"/>
<path class="bond-3 atom-3 atom-5" d="M 48.5,87.3 L 48.6,68.7" style="fill:none;fill-rule:evenodd;stroke:#000000;stroke-width:2.0px;stroke-linecap:butt;stroke-linejoin:miter;stroke-opacity:1;stroke-dasharray:6,4"/>
<path class="bond-4 atom-6 atom-7" d="M 32.5,55.3 L 16.1,64.7" style="fill:none;fill-rule:evenodd;stroke:#E5E5E5;stroke-width:1.2px;stroke-linecap:butt;stroke-linejoin:miter;stroke-opacity:1"/>
<path class="bond-4 atom-6 atom-7" d="M 32.5,59.3 L 17.8,67.6" style="fill:none;fill-rule:evenodd;stroke:#E5E5E5;stroke-width:1.2px;stroke-linecap:butt;stroke-linejoin:miter;stroke-opacity:1;stroke-dasharray:6,4"/>
<path class="bond-5 atom-6 atom-5" d="M 32.5,55.3 L 52.0,66.7" style="fill:none;fill-rule:evenodd;stroke:#000000;stroke-width:2.0px;stroke-linecap:butt;stroke-linejoin:miter;stroke-opacity:1"/>
<path class="bond-5 atom-6 atom-5" d="M 32.5,59.3 L 48.6,68.7" style="fill:none;fill-rule:evenodd;stroke:#000000;stroke-width:2.0px;stroke-linecap:butt;stroke-linejoin:miter;stroke-opacity:1;stroke-dasharray:6,4"/>
<path class="bond-6 atom-8 atom-9" d="M 112.4,96.8 L 111.0,82.3" style="fill:none;fill-rule:evenodd;stroke:#E5E5E5;stroke-width:1.2px;stroke-linecap:butt;stroke-linejoin:miter;stroke-opacity:1"/>
<path class="bond-7 atom-10 atom-9" d="M 130.3,69.7 L 113.8,77.0" style="fill:none;fill-rule:evenodd;stroke:#E5E5E5;stroke-width:1.2px;stroke-linecap:butt;stroke-linejoin:miter;stroke-opacity:1"/>
<path class="bond-8 atom-5 atom-11" d="M 52.0,66.7 L 71.6,55.5" style="fill:none;fill-rule:evenodd;stroke:#000000;stroke-width:2.0px;stroke-linecap:butt;stroke-linejoin:miter;stroke-opacity:1"/>
<path class="bond-9 atom-11 atom-1" d="M 71.6,55.5 L 91.1,66.9" style="fill:none;fill-rule:evenodd;stroke:#000000;stroke-width:2.0px;stroke-linecap:butt;stroke-linejoin:miter;stroke-opacity:1"/>
<path class="bond-10 atom-11 atom-12" d="M 73.3,56.5 L 73.3,46.8" style="fill:none;fill-rule:evenodd;stroke:#000000;stroke-width:2.0px;stroke-linecap:butt;stroke-linejoin:miter;stroke-opacity:1"/>
<path class="bond-10 atom-11 atom-12" d="M 73.3,46.8 L 73.4,37.1" style="fill:none;fill-rule:evenodd;stroke:#FF0000;stroke-width:2.0px;stroke-linecap:butt;stroke-linejoin:miter;stroke-opacity:1"/>
<path class="bond-10 atom-11 atom-12" d="M 69.9,56.5 L 70.0,46.8" style="fill:none;fill-rule:evenodd;stroke:#000000;stroke-width:2.0px;stroke-linecap:butt;stroke-linejoin:miter;stroke-opacity:1"/>
<path class="bond-10 atom-11 atom-12" d="M 70.0,46.8 L 70.0,37.0" style="fill:none;fill-rule:evenodd;stroke:#FF0000;stroke-width:2.0px;stroke-linecap:butt;stroke-linejoin:miter;stroke-opacity:1"/>
<path class="bond-11 atom-1 atom-9" d="M 91.1,66.9 L 99.3,71.7" style="fill:none;fill-rule:evenodd;stroke:#000000;stroke-width:2.0px;stroke-linecap:butt;stroke-linejoin:miter;stroke-opacity:1"/>
<path class="bond-11 atom-1 atom-9" d="M 99.3,71.7 L 107.4,76.5" style="fill:none;fill-rule:evenodd;stroke:#0000FF;stroke-width:2.0px;stroke-linecap:butt;stroke-linejoin:miter;stroke-opacity:1"/>
<path d="M 51.4,89.6 L 51.9,89.3 L 51.9,88.8" style="fill:none;stroke:#E5E5E5;stroke-width:1.2px;stroke-linecap:butt;stroke-linejoin:miter;stroke-opacity:1;"/>
<path d="M 32.1,55.6 L 32.5,55.3 L 33.0,55.6" style="fill:none;stroke:#E5E5E5;stroke-width:1.2px;stroke-linecap:butt;stroke-linejoin:miter;stroke-opacity:1;"/>
<path d="M 70.6,56.1 L 71.6,55.5 L 72.6,56.1" style="fill:none;stroke:#000000;stroke-width:2.0px;stroke-linecap:butt;stroke-linejoin:miter;stroke-opacity:1;"/>
<path class="atom-4" d="M 25.5 98.3 L 26.4 97.4 L 25.2 97.1 L 25.4 96.5 L 26.5 97.0 L 26.4 95.8 L 27.1 95.8 L 26.9 97.0 L 28.0 96.5 L 28.2 97.1 L 27.0 97.3 L 27.9 98.3 L 27.3 98.7 L 26.7 97.5 L 26.1 98.7 L 25.5 98.3 " fill="#191919"/>
<path class="atom-4" d="M 28.9 95.9 L 29.8 95.9 L 29.8 98.6 L 33.0 98.6 L 33.0 95.9 L 33.9 95.9 L 33.9 102.3 L 33.0 102.3 L 33.0 99.3 L 29.8 99.3 L 29.8 102.3 L 28.9 102.3 L 28.9 95.9 " fill="#191919"/>
<path class="atom-7" d="M 7.8 67.3 L 8.7 66.3 L 7.5 66.1 L 7.7 65.4 L 8.8 66.0 L 8.7 64.8 L 9.4 64.7 L 9.2 66.0 L 10.3 65.5 L 10.5 66.1 L 9.3 66.3 L 10.2 67.3 L 9.6 67.7 L 9.0 66.5 L 8.4 67.7 L 7.8 67.3 " fill="#191919"/>
<path class="atom-7" d="M 11.2 64.9 L 12.1 64.9 L 12.1 67.6 L 15.3 67.6 L 15.3 64.9 L 16.2 64.9 L 16.2 71.2 L 15.3 71.2 L 15.3 68.3 L 12.1 68.3 L 12.1 71.2 L 11.2 71.2 L 11.2 64.9 " fill="#191919"/>
<path class="atom-8" d="M 111.6 100.1 L 112.6 99.1 L 111.3 98.9 L 111.5 98.3 L 112.7 98.8 L 112.5 97.6 L 113.2 97.6 L 113.0 98.8 L 114.1 98.3 L 114.3 98.9 L 113.1 99.1 L 114.0 100.1 L 113.4 100.5 L 112.8 99.3 L 112.2 100.5 L 111.6 100.1 " fill="#191919"/>
<path class="atom-8" d="M 115.0 97.7 L 115.9 97.7 L 115.9 100.4 L 119.2 100.4 L 119.2 97.7 L 120.0 97.7 L 120.0 104.1 L 119.2 104.1 L 119.2 101.1 L 115.9 101.1 L 115.9 104.1 L 115.0 104.1 L 115.0 97.7 " fill="#191919"/>
<path class="atom-8" d="M 121.2 103.8 Q 121.4 103.4, 121.8 103.2 Q 122.1 103.0, 122.6 103.0 Q 123.3 103.0, 123.6 103.3 Q 124.0 103.7, 124.0 104.3 Q 124.0 104.9, 123.5 105.5 Q 123.1 106.1, 122.1 106.8 L 124.1 106.8 L 124.1 107.3 L 121.2 107.3 L 121.2 106.9 Q 122.0 106.3, 122.5 105.9 Q 122.9 105.5, 123.2 105.1 Q 123.4 104.7, 123.4 104.3 Q 123.4 103.9, 123.2 103.7 Q 123.0 103.5, 122.6 103.5 Q 122.3 103.5, 122.1 103.6 Q 121.8 103.8, 121.7 104.1 L 121.2 103.8 " fill="#191919"/>
<path class="atom-9" d="M 109.2 75.1 L 111.3 78.5 Q 111.5 78.9, 111.8 79.5 Q 112.2 80.1, 112.2 80.1 L 112.2 75.1 L 113.0 75.1 L 113.0 81.5 L 112.1 81.5 L 109.9 77.8 Q 109.6 77.4, 109.4 76.9 Q 109.1 76.4, 109.0 76.3 L 109.0 81.5 L 108.2 81.5 L 108.2 75.1 L 109.2 75.1 " fill="#0000FF"/>
<path class="atom-10" d="M 130.1 68.6 L 131.0 67.6 L 129.8 67.3 L 130.0 66.7 L 131.1 67.3 L 130.9 66.0 L 131.6 66.0 L 131.4 67.3 L 132.6 66.7 L 132.8 67.3 L 131.5 67.6 L 132.4 68.5 L 131.9 68.9 L 131.3 67.8 L 130.6 68.9 L 130.1 68.6 " fill="#191919"/>
<path class="atom-10" d="M 133.5 66.1 L 134.3 66.1 L 134.3 68.8 L 137.6 68.8 L 137.6 66.1 L 138.5 66.1 L 138.5 72.5 L 137.6 72.5 L 137.6 69.6 L 134.3 69.6 L 134.3 72.5 L 133.5 72.5 L 133.5 66.1 " fill="#191919"/>
<path class="atom-10" d="M 139.7 72.3 Q 139.8 71.9, 140.2 71.7 Q 140.6 71.5, 141.1 71.5 Q 141.7 71.5, 142.1 71.8 Q 142.4 72.1, 142.4 72.8 Q 142.4 73.4, 142.0 74.0 Q 141.5 74.6, 140.6 75.2 L 142.5 75.2 L 142.5 75.7 L 139.7 75.7 L 139.7 75.3 Q 140.4 74.8, 140.9 74.3 Q 141.4 73.9, 141.6 73.6 Q 141.8 73.2, 141.8 72.8 Q 141.8 72.4, 141.6 72.2 Q 141.4 71.9, 141.1 71.9 Q 140.7 71.9, 140.5 72.1 Q 140.3 72.2, 140.1 72.5 L 139.7 72.3 " fill="#191919"/>
<path class="atom-12" d="M 68.8 33.0 Q 68.8 31.4, 69.5 30.6 Q 70.3 29.7, 71.7 29.7 Q 73.1 29.7, 73.9 30.6 Q 74.7 31.4, 74.7 33.0 Q 74.7 34.5, 73.9 35.4 Q 73.1 36.3, 71.7 36.3 Q 70.3 36.3, 69.5 35.4 Q 68.8 34.5, 68.8 33.0 M 71.7 35.6 Q 72.7 35.6, 73.2 34.9 Q 73.8 34.3, 73.8 33.0 Q 73.8 31.7, 73.2 31.1 Q 72.7 30.5, 71.7 30.5 Q 70.7 30.5, 70.2 31.1 Q 69.7 31.7, 69.7 33.0 Q 69.7 34.3, 70.2 34.9 Q 70.7 35.6, 71.7 35.6 " fill="#FF0000"/>
<path class="legend" d="M 58.4 141.1 L 60.9 141.1 L 60.9 132.6 L 58.2 133.4 L 57.8 132.5 L 61.3 130.9 L 62.4 131.1 L 62.4 141.1 L 64.6 141.1 L 64.6 142.3 L 58.4 142.3 L 58.4 141.1 " fill="#000000"/>
<path class="legend" d="M 71.5 136.4 Q 72.6 136.7, 73.1 137.4 Q 73.6 138.1, 73.6 139.2 Q 73.6 140.2, 73.2 140.9 Q 72.7 141.7, 71.8 142.1 Q 70.9 142.5, 69.8 142.5 Q 68.6 142.5, 67.6 142.1 Q 66.7 141.7, 66.0 140.8 L 66.9 139.9 Q 67.6 140.6, 68.2 140.9 Q 68.8 141.2, 69.8 141.2 Q 70.8 141.2, 71.4 140.7 Q 72.0 140.1, 72.0 139.2 Q 72.0 138.1, 71.4 137.6 Q 70.7 137.0, 69.4 137.0 L 68.5 137.0 L 68.5 135.9 L 69.3 135.9 Q 70.5 135.9, 71.1 135.3 Q 71.8 134.8, 71.8 133.8 Q 71.8 133.0, 71.3 132.6 Q 70.7 132.2, 69.8 132.2 Q 68.8 132.2, 68.3 132.5 Q 67.7 132.8, 67.2 133.7 L 66.1 133.1 Q 66.5 132.1, 67.5 131.5 Q 68.4 130.9, 69.8 130.9 Q 71.5 130.9, 72.4 131.7 Q 73.4 132.5, 73.4 133.8 Q 73.4 134.7, 72.9 135.3 Q 72.4 136.0, 71.5 136.4 " fill="#000000"/>
<path class="legend" d="M 75.9 141.1 L 78.4 141.1 L 78.4 132.6 L 75.7 133.4 L 75.3 132.5 L 78.8 130.9 L 79.9 131.1 L 79.9 141.1 L 82.1 141.1 L 82.1 142.3 L 75.9 142.3 L 75.9 141.1 " fill="#000000"/>
<path class="legend" d="M 87.6 135.3 Q 88.6 135.3, 89.5 135.7 Q 90.3 136.1, 90.7 136.9 Q 91.2 137.7, 91.2 138.8 Q 91.2 139.9, 90.6 140.8 Q 90.1 141.6, 89.1 142.0 Q 88.2 142.5, 87.2 142.5 Q 86.1 142.5, 85.2 142.1 Q 84.2 141.7, 83.5 141.0 L 84.5 140.0 Q 85.0 140.5, 85.7 140.9 Q 86.5 141.2, 87.2 141.2 Q 88.2 141.2, 88.9 140.5 Q 89.6 139.9, 89.6 138.8 Q 89.6 137.6, 88.9 137.0 Q 88.2 136.5, 87.1 136.5 Q 86.1 136.5, 85.0 136.9 L 84.1 136.5 L 84.7 131.0 L 90.5 131.0 L 90.3 132.3 L 86.0 132.3 L 85.6 135.7 Q 86.7 135.3, 87.6 135.3 " fill="#000000"/>
</svg>