<svg xmlns="http://www.w3.org/2000/svg" xmlns:rdkit="http://www.rdkit.org/xml" xmlns:xlink="http://www.w3.org/1999/xlink" version="1.1" baseProfile="full" xml:space="preserve" width="150px" height="150px" viewBox="0 0 150 150">
<!-- END OF HEADER -->
<rect style="opacity:1.0;fill:#FFFFFF;stroke:none" width="150.0" height="150.0" x="0.0" y="0.0"> </rect>
<ellipse cx="59.9" cy="50.7" rx="7.7" ry="7.7" class="atom-1" style="fill:#E5E533;fill-rule:evenodd;stroke:#E5E533;stroke-width:1.0px;stroke-linecap:butt;stroke-linejoin:miter;stroke-opacity:1"/>
<ellipse cx="91.3" cy="109.2" rx="7.7" ry="7.7" class="atom-3" style="fill:#E5E533;fill-rule:evenodd;stroke:#E5E533;stroke-width:1.0px;stroke-linecap:butt;stroke-linejoin:miter;stroke-opacity:1"/>
<ellipse cx="92.5" cy="70.9" rx="7.7" ry="7.7" class="atom-5" style="fill:#9999E5;fill-rule:evenodd;stroke:#9999E5;stroke-width:1.0px;stroke-linecap:butt;stroke-linejoin:miter;stroke-opacity:1"/>
<path class="bond-0 atom-0 atom-1" d="M 56.1,13.2 L 61.5,43.5" style="fill:none;fill-rule:evenodd;stroke:#E5E5E5;stroke-width:2.0px;stroke-linecap:butt;stroke-linejoin:miter;stroke-opacity:1"/>
<path class="bond-0 atom-0 atom-1" d="M 50.4,14.2 L 55.9,44.6" style="fill:none;fill-rule:evenodd;stroke:#E5E5E5;stroke-width:2.0px;stroke-linecap:butt;stroke-linejoin:miter;stroke-opacity:1;stroke-dasharray:6,4"/>
<path class="bond-1 atom-2 atom-3" d="M 60.0,122.8 L 91.4,105.9" style="fill:none;fill-rule:evenodd;stroke:#E5E5E5;stroke-width:2.0px;stroke-linecap:butt;stroke-linejoin:miter;stroke-opacity:1"/>
<path class="bond-1 atom-2 atom-3" d="M 62.7,127.8 L 94.1,111.0" style="fill:none;fill-rule:evenodd;stroke:#E5E5E5;stroke-width:2.0px;stroke-linecap:butt;stroke-linejoin:miter;stroke-opacity:1;stroke-dasharray:6,4"/>
<path class="bond-2 atom-3 atom-4" d="M 88.4,110.8 L 118.5,129.5" style="fill:none;fill-rule:evenodd;stroke:#E5E5E5;stroke-width:2.0px;stroke-linecap:butt;stroke-linejoin:miter;stroke-opacity:1"/>
<path class="bond-2 atom-3 atom-4" d="M 91.4,105.9 L 121.5,124.6" style="fill:none;fill-rule:evenodd;stroke:#E5E5E5;stroke-width:2.0px;stroke-linecap:butt;stroke-linejoin:miter;stroke-opacity:1"/>
<path class="bond-3 atom-3 atom-5" d="M 91.3,109.2 L 91.8,93.4" style="fill:none;fill-rule:evenodd;stroke:#000000;stroke-width:2.0px;stroke-linecap:butt;stroke-linejoin:miter;stroke-opacity:1"/>
<path class="bond-3 atom-3 atom-5" d="M 91.8,93.4 L 92.3,77.6" style="fill:none;fill-rule:evenodd;stroke:#0000FF;stroke-width:2.0px;stroke-linecap:butt;stroke-linejoin:miter;stroke-opacity:1"/>
<path class="bond-3 atom-3 atom-5" d="M 85.6,105.7 L 86.1,91.6" style="fill:none;fill-rule:evenodd;stroke:#000000;stroke-width:2.0px;stroke-linecap:butt;stroke-linejoin:miter;stroke-opacity:1;stroke-dasharray:6,4"/>
<path class="bond-3 atom-3 atom-5" d="M 86.1,91.6 L 86.5,77.4" style="fill:none;fill-rule:evenodd;stroke:#0000FF;stroke-width:2.0px;stroke-linecap:butt;stroke-linejoin:miter;stroke-opacity:1;stroke-dasharray:6,4"/>
<path class="bond-4 atom-6 atom-1" d="M 28.6,64.3 L 53.2,51.1" style="fill:none;fill-rule:evenodd;stroke:#E5E5E5;stroke-width:2.0px;stroke-linecap:butt;stroke-linejoin:miter;stroke-opacity:1"/>
<path class="bond-4 atom-6 atom-1" d="M 31.3,69.3 L 55.9,56.2" style="fill:none;fill-rule:evenodd;stroke:#E5E5E5;stroke-width:2.0px;stroke-linecap:butt;stroke-linejoin:miter;stroke-opacity:1;stroke-dasharray:6,4"/>
<path class="bond-5 atom-5 atom-1" d="M 85.6,70.0 L 63.8,56.5" style="fill:none;fill-rule:evenodd;stroke:#0000FF;stroke-width:2.0px;stroke-linecap:butt;stroke-linejoin:miter;stroke-opacity:1"/>
<path class="bond-5 atom-5 atom-1" d="M 88.6,65.2 L 66.8,51.6" style="fill:none;fill-rule:evenodd;stroke:#0000FF;stroke-width:2.0px;stroke-linecap:butt;stroke-linejoin:miter;stroke-opacity:1;stroke-dasharray:6,4"/>
<path d="M 89.8,106.8 L 91.4,105.9 L 92.9,106.9" style="fill:none;stroke:#E5E5E5;stroke-width:2.0px;stroke-linecap:butt;stroke-linejoin:miter;stroke-opacity:1;"/>
<path class="atom-0" d="M 51.1 11.8 L 52.7 10.2 L 50.6 9.8 L 50.9 8.7 L 52.8 9.6 L 52.5 7.5 L 53.7 7.5 L 53.4 9.6 L 55.4 8.7 L 55.7 9.8 L 53.5 10.2 L 55.1 11.8 L 54.1 12.5 L 53.1 10.4 L 52.0 12.5 L 51.1 11.8 " fill="#191919"/>
<path class="atom-0" d="M 56.8 7.7 L 58.3 7.7 L 58.3 12.3 L 63.9 12.3 L 63.9 7.7 L 65.3 7.7 L 65.3 18.5 L 63.9 18.5 L 63.9 13.5 L 58.3 13.5 L 58.3 18.5 L 56.8 18.5 L 56.8 7.7 " fill="#191919"/>
<path class="atom-1" d="M 57.5 45.3 L 61.1 51.1 Q 61.4 51.6, 62.0 52.7 Q 62.6 53.7, 62.6 53.7 L 62.6 45.3 L 64.0 45.3 L 64.0 56.2 L 62.5 56.2 L 58.7 49.9 Q 58.3 49.1, 57.8 48.3 Q 57.3 47.5, 57.2 47.2 L 57.2 56.2 L 55.8 56.2 L 55.8 45.3 L 57.5 45.3 " fill="#0000FF"/>
<path class="atom-2" d="M 55.5 126.1 L 57.1 124.5 L 54.9 124.1 L 55.3 123.0 L 57.2 124.0 L 56.9 121.8 L 58.1 121.8 L 57.8 124.0 L 59.7 123.0 L 60.1 124.1 L 57.9 124.5 L 59.5 126.1 L 58.5 126.8 L 57.5 124.8 L 56.4 126.8 L 55.5 126.1 " fill="#191919"/>
<path class="atom-4" d="M 121.8 128.2 L 123.4 126.6 L 121.3 126.2 L 121.6 125.1 L 123.6 126.1 L 123.3 123.9 L 124.4 123.9 L 124.1 126.0 L 126.1 125.1 L 126.4 126.2 L 124.3 126.6 L 125.8 128.2 L 124.9 128.9 L 123.8 126.9 L 122.8 128.9 L 121.8 128.2 " fill="#191919"/>
<path class="atom-5" d="M 90.1 65.5 L 93.6 71.3 Q 94.0 71.8, 94.6 72.8 Q 95.1 73.9, 95.2 73.9 L 95.2 65.5 L 96.6 65.5 L 96.6 76.4 L 95.1 76.4 L 91.3 70.1 Q 90.9 69.3, 90.4 68.5 Q 89.9 67.7, 89.8 67.4 L 89.8 76.4 L 88.4 76.4 L 88.4 65.5 L 90.1 65.5 " fill="#0000FF"/>
<path class="atom-5" d="M 98.7 65.5 L 100.2 65.5 L 100.2 70.1 L 105.7 70.1 L 105.7 65.5 L 107.2 65.5 L 107.2 76.4 L 105.7 76.4 L 105.7 71.3 L 100.2 71.3 L 100.2 76.4 L 98.7 76.4 L 98.7 65.5 " fill="#0000FF"/>
<path class="atom-6" d="M 24.1 67.6 L 25.7 66.0 L 23.6 65.6 L 23.9 64.5 L 25.8 65.5 L 25.6 63.3 L 26.7 63.3 L 26.4 65.5 L 28.4 64.5 L 28.7 65.6 L 26.6 66.0 L 28.1 67.6 L 27.2 68.3 L 26.1 66.3 L 25.0 68.3 L 24.1 67.6 " fill="#191919"/>
<path class="legend" d="M 57.3 141.1 L 59.8 141.1 L 59.8 132.6 L 57.0 133.4 L 56.7 132.5 L 60.1 130.9 L 61.3 131.1 L 61.3 141.1 L 63.5 141.1 L 63.5 142.3 L 57.3 142.3 L 57.3 141.1 " fill="#000000"/>
<path class="legend" d="M 70.4 136.4 Q 71.5 136.7, 72.0 137.4 Q 72.6 138.1, 72.6 139.2 Q 72.6 140.2, 72.1 140.9 Q 71.6 141.7, 70.7 142.1 Q 69.8 142.5, 68.7 142.5 Q 67.5 142.5, 66.6 142.1 Q 65.7 141.7, 64.9 140.8 L 65.9 139.9 Q 66.6 140.6, 67.2 140.9 Q 67.7 141.2, 68.7 141.2 Q 69.7 141.2, 70.3 140.7 Q 71.0 140.1, 71.0 139.2 Q 71.0 138.1, 70.3 137.6 Q 69.7 137.0, 68.3 137.0 L 67.5 137.0 L 67.5 135.9 L 68.2 135.9 Q 69.4 135.9, 70.1 135.3 Q 70.7 134.8, 70.7 133.8 Q 70.7 133.0, 70.2 132.6 Q 69.6 132.2, 68.7 132.2 Q 67.8 132.2, 67.2 132.5 Q 66.6 132.8, 66.1 133.7 L 65.0 133.1 Q 65.4 132.1, 66.4 131.5 Q 67.4 130.9, 68.7 130.9 Q 70.4 130.9, 71.3 131.7 Q 72.3 132.5, 72.3 133.8 Q 72.3 134.7, 71.8 135.3 Q 71.3 136.0, 70.4 136.4 " fill="#000000"/>
<path class="legend" d="M 79.7 136.4 Q 80.8 136.7, 81.3 137.4 Q 81.9 138.1, 81.9 139.2 Q 81.9 140.2, 81.4 140.9 Q 80.9 141.7, 80.1 142.1 Q 79.2 142.5, 78.0 142.5 Q 76.8 142.5, 75.9 142.1 Q 75.0 141.7, 74.3 140.8 L 75.2 139.9 Q 75.9 140.6, 76.5 140.9 Q 77.1 141.2, 78.0 141.2 Q 79.0 141.2, 79.7 140.7 Q 80.3 140.1, 80.3 139.2 Q 80.3 138.1, 79.6 137.6 Q 79.0 137.0, 77.6 137.0 L 76.8 137.0 L 76.8 135.9 L 77.5 135.9 Q 78.7 135.9, 79.4 135.3 Q 80.1 134.8, 80.1 133.8 Q 80.1 133.0, 79.5 132.6 Q 79.0 132.2, 78.0 132.2 Q 77.1 132.2, 76.5 132.5 Q 75.9 132.8, 75.5 133.7 L 74.4 133.1 Q 74.8 132.1, 75.7 131.5 Q 76.7 130.9, 78.0 130.9 Q 79.7 130.9, 80.7 131.7 Q 81.7 132.5, 81.7 133.8 Q 81.7 134.7, 81.2 135.3 Q 80.7 136.0, 79.7 136.4 " fill="#000000"/>
<path class="legend" d="M 91.0 138.5 L 92.3 138.5 L 92.3 139.7 L 91.0 139.7 L 91.0 142.3 L 89.5 142.3 L 89.5 139.7 L 83.6 139.7 L 83.6 138.7 L 88.6 131.0 L 91.0 131.0 L 91.0 138.5 M 85.5 138.5 L 89.5 138.5 L 89.5 132.0 L 85.5 138.5 " fill="#000000"/>
</svg>