<svg xmlns="http://www.w3.org/2000/svg" xmlns:rdkit="http://www.rdkit.org/xml" xmlns:xlink="http://www.w3.org/1999/xlink" version="1.1" baseProfile="full" xml:space="preserve" width="150px" height="150px" viewBox="0 0 150 150">
<!-- END OF HEADER -->
<rect style="opacity:1.0;fill:#FFFFFF;stroke:none" width="150.0" height="150.0" x="0.0" y="0.0"> </rect>
<ellipse cx="53.0" cy="99.0" rx="5.2" ry="5.2" class="atom-4" style="fill:#E5E533;fill-rule:evenodd;stroke:#E5E533;stroke-width:1.0px;stroke-linecap:butt;stroke-linejoin:miter;stroke-opacity:1"/>
<ellipse cx="95.7" cy="83.5" rx="5.2" ry="5.2" class="atom-6" style="fill:#E5E533;fill-rule:evenodd;stroke:#E5E533;stroke-width:1.0px;stroke-linecap:butt;stroke-linejoin:miter;stroke-opacity:1"/>
<ellipse cx="60.9" cy="54.3" rx="5.2" ry="5.2" class="atom-7" style="fill:#9999E5;fill-rule:evenodd;stroke:#9999E5;stroke-width:1.0px;stroke-linecap:butt;stroke-linejoin:miter;stroke-opacity:1"/>
<ellipse cx="86.7" cy="58.9" rx="5.2" ry="5.2" class="atom-8" style="fill:#E5E533;fill-rule:evenodd;stroke:#E5E533;stroke-width:1.0px;stroke-linecap:butt;stroke-linejoin:miter;stroke-opacity:1"/>
<ellipse cx="44.0" cy="74.3" rx="5.2" ry="5.2" class="atom-9" style="fill:#E5E533;fill-rule:evenodd;stroke:#E5E533;stroke-width:1.0px;stroke-linecap:butt;stroke-linejoin:miter;stroke-opacity:1"/>
<path class="bond-0 atom-0 atom-1" d="M 126.8,42.9 L 103.6,38.8" style="fill:none;fill-rule:evenodd;stroke:#E5E5E5;stroke-width:1.4px;stroke-linecap:butt;stroke-linejoin:miter;stroke-opacity:1"/>
<path class="bond-1 atom-2 atom-1" d="M 94.9,14.6 L 103.6,38.8" style="fill:none;fill-rule:evenodd;stroke:#E5E5E5;stroke-width:1.4px;stroke-linecap:butt;stroke-linejoin:miter;stroke-opacity:1"/>
<path class="bond-2 atom-3 atom-4" d="M 39.8,114.6 L 53.0,99.0" style="fill:none;fill-rule:evenodd;stroke:#E5E5E5;stroke-width:1.4px;stroke-linecap:butt;stroke-linejoin:miter;stroke-opacity:1"/>
<path class="bond-3 atom-5 atom-4" d="M 72.9,102.6 L 53.0,99.0" style="fill:none;fill-rule:evenodd;stroke:#E5E5E5;stroke-width:1.4px;stroke-linecap:butt;stroke-linejoin:miter;stroke-opacity:1"/>
<path class="bond-4 atom-5 atom-6" d="M 82.6,99.1 L 95.7,83.5" style="fill:none;fill-rule:evenodd;stroke:#E5E5E5;stroke-width:1.4px;stroke-linecap:butt;stroke-linejoin:miter;stroke-opacity:1"/>
<path class="bond-4 atom-5 atom-6" d="M 79.6,96.6 L 91.2,82.7" style="fill:none;fill-rule:evenodd;stroke:#E5E5E5;stroke-width:1.4px;stroke-linecap:butt;stroke-linejoin:miter;stroke-opacity:1"/>
<path class="bond-5 atom-7 atom-8" d="M 60.9,54.3 L 86.7,58.9" style="fill:none;fill-rule:evenodd;stroke:#000000;stroke-width:2.0px;stroke-linecap:butt;stroke-linejoin:miter;stroke-opacity:1"/>
<path class="bond-5 atom-7 atom-8" d="M 62.5,58.5 L 83.8,62.3" style="fill:none;fill-rule:evenodd;stroke:#000000;stroke-width:2.0px;stroke-linecap:butt;stroke-linejoin:miter;stroke-opacity:1"/>
<path class="bond-6 atom-7 atom-9" d="M 60.9,54.3 L 44.0,74.3" style="fill:none;fill-rule:evenodd;stroke:#000000;stroke-width:2.0px;stroke-linecap:butt;stroke-linejoin:miter;stroke-opacity:1"/>
<path class="bond-7 atom-10 atom-11" d="M 9.4,45.6 L 16.5,65.2" style="fill:none;fill-rule:evenodd;stroke:#E5E5E5;stroke-width:1.4px;stroke-linecap:butt;stroke-linejoin:miter;stroke-opacity:1"/>
<path class="bond-8 atom-1 atom-8" d="M 103.6,38.8 L 86.7,58.9" style="fill:none;fill-rule:evenodd;stroke:#000000;stroke-width:2.0px;stroke-linecap:butt;stroke-linejoin:miter;stroke-opacity:1"/>
<path class="bond-9 atom-4 atom-9" d="M 53.0,99.0 L 44.0,74.3" style="fill:none;fill-rule:evenodd;stroke:#000000;stroke-width:2.0px;stroke-linecap:butt;stroke-linejoin:miter;stroke-opacity:1"/>
<path class="bond-9 atom-4 atom-9" d="M 55.9,95.5 L 48.5,75.1" style="fill:none;fill-rule:evenodd;stroke:#000000;stroke-width:2.0px;stroke-linecap:butt;stroke-linejoin:miter;stroke-opacity:1"/>
<path class="bond-10 atom-8 atom-6" d="M 86.7,58.9 L 95.7,83.5" style="fill:none;fill-rule:evenodd;stroke:#000000;stroke-width:2.0px;stroke-linecap:butt;stroke-linejoin:miter;stroke-opacity:1"/>
<path class="bond-11 atom-6 atom-12" d="M 95.7,83.5 L 118.9,87.7" style="fill:none;fill-rule:evenodd;stroke:#E5E5E5;stroke-width:1.4px;stroke-linecap:butt;stroke-linejoin:miter;stroke-opacity:1"/>
<path class="bond-12 atom-9 atom-11" d="M 44.0,74.3 L 32.7,72.3" style="fill:none;fill-rule:evenodd;stroke:#000000;stroke-width:2.0px;stroke-linecap:butt;stroke-linejoin:miter;stroke-opacity:1"/>
<path class="bond-12 atom-9 atom-11" d="M 32.7,72.3 L 21.4,70.3" style="fill:none;fill-rule:evenodd;stroke:#CCCC00;stroke-width:2.0px;stroke-linecap:butt;stroke-linejoin:miter;stroke-opacity:1"/>
<path d="M 62.2,54.5 L 60.9,54.3 L 60.1,55.3" style="fill:none;stroke:#000000;stroke-width:2.0px;stroke-linecap:butt;stroke-linejoin:miter;stroke-opacity:1;"/>
<path class="atom-0" d="M 128.1 42.6 L 129.2 41.5 L 127.7 41.2 L 127.9 40.4 L 129.3 41.1 L 129.1 39.6 L 129.9 39.6 L 129.6 41.1 L 131.0 40.5 L 131.2 41.2 L 129.8 41.4 L 130.8 42.6 L 130.2 43.0 L 129.4 41.6 L 128.7 43.0 L 128.1 42.6 " fill="#191919"/>
<path class="atom-0" d="M 132.0 39.7 L 133.0 39.7 L 133.0 42.9 L 136.8 42.9 L 136.8 39.7 L 137.8 39.7 L 137.8 47.2 L 136.8 47.2 L 136.8 43.7 L 133.0 43.7 L 133.0 47.2 L 132.0 47.2 L 132.0 39.7 " fill="#191919"/>
<path class="atom-0" d="M 141.6 48.3 Q 142.0 48.4, 142.3 48.8 Q 142.5 49.1, 142.5 49.6 Q 142.5 50.0, 142.3 50.3 Q 142.1 50.6, 141.7 50.8 Q 141.3 51.0, 140.8 51.0 Q 140.3 51.0, 139.9 50.8 Q 139.5 50.6, 139.2 50.2 L 139.6 49.8 Q 139.9 50.2, 140.2 50.3 Q 140.4 50.4, 140.8 50.4 Q 141.3 50.4, 141.5 50.2 Q 141.8 49.9, 141.8 49.5 Q 141.8 49.0, 141.5 48.8 Q 141.2 48.6, 140.6 48.6 L 140.3 48.6 L 140.3 48.1 L 140.6 48.1 Q 141.1 48.1, 141.4 47.9 Q 141.7 47.6, 141.7 47.2 Q 141.7 46.9, 141.5 46.7 Q 141.2 46.5, 140.8 46.5 Q 140.4 46.5, 140.2 46.6 Q 139.9 46.8, 139.7 47.1 L 139.2 46.9 Q 139.4 46.5, 139.8 46.2 Q 140.2 45.9, 140.8 45.9 Q 141.6 45.9, 142.0 46.3 Q 142.4 46.6, 142.4 47.2 Q 142.4 47.6, 142.2 47.9 Q 142.0 48.2, 141.6 48.3 " fill="#191919"/>
<path class="atom-2" d="M 93.3 13.3 L 94.4 12.2 L 93.0 11.9 L 93.2 11.2 L 94.5 11.8 L 94.3 10.4 L 95.1 10.4 L 94.9 11.8 L 96.2 11.2 L 96.5 11.9 L 95.0 12.2 L 96.0 13.3 L 95.4 13.8 L 94.7 12.4 L 93.9 13.8 L 93.3 13.3 " fill="#191919"/>
<path class="atom-2" d="M 97.3 10.5 L 98.3 10.5 L 98.3 13.6 L 102.1 13.6 L 102.1 10.5 L 103.1 10.5 L 103.1 17.9 L 102.1 17.9 L 102.1 14.5 L 98.3 14.5 L 98.3 17.9 L 97.3 17.9 L 97.3 10.5 " fill="#191919"/>
<path class="atom-2" d="M 106.8 19.0 Q 107.3 19.2, 107.5 19.5 Q 107.7 19.8, 107.7 20.3 Q 107.7 20.7, 107.5 21.0 Q 107.3 21.3, 106.9 21.5 Q 106.6 21.7, 106.1 21.7 Q 105.5 21.7, 105.1 21.5 Q 104.8 21.3, 104.4 21.0 L 104.8 20.6 Q 105.1 20.9, 105.4 21.0 Q 105.7 21.1, 106.1 21.1 Q 106.5 21.1, 106.8 20.9 Q 107.0 20.7, 107.0 20.3 Q 107.0 19.8, 106.8 19.6 Q 106.5 19.3, 105.9 19.3 L 105.5 19.3 L 105.5 18.8 L 105.8 18.8 Q 106.4 18.8, 106.7 18.6 Q 106.9 18.4, 106.9 17.9 Q 106.9 17.6, 106.7 17.4 Q 106.5 17.2, 106.1 17.2 Q 105.7 17.2, 105.4 17.4 Q 105.2 17.5, 105.0 17.9 L 104.5 17.6 Q 104.7 17.2, 105.1 16.9 Q 105.5 16.7, 106.1 16.7 Q 106.8 16.7, 107.2 17.0 Q 107.6 17.3, 107.6 17.9 Q 107.6 18.3, 107.4 18.6 Q 107.2 18.9, 106.8 19.0 " fill="#191919"/>
<path class="atom-3" d="M 29.2 118.3 L 30.3 117.1 L 28.8 116.8 L 29.1 116.1 L 30.4 116.8 L 30.2 115.3 L 31.0 115.3 L 30.8 116.8 L 32.1 116.1 L 32.4 116.8 L 30.9 117.1 L 31.9 118.2 L 31.3 118.7 L 30.6 117.3 L 29.8 118.7 L 29.2 118.3 " fill="#191919"/>
<path class="atom-3" d="M 33.1 115.4 L 34.2 115.4 L 34.2 118.6 L 38.0 118.6 L 38.0 115.4 L 39.0 115.4 L 39.0 122.9 L 38.0 122.9 L 38.0 119.4 L 34.2 119.4 L 34.2 122.9 L 33.1 122.9 L 33.1 115.4 " fill="#191919"/>
<path class="atom-3" d="M 42.7 124.0 Q 43.2 124.1, 43.4 124.4 Q 43.6 124.7, 43.6 125.2 Q 43.6 125.6, 43.4 126.0 Q 43.2 126.3, 42.8 126.5 Q 42.5 126.6, 42.0 126.6 Q 41.4 126.6, 41.0 126.5 Q 40.6 126.3, 40.3 125.9 L 40.7 125.5 Q 41.0 125.8, 41.3 126.0 Q 41.5 126.1, 42.0 126.1 Q 42.4 126.1, 42.7 125.9 Q 42.9 125.6, 42.9 125.2 Q 42.9 124.7, 42.7 124.5 Q 42.4 124.3, 41.8 124.3 L 41.4 124.3 L 41.4 123.8 L 41.7 123.8 Q 42.3 123.8, 42.5 123.5 Q 42.8 123.3, 42.8 122.9 Q 42.8 122.5, 42.6 122.4 Q 42.4 122.2, 42.0 122.2 Q 41.6 122.2, 41.3 122.3 Q 41.0 122.5, 40.9 122.8 L 40.4 122.6 Q 40.5 122.2, 41.0 121.9 Q 41.4 121.6, 42.0 121.6 Q 42.7 121.6, 43.1 122.0 Q 43.5 122.3, 43.5 122.9 Q 43.5 123.3, 43.3 123.5 Q 43.1 123.8, 42.7 124.0 " fill="#191919"/>
<path class="atom-5" d="M 74.1 102.8 L 75.2 101.7 L 73.7 101.4 L 73.9 100.6 L 75.3 101.3 L 75.1 99.8 L 75.9 99.8 L 75.7 101.3 L 77.0 100.7 L 77.2 101.4 L 75.8 101.6 L 76.8 102.8 L 76.2 103.2 L 75.5 101.8 L 74.7 103.2 L 74.1 102.8 " fill="#191919"/>
<path class="atom-5" d="M 78.0 100.0 L 79.0 100.0 L 79.0 103.1 L 82.8 103.1 L 82.8 100.0 L 83.8 100.0 L 83.8 107.4 L 82.8 107.4 L 82.8 104.0 L 79.0 104.0 L 79.0 107.4 L 78.0 107.4 L 78.0 100.0 " fill="#191919"/>
<path class="atom-10" d="M 7.9 44.2 L 8.9 43.1 L 7.5 42.8 L 7.7 42.1 L 9.1 42.8 L 8.9 41.3 L 9.7 41.3 L 9.4 42.8 L 10.8 42.1 L 11.0 42.8 L 9.5 43.1 L 10.6 44.2 L 10.0 44.7 L 9.2 43.3 L 8.5 44.7 L 7.9 44.2 " fill="#191919"/>
<path class="atom-11" d="M 16.1 72.3 Q 16.2 72.3, 16.5 72.5 Q 16.9 72.6, 17.2 72.7 Q 17.6 72.8, 18.0 72.8 Q 18.7 72.8, 19.1 72.5 Q 19.5 72.1, 19.5 71.5 Q 19.5 71.1, 19.3 70.9 Q 19.1 70.6, 18.8 70.5 Q 18.5 70.3, 18.0 70.2 Q 17.3 70.0, 16.9 69.8 Q 16.5 69.6, 16.2 69.2 Q 16.0 68.8, 16.0 68.1 Q 16.0 67.2, 16.6 66.6 Q 17.2 66.0, 18.5 66.0 Q 19.4 66.0, 20.3 66.5 L 20.1 67.3 Q 19.2 66.9, 18.5 66.9 Q 17.8 66.9, 17.4 67.2 Q 17.0 67.5, 17.0 68.0 Q 17.0 68.4, 17.2 68.6 Q 17.4 68.9, 17.7 69.0 Q 18.0 69.2, 18.5 69.3 Q 19.2 69.5, 19.6 69.7 Q 20.0 69.9, 20.3 70.4 Q 20.6 70.8, 20.6 71.5 Q 20.6 72.5, 19.9 73.1 Q 19.2 73.6, 18.1 73.6 Q 17.4 73.6, 16.9 73.5 Q 16.4 73.4, 15.8 73.1 L 16.1 72.3 " fill="#CCCC00"/>
<path class="atom-12" d="M 120.1 87.3 L 121.2 86.2 L 119.7 85.9 L 120.0 85.2 L 121.3 85.8 L 121.1 84.4 L 121.9 84.4 L 121.7 85.8 L 123.0 85.2 L 123.3 85.9 L 121.8 86.2 L 122.8 87.3 L 122.2 87.8 L 121.5 86.4 L 120.7 87.8 L 120.1 87.3 " fill="#191919"/>
<path class="atom-12" d="M 124.0 84.5 L 125.1 84.5 L 125.1 87.6 L 128.9 87.6 L 128.9 84.5 L 129.9 84.5 L 129.9 91.9 L 128.9 91.9 L 128.9 88.5 L 125.1 88.5 L 125.1 91.9 L 124.0 91.9 L 124.0 84.5 " fill="#191919"/>
<path class="legend" d="M 57.4 141.1 L 59.8 141.1 L 59.8 132.6 L 57.1 133.4 L 56.7 132.5 L 60.2 130.9 L 61.3 131.1 L 61.3 141.1 L 63.6 141.1 L 63.6 142.3 L 57.4 142.3 L 57.4 141.1 " fill="#000000"/>
<path class="legend" d="M 70.4 136.4 Q 71.5 136.7, 72.1 137.4 Q 72.6 138.1, 72.6 139.2 Q 72.6 140.2, 72.1 140.9 Q 71.7 141.7, 70.8 142.1 Q 69.9 142.5, 68.7 142.5 Q 67.5 142.5, 66.6 142.1 Q 65.7 141.7, 65.0 140.8 L 65.9 139.9 Q 66.6 140.6, 67.2 140.9 Q 67.8 141.2, 68.7 141.2 Q 69.8 141.2, 70.4 140.7 Q 71.0 140.1, 71.0 139.2 Q 71.0 138.1, 70.4 137.6 Q 69.7 137.0, 68.3 137.0 L 67.5 137.0 L 67.5 135.9 L 68.2 135.9 Q 69.5 135.9, 70.1 135.3 Q 70.8 134.8, 70.8 133.8 Q 70.8 133.0, 70.2 132.6 Q 69.7 132.2, 68.8 132.2 Q 67.8 132.2, 67.2 132.5 Q 66.7 132.8, 66.2 133.7 L 65.1 133.1 Q 65.5 132.1, 66.5 131.5 Q 67.4 130.9, 68.8 130.9 Q 70.4 130.9, 71.4 131.7 Q 72.4 132.5, 72.4 133.8 Q 72.4 134.7, 71.9 135.3 Q 71.4 136.0, 70.4 136.4 " fill="#000000"/>
<path class="legend" d="M 81.7 138.5 L 83.1 138.5 L 83.1 139.7 L 81.7 139.7 L 81.7 142.3 L 80.2 142.3 L 80.2 139.7 L 74.3 139.7 L 74.3 138.7 L 79.3 131.0 L 81.7 131.0 L 81.7 138.5 M 76.2 138.5 L 80.2 138.5 L 80.2 132.0 L 76.2 138.5 " fill="#000000"/>
<path class="legend" d="M 88.7 135.3 Q 89.7 135.3, 90.5 135.7 Q 91.3 136.1, 91.8 136.9 Q 92.3 137.7, 92.3 138.8 Q 92.3 139.9, 91.7 140.8 Q 91.1 141.6, 90.2 142.0 Q 89.3 142.5, 88.2 142.5 Q 87.2 142.5, 86.2 142.1 Q 85.3 141.7, 84.6 141.0 L 85.6 140.0 Q 86.1 140.5, 86.8 140.9 Q 87.5 141.2, 88.3 141.2 Q 89.3 141.2, 90.0 140.5 Q 90.7 139.9, 90.7 138.8 Q 90.7 137.6, 90.0 137.0 Q 89.3 136.5, 88.2 136.5 Q 87.2 136.5, 86.1 136.9 L 85.2 136.5 L 85.7 131.0 L 91.6 131.0 L 91.4 132.3 L 87.1 132.3 L 86.7 135.7 Q 87.7 135.3, 88.7 135.3 " fill="#000000"/>
</svg>