<svg xmlns="http://www.w3.org/2000/svg" xmlns:rdkit="http://www.rdkit.org/xml" xmlns:xlink="http://www.w3.org/1999/xlink" version="1.1" baseProfile="full" xml:space="preserve" width="150px" height="150px" viewBox="0 0 150 150">
<!-- END OF HEADER -->
<rect style="opacity:1.0;fill:#FFFFFF;stroke:none" width="150.0" height="150.0" x="0.0" y="0.0"> </rect>
<ellipse cx="105.6" cy="41.5" rx="7.4" ry="7.4" class="atom-1" style="fill:#E5E533;fill-rule:evenodd;stroke:#E5E533;stroke-width:1.0px;stroke-linecap:butt;stroke-linejoin:miter;stroke-opacity:1"/>
<ellipse cx="73.5" cy="59.4" rx="7.4" ry="7.4" class="atom-2" style="fill:#9999E5;fill-rule:evenodd;stroke:#9999E5;stroke-width:1.0px;stroke-linecap:butt;stroke-linejoin:miter;stroke-opacity:1"/>
<ellipse cx="80.6" cy="95.5" rx="7.4" ry="7.4" class="atom-5" style="fill:#E5E533;fill-rule:evenodd;stroke:#E5E533;stroke-width:1.0px;stroke-linecap:butt;stroke-linejoin:miter;stroke-opacity:1"/>
<path class="bond-0 atom-0 atom-1" d="M 129.0,63.1 L 105.6,41.5" style="fill:none;fill-rule:evenodd;stroke:#E5E5E5;stroke-width:2.0px;stroke-linecap:butt;stroke-linejoin:miter;stroke-opacity:1"/>
<path class="bond-0 atom-0 atom-1" d="M 125.2,67.1 L 104.8,48.2" style="fill:none;fill-rule:evenodd;stroke:#E5E5E5;stroke-width:2.0px;stroke-linecap:butt;stroke-linejoin:miter;stroke-opacity:1;stroke-dasharray:6,4"/>
<path class="bond-1 atom-1 atom-2" d="M 105.6,41.5 L 92.1,49.0" style="fill:none;fill-rule:evenodd;stroke:#000000;stroke-width:2.0px;stroke-linecap:butt;stroke-linejoin:miter;stroke-opacity:1"/>
<path class="bond-1 atom-1 atom-2" d="M 92.1,49.0 L 78.7,56.5" style="fill:none;fill-rule:evenodd;stroke:#0000FF;stroke-width:2.0px;stroke-linecap:butt;stroke-linejoin:miter;stroke-opacity:1"/>
<path class="bond-1 atom-1 atom-2" d="M 104.8,48.2 L 93.1,54.8" style="fill:none;fill-rule:evenodd;stroke:#000000;stroke-width:2.0px;stroke-linecap:butt;stroke-linejoin:miter;stroke-opacity:1;stroke-dasharray:6,4"/>
<path class="bond-1 atom-1 atom-2" d="M 93.1,54.8 L 81.4,61.4" style="fill:none;fill-rule:evenodd;stroke:#0000FF;stroke-width:2.0px;stroke-linecap:butt;stroke-linejoin:miter;stroke-opacity:1;stroke-dasharray:6,4"/>
<path class="bond-2 atom-3 atom-4" d="M 40.1,44.0 L 13.6,62.6" style="fill:none;fill-rule:evenodd;stroke:#E5E5E5;stroke-width:2.0px;stroke-linecap:butt;stroke-linejoin:miter;stroke-opacity:1"/>
<path class="bond-3 atom-3 atom-2" d="M 40.1,44.0 L 54.2,50.5" style="fill:none;fill-rule:evenodd;stroke:#000000;stroke-width:2.0px;stroke-linecap:butt;stroke-linejoin:miter;stroke-opacity:1"/>
<path class="bond-3 atom-3 atom-2" d="M 54.2,50.5 L 68.3,57.0" style="fill:none;fill-rule:evenodd;stroke:#0000FF;stroke-width:2.0px;stroke-linecap:butt;stroke-linejoin:miter;stroke-opacity:1"/>
<path class="bond-4 atom-5 atom-6" d="M 80.6,95.5 L 113.5,99.5" style="fill:none;fill-rule:evenodd;stroke:#E5E5E5;stroke-width:2.0px;stroke-linecap:butt;stroke-linejoin:miter;stroke-opacity:1"/>
<path class="bond-4 atom-5 atom-6" d="M 85.3,90.5 L 114.2,94.0" style="fill:none;fill-rule:evenodd;stroke:#E5E5E5;stroke-width:2.0px;stroke-linecap:butt;stroke-linejoin:miter;stroke-opacity:1;stroke-dasharray:6,4"/>
<path class="bond-5 atom-5 atom-2" d="M 80.6,95.5 L 77.7,80.7" style="fill:none;fill-rule:evenodd;stroke:#000000;stroke-width:2.0px;stroke-linecap:butt;stroke-linejoin:miter;stroke-opacity:1"/>
<path class="bond-5 atom-5 atom-2" d="M 77.7,80.7 L 74.8,65.9" style="fill:none;fill-rule:evenodd;stroke:#0000FF;stroke-width:2.0px;stroke-linecap:butt;stroke-linejoin:miter;stroke-opacity:1"/>
<path class="bond-5 atom-5 atom-2" d="M 85.3,90.5 L 82.7,77.7" style="fill:none;fill-rule:evenodd;stroke:#000000;stroke-width:2.0px;stroke-linecap:butt;stroke-linejoin:miter;stroke-opacity:1;stroke-dasharray:6,4"/>
<path class="bond-5 atom-5 atom-2" d="M 82.7,77.7 L 80.2,64.8" style="fill:none;fill-rule:evenodd;stroke:#0000FF;stroke-width:2.0px;stroke-linecap:butt;stroke-linejoin:miter;stroke-opacity:1;stroke-dasharray:6,4"/>
<path d="M 106.2,42.0 L 105.6,41.5 L 105.3,41.6" style="fill:none;stroke:#E5E5E5;stroke-width:2.0px;stroke-linecap:butt;stroke-linejoin:miter;stroke-opacity:1;"/>
<path d="M 39.4,44.5 L 40.1,44.0 L 40.4,44.2" style="fill:none;stroke:#E5E5E5;stroke-width:2.0px;stroke-linecap:butt;stroke-linejoin:miter;stroke-opacity:1;"/>
<path d="M 81.5,95.6 L 80.6,95.5 L 80.6,95.2" style="fill:none;stroke:#E5E5E5;stroke-width:2.0px;stroke-linecap:butt;stroke-linejoin:miter;stroke-opacity:1;"/>
<path class="atom-0" d="M 128.8 67.3 L 130.3 65.8 L 128.3 65.4 L 128.6 64.3 L 130.5 65.2 L 130.2 63.2 L 131.3 63.2 L 131.0 65.2 L 132.9 64.4 L 133.2 65.4 L 131.2 65.7 L 132.7 67.3 L 131.8 68.0 L 130.7 66.0 L 129.7 68.0 L 128.8 67.3 " fill="#191919"/>
<path class="atom-0" d="M 134.3 63.4 L 135.8 63.4 L 135.8 67.8 L 141.1 67.8 L 141.1 63.4 L 142.5 63.4 L 142.5 73.8 L 141.1 73.8 L 141.1 69.0 L 135.8 69.0 L 135.8 73.8 L 134.3 73.8 L 134.3 63.4 " fill="#191919"/>
<path class="atom-2" d="M 71.2 54.2 L 74.6 59.7 Q 74.9 60.3, 75.5 61.3 Q 76.0 62.3, 76.1 62.3 L 76.1 54.2 L 77.4 54.2 L 77.4 64.6 L 76.0 64.6 L 72.3 58.6 Q 71.9 57.9, 71.5 57.1 Q 71.0 56.3, 70.9 56.0 L 70.9 64.6 L 69.5 64.6 L 69.5 54.2 L 71.2 54.2 " fill="#0000FF"/>
<path class="atom-4" d="M 8.0 64.1 L 9.5 62.5 L 7.5 62.1 L 7.8 61.0 L 9.7 62.0 L 9.4 59.9 L 10.5 59.9 L 10.2 62.0 L 12.1 61.1 L 12.4 62.1 L 10.4 62.5 L 11.8 64.1 L 10.9 64.7 L 9.9 62.8 L 8.9 64.7 L 8.0 64.1 " fill="#191919"/>
<path class="atom-6" d="M 115.6 96.0 L 117.1 94.4 L 115.1 94.0 L 115.4 93.0 L 117.3 93.9 L 117.0 91.9 L 118.1 91.9 L 117.8 93.9 L 119.7 93.0 L 120.0 94.0 L 117.9 94.4 L 119.4 96.0 L 118.5 96.6 L 117.5 94.7 L 116.5 96.6 L 115.6 96.0 " fill="#191919"/>
<path class="legend" d="M 58.2 141.1 L 60.7 141.1 L 60.7 132.6 L 57.9 133.4 L 57.6 132.5 L 61.0 130.9 L 62.2 131.1 L 62.2 141.1 L 64.4 141.1 L 64.4 142.3 L 58.2 142.3 L 58.2 141.1 " fill="#000000"/>
<path class="legend" d="M 71.2 136.4 Q 72.3 136.7, 72.9 137.4 Q 73.4 138.1, 73.4 139.2 Q 73.4 140.2, 72.9 140.9 Q 72.5 141.7, 71.6 142.1 Q 70.7 142.5, 69.5 142.5 Q 68.3 142.5, 67.4 142.1 Q 66.5 141.7, 65.8 140.8 L 66.7 139.9 Q 67.4 140.6, 68.0 140.9 Q 68.6 141.2, 69.5 141.2 Q 70.6 141.2, 71.2 140.7 Q 71.8 140.1, 71.8 139.2 Q 71.8 138.1, 71.2 137.6 Q 70.5 137.0, 69.1 137.0 L 68.3 137.0 L 68.3 135.9 L 69.0 135.9 Q 70.3 135.9, 70.9 135.3 Q 71.6 134.8, 71.6 133.8 Q 71.6 133.0, 71.0 132.6 Q 70.5 132.2, 69.6 132.2 Q 68.6 132.2, 68.0 132.5 Q 67.5 132.8, 67.0 133.7 L 65.9 133.1 Q 66.3 132.1, 67.3 131.5 Q 68.2 130.9, 69.6 130.9 Q 71.2 130.9, 72.2 131.7 Q 73.2 132.5, 73.2 133.8 Q 73.2 134.7, 72.7 135.3 Q 72.2 136.0, 71.2 136.4 " fill="#000000"/>
<path class="legend" d="M 81.0 132.3 L 75.1 132.3 L 75.1 131.0 L 82.6 131.0 L 82.6 132.1 L 78.0 142.3 L 76.5 142.3 L 81.0 132.3 " fill="#000000"/>
<path class="legend" d="M 89.3 136.4 Q 90.4 136.7, 90.9 137.4 Q 91.4 138.1, 91.4 139.2 Q 91.4 140.2, 91.0 140.9 Q 90.5 141.7, 89.6 142.1 Q 88.7 142.5, 87.6 142.5 Q 86.4 142.5, 85.4 142.1 Q 84.5 141.7, 83.8 140.8 L 84.7 139.9 Q 85.4 140.6, 86.0 140.9 Q 86.6 141.2, 87.6 141.2 Q 88.6 141.2, 89.2 140.7 Q 89.8 140.1, 89.8 139.2 Q 89.8 138.1, 89.2 137.6 Q 88.5 137.0, 87.2 137.0 L 86.3 137.0 L 86.3 135.9 L 87.1 135.9 Q 88.3 135.9, 88.9 135.3 Q 89.6 134.8, 89.6 133.8 Q 89.6 133.0, 89.1 132.6 Q 88.5 132.2, 87.6 132.2 Q 86.6 132.2, 86.0 132.5 Q 85.5 132.8, 85.0 133.7 L 83.9 133.1 Q 84.3 132.1, 85.3 131.5 Q 86.2 130.9, 87.6 130.9 Q 89.2 130.9, 90.2 131.7 Q 91.2 132.5, 91.2 133.8 Q 91.2 134.7, 90.7 135.3 Q 90.2 136.0, 89.3 136.4 " fill="#000000"/>
</svg>