<svg xmlns="http://www.w3.org/2000/svg" xmlns:rdkit="http://www.rdkit.org/xml" xmlns:xlink="http://www.w3.org/1999/xlink" version="1.1" baseProfile="full" xml:space="preserve" width="150px" height="150px" viewBox="0 0 150 150">
<!-- END OF HEADER -->
<rect style="opacity:1.0;fill:#FFFFFF;stroke:none" width="150.0" height="150.0" x="0.0" y="0.0"> </rect>
<ellipse cx="72.6" cy="51.7" rx="7.3" ry="7.3" class="atom-2" style="fill:#E5E533;fill-rule:evenodd;stroke:#E5E533;stroke-width:1.0px;stroke-linecap:butt;stroke-linejoin:miter;stroke-opacity:1"/>
<ellipse cx="107.3" cy="40.6" rx="7.3" ry="7.3" class="atom-3" style="fill:#E5E533;fill-rule:evenodd;stroke:#E5E533;stroke-width:1.0px;stroke-linecap:butt;stroke-linejoin:miter;stroke-opacity:1"/>
<ellipse cx="72.4" cy="88.1" rx="7.3" ry="7.3" class="atom-4" style="fill:#9999E5;fill-rule:evenodd;stroke:#9999E5;stroke-width:1.0px;stroke-linecap:butt;stroke-linejoin:miter;stroke-opacity:1"/>
<ellipse cx="128.5" cy="70.2" rx="7.3" ry="7.3" class="atom-5" style="fill:#E5E533;fill-rule:evenodd;stroke:#E5E533;stroke-width:1.0px;stroke-linecap:butt;stroke-linejoin:miter;stroke-opacity:1"/>
<ellipse cx="107.0" cy="99.5" rx="7.3" ry="7.3" class="atom-6" style="fill:#E5E533;fill-rule:evenodd;stroke:#E5E533;stroke-width:1.0px;stroke-linecap:butt;stroke-linejoin:miter;stroke-opacity:1"/>
<path class="bond-0 atom-0 atom-1" d="M 43.2,30.2 L 13.6,43.3" style="fill:none;fill-rule:evenodd;stroke:#E5E5E5;stroke-width:1.9px;stroke-linecap:butt;stroke-linejoin:miter;stroke-opacity:1"/>
<path class="bond-1 atom-0 atom-2" d="M 43.2,30.2 L 72.6,51.7" style="fill:none;fill-rule:evenodd;stroke:#000000;stroke-width:2.0px;stroke-linecap:butt;stroke-linejoin:miter;stroke-opacity:1"/>
<path class="bond-2 atom-2 atom-3" d="M 72.6,51.7 L 87.4,47.0" style="fill:none;fill-rule:evenodd;stroke:#000000;stroke-width:2.0px;stroke-linecap:butt;stroke-linejoin:miter;stroke-opacity:1"/>
<path class="bond-2 atom-2 atom-3" d="M 87.4,47.0 L 102.1,42.3" style="fill:none;fill-rule:evenodd;stroke:#0000FF;stroke-width:2.0px;stroke-linecap:butt;stroke-linejoin:miter;stroke-opacity:1"/>
<path class="bond-2 atom-2 atom-3" d="M 78.0,55.7 L 90.9,51.6" style="fill:none;fill-rule:evenodd;stroke:#000000;stroke-width:2.0px;stroke-linecap:butt;stroke-linejoin:miter;stroke-opacity:1"/>
<path class="bond-2 atom-2 atom-3" d="M 90.9,51.6 L 103.8,47.5" style="fill:none;fill-rule:evenodd;stroke:#0000FF;stroke-width:2.0px;stroke-linecap:butt;stroke-linejoin:miter;stroke-opacity:1"/>
<path class="bond-3 atom-2 atom-4" d="M 72.6,51.7 L 72.5,66.7" style="fill:none;fill-rule:evenodd;stroke:#000000;stroke-width:2.0px;stroke-linecap:butt;stroke-linejoin:miter;stroke-opacity:1"/>
<path class="bond-3 atom-2 atom-4" d="M 72.5,66.7 L 72.5,81.8" style="fill:none;fill-rule:evenodd;stroke:#0000FF;stroke-width:2.0px;stroke-linecap:butt;stroke-linejoin:miter;stroke-opacity:1"/>
<path class="bond-4 atom-3 atom-5" d="M 111.8,47.0 L 123.9,63.8" style="fill:none;fill-rule:evenodd;stroke:#E5E5E5;stroke-width:1.9px;stroke-linecap:butt;stroke-linejoin:miter;stroke-opacity:1"/>
<path class="bond-5 atom-4 atom-6" d="M 77.6,89.8 L 101.9,97.8" style="fill:none;fill-rule:evenodd;stroke:#0000FF;stroke-width:2.0px;stroke-linecap:butt;stroke-linejoin:miter;stroke-opacity:1"/>
<path class="bond-5 atom-4 atom-6" d="M 79.3,84.6 L 103.6,92.6" style="fill:none;fill-rule:evenodd;stroke:#0000FF;stroke-width:2.0px;stroke-linecap:butt;stroke-linejoin:miter;stroke-opacity:1"/>
<path class="bond-6 atom-5 atom-6" d="M 123.9,76.5 L 111.7,93.2" style="fill:none;fill-rule:evenodd;stroke:#0000FF;stroke-width:2.0px;stroke-linecap:butt;stroke-linejoin:miter;stroke-opacity:1"/>
<path d="M 42.5,30.5 L 43.2,30.2 L 44.0,30.7" style="fill:none;stroke:#E5E5E5;stroke-width:1.9px;stroke-linecap:butt;stroke-linejoin:miter;stroke-opacity:1;"/>
<path class="atom-1" d="M 8.0 43.7 L 9.5 42.2 L 7.5 41.8 L 7.8 40.7 L 9.7 41.7 L 9.4 39.6 L 10.5 39.6 L 10.2 41.7 L 12.1 40.8 L 12.4 41.8 L 10.3 42.1 L 11.8 43.7 L 10.9 44.3 L 9.9 42.4 L 8.9 44.3 L 8.0 43.7 " fill="#191919"/>
<path class="atom-3" d="M 105.0 35.5 L 108.4 40.9 Q 108.7 41.5, 109.2 42.4 Q 109.8 43.4, 109.8 43.5 L 109.8 35.5 L 111.2 35.5 L 111.2 45.8 L 109.8 45.8 L 106.1 39.8 Q 105.7 39.1, 105.3 38.3 Q 104.8 37.5, 104.7 37.3 L 104.7 45.8 L 103.4 45.8 L 103.4 35.5 L 105.0 35.5 " fill="#0000FF"/>
<path class="atom-4" d="M 70.2 83.0 L 73.5 88.4 Q 73.9 89.0, 74.4 89.9 Q 75.0 90.9, 75.0 91.0 L 75.0 83.0 L 76.4 83.0 L 76.4 93.3 L 74.9 93.3 L 71.3 87.3 Q 70.9 86.6, 70.4 85.8 Q 70.0 85.0, 69.9 84.8 L 69.9 93.3 L 68.5 93.3 L 68.5 83.0 L 70.2 83.0 " fill="#0000FF"/>
<path class="atom-5" d="M 126.2 65.0 L 129.6 70.5 Q 130.0 71.0, 130.5 72.0 Q 131.0 73.0, 131.1 73.0 L 131.1 65.0 L 132.4 65.0 L 132.4 75.3 L 131.0 75.3 L 127.4 69.3 Q 127.0 68.6, 126.5 67.8 Q 126.1 67.0, 126.0 66.8 L 126.0 75.3 L 124.6 75.3 L 124.6 65.0 L 126.2 65.0 " fill="#0000FF"/>
<path class="atom-5" d="M 134.4 65.0 L 135.8 65.0 L 135.8 69.4 L 141.1 69.4 L 141.1 65.0 L 142.5 65.0 L 142.5 75.3 L 141.1 75.3 L 141.1 70.6 L 135.8 70.6 L 135.8 75.3 L 134.4 75.3 L 134.4 65.0 " fill="#0000FF"/>
<path class="atom-6" d="M 104.7 94.4 L 108.1 99.8 Q 108.4 100.4, 109.0 101.3 Q 109.5 102.3, 109.5 102.4 L 109.5 94.4 L 110.9 94.4 L 110.9 104.7 L 109.5 104.7 L 105.9 98.7 Q 105.5 98.0, 105.0 97.2 Q 104.6 96.4, 104.4 96.1 L 104.4 104.7 L 103.1 104.7 L 103.1 94.4 L 104.7 94.4 " fill="#0000FF"/>
<path class="legend" d="M 57.7 141.1 L 60.1 141.1 L 60.1 132.6 L 57.4 133.4 L 57.0 132.5 L 60.5 130.9 L 61.6 131.1 L 61.6 141.1 L 63.9 141.1 L 63.9 142.3 L 57.7 142.3 L 57.7 141.1 " fill="#000000"/>
<path class="legend" d="M 70.7 136.4 Q 71.8 136.7, 72.4 137.4 Q 72.9 138.1, 72.9 139.2 Q 72.9 140.2, 72.4 140.9 Q 71.9 141.7, 71.1 142.1 Q 70.2 142.5, 69.0 142.5 Q 67.8 142.5, 66.9 142.1 Q 66.0 141.7, 65.3 140.8 L 66.2 139.9 Q 66.9 140.6, 67.5 140.9 Q 68.1 141.2, 69.0 141.2 Q 70.1 141.2, 70.7 140.7 Q 71.3 140.1, 71.3 139.2 Q 71.3 138.1, 70.6 137.6 Q 70.0 137.0, 68.6 137.0 L 67.8 137.0 L 67.8 135.9 L 68.5 135.9 Q 69.7 135.9, 70.4 135.3 Q 71.1 134.8, 71.1 133.8 Q 71.1 133.0, 70.5 132.6 Q 70.0 132.2, 69.0 132.2 Q 68.1 132.2, 67.5 132.5 Q 66.9 132.8, 66.5 133.7 L 65.4 133.1 Q 65.8 132.1, 66.7 131.5 Q 67.7 130.9, 69.0 130.9 Q 70.7 130.9, 71.7 131.7 Q 72.7 132.5, 72.7 133.8 Q 72.7 134.7, 72.2 135.3 Q 71.7 136.0, 70.7 136.4 " fill="#000000"/>
<path class="legend" d="M 80.4 136.3 Q 81.4 136.8, 82.0 137.5 Q 82.6 138.1, 82.6 139.2 Q 82.6 140.2, 82.1 140.9 Q 81.6 141.7, 80.7 142.1 Q 79.8 142.5, 78.7 142.5 Q 76.8 142.5, 75.7 141.6 Q 74.6 140.8, 74.6 139.2 Q 74.6 138.3, 75.1 137.6 Q 75.6 136.9, 76.5 136.4 Q 75.8 136.0, 75.4 135.4 Q 75.0 134.7, 75.0 133.8 Q 75.0 132.5, 76.0 131.7 Q 76.9 130.9, 78.6 130.9 Q 80.2 130.9, 81.2 131.7 Q 82.2 132.5, 82.2 133.8 Q 82.2 134.6, 81.7 135.2 Q 81.3 135.8, 80.4 136.3 M 78.6 132.1 Q 77.7 132.1, 77.1 132.5 Q 76.6 133.0, 76.6 133.8 Q 76.6 134.4, 77.0 134.8 Q 77.3 135.2, 77.8 135.4 Q 78.3 135.6, 79.3 135.9 Q 80.0 135.5, 80.3 134.9 Q 80.6 134.4, 80.6 133.8 Q 80.6 133.0, 80.1 132.5 Q 79.5 132.1, 78.6 132.1 M 78.7 141.3 Q 79.7 141.3, 80.4 140.7 Q 81.0 140.2, 81.0 139.2 Q 81.0 138.6, 80.7 138.2 Q 80.3 137.8, 79.8 137.6 Q 79.3 137.4, 78.4 137.1 L 77.7 136.9 Q 76.9 137.3, 76.5 137.9 Q 76.2 138.5, 76.2 139.2 Q 76.2 140.2, 76.9 140.7 Q 77.5 141.3, 78.7 141.3 " fill="#000000"/>
<path class="legend" d="M 89.8 136.4 Q 90.9 136.7, 91.4 137.4 Q 92.0 138.1, 92.0 139.2 Q 92.0 140.2, 91.5 140.9 Q 91.0 141.7, 90.1 142.1 Q 89.3 142.5, 88.1 142.5 Q 86.9 142.5, 86.0 142.1 Q 85.1 141.7, 84.4 140.8 L 85.3 139.9 Q 86.0 140.6, 86.6 140.9 Q 87.2 141.2, 88.1 141.2 Q 89.1 141.2, 89.7 140.7 Q 90.4 140.1, 90.4 139.2 Q 90.4 138.1, 89.7 137.6 Q 89.1 137.0, 87.7 137.0 L 86.9 137.0 L 86.9 135.9 L 87.6 135.9 Q 88.8 135.9, 89.5 135.3 Q 90.1 134.8, 90.1 133.8 Q 90.1 133.0, 89.6 132.6 Q 89.0 132.2, 88.1 132.2 Q 87.2 132.2, 86.6 132.5 Q 86.0 132.8, 85.6 133.7 L 84.5 133.1 Q 84.9 132.1, 85.8 131.5 Q 86.8 130.9, 88.1 130.9 Q 89.8 130.9, 90.8 131.7 Q 91.7 132.5, 91.7 133.8 Q 91.7 134.7, 91.2 135.3 Q 90.7 136.0, 89.8 136.4 " fill="#000000"/>
</svg>