<svg xmlns="http://www.w3.org/2000/svg" xmlns:rdkit="http://www.rdkit.org/xml" xmlns:xlink="http://www.w3.org/1999/xlink" version="1.1" baseProfile="full" xml:space="preserve" width="150px" height="150px" viewBox="0 0 150 150">
<!-- END OF HEADER -->
<rect style="opacity:1.0;fill:#FFFFFF;stroke:none" width="150.0" height="150.0" x="0.0" y="0.0"> </rect>
<ellipse cx="91.8" cy="48.4" rx="8.2" ry="8.2" class="atom-1" style="fill:#9999E5;fill-rule:evenodd;stroke:#9999E5;stroke-width:1.0px;stroke-linecap:butt;stroke-linejoin:miter;stroke-opacity:1"/>
<path class="bond-0 atom-0 atom-1" d="M 92.2,7.5 L 91.8,48.4" style="fill:none;fill-rule:evenodd;stroke:#000000;stroke-width:2.0px;stroke-linecap:butt;stroke-linejoin:miter;stroke-opacity:1"/>
<path class="bond-1 atom-1 atom-2" d="M 88.7,50.1 L 103.8,59.0" style="fill:none;fill-rule:evenodd;stroke:#000000;stroke-width:2.0px;stroke-linecap:butt;stroke-linejoin:miter;stroke-opacity:1"/>
<path class="bond-1 atom-1 atom-2" d="M 103.8,59.0 L 118.8,67.8" style="fill:none;fill-rule:evenodd;stroke:#FF0000;stroke-width:2.0px;stroke-linecap:butt;stroke-linejoin:miter;stroke-opacity:1"/>
<path class="bond-1 atom-1 atom-2" d="M 91.8,44.8 L 106.9,53.7" style="fill:none;fill-rule:evenodd;stroke:#000000;stroke-width:2.0px;stroke-linecap:butt;stroke-linejoin:miter;stroke-opacity:1"/>
<path class="bond-1 atom-1 atom-2" d="M 106.9,53.7 L 121.9,62.5" style="fill:none;fill-rule:evenodd;stroke:#FF0000;stroke-width:2.0px;stroke-linecap:butt;stroke-linejoin:miter;stroke-opacity:1"/>
<path class="bond-2 atom-1 atom-3" d="M 91.8,48.4 L 77.4,56.5" style="fill:none;fill-rule:evenodd;stroke:#000000;stroke-width:2.0px;stroke-linecap:butt;stroke-linejoin:miter;stroke-opacity:1"/>
<path class="bond-2 atom-1 atom-3" d="M 77.4,56.5 L 62.9,64.7" style="fill:none;fill-rule:evenodd;stroke:#FF0000;stroke-width:2.0px;stroke-linecap:butt;stroke-linejoin:miter;stroke-opacity:1"/>
<path class="bond-3 atom-4 atom-5" d="M 24.5,127.2 L 55.9,109.4" style="fill:none;fill-rule:evenodd;stroke:#E5E5E5;stroke-width:2.2px;stroke-linecap:butt;stroke-linejoin:miter;stroke-opacity:1"/>
<path class="bond-4 atom-5 atom-6" d="M 55.9,109.4 L 87.1,127.7" style="fill:none;fill-rule:evenodd;stroke:#E5E5E5;stroke-width:2.2px;stroke-linecap:butt;stroke-linejoin:miter;stroke-opacity:1"/>
<path class="bond-5 atom-5 atom-3" d="M 55.9,109.4 L 56.1,92.6" style="fill:none;fill-rule:evenodd;stroke:#000000;stroke-width:2.0px;stroke-linecap:butt;stroke-linejoin:miter;stroke-opacity:1"/>
<path class="bond-5 atom-5 atom-3" d="M 56.1,92.6 L 56.2,75.9" style="fill:none;fill-rule:evenodd;stroke:#FF0000;stroke-width:2.0px;stroke-linecap:butt;stroke-linejoin:miter;stroke-opacity:1"/>
<path d="M 91.8,46.3 L 91.8,48.4 L 91.1,48.8" style="fill:none;stroke:#000000;stroke-width:2.0px;stroke-linecap:butt;stroke-linejoin:miter;stroke-opacity:1;"/>
<path class="atom-2" d="M 121.7 69.1 Q 121.7 66.3, 123.1 64.8 Q 124.5 63.2, 127.0 63.2 Q 129.6 63.2, 131.0 64.8 Q 132.4 66.3, 132.4 69.1 Q 132.4 71.9, 131.0 73.5 Q 129.6 75.1, 127.0 75.1 Q 124.5 75.1, 123.1 73.5 Q 121.7 71.9, 121.7 69.1 M 127.0 73.8 Q 128.8 73.8, 129.8 72.6 Q 130.7 71.4, 130.7 69.1 Q 130.7 66.8, 129.8 65.7 Q 128.8 64.5, 127.0 64.5 Q 125.3 64.5, 124.3 65.7 Q 123.4 66.8, 123.4 69.1 Q 123.4 71.5, 124.3 72.6 Q 125.3 73.8, 127.0 73.8 " fill="#FF0000"/>
<path class="atom-3" d="M 51.0 68.5 Q 51.0 65.8, 52.3 64.2 Q 53.7 62.7, 56.3 62.7 Q 58.8 62.7, 60.2 64.2 Q 61.6 65.8, 61.6 68.5 Q 61.6 71.4, 60.2 73.0 Q 58.8 74.5, 56.3 74.5 Q 53.7 74.5, 52.3 73.0 Q 51.0 71.4, 51.0 68.5 M 56.3 73.2 Q 58.0 73.2, 59.0 72.1 Q 59.9 70.9, 59.9 68.5 Q 59.9 66.3, 59.0 65.1 Q 58.0 64.0, 56.3 64.0 Q 54.5 64.0, 53.5 65.1 Q 52.6 66.3, 52.6 68.5 Q 52.6 70.9, 53.5 72.1 Q 54.5 73.2, 56.3 73.2 " fill="#FF0000"/>
<path class="atom-4" d="M 18.2 128.2 L 19.9 126.5 L 17.6 126.0 L 18.0 124.9 L 20.1 125.9 L 19.8 123.6 L 21.0 123.6 L 20.7 125.9 L 22.8 124.9 L 23.1 126.0 L 20.8 126.5 L 22.5 128.2 L 21.5 128.9 L 20.3 126.8 L 19.2 128.9 L 18.2 128.2 " fill="#191919"/>
<path class="atom-6" d="M 89.0 128.8 L 90.7 127.1 L 88.4 126.6 L 88.8 125.4 L 90.8 126.5 L 90.5 124.2 L 91.8 124.2 L 91.4 126.5 L 93.5 125.5 L 93.9 126.6 L 91.6 127.0 L 93.2 128.8 L 92.2 129.5 L 91.1 127.3 L 90.0 129.5 L 89.0 128.8 " fill="#191919"/>
<path class="legend" d="M 57.1 141.1 L 59.6 141.1 L 59.6 132.6 L 56.8 133.4 L 56.5 132.5 L 59.9 130.9 L 61.1 131.1 L 61.1 141.1 L 63.3 141.1 L 63.3 142.3 L 57.1 142.3 L 57.1 141.1 " fill="#000000"/>
<path class="legend" d="M 70.2 136.4 Q 71.3 136.7, 71.8 137.4 Q 72.4 138.1, 72.4 139.2 Q 72.4 140.2, 71.9 140.9 Q 71.4 141.7, 70.5 142.1 Q 69.6 142.5, 68.5 142.5 Q 67.3 142.5, 66.4 142.1 Q 65.5 141.7, 64.8 140.8 L 65.7 139.9 Q 66.4 140.6, 67.0 140.9 Q 67.6 141.2, 68.5 141.2 Q 69.5 141.2, 70.1 140.7 Q 70.8 140.1, 70.8 139.2 Q 70.8 138.1, 70.1 137.6 Q 69.5 137.0, 68.1 137.0 L 67.3 137.0 L 67.3 135.9 L 68.0 135.9 Q 69.2 135.9, 69.9 135.3 Q 70.5 134.8, 70.5 133.8 Q 70.5 133.0, 70.0 132.6 Q 69.4 132.2, 68.5 132.2 Q 67.6 132.2, 67.0 132.5 Q 66.4 132.8, 66.0 133.7 L 64.8 133.1 Q 65.2 132.1, 66.2 131.5 Q 67.2 130.9, 68.5 130.9 Q 70.2 130.9, 71.2 131.7 Q 72.1 132.5, 72.1 133.8 Q 72.1 134.7, 71.6 135.3 Q 71.1 136.0, 70.2 136.4 " fill="#000000"/>
<path class="legend" d="M 77.9 130.9 Q 79.9 130.9, 80.9 132.3 Q 81.9 133.6, 81.9 136.3 Q 81.9 139.3, 80.7 140.9 Q 79.4 142.5, 77.0 142.5 Q 76.3 142.5, 75.7 142.3 Q 75.1 142.1, 74.5 141.8 L 75.2 140.7 Q 76.0 141.2, 77.0 141.2 Q 78.6 141.2, 79.4 140.2 Q 80.2 139.1, 80.3 137.0 Q 79.8 137.5, 79.0 137.8 Q 78.3 138.1, 77.5 138.1 Q 76.5 138.1, 75.7 137.7 Q 75.0 137.2, 74.5 136.4 Q 74.1 135.7, 74.1 134.7 Q 74.1 133.6, 74.6 132.7 Q 75.1 131.8, 75.9 131.4 Q 76.8 130.9, 77.9 130.9 M 75.7 134.6 Q 75.7 135.7, 76.2 136.2 Q 76.8 136.8, 77.8 136.8 Q 78.5 136.8, 79.2 136.5 Q 79.8 136.2, 80.3 135.8 Q 80.3 133.9, 79.7 133.0 Q 79.1 132.2, 77.9 132.2 Q 77.3 132.2, 76.8 132.5 Q 76.3 132.8, 76.0 133.4 Q 75.7 134.0, 75.7 134.6 " fill="#000000"/>
<path class="legend" d="M 91.2 138.5 L 92.5 138.5 L 92.5 139.7 L 91.2 139.7 L 91.2 142.3 L 89.7 142.3 L 89.7 139.7 L 83.8 139.7 L 83.8 138.7 L 88.8 131.0 L 91.2 131.0 L 91.2 138.5 M 85.7 138.5 L 89.7 138.5 L 89.7 132.0 L 85.7 138.5 " fill="#000000"/>
</svg>