<svg xmlns="http://www.w3.org/2000/svg" xmlns:rdkit="http://www.rdkit.org/xml" xmlns:xlink="http://www.w3.org/1999/xlink" version="1.1" baseProfile="full" xml:space="preserve" width="150px" height="150px" viewBox="0 0 150 150">
<!-- END OF HEADER -->
<rect style="opacity:1.0;fill:#FFFFFF;stroke:none" width="150.0" height="150.0" x="0.0" y="0.0"> </rect>
<ellipse cx="63.7" cy="42.0" rx="4.7" ry="4.7" class="atom-1" style="fill:#CCCCCC;fill-rule:evenodd;stroke:#CCCCCC;stroke-width:1.0px;stroke-linecap:butt;stroke-linejoin:miter;stroke-opacity:1"/>
<ellipse cx="75.8" cy="80.7" rx="4.7" ry="4.7" class="atom-4" style="fill:#9999E5;fill-rule:evenodd;stroke:#9999E5;stroke-width:1.0px;stroke-linecap:butt;stroke-linejoin:miter;stroke-opacity:1"/>
<ellipse cx="48.3" cy="110.5" rx="4.7" ry="4.7" class="atom-6" style="fill:#E5E533;fill-rule:evenodd;stroke:#E5E533;stroke-width:1.0px;stroke-linecap:butt;stroke-linejoin:miter;stroke-opacity:1"/>
<ellipse cx="53.5" cy="87.6" rx="4.7" ry="4.7" class="atom-7" style="fill:#E5E533;fill-rule:evenodd;stroke:#E5E533;stroke-width:1.0px;stroke-linecap:butt;stroke-linejoin:miter;stroke-opacity:1"/>
<ellipse cx="36.2" cy="71.8" rx="4.7" ry="4.7" class="atom-9" style="fill:#E5E533;fill-rule:evenodd;stroke:#E5E533;stroke-width:1.0px;stroke-linecap:butt;stroke-linejoin:miter;stroke-opacity:1"/>
<ellipse cx="111.8" cy="62.0" rx="4.7" ry="4.7" class="atom-10" style="fill:#E5E533;fill-rule:evenodd;stroke:#E5E533;stroke-width:1.0px;stroke-linecap:butt;stroke-linejoin:miter;stroke-opacity:1"/>
<ellipse cx="99.1" cy="81.7" rx="4.7" ry="4.7" class="atom-12" style="fill:#E5E533;fill-rule:evenodd;stroke:#E5E533;stroke-width:1.0px;stroke-linecap:butt;stroke-linejoin:miter;stroke-opacity:1"/>
<ellipse cx="109.9" cy="102.5" rx="4.7" ry="4.7" class="atom-13" style="fill:#E5E533;fill-rule:evenodd;stroke:#E5E533;stroke-width:1.0px;stroke-linecap:butt;stroke-linejoin:miter;stroke-opacity:1"/>
<ellipse cx="80.9" cy="57.8" rx="4.7" ry="4.7" class="atom-15" style="fill:#CCCCCC;fill-rule:evenodd;stroke:#CCCCCC;stroke-width:1.0px;stroke-linecap:butt;stroke-linejoin:miter;stroke-opacity:1"/>
<path class="bond-0 atom-0 atom-1" d="M 81.7,28.2 L 63.7,42.0" style="fill:none;fill-rule:evenodd;stroke:#E5E5E5;stroke-width:1.2px;stroke-linecap:butt;stroke-linejoin:miter;stroke-opacity:1"/>
<path class="bond-1 atom-2 atom-1" d="M 56.8,28.7 L 63.7,42.0" style="fill:none;fill-rule:evenodd;stroke:#E5E5E5;stroke-width:1.2px;stroke-linecap:butt;stroke-linejoin:miter;stroke-opacity:1"/>
<path class="bond-2 atom-3 atom-4" d="M 78.8,103.9 L 75.8,80.7" style="fill:none;fill-rule:evenodd;stroke:#000000;stroke-width:2.0px;stroke-linecap:butt;stroke-linejoin:miter;stroke-opacity:1"/>
<path class="bond-3 atom-5 atom-6" d="M 29.4,116.4 L 48.3,110.5" style="fill:none;fill-rule:evenodd;stroke:#E5E5E5;stroke-width:1.2px;stroke-linecap:butt;stroke-linejoin:miter;stroke-opacity:1"/>
<path class="bond-3 atom-5 atom-6" d="M 28.3,113.1 L 45.4,107.7" style="fill:none;fill-rule:evenodd;stroke:#E5E5E5;stroke-width:1.2px;stroke-linecap:butt;stroke-linejoin:miter;stroke-opacity:1;stroke-dasharray:6,4"/>
<path class="bond-4 atom-6 atom-7" d="M 48.3,110.5 L 53.5,87.6" style="fill:none;fill-rule:evenodd;stroke:#000000;stroke-width:2.0px;stroke-linecap:butt;stroke-linejoin:miter;stroke-opacity:1"/>
<path class="bond-5 atom-8 atom-9" d="M 17.3,77.7 L 36.2,71.8" style="fill:none;fill-rule:evenodd;stroke:#E5E5E5;stroke-width:1.2px;stroke-linecap:butt;stroke-linejoin:miter;stroke-opacity:1"/>
<path class="bond-6 atom-10 atom-11" d="M 111.8,62.0 L 132.8,63.0" style="fill:none;fill-rule:evenodd;stroke:#E5E5E5;stroke-width:1.2px;stroke-linecap:butt;stroke-linejoin:miter;stroke-opacity:1"/>
<path class="bond-6 atom-10 atom-11" d="M 113.6,65.6 L 132.6,66.5" style="fill:none;fill-rule:evenodd;stroke:#E5E5E5;stroke-width:1.2px;stroke-linecap:butt;stroke-linejoin:miter;stroke-opacity:1;stroke-dasharray:6,4"/>
<path class="bond-7 atom-10 atom-12" d="M 111.8,62.0 L 99.1,81.7" style="fill:none;fill-rule:evenodd;stroke:#000000;stroke-width:2.0px;stroke-linecap:butt;stroke-linejoin:miter;stroke-opacity:1"/>
<path class="bond-7 atom-10 atom-12" d="M 113.6,65.6 L 103.2,81.9" style="fill:none;fill-rule:evenodd;stroke:#000000;stroke-width:2.0px;stroke-linecap:butt;stroke-linejoin:miter;stroke-opacity:1;stroke-dasharray:6,4"/>
<path class="bond-8 atom-13 atom-14" d="M 109.9,102.5 L 130.9,103.5" style="fill:none;fill-rule:evenodd;stroke:#E5E5E5;stroke-width:1.2px;stroke-linecap:butt;stroke-linejoin:miter;stroke-opacity:1"/>
<path class="bond-8 atom-13 atom-14" d="M 112.1,99.1 L 131.1,100.0" style="fill:none;fill-rule:evenodd;stroke:#E5E5E5;stroke-width:1.2px;stroke-linecap:butt;stroke-linejoin:miter;stroke-opacity:1;stroke-dasharray:6,4"/>
<path class="bond-9 atom-13 atom-12" d="M 109.9,102.5 L 99.1,81.7" style="fill:none;fill-rule:evenodd;stroke:#000000;stroke-width:2.0px;stroke-linecap:butt;stroke-linejoin:miter;stroke-opacity:1"/>
<path class="bond-9 atom-13 atom-12" d="M 112.1,99.1 L 103.2,81.9" style="fill:none;fill-rule:evenodd;stroke:#000000;stroke-width:2.0px;stroke-linecap:butt;stroke-linejoin:miter;stroke-opacity:1;stroke-dasharray:6,4"/>
<path class="bond-10 atom-15 atom-1" d="M 80.9,57.8 L 63.7,42.0" style="fill:none;fill-rule:evenodd;stroke:#000000;stroke-width:2.0px;stroke-linecap:butt;stroke-linejoin:miter;stroke-opacity:1"/>
<path class="bond-11 atom-15 atom-4" d="M 80.9,57.8 L 75.8,80.7" style="fill:none;fill-rule:evenodd;stroke:#000000;stroke-width:2.0px;stroke-linecap:butt;stroke-linejoin:miter;stroke-opacity:1"/>
<path class="bond-12 atom-12 atom-4" d="M 99.1,81.7 L 75.8,80.7" style="fill:none;fill-rule:evenodd;stroke:#000000;stroke-width:2.0px;stroke-linecap:butt;stroke-linejoin:miter;stroke-opacity:1"/>
<path class="bond-13 atom-7 atom-9" d="M 53.5,87.6 L 36.2,71.8" style="fill:none;fill-rule:evenodd;stroke:#000000;stroke-width:2.0px;stroke-linecap:butt;stroke-linejoin:miter;stroke-opacity:1"/>
<path class="bond-13 atom-7 atom-9" d="M 54.3,83.7 L 40.1,70.6" style="fill:none;fill-rule:evenodd;stroke:#000000;stroke-width:2.0px;stroke-linecap:butt;stroke-linejoin:miter;stroke-opacity:1"/>
<path class="bond-14 atom-7 atom-4" d="M 53.5,87.6 L 75.8,80.7" style="fill:none;fill-rule:evenodd;stroke:#000000;stroke-width:2.0px;stroke-linecap:butt;stroke-linejoin:miter;stroke-opacity:1"/>
<path class="bond-15 atom-9 atom-16" d="M 36.2,71.8 L 41.3,49.4" style="fill:none;fill-rule:evenodd;stroke:#E5E5E5;stroke-width:1.2px;stroke-linecap:butt;stroke-linejoin:miter;stroke-opacity:1"/>
<path class="bond-16 atom-1 atom-16" d="M 63.7,42.0 L 43.7,48.2" style="fill:none;fill-rule:evenodd;stroke:#E5E5E5;stroke-width:1.2px;stroke-linecap:butt;stroke-linejoin:miter;stroke-opacity:1"/>
<path d="M 47.9,110.6 L 48.3,110.5 L 48.5,109.9" style="fill:none;stroke:#E5E5E5;stroke-width:1.2px;stroke-linecap:butt;stroke-linejoin:miter;stroke-opacity:1;"/>
<path d="M 112.3,62.1 L 111.8,62.0 L 111.5,62.5" style="fill:none;stroke:#E5E5E5;stroke-width:1.2px;stroke-linecap:butt;stroke-linejoin:miter;stroke-opacity:1;"/>
<path d="M 110.4,102.5 L 109.9,102.5 L 109.6,102.0" style="fill:none;stroke:#E5E5E5;stroke-width:1.2px;stroke-linecap:butt;stroke-linejoin:miter;stroke-opacity:1;"/>
<path d="M 80.0,57.1 L 80.9,57.8 L 80.6,59.0" style="fill:none;stroke:#000000;stroke-width:2.0px;stroke-linecap:butt;stroke-linejoin:miter;stroke-opacity:1;"/>
<path class="atom-0" d="M 81.0 27.1 L 82.0 26.1 L 80.7 25.8 L 80.9 25.1 L 82.1 25.7 L 81.9 24.4 L 82.6 24.4 L 82.4 25.7 L 83.6 25.2 L 83.9 25.8 L 82.5 26.1 L 83.5 27.1 L 82.9 27.5 L 82.3 26.2 L 81.6 27.5 L 81.0 27.1 " fill="#191919"/>
<path class="atom-0" d="M 84.6 24.5 L 85.5 24.5 L 85.5 27.4 L 88.8 27.4 L 88.8 24.5 L 89.7 24.5 L 89.7 31.2 L 88.8 31.2 L 88.8 28.1 L 85.5 28.1 L 85.5 31.2 L 84.6 31.2 L 84.6 24.5 " fill="#191919"/>
<path class="atom-0" d="M 93.1 32.2 Q 93.5 32.3, 93.7 32.6 Q 93.9 32.9, 93.9 33.3 Q 93.9 33.7, 93.7 33.9 Q 93.5 34.2, 93.2 34.4 Q 92.9 34.5, 92.4 34.5 Q 91.9 34.5, 91.6 34.4 Q 91.2 34.2, 91.0 33.9 L 91.3 33.5 Q 91.6 33.8, 91.8 33.9 Q 92.0 34.1, 92.4 34.1 Q 92.8 34.1, 93.0 33.8 Q 93.3 33.6, 93.3 33.3 Q 93.3 32.8, 93.0 32.6 Q 92.8 32.4, 92.2 32.4 L 91.9 32.4 L 91.9 32.0 L 92.2 32.0 Q 92.7 32.0, 92.9 31.8 Q 93.2 31.6, 93.2 31.2 Q 93.2 30.9, 93.0 30.7 Q 92.8 30.6, 92.4 30.6 Q 92.1 30.6, 91.8 30.7 Q 91.6 30.8, 91.4 31.1 L 91.0 30.9 Q 91.2 30.5, 91.5 30.3 Q 91.9 30.1, 92.4 30.1 Q 93.1 30.1, 93.4 30.4 Q 93.8 30.7, 93.8 31.2 Q 93.8 31.5, 93.6 31.8 Q 93.4 32.0, 93.1 32.2 " fill="#191919"/>
<path class="atom-2" d="M 46.8 20.5 L 47.8 19.5 L 46.5 19.2 L 46.7 18.6 L 47.9 19.2 L 47.7 17.9 L 48.4 17.9 L 48.2 19.2 L 49.4 18.6 L 49.6 19.2 L 48.3 19.5 L 49.3 20.5 L 48.7 20.9 L 48.1 19.7 L 47.4 20.9 L 46.8 20.5 " fill="#191919"/>
<path class="atom-2" d="M 50.4 18.0 L 51.2 18.0 L 51.2 20.8 L 54.6 20.8 L 54.6 18.0 L 55.5 18.0 L 55.5 24.6 L 54.6 24.6 L 54.6 21.5 L 51.2 21.5 L 51.2 24.6 L 50.4 24.6 L 50.4 18.0 " fill="#191919"/>
<path class="atom-2" d="M 58.9 25.6 Q 59.3 25.7, 59.5 26.0 Q 59.7 26.3, 59.7 26.7 Q 59.7 27.1, 59.5 27.4 Q 59.3 27.7, 59.0 27.8 Q 58.6 28.0, 58.2 28.0 Q 57.7 28.0, 57.4 27.8 Q 57.0 27.6, 56.8 27.3 L 57.1 26.9 Q 57.4 27.2, 57.6 27.4 Q 57.8 27.5, 58.2 27.5 Q 58.6 27.5, 58.8 27.3 Q 59.1 27.0, 59.1 26.7 Q 59.1 26.3, 58.8 26.1 Q 58.6 25.9, 58.0 25.9 L 57.7 25.9 L 57.7 25.4 L 58.0 25.4 Q 58.5 25.4, 58.7 25.2 Q 59.0 25.0, 59.0 24.6 Q 59.0 24.3, 58.8 24.1 Q 58.6 24.0, 58.2 24.0 Q 57.8 24.0, 57.6 24.1 Q 57.4 24.2, 57.2 24.6 L 56.8 24.3 Q 56.9 24.0, 57.3 23.7 Q 57.7 23.5, 58.2 23.5 Q 58.8 23.5, 59.2 23.8 Q 59.6 24.1, 59.6 24.6 Q 59.6 25.0, 59.4 25.2 Q 59.2 25.5, 58.9 25.6 " fill="#191919"/>
<path class="atom-5" d="M 19.4 115.0 L 20.4 114.0 L 19.1 113.8 L 19.3 113.1 L 20.5 113.7 L 20.3 112.4 L 21.0 112.4 L 20.8 113.7 L 22.0 113.1 L 22.2 113.8 L 20.9 114.0 L 21.8 115.0 L 21.3 115.4 L 20.6 114.2 L 20.0 115.4 L 19.4 115.0 " fill="#191919"/>
<path class="atom-5" d="M 22.9 112.5 L 23.8 112.5 L 23.8 115.3 L 27.2 115.3 L 27.2 112.5 L 28.1 112.5 L 28.1 119.1 L 27.2 119.1 L 27.2 116.1 L 23.8 116.1 L 23.8 119.1 L 22.9 119.1 L 22.9 112.5 " fill="#191919"/>
<path class="atom-8" d="M 7.8 78.0 L 8.8 77.1 L 7.5 76.8 L 7.7 76.1 L 8.9 76.7 L 8.7 75.4 L 9.4 75.4 L 9.2 76.7 L 10.4 76.2 L 10.6 76.8 L 9.3 77.0 L 10.3 78.0 L 9.7 78.4 L 9.0 77.2 L 8.4 78.4 L 7.8 78.0 " fill="#191919"/>
<path class="atom-8" d="M 11.3 75.5 L 12.2 75.5 L 12.2 78.3 L 15.6 78.3 L 15.6 75.5 L 16.5 75.5 L 16.5 82.2 L 15.6 82.2 L 15.6 79.1 L 12.2 79.1 L 12.2 82.2 L 11.3 82.2 L 11.3 75.5 " fill="#191919"/>
<path class="atom-11" d="M 133.8 64.1 L 134.8 63.1 L 133.5 62.9 L 133.7 62.2 L 134.9 62.8 L 134.7 61.5 L 135.4 61.5 L 135.2 62.8 L 136.4 62.2 L 136.6 62.9 L 135.3 63.1 L 136.2 64.1 L 135.7 64.5 L 135.0 63.3 L 134.4 64.5 L 133.8 64.1 " fill="#191919"/>
<path class="atom-11" d="M 137.3 61.6 L 138.2 61.6 L 138.2 64.4 L 141.6 64.4 L 141.6 61.6 L 142.5 61.6 L 142.5 68.2 L 141.6 68.2 L 141.6 65.2 L 138.2 65.2 L 138.2 68.2 L 137.3 68.2 L 137.3 61.6 " fill="#191919"/>
<path class="atom-14" d="M 132.1 101.1 L 133.1 100.1 L 131.8 99.9 L 132.0 99.2 L 133.2 99.8 L 133.0 98.5 L 133.7 98.5 L 133.5 99.8 L 134.7 99.2 L 134.9 99.9 L 133.6 100.1 L 134.5 101.1 L 134.0 101.5 L 133.3 100.3 L 132.7 101.5 L 132.1 101.1 " fill="#191919"/>
<path class="atom-14" d="M 135.6 98.6 L 136.5 98.6 L 136.5 101.4 L 139.9 101.4 L 139.9 98.6 L 140.8 98.6 L 140.8 105.2 L 139.9 105.2 L 139.9 102.2 L 136.5 102.2 L 136.5 105.2 L 135.6 105.2 L 135.6 98.6 " fill="#191919"/>
<path class="atom-16" d="M 40.1 48.2 L 41.1 47.2 L 39.8 47.0 L 40.0 46.3 L 41.2 46.9 L 41.0 45.6 L 41.7 45.6 L 41.5 46.9 L 42.7 46.3 L 42.9 47.0 L 41.6 47.2 L 42.6 48.2 L 42.0 48.6 L 41.3 47.4 L 40.7 48.6 L 40.1 48.2 " fill="#191919"/>
<path class="legend" d="M 56.8 141.2 L 59.2 141.2 L 59.2 132.8 L 56.5 133.6 L 56.1 132.7 L 59.6 131.1 L 60.8 131.3 L 60.8 141.2 L 63.0 141.2 L 63.0 142.5 L 56.8 142.5 L 56.8 141.2 " fill="#000000"/>
<path class="legend" d="M 71.8 138.6 L 73.2 138.6 L 73.2 139.9 L 71.8 139.9 L 71.8 142.5 L 70.3 142.5 L 70.3 139.9 L 64.4 139.9 L 64.4 138.9 L 69.4 131.2 L 71.8 131.2 L 71.8 138.6 M 66.3 138.6 L 70.3 138.6 L 70.3 132.2 L 66.3 138.6 " fill="#000000"/>
<path class="legend" d="M 74.8 133.3 Q 75.2 132.2, 76.2 131.7 Q 77.2 131.0, 78.6 131.0 Q 80.3 131.0, 81.2 132.0 Q 82.2 132.9, 82.2 134.5 Q 82.2 136.2, 80.9 137.8 Q 79.7 139.4, 77.1 141.2 L 82.4 141.2 L 82.4 142.5 L 74.7 142.5 L 74.7 141.4 Q 76.9 139.9, 78.1 138.8 Q 79.4 137.7, 80.0 136.7 Q 80.6 135.7, 80.6 134.6 Q 80.6 133.5, 80.0 132.9 Q 79.5 132.3, 78.6 132.3 Q 77.6 132.3, 77.0 132.7 Q 76.4 133.1, 76.0 133.9 L 74.8 133.3 " fill="#000000"/>
<path class="legend" d="M 91.5 138.6 L 92.9 138.6 L 92.9 139.9 L 91.5 139.9 L 91.5 142.5 L 90.0 142.5 L 90.0 139.9 L 84.1 139.9 L 84.1 138.9 L 89.1 131.2 L 91.5 131.2 L 91.5 138.6 M 86.0 138.6 L 90.0 138.6 L 90.0 132.2 L 86.0 138.6 " fill="#000000"/>
</svg>