<svg xmlns="http://www.w3.org/2000/svg" xmlns:rdkit="http://www.rdkit.org/xml" xmlns:xlink="http://www.w3.org/1999/xlink" version="1.1" baseProfile="full" xml:space="preserve" width="150px" height="150px" viewBox="0 0 150 150">
<!-- END OF HEADER -->
<rect style="opacity:1.0;fill:#FFFFFF;stroke:none" width="150.0" height="150.0" x="0.0" y="0.0"> </rect>
<ellipse cx="114.7" cy="79.9" rx="5.9" ry="5.9" class="atom-1" style="fill:#E5E533;fill-rule:evenodd;stroke:#E5E533;stroke-width:1.0px;stroke-linecap:butt;stroke-linejoin:miter;stroke-opacity:1"/>
<ellipse cx="67.1" cy="61.4" rx="5.9" ry="5.9" class="atom-4" style="fill:#9999E5;fill-rule:evenodd;stroke:#9999E5;stroke-width:1.0px;stroke-linecap:butt;stroke-linejoin:miter;stroke-opacity:1"/>
<path class="bond-0 atom-0 atom-1" d="M 128.5,100.6 L 112.2,80.3" style="fill:none;fill-rule:evenodd;stroke:#E5E5E5;stroke-width:1.6px;stroke-linecap:butt;stroke-linejoin:miter;stroke-opacity:1"/>
<path class="bond-0 atom-0 atom-1" d="M 131.9,97.9 L 115.6,77.6" style="fill:none;fill-rule:evenodd;stroke:#E5E5E5;stroke-width:1.6px;stroke-linecap:butt;stroke-linejoin:miter;stroke-opacity:1;stroke-dasharray:6,4"/>
<path class="bond-1 atom-2 atom-1" d="M 127.2,53.8 L 116.3,81.9" style="fill:none;fill-rule:evenodd;stroke:#E5E5E5;stroke-width:1.6px;stroke-linecap:butt;stroke-linejoin:miter;stroke-opacity:1"/>
<path class="bond-1 atom-2 atom-1" d="M 123.1,52.2 L 112.2,80.3" style="fill:none;fill-rule:evenodd;stroke:#E5E5E5;stroke-width:1.6px;stroke-linecap:butt;stroke-linejoin:miter;stroke-opacity:1;stroke-dasharray:6,4"/>
<path class="bond-2 atom-3 atom-1" d="M 85.6,84.4 L 114.7,79.9" style="fill:none;fill-rule:evenodd;stroke:#000000;stroke-width:2.0px;stroke-linecap:butt;stroke-linejoin:miter;stroke-opacity:1"/>
<path class="bond-3 atom-3 atom-4" d="M 85.6,84.4 L 67.1,61.4" style="fill:none;fill-rule:evenodd;stroke:#000000;stroke-width:2.0px;stroke-linecap:butt;stroke-linejoin:miter;stroke-opacity:1"/>
<path class="bond-4 atom-4 atom-5" d="M 67.1,61.4 L 38.0,65.9" style="fill:none;fill-rule:evenodd;stroke:#000000;stroke-width:2.0px;stroke-linecap:butt;stroke-linejoin:miter;stroke-opacity:1"/>
<path class="bond-5 atom-4 atom-6" d="M 68.7,63.4 L 73.3,51.8" style="fill:none;fill-rule:evenodd;stroke:#000000;stroke-width:2.0px;stroke-linecap:butt;stroke-linejoin:miter;stroke-opacity:1"/>
<path class="bond-5 atom-4 atom-6" d="M 73.3,51.8 L 77.8,40.1" style="fill:none;fill-rule:evenodd;stroke:#CCCC00;stroke-width:2.0px;stroke-linecap:butt;stroke-linejoin:miter;stroke-opacity:1"/>
<path class="bond-5 atom-4 atom-6" d="M 64.6,61.8 L 69.1,50.2" style="fill:none;fill-rule:evenodd;stroke:#000000;stroke-width:2.0px;stroke-linecap:butt;stroke-linejoin:miter;stroke-opacity:1"/>
<path class="bond-5 atom-4 atom-6" d="M 69.1,50.2 L 73.7,38.5" style="fill:none;fill-rule:evenodd;stroke:#CCCC00;stroke-width:2.0px;stroke-linecap:butt;stroke-linejoin:miter;stroke-opacity:1"/>
<path class="bond-6 atom-5 atom-7" d="M 38.0,65.9 L 30.9,57.1" style="fill:none;fill-rule:evenodd;stroke:#000000;stroke-width:2.0px;stroke-linecap:butt;stroke-linejoin:miter;stroke-opacity:1"/>
<path class="bond-6 atom-5 atom-7" d="M 30.9,57.1 L 23.8,48.3" style="fill:none;fill-rule:evenodd;stroke:#FF0000;stroke-width:2.0px;stroke-linecap:butt;stroke-linejoin:miter;stroke-opacity:1"/>
<path class="bond-7 atom-5 atom-8" d="M 36.4,63.9 L 31.8,75.7" style="fill:none;fill-rule:evenodd;stroke:#000000;stroke-width:2.0px;stroke-linecap:butt;stroke-linejoin:miter;stroke-opacity:1"/>
<path class="bond-7 atom-5 atom-8" d="M 31.8,75.7 L 27.3,87.4" style="fill:none;fill-rule:evenodd;stroke:#FF0000;stroke-width:2.0px;stroke-linecap:butt;stroke-linejoin:miter;stroke-opacity:1"/>
<path class="bond-7 atom-5 atom-8" d="M 40.5,65.5 L 36.0,77.3" style="fill:none;fill-rule:evenodd;stroke:#000000;stroke-width:2.0px;stroke-linecap:butt;stroke-linejoin:miter;stroke-opacity:1"/>
<path class="bond-7 atom-5 atom-8" d="M 36.0,77.3 L 31.4,89.0" style="fill:none;fill-rule:evenodd;stroke:#FF0000;stroke-width:2.0px;stroke-linecap:butt;stroke-linejoin:miter;stroke-opacity:1"/>
<path d="M 87.0,84.2 L 85.6,84.4 L 84.6,83.3" style="fill:none;stroke:#000000;stroke-width:2.0px;stroke-linecap:butt;stroke-linejoin:miter;stroke-opacity:1;"/>
<path d="M 68.0,62.6 L 67.1,61.4 L 65.7,61.7" style="fill:none;stroke:#000000;stroke-width:2.0px;stroke-linecap:butt;stroke-linejoin:miter;stroke-opacity:1;"/>
<path d="M 39.5,65.7 L 38.0,65.9 L 37.7,65.5" style="fill:none;stroke:#000000;stroke-width:2.0px;stroke-linecap:butt;stroke-linejoin:miter;stroke-opacity:1;"/>
<path class="atom-0" d="M 131.5 102.0 L 132.8 100.7 L 131.1 100.4 L 131.4 99.6 L 132.9 100.3 L 132.7 98.7 L 133.6 98.7 L 133.3 100.3 L 134.8 99.6 L 135.1 100.4 L 133.4 100.7 L 134.6 102.0 L 133.9 102.5 L 133.1 100.9 L 132.3 102.5 L 131.5 102.0 " fill="#191919"/>
<path class="atom-0" d="M 136.0 98.8 L 137.1 98.8 L 137.1 102.4 L 141.4 102.4 L 141.4 98.8 L 142.5 98.8 L 142.5 107.2 L 141.4 107.2 L 141.4 103.3 L 137.1 103.3 L 137.1 107.2 L 136.0 107.2 L 136.0 98.8 " fill="#191919"/>
<path class="atom-2" d="M 123.8 51.6 L 125.0 50.3 L 123.4 50.0 L 123.6 49.1 L 125.1 49.9 L 124.9 48.3 L 125.8 48.2 L 125.6 49.9 L 127.1 49.2 L 127.3 50.0 L 125.7 50.3 L 126.9 51.5 L 126.1 52.1 L 125.3 50.5 L 124.5 52.1 L 123.8 51.6 " fill="#191919"/>
<path class="atom-2" d="M 128.2 48.4 L 129.3 48.4 L 129.3 51.9 L 133.6 51.9 L 133.6 48.4 L 134.7 48.4 L 134.7 56.7 L 133.6 56.7 L 133.6 52.9 L 129.3 52.9 L 129.3 56.7 L 128.2 56.7 L 128.2 48.4 " fill="#191919"/>
<path class="atom-6" d="M 75.5 36.9 Q 75.5 36.9, 75.9 37.1 Q 76.3 37.2, 76.7 37.3 Q 77.2 37.4, 77.6 37.4 Q 78.4 37.4, 78.9 37.0 Q 79.3 36.7, 79.3 36.0 Q 79.3 35.5, 79.1 35.2 Q 78.9 35.0, 78.5 34.8 Q 78.2 34.6, 77.6 34.5 Q 76.8 34.2, 76.4 34.0 Q 75.9 33.8, 75.6 33.4 Q 75.3 32.9, 75.3 32.2 Q 75.3 31.1, 76.0 30.5 Q 76.7 29.8, 78.2 29.8 Q 79.1 29.8, 80.2 30.3 L 79.9 31.2 Q 78.9 30.8, 78.2 30.8 Q 77.4 30.8, 76.9 31.1 Q 76.5 31.5, 76.5 32.0 Q 76.5 32.5, 76.7 32.8 Q 76.9 33.0, 77.3 33.2 Q 77.6 33.3, 78.2 33.5 Q 78.9 33.7, 79.4 34.0 Q 79.8 34.2, 80.2 34.7 Q 80.5 35.2, 80.5 36.0 Q 80.5 37.1, 79.7 37.8 Q 78.9 38.4, 77.7 38.4 Q 76.9 38.4, 76.3 38.2 Q 75.8 38.1, 75.1 37.8 L 75.5 36.9 " fill="#CCCC00"/>
<path class="atom-7" d="M 7.5 38.8 L 8.6 38.8 L 8.6 42.4 L 12.9 42.4 L 12.9 38.8 L 14.0 38.8 L 14.0 47.2 L 12.9 47.2 L 12.9 43.3 L 8.6 43.3 L 8.6 47.2 L 7.5 47.2 L 7.5 38.8 " fill="#FF0000"/>
<path class="atom-7" d="M 15.7 43.0 Q 15.7 41.0, 16.7 39.8 Q 17.7 38.7, 19.6 38.7 Q 21.4 38.7, 22.4 39.8 Q 23.4 41.0, 23.4 43.0 Q 23.4 45.0, 22.4 46.1 Q 21.4 47.3, 19.6 47.3 Q 17.7 47.3, 16.7 46.1 Q 15.7 45.0, 15.7 43.0 M 19.6 46.3 Q 20.8 46.3, 21.5 45.5 Q 22.2 44.6, 22.2 43.0 Q 22.2 41.3, 21.5 40.5 Q 20.8 39.7, 19.6 39.7 Q 18.3 39.7, 17.6 40.5 Q 16.9 41.3, 16.9 43.0 Q 16.9 44.7, 17.6 45.5 Q 18.3 46.3, 19.6 46.3 " fill="#FF0000"/>
<path class="atom-8" d="M 23.5 93.4 Q 23.5 91.4, 24.5 90.3 Q 25.5 89.2, 27.3 89.2 Q 29.2 89.2, 30.2 90.3 Q 31.2 91.4, 31.2 93.4 Q 31.2 95.4, 30.2 96.6 Q 29.2 97.7, 27.3 97.7 Q 25.5 97.7, 24.5 96.6 Q 23.5 95.4, 23.5 93.4 M 27.3 96.8 Q 28.6 96.8, 29.3 95.9 Q 30.0 95.1, 30.0 93.4 Q 30.0 91.8, 29.3 90.9 Q 28.6 90.1, 27.3 90.1 Q 26.1 90.1, 25.4 90.9 Q 24.7 91.8, 24.7 93.4 Q 24.7 95.1, 25.4 95.9 Q 26.1 96.8, 27.3 96.8 " fill="#FF0000"/>
<path class="legend" d="M 57.2 141.1 L 59.7 141.1 L 59.7 132.6 L 57.0 133.5 L 56.6 132.5 L 60.1 131.0 L 61.2 131.2 L 61.2 141.1 L 63.4 141.1 L 63.4 142.4 L 57.2 142.4 L 57.2 141.1 " fill="#000000"/>
<path class="legend" d="M 72.2 138.5 L 73.6 138.5 L 73.6 139.8 L 72.2 139.8 L 72.2 142.4 L 70.7 142.4 L 70.7 139.8 L 64.9 139.8 L 64.9 138.8 L 69.8 131.0 L 72.2 131.0 L 72.2 138.5 M 66.7 138.5 L 70.7 138.5 L 70.7 132.1 L 66.7 138.5 " fill="#000000"/>
<path class="legend" d="M 75.2 133.2 Q 75.6 132.1, 76.6 131.5 Q 77.6 130.9, 79.0 130.9 Q 80.7 130.9, 81.6 131.8 Q 82.6 132.8, 82.6 134.4 Q 82.6 136.1, 81.4 137.7 Q 80.1 139.2, 77.6 141.1 L 82.8 141.1 L 82.8 142.4 L 75.2 142.4 L 75.2 141.3 Q 77.3 139.8, 78.5 138.7 Q 79.8 137.6, 80.4 136.5 Q 81.0 135.5, 81.0 134.5 Q 81.0 133.4, 80.5 132.8 Q 79.9 132.2, 79.0 132.2 Q 78.1 132.2, 77.5 132.6 Q 76.8 132.9, 76.4 133.7 L 75.2 133.2 " fill="#000000"/>
<path class="legend" d="M 89.0 135.3 Q 90.0 135.3, 90.7 135.7 Q 91.5 136.2, 92.0 136.9 Q 92.4 137.7, 92.4 138.7 Q 92.4 139.8, 91.9 140.7 Q 91.4 141.5, 90.6 142.0 Q 89.7 142.5, 88.6 142.5 Q 86.6 142.5, 85.5 141.1 Q 84.5 139.8, 84.5 137.0 Q 84.5 134.0, 85.8 132.5 Q 87.0 130.9, 89.5 130.9 Q 90.2 130.9, 90.8 131.1 Q 91.4 131.2, 91.9 131.6 L 91.3 132.6 Q 90.5 132.2, 89.5 132.2 Q 87.9 132.2, 87.1 133.2 Q 86.2 134.3, 86.2 136.4 Q 86.7 135.9, 87.4 135.6 Q 88.2 135.3, 89.0 135.3 M 88.6 141.2 Q 89.2 141.2, 89.7 140.9 Q 90.2 140.5, 90.5 140.0 Q 90.8 139.4, 90.8 138.7 Q 90.8 137.7, 90.2 137.2 Q 89.7 136.6, 88.7 136.6 Q 88.0 136.6, 87.3 136.9 Q 86.6 137.1, 86.2 137.6 Q 86.2 139.5, 86.8 140.3 Q 87.4 141.2, 88.6 141.2 " fill="#000000"/>
</svg>