<svg xmlns="http://www.w3.org/2000/svg" xmlns:rdkit="http://www.rdkit.org/xml" xmlns:xlink="http://www.w3.org/1999/xlink" version="1.1" baseProfile="full" xml:space="preserve" width="150px" height="150px" viewBox="0 0 150 150">
<!-- END OF HEADER -->
<rect style="opacity:1.0;fill:#FFFFFF;stroke:none" width="150.0" height="150.0" x="0.0" y="0.0"> </rect>
<ellipse cx="97.2" cy="53.9" rx="6.6" ry="6.6" class="atom-1" style="fill:#9999E5;fill-rule:evenodd;stroke:#9999E5;stroke-width:1.0px;stroke-linecap:butt;stroke-linejoin:miter;stroke-opacity:1"/>
<path class="bond-0 atom-0 atom-1" d="M 66.8,67.0 L 79.7,61.5" style="fill:none;fill-rule:evenodd;stroke:#000000;stroke-width:2.0px;stroke-linecap:butt;stroke-linejoin:miter;stroke-opacity:1"/>
<path class="bond-0 atom-0 atom-1" d="M 79.7,61.5 L 92.6,55.9" style="fill:none;fill-rule:evenodd;stroke:#0000FF;stroke-width:2.0px;stroke-linecap:butt;stroke-linejoin:miter;stroke-opacity:1"/>
<path class="bond-0 atom-0 atom-1" d="M 68.7,71.6 L 81.6,66.0" style="fill:none;fill-rule:evenodd;stroke:#000000;stroke-width:2.0px;stroke-linecap:butt;stroke-linejoin:miter;stroke-opacity:1"/>
<path class="bond-0 atom-0 atom-1" d="M 81.6,66.0 L 94.5,60.5" style="fill:none;fill-rule:evenodd;stroke:#0000FF;stroke-width:2.0px;stroke-linecap:butt;stroke-linejoin:miter;stroke-opacity:1"/>
<path class="bond-1 atom-0 atom-2" d="M 66.8,67.0 L 55.8,58.8" style="fill:none;fill-rule:evenodd;stroke:#000000;stroke-width:2.0px;stroke-linecap:butt;stroke-linejoin:miter;stroke-opacity:1"/>
<path class="bond-1 atom-0 atom-2" d="M 55.8,58.8 L 44.9,50.6" style="fill:none;fill-rule:evenodd;stroke:#0000FF;stroke-width:2.0px;stroke-linecap:butt;stroke-linejoin:miter;stroke-opacity:1"/>
<path class="bond-2 atom-0 atom-3" d="M 66.8,67.0 L 65.1,80.6" style="fill:none;fill-rule:evenodd;stroke:#000000;stroke-width:2.0px;stroke-linecap:butt;stroke-linejoin:miter;stroke-opacity:1"/>
<path class="bond-2 atom-0 atom-3" d="M 65.1,80.6 L 63.5,94.2" style="fill:none;fill-rule:evenodd;stroke:#CCCC00;stroke-width:2.0px;stroke-linecap:butt;stroke-linejoin:miter;stroke-opacity:1"/>
<path class="bond-3 atom-4 atom-1" d="M 119.1,70.3 L 101.9,57.4" style="fill:none;fill-rule:evenodd;stroke:#0000FF;stroke-width:2.0px;stroke-linecap:butt;stroke-linejoin:miter;stroke-opacity:1"/>
<path class="bond-4 atom-5 atom-2" d="M 13.0,58.8 L 35.5,49.1" style="fill:none;fill-rule:evenodd;stroke:#E5E5E5;stroke-width:1.8px;stroke-linecap:butt;stroke-linejoin:miter;stroke-opacity:1"/>
<path class="atom-1" d="M 95.2 49.2 L 98.2 54.2 Q 98.5 54.7, 99.0 55.6 Q 99.5 56.5, 99.5 56.5 L 99.5 49.2 L 100.8 49.2 L 100.8 58.6 L 99.5 58.6 L 96.2 53.2 Q 95.8 52.5, 95.4 51.8 Q 95.0 51.1, 94.9 50.9 L 94.9 58.6 L 93.7 58.6 L 93.7 49.2 L 95.2 49.2 " fill="#0000FF"/>
<path class="atom-2" d="M 38.1 42.5 L 41.2 47.4 Q 41.5 47.9, 42.0 48.8 Q 42.5 49.7, 42.5 49.7 L 42.5 42.5 L 43.8 42.5 L 43.8 51.8 L 42.5 51.8 L 39.2 46.4 Q 38.8 45.8, 38.4 45.0 Q 38.0 44.3, 37.9 44.1 L 37.9 51.8 L 36.6 51.8 L 36.6 42.5 L 38.1 42.5 " fill="#0000FF"/>
<path class="atom-2" d="M 36.5 32.1 L 37.8 32.1 L 37.8 36.1 L 42.6 36.1 L 42.6 32.1 L 43.9 32.1 L 43.9 41.5 L 42.6 41.5 L 42.6 37.2 L 37.8 37.2 L 37.8 41.5 L 36.5 41.5 L 36.5 32.1 " fill="#0000FF"/>
<path class="atom-3" d="M 60.2 103.2 Q 60.3 103.2, 60.7 103.4 Q 61.2 103.6, 61.7 103.7 Q 62.1 103.8, 62.6 103.8 Q 63.5 103.8, 64.0 103.4 Q 64.5 102.9, 64.5 102.2 Q 64.5 101.7, 64.3 101.4 Q 64.0 101.0, 63.6 100.9 Q 63.2 100.7, 62.6 100.5 Q 61.7 100.2, 61.2 100.0 Q 60.7 99.8, 60.4 99.3 Q 60.0 98.8, 60.0 97.9 Q 60.0 96.7, 60.8 96.0 Q 61.6 95.3, 63.2 95.3 Q 64.3 95.3, 65.6 95.8 L 65.2 96.8 Q 64.1 96.3, 63.3 96.3 Q 62.4 96.3, 61.9 96.7 Q 61.4 97.1, 61.4 97.7 Q 61.4 98.2, 61.6 98.6 Q 61.9 98.9, 62.3 99.0 Q 62.6 99.2, 63.3 99.4 Q 64.1 99.7, 64.6 99.9 Q 65.1 100.2, 65.5 100.7 Q 65.9 101.3, 65.9 102.2 Q 65.9 103.5, 65.0 104.2 Q 64.1 104.9, 62.7 104.9 Q 61.8 104.9, 61.2 104.7 Q 60.6 104.5, 59.8 104.2 L 60.2 103.2 " fill="#CCCC00"/>
<path class="atom-3" d="M 67.2 95.2 L 68.4 95.2 L 68.4 99.2 L 73.2 99.2 L 73.2 95.2 L 74.5 95.2 L 74.5 104.6 L 73.2 104.6 L 73.2 100.3 L 68.4 100.3 L 68.4 104.6 L 67.2 104.6 L 67.2 95.2 " fill="#CCCC00"/>
<path class="atom-4" d="M 121.7 69.1 L 124.8 74.1 Q 125.1 74.5, 125.6 75.4 Q 126.1 76.3, 126.1 76.4 L 126.1 69.1 L 127.4 69.1 L 127.4 78.5 L 126.1 78.5 L 122.8 73.0 Q 122.4 72.4, 122.0 71.7 Q 121.6 70.9, 121.5 70.7 L 121.5 78.5 L 120.2 78.5 L 120.2 69.1 L 121.7 69.1 " fill="#0000FF"/>
<path class="atom-4" d="M 129.2 69.1 L 130.4 69.1 L 130.4 73.1 L 135.2 73.1 L 135.2 69.1 L 136.5 69.1 L 136.5 78.5 L 135.2 78.5 L 135.2 74.1 L 130.4 74.1 L 130.4 78.5 L 129.2 78.5 L 129.2 69.1 " fill="#0000FF"/>
<path class="atom-4" d="M 138.3 78.1 Q 138.6 77.6, 139.1 77.2 Q 139.7 76.9, 140.4 76.9 Q 141.3 76.9, 141.9 77.4 Q 142.4 77.9, 142.4 78.8 Q 142.4 79.7, 141.7 80.6 Q 141.0 81.5, 139.6 82.5 L 142.5 82.5 L 142.5 83.2 L 138.3 83.2 L 138.3 82.6 Q 139.5 81.8, 140.2 81.1 Q 140.9 80.5, 141.2 80.0 Q 141.5 79.4, 141.5 78.9 Q 141.5 78.3, 141.2 77.9 Q 140.9 77.6, 140.4 77.6 Q 139.9 77.6, 139.6 77.8 Q 139.2 78.0, 139.0 78.4 L 138.3 78.1 " fill="#0000FF"/>
<path class="atom-5" d="M 8.0 59.2 L 9.3 57.8 L 7.5 57.4 L 7.8 56.5 L 9.5 57.3 L 9.2 55.5 L 10.2 55.5 L 9.9 57.3 L 11.7 56.5 L 11.9 57.4 L 10.1 57.7 L 11.4 59.2 L 10.6 59.7 L 9.7 58.0 L 8.8 59.7 L 8.0 59.2 " fill="#191919"/>
<path class="legend" d="M 61.9 141.1 L 64.4 141.1 L 64.4 132.6 L 61.7 133.5 L 61.3 132.5 L 64.8 131.0 L 65.9 131.2 L 65.9 141.1 L 68.1 141.1 L 68.1 142.4 L 61.9 142.4 L 61.9 141.1 " fill="#000000"/>
<path class="legend" d="M 76.9 138.5 L 78.3 138.5 L 78.3 139.8 L 76.9 139.8 L 76.9 142.4 L 75.4 142.4 L 75.4 139.8 L 69.6 139.8 L 69.6 138.8 L 74.5 131.0 L 76.9 131.0 L 76.9 138.5 M 71.4 138.5 L 75.4 138.5 L 75.4 132.1 L 71.4 138.5 " fill="#000000"/>
<path class="legend" d="M 84.3 135.3 Q 85.3 135.3, 86.1 135.7 Q 86.8 136.2, 87.3 136.9 Q 87.7 137.7, 87.7 138.7 Q 87.7 139.8, 87.2 140.7 Q 86.7 141.5, 85.9 142.0 Q 85.0 142.5, 83.9 142.5 Q 81.9 142.5, 80.9 141.1 Q 79.9 139.8, 79.9 137.0 Q 79.9 134.0, 81.1 132.5 Q 82.4 130.9, 84.8 130.9 Q 85.5 130.9, 86.1 131.1 Q 86.7 131.2, 87.3 131.6 L 86.6 132.6 Q 85.8 132.2, 84.8 132.2 Q 83.2 132.2, 82.4 133.2 Q 81.6 134.3, 81.5 136.4 Q 82.0 135.9, 82.8 135.6 Q 83.5 135.3, 84.3 135.3 M 83.9 141.2 Q 84.5 141.2, 85.0 140.9 Q 85.5 140.5, 85.8 140.0 Q 86.1 139.4, 86.1 138.7 Q 86.1 137.7, 85.6 137.2 Q 85.0 136.6, 84.0 136.6 Q 83.3 136.6, 82.6 136.9 Q 82.0 137.1, 81.5 137.6 Q 81.5 139.5, 82.1 140.3 Q 82.7 141.2, 83.9 141.2 " fill="#000000"/>
</svg>