<svg xmlns="http://www.w3.org/2000/svg" xmlns:rdkit="http://www.rdkit.org/xml" xmlns:xlink="http://www.w3.org/1999/xlink" version="1.1" baseProfile="full" xml:space="preserve" width="150px" height="150px" viewBox="0 0 150 150">
<!-- END OF HEADER -->
<rect style="opacity:1.0;fill:#FFFFFF;stroke:none" width="150.0" height="150.0" x="0.0" y="0.0"> </rect>
<ellipse cx="81.8" cy="73.0" rx="5.1" ry="5.1" class="atom-1" style="fill:#9999E5;fill-rule:evenodd;stroke:#9999E5;stroke-width:1.0px;stroke-linecap:butt;stroke-linejoin:miter;stroke-opacity:1"/>
<path class="bond-0 atom-0 atom-1" d="M 98.7,92.2 L 81.8,73.0" style="fill:none;fill-rule:evenodd;stroke:#000000;stroke-width:2.0px;stroke-linecap:butt;stroke-linejoin:miter;stroke-opacity:1"/>
<path class="bond-0 atom-0 atom-1" d="M 100.1,88.0 L 84.6,70.5" style="fill:none;fill-rule:evenodd;stroke:#000000;stroke-width:2.0px;stroke-linecap:butt;stroke-linejoin:miter;stroke-opacity:1"/>
<path class="bond-1 atom-0 atom-2" d="M 98.7,92.2 L 123.8,87.2" style="fill:none;fill-rule:evenodd;stroke:#000000;stroke-width:2.0px;stroke-linecap:butt;stroke-linejoin:miter;stroke-opacity:1"/>
<path class="bond-2 atom-1 atom-3" d="M 81.8,73.0 L 56.6,78.1" style="fill:none;fill-rule:evenodd;stroke:#000000;stroke-width:2.0px;stroke-linecap:butt;stroke-linejoin:miter;stroke-opacity:1"/>
<path class="bond-3 atom-4 atom-5" d="M 47.7,35.0 L 41.2,54.4" style="fill:none;fill-rule:evenodd;stroke:#E5E5E5;stroke-width:1.4px;stroke-linecap:butt;stroke-linejoin:miter;stroke-opacity:1"/>
<path class="bond-4 atom-6 atom-5" d="M 18.2,63.2 L 36.1,59.6" style="fill:none;fill-rule:evenodd;stroke:#E5E5E5;stroke-width:1.4px;stroke-linecap:butt;stroke-linejoin:miter;stroke-opacity:1"/>
<path class="bond-5 atom-7 atom-2" d="M 138.2,103.5 L 123.8,87.2" style="fill:none;fill-rule:evenodd;stroke:#E5E5E5;stroke-width:1.4px;stroke-linecap:butt;stroke-linejoin:miter;stroke-opacity:1"/>
<path class="bond-6 atom-2 atom-8" d="M 125.3,88.8 L 133.7,64.0" style="fill:none;fill-rule:evenodd;stroke:#E5E5E5;stroke-width:1.4px;stroke-linecap:butt;stroke-linejoin:miter;stroke-opacity:1"/>
<path class="bond-6 atom-2 atom-8" d="M 121.7,87.6 L 130.0,62.7" style="fill:none;fill-rule:evenodd;stroke:#E5E5E5;stroke-width:1.4px;stroke-linecap:butt;stroke-linejoin:miter;stroke-opacity:1"/>
<path class="bond-7 atom-3 atom-5" d="M 56.6,78.1 L 50.0,70.5" style="fill:none;fill-rule:evenodd;stroke:#000000;stroke-width:2.0px;stroke-linecap:butt;stroke-linejoin:miter;stroke-opacity:1"/>
<path class="bond-7 atom-3 atom-5" d="M 50.0,70.5 L 43.3,62.9" style="fill:none;fill-rule:evenodd;stroke:#0000FF;stroke-width:2.0px;stroke-linecap:butt;stroke-linejoin:miter;stroke-opacity:1"/>
<path class="bond-8 atom-3 atom-9" d="M 55.2,76.4 L 51.7,86.8" style="fill:none;fill-rule:evenodd;stroke:#000000;stroke-width:2.0px;stroke-linecap:butt;stroke-linejoin:miter;stroke-opacity:1"/>
<path class="bond-8 atom-3 atom-9" d="M 51.7,86.8 L 48.1,97.2" style="fill:none;fill-rule:evenodd;stroke:#FF0000;stroke-width:2.0px;stroke-linecap:butt;stroke-linejoin:miter;stroke-opacity:1"/>
<path class="bond-8 atom-3 atom-9" d="M 58.8,77.6 L 55.3,88.0" style="fill:none;fill-rule:evenodd;stroke:#000000;stroke-width:2.0px;stroke-linecap:butt;stroke-linejoin:miter;stroke-opacity:1"/>
<path class="bond-8 atom-3 atom-9" d="M 55.3,88.0 L 51.8,98.5" style="fill:none;fill-rule:evenodd;stroke:#FF0000;stroke-width:2.0px;stroke-linecap:butt;stroke-linejoin:miter;stroke-opacity:1"/>
<path d="M 97.9,91.3 L 98.7,92.2 L 100.0,92.0" style="fill:none;stroke:#000000;stroke-width:2.0px;stroke-linecap:butt;stroke-linejoin:miter;stroke-opacity:1;"/>
<path d="M 82.6,74.0 L 81.8,73.0 L 80.5,73.3" style="fill:none;stroke:#000000;stroke-width:2.0px;stroke-linecap:butt;stroke-linejoin:miter;stroke-opacity:1;"/>
<path d="M 123.2,87.3 L 123.8,87.2 L 124.2,87.6" style="fill:none;stroke:#000000;stroke-width:2.0px;stroke-linecap:butt;stroke-linejoin:miter;stroke-opacity:1;"/>
<path d="M 57.9,77.8 L 56.6,78.1 L 56.3,77.7" style="fill:none;stroke:#000000;stroke-width:2.0px;stroke-linecap:butt;stroke-linejoin:miter;stroke-opacity:1;"/>
<path class="atom-4" d="M 46.5 33.7 L 47.5 32.6 L 46.1 32.4 L 46.3 31.6 L 47.7 32.3 L 47.5 30.9 L 48.2 30.9 L 48.0 32.3 L 49.3 31.7 L 49.6 32.4 L 48.1 32.6 L 49.2 33.7 L 48.5 34.2 L 47.8 32.8 L 47.1 34.2 L 46.5 33.7 " fill="#191919"/>
<path class="atom-4" d="M 50.3 31.0 L 51.3 31.0 L 51.3 34.1 L 55.0 34.1 L 55.0 31.0 L 56.0 31.0 L 56.0 38.2 L 55.0 38.2 L 55.0 34.9 L 51.3 34.9 L 51.3 38.2 L 50.3 38.2 L 50.3 31.0 " fill="#191919"/>
<path class="atom-4" d="M 57.4 38.0 Q 57.6 37.5, 58.0 37.3 Q 58.4 37.0, 59.0 37.0 Q 59.7 37.0, 60.1 37.4 Q 60.5 37.8, 60.5 38.5 Q 60.5 39.2, 60.0 39.9 Q 59.5 40.5, 58.4 41.3 L 60.6 41.3 L 60.6 41.9 L 57.4 41.9 L 57.4 41.4 Q 58.3 40.8, 58.8 40.3 Q 59.3 39.8, 59.6 39.4 Q 59.8 39.0, 59.8 38.5 Q 59.8 38.1, 59.6 37.8 Q 59.4 37.6, 59.0 37.6 Q 58.6 37.6, 58.3 37.7 Q 58.1 37.9, 57.9 38.2 L 57.4 38.0 " fill="#191919"/>
<path class="atom-5" d="M 38.1 55.2 L 40.5 59.1 Q 40.7 59.4, 41.1 60.1 Q 41.4 60.8, 41.5 60.8 L 41.5 55.2 L 42.4 55.2 L 42.4 62.5 L 41.4 62.5 L 38.9 58.3 Q 38.6 57.8, 38.3 57.2 Q 38.0 56.6, 37.9 56.5 L 37.9 62.5 L 36.9 62.5 L 36.9 55.2 L 38.1 55.2 " fill="#0000FF"/>
<path class="atom-6" d="M 7.8 63.1 L 8.9 62.0 L 7.5 61.7 L 7.7 61.0 L 9.0 61.7 L 8.8 60.2 L 9.6 60.2 L 9.4 61.6 L 10.7 61.0 L 10.9 61.7 L 9.5 62.0 L 10.5 63.1 L 9.9 63.5 L 9.2 62.2 L 8.5 63.5 L 7.8 63.1 " fill="#191919"/>
<path class="atom-6" d="M 11.7 60.3 L 12.7 60.3 L 12.7 63.4 L 16.4 63.4 L 16.4 60.3 L 17.4 60.3 L 17.4 67.6 L 16.4 67.6 L 16.4 64.2 L 12.7 64.2 L 12.7 67.6 L 11.7 67.6 L 11.7 60.3 " fill="#191919"/>
<path class="atom-6" d="M 18.7 67.3 Q 18.9 66.9, 19.3 66.6 Q 19.8 66.4, 20.3 66.4 Q 21.1 66.4, 21.5 66.8 Q 21.9 67.2, 21.9 67.9 Q 21.9 68.6, 21.3 69.2 Q 20.8 69.9, 19.7 70.7 L 22.0 70.7 L 22.0 71.2 L 18.7 71.2 L 18.7 70.8 Q 19.6 70.1, 20.1 69.7 Q 20.7 69.2, 20.9 68.8 Q 21.2 68.3, 21.2 67.9 Q 21.2 67.4, 21.0 67.2 Q 20.7 66.9, 20.3 66.9 Q 20.0 66.9, 19.7 67.1 Q 19.4 67.2, 19.3 67.6 L 18.7 67.3 " fill="#191919"/>
<path class="atom-7" d="M 139.4 105.6 L 140.5 104.5 L 139.1 104.2 L 139.3 103.5 L 140.6 104.1 L 140.4 102.7 L 141.2 102.7 L 141.0 104.1 L 142.3 103.5 L 142.5 104.2 L 141.1 104.5 L 142.1 105.6 L 141.5 106.0 L 140.8 104.7 L 140.0 106.0 L 139.4 105.6 " fill="#191919"/>
<path class="atom-8" d="M 130.6 62.1 L 131.7 61.0 L 130.3 60.7 L 130.5 60.0 L 131.8 60.6 L 131.6 59.2 L 132.4 59.2 L 132.2 60.6 L 133.5 60.0 L 133.7 60.7 L 132.3 61.0 L 133.3 62.0 L 132.7 62.5 L 132.0 61.1 L 131.3 62.5 L 130.6 62.1 " fill="#191919"/>
<path class="atom-9" d="M 45.1 102.4 Q 45.1 100.6, 46.0 99.7 Q 46.8 98.7, 48.5 98.7 Q 50.1 98.7, 50.9 99.7 Q 51.8 100.6, 51.8 102.4 Q 51.8 104.1, 50.9 105.1 Q 50.0 106.1, 48.5 106.1 Q 46.9 106.1, 46.0 105.1 Q 45.1 104.2, 45.1 102.4 M 48.5 105.3 Q 49.6 105.3, 50.2 104.6 Q 50.8 103.8, 50.8 102.4 Q 50.8 101.0, 50.2 100.2 Q 49.6 99.5, 48.5 99.5 Q 47.3 99.5, 46.7 100.2 Q 46.1 100.9, 46.1 102.4 Q 46.1 103.8, 46.7 104.6 Q 47.3 105.3, 48.5 105.3 " fill="#FF0000"/>
<path class="legend" d="M 57.1 141.2 L 59.6 141.2 L 59.6 132.8 L 56.8 133.6 L 56.5 132.7 L 59.9 131.1 L 61.1 131.3 L 61.1 141.2 L 63.3 141.2 L 63.3 142.5 L 57.1 142.5 L 57.1 141.2 " fill="#000000"/>
<path class="legend" d="M 72.1 138.6 L 73.5 138.6 L 73.5 139.9 L 72.1 139.9 L 72.1 142.5 L 70.6 142.5 L 70.6 139.9 L 64.8 139.9 L 64.8 138.9 L 69.7 131.2 L 72.1 131.2 L 72.1 138.6 M 66.6 138.6 L 70.6 138.6 L 70.6 132.2 L 66.6 138.6 " fill="#000000"/>
<path class="legend" d="M 81.0 132.5 L 75.0 132.5 L 75.0 131.2 L 82.6 131.2 L 82.6 132.3 L 78.0 142.5 L 76.5 142.5 L 81.0 132.5 " fill="#000000"/>
<path class="legend" d="M 91.2 138.6 L 92.5 138.6 L 92.5 139.9 L 91.2 139.9 L 91.2 142.5 L 89.7 142.5 L 89.7 139.9 L 83.8 139.9 L 83.8 138.9 L 88.8 131.2 L 91.2 131.2 L 91.2 138.6 M 85.7 138.6 L 89.7 138.6 L 89.7 132.2 L 85.7 138.6 " fill="#000000"/>
</svg>