<svg xmlns="http://www.w3.org/2000/svg" xmlns:rdkit="http://www.rdkit.org/xml" xmlns:xlink="http://www.w3.org/1999/xlink" version="1.1" baseProfile="full" xml:space="preserve" width="150px" height="150px" viewBox="0 0 150 150">
<!-- END OF HEADER -->
<rect style="opacity:1.0;fill:#FFFFFF;stroke:none" width="150.0" height="150.0" x="0.0" y="0.0"> </rect>
<ellipse cx="28.9" cy="55.6" rx="5.1" ry="5.1" class="atom-7" style="fill:#E5E533;fill-rule:evenodd;stroke:#E5E533;stroke-width:1.0px;stroke-linecap:butt;stroke-linejoin:miter;stroke-opacity:1"/>
<ellipse cx="65.0" cy="80.6" rx="5.1" ry="5.1" class="atom-10" style="fill:#9999E5;fill-rule:evenodd;stroke:#9999E5;stroke-width:1.0px;stroke-linecap:butt;stroke-linejoin:miter;stroke-opacity:1"/>
<path class="bond-0 atom-0 atom-1" d="M 114.2,47.2 L 92.3,57.5" style="fill:none;fill-rule:evenodd;stroke:#E5E5E5;stroke-width:1.4px;stroke-linecap:butt;stroke-linejoin:miter;stroke-opacity:1"/>
<path class="bond-0 atom-0 atom-1" d="M 115.9,50.6 L 95.9,60.0" style="fill:none;fill-rule:evenodd;stroke:#E5E5E5;stroke-width:1.4px;stroke-linecap:butt;stroke-linejoin:miter;stroke-opacity:1"/>
<path class="bond-1 atom-2 atom-3" d="M 88.1,108.0 L 90.2,82.7" style="fill:none;fill-rule:evenodd;stroke:#000000;stroke-width:2.0px;stroke-linecap:butt;stroke-linejoin:miter;stroke-opacity:1"/>
<path class="bond-2 atom-1 atom-3" d="M 92.3,57.5 L 90.2,82.7" style="fill:none;fill-rule:evenodd;stroke:#000000;stroke-width:2.0px;stroke-linecap:butt;stroke-linejoin:miter;stroke-opacity:1"/>
<path class="bond-3 atom-4 atom-5" d="M 129.6,64.5 L 115.5,84.8" style="fill:none;fill-rule:evenodd;stroke:#E5E5E5;stroke-width:1.4px;stroke-linecap:butt;stroke-linejoin:miter;stroke-opacity:1"/>
<path class="bond-4 atom-6 atom-7" d="M 15.9,71.0 L 28.0,53.6" style="fill:none;fill-rule:evenodd;stroke:#E5E5E5;stroke-width:1.4px;stroke-linecap:butt;stroke-linejoin:miter;stroke-opacity:1"/>
<path class="bond-4 atom-6 atom-7" d="M 19.0,73.1 L 31.1,55.8" style="fill:none;fill-rule:evenodd;stroke:#E5E5E5;stroke-width:1.4px;stroke-linecap:butt;stroke-linejoin:miter;stroke-opacity:1;stroke-dasharray:6,4"/>
<path class="bond-5 atom-8 atom-7" d="M 21.9,36.3 L 31.1,55.8" style="fill:none;fill-rule:evenodd;stroke:#E5E5E5;stroke-width:1.4px;stroke-linecap:butt;stroke-linejoin:miter;stroke-opacity:1"/>
<path class="bond-5 atom-8 atom-7" d="M 18.5,38.0 L 27.7,57.4" style="fill:none;fill-rule:evenodd;stroke:#E5E5E5;stroke-width:1.4px;stroke-linecap:butt;stroke-linejoin:miter;stroke-opacity:1;stroke-dasharray:6,4"/>
<path class="bond-6 atom-9 atom-10" d="M 54.2,57.7 L 65.0,80.6" style="fill:none;fill-rule:evenodd;stroke:#000000;stroke-width:2.0px;stroke-linecap:butt;stroke-linejoin:miter;stroke-opacity:1"/>
<path class="bond-6 atom-9 atom-10" d="M 51.7,61.3 L 61.5,82.2" style="fill:none;fill-rule:evenodd;stroke:#000000;stroke-width:2.0px;stroke-linecap:butt;stroke-linejoin:miter;stroke-opacity:1"/>
<path class="bond-7 atom-9 atom-7" d="M 54.2,57.7 L 28.9,55.6" style="fill:none;fill-rule:evenodd;stroke:#000000;stroke-width:2.0px;stroke-linecap:butt;stroke-linejoin:miter;stroke-opacity:1"/>
<path class="bond-8 atom-5 atom-3" d="M 115.5,84.8 L 90.2,82.7" style="fill:none;fill-rule:evenodd;stroke:#000000;stroke-width:2.0px;stroke-linecap:butt;stroke-linejoin:miter;stroke-opacity:1"/>
<path class="bond-9 atom-10 atom-3" d="M 65.0,80.6 L 90.2,82.7" style="fill:none;fill-rule:evenodd;stroke:#000000;stroke-width:2.0px;stroke-linecap:butt;stroke-linejoin:miter;stroke-opacity:1"/>
<path d="M 92.9,57.2 L 92.3,57.5 L 92.3,58.1" style="fill:none;stroke:#E5E5E5;stroke-width:1.4px;stroke-linecap:butt;stroke-linejoin:miter;stroke-opacity:1;"/>
<path d="M 115.8,84.3 L 115.5,84.8 L 114.8,84.8" style="fill:none;stroke:#E5E5E5;stroke-width:1.4px;stroke-linecap:butt;stroke-linejoin:miter;stroke-opacity:1;"/>
<path d="M 54.7,58.8 L 54.2,57.7 L 52.9,57.6" style="fill:none;stroke:#000000;stroke-width:2.0px;stroke-linecap:butt;stroke-linejoin:miter;stroke-opacity:1;"/>
<path d="M 64.4,79.5 L 65.0,80.6 L 66.2,80.7" style="fill:none;stroke:#000000;stroke-width:2.0px;stroke-linecap:butt;stroke-linejoin:miter;stroke-opacity:1;"/>
<path class="atom-0" d="M 114.7 47.6 L 115.7 46.5 L 114.4 46.2 L 114.6 45.5 L 115.9 46.2 L 115.7 44.8 L 116.4 44.8 L 116.2 46.2 L 117.5 45.6 L 117.7 46.2 L 116.3 46.5 L 117.3 47.6 L 116.7 48.0 L 116.0 46.7 L 115.3 48.0 L 114.7 47.6 " fill="#191919"/>
<path class="atom-0" d="M 118.5 44.9 L 119.5 44.9 L 119.5 47.9 L 123.2 47.9 L 123.2 44.9 L 124.1 44.9 L 124.1 52.1 L 123.2 52.1 L 123.2 48.7 L 119.5 48.7 L 119.5 52.1 L 118.5 52.1 L 118.5 44.9 " fill="#191919"/>
<path class="atom-0" d="M 125.5 51.8 Q 125.6 51.4, 126.1 51.1 Q 126.5 50.8, 127.0 50.8 Q 127.8 50.8, 128.2 51.2 Q 128.6 51.6, 128.6 52.3 Q 128.6 53.0, 128.0 53.7 Q 127.5 54.3, 126.5 55.1 L 128.6 55.1 L 128.6 55.6 L 125.4 55.6 L 125.4 55.2 Q 126.3 54.6, 126.9 54.1 Q 127.4 53.6, 127.6 53.2 Q 127.9 52.8, 127.9 52.3 Q 127.9 51.9, 127.7 51.6 Q 127.4 51.4, 127.0 51.4 Q 126.7 51.4, 126.4 51.5 Q 126.2 51.7, 126.0 52.0 L 125.5 51.8 " fill="#191919"/>
<path class="atom-4" d="M 128.6 63.2 L 129.6 62.2 L 128.2 61.9 L 128.4 61.1 L 129.7 61.8 L 129.5 60.4 L 130.3 60.4 L 130.1 61.8 L 131.4 61.2 L 131.6 61.9 L 130.2 62.1 L 131.2 63.2 L 130.6 63.7 L 129.9 62.3 L 129.2 63.7 L 128.6 63.2 " fill="#191919"/>
<path class="atom-4" d="M 132.4 60.5 L 133.3 60.5 L 133.3 63.6 L 137.0 63.6 L 137.0 60.5 L 138.0 60.5 L 138.0 67.7 L 137.0 67.7 L 137.0 64.4 L 133.3 64.4 L 133.3 67.7 L 132.4 67.7 L 132.4 60.5 " fill="#191919"/>
<path class="atom-4" d="M 139.3 67.4 Q 139.5 67.0, 139.9 66.7 Q 140.3 66.5, 140.9 66.5 Q 141.6 66.5, 142.0 66.9 Q 142.4 67.3, 142.4 67.9 Q 142.4 68.6, 141.9 69.3 Q 141.4 70.0, 140.3 70.7 L 142.5 70.7 L 142.5 71.3 L 139.3 71.3 L 139.3 70.8 Q 140.2 70.2, 140.7 69.7 Q 141.2 69.3, 141.5 68.8 Q 141.8 68.4, 141.8 68.0 Q 141.8 67.5, 141.5 67.3 Q 141.3 67.0, 140.9 67.0 Q 140.5 67.0, 140.3 67.2 Q 140.0 67.3, 139.8 67.7 L 139.3 67.4 " fill="#191919"/>
<path class="atom-6" d="M 7.8 75.6 L 8.9 74.5 L 7.5 74.2 L 7.7 73.5 L 9.0 74.2 L 8.8 72.8 L 9.6 72.8 L 9.4 74.2 L 10.7 73.6 L 10.9 74.2 L 9.5 74.5 L 10.5 75.6 L 9.9 76.0 L 9.2 74.7 L 8.5 76.0 L 7.8 75.6 " fill="#191919"/>
<path class="atom-6" d="M 11.6 72.9 L 12.6 72.9 L 12.6 75.9 L 16.3 75.9 L 16.3 72.9 L 17.3 72.9 L 17.3 80.1 L 16.3 80.1 L 16.3 76.7 L 12.6 76.7 L 12.6 80.1 L 11.6 80.1 L 11.6 72.9 " fill="#191919"/>
<path class="atom-8" d="M 11.5 31.9 L 12.6 30.8 L 11.2 30.5 L 11.4 29.8 L 12.7 30.4 L 12.5 29.0 L 13.2 29.0 L 13.0 30.4 L 14.3 29.8 L 14.5 30.5 L 13.1 30.8 L 14.1 31.9 L 13.5 32.3 L 12.8 31.0 L 12.1 32.3 L 11.5 31.9 " fill="#191919"/>
<path class="atom-8" d="M 15.3 29.1 L 16.3 29.1 L 16.3 32.2 L 19.9 32.2 L 19.9 29.1 L 20.9 29.1 L 20.9 36.3 L 19.9 36.3 L 19.9 33.0 L 16.3 33.0 L 16.3 36.3 L 15.3 36.3 L 15.3 29.1 " fill="#191919"/>
<path class="legend" d="M 57.5 141.1 L 59.9 141.1 L 59.9 132.6 L 57.2 133.4 L 56.8 132.5 L 60.3 130.9 L 61.4 131.1 L 61.4 141.1 L 63.7 141.1 L 63.7 142.3 L 57.5 142.3 L 57.5 141.1 " fill="#000000"/>
<path class="legend" d="M 72.5 138.5 L 73.8 138.5 L 73.8 139.7 L 72.5 139.7 L 72.5 142.3 L 71.0 142.3 L 71.0 139.7 L 65.1 139.7 L 65.1 138.7 L 70.1 131.0 L 72.5 131.0 L 72.5 138.5 M 67.0 138.5 L 71.0 138.5 L 71.0 132.0 L 67.0 138.5 " fill="#000000"/>
<path class="legend" d="M 81.3 132.3 L 75.4 132.3 L 75.4 131.0 L 82.9 131.0 L 82.9 132.1 L 78.3 142.3 L 76.8 142.3 L 81.3 132.3 " fill="#000000"/>
<path class="legend" d="M 89.9 136.3 Q 91.0 136.8, 91.6 137.5 Q 92.2 138.1, 92.2 139.2 Q 92.2 140.2, 91.7 140.9 Q 91.2 141.7, 90.3 142.1 Q 89.4 142.5, 88.2 142.5 Q 86.3 142.5, 85.2 141.6 Q 84.2 140.8, 84.2 139.2 Q 84.2 138.3, 84.6 137.6 Q 85.1 136.9, 86.1 136.4 Q 85.4 136.0, 85.0 135.4 Q 84.6 134.7, 84.6 133.8 Q 84.6 132.5, 85.5 131.7 Q 86.5 130.9, 88.2 130.9 Q 89.8 130.9, 90.8 131.7 Q 91.7 132.5, 91.7 133.8 Q 91.7 134.6, 91.3 135.2 Q 90.8 135.8, 89.9 136.3 M 88.2 132.1 Q 87.2 132.1, 86.7 132.5 Q 86.2 133.0, 86.2 133.8 Q 86.2 134.4, 86.5 134.8 Q 86.9 135.2, 87.4 135.4 Q 87.9 135.6, 88.9 135.9 Q 89.6 135.5, 89.8 134.9 Q 90.1 134.4, 90.1 133.8 Q 90.1 133.0, 89.6 132.5 Q 89.1 132.1, 88.2 132.1 M 88.2 141.3 Q 89.3 141.3, 89.9 140.7 Q 90.6 140.2, 90.6 139.2 Q 90.6 138.6, 90.2 138.2 Q 89.9 137.8, 89.4 137.6 Q 88.9 137.4, 88.0 137.1 L 87.3 136.9 Q 86.5 137.3, 86.1 137.9 Q 85.8 138.5, 85.8 139.2 Q 85.8 140.2, 86.4 140.7 Q 87.1 141.3, 88.2 141.3 " fill="#000000"/>
</svg>