<svg xmlns="http://www.w3.org/2000/svg" xmlns:rdkit="http://www.rdkit.org/xml" xmlns:xlink="http://www.w3.org/1999/xlink" version="1.1" baseProfile="full" xml:space="preserve" width="150px" height="150px" viewBox="0 0 150 150">
<!-- END OF HEADER -->
<rect style="opacity:1.0;fill:#FFFFFF;stroke:none" width="150.0" height="150.0" x="0.0" y="0.0"> </rect>
<ellipse cx="75.0" cy="48.7" rx="7.9" ry="7.9" class="atom-3" style="fill:#9999E5;fill-rule:evenodd;stroke:#9999E5;stroke-width:1.0px;stroke-linecap:butt;stroke-linejoin:miter;stroke-opacity:1"/>
<ellipse cx="113.4" cy="57.1" rx="7.9" ry="7.9" class="atom-5" style="fill:#CCCCCC;fill-rule:evenodd;stroke:#CCCCCC;stroke-width:1.0px;stroke-linecap:butt;stroke-linejoin:miter;stroke-opacity:1"/>
<path class="bond-0 atom-0 atom-1" d="M 58.2,108.2 L 48.5,77.7" style="fill:none;fill-rule:evenodd;stroke:#E5E5E5;stroke-width:2.1px;stroke-linecap:butt;stroke-linejoin:miter;stroke-opacity:1"/>
<path class="bond-1 atom-2 atom-1" d="M 13.5,70.0 L 48.5,77.7" style="fill:none;fill-rule:evenodd;stroke:#E5E5E5;stroke-width:2.1px;stroke-linecap:butt;stroke-linejoin:miter;stroke-opacity:1"/>
<path class="bond-2 atom-1 atom-3" d="M 48.5,77.7 L 58.6,66.7" style="fill:none;fill-rule:evenodd;stroke:#000000;stroke-width:2.0px;stroke-linecap:butt;stroke-linejoin:miter;stroke-opacity:1"/>
<path class="bond-2 atom-1 atom-3" d="M 58.6,66.7 L 68.6,55.7" style="fill:none;fill-rule:evenodd;stroke:#FF0000;stroke-width:2.0px;stroke-linecap:butt;stroke-linejoin:miter;stroke-opacity:1"/>
<path class="bond-3 atom-4 atom-5" d="M 123.1,87.6 L 113.4,57.1" style="fill:none;fill-rule:evenodd;stroke:#E5E5E5;stroke-width:2.1px;stroke-linecap:butt;stroke-linejoin:miter;stroke-opacity:1"/>
<path class="bond-4 atom-5 atom-3" d="M 113.4,57.1 L 97.4,53.6" style="fill:none;fill-rule:evenodd;stroke:#000000;stroke-width:2.0px;stroke-linecap:butt;stroke-linejoin:miter;stroke-opacity:1"/>
<path class="bond-4 atom-5 atom-3" d="M 97.4,53.6 L 81.4,50.1" style="fill:none;fill-rule:evenodd;stroke:#FF0000;stroke-width:2.0px;stroke-linecap:butt;stroke-linejoin:miter;stroke-opacity:1"/>
<path class="bond-5 atom-5 atom-6" d="M 113.4,57.1 L 139.2,28.8" style="fill:none;fill-rule:evenodd;stroke:#E5E5E5;stroke-width:2.1px;stroke-linecap:butt;stroke-linejoin:miter;stroke-opacity:1"/>
<path class="atom-0" d="M 58.3 113.9 L 60.0 112.2 L 57.8 111.8 L 58.1 110.7 L 60.1 111.7 L 59.8 109.5 L 61.0 109.5 L 60.7 111.7 L 62.7 110.7 L 63.0 111.8 L 60.8 112.2 L 62.4 113.9 L 61.5 114.6 L 60.4 112.5 L 59.3 114.6 L 58.3 113.9 " fill="#191919"/>
<path class="atom-2" d="M 8.0 68.0 L 9.7 66.4 L 7.5 65.9 L 7.8 64.8 L 9.8 65.8 L 9.5 63.6 L 10.7 63.6 L 10.4 65.8 L 12.4 64.9 L 12.8 65.9 L 10.6 66.3 L 12.1 68.0 L 11.2 68.7 L 10.1 66.6 L 9.0 68.7 L 8.0 68.0 " fill="#191919"/>
<path class="atom-3" d="M 69.9 48.7 Q 69.9 46.0, 71.2 44.5 Q 72.5 43.0, 75.0 43.0 Q 77.5 43.0, 78.8 44.5 Q 80.1 46.0, 80.1 48.7 Q 80.1 51.4, 78.8 53.0 Q 77.4 54.5, 75.0 54.5 Q 72.5 54.5, 71.2 53.0 Q 69.9 51.4, 69.9 48.7 M 75.0 53.2 Q 76.7 53.2, 77.6 52.1 Q 78.5 50.9, 78.5 48.7 Q 78.5 46.5, 77.6 45.4 Q 76.7 44.3, 75.0 44.3 Q 73.3 44.3, 72.4 45.4 Q 71.5 46.5, 71.5 48.7 Q 71.5 51.0, 72.4 52.1 Q 73.3 53.2, 75.0 53.2 " fill="#FF0000"/>
<path class="atom-4" d="M 123.2 93.3 L 124.8 91.6 L 122.6 91.2 L 123.0 90.1 L 125.0 91.1 L 124.7 88.9 L 125.9 88.9 L 125.5 91.1 L 127.6 90.1 L 127.9 91.2 L 125.7 91.6 L 127.3 93.3 L 126.3 94.0 L 125.2 91.9 L 124.1 94.0 L 123.2 93.3 " fill="#191919"/>
<path class="atom-4" d="M 129.1 89.1 L 130.6 89.1 L 130.6 93.8 L 136.3 93.8 L 136.3 89.1 L 137.8 89.1 L 137.8 100.2 L 136.3 100.2 L 136.3 95.1 L 130.6 95.1 L 130.6 100.2 L 129.1 100.2 L 129.1 89.1 " fill="#191919"/>
<path class="atom-6" d="M 137.8 26.8 L 139.4 25.2 L 137.2 24.7 L 137.6 23.6 L 139.6 24.6 L 139.3 22.4 L 140.5 22.4 L 140.1 24.6 L 142.2 23.7 L 142.5 24.7 L 140.3 25.1 L 141.9 26.8 L 140.9 27.5 L 139.8 25.4 L 138.7 27.5 L 137.8 26.8 " fill="#191919"/>
<path class="legend" d="M 57.5 141.1 L 60.0 141.1 L 60.0 132.6 L 57.3 133.5 L 56.9 132.5 L 60.4 131.0 L 61.5 131.2 L 61.5 141.1 L 63.7 141.1 L 63.7 142.4 L 57.5 142.4 L 57.5 141.1 " fill="#000000"/>
<path class="legend" d="M 69.3 135.3 Q 70.3 135.3, 71.1 135.7 Q 71.9 136.1, 72.4 136.9 Q 72.8 137.7, 72.8 138.8 Q 72.8 140.0, 72.2 140.8 Q 71.7 141.6, 70.8 142.1 Q 69.8 142.5, 68.8 142.5 Q 67.7 142.5, 66.8 142.1 Q 65.8 141.7, 65.2 141.0 L 66.1 140.0 Q 66.6 140.6, 67.4 140.9 Q 68.1 141.2, 68.8 141.2 Q 69.8 141.2, 70.5 140.6 Q 71.2 140.0, 71.2 138.8 Q 71.2 137.6, 70.5 137.1 Q 69.8 136.5, 68.7 136.5 Q 67.7 136.5, 66.6 136.9 L 65.8 136.5 L 66.3 131.0 L 72.1 131.0 L 72.0 132.3 L 67.6 132.3 L 67.3 135.7 Q 68.3 135.3, 69.3 135.3 " fill="#000000"/>
<path class="legend" d="M 78.5 142.5 Q 76.4 142.5, 75.4 141.0 Q 74.4 139.4, 74.4 136.7 Q 74.4 134.0, 75.4 132.4 Q 76.4 130.9, 78.5 130.9 Q 80.6 130.9, 81.6 132.4 Q 82.6 134.0, 82.6 136.7 Q 82.6 139.4, 81.6 141.0 Q 80.6 142.5, 78.5 142.5 M 78.5 141.2 Q 79.7 141.2, 80.4 140.1 Q 81.0 138.9, 81.0 136.7 Q 81.0 134.5, 80.4 133.3 Q 79.7 132.2, 78.5 132.2 Q 77.3 132.2, 76.6 133.3 Q 76.0 134.5, 76.0 136.7 Q 76.0 138.9, 76.6 140.1 Q 77.3 141.2, 78.5 141.2 " fill="#000000"/>
<path class="legend" d="M 88.6 135.3 Q 89.5 135.3, 90.4 135.7 Q 91.2 136.1, 91.6 136.9 Q 92.1 137.7, 92.1 138.8 Q 92.1 140.0, 91.5 140.8 Q 91.0 141.6, 90.0 142.1 Q 89.1 142.5, 88.1 142.5 Q 87.0 142.5, 86.1 142.1 Q 85.1 141.7, 84.4 141.0 L 85.4 140.0 Q 85.9 140.6, 86.6 140.9 Q 87.4 141.2, 88.1 141.2 Q 89.1 141.2, 89.8 140.6 Q 90.5 140.0, 90.5 138.8 Q 90.5 137.6, 89.8 137.1 Q 89.1 136.5, 88.0 136.5 Q 87.0 136.5, 85.9 136.9 L 85.0 136.5 L 85.6 131.0 L 91.4 131.0 L 91.2 132.3 L 86.9 132.3 L 86.6 135.7 Q 87.6 135.3, 88.6 135.3 " fill="#000000"/>
</svg>