<svg xmlns="http://www.w3.org/2000/svg" xmlns:rdkit="http://www.rdkit.org/xml" xmlns:xlink="http://www.w3.org/1999/xlink" version="1.1" baseProfile="full" xml:space="preserve" width="150px" height="150px" viewBox="0 0 150 150">
<!-- END OF HEADER -->
<rect style="opacity:1.0;fill:#FFFFFF;stroke:none" width="150.0" height="150.0" x="0.0" y="0.0"> </rect>
<ellipse cx="39.7" cy="99.0" rx="5.1" ry="5.1" class="atom-1" style="fill:#E5E533;fill-rule:evenodd;stroke:#E5E533;stroke-width:1.0px;stroke-linecap:butt;stroke-linejoin:miter;stroke-opacity:1"/>
<ellipse cx="54.9" cy="78.4" rx="5.1" ry="5.1" class="atom-2" style="fill:#E5E533;fill-rule:evenodd;stroke:#E5E533;stroke-width:1.0px;stroke-linecap:butt;stroke-linejoin:miter;stroke-opacity:1"/>
<ellipse cx="44.6" cy="55.0" rx="5.1" ry="5.1" class="atom-4" style="fill:#E5E533;fill-rule:evenodd;stroke:#E5E533;stroke-width:1.0px;stroke-linecap:butt;stroke-linejoin:miter;stroke-opacity:1"/>
<ellipse cx="80.3" cy="75.9" rx="5.1" ry="5.1" class="atom-7" style="fill:#9999E5;fill-rule:evenodd;stroke:#9999E5;stroke-width:1.0px;stroke-linecap:butt;stroke-linejoin:miter;stroke-opacity:1"/>
<ellipse cx="63.7" cy="38.0" rx="5.1" ry="5.1" class="atom-8" style="fill:#E5E533;fill-rule:evenodd;stroke:#E5E533;stroke-width:1.0px;stroke-linecap:butt;stroke-linejoin:miter;stroke-opacity:1"/>
<ellipse cx="85.8" cy="50.9" rx="5.1" ry="5.1" class="atom-9" style="fill:#E5E533;fill-rule:evenodd;stroke:#E5E533;stroke-width:1.0px;stroke-linecap:butt;stroke-linejoin:miter;stroke-opacity:1"/>
<path class="bond-0 atom-0 atom-1" d="M 18.0,96.6 L 39.7,99.0" style="fill:none;fill-rule:evenodd;stroke:#E5E5E5;stroke-width:1.4px;stroke-linecap:butt;stroke-linejoin:miter;stroke-opacity:1"/>
<path class="bond-0 atom-0 atom-1" d="M 18.4,92.8 L 38.0,95.0" style="fill:none;fill-rule:evenodd;stroke:#E5E5E5;stroke-width:1.4px;stroke-linecap:butt;stroke-linejoin:miter;stroke-opacity:1;stroke-dasharray:6,4"/>
<path class="bond-1 atom-1 atom-2" d="M 39.7,99.0 L 54.9,78.4" style="fill:none;fill-rule:evenodd;stroke:#000000;stroke-width:2.0px;stroke-linecap:butt;stroke-linejoin:miter;stroke-opacity:1"/>
<path class="bond-2 atom-3 atom-4" d="M 22.8,52.6 L 44.6,55.0" style="fill:none;fill-rule:evenodd;stroke:#E5E5E5;stroke-width:1.4px;stroke-linecap:butt;stroke-linejoin:miter;stroke-opacity:1"/>
<path class="bond-3 atom-5 atom-6" d="M 127.2,53.8 L 112.3,42.9" style="fill:none;fill-rule:evenodd;stroke:#E5E5E5;stroke-width:1.4px;stroke-linecap:butt;stroke-linejoin:miter;stroke-opacity:1"/>
<path class="bond-4 atom-2 atom-4" d="M 54.9,78.4 L 44.6,55.0" style="fill:none;fill-rule:evenodd;stroke:#000000;stroke-width:2.0px;stroke-linecap:butt;stroke-linejoin:miter;stroke-opacity:1"/>
<path class="bond-4 atom-2 atom-4" d="M 57.3,74.3 L 49.2,56.0" style="fill:none;fill-rule:evenodd;stroke:#000000;stroke-width:2.0px;stroke-linecap:butt;stroke-linejoin:miter;stroke-opacity:1"/>
<path class="bond-5 atom-2 atom-7" d="M 54.9,78.4 L 65.8,77.3" style="fill:none;fill-rule:evenodd;stroke:#000000;stroke-width:2.0px;stroke-linecap:butt;stroke-linejoin:miter;stroke-opacity:1"/>
<path class="bond-5 atom-2 atom-7" d="M 65.8,77.3 L 76.7,76.2" style="fill:none;fill-rule:evenodd;stroke:#0000FF;stroke-width:2.0px;stroke-linecap:butt;stroke-linejoin:miter;stroke-opacity:1"/>
<path class="bond-6 atom-4 atom-8" d="M 44.6,55.0 L 59.5,41.7" style="fill:none;fill-rule:evenodd;stroke:#E5E5E5;stroke-width:1.4px;stroke-linecap:butt;stroke-linejoin:miter;stroke-opacity:1"/>
<path class="bond-7 atom-9 atom-7" d="M 85.8,50.9 L 83.5,61.1" style="fill:none;fill-rule:evenodd;stroke:#000000;stroke-width:2.0px;stroke-linecap:butt;stroke-linejoin:miter;stroke-opacity:1"/>
<path class="bond-7 atom-9 atom-7" d="M 83.5,61.1 L 81.3,71.4" style="fill:none;fill-rule:evenodd;stroke:#0000FF;stroke-width:2.0px;stroke-linecap:butt;stroke-linejoin:miter;stroke-opacity:1"/>
<path class="bond-7 atom-9 atom-7" d="M 81.4,52.8 L 79.5,61.7" style="fill:none;fill-rule:evenodd;stroke:#000000;stroke-width:2.0px;stroke-linecap:butt;stroke-linejoin:miter;stroke-opacity:1"/>
<path class="bond-7 atom-9 atom-7" d="M 79.5,61.7 L 77.5,70.6" style="fill:none;fill-rule:evenodd;stroke:#0000FF;stroke-width:2.0px;stroke-linecap:butt;stroke-linejoin:miter;stroke-opacity:1"/>
<path class="bond-8 atom-9 atom-8" d="M 85.8,50.9 L 76.8,45.6" style="fill:none;fill-rule:evenodd;stroke:#000000;stroke-width:2.0px;stroke-linecap:butt;stroke-linejoin:miter;stroke-opacity:1"/>
<path class="bond-8 atom-9 atom-8" d="M 76.8,45.6 L 67.8,40.4" style="fill:none;fill-rule:evenodd;stroke:#FF0000;stroke-width:2.0px;stroke-linecap:butt;stroke-linejoin:miter;stroke-opacity:1"/>
<path class="bond-9 atom-9 atom-6" d="M 85.8,50.9 L 95.9,46.4" style="fill:none;fill-rule:evenodd;stroke:#000000;stroke-width:2.0px;stroke-linecap:butt;stroke-linejoin:miter;stroke-opacity:1"/>
<path class="bond-9 atom-9 atom-6" d="M 95.9,46.4 L 106.0,42.0" style="fill:none;fill-rule:evenodd;stroke:#CCCC00;stroke-width:2.0px;stroke-linecap:butt;stroke-linejoin:miter;stroke-opacity:1"/>
<path d="M 39.2,99.0 L 39.7,99.0 L 40.1,98.5" style="fill:none;stroke:#E5E5E5;stroke-width:1.4px;stroke-linecap:butt;stroke-linejoin:miter;stroke-opacity:1;"/>
<path class="atom-0" d="M 7.8 93.5 L 8.9 92.4 L 7.5 92.1 L 7.7 91.4 L 9.0 92.1 L 8.8 90.7 L 9.6 90.6 L 9.4 92.1 L 10.7 91.5 L 10.9 92.1 L 9.5 92.4 L 10.5 93.5 L 9.9 94.0 L 9.2 92.6 L 8.5 94.0 L 7.8 93.5 " fill="#191919"/>
<path class="atom-0" d="M 11.7 90.8 L 12.7 90.8 L 12.7 93.8 L 16.4 93.8 L 16.4 90.8 L 17.4 90.8 L 17.4 98.0 L 16.4 98.0 L 16.4 94.7 L 12.7 94.7 L 12.7 98.0 L 11.7 98.0 L 11.7 90.8 " fill="#191919"/>
<path class="atom-3" d="M 12.5 51.4 L 13.5 50.3 L 12.1 50.0 L 12.3 49.3 L 13.6 49.9 L 13.5 48.5 L 14.2 48.5 L 14.0 49.9 L 15.3 49.3 L 15.6 50.0 L 14.1 50.3 L 15.1 51.4 L 14.5 51.8 L 13.8 50.5 L 13.1 51.8 L 12.5 51.4 " fill="#191919"/>
<path class="atom-3" d="M 16.3 48.6 L 17.3 48.6 L 17.3 51.7 L 21.0 51.7 L 21.0 48.6 L 22.0 48.6 L 22.0 55.9 L 21.0 55.9 L 21.0 52.5 L 17.3 52.5 L 17.3 55.9 L 16.3 55.9 L 16.3 48.6 " fill="#191919"/>
<path class="atom-5" d="M 128.4 54.9 L 129.5 53.8 L 128.1 53.5 L 128.3 52.8 L 129.6 53.5 L 129.4 52.0 L 130.2 52.0 L 130.0 53.4 L 131.3 52.8 L 131.5 53.5 L 130.1 53.8 L 131.1 54.9 L 130.5 55.3 L 129.8 54.0 L 129.0 55.3 L 128.4 54.9 " fill="#191919"/>
<path class="atom-5" d="M 132.3 52.1 L 133.3 52.1 L 133.3 55.2 L 137.0 55.2 L 137.0 52.1 L 137.9 52.1 L 137.9 59.4 L 137.0 59.4 L 137.0 56.0 L 133.3 56.0 L 133.3 59.4 L 132.3 59.4 L 132.3 52.1 " fill="#191919"/>
<path class="atom-5" d="M 139.3 59.1 Q 139.5 58.7, 139.9 58.4 Q 140.3 58.2, 140.9 58.2 Q 141.6 58.2, 142.0 58.6 Q 142.4 59.0, 142.4 59.7 Q 142.4 60.4, 141.9 61.0 Q 141.4 61.7, 140.3 62.5 L 142.5 62.5 L 142.5 63.0 L 139.3 63.0 L 139.3 62.6 Q 140.2 61.9, 140.7 61.4 Q 141.2 61.0, 141.5 60.5 Q 141.7 60.1, 141.7 59.7 Q 141.7 59.2, 141.5 59.0 Q 141.3 58.7, 140.9 58.7 Q 140.5 58.7, 140.2 58.9 Q 140.0 59.0, 139.8 59.4 L 139.3 59.1 " fill="#191919"/>
<path class="atom-6" d="M 107.1 43.1 Q 107.2 43.1, 107.5 43.2 Q 107.9 43.4, 108.2 43.5 Q 108.6 43.5, 109.0 43.5 Q 109.7 43.5, 110.1 43.2 Q 110.5 42.9, 110.5 42.3 Q 110.5 41.9, 110.3 41.7 Q 110.1 41.4, 109.8 41.3 Q 109.5 41.1, 109.0 41.0 Q 108.3 40.8, 107.9 40.6 Q 107.5 40.4, 107.3 40.0 Q 107.0 39.7, 107.0 39.0 Q 107.0 38.1, 107.6 37.5 Q 108.2 37.0, 109.5 37.0 Q 110.3 37.0, 111.3 37.4 L 111.0 38.1 Q 110.2 37.8, 109.5 37.8 Q 108.8 37.8, 108.4 38.1 Q 108.0 38.4, 108.0 38.9 Q 108.0 39.3, 108.2 39.5 Q 108.4 39.7, 108.7 39.9 Q 109.0 40.0, 109.5 40.2 Q 110.2 40.4, 110.5 40.6 Q 110.9 40.8, 111.2 41.2 Q 111.5 41.6, 111.5 42.3 Q 111.5 43.3, 110.8 43.8 Q 110.2 44.4, 109.0 44.4 Q 108.4 44.4, 107.9 44.2 Q 107.4 44.1, 106.8 43.9 L 107.1 43.1 " fill="#CCCC00"/>
<path class="atom-7" d="M 78.7 72.2 L 81.1 76.1 Q 81.3 76.4, 81.7 77.1 Q 82.1 77.8, 82.1 77.9 L 82.1 72.2 L 83.1 72.2 L 83.1 79.5 L 82.1 79.5 L 79.5 75.3 Q 79.2 74.8, 78.9 74.2 Q 78.6 73.7, 78.5 73.5 L 78.5 79.5 L 77.6 79.5 L 77.6 72.2 L 78.7 72.2 " fill="#0000FF"/>
<path class="atom-8" d="M 60.3 38.0 Q 60.3 36.3, 61.2 35.3 Q 62.1 34.3, 63.7 34.3 Q 65.3 34.3, 66.1 35.3 Q 67.0 36.3, 67.0 38.0 Q 67.0 39.8, 66.1 40.8 Q 65.3 41.7, 63.7 41.7 Q 62.1 41.7, 61.2 40.8 Q 60.3 39.8, 60.3 38.0 M 63.7 40.9 Q 64.8 40.9, 65.4 40.2 Q 66.0 39.4, 66.0 38.0 Q 66.0 36.6, 65.4 35.9 Q 64.8 35.1, 63.7 35.1 Q 62.6 35.1, 62.0 35.8 Q 61.4 36.6, 61.4 38.0 Q 61.4 39.5, 62.0 40.2 Q 62.6 40.9, 63.7 40.9 " fill="#FF0000"/>
<path class="legend" d="M 62.6 141.1 L 65.1 141.1 L 65.1 132.6 L 62.4 133.4 L 62.0 132.5 L 65.5 130.9 L 66.6 131.1 L 66.6 141.1 L 68.8 141.1 L 68.8 142.3 L 62.6 142.3 L 62.6 141.1 " fill="#000000"/>
<path class="legend" d="M 74.3 135.3 Q 75.3 135.3, 76.1 135.7 Q 77.0 136.1, 77.4 136.9 Q 77.9 137.7, 77.9 138.8 Q 77.9 139.9, 77.3 140.8 Q 76.8 141.6, 75.8 142.0 Q 74.9 142.5, 73.8 142.5 Q 72.8 142.5, 71.8 142.1 Q 70.9 141.7, 70.2 141.0 L 71.2 140.0 Q 71.7 140.5, 72.4 140.9 Q 73.2 141.2, 73.9 141.2 Q 74.9 141.2, 75.6 140.5 Q 76.3 139.9, 76.3 138.8 Q 76.3 137.6, 75.6 137.0 Q 74.9 136.5, 73.8 136.5 Q 72.8 136.5, 71.7 136.9 L 70.8 136.5 L 71.4 131.0 L 77.2 131.0 L 77.0 132.3 L 72.7 132.3 L 72.3 135.7 Q 73.3 135.3, 74.3 135.3 " fill="#000000"/>
<path class="legend" d="M 84.8 136.4 Q 85.9 136.7, 86.5 137.4 Q 87.0 138.1, 87.0 139.2 Q 87.0 140.2, 86.5 140.9 Q 86.1 141.7, 85.2 142.1 Q 84.3 142.5, 83.1 142.5 Q 81.9 142.5, 81.0 142.1 Q 80.1 141.7, 79.4 140.8 L 80.3 139.9 Q 81.0 140.6, 81.6 140.9 Q 82.2 141.2, 83.1 141.2 Q 84.2 141.2, 84.8 140.7 Q 85.4 140.1, 85.4 139.2 Q 85.4 138.1, 84.8 137.6 Q 84.1 137.0, 82.7 137.0 L 81.9 137.0 L 81.9 135.9 L 82.6 135.9 Q 83.9 135.9, 84.5 135.3 Q 85.2 134.8, 85.2 133.8 Q 85.2 133.0, 84.6 132.6 Q 84.1 132.2, 83.2 132.2 Q 82.2 132.2, 81.6 132.5 Q 81.0 132.8, 80.6 133.7 L 79.5 133.1 Q 79.9 132.1, 80.9 131.5 Q 81.8 130.9, 83.2 130.9 Q 84.8 130.9, 85.8 131.7 Q 86.8 132.5, 86.8 133.8 Q 86.8 134.7, 86.3 135.3 Q 85.8 136.0, 84.8 136.4 " fill="#000000"/>
</svg>