<svg xmlns="http://www.w3.org/2000/svg" xmlns:rdkit="http://www.rdkit.org/xml" xmlns:xlink="http://www.w3.org/1999/xlink" version="1.1" baseProfile="full" xml:space="preserve" width="150px" height="150px" viewBox="0 0 150 150">
<!-- END OF HEADER -->
<rect style="opacity:1.0;fill:#FFFFFF;stroke:none" width="150.0" height="150.0" x="0.0" y="0.0"> </rect>
<ellipse cx="28.4" cy="63.9" rx="4.9" ry="4.9" class="atom-1" style="fill:#E5E533;fill-rule:evenodd;stroke:#E5E533;stroke-width:1.0px;stroke-linecap:butt;stroke-linejoin:miter;stroke-opacity:1"/>
<ellipse cx="70.3" cy="69.5" rx="4.9" ry="4.9" class="atom-3" style="fill:#9999E5;fill-rule:evenodd;stroke:#9999E5;stroke-width:1.0px;stroke-linecap:butt;stroke-linejoin:miter;stroke-opacity:1"/>
<path class="bond-0 atom-0 atom-1" d="M 24.0,83.5 L 26.8,62.6" style="fill:none;fill-rule:evenodd;stroke:#E5E5E5;stroke-width:1.3px;stroke-linecap:butt;stroke-linejoin:miter;stroke-opacity:1"/>
<path class="bond-0 atom-0 atom-1" d="M 27.6,84.0 L 30.4,63.1" style="fill:none;fill-rule:evenodd;stroke:#E5E5E5;stroke-width:1.3px;stroke-linecap:butt;stroke-linejoin:miter;stroke-opacity:1;stroke-dasharray:6,4"/>
<path class="bond-1 atom-2 atom-1" d="M 51.0,54.6 L 28.4,63.9" style="fill:none;fill-rule:evenodd;stroke:#000000;stroke-width:2.0px;stroke-linecap:butt;stroke-linejoin:miter;stroke-opacity:1"/>
<path class="bond-2 atom-2 atom-3" d="M 51.0,54.6 L 58.9,60.7" style="fill:none;fill-rule:evenodd;stroke:#000000;stroke-width:2.0px;stroke-linecap:butt;stroke-linejoin:miter;stroke-opacity:1"/>
<path class="bond-2 atom-2 atom-3" d="M 58.9,60.7 L 66.9,66.8" style="fill:none;fill-rule:evenodd;stroke:#0000FF;stroke-width:2.0px;stroke-linecap:butt;stroke-linejoin:miter;stroke-opacity:1"/>
<path class="bond-2 atom-2 atom-3" d="M 50.4,58.8 L 57.5,64.3" style="fill:none;fill-rule:evenodd;stroke:#000000;stroke-width:2.0px;stroke-linecap:butt;stroke-linejoin:miter;stroke-opacity:1"/>
<path class="bond-2 atom-2 atom-3" d="M 57.5,64.3 L 64.7,69.7" style="fill:none;fill-rule:evenodd;stroke:#0000FF;stroke-width:2.0px;stroke-linecap:butt;stroke-linejoin:miter;stroke-opacity:1"/>
<path class="bond-3 atom-4 atom-5" d="M 112.2,75.1 L 104.2,69.0" style="fill:none;fill-rule:evenodd;stroke:#000000;stroke-width:2.0px;stroke-linecap:butt;stroke-linejoin:miter;stroke-opacity:1"/>
<path class="bond-3 atom-4 atom-5" d="M 104.2,69.0 L 96.3,62.9" style="fill:none;fill-rule:evenodd;stroke:#0000FF;stroke-width:2.0px;stroke-linecap:butt;stroke-linejoin:miter;stroke-opacity:1"/>
<path class="bond-3 atom-4 atom-5" d="M 112.7,70.9 L 105.6,65.4" style="fill:none;fill-rule:evenodd;stroke:#000000;stroke-width:2.0px;stroke-linecap:butt;stroke-linejoin:miter;stroke-opacity:1"/>
<path class="bond-3 atom-4 atom-5" d="M 105.6,65.4 L 98.5,60.0" style="fill:none;fill-rule:evenodd;stroke:#0000FF;stroke-width:2.0px;stroke-linecap:butt;stroke-linejoin:miter;stroke-opacity:1"/>
<path class="bond-4 atom-4 atom-6" d="M 112.2,75.1 L 133.6,66.3" style="fill:none;fill-rule:evenodd;stroke:#E5E5E5;stroke-width:1.3px;stroke-linecap:butt;stroke-linejoin:miter;stroke-opacity:1"/>
<path class="bond-5 atom-1 atom-7" d="M 30.4,63.1 L 10.8,48.0" style="fill:none;fill-rule:evenodd;stroke:#E5E5E5;stroke-width:1.3px;stroke-linecap:butt;stroke-linejoin:miter;stroke-opacity:1"/>
<path class="bond-5 atom-1 atom-7" d="M 28.2,66.0 L 8.6,50.9" style="fill:none;fill-rule:evenodd;stroke:#E5E5E5;stroke-width:1.3px;stroke-linecap:butt;stroke-linejoin:miter;stroke-opacity:1;stroke-dasharray:6,4"/>
<path class="bond-6 atom-3 atom-5" d="M 73.7,68.1 L 89.4,61.6" style="fill:none;fill-rule:evenodd;stroke:#0000FF;stroke-width:2.0px;stroke-linecap:butt;stroke-linejoin:miter;stroke-opacity:1"/>
<path d="M 49.9,55.1 L 51.0,54.6 L 51.4,54.9" style="fill:none;stroke:#000000;stroke-width:2.0px;stroke-linecap:butt;stroke-linejoin:miter;stroke-opacity:1;"/>
<path d="M 112.0,75.0 L 112.2,75.1 L 112.7,74.9" style="fill:none;stroke:#000000;stroke-width:2.0px;stroke-linecap:butt;stroke-linejoin:miter;stroke-opacity:1;"/>
<path class="atom-0" d="M 23.9 87.3 L 24.9 86.2 L 23.6 86.0 L 23.8 85.3 L 25.0 85.9 L 24.8 84.5 L 25.6 84.5 L 25.4 85.9 L 26.6 85.3 L 26.8 86.0 L 25.5 86.2 L 26.4 87.3 L 25.8 87.7 L 25.2 86.4 L 24.5 87.7 L 23.9 87.3 " fill="#191919"/>
<path class="atom-0" d="M 27.6 84.6 L 28.5 84.6 L 28.5 87.6 L 32.0 87.6 L 32.0 84.6 L 33.0 84.6 L 33.0 91.5 L 32.0 91.5 L 32.0 88.4 L 28.5 88.4 L 28.5 91.5 L 27.6 91.5 L 27.6 84.6 " fill="#191919"/>
<path class="atom-3" d="M 68.8 66.0 L 71.0 69.7 Q 71.3 70.0, 71.6 70.7 Q 72.0 71.4, 72.0 71.4 L 72.0 66.0 L 72.9 66.0 L 72.9 72.9 L 72.0 72.9 L 69.6 68.9 Q 69.3 68.5, 69.0 67.9 Q 68.7 67.4, 68.6 67.2 L 68.6 72.9 L 67.7 72.9 L 67.7 66.0 L 68.8 66.0 " fill="#0000FF"/>
<path class="atom-5" d="M 91.3 56.8 L 93.6 60.4 Q 93.8 60.8, 94.2 61.4 Q 94.6 62.1, 94.6 62.1 L 94.6 56.8 L 95.5 56.8 L 95.5 63.7 L 94.5 63.7 L 92.1 59.7 Q 91.8 59.2, 91.5 58.7 Q 91.2 58.1, 91.1 58.0 L 91.1 63.7 L 90.2 63.7 L 90.2 56.8 L 91.3 56.8 " fill="#0000FF"/>
<path class="atom-6" d="M 133.4 65.1 L 134.4 64.0 L 133.1 63.8 L 133.3 63.1 L 134.5 63.7 L 134.4 62.3 L 135.1 62.3 L 134.9 63.7 L 136.2 63.1 L 136.4 63.8 L 135.0 64.0 L 136.0 65.1 L 135.4 65.5 L 134.7 64.2 L 134.0 65.5 L 133.4 65.1 " fill="#191919"/>
<path class="atom-6" d="M 137.1 62.4 L 138.0 62.4 L 138.0 65.4 L 141.6 65.4 L 141.6 62.4 L 142.5 62.4 L 142.5 69.3 L 141.6 69.3 L 141.6 66.2 L 138.0 66.2 L 138.0 69.3 L 137.1 69.3 L 137.1 62.4 " fill="#191919"/>
<path class="atom-7" d="M 7.8 48.2 L 8.8 47.2 L 7.5 46.9 L 7.7 46.2 L 8.9 46.8 L 8.8 45.5 L 9.5 45.5 L 9.3 46.8 L 10.6 46.2 L 10.8 46.9 L 9.4 47.1 L 10.4 48.2 L 9.8 48.6 L 9.1 47.3 L 8.4 48.6 L 7.8 48.2 " fill="#191919"/>
<path class="legend" d="M 57.8 141.1 L 60.3 141.1 L 60.3 132.6 L 57.6 133.5 L 57.2 132.5 L 60.7 131.0 L 61.8 131.2 L 61.8 141.1 L 64.1 141.1 L 64.1 142.4 L 57.8 142.4 L 57.8 141.1 " fill="#000000"/>
<path class="legend" d="M 69.6 135.3 Q 70.6 135.3, 71.4 135.7 Q 72.2 136.1, 72.7 136.9 Q 73.1 137.7, 73.1 138.8 Q 73.1 140.0, 72.6 140.8 Q 72.0 141.6, 71.1 142.1 Q 70.1 142.5, 69.1 142.5 Q 68.1 142.5, 67.1 142.1 Q 66.1 141.7, 65.5 141.0 L 66.4 140.0 Q 67.0 140.6, 67.7 140.9 Q 68.4 141.2, 69.1 141.2 Q 70.1 141.2, 70.8 140.6 Q 71.5 140.0, 71.5 138.8 Q 71.5 137.6, 70.8 137.1 Q 70.1 136.5, 69.0 136.5 Q 68.1 136.5, 66.9 136.9 L 66.1 136.5 L 66.6 131.0 L 72.4 131.0 L 72.3 132.3 L 67.9 132.3 L 67.6 135.7 Q 68.6 135.3, 69.6 135.3 " fill="#000000"/>
<path class="legend" d="M 79.1 135.3 Q 80.1 135.3, 80.9 135.7 Q 81.7 136.2, 82.1 136.9 Q 82.5 137.7, 82.5 138.7 Q 82.5 139.8, 82.0 140.7 Q 81.5 141.5, 80.7 142.0 Q 79.8 142.5, 78.7 142.5 Q 76.7 142.5, 75.7 141.1 Q 74.7 139.8, 74.7 137.0 Q 74.7 134.0, 75.9 132.5 Q 77.2 130.9, 79.6 130.9 Q 80.3 130.9, 80.9 131.1 Q 81.5 131.2, 82.1 131.6 L 81.4 132.6 Q 80.6 132.2, 79.6 132.2 Q 78.0 132.2, 77.2 133.2 Q 76.4 134.3, 76.3 136.4 Q 76.9 135.9, 77.6 135.6 Q 78.3 135.3, 79.1 135.3 M 78.7 141.2 Q 79.3 141.2, 79.8 140.9 Q 80.3 140.5, 80.6 140.0 Q 80.9 139.4, 80.9 138.7 Q 80.9 137.7, 80.4 137.2 Q 79.8 136.6, 78.8 136.6 Q 78.1 136.6, 77.4 136.9 Q 76.8 137.1, 76.3 137.6 Q 76.3 139.5, 76.9 140.3 Q 77.5 141.2, 78.7 141.2 " fill="#000000"/>
<path class="legend" d="M 84.2 133.2 Q 84.6 132.1, 85.6 131.5 Q 86.6 130.9, 88.0 130.9 Q 89.7 130.9, 90.6 131.8 Q 91.6 132.8, 91.6 134.4 Q 91.6 136.1, 90.3 137.7 Q 89.1 139.2, 86.5 141.1 L 91.8 141.1 L 91.8 142.4 L 84.1 142.4 L 84.1 141.3 Q 86.3 139.8, 87.5 138.7 Q 88.8 137.6, 89.4 136.5 Q 90.0 135.5, 90.0 134.5 Q 90.0 133.4, 89.4 132.8 Q 88.9 132.2, 88.0 132.2 Q 87.0 132.2, 86.4 132.6 Q 85.8 132.9, 85.4 133.7 L 84.2 133.2 " fill="#000000"/>
</svg>