<svg xmlns="http://www.w3.org/2000/svg" xmlns:rdkit="http://www.rdkit.org/xml" xmlns:xlink="http://www.w3.org/1999/xlink" version="1.1" baseProfile="full" xml:space="preserve" width="150px" height="150px" viewBox="0 0 150 150">
<!-- END OF HEADER -->
<rect style="opacity:1.0;fill:#FFFFFF;stroke:none" width="150.0" height="150.0" x="0.0" y="0.0"> </rect>
<ellipse cx="31.8" cy="65.0" rx="4.7" ry="4.7" class="atom-1" style="fill:#E5E533;fill-rule:evenodd;stroke:#E5E533;stroke-width:1.0px;stroke-linecap:butt;stroke-linejoin:miter;stroke-opacity:1"/>
<ellipse cx="59.0" cy="95.8" rx="4.7" ry="4.7" class="atom-3" style="fill:#E5E533;fill-rule:evenodd;stroke:#E5E533;stroke-width:1.0px;stroke-linecap:butt;stroke-linejoin:miter;stroke-opacity:1"/>
<ellipse cx="99.3" cy="87.7" rx="4.7" ry="4.7" class="atom-4" style="fill:#E5E533;fill-rule:evenodd;stroke:#E5E533;stroke-width:1.0px;stroke-linecap:butt;stroke-linejoin:miter;stroke-opacity:1"/>
<ellipse cx="94.6" cy="64.5" rx="4.7" ry="4.7" class="atom-5" style="fill:#E5E533;fill-rule:evenodd;stroke:#E5E533;stroke-width:1.0px;stroke-linecap:butt;stroke-linejoin:miter;stroke-opacity:1"/>
<ellipse cx="112.5" cy="48.8" rx="4.7" ry="4.7" class="atom-8" style="fill:#E5E533;fill-rule:evenodd;stroke:#E5E533;stroke-width:1.0px;stroke-linecap:butt;stroke-linejoin:miter;stroke-opacity:1"/>
<ellipse cx="72.1" cy="56.9" rx="4.7" ry="4.7" class="atom-9" style="fill:#9999E5;fill-rule:evenodd;stroke:#9999E5;stroke-width:1.0px;stroke-linecap:butt;stroke-linejoin:miter;stroke-opacity:1"/>
<ellipse cx="54.3" cy="72.5" rx="4.7" ry="4.7" class="atom-10" style="fill:#E5E533;fill-rule:evenodd;stroke:#E5E533;stroke-width:1.0px;stroke-linecap:butt;stroke-linejoin:miter;stroke-opacity:1"/>
<path class="bond-0 atom-0 atom-1" d="M 16.3,76.3 L 31.4,62.9" style="fill:none;fill-rule:evenodd;stroke:#E5E5E5;stroke-width:1.3px;stroke-linecap:butt;stroke-linejoin:miter;stroke-opacity:1"/>
<path class="bond-0 atom-0 atom-1" d="M 18.6,79.0 L 33.8,65.6" style="fill:none;fill-rule:evenodd;stroke:#E5E5E5;stroke-width:1.3px;stroke-linecap:butt;stroke-linejoin:miter;stroke-opacity:1;stroke-dasharray:6,4"/>
<path class="bond-1 atom-2 atom-3" d="M 43.4,107.2 L 58.6,93.8" style="fill:none;fill-rule:evenodd;stroke:#E5E5E5;stroke-width:1.3px;stroke-linecap:butt;stroke-linejoin:miter;stroke-opacity:1"/>
<path class="bond-1 atom-2 atom-3" d="M 45.8,109.8 L 60.9,96.5" style="fill:none;fill-rule:evenodd;stroke:#E5E5E5;stroke-width:1.3px;stroke-linecap:butt;stroke-linejoin:miter;stroke-opacity:1;stroke-dasharray:6,4"/>
<path class="bond-2 atom-4 atom-5" d="M 99.3,87.7 L 94.6,64.5" style="fill:none;fill-rule:evenodd;stroke:#000000;stroke-width:2.0px;stroke-linecap:butt;stroke-linejoin:miter;stroke-opacity:1"/>
<path class="bond-2 atom-4 atom-5" d="M 102.4,85.0 L 98.5,65.8" style="fill:none;fill-rule:evenodd;stroke:#000000;stroke-width:2.0px;stroke-linecap:butt;stroke-linejoin:miter;stroke-opacity:1;stroke-dasharray:6,4"/>
<path class="bond-3 atom-4 atom-6" d="M 99.3,87.7 L 119.4,94.5" style="fill:none;fill-rule:evenodd;stroke:#E5E5E5;stroke-width:1.3px;stroke-linecap:butt;stroke-linejoin:miter;stroke-opacity:1"/>
<path class="bond-3 atom-4 atom-6" d="M 102.4,85.0 L 120.6,91.1" style="fill:none;fill-rule:evenodd;stroke:#E5E5E5;stroke-width:1.3px;stroke-linecap:butt;stroke-linejoin:miter;stroke-opacity:1;stroke-dasharray:6,4"/>
<path class="bond-4 atom-7 atom-8" d="M 132.0,57.3 L 110.9,50.1" style="fill:none;fill-rule:evenodd;stroke:#E5E5E5;stroke-width:1.3px;stroke-linecap:butt;stroke-linejoin:miter;stroke-opacity:1"/>
<path class="bond-4 atom-7 atom-8" d="M 133.1,53.9 L 112.0,46.8" style="fill:none;fill-rule:evenodd;stroke:#E5E5E5;stroke-width:1.3px;stroke-linecap:butt;stroke-linejoin:miter;stroke-opacity:1;stroke-dasharray:6,4"/>
<path class="bond-5 atom-5 atom-8" d="M 94.6,64.5 L 112.5,48.8" style="fill:none;fill-rule:evenodd;stroke:#000000;stroke-width:2.0px;stroke-linecap:butt;stroke-linejoin:miter;stroke-opacity:1"/>
<path class="bond-5 atom-5 atom-8" d="M 98.5,65.8 L 113.3,52.8" style="fill:none;fill-rule:evenodd;stroke:#000000;stroke-width:2.0px;stroke-linecap:butt;stroke-linejoin:miter;stroke-opacity:1;stroke-dasharray:6,4"/>
<path class="bond-6 atom-5 atom-9" d="M 94.6,64.5 L 72.1,56.9" style="fill:none;fill-rule:evenodd;stroke:#000000;stroke-width:2.0px;stroke-linecap:butt;stroke-linejoin:miter;stroke-opacity:1"/>
<path class="bond-7 atom-1 atom-10" d="M 31.8,65.0 L 54.3,72.5" style="fill:none;fill-rule:evenodd;stroke:#000000;stroke-width:2.0px;stroke-linecap:butt;stroke-linejoin:miter;stroke-opacity:1"/>
<path class="bond-7 atom-1 atom-10" d="M 32.6,69.0 L 51.2,75.3" style="fill:none;fill-rule:evenodd;stroke:#000000;stroke-width:2.0px;stroke-linecap:butt;stroke-linejoin:miter;stroke-opacity:1;stroke-dasharray:6,4"/>
<path class="bond-8 atom-1 atom-11" d="M 31.8,65.0 L 27.3,42.1" style="fill:none;fill-rule:evenodd;stroke:#E5E5E5;stroke-width:1.3px;stroke-linecap:butt;stroke-linejoin:miter;stroke-opacity:1"/>
<path class="bond-9 atom-3 atom-10" d="M 59.0,95.8 L 54.3,72.5" style="fill:none;fill-rule:evenodd;stroke:#000000;stroke-width:2.0px;stroke-linecap:butt;stroke-linejoin:miter;stroke-opacity:1"/>
<path class="bond-9 atom-3 atom-10" d="M 55.1,94.5 L 51.2,75.3" style="fill:none;fill-rule:evenodd;stroke:#000000;stroke-width:2.0px;stroke-linecap:butt;stroke-linejoin:miter;stroke-opacity:1;stroke-dasharray:6,4"/>
<path class="bond-10 atom-3 atom-12" d="M 59.0,95.8 L 79.1,102.6" style="fill:none;fill-rule:evenodd;stroke:#E5E5E5;stroke-width:1.3px;stroke-linecap:butt;stroke-linejoin:miter;stroke-opacity:1"/>
<path class="bond-11 atom-8 atom-13" d="M 112.5,48.8 L 107.9,25.9" style="fill:none;fill-rule:evenodd;stroke:#E5E5E5;stroke-width:1.3px;stroke-linecap:butt;stroke-linejoin:miter;stroke-opacity:1"/>
<path class="bond-12 atom-10 atom-9" d="M 54.3,72.5 L 72.1,56.9" style="fill:none;fill-rule:evenodd;stroke:#000000;stroke-width:2.0px;stroke-linecap:butt;stroke-linejoin:miter;stroke-opacity:1"/>
<path class="bond-13 atom-9 atom-14" d="M 74.1,57.5 L 72.1,47.5" style="fill:none;fill-rule:evenodd;stroke:#000000;stroke-width:2.0px;stroke-linecap:butt;stroke-linejoin:miter;stroke-opacity:1"/>
<path class="bond-13 atom-9 atom-14" d="M 72.1,47.5 L 70.1,37.5" style="fill:none;fill-rule:evenodd;stroke:#FF0000;stroke-width:2.0px;stroke-linecap:butt;stroke-linejoin:miter;stroke-opacity:1"/>
<path class="bond-13 atom-9 atom-14" d="M 70.6,58.2 L 68.6,48.2" style="fill:none;fill-rule:evenodd;stroke:#000000;stroke-width:2.0px;stroke-linecap:butt;stroke-linejoin:miter;stroke-opacity:1"/>
<path class="bond-13 atom-9 atom-14" d="M 68.6,48.2 L 66.6,38.2" style="fill:none;fill-rule:evenodd;stroke:#FF0000;stroke-width:2.0px;stroke-linecap:butt;stroke-linejoin:miter;stroke-opacity:1"/>
<path d="M 99.2,87.1 L 99.3,87.7 L 99.8,87.9" style="fill:none;stroke:#000000;stroke-width:2.0px;stroke-linecap:butt;stroke-linejoin:miter;stroke-opacity:1;"/>
<path d="M 73.3,57.2 L 72.1,56.9 L 71.3,57.6" style="fill:none;stroke:#000000;stroke-width:2.0px;stroke-linecap:butt;stroke-linejoin:miter;stroke-opacity:1;"/>
<path class="atom-0" d="M 7.8 79.9 L 8.8 78.9 L 7.5 78.6 L 7.7 77.9 L 8.9 78.5 L 8.7 77.2 L 9.4 77.2 L 9.2 78.5 L 10.5 78.0 L 10.7 78.6 L 9.4 78.9 L 10.3 79.9 L 9.7 80.3 L 9.1 79.0 L 8.4 80.3 L 7.8 79.9 " fill="#191919"/>
<path class="atom-0" d="M 11.4 77.3 L 12.3 77.3 L 12.3 80.2 L 15.7 80.2 L 15.7 77.3 L 16.6 77.3 L 16.6 84.1 L 15.7 84.1 L 15.7 80.9 L 12.3 80.9 L 12.3 84.1 L 11.4 84.1 L 11.4 77.3 " fill="#191919"/>
<path class="atom-2" d="M 35.0 110.7 L 36.0 109.7 L 34.7 109.5 L 34.9 108.8 L 36.1 109.4 L 35.9 108.1 L 36.6 108.1 L 36.4 109.4 L 37.6 108.8 L 37.8 109.5 L 36.5 109.7 L 37.5 110.7 L 36.9 111.2 L 36.2 109.9 L 35.6 111.2 L 35.0 110.7 " fill="#191919"/>
<path class="atom-2" d="M 38.5 108.2 L 39.5 108.2 L 39.5 111.1 L 42.9 111.1 L 42.9 108.2 L 43.8 108.2 L 43.8 114.9 L 42.9 114.9 L 42.9 111.8 L 39.5 111.8 L 39.5 114.9 L 38.5 114.9 L 38.5 108.2 " fill="#191919"/>
<path class="atom-6" d="M 121.1 92.9 L 122.1 91.9 L 120.8 91.6 L 121.0 90.9 L 122.2 91.5 L 122.0 90.2 L 122.7 90.2 L 122.5 91.5 L 123.7 91.0 L 124.0 91.6 L 122.6 91.9 L 123.6 92.9 L 123.0 93.3 L 122.3 92.0 L 121.7 93.3 L 121.1 92.9 " fill="#191919"/>
<path class="atom-7" d="M 133.7 55.6 L 134.7 54.6 L 133.4 54.3 L 133.6 53.7 L 134.8 54.3 L 134.6 53.0 L 135.3 52.9 L 135.1 54.3 L 136.3 53.7 L 136.5 54.3 L 135.2 54.6 L 136.2 55.6 L 135.6 56.0 L 134.9 54.8 L 134.3 56.0 L 133.7 55.6 " fill="#191919"/>
<path class="atom-7" d="M 137.2 53.1 L 138.2 53.1 L 138.2 55.9 L 141.6 55.9 L 141.6 53.1 L 142.5 53.1 L 142.5 59.8 L 141.6 59.8 L 141.6 56.7 L 138.2 56.7 L 138.2 59.8 L 137.2 59.8 L 137.2 53.1 " fill="#191919"/>
<path class="atom-11" d="M 25.9 40.9 L 26.9 39.9 L 25.6 39.7 L 25.8 39.0 L 27.0 39.6 L 26.8 38.3 L 27.5 38.3 L 27.3 39.6 L 28.5 39.0 L 28.8 39.7 L 27.4 39.9 L 28.4 40.9 L 27.8 41.3 L 27.1 40.1 L 26.5 41.3 L 25.9 40.9 " fill="#191919"/>
<path class="atom-12" d="M 80.2 102.7 L 81.2 101.7 L 79.9 101.4 L 80.1 100.7 L 81.3 101.3 L 81.1 100.0 L 81.8 100.0 L 81.6 101.3 L 82.9 100.7 L 83.1 101.4 L 81.7 101.6 L 82.7 102.6 L 82.1 103.1 L 81.5 101.8 L 80.8 103.1 L 80.2 102.7 " fill="#191919"/>
<path class="atom-13" d="M 106.5 24.8 L 107.5 23.7 L 106.2 23.5 L 106.4 22.8 L 107.6 23.4 L 107.4 22.1 L 108.1 22.1 L 107.9 23.4 L 109.2 22.8 L 109.4 23.5 L 108.0 23.7 L 109.0 24.7 L 108.4 25.2 L 107.8 23.9 L 107.1 25.2 L 106.5 24.8 " fill="#191919"/>
<path class="atom-14" d="M 64.4 33.6 Q 64.4 32.0, 65.2 31.1 Q 66.0 30.2, 67.5 30.2 Q 69.0 30.2, 69.8 31.1 Q 70.6 32.0, 70.6 33.6 Q 70.6 35.2, 69.8 36.2 Q 68.9 37.1, 67.5 37.1 Q 66.0 37.1, 65.2 36.2 Q 64.4 35.3, 64.4 33.6 M 67.5 36.3 Q 68.5 36.3, 69.1 35.7 Q 69.6 35.0, 69.6 33.6 Q 69.6 32.3, 69.1 31.6 Q 68.5 31.0, 67.5 31.0 Q 66.4 31.0, 65.9 31.6 Q 65.3 32.3, 65.3 33.6 Q 65.3 35.0, 65.9 35.7 Q 66.4 36.3, 67.5 36.3 " fill="#FF0000"/>
<path class="legend" d="M 58.2 141.1 L 60.7 141.1 L 60.7 132.6 L 58.0 133.5 L 57.6 132.5 L 61.1 131.0 L 62.2 131.2 L 62.2 141.1 L 64.4 141.1 L 64.4 142.4 L 58.2 142.4 L 58.2 141.1 " fill="#000000"/>
<path class="legend" d="M 70.0 135.3 Q 70.9 135.3, 71.8 135.7 Q 72.6 136.1, 73.0 136.9 Q 73.5 137.7, 73.5 138.8 Q 73.5 140.0, 72.9 140.8 Q 72.4 141.6, 71.4 142.1 Q 70.5 142.5, 69.5 142.5 Q 68.4 142.5, 67.5 142.1 Q 66.5 141.7, 65.8 141.0 L 66.8 140.0 Q 67.3 140.6, 68.0 140.9 Q 68.8 141.2, 69.5 141.2 Q 70.5 141.2, 71.2 140.6 Q 71.9 140.0, 71.9 138.8 Q 71.9 137.6, 71.2 137.1 Q 70.5 136.5, 69.4 136.5 Q 68.4 136.5, 67.3 136.9 L 66.4 136.5 L 67.0 131.0 L 72.8 131.0 L 72.6 132.3 L 68.3 132.3 L 68.0 135.7 Q 69.0 135.3, 70.0 135.3 " fill="#000000"/>
<path class="legend" d="M 81.0 132.3 L 75.0 132.3 L 75.0 131.0 L 82.5 131.0 L 82.5 132.2 L 78.0 142.4 L 76.4 142.4 L 81.0 132.3 " fill="#000000"/>
<path class="legend" d="M 87.9 135.3 Q 88.8 135.3, 89.7 135.7 Q 90.5 136.1, 90.9 136.9 Q 91.4 137.7, 91.4 138.8 Q 91.4 140.0, 90.8 140.8 Q 90.3 141.6, 89.3 142.1 Q 88.4 142.5, 87.4 142.5 Q 86.3 142.5, 85.4 142.1 Q 84.4 141.7, 83.7 141.0 L 84.7 140.0 Q 85.2 140.6, 85.9 140.9 Q 86.7 141.2, 87.4 141.2 Q 88.4 141.2, 89.1 140.6 Q 89.8 140.0, 89.8 138.8 Q 89.8 137.6, 89.1 137.1 Q 88.4 136.5, 87.3 136.5 Q 86.3 136.5, 85.2 136.9 L 84.3 136.5 L 84.9 131.0 L 90.7 131.0 L 90.5 132.3 L 86.2 132.3 L 85.9 135.7 Q 86.9 135.3, 87.9 135.3 " fill="#000000"/>
</svg>