<svg xmlns="http://www.w3.org/2000/svg" xmlns:rdkit="http://www.rdkit.org/xml" xmlns:xlink="http://www.w3.org/1999/xlink" version="1.1" baseProfile="full" xml:space="preserve" width="150px" height="150px" viewBox="0 0 150 150">
<!-- END OF HEADER -->
<rect style="opacity:1.0;fill:#FFFFFF;stroke:none" width="150.0" height="150.0" x="0.0" y="0.0"> </rect>
<ellipse cx="92.9" cy="91.4" rx="4.7" ry="4.7" class="atom-1" style="fill:#E5E533;fill-rule:evenodd;stroke:#E5E533;stroke-width:1.0px;stroke-linecap:butt;stroke-linejoin:miter;stroke-opacity:1"/>
<ellipse cx="34.2" cy="52.4" rx="4.7" ry="4.7" class="atom-3" style="fill:#E5E533;fill-rule:evenodd;stroke:#E5E533;stroke-width:1.0px;stroke-linecap:butt;stroke-linejoin:miter;stroke-opacity:1"/>
<ellipse cx="94.4" cy="68.0" rx="4.7" ry="4.7" class="atom-4" style="fill:#E5E533;fill-rule:evenodd;stroke:#E5E533;stroke-width:1.0px;stroke-linecap:butt;stroke-linejoin:miter;stroke-opacity:1"/>
<ellipse cx="53.8" cy="65.4" rx="4.7" ry="4.7" class="atom-5" style="fill:#E5E533;fill-rule:evenodd;stroke:#E5E533;stroke-width:1.0px;stroke-linecap:butt;stroke-linejoin:miter;stroke-opacity:1"/>
<ellipse cx="115.4" cy="57.5" rx="4.7" ry="4.7" class="atom-7" style="fill:#E5E533;fill-rule:evenodd;stroke:#E5E533;stroke-width:1.0px;stroke-linecap:butt;stroke-linejoin:miter;stroke-opacity:1"/>
<ellipse cx="52.3" cy="88.8" rx="4.7" ry="4.7" class="atom-9" style="fill:#E5E533;fill-rule:evenodd;stroke:#E5E533;stroke-width:1.0px;stroke-linecap:butt;stroke-linejoin:miter;stroke-opacity:1"/>
<ellipse cx="74.8" cy="55.0" rx="4.7" ry="4.7" class="atom-12" style="fill:#9999E5;fill-rule:evenodd;stroke:#9999E5;stroke-width:1.0px;stroke-linecap:butt;stroke-linejoin:miter;stroke-opacity:1"/>
<path class="bond-0 atom-0 atom-1" d="M 110.1,102.8 L 92.9,91.4" style="fill:none;fill-rule:evenodd;stroke:#E5E5E5;stroke-width:1.3px;stroke-linecap:butt;stroke-linejoin:miter;stroke-opacity:1"/>
<path class="bond-0 atom-0 atom-1" d="M 112.1,99.9 L 96.6,89.6" style="fill:none;fill-rule:evenodd;stroke:#E5E5E5;stroke-width:1.3px;stroke-linecap:butt;stroke-linejoin:miter;stroke-opacity:1;stroke-dasharray:6,4"/>
<path class="bond-1 atom-2 atom-3" d="M 16.5,61.2 L 34.2,52.4" style="fill:none;fill-rule:evenodd;stroke:#E5E5E5;stroke-width:1.3px;stroke-linecap:butt;stroke-linejoin:miter;stroke-opacity:1"/>
<path class="bond-1 atom-2 atom-3" d="M 18.1,64.3 L 34.0,56.5" style="fill:none;fill-rule:evenodd;stroke:#E5E5E5;stroke-width:1.3px;stroke-linecap:butt;stroke-linejoin:miter;stroke-opacity:1;stroke-dasharray:6,4"/>
<path class="bond-2 atom-1 atom-4" d="M 92.9,91.4 L 94.4,68.0" style="fill:none;fill-rule:evenodd;stroke:#000000;stroke-width:2.0px;stroke-linecap:butt;stroke-linejoin:miter;stroke-opacity:1"/>
<path class="bond-2 atom-1 atom-4" d="M 96.6,89.6 L 97.8,70.2" style="fill:none;fill-rule:evenodd;stroke:#000000;stroke-width:2.0px;stroke-linecap:butt;stroke-linejoin:miter;stroke-opacity:1;stroke-dasharray:6,4"/>
<path class="bond-3 atom-3 atom-5" d="M 34.2,52.4 L 53.8,65.4" style="fill:none;fill-rule:evenodd;stroke:#000000;stroke-width:2.0px;stroke-linecap:butt;stroke-linejoin:miter;stroke-opacity:1"/>
<path class="bond-3 atom-3 atom-5" d="M 34.0,56.5 L 50.1,67.2" style="fill:none;fill-rule:evenodd;stroke:#000000;stroke-width:2.0px;stroke-linecap:butt;stroke-linejoin:miter;stroke-opacity:1;stroke-dasharray:6,4"/>
<path class="bond-4 atom-6 atom-7" d="M 131.7,70.4 L 113.6,58.4" style="fill:none;fill-rule:evenodd;stroke:#E5E5E5;stroke-width:1.3px;stroke-linecap:butt;stroke-linejoin:miter;stroke-opacity:1"/>
<path class="bond-4 atom-6 atom-7" d="M 133.6,67.5 L 115.6,55.5" style="fill:none;fill-rule:evenodd;stroke:#E5E5E5;stroke-width:1.3px;stroke-linecap:butt;stroke-linejoin:miter;stroke-opacity:1;stroke-dasharray:6,4"/>
<path class="bond-5 atom-8 atom-9" d="M 33.9,96.0 L 52.4,86.8" style="fill:none;fill-rule:evenodd;stroke:#E5E5E5;stroke-width:1.3px;stroke-linecap:butt;stroke-linejoin:miter;stroke-opacity:1"/>
<path class="bond-5 atom-8 atom-9" d="M 35.4,99.2 L 54.0,90.0" style="fill:none;fill-rule:evenodd;stroke:#E5E5E5;stroke-width:1.3px;stroke-linecap:butt;stroke-linejoin:miter;stroke-opacity:1;stroke-dasharray:6,4"/>
<path class="bond-6 atom-7 atom-4" d="M 115.4,57.5 L 94.4,68.0" style="fill:none;fill-rule:evenodd;stroke:#000000;stroke-width:2.0px;stroke-linecap:butt;stroke-linejoin:miter;stroke-opacity:1"/>
<path class="bond-6 atom-7 atom-4" d="M 115.2,61.6 L 97.8,70.2" style="fill:none;fill-rule:evenodd;stroke:#000000;stroke-width:2.0px;stroke-linecap:butt;stroke-linejoin:miter;stroke-opacity:1;stroke-dasharray:6,4"/>
<path class="bond-7 atom-7 atom-10" d="M 115.4,57.5 L 116.9,34.5" style="fill:none;fill-rule:evenodd;stroke:#E5E5E5;stroke-width:1.3px;stroke-linecap:butt;stroke-linejoin:miter;stroke-opacity:1"/>
<path class="bond-8 atom-9 atom-5" d="M 52.3,88.8 L 53.8,65.4" style="fill:none;fill-rule:evenodd;stroke:#000000;stroke-width:2.0px;stroke-linecap:butt;stroke-linejoin:miter;stroke-opacity:1"/>
<path class="bond-8 atom-9 atom-5" d="M 48.9,86.6 L 50.1,67.2" style="fill:none;fill-rule:evenodd;stroke:#000000;stroke-width:2.0px;stroke-linecap:butt;stroke-linejoin:miter;stroke-opacity:1;stroke-dasharray:6,4"/>
<path class="bond-9 atom-9 atom-11" d="M 52.3,88.8 L 69.5,100.3" style="fill:none;fill-rule:evenodd;stroke:#E5E5E5;stroke-width:1.3px;stroke-linecap:butt;stroke-linejoin:miter;stroke-opacity:1"/>
<path class="bond-10 atom-4 atom-12" d="M 94.4,68.0 L 86.5,62.7" style="fill:none;fill-rule:evenodd;stroke:#000000;stroke-width:2.0px;stroke-linecap:butt;stroke-linejoin:miter;stroke-opacity:1"/>
<path class="bond-10 atom-4 atom-12" d="M 86.5,62.7 L 78.7,57.5" style="fill:none;fill-rule:evenodd;stroke:#FF0000;stroke-width:2.0px;stroke-linecap:butt;stroke-linejoin:miter;stroke-opacity:1"/>
<path class="bond-11 atom-5 atom-12" d="M 53.8,65.4 L 62.4,61.1" style="fill:none;fill-rule:evenodd;stroke:#000000;stroke-width:2.0px;stroke-linecap:butt;stroke-linejoin:miter;stroke-opacity:1"/>
<path class="bond-11 atom-5 atom-12" d="M 62.4,61.1 L 71.0,56.9" style="fill:none;fill-rule:evenodd;stroke:#FF0000;stroke-width:2.0px;stroke-linecap:butt;stroke-linejoin:miter;stroke-opacity:1"/>
<path d="M 93.4,91.7 L 92.9,91.4 L 93.0,90.8" style="fill:none;stroke:#E5E5E5;stroke-width:1.3px;stroke-linecap:butt;stroke-linejoin:miter;stroke-opacity:1;"/>
<path d="M 33.8,52.6 L 34.2,52.4 L 34.7,52.7" style="fill:none;stroke:#E5E5E5;stroke-width:1.3px;stroke-linecap:butt;stroke-linejoin:miter;stroke-opacity:1;"/>
<path class="atom-0" d="M 112.2 102.2 L 113.2 101.2 L 111.9 100.9 L 112.1 100.3 L 113.3 100.9 L 113.1 99.6 L 113.8 99.6 L 113.6 100.9 L 114.8 100.3 L 115.0 100.9 L 113.7 101.2 L 114.7 102.2 L 114.1 102.6 L 113.4 101.4 L 112.8 102.6 L 112.2 102.2 " fill="#191919"/>
<path class="atom-0" d="M 115.7 99.7 L 116.6 99.7 L 116.6 102.5 L 120.1 102.5 L 120.1 99.7 L 121.0 99.7 L 121.0 106.3 L 120.1 106.3 L 120.1 103.3 L 116.6 103.3 L 116.6 106.3 L 115.7 106.3 L 115.7 99.7 " fill="#191919"/>
<path class="atom-2" d="M 7.8 63.7 L 8.8 62.7 L 7.5 62.4 L 7.7 61.8 L 8.9 62.4 L 8.7 61.0 L 9.4 61.0 L 9.2 62.3 L 10.4 61.8 L 10.6 62.4 L 9.3 62.7 L 10.3 63.7 L 9.7 64.1 L 9.1 62.8 L 8.4 64.1 L 7.8 63.7 " fill="#191919"/>
<path class="atom-2" d="M 11.3 61.2 L 12.3 61.2 L 12.3 64.0 L 15.7 64.0 L 15.7 61.2 L 16.6 61.2 L 16.6 67.8 L 15.7 67.8 L 15.7 64.7 L 12.3 64.7 L 12.3 67.8 L 11.3 67.8 L 11.3 61.2 " fill="#191919"/>
<path class="atom-6" d="M 133.8 69.8 L 134.7 68.8 L 133.4 68.5 L 133.6 67.8 L 134.8 68.4 L 134.7 67.1 L 135.4 67.1 L 135.2 68.4 L 136.4 67.9 L 136.6 68.5 L 135.3 68.8 L 136.2 69.8 L 135.6 70.2 L 135.0 68.9 L 134.3 70.2 L 133.8 69.8 " fill="#191919"/>
<path class="atom-6" d="M 137.3 67.2 L 138.2 67.2 L 138.2 70.1 L 141.6 70.1 L 141.6 67.2 L 142.5 67.2 L 142.5 73.9 L 141.6 73.9 L 141.6 70.8 L 138.2 70.8 L 138.2 73.9 L 137.3 73.9 L 137.3 67.2 " fill="#191919"/>
<path class="atom-8" d="M 25.1 98.6 L 26.1 97.6 L 24.8 97.3 L 25.0 96.6 L 26.2 97.2 L 26.0 95.9 L 26.7 95.9 L 26.5 97.2 L 27.8 96.7 L 28.0 97.3 L 26.6 97.5 L 27.6 98.5 L 27.0 99.0 L 26.4 97.7 L 25.7 99.0 L 25.1 98.6 " fill="#191919"/>
<path class="atom-8" d="M 28.7 96.0 L 29.6 96.0 L 29.6 98.9 L 33.0 98.9 L 33.0 96.0 L 33.9 96.0 L 33.9 102.7 L 33.0 102.7 L 33.0 99.6 L 29.6 99.6 L 29.6 102.7 L 28.7 102.7 L 28.7 96.0 " fill="#191919"/>
<path class="atom-10" d="M 115.7 33.3 L 116.6 32.3 L 115.4 32.1 L 115.5 31.4 L 116.7 32.0 L 116.6 30.7 L 117.3 30.7 L 117.1 32.0 L 118.3 31.4 L 118.5 32.1 L 117.2 32.3 L 118.1 33.3 L 117.5 33.7 L 116.9 32.5 L 116.2 33.7 L 115.7 33.3 " fill="#191919"/>
<path class="atom-11" d="M 70.6 101.1 L 71.6 100.1 L 70.3 99.9 L 70.5 99.2 L 71.7 99.8 L 71.5 98.5 L 72.2 98.5 L 72.0 99.8 L 73.2 99.2 L 73.5 99.9 L 72.1 100.1 L 73.1 101.1 L 72.5 101.5 L 71.9 100.3 L 71.2 101.5 L 70.6 101.1 " fill="#191919"/>
<path class="atom-11" d="M 74.2 98.6 L 75.1 98.6 L 75.1 101.4 L 78.5 101.4 L 78.5 98.6 L 79.4 98.6 L 79.4 105.2 L 78.5 105.2 L 78.5 102.2 L 75.1 102.2 L 75.1 105.2 L 74.2 105.2 L 74.2 98.6 " fill="#191919"/>
<path class="atom-12" d="M 71.8 55.0 Q 71.8 53.4, 72.6 52.5 Q 73.4 51.6, 74.8 51.6 Q 76.3 51.6, 77.1 52.5 Q 77.9 53.4, 77.9 55.0 Q 77.9 56.6, 77.1 57.5 Q 76.3 58.4, 74.8 58.4 Q 73.4 58.4, 72.6 57.5 Q 71.8 56.6, 71.8 55.0 M 74.8 57.7 Q 75.8 57.7, 76.4 57.0 Q 76.9 56.3, 76.9 55.0 Q 76.9 53.7, 76.4 53.0 Q 75.8 52.3, 74.8 52.3 Q 73.8 52.3, 73.3 53.0 Q 72.7 53.7, 72.7 55.0 Q 72.7 56.3, 73.3 57.0 Q 73.8 57.7, 74.8 57.7 " fill="#FF0000"/>
<path class="legend" d="M 57.0 141.1 L 59.5 141.1 L 59.5 132.6 L 56.8 133.5 L 56.4 132.5 L 59.9 131.0 L 61.0 131.2 L 61.0 141.1 L 63.2 141.1 L 63.2 142.4 L 57.0 142.4 L 57.0 141.1 " fill="#000000"/>
<path class="legend" d="M 69.1 135.3 Q 70.1 135.3, 70.9 135.7 Q 71.7 136.2, 72.1 136.9 Q 72.5 137.7, 72.5 138.7 Q 72.5 139.8, 72.0 140.7 Q 71.6 141.5, 70.7 142.0 Q 69.8 142.5, 68.7 142.5 Q 66.7 142.5, 65.7 141.1 Q 64.7 139.8, 64.7 137.0 Q 64.7 134.0, 65.9 132.5 Q 67.2 130.9, 69.6 130.9 Q 70.3 130.9, 70.9 131.1 Q 71.5 131.2, 72.1 131.6 L 71.5 132.6 Q 70.6 132.2, 69.6 132.2 Q 68.0 132.2, 67.2 133.2 Q 66.4 134.3, 66.3 136.4 Q 66.9 135.9, 67.6 135.6 Q 68.3 135.3, 69.1 135.3 M 68.7 141.2 Q 69.4 141.2, 69.9 140.9 Q 70.4 140.5, 70.7 140.0 Q 70.9 139.4, 70.9 138.7 Q 70.9 137.7, 70.4 137.2 Q 69.8 136.6, 68.8 136.6 Q 68.1 136.6, 67.5 136.9 Q 66.8 137.1, 66.3 137.6 Q 66.4 139.5, 67.0 140.3 Q 67.5 141.2, 68.7 141.2 " fill="#000000"/>
<path class="legend" d="M 78.3 142.5 Q 76.3 142.5, 75.2 141.0 Q 74.2 139.4, 74.2 136.7 Q 74.2 134.0, 75.2 132.4 Q 76.3 130.9, 78.3 130.9 Q 80.4 130.9, 81.5 132.4 Q 82.5 134.0, 82.5 136.7 Q 82.5 139.4, 81.5 141.0 Q 80.4 142.5, 78.3 142.5 M 78.3 141.2 Q 79.6 141.2, 80.2 140.1 Q 80.9 138.9, 80.9 136.7 Q 80.9 134.5, 80.2 133.3 Q 79.6 132.2, 78.3 132.2 Q 77.1 132.2, 76.5 133.3 Q 75.8 134.5, 75.8 136.7 Q 75.8 138.9, 76.5 140.1 Q 77.1 141.2, 78.3 141.2 " fill="#000000"/>
<path class="legend" d="M 88.5 142.5 Q 86.4 142.5, 85.3 141.0 Q 84.3 139.4, 84.3 136.7 Q 84.3 134.0, 85.3 132.4 Q 86.4 130.9, 88.5 130.9 Q 90.6 130.9, 91.6 132.4 Q 92.6 134.0, 92.6 136.7 Q 92.6 139.4, 91.6 141.0 Q 90.5 142.5, 88.5 142.5 M 88.5 141.2 Q 89.7 141.2, 90.3 140.1 Q 91.0 138.9, 91.0 136.7 Q 91.0 134.5, 90.3 133.3 Q 89.7 132.2, 88.5 132.2 Q 87.2 132.2, 86.6 133.3 Q 85.9 134.5, 85.9 136.7 Q 85.9 138.9, 86.6 140.1 Q 87.2 141.2, 88.5 141.2 " fill="#000000"/>
</svg>