<svg xmlns="http://www.w3.org/2000/svg" xmlns:rdkit="http://www.rdkit.org/xml" xmlns:xlink="http://www.w3.org/1999/xlink" version="1.1" baseProfile="full" xml:space="preserve" width="150px" height="150px" viewBox="0 0 150 150">
<!-- END OF HEADER -->
<rect style="opacity:1.0;fill:#FFFFFF;stroke:none" width="150.0" height="150.0" x="0.0" y="0.0"> </rect>
<ellipse cx="22.0" cy="86.4" rx="5.5" ry="5.5" class="atom-0" style="fill:#E5E533;fill-rule:evenodd;stroke:#E5E533;stroke-width:1.0px;stroke-linecap:butt;stroke-linejoin:miter;stroke-opacity:1"/>
<ellipse cx="48.5" cy="93.7" rx="5.5" ry="5.5" class="atom-2" style="fill:#E5E533;fill-rule:evenodd;stroke:#E5E533;stroke-width:1.0px;stroke-linecap:butt;stroke-linejoin:miter;stroke-opacity:1"/>
<ellipse cx="34.6" cy="40.5" rx="5.5" ry="5.5" class="atom-3" style="fill:#E5E533;fill-rule:evenodd;stroke:#E5E533;stroke-width:1.0px;stroke-linecap:butt;stroke-linejoin:miter;stroke-opacity:1"/>
<ellipse cx="68.1" cy="74.4" rx="5.5" ry="5.5" class="atom-4" style="fill:#9999E5;fill-rule:evenodd;stroke:#9999E5;stroke-width:1.0px;stroke-linecap:butt;stroke-linejoin:miter;stroke-opacity:1"/>
<ellipse cx="61.1" cy="47.8" rx="5.5" ry="5.5" class="atom-5" style="fill:#E5E533;fill-rule:evenodd;stroke:#E5E533;stroke-width:1.0px;stroke-linecap:butt;stroke-linejoin:miter;stroke-opacity:1"/>
<path class="bond-0 atom-0 atom-1" d="M 22.0,86.4 L 16.3,64.7" style="fill:none;fill-rule:evenodd;stroke:#E5E5E5;stroke-width:1.5px;stroke-linecap:butt;stroke-linejoin:miter;stroke-opacity:1"/>
<path class="bond-1 atom-0 atom-2" d="M 22.0,86.4 L 48.5,93.7" style="fill:none;fill-rule:evenodd;stroke:#000000;stroke-width:2.0px;stroke-linecap:butt;stroke-linejoin:miter;stroke-opacity:1"/>
<path class="bond-1 atom-0 atom-2" d="M 25.4,83.1 L 47.3,89.1" style="fill:none;fill-rule:evenodd;stroke:#000000;stroke-width:2.0px;stroke-linecap:butt;stroke-linejoin:miter;stroke-opacity:1"/>
<path class="bond-2 atom-1 atom-3" d="M 19.0,55.9 L 34.6,40.5" style="fill:none;fill-rule:evenodd;stroke:#E5E5E5;stroke-width:1.5px;stroke-linecap:butt;stroke-linejoin:miter;stroke-opacity:1"/>
<path class="bond-2 atom-1 atom-3" d="M 21.9,58.8 L 35.8,45.1" style="fill:none;fill-rule:evenodd;stroke:#E5E5E5;stroke-width:1.5px;stroke-linecap:butt;stroke-linejoin:miter;stroke-opacity:1"/>
<path class="bond-3 atom-2 atom-4" d="M 48.5,93.7 L 68.1,74.4" style="fill:none;fill-rule:evenodd;stroke:#000000;stroke-width:2.0px;stroke-linecap:butt;stroke-linejoin:miter;stroke-opacity:1"/>
<path class="bond-4 atom-3 atom-5" d="M 34.6,40.5 L 61.1,47.8" style="fill:none;fill-rule:evenodd;stroke:#000000;stroke-width:2.0px;stroke-linecap:butt;stroke-linejoin:miter;stroke-opacity:1"/>
<path class="bond-5 atom-4 atom-5" d="M 68.1,74.4 L 61.1,47.8" style="fill:none;fill-rule:evenodd;stroke:#000000;stroke-width:2.0px;stroke-linecap:butt;stroke-linejoin:miter;stroke-opacity:1"/>
<path class="bond-5 atom-4 atom-5" d="M 63.5,73.2 L 57.8,51.2" style="fill:none;fill-rule:evenodd;stroke:#000000;stroke-width:2.0px;stroke-linecap:butt;stroke-linejoin:miter;stroke-opacity:1"/>
<path class="bond-6 atom-4 atom-6" d="M 68.1,74.4 L 94.6,81.7" style="fill:none;fill-rule:evenodd;stroke:#000000;stroke-width:2.0px;stroke-linecap:butt;stroke-linejoin:miter;stroke-opacity:1"/>
<path class="bond-7 atom-5 atom-7" d="M 61.1,47.8 L 68.7,40.4" style="fill:none;fill-rule:evenodd;stroke:#000000;stroke-width:2.0px;stroke-linecap:butt;stroke-linejoin:miter;stroke-opacity:1"/>
<path class="bond-7 atom-5 atom-7" d="M 68.7,40.4 L 76.2,32.9" style="fill:none;fill-rule:evenodd;stroke:#FF0000;stroke-width:2.0px;stroke-linecap:butt;stroke-linejoin:miter;stroke-opacity:1"/>
<path class="bond-8 atom-6 atom-8" d="M 94.6,81.7 L 97.4,92.6" style="fill:none;fill-rule:evenodd;stroke:#000000;stroke-width:2.0px;stroke-linecap:butt;stroke-linejoin:miter;stroke-opacity:1"/>
<path class="bond-8 atom-6 atom-8" d="M 97.4,92.6 L 100.2,103.5" style="fill:none;fill-rule:evenodd;stroke:#FF0000;stroke-width:2.0px;stroke-linecap:butt;stroke-linejoin:miter;stroke-opacity:1"/>
<path class="bond-9 atom-6 atom-9" d="M 94.6,81.7 L 102.7,73.8" style="fill:none;fill-rule:evenodd;stroke:#000000;stroke-width:2.0px;stroke-linecap:butt;stroke-linejoin:miter;stroke-opacity:1"/>
<path class="bond-9 atom-6 atom-9" d="M 102.7,73.8 L 110.8,65.8" style="fill:none;fill-rule:evenodd;stroke:#CCCC00;stroke-width:2.0px;stroke-linecap:butt;stroke-linejoin:miter;stroke-opacity:1"/>
<path class="bond-10 atom-10 atom-9" d="M 133.2,43.7 L 117.6,59.1" style="fill:none;fill-rule:evenodd;stroke:#E5E5E5;stroke-width:1.5px;stroke-linecap:butt;stroke-linejoin:miter;stroke-opacity:1"/>
<path class="bond-11 atom-11 atom-9" d="M 129.2,80.7 L 116.1,67.3" style="fill:none;fill-rule:evenodd;stroke:#E5E5E5;stroke-width:1.5px;stroke-linecap:butt;stroke-linejoin:miter;stroke-opacity:1"/>
<path class="bond-11 atom-11 atom-9" d="M 132.2,77.8 L 119.0,64.5" style="fill:none;fill-rule:evenodd;stroke:#E5E5E5;stroke-width:1.5px;stroke-linecap:butt;stroke-linejoin:miter;stroke-opacity:1"/>
<path class="bond-12 atom-12 atom-9" d="M 96.8,41.9 L 112.2,57.5" style="fill:none;fill-rule:evenodd;stroke:#E5E5E5;stroke-width:1.5px;stroke-linecap:butt;stroke-linejoin:miter;stroke-opacity:1"/>
<path class="bond-12 atom-12 atom-9" d="M 93.9,44.8 L 109.3,60.4" style="fill:none;fill-rule:evenodd;stroke:#E5E5E5;stroke-width:1.5px;stroke-linecap:butt;stroke-linejoin:miter;stroke-opacity:1"/>
<path d="M 21.8,85.9 L 22.0,86.4 L 22.6,86.6" style="fill:none;stroke:#E5E5E5;stroke-width:1.5px;stroke-linecap:butt;stroke-linejoin:miter;stroke-opacity:1;"/>
<path d="M 47.2,93.4 L 48.5,93.7 L 49.5,92.8" style="fill:none;stroke:#000000;stroke-width:2.0px;stroke-linecap:butt;stroke-linejoin:miter;stroke-opacity:1;"/>
<path d="M 34.2,40.9 L 34.6,40.5 L 35.3,40.7" style="fill:none;stroke:#E5E5E5;stroke-width:1.5px;stroke-linecap:butt;stroke-linejoin:miter;stroke-opacity:1;"/>
<path class="atom-1" d="M 7.9 58.9 L 9.0 57.8 L 7.5 57.5 L 7.7 56.7 L 9.1 57.4 L 8.9 55.9 L 9.8 55.8 L 9.5 57.4 L 10.9 56.7 L 11.2 57.5 L 9.6 57.7 L 10.7 58.9 L 10.1 59.4 L 9.3 58.0 L 8.5 59.4 L 7.9 58.9 " fill="#191919"/>
<path class="atom-1" d="M 12.0 56.0 L 13.1 56.0 L 13.1 59.3 L 17.0 59.3 L 17.0 56.0 L 18.1 56.0 L 18.1 63.8 L 17.0 63.8 L 17.0 60.2 L 13.1 60.2 L 13.1 63.8 L 12.0 63.8 L 12.0 56.0 " fill="#191919"/>
<path class="atom-7" d="M 77.2 28.5 Q 77.2 26.7, 78.1 25.6 Q 79.0 24.6, 80.7 24.6 Q 82.5 24.6, 83.4 25.6 Q 84.3 26.7, 84.3 28.5 Q 84.3 30.4, 83.4 31.5 Q 82.4 32.6, 80.7 32.6 Q 79.0 32.6, 78.1 31.5 Q 77.2 30.4, 77.2 28.5 M 80.7 31.7 Q 81.9 31.7, 82.6 30.9 Q 83.2 30.1, 83.2 28.5 Q 83.2 27.0, 82.6 26.2 Q 81.9 25.5, 80.7 25.5 Q 79.5 25.5, 78.9 26.2 Q 78.3 27.0, 78.3 28.5 Q 78.3 30.1, 78.9 30.9 Q 79.5 31.7, 80.7 31.7 " fill="#FF0000"/>
<path class="atom-7" d="M 85.5 24.7 L 86.6 24.7 L 86.6 28.0 L 90.6 28.0 L 90.6 24.7 L 91.6 24.7 L 91.6 32.5 L 90.6 32.5 L 90.6 28.9 L 86.6 28.9 L 86.6 32.5 L 85.5 32.5 L 85.5 24.7 " fill="#FF0000"/>
<path class="atom-8" d="M 97.9 108.4 Q 97.9 106.5, 98.8 105.5 Q 99.8 104.4, 101.5 104.4 Q 103.2 104.4, 104.1 105.5 Q 105.1 106.5, 105.1 108.4 Q 105.1 110.3, 104.1 111.3 Q 103.2 112.4, 101.5 112.4 Q 99.8 112.4, 98.8 111.3 Q 97.9 110.3, 97.9 108.4 M 101.5 111.5 Q 102.7 111.5, 103.3 110.7 Q 104.0 109.9, 104.0 108.4 Q 104.0 106.9, 103.3 106.1 Q 102.7 105.3, 101.5 105.3 Q 100.3 105.3, 99.7 106.1 Q 99.0 106.8, 99.0 108.4 Q 99.0 110.0, 99.7 110.7 Q 100.3 111.5, 101.5 111.5 " fill="#FF0000"/>
<path class="atom-8" d="M 106.3 104.5 L 107.3 104.5 L 107.3 107.8 L 111.3 107.8 L 111.3 104.5 L 112.4 104.5 L 112.4 112.3 L 111.3 112.3 L 111.3 108.7 L 107.3 108.7 L 107.3 112.3 L 106.3 112.3 L 106.3 104.5 " fill="#FF0000"/>
<path class="atom-9" d="M 112.0 65.1 Q 112.0 65.2, 112.4 65.3 Q 112.8 65.5, 113.2 65.6 Q 113.6 65.6, 114.0 65.6 Q 114.7 65.6, 115.1 65.3 Q 115.6 64.9, 115.6 64.3 Q 115.6 63.9, 115.3 63.6 Q 115.1 63.3, 114.8 63.2 Q 114.5 63.1, 113.9 62.9 Q 113.2 62.7, 112.8 62.5 Q 112.4 62.3, 112.1 61.9 Q 111.8 61.5, 111.8 60.8 Q 111.8 59.8, 112.5 59.2 Q 113.2 58.6, 114.5 58.6 Q 115.4 58.6, 116.4 59.0 L 116.1 59.8 Q 115.2 59.5, 114.5 59.5 Q 113.8 59.5, 113.3 59.8 Q 112.9 60.1, 112.9 60.6 Q 112.9 61.0, 113.1 61.3 Q 113.4 61.5, 113.7 61.7 Q 114.0 61.8, 114.5 62.0 Q 115.2 62.2, 115.6 62.4 Q 116.1 62.7, 116.3 63.1 Q 116.7 63.5, 116.7 64.3 Q 116.7 65.4, 115.9 66.0 Q 115.2 66.5, 114.0 66.5 Q 113.3 66.5, 112.8 66.4 Q 112.3 66.2, 111.7 66.0 L 112.0 65.1 " fill="#CCCC00"/>
<path class="atom-10" d="M 132.3 42.3 L 133.4 41.1 L 131.9 40.8 L 132.1 40.0 L 133.5 40.7 L 133.3 39.2 L 134.2 39.2 L 133.9 40.7 L 135.3 40.1 L 135.6 40.8 L 134.0 41.1 L 135.1 42.3 L 134.5 42.8 L 133.7 41.3 L 132.9 42.8 L 132.3 42.3 " fill="#191919"/>
<path class="atom-10" d="M 136.4 39.3 L 137.5 39.3 L 137.5 42.6 L 141.4 42.6 L 141.4 39.3 L 142.5 39.3 L 142.5 47.1 L 141.4 47.1 L 141.4 43.5 L 137.5 43.5 L 137.5 47.1 L 136.4 47.1 L 136.4 39.3 " fill="#191919"/>
<path class="atom-11" d="M 132.0 81.2 L 133.1 80.0 L 131.6 79.7 L 131.8 78.9 L 133.2 79.6 L 133.0 78.1 L 133.9 78.1 L 133.6 79.6 L 135.1 78.9 L 135.3 79.7 L 133.8 80.0 L 134.9 81.2 L 134.2 81.6 L 133.4 80.2 L 132.7 81.6 L 132.0 81.2 " fill="#191919"/>
<path class="atom-12" d="M 93.4 42.0 L 94.5 40.8 L 93.0 40.5 L 93.2 39.7 L 94.6 40.4 L 94.4 38.9 L 95.3 38.9 L 95.0 40.4 L 96.5 39.8 L 96.7 40.5 L 95.2 40.8 L 96.3 42.0 L 95.6 42.5 L 94.8 41.0 L 94.1 42.5 L 93.4 42.0 " fill="#191919"/>
<path class="legend" d="M 57.2 141.1 L 59.6 141.1 L 59.6 132.6 L 56.9 133.5 L 56.5 132.5 L 60.0 131.0 L 61.1 131.2 L 61.1 141.1 L 63.4 141.1 L 63.4 142.4 L 57.2 142.4 L 57.2 141.1 " fill="#000000"/>
<path class="legend" d="M 69.2 135.3 Q 70.2 135.3, 71.0 135.7 Q 71.8 136.2, 72.2 136.9 Q 72.7 137.7, 72.7 138.7 Q 72.7 139.8, 72.2 140.7 Q 71.7 141.5, 70.8 142.0 Q 70.0 142.5, 68.9 142.5 Q 66.8 142.5, 65.8 141.1 Q 64.8 139.8, 64.8 137.0 Q 64.8 134.0, 66.1 132.5 Q 67.3 130.9, 69.7 130.9 Q 70.4 130.9, 71.0 131.1 Q 71.6 131.2, 72.2 131.6 L 71.6 132.6 Q 70.8 132.2, 69.8 132.2 Q 68.2 132.2, 67.3 133.2 Q 66.5 134.3, 66.4 136.4 Q 67.0 135.9, 67.7 135.6 Q 68.5 135.3, 69.2 135.3 M 68.9 141.2 Q 69.5 141.2, 70.0 140.9 Q 70.5 140.5, 70.8 140.0 Q 71.1 139.4, 71.1 138.7 Q 71.1 137.7, 70.5 137.2 Q 69.9 136.6, 69.0 136.6 Q 68.3 136.6, 67.6 136.9 Q 66.9 137.1, 66.4 137.6 Q 66.5 139.5, 67.1 140.3 Q 67.7 141.2, 68.9 141.2 " fill="#000000"/>
<path class="legend" d="M 81.7 138.5 L 83.1 138.5 L 83.1 139.8 L 81.7 139.8 L 81.7 142.4 L 80.2 142.4 L 80.2 139.8 L 74.3 139.8 L 74.3 138.8 L 79.3 131.0 L 81.7 131.0 L 81.7 138.5 M 76.2 138.5 L 80.2 138.5 L 80.2 132.1 L 76.2 138.5 " fill="#000000"/>
<path class="legend" d="M 89.0 135.3 Q 90.0 135.3, 90.8 135.7 Q 91.6 136.2, 92.0 136.9 Q 92.5 137.7, 92.5 138.7 Q 92.5 139.8, 92.0 140.7 Q 91.5 141.5, 90.6 142.0 Q 89.8 142.5, 88.7 142.5 Q 86.6 142.5, 85.6 141.1 Q 84.6 139.8, 84.6 137.0 Q 84.6 134.0, 85.9 132.5 Q 87.1 130.9, 89.5 130.9 Q 90.2 130.9, 90.8 131.1 Q 91.4 131.2, 92.0 131.6 L 91.4 132.6 Q 90.6 132.2, 89.6 132.2 Q 88.0 132.2, 87.1 133.2 Q 86.3 134.3, 86.2 136.4 Q 86.8 135.9, 87.5 135.6 Q 88.3 135.3, 89.0 135.3 M 88.7 141.2 Q 89.3 141.2, 89.8 140.9 Q 90.3 140.5, 90.6 140.0 Q 90.9 139.4, 90.9 138.7 Q 90.9 137.7, 90.3 137.2 Q 89.8 136.6, 88.8 136.6 Q 88.1 136.6, 87.4 136.9 Q 86.7 137.1, 86.2 137.6 Q 86.3 139.5, 86.9 140.3 Q 87.5 141.2, 88.7 141.2 " fill="#000000"/>
</svg>