<svg xmlns="http://www.w3.org/2000/svg" xmlns:rdkit="http://www.rdkit.org/xml" xmlns:xlink="http://www.w3.org/1999/xlink" version="1.1" baseProfile="full" xml:space="preserve" width="150px" height="150px" viewBox="0 0 150 150">
<!-- END OF HEADER -->
<rect style="opacity:1.0;fill:#FFFFFF;stroke:none" width="150.0" height="150.0" x="0.0" y="0.0"> </rect>
<ellipse cx="38.6" cy="62.3" rx="8.2" ry="8.2" class="atom-1" style="fill:#9999E5;fill-rule:evenodd;stroke:#9999E5;stroke-width:1.0px;stroke-linecap:butt;stroke-linejoin:miter;stroke-opacity:1"/>
<path class="bond-0 atom-0 atom-1" d="M 11.8,93.4 L 38.6,62.3" style="fill:none;fill-rule:evenodd;stroke:#000000;stroke-width:2.0px;stroke-linecap:butt;stroke-linejoin:miter;stroke-opacity:1"/>
<path class="bond-1 atom-2 atom-1" d="M 65.5,31.1 L 38.6,62.3" style="fill:none;fill-rule:evenodd;stroke:#000000;stroke-width:2.0px;stroke-linecap:butt;stroke-linejoin:miter;stroke-opacity:1"/>
<path class="bond-2 atom-3 atom-1" d="M 7.5,35.4 L 38.6,62.3" style="fill:none;fill-rule:evenodd;stroke:#000000;stroke-width:2.0px;stroke-linecap:butt;stroke-linejoin:miter;stroke-opacity:1"/>
<path class="bond-3 atom-4 atom-5" d="M 105.2,76.7 L 133.6,101.2" style="fill:none;fill-rule:evenodd;stroke:#E5E5E5;stroke-width:2.2px;stroke-linecap:butt;stroke-linejoin:miter;stroke-opacity:1"/>
<path class="bond-3 atom-4 atom-5" d="M 109.3,72.1 L 137.6,96.5" style="fill:none;fill-rule:evenodd;stroke:#E5E5E5;stroke-width:2.2px;stroke-linecap:butt;stroke-linejoin:miter;stroke-opacity:1"/>
<path class="bond-4 atom-4 atom-6" d="M 108.6,75.6 L 92.1,81.3" style="fill:none;fill-rule:evenodd;stroke:#000000;stroke-width:2.0px;stroke-linecap:butt;stroke-linejoin:miter;stroke-opacity:1"/>
<path class="bond-4 atom-4 atom-6" d="M 92.1,81.3 L 75.6,87.1" style="fill:none;fill-rule:evenodd;stroke:#0000FF;stroke-width:2.0px;stroke-linecap:butt;stroke-linejoin:miter;stroke-opacity:1"/>
<path class="bond-5 atom-4 atom-7" d="M 108.6,75.6 L 116.1,35.9" style="fill:none;fill-rule:evenodd;stroke:#E5E5E5;stroke-width:2.2px;stroke-linecap:butt;stroke-linejoin:miter;stroke-opacity:1"/>
<path class="bond-6 atom-1 atom-6" d="M 38.6,62.3 L 51.3,73.2" style="fill:none;fill-rule:evenodd;stroke:#000000;stroke-width:2.0px;stroke-linecap:butt;stroke-linejoin:miter;stroke-opacity:1"/>
<path class="bond-6 atom-1 atom-6" d="M 51.3,73.2 L 64.0,84.1" style="fill:none;fill-rule:evenodd;stroke:#0000FF;stroke-width:2.0px;stroke-linecap:butt;stroke-linejoin:miter;stroke-opacity:1"/>
<path d="M 108.2,75.7 L 108.6,75.6 L 108.8,74.6" style="fill:none;stroke:#000000;stroke-width:2.0px;stroke-linecap:butt;stroke-linejoin:miter;stroke-opacity:1;"/>
<path class="atom-5" d="M 137.5 101.1 L 139.3 99.4 L 137.0 98.9 L 137.3 97.7 L 139.4 98.8 L 139.1 96.5 L 140.4 96.5 L 140.0 98.8 L 142.1 97.8 L 142.5 98.9 L 140.2 99.3 L 141.8 101.1 L 140.8 101.8 L 139.7 99.6 L 138.6 101.8 L 137.5 101.1 " fill="#191919"/>
<path class="atom-6" d="M 67.2 83.3 L 71.0 89.5 Q 71.4 90.1, 72.0 91.2 Q 72.6 92.3, 72.7 92.3 L 72.7 83.3 L 74.2 83.3 L 74.2 94.9 L 72.6 94.9 L 68.5 88.2 Q 68.0 87.4, 67.5 86.5 Q 67.0 85.6, 66.9 85.3 L 66.9 94.9 L 65.4 94.9 L 65.4 83.3 L 67.2 83.3 " fill="#0000FF"/>
<path class="atom-6" d="M 65.2 96.1 L 66.8 96.1 L 66.8 101.1 L 72.8 101.1 L 72.8 96.1 L 74.3 96.1 L 74.3 107.7 L 72.8 107.7 L 72.8 102.4 L 66.8 102.4 L 66.8 107.7 L 65.2 107.7 L 65.2 96.1 " fill="#0000FF"/>
<path class="atom-7" d="M 114.1 33.9 L 115.8 32.1 L 113.5 31.7 L 113.9 30.5 L 116.0 31.6 L 115.7 29.3 L 116.9 29.3 L 116.5 31.5 L 118.7 30.6 L 119.0 31.7 L 116.7 32.1 L 118.4 33.9 L 117.4 34.6 L 116.2 32.4 L 115.1 34.6 L 114.1 33.9 " fill="#191919"/>
<path class="atom-7" d="M 120.3 29.5 L 121.8 29.5 L 121.8 34.4 L 127.8 34.4 L 127.8 29.5 L 129.4 29.5 L 129.4 41.1 L 127.8 41.1 L 127.8 35.7 L 121.8 35.7 L 121.8 41.1 L 120.3 41.1 L 120.3 29.5 " fill="#191919"/>
<path class="legend" d="M 57.5 141.1 L 60.0 141.1 L 60.0 132.6 L 57.3 133.4 L 56.9 132.5 L 60.4 130.9 L 61.5 131.1 L 61.5 141.1 L 63.8 141.1 L 63.8 142.3 L 57.5 142.3 L 57.5 141.1 " fill="#000000"/>
<path class="legend" d="M 69.6 135.3 Q 70.6 135.3, 71.4 135.7 Q 72.2 136.1, 72.6 136.9 Q 73.0 137.7, 73.0 138.7 Q 73.0 139.8, 72.5 140.7 Q 72.1 141.5, 71.2 142.0 Q 70.3 142.5, 69.2 142.5 Q 67.2 142.5, 66.2 141.1 Q 65.2 139.7, 65.2 137.0 Q 65.2 134.0, 66.4 132.5 Q 67.7 130.9, 70.1 130.9 Q 70.8 130.9, 71.4 131.0 Q 72.0 131.2, 72.6 131.5 L 72.0 132.6 Q 71.1 132.2, 70.1 132.2 Q 68.5 132.2, 67.7 133.2 Q 66.9 134.2, 66.8 136.4 Q 67.4 135.8, 68.1 135.6 Q 68.8 135.3, 69.6 135.3 M 69.2 141.2 Q 69.9 141.2, 70.4 140.8 Q 70.9 140.5, 71.2 140.0 Q 71.4 139.4, 71.4 138.7 Q 71.4 137.7, 70.9 137.1 Q 70.3 136.5, 69.3 136.5 Q 68.6 136.5, 68.0 136.8 Q 67.3 137.1, 66.8 137.6 Q 66.9 139.5, 67.5 140.3 Q 68.0 141.2, 69.2 141.2 " fill="#000000"/>
<path class="legend" d="M 80.5 136.3 Q 81.5 136.8, 82.1 137.5 Q 82.7 138.1, 82.7 139.2 Q 82.7 140.2, 82.2 140.9 Q 81.7 141.7, 80.8 142.1 Q 79.9 142.5, 78.7 142.5 Q 76.9 142.5, 75.8 141.6 Q 74.7 140.8, 74.7 139.2 Q 74.7 138.3, 75.2 137.6 Q 75.6 136.9, 76.6 136.4 Q 75.9 136.0, 75.5 135.4 Q 75.1 134.7, 75.1 133.8 Q 75.1 132.5, 76.1 131.7 Q 77.0 130.9, 78.7 130.9 Q 80.3 130.9, 81.3 131.7 Q 82.3 132.5, 82.3 133.8 Q 82.3 134.6, 81.8 135.2 Q 81.4 135.8, 80.5 136.3 M 78.7 132.1 Q 77.7 132.1, 77.2 132.5 Q 76.7 133.0, 76.7 133.8 Q 76.7 134.4, 77.0 134.8 Q 77.4 135.2, 77.9 135.4 Q 78.4 135.6, 79.4 135.9 Q 80.1 135.5, 80.4 134.9 Q 80.7 134.4, 80.7 133.8 Q 80.7 133.0, 80.1 132.5 Q 79.6 132.1, 78.7 132.1 M 78.7 141.3 Q 79.8 141.3, 80.4 140.7 Q 81.1 140.2, 81.1 139.2 Q 81.1 138.6, 80.7 138.2 Q 80.4 137.8, 79.9 137.6 Q 79.4 137.4, 78.5 137.1 L 77.8 136.9 Q 77.0 137.3, 76.6 137.9 Q 76.3 138.5, 76.3 139.2 Q 76.3 140.2, 77.0 140.7 Q 77.6 141.3, 78.7 141.3 " fill="#000000"/>
<path class="legend" d="M 84.5 133.2 Q 84.9 132.1, 85.9 131.5 Q 86.9 130.9, 88.3 130.9 Q 90.0 130.9, 90.9 131.8 Q 91.9 132.7, 91.9 134.4 Q 91.9 136.1, 90.6 137.6 Q 89.4 139.2, 86.8 141.1 L 92.1 141.1 L 92.1 142.3 L 84.4 142.3 L 84.4 141.3 Q 86.6 139.8, 87.8 138.6 Q 89.1 137.5, 89.7 136.5 Q 90.3 135.5, 90.3 134.5 Q 90.3 133.4, 89.7 132.8 Q 89.2 132.2, 88.3 132.2 Q 87.3 132.2, 86.7 132.5 Q 86.1 132.9, 85.7 133.7 L 84.5 133.2 " fill="#000000"/>
</svg>