<svg xmlns="http://www.w3.org/2000/svg" xmlns:rdkit="http://www.rdkit.org/xml" xmlns:xlink="http://www.w3.org/1999/xlink" version="1.1" baseProfile="full" xml:space="preserve" width="150px" height="150px" viewBox="0 0 150 150">
<!-- END OF HEADER -->
<rect style="opacity:1.0;fill:#FFFFFF;stroke:none" width="150.0" height="150.0" x="0.0" y="0.0"> </rect>
<ellipse cx="71.9" cy="59.8" rx="4.8" ry="4.8" class="atom-3" style="fill:#9999E5;fill-rule:evenodd;stroke:#9999E5;stroke-width:1.0px;stroke-linecap:butt;stroke-linejoin:miter;stroke-opacity:1"/>
<path class="bond-0 atom-0 atom-1" d="M 128.3,80.1 L 112.5,66.9" style="fill:none;fill-rule:evenodd;stroke:#E5E5E5;stroke-width:1.3px;stroke-linecap:butt;stroke-linejoin:miter;stroke-opacity:1"/>
<path class="bond-1 atom-1 atom-2" d="M 112.5,66.9 L 90.2,75.1" style="fill:none;fill-rule:evenodd;stroke:#000000;stroke-width:2.0px;stroke-linecap:butt;stroke-linejoin:miter;stroke-opacity:1"/>
<path class="bond-2 atom-2 atom-3" d="M 90.2,75.1 L 82.7,68.8" style="fill:none;fill-rule:evenodd;stroke:#000000;stroke-width:2.0px;stroke-linecap:butt;stroke-linejoin:miter;stroke-opacity:1"/>
<path class="bond-2 atom-2 atom-3" d="M 82.7,68.8 L 75.3,62.6" style="fill:none;fill-rule:evenodd;stroke:#0000FF;stroke-width:2.0px;stroke-linecap:butt;stroke-linejoin:miter;stroke-opacity:1"/>
<path class="bond-3 atom-4 atom-5" d="M 11.5,60.1 L 28.1,54.0" style="fill:none;fill-rule:evenodd;stroke:#E5E5E5;stroke-width:1.3px;stroke-linecap:butt;stroke-linejoin:miter;stroke-opacity:1"/>
<path class="bond-4 atom-6 atom-3" d="M 49.6,68.0 L 59.1,64.5" style="fill:none;fill-rule:evenodd;stroke:#000000;stroke-width:2.0px;stroke-linecap:butt;stroke-linejoin:miter;stroke-opacity:1"/>
<path class="bond-4 atom-6 atom-3" d="M 59.1,64.5 L 68.6,61.1" style="fill:none;fill-rule:evenodd;stroke:#0000FF;stroke-width:2.0px;stroke-linecap:butt;stroke-linejoin:miter;stroke-opacity:1"/>
<path class="bond-4 atom-6 atom-3" d="M 50.9,71.4 L 60.3,67.9" style="fill:none;fill-rule:evenodd;stroke:#000000;stroke-width:2.0px;stroke-linecap:butt;stroke-linejoin:miter;stroke-opacity:1"/>
<path class="bond-4 atom-6 atom-3" d="M 60.3,67.9 L 69.8,64.4" style="fill:none;fill-rule:evenodd;stroke:#0000FF;stroke-width:2.0px;stroke-linecap:butt;stroke-linejoin:miter;stroke-opacity:1"/>
<path class="bond-5 atom-6 atom-5" d="M 49.6,68.0 L 42.2,61.8" style="fill:none;fill-rule:evenodd;stroke:#000000;stroke-width:2.0px;stroke-linecap:butt;stroke-linejoin:miter;stroke-opacity:1"/>
<path class="bond-5 atom-6 atom-5" d="M 42.2,61.8 L 34.7,55.6" style="fill:none;fill-rule:evenodd;stroke:#0000FF;stroke-width:2.0px;stroke-linecap:butt;stroke-linejoin:miter;stroke-opacity:1"/>
<path class="bond-6 atom-6 atom-7" d="M 49.6,68.0 L 48.0,77.7" style="fill:none;fill-rule:evenodd;stroke:#000000;stroke-width:2.0px;stroke-linecap:butt;stroke-linejoin:miter;stroke-opacity:1"/>
<path class="bond-6 atom-6 atom-7" d="M 48.0,77.7 L 46.3,87.3" style="fill:none;fill-rule:evenodd;stroke:#CCCC00;stroke-width:2.0px;stroke-linecap:butt;stroke-linejoin:miter;stroke-opacity:1"/>
<path d="M 112.9,67.2 L 112.5,66.9 L 111.9,67.1" style="fill:none;stroke:#E5E5E5;stroke-width:1.3px;stroke-linecap:butt;stroke-linejoin:miter;stroke-opacity:1;"/>
<path d="M 91.3,74.7 L 90.2,75.1 L 89.8,74.8" style="fill:none;stroke:#000000;stroke-width:2.0px;stroke-linecap:butt;stroke-linejoin:miter;stroke-opacity:1;"/>
<path class="atom-0" d="M 129.4 81.4 L 130.4 80.4 L 129.1 80.1 L 129.3 79.4 L 130.5 80.0 L 130.3 78.7 L 131.1 78.7 L 130.9 80.0 L 132.1 79.4 L 132.3 80.1 L 131.0 80.3 L 131.9 81.4 L 131.3 81.8 L 130.7 80.5 L 130.0 81.8 L 129.4 81.4 " fill="#191919"/>
<path class="atom-0" d="M 133.0 78.8 L 133.9 78.8 L 133.9 81.7 L 137.4 81.7 L 137.4 78.8 L 138.3 78.8 L 138.3 85.5 L 137.4 85.5 L 137.4 82.4 L 133.9 82.4 L 133.9 85.5 L 133.0 85.5 L 133.0 78.8 " fill="#191919"/>
<path class="atom-0" d="M 141.6 86.6 Q 142.1 86.7, 142.3 87.0 Q 142.5 87.2, 142.5 87.7 Q 142.5 88.1, 142.3 88.4 Q 142.1 88.6, 141.8 88.8 Q 141.4 89.0, 141.0 89.0 Q 140.5 89.0, 140.1 88.8 Q 139.8 88.6, 139.5 88.3 L 139.9 87.9 Q 140.1 88.2, 140.4 88.3 Q 140.6 88.5, 141.0 88.5 Q 141.4 88.5, 141.6 88.2 Q 141.9 88.0, 141.9 87.7 Q 141.9 87.2, 141.6 87.0 Q 141.4 86.8, 140.8 86.8 L 140.5 86.8 L 140.5 86.4 L 140.8 86.4 Q 141.3 86.4, 141.5 86.2 Q 141.8 85.9, 141.8 85.5 Q 141.8 85.3, 141.6 85.1 Q 141.4 84.9, 141.0 84.9 Q 140.6 84.9, 140.4 85.0 Q 140.2 85.2, 140.0 85.5 L 139.6 85.3 Q 139.7 84.9, 140.1 84.7 Q 140.5 84.4, 141.0 84.4 Q 141.6 84.4, 142.0 84.7 Q 142.4 85.0, 142.4 85.5 Q 142.4 85.9, 142.2 86.2 Q 142.0 86.4, 141.6 86.6 " fill="#191919"/>
<path class="atom-3" d="M 70.4 56.5 L 72.6 60.0 Q 72.9 60.4, 73.2 61.0 Q 73.6 61.7, 73.6 61.7 L 73.6 56.5 L 74.5 56.5 L 74.5 63.2 L 73.6 63.2 L 71.2 59.3 Q 70.9 58.9, 70.6 58.3 Q 70.3 57.8, 70.3 57.6 L 70.3 63.2 L 69.4 63.2 L 69.4 56.5 L 70.4 56.5 " fill="#0000FF"/>
<path class="atom-4" d="M 7.8 60.2 L 8.8 59.2 L 7.5 59.0 L 7.7 58.3 L 8.9 58.9 L 8.7 57.6 L 9.4 57.6 L 9.2 58.9 L 10.5 58.3 L 10.7 59.0 L 9.4 59.2 L 10.3 60.2 L 9.7 60.6 L 9.1 59.4 L 8.4 60.6 L 7.8 60.2 " fill="#191919"/>
<path class="atom-5" d="M 29.9 49.4 L 32.1 53.0 Q 32.3 53.3, 32.7 54.0 Q 33.0 54.6, 33.1 54.7 L 33.1 49.4 L 33.9 49.4 L 33.9 56.2 L 33.0 56.2 L 30.7 52.3 Q 30.4 51.8, 30.1 51.3 Q 29.8 50.8, 29.7 50.6 L 29.7 56.2 L 28.8 56.2 L 28.8 49.4 L 29.9 49.4 " fill="#0000FF"/>
<path class="atom-5" d="M 28.8 42.0 L 29.7 42.0 L 29.7 44.9 L 33.1 44.9 L 33.1 42.0 L 34.0 42.0 L 34.0 48.8 L 33.1 48.8 L 33.1 45.7 L 29.7 45.7 L 29.7 48.8 L 28.8 48.8 L 28.8 42.0 " fill="#0000FF"/>
<path class="atom-7" d="M 43.7 93.7 Q 43.7 93.8, 44.0 93.9 Q 44.4 94.0, 44.7 94.1 Q 45.1 94.2, 45.4 94.2 Q 46.0 94.2, 46.4 93.9 Q 46.8 93.6, 46.8 93.0 Q 46.8 92.7, 46.6 92.4 Q 46.4 92.2, 46.1 92.1 Q 45.8 92.0, 45.4 91.8 Q 44.8 91.6, 44.4 91.5 Q 44.0 91.3, 43.8 90.9 Q 43.5 90.6, 43.5 90.0 Q 43.5 89.1, 44.1 88.6 Q 44.7 88.1, 45.8 88.1 Q 46.6 88.1, 47.5 88.5 L 47.3 89.2 Q 46.5 88.8, 45.9 88.8 Q 45.2 88.8, 44.8 89.1 Q 44.5 89.4, 44.5 89.9 Q 44.5 90.2, 44.7 90.4 Q 44.9 90.7, 45.1 90.8 Q 45.4 90.9, 45.9 91.0 Q 46.5 91.2, 46.8 91.4 Q 47.2 91.6, 47.5 92.0 Q 47.7 92.4, 47.7 93.0 Q 47.7 94.0, 47.1 94.5 Q 46.5 95.0, 45.4 95.0 Q 44.8 95.0, 44.4 94.8 Q 43.9 94.7, 43.4 94.5 L 43.7 93.7 " fill="#CCCC00"/>
<path class="atom-7" d="M 48.6 88.1 L 49.6 88.1 L 49.6 90.9 L 53.0 90.9 L 53.0 88.1 L 53.9 88.1 L 53.9 94.8 L 53.0 94.8 L 53.0 91.7 L 49.6 91.7 L 49.6 94.8 L 48.6 94.8 L 48.6 88.1 " fill="#CCCC00"/>
<path class="legend" d="M 58.2 141.1 L 60.7 141.1 L 60.7 132.6 L 57.9 133.4 L 57.5 132.5 L 61.0 130.9 L 62.2 131.1 L 62.2 141.1 L 64.4 141.1 L 64.4 142.3 L 58.2 142.3 L 58.2 141.1 " fill="#000000"/>
<path class="legend" d="M 71.7 132.3 L 65.8 132.3 L 65.8 131.0 L 73.3 131.0 L 73.3 132.1 L 68.7 142.3 L 67.2 142.3 L 71.7 132.3 " fill="#000000"/>
<path class="legend" d="M 80.0 136.4 Q 81.1 136.7, 81.6 137.4 Q 82.1 138.1, 82.1 139.2 Q 82.1 140.2, 81.7 140.9 Q 81.2 141.7, 80.3 142.1 Q 79.4 142.5, 78.3 142.5 Q 77.0 142.5, 76.1 142.1 Q 75.2 141.7, 74.5 140.8 L 75.4 139.9 Q 76.1 140.6, 76.7 140.9 Q 77.3 141.2, 78.3 141.2 Q 79.3 141.2, 79.9 140.7 Q 80.5 140.1, 80.5 139.2 Q 80.5 138.1, 79.9 137.6 Q 79.2 137.0, 77.8 137.0 L 77.0 137.0 L 77.0 135.9 L 77.7 135.9 Q 79.0 135.9, 79.6 135.3 Q 80.3 134.8, 80.3 133.8 Q 80.3 133.0, 79.7 132.6 Q 79.2 132.2, 78.3 132.2 Q 77.3 132.2, 76.7 132.5 Q 76.2 132.8, 75.7 133.7 L 74.6 133.1 Q 75.0 132.1, 76.0 131.5 Q 76.9 130.9, 78.3 130.9 Q 79.9 130.9, 80.9 131.7 Q 81.9 132.5, 81.9 133.8 Q 81.9 134.7, 81.4 135.3 Q 80.9 136.0, 80.0 136.4 " fill="#000000"/>
<path class="legend" d="M 83.8 133.2 Q 84.3 132.1, 85.3 131.5 Q 86.2 130.9, 87.6 130.9 Q 89.3 130.9, 90.3 131.8 Q 91.3 132.7, 91.3 134.4 Q 91.3 136.1, 90.0 137.6 Q 88.8 139.2, 86.2 141.1 L 91.5 141.1 L 91.5 142.3 L 83.8 142.3 L 83.8 141.3 Q 85.9 139.8, 87.2 138.6 Q 88.4 137.5, 89.0 136.5 Q 89.7 135.5, 89.7 134.5 Q 89.7 133.4, 89.1 132.8 Q 88.6 132.2, 87.6 132.2 Q 86.7 132.2, 86.1 132.5 Q 85.5 132.9, 85.1 133.7 L 83.8 133.2 " fill="#000000"/>
</svg>