<svg xmlns="http://www.w3.org/2000/svg" xmlns:rdkit="http://www.rdkit.org/xml" xmlns:xlink="http://www.w3.org/1999/xlink" version="1.1" baseProfile="full" xml:space="preserve" width="150px" height="150px" viewBox="0 0 150 150">
<!-- END OF HEADER -->
<rect style="opacity:1.0;fill:#FFFFFF;stroke:none" width="150.0" height="150.0" x="0.0" y="0.0"> </rect>
<ellipse cx="32.6" cy="62.2" rx="5.0" ry="5.0" class="atom-1" style="fill:#E5E533;fill-rule:evenodd;stroke:#E5E533;stroke-width:1.0px;stroke-linecap:butt;stroke-linejoin:miter;stroke-opacity:1"/>
<ellipse cx="74.7" cy="72.1" rx="5.0" ry="5.0" class="atom-3" style="fill:#9999E5;fill-rule:evenodd;stroke:#9999E5;stroke-width:1.0px;stroke-linecap:butt;stroke-linejoin:miter;stroke-opacity:1"/>
<path class="bond-0 atom-0 atom-1" d="M 26.1,81.7 L 31.0,60.7" style="fill:none;fill-rule:evenodd;stroke:#E5E5E5;stroke-width:1.3px;stroke-linecap:butt;stroke-linejoin:miter;stroke-opacity:1"/>
<path class="bond-0 atom-0 atom-1" d="M 29.7,82.5 L 34.7,61.6" style="fill:none;fill-rule:evenodd;stroke:#E5E5E5;stroke-width:1.3px;stroke-linecap:butt;stroke-linejoin:miter;stroke-opacity:1;stroke-dasharray:6,4"/>
<path class="bond-1 atom-2 atom-1" d="M 19.2,47.1 L 34.7,61.6" style="fill:none;fill-rule:evenodd;stroke:#E5E5E5;stroke-width:1.3px;stroke-linecap:butt;stroke-linejoin:miter;stroke-opacity:1"/>
<path class="bond-1 atom-2 atom-1" d="M 16.7,49.8 L 32.1,64.3" style="fill:none;fill-rule:evenodd;stroke:#E5E5E5;stroke-width:1.3px;stroke-linecap:butt;stroke-linejoin:miter;stroke-opacity:1;stroke-dasharray:6,4"/>
<path class="bond-2 atom-3 atom-4" d="M 74.7,72.1 L 98.7,64.9" style="fill:none;fill-rule:evenodd;stroke:#000000;stroke-width:2.0px;stroke-linecap:butt;stroke-linejoin:miter;stroke-opacity:1"/>
<path class="bond-3 atom-3 atom-5" d="M 74.7,72.1 L 56.5,55.0" style="fill:none;fill-rule:evenodd;stroke:#000000;stroke-width:2.0px;stroke-linecap:butt;stroke-linejoin:miter;stroke-opacity:1"/>
<path class="bond-4 atom-1 atom-5" d="M 32.6,62.2 L 56.5,55.0" style="fill:none;fill-rule:evenodd;stroke:#000000;stroke-width:2.0px;stroke-linecap:butt;stroke-linejoin:miter;stroke-opacity:1"/>
<path class="bond-5 atom-4 atom-6" d="M 98.7,64.9 L 116.9,82.0" style="fill:none;fill-rule:evenodd;stroke:#000000;stroke-width:2.0px;stroke-linecap:butt;stroke-linejoin:miter;stroke-opacity:1"/>
<path class="bond-6 atom-4 atom-7" d="M 98.7,64.9 L 101.0,54.9" style="fill:none;fill-rule:evenodd;stroke:#000000;stroke-width:2.0px;stroke-linecap:butt;stroke-linejoin:miter;stroke-opacity:1"/>
<path class="bond-6 atom-4 atom-7" d="M 101.0,54.9 L 103.4,44.9" style="fill:none;fill-rule:evenodd;stroke:#0000FF;stroke-width:2.0px;stroke-linecap:butt;stroke-linejoin:miter;stroke-opacity:1"/>
<path class="bond-7 atom-5 atom-8" d="M 58.1,56.5 L 60.5,46.0" style="fill:none;fill-rule:evenodd;stroke:#000000;stroke-width:2.0px;stroke-linecap:butt;stroke-linejoin:miter;stroke-opacity:1"/>
<path class="bond-7 atom-5 atom-8" d="M 60.5,46.0 L 63.0,35.6" style="fill:none;fill-rule:evenodd;stroke:#FF0000;stroke-width:2.0px;stroke-linecap:butt;stroke-linejoin:miter;stroke-opacity:1"/>
<path class="bond-7 atom-5 atom-8" d="M 54.4,55.6 L 56.9,45.2" style="fill:none;fill-rule:evenodd;stroke:#000000;stroke-width:2.0px;stroke-linecap:butt;stroke-linejoin:miter;stroke-opacity:1"/>
<path class="bond-7 atom-5 atom-8" d="M 56.9,45.2 L 59.4,34.7" style="fill:none;fill-rule:evenodd;stroke:#FF0000;stroke-width:2.0px;stroke-linecap:butt;stroke-linejoin:miter;stroke-opacity:1"/>
<path class="bond-8 atom-6 atom-9" d="M 116.4,84.1 L 139.8,77.1" style="fill:none;fill-rule:evenodd;stroke:#E5E5E5;stroke-width:1.3px;stroke-linecap:butt;stroke-linejoin:miter;stroke-opacity:1"/>
<path class="bond-8 atom-6 atom-9" d="M 115.3,80.5 L 138.7,73.5" style="fill:none;fill-rule:evenodd;stroke:#E5E5E5;stroke-width:1.3px;stroke-linecap:butt;stroke-linejoin:miter;stroke-opacity:1"/>
<path class="bond-9 atom-6 atom-10" d="M 116.9,82.0 L 112.2,101.9" style="fill:none;fill-rule:evenodd;stroke:#E5E5E5;stroke-width:1.3px;stroke-linecap:butt;stroke-linejoin:miter;stroke-opacity:1"/>
<path class="bond-10 atom-7 atom-11" d="M 108.4,41.3 L 127.3,35.6" style="fill:none;fill-rule:evenodd;stroke:#E5E5E5;stroke-width:1.3px;stroke-linecap:butt;stroke-linejoin:miter;stroke-opacity:1"/>
<path class="bond-10 atom-7 atom-11" d="M 107.4,37.7 L 126.2,32.0" style="fill:none;fill-rule:evenodd;stroke:#E5E5E5;stroke-width:1.3px;stroke-linecap:butt;stroke-linejoin:miter;stroke-opacity:1"/>
<path d="M 75.9,71.7 L 74.7,72.1 L 73.8,71.2" style="fill:none;stroke:#000000;stroke-width:2.0px;stroke-linecap:butt;stroke-linejoin:miter;stroke-opacity:1;"/>
<path d="M 57.4,55.8 L 56.5,55.0 L 55.3,55.3" style="fill:none;stroke:#000000;stroke-width:2.0px;stroke-linecap:butt;stroke-linejoin:miter;stroke-opacity:1;"/>
<path d="M 116.4,81.6 L 116.9,82.0 L 116.8,82.5" style="fill:none;stroke:#000000;stroke-width:2.0px;stroke-linecap:butt;stroke-linejoin:miter;stroke-opacity:1;"/>
<path class="atom-0" d="M 25.5 85.7 L 26.6 84.7 L 25.2 84.4 L 25.4 83.7 L 26.7 84.3 L 26.5 82.9 L 27.2 82.9 L 27.0 84.3 L 28.3 83.7 L 28.5 84.4 L 27.1 84.7 L 28.1 85.7 L 27.5 86.2 L 26.8 84.8 L 26.1 86.2 L 25.5 85.7 " fill="#191919"/>
<path class="atom-0" d="M 29.3 83.0 L 30.2 83.0 L 30.2 86.1 L 33.9 86.1 L 33.9 83.0 L 34.8 83.0 L 34.8 90.1 L 33.9 90.1 L 33.9 86.9 L 30.2 86.9 L 30.2 90.1 L 29.3 90.1 L 29.3 83.0 " fill="#191919"/>
<path class="atom-2" d="M 7.8 44.3 L 8.9 43.2 L 7.5 42.9 L 7.7 42.2 L 9.0 42.9 L 8.8 41.5 L 9.6 41.5 L 9.3 42.9 L 10.6 42.3 L 10.9 42.9 L 9.5 43.2 L 10.5 44.3 L 9.8 44.7 L 9.2 43.4 L 8.5 44.7 L 7.8 44.3 " fill="#191919"/>
<path class="atom-2" d="M 11.6 41.6 L 12.6 41.6 L 12.6 44.6 L 16.2 44.6 L 16.2 41.6 L 17.1 41.6 L 17.1 48.7 L 16.2 48.7 L 16.2 45.4 L 12.6 45.4 L 12.6 48.7 L 11.6 48.7 L 11.6 41.6 " fill="#191919"/>
<path class="atom-7" d="M 102.8 37.0 L 105.1 40.8 Q 105.4 41.1, 105.7 41.8 Q 106.1 42.5, 106.1 42.5 L 106.1 37.0 L 107.1 37.0 L 107.1 44.1 L 106.1 44.1 L 103.6 40.0 Q 103.3 39.5, 103.0 39.0 Q 102.7 38.4, 102.6 38.2 L 102.6 44.1 L 101.7 44.1 L 101.7 37.0 L 102.8 37.0 " fill="#0000FF"/>
<path class="atom-8" d="M 59.0 30.7 Q 59.0 29.0, 59.8 28.0 Q 60.7 27.1, 62.2 27.1 Q 63.8 27.1, 64.6 28.0 Q 65.5 29.0, 65.5 30.7 Q 65.5 32.4, 64.6 33.4 Q 63.8 34.3, 62.2 34.3 Q 60.7 34.3, 59.8 33.4 Q 59.0 32.4, 59.0 30.7 M 62.2 33.5 Q 63.3 33.5, 63.9 32.8 Q 64.5 32.1, 64.5 30.7 Q 64.5 29.3, 63.9 28.6 Q 63.3 27.9, 62.2 27.9 Q 61.2 27.9, 60.6 28.6 Q 60.0 29.3, 60.0 30.7 Q 60.0 32.1, 60.6 32.8 Q 61.2 33.5, 62.2 33.5 " fill="#FF0000"/>
<path class="atom-9" d="M 139.5 74.0 L 140.5 72.9 L 139.1 72.7 L 139.4 72.0 L 140.6 72.6 L 140.4 71.2 L 141.2 71.2 L 141.0 72.6 L 142.3 72.0 L 142.5 72.7 L 141.1 72.9 L 142.1 74.0 L 141.5 74.4 L 140.8 73.1 L 140.1 74.4 L 139.5 74.0 " fill="#191919"/>
<path class="atom-10" d="M 109.8 105.6 L 110.9 104.5 L 109.5 104.2 L 109.7 103.5 L 111.0 104.1 L 110.8 102.8 L 111.5 102.7 L 111.3 104.1 L 112.6 103.5 L 112.8 104.2 L 111.4 104.5 L 112.4 105.5 L 111.8 106.0 L 111.1 104.7 L 110.4 106.0 L 109.8 105.6 " fill="#191919"/>
<path class="atom-10" d="M 113.6 102.9 L 114.5 102.9 L 114.5 105.9 L 118.2 105.9 L 118.2 102.9 L 119.1 102.9 L 119.1 109.9 L 118.2 109.9 L 118.2 106.7 L 114.5 106.7 L 114.5 109.9 L 113.6 109.9 L 113.6 102.9 " fill="#191919"/>
<path class="atom-11" d="M 127.0 32.5 L 128.0 31.5 L 126.7 31.2 L 126.9 30.5 L 128.1 31.1 L 128.0 29.7 L 128.7 29.7 L 128.5 31.1 L 129.8 30.5 L 130.0 31.2 L 128.6 31.5 L 129.6 32.5 L 129.0 33.0 L 128.3 31.7 L 127.6 33.0 L 127.0 32.5 " fill="#191919"/>
<path class="legend" d="M 62.8 141.1 L 65.3 141.1 L 65.3 132.6 L 62.6 133.4 L 62.2 132.5 L 65.7 130.9 L 66.8 131.1 L 66.8 141.1 L 69.0 141.1 L 69.0 142.3 L 62.8 142.3 L 62.8 141.1 " fill="#000000"/>
<path class="legend" d="M 76.4 132.3 L 70.5 132.3 L 70.5 131.0 L 78.0 131.0 L 78.0 132.1 L 73.4 142.3 L 71.9 142.3 L 76.4 132.3 " fill="#000000"/>
<path class="legend" d="M 84.6 136.4 Q 85.7 136.7, 86.2 137.4 Q 86.8 138.1, 86.8 139.2 Q 86.8 140.2, 86.3 140.9 Q 85.8 141.7, 84.9 142.1 Q 84.1 142.5, 82.9 142.5 Q 81.7 142.5, 80.8 142.1 Q 79.9 141.7, 79.2 140.8 L 80.1 139.9 Q 80.8 140.6, 81.4 140.9 Q 82.0 141.2, 82.9 141.2 Q 83.9 141.2, 84.6 140.7 Q 85.2 140.1, 85.2 139.2 Q 85.2 138.1, 84.5 137.6 Q 83.9 137.0, 82.5 137.0 L 81.7 137.0 L 81.7 135.9 L 82.4 135.9 Q 83.6 135.9, 84.3 135.3 Q 84.9 134.8, 84.9 133.8 Q 84.9 133.0, 84.4 132.6 Q 83.9 132.2, 82.9 132.2 Q 82.0 132.2, 81.4 132.5 Q 80.8 132.8, 80.4 133.7 L 79.3 133.1 Q 79.7 132.1, 80.6 131.5 Q 81.6 130.9, 82.9 130.9 Q 84.6 130.9, 85.6 131.7 Q 86.5 132.5, 86.5 133.8 Q 86.5 134.7, 86.0 135.3 Q 85.6 136.0, 84.6 136.4 " fill="#000000"/>
</svg>