<svg xmlns="http://www.w3.org/2000/svg" xmlns:rdkit="http://www.rdkit.org/xml" xmlns:xlink="http://www.w3.org/1999/xlink" version="1.1" baseProfile="full" xml:space="preserve" width="150px" height="150px" viewBox="0 0 150 150">
<!-- END OF HEADER -->
<rect style="opacity:1.0;fill:#FFFFFF;stroke:none" width="150.0" height="150.0" x="0.0" y="0.0"> </rect>
<ellipse cx="38.5" cy="49.3" rx="4.9" ry="4.9" class="atom-1" style="fill:#E5E533;fill-rule:evenodd;stroke:#E5E533;stroke-width:1.0px;stroke-linecap:butt;stroke-linejoin:miter;stroke-opacity:1"/>
<ellipse cx="40.5" cy="91.6" rx="4.9" ry="4.9" class="atom-3" style="fill:#E5E533;fill-rule:evenodd;stroke:#E5E533;stroke-width:1.0px;stroke-linecap:butt;stroke-linejoin:miter;stroke-opacity:1"/>
<ellipse cx="51.7" cy="69.9" rx="4.9" ry="4.9" class="atom-4" style="fill:#E5E533;fill-rule:evenodd;stroke:#E5E533;stroke-width:1.0px;stroke-linecap:butt;stroke-linejoin:miter;stroke-opacity:1"/>
<ellipse cx="114.3" cy="79.2" rx="4.9" ry="4.9" class="atom-6" style="fill:#CCCCCC;fill-rule:evenodd;stroke:#CCCCCC;stroke-width:1.0px;stroke-linecap:butt;stroke-linejoin:miter;stroke-opacity:1"/>
<ellipse cx="76.2" cy="68.7" rx="4.9" ry="4.9" class="atom-7" style="fill:#9999E5;fill-rule:evenodd;stroke:#9999E5;stroke-width:1.0px;stroke-linecap:butt;stroke-linejoin:miter;stroke-opacity:1"/>
<ellipse cx="91.4" cy="87.8" rx="4.9" ry="4.9" class="atom-8" style="fill:#CCCCCC;fill-rule:evenodd;stroke:#CCCCCC;stroke-width:1.0px;stroke-linecap:butt;stroke-linejoin:miter;stroke-opacity:1"/>
<ellipse cx="113.2" cy="54.8" rx="4.9" ry="4.9" class="atom-9" style="fill:#CCCCCC;fill-rule:evenodd;stroke:#CCCCCC;stroke-width:1.0px;stroke-linecap:butt;stroke-linejoin:miter;stroke-opacity:1"/>
<ellipse cx="89.6" cy="48.3" rx="4.9" ry="4.9" class="atom-11" style="fill:#CCCCCC;fill-rule:evenodd;stroke:#CCCCCC;stroke-width:1.0px;stroke-linecap:butt;stroke-linejoin:miter;stroke-opacity:1"/>
<path class="bond-0 atom-0 atom-1" d="M 17.6,50.2 L 38.5,49.3" style="fill:none;fill-rule:evenodd;stroke:#E5E5E5;stroke-width:1.3px;stroke-linecap:butt;stroke-linejoin:miter;stroke-opacity:1"/>
<path class="bond-0 atom-0 atom-1" d="M 17.8,53.9 L 36.6,53.0" style="fill:none;fill-rule:evenodd;stroke:#E5E5E5;stroke-width:1.3px;stroke-linecap:butt;stroke-linejoin:miter;stroke-opacity:1;stroke-dasharray:6,4"/>
<path class="bond-1 atom-2 atom-3" d="M 19.6,92.5 L 40.5,91.6" style="fill:none;fill-rule:evenodd;stroke:#E5E5E5;stroke-width:1.3px;stroke-linecap:butt;stroke-linejoin:miter;stroke-opacity:1"/>
<path class="bond-1 atom-2 atom-3" d="M 19.4,88.9 L 38.2,88.0" style="fill:none;fill-rule:evenodd;stroke:#E5E5E5;stroke-width:1.3px;stroke-linecap:butt;stroke-linejoin:miter;stroke-opacity:1;stroke-dasharray:6,4"/>
<path class="bond-2 atom-1 atom-4" d="M 38.5,49.3 L 51.7,69.9" style="fill:none;fill-rule:evenodd;stroke:#000000;stroke-width:2.0px;stroke-linecap:butt;stroke-linejoin:miter;stroke-opacity:1"/>
<path class="bond-2 atom-1 atom-4" d="M 36.6,53.0 L 47.5,70.1" style="fill:none;fill-rule:evenodd;stroke:#000000;stroke-width:2.0px;stroke-linecap:butt;stroke-linejoin:miter;stroke-opacity:1;stroke-dasharray:6,4"/>
<path class="bond-3 atom-3 atom-4" d="M 40.5,91.6 L 51.7,69.9" style="fill:none;fill-rule:evenodd;stroke:#000000;stroke-width:2.0px;stroke-linecap:butt;stroke-linejoin:miter;stroke-opacity:1"/>
<path class="bond-3 atom-3 atom-4" d="M 38.2,88.0 L 47.5,70.1" style="fill:none;fill-rule:evenodd;stroke:#000000;stroke-width:2.0px;stroke-linecap:butt;stroke-linejoin:miter;stroke-opacity:1;stroke-dasharray:6,4"/>
<path class="bond-4 atom-5 atom-6" d="M 131.3,92.6 L 112.2,80.0" style="fill:none;fill-rule:evenodd;stroke:#E5E5E5;stroke-width:1.3px;stroke-linecap:butt;stroke-linejoin:miter;stroke-opacity:1"/>
<path class="bond-4 atom-5 atom-6" d="M 133.3,89.5 L 114.2,77.0" style="fill:none;fill-rule:evenodd;stroke:#E5E5E5;stroke-width:1.3px;stroke-linecap:butt;stroke-linejoin:miter;stroke-opacity:1"/>
<path class="bond-5 atom-4 atom-7" d="M 51.7,69.9 L 62.2,69.4" style="fill:none;fill-rule:evenodd;stroke:#000000;stroke-width:2.0px;stroke-linecap:butt;stroke-linejoin:miter;stroke-opacity:1"/>
<path class="bond-5 atom-4 atom-7" d="M 62.2,69.4 L 72.7,68.9" style="fill:none;fill-rule:evenodd;stroke:#0000FF;stroke-width:2.0px;stroke-linecap:butt;stroke-linejoin:miter;stroke-opacity:1"/>
<path class="bond-6 atom-6 atom-8" d="M 114.3,79.2 L 91.4,87.8" style="fill:none;fill-rule:evenodd;stroke:#000000;stroke-width:2.0px;stroke-linecap:butt;stroke-linejoin:miter;stroke-opacity:1"/>
<path class="bond-7 atom-6 atom-9" d="M 114.3,79.2 L 113.4,59.2" style="fill:none;fill-rule:evenodd;stroke:#E5E5E5;stroke-width:1.3px;stroke-linecap:butt;stroke-linejoin:miter;stroke-opacity:1"/>
<path class="bond-8 atom-8 atom-7" d="M 91.4,87.8 L 85.5,80.4" style="fill:none;fill-rule:evenodd;stroke:#000000;stroke-width:2.0px;stroke-linecap:butt;stroke-linejoin:miter;stroke-opacity:1"/>
<path class="bond-8 atom-8 atom-7" d="M 85.5,80.4 L 79.6,73.0" style="fill:none;fill-rule:evenodd;stroke:#0000FF;stroke-width:2.0px;stroke-linecap:butt;stroke-linejoin:miter;stroke-opacity:1"/>
<path class="bond-9 atom-8 atom-10" d="M 90.0,86.1 L 87.2,96.3" style="fill:none;fill-rule:evenodd;stroke:#000000;stroke-width:2.0px;stroke-linecap:butt;stroke-linejoin:miter;stroke-opacity:1"/>
<path class="bond-9 atom-8 atom-10" d="M 87.2,96.3 L 84.4,106.6" style="fill:none;fill-rule:evenodd;stroke:#FF0000;stroke-width:2.0px;stroke-linecap:butt;stroke-linejoin:miter;stroke-opacity:1"/>
<path class="bond-9 atom-8 atom-10" d="M 93.5,87.0 L 90.7,97.3" style="fill:none;fill-rule:evenodd;stroke:#000000;stroke-width:2.0px;stroke-linecap:butt;stroke-linejoin:miter;stroke-opacity:1"/>
<path class="bond-9 atom-8 atom-10" d="M 90.7,97.3 L 87.9,107.6" style="fill:none;fill-rule:evenodd;stroke:#FF0000;stroke-width:2.0px;stroke-linecap:butt;stroke-linejoin:miter;stroke-opacity:1"/>
<path class="bond-10 atom-11 atom-12" d="M 91.8,48.9 L 88.0,39.0" style="fill:none;fill-rule:evenodd;stroke:#000000;stroke-width:2.0px;stroke-linecap:butt;stroke-linejoin:miter;stroke-opacity:1"/>
<path class="bond-10 atom-11 atom-12" d="M 88.0,39.0 L 84.3,29.1" style="fill:none;fill-rule:evenodd;stroke:#0000FF;stroke-width:2.0px;stroke-linecap:butt;stroke-linejoin:miter;stroke-opacity:1"/>
<path class="bond-10 atom-11 atom-12" d="M 88.4,50.2 L 84.6,40.3" style="fill:none;fill-rule:evenodd;stroke:#000000;stroke-width:2.0px;stroke-linecap:butt;stroke-linejoin:miter;stroke-opacity:1"/>
<path class="bond-10 atom-11 atom-12" d="M 84.6,40.3 L 80.9,30.4" style="fill:none;fill-rule:evenodd;stroke:#0000FF;stroke-width:2.0px;stroke-linecap:butt;stroke-linejoin:miter;stroke-opacity:1"/>
<path class="bond-11 atom-11 atom-7" d="M 89.6,48.3 L 84.3,56.4" style="fill:none;fill-rule:evenodd;stroke:#000000;stroke-width:2.0px;stroke-linecap:butt;stroke-linejoin:miter;stroke-opacity:1"/>
<path class="bond-11 atom-11 atom-7" d="M 84.3,56.4 L 79.0,64.5" style="fill:none;fill-rule:evenodd;stroke:#0000FF;stroke-width:2.0px;stroke-linecap:butt;stroke-linejoin:miter;stroke-opacity:1"/>
<path class="bond-12 atom-11 atom-9" d="M 89.6,48.3 L 99.9,51.1" style="fill:none;fill-rule:evenodd;stroke:#000000;stroke-width:2.0px;stroke-linecap:butt;stroke-linejoin:miter;stroke-opacity:1"/>
<path class="bond-12 atom-11 atom-9" d="M 99.9,51.1 L 110.1,54.0" style="fill:none;fill-rule:evenodd;stroke:#CCCC00;stroke-width:2.0px;stroke-linecap:butt;stroke-linejoin:miter;stroke-opacity:1"/>
<path d="M 38.0,49.3 L 38.5,49.3 L 38.9,49.8" style="fill:none;stroke:#E5E5E5;stroke-width:1.3px;stroke-linecap:butt;stroke-linejoin:miter;stroke-opacity:1;"/>
<path d="M 40.0,91.6 L 40.5,91.6 L 40.8,91.0" style="fill:none;stroke:#E5E5E5;stroke-width:1.3px;stroke-linecap:butt;stroke-linejoin:miter;stroke-opacity:1;"/>
<path d="M 113.7,79.4 L 114.3,79.2 L 114.3,78.7" style="fill:none;stroke:#000000;stroke-width:2.0px;stroke-linecap:butt;stroke-linejoin:miter;stroke-opacity:1;"/>
<path d="M 92.6,87.4 L 91.4,87.8 L 91.1,87.5" style="fill:none;stroke:#000000;stroke-width:2.0px;stroke-linecap:butt;stroke-linejoin:miter;stroke-opacity:1;"/>
<path d="M 89.3,48.7 L 89.6,48.3 L 90.1,48.5" style="fill:none;stroke:#000000;stroke-width:2.0px;stroke-linecap:butt;stroke-linejoin:miter;stroke-opacity:1;"/>
<path class="atom-0" d="M 7.8 51.5 L 8.8 50.4 L 7.5 50.2 L 7.7 49.5 L 8.9 50.1 L 8.8 48.7 L 9.5 48.7 L 9.3 50.1 L 10.6 49.5 L 10.8 50.2 L 9.4 50.4 L 10.4 51.5 L 9.8 51.9 L 9.1 50.6 L 8.4 51.9 L 7.8 51.5 " fill="#191919"/>
<path class="atom-0" d="M 11.5 48.8 L 12.4 48.8 L 12.4 51.8 L 16.0 51.8 L 16.0 48.8 L 16.9 48.8 L 16.9 55.8 L 16.0 55.8 L 16.0 52.6 L 12.4 52.6 L 12.4 55.8 L 11.5 55.8 L 11.5 48.8 " fill="#191919"/>
<path class="atom-2" d="M 9.6 90.1 L 10.6 89.1 L 9.3 88.8 L 9.5 88.1 L 10.7 88.7 L 10.6 87.4 L 11.3 87.3 L 11.1 88.7 L 12.3 88.1 L 12.6 88.8 L 11.2 89.0 L 12.2 90.1 L 11.6 90.5 L 10.9 89.2 L 10.2 90.5 L 9.6 90.1 " fill="#191919"/>
<path class="atom-2" d="M 13.3 87.5 L 14.2 87.5 L 14.2 90.4 L 17.8 90.4 L 17.8 87.5 L 18.7 87.5 L 18.7 94.4 L 17.8 94.4 L 17.8 91.2 L 14.2 91.2 L 14.2 94.4 L 13.3 94.4 L 13.3 87.5 " fill="#191919"/>
<path class="atom-5" d="M 133.4 91.9 L 134.4 90.9 L 133.1 90.6 L 133.3 89.9 L 134.5 90.5 L 134.3 89.2 L 135.1 89.1 L 134.9 90.5 L 136.1 89.9 L 136.4 90.6 L 135.0 90.8 L 136.0 91.9 L 135.4 92.3 L 134.7 91.0 L 134.0 92.3 L 133.4 91.9 " fill="#191919"/>
<path class="atom-5" d="M 137.1 89.3 L 138.0 89.3 L 138.0 92.2 L 141.6 92.2 L 141.6 89.3 L 142.5 89.3 L 142.5 96.2 L 141.6 96.2 L 141.6 93.0 L 138.0 93.0 L 138.0 96.2 L 137.1 96.2 L 137.1 89.3 " fill="#191919"/>
<path class="atom-7" d="M 74.6 65.3 L 76.9 68.9 Q 77.1 69.3, 77.5 70.0 Q 77.8 70.6, 77.9 70.7 L 77.9 65.3 L 78.8 65.3 L 78.8 72.2 L 77.8 72.2 L 75.4 68.2 Q 75.1 67.7, 74.8 67.2 Q 74.5 66.6, 74.4 66.5 L 74.4 72.2 L 73.5 72.2 L 73.5 65.3 L 74.6 65.3 " fill="#0000FF"/>
<path class="atom-9" d="M 111.2 57.2 Q 111.3 57.2, 111.6 57.3 Q 111.9 57.5, 112.3 57.6 Q 112.7 57.6, 113.0 57.6 Q 113.7 57.6, 114.0 57.3 Q 114.4 57.0, 114.4 56.5 Q 114.4 56.1, 114.2 55.8 Q 114.0 55.6, 113.8 55.5 Q 113.5 55.3, 113.0 55.2 Q 112.4 55.0, 112.0 54.8 Q 111.6 54.7, 111.4 54.3 Q 111.1 53.9, 111.1 53.3 Q 111.1 52.4, 111.7 51.9 Q 112.3 51.3, 113.5 51.3 Q 114.3 51.3, 115.2 51.7 L 114.9 52.5 Q 114.1 52.1, 113.5 52.1 Q 112.8 52.1, 112.4 52.4 Q 112.1 52.7, 112.1 53.2 Q 112.1 53.5, 112.3 53.8 Q 112.5 54.0, 112.7 54.1 Q 113.0 54.3, 113.5 54.4 Q 114.1 54.6, 114.5 54.8 Q 114.9 55.0, 115.1 55.4 Q 115.4 55.8, 115.4 56.5 Q 115.4 57.4, 114.7 57.9 Q 114.1 58.4, 113.0 58.4 Q 112.4 58.4, 112.0 58.3 Q 111.5 58.2, 111.0 57.9 L 111.2 57.2 " fill="#CCCC00"/>
<path class="atom-10" d="M 81.8 111.4 Q 81.8 109.8, 82.6 108.8 Q 83.4 107.9, 84.9 107.9 Q 86.5 107.9, 87.3 108.8 Q 88.1 109.8, 88.1 111.4 Q 88.1 113.1, 87.3 114.1 Q 86.5 115.0, 84.9 115.0 Q 83.4 115.0, 82.6 114.1 Q 81.8 113.1, 81.8 111.4 M 84.9 114.2 Q 86.0 114.2, 86.6 113.5 Q 87.1 112.8, 87.1 111.4 Q 87.1 110.1, 86.6 109.4 Q 86.0 108.7, 84.9 108.7 Q 83.9 108.7, 83.3 109.4 Q 82.7 110.1, 82.7 111.4 Q 82.7 112.8, 83.3 113.5 Q 83.9 114.2, 84.9 114.2 " fill="#FF0000"/>
<path class="atom-12" d="M 71.6 22.0 L 72.5 22.0 L 72.5 24.9 L 76.1 24.9 L 76.1 22.0 L 77.0 22.0 L 77.0 28.9 L 76.1 28.9 L 76.1 25.7 L 72.5 25.7 L 72.5 28.9 L 71.6 28.9 L 71.6 22.0 " fill="#0000FF"/>
<path class="atom-12" d="M 79.5 22.0 L 81.7 25.6 Q 81.9 26.0, 82.3 26.7 Q 82.7 27.3, 82.7 27.4 L 82.7 22.0 L 83.6 22.0 L 83.6 28.9 L 82.7 28.9 L 80.2 24.9 Q 79.9 24.4, 79.6 23.9 Q 79.3 23.4, 79.3 23.2 L 79.3 28.9 L 78.4 28.9 L 78.4 22.0 L 79.5 22.0 " fill="#0000FF"/>
<path class="legend" d="M 57.7 141.1 L 60.1 141.1 L 60.1 132.6 L 57.4 133.4 L 57.0 132.5 L 60.5 130.9 L 61.7 131.1 L 61.7 141.1 L 63.9 141.1 L 63.9 142.3 L 57.7 142.3 L 57.7 141.1 " fill="#000000"/>
<path class="legend" d="M 71.3 132.3 L 65.3 132.3 L 65.3 131.0 L 72.8 131.0 L 72.8 132.1 L 68.3 142.3 L 66.7 142.3 L 71.3 132.3 " fill="#000000"/>
<path class="legend" d="M 81.4 138.5 L 82.8 138.5 L 82.8 139.7 L 81.4 139.7 L 81.4 142.3 L 79.9 142.3 L 79.9 139.7 L 74.1 139.7 L 74.1 138.7 L 79.0 131.0 L 81.4 131.0 L 81.4 138.5 M 75.9 138.5 L 79.9 138.5 L 79.9 132.0 L 75.9 138.5 " fill="#000000"/>
<path class="legend" d="M 89.8 136.4 Q 90.9 136.7, 91.4 137.4 Q 92.0 138.1, 92.0 139.2 Q 92.0 140.2, 91.5 140.9 Q 91.0 141.7, 90.1 142.1 Q 89.2 142.5, 88.1 142.5 Q 86.9 142.5, 86.0 142.1 Q 85.1 141.7, 84.3 140.8 L 85.3 139.9 Q 86.0 140.6, 86.5 140.9 Q 87.1 141.2, 88.1 141.2 Q 89.1 141.2, 89.7 140.7 Q 90.4 140.1, 90.4 139.2 Q 90.4 138.1, 89.7 137.6 Q 89.1 137.0, 87.7 137.0 L 86.9 137.0 L 86.9 135.9 L 87.6 135.9 Q 88.8 135.9, 89.5 135.3 Q 90.1 134.8, 90.1 133.8 Q 90.1 133.0, 89.6 132.6 Q 89.0 132.2, 88.1 132.2 Q 87.2 132.2, 86.6 132.5 Q 86.0 132.8, 85.5 133.7 L 84.4 133.1 Q 84.8 132.1, 85.8 131.5 Q 86.8 130.9, 88.1 130.9 Q 89.8 130.9, 90.7 131.7 Q 91.7 132.5, 91.7 133.8 Q 91.7 134.7, 91.2 135.3 Q 90.7 136.0, 89.8 136.4 " fill="#000000"/>
</svg>