<svg xmlns="http://www.w3.org/2000/svg" xmlns:rdkit="http://www.rdkit.org/xml" xmlns:xlink="http://www.w3.org/1999/xlink" version="1.1" baseProfile="full" xml:space="preserve" width="150px" height="150px" viewBox="0 0 150 150">
<!-- END OF HEADER -->
<rect style="opacity:1.0;fill:#FFFFFF;stroke:none" width="150.0" height="150.0" x="0.0" y="0.0"> </rect>
<ellipse cx="92.4" cy="120.6" rx="8.9" ry="8.9" class="atom-0" style="fill:#E5E533;fill-rule:evenodd;stroke:#E5E533;stroke-width:1.0px;stroke-linecap:butt;stroke-linejoin:miter;stroke-opacity:1"/>
<ellipse cx="129.6" cy="95.8" rx="8.9" ry="8.9" class="atom-1" style="fill:#9999E5;fill-rule:evenodd;stroke:#9999E5;stroke-width:1.0px;stroke-linecap:butt;stroke-linejoin:miter;stroke-opacity:1"/>
<ellipse cx="57.4" cy="92.9" rx="8.9" ry="8.9" class="atom-2" style="fill:#E5E533;fill-rule:evenodd;stroke:#E5E533;stroke-width:1.0px;stroke-linecap:butt;stroke-linejoin:miter;stroke-opacity:1"/>
<ellipse cx="72.9" cy="51.1" rx="8.9" ry="8.9" class="atom-3" style="fill:#E5E533;fill-rule:evenodd;stroke:#E5E533;stroke-width:1.0px;stroke-linecap:butt;stroke-linejoin:miter;stroke-opacity:1"/>
<ellipse cx="117.5" cy="52.9" rx="8.9" ry="8.9" class="atom-5" style="fill:#E5E533;fill-rule:evenodd;stroke:#E5E533;stroke-width:1.0px;stroke-linecap:butt;stroke-linejoin:miter;stroke-opacity:1"/>
<path class="bond-0 atom-0 atom-1" d="M 92.4,120.6 L 107.9,110.3" style="fill:none;fill-rule:evenodd;stroke:#000000;stroke-width:2.0px;stroke-linecap:butt;stroke-linejoin:miter;stroke-opacity:1"/>
<path class="bond-0 atom-0 atom-1" d="M 107.9,110.3 L 123.3,100.0" style="fill:none;fill-rule:evenodd;stroke:#0000FF;stroke-width:2.0px;stroke-linecap:butt;stroke-linejoin:miter;stroke-opacity:1"/>
<path class="bond-0 atom-0 atom-1" d="M 92.8,112.3 L 106.2,103.4" style="fill:none;fill-rule:evenodd;stroke:#000000;stroke-width:2.0px;stroke-linecap:butt;stroke-linejoin:miter;stroke-opacity:1"/>
<path class="bond-0 atom-0 atom-1" d="M 106.2,103.4 L 119.6,94.4" style="fill:none;fill-rule:evenodd;stroke:#0000FF;stroke-width:2.0px;stroke-linecap:butt;stroke-linejoin:miter;stroke-opacity:1"/>
<path class="bond-1 atom-0 atom-2" d="M 92.4,120.6 L 78.1,109.2" style="fill:none;fill-rule:evenodd;stroke:#000000;stroke-width:2.0px;stroke-linecap:butt;stroke-linejoin:miter;stroke-opacity:1"/>
<path class="bond-1 atom-0 atom-2" d="M 78.1,109.2 L 63.7,97.9" style="fill:none;fill-rule:evenodd;stroke:#0000FF;stroke-width:2.0px;stroke-linecap:butt;stroke-linejoin:miter;stroke-opacity:1"/>
<path class="bond-2 atom-3 atom-4" d="M 77.1,51.2 L 56.2,20.0" style="fill:none;fill-rule:evenodd;stroke:#E5E5E5;stroke-width:2.4px;stroke-linecap:butt;stroke-linejoin:miter;stroke-opacity:1"/>
<path class="bond-2 atom-3 atom-4" d="M 71.5,54.9 L 50.7,23.7" style="fill:none;fill-rule:evenodd;stroke:#E5E5E5;stroke-width:2.4px;stroke-linecap:butt;stroke-linejoin:miter;stroke-opacity:1"/>
<path class="bond-3 atom-3 atom-2" d="M 72.9,51.1 L 60.3,85.1" style="fill:none;fill-rule:evenodd;stroke:#E5E5E5;stroke-width:2.4px;stroke-linecap:butt;stroke-linejoin:miter;stroke-opacity:1"/>
<path class="bond-4 atom-3 atom-5" d="M 72.9,51.1 L 92.5,51.9" style="fill:none;fill-rule:evenodd;stroke:#000000;stroke-width:2.0px;stroke-linecap:butt;stroke-linejoin:miter;stroke-opacity:1"/>
<path class="bond-4 atom-3 atom-5" d="M 92.5,51.9 L 112.0,52.6" style="fill:none;fill-rule:evenodd;stroke:#CCCC00;stroke-width:2.0px;stroke-linecap:butt;stroke-linejoin:miter;stroke-opacity:1"/>
<path class="bond-5 atom-6 atom-2" d="M 18.9,103.7 L 51.2,94.7" style="fill:none;fill-rule:evenodd;stroke:#E5E5E5;stroke-width:2.4px;stroke-linecap:butt;stroke-linejoin:miter;stroke-opacity:1"/>
<path class="bond-6 atom-1 atom-5" d="M 127.4,88.0 L 123.6,74.5" style="fill:none;fill-rule:evenodd;stroke:#0000FF;stroke-width:2.0px;stroke-linecap:butt;stroke-linejoin:miter;stroke-opacity:1"/>
<path class="bond-6 atom-1 atom-5" d="M 123.6,74.5 L 119.8,61.0" style="fill:none;fill-rule:evenodd;stroke:#CCCC00;stroke-width:2.0px;stroke-linecap:butt;stroke-linejoin:miter;stroke-opacity:1"/>
<path d="M 93.2,120.1 L 92.4,120.6 L 91.7,120.0" style="fill:none;stroke:#000000;stroke-width:2.0px;stroke-linecap:butt;stroke-linejoin:miter;stroke-opacity:1;"/>
<path d="M 72.6,51.9 L 72.9,51.1 L 73.4,51.1" style="fill:none;stroke:#E5E5E5;stroke-width:2.4px;stroke-linecap:butt;stroke-linejoin:miter;stroke-opacity:1;"/>
<path class="atom-1" d="M 126.8 89.5 L 130.9 96.2 Q 131.3 96.9, 132.0 98.1 Q 132.7 99.3, 132.7 99.3 L 132.7 89.5 L 134.4 89.5 L 134.4 102.2 L 132.6 102.2 L 128.2 94.8 Q 127.7 94.0, 127.1 93.0 Q 126.6 92.0, 126.4 91.7 L 126.4 102.2 L 124.8 102.2 L 124.8 89.5 L 126.8 89.5 " fill="#0000FF"/>
<path class="atom-2" d="M 54.7 86.6 L 58.8 93.3 Q 59.2 93.9, 59.9 95.1 Q 60.5 96.3, 60.6 96.4 L 60.6 86.6 L 62.2 86.6 L 62.2 99.2 L 60.5 99.2 L 56.1 91.9 Q 55.5 91.0, 55.0 90.1 Q 54.5 89.1, 54.3 88.8 L 54.3 99.2 L 52.7 99.2 L 52.7 86.6 L 54.7 86.6 " fill="#0000FF"/>
<path class="atom-4" d="M 36.6 12.5 L 38.4 10.6 L 35.9 10.1 L 36.3 8.9 L 38.6 10.0 L 38.3 7.5 L 39.6 7.5 L 39.2 10.0 L 41.5 8.9 L 41.9 10.1 L 39.4 10.6 L 41.2 12.5 L 40.1 13.3 L 38.9 10.9 L 37.6 13.3 L 36.6 12.5 " fill="#191919"/>
<path class="atom-4" d="M 43.3 7.7 L 45.0 7.7 L 45.0 13.1 L 51.4 13.1 L 51.4 7.7 L 53.1 7.7 L 53.1 20.4 L 51.4 20.4 L 51.4 14.5 L 45.0 14.5 L 45.0 20.4 L 43.3 20.4 L 43.3 7.7 " fill="#191919"/>
<path class="atom-5" d="M 114.0 57.2 Q 114.1 57.3, 114.7 57.5 Q 115.3 57.8, 115.9 57.9 Q 116.6 58.1, 117.2 58.1 Q 118.4 58.1, 119.1 57.5 Q 119.8 56.9, 119.8 55.9 Q 119.8 55.2, 119.5 54.8 Q 119.1 54.3, 118.6 54.1 Q 118.0 53.9, 117.2 53.6 Q 116.0 53.3, 115.4 52.9 Q 114.7 52.6, 114.2 51.9 Q 113.7 51.3, 113.7 50.1 Q 113.7 48.5, 114.8 47.6 Q 115.9 46.6, 118.0 46.6 Q 119.5 46.6, 121.2 47.3 L 120.8 48.6 Q 119.2 48.0, 118.1 48.0 Q 116.9 48.0, 116.2 48.5 Q 115.5 49.0, 115.5 49.9 Q 115.5 50.6, 115.9 51.0 Q 116.2 51.4, 116.7 51.6 Q 117.2 51.9, 118.1 52.1 Q 119.2 52.5, 119.9 52.9 Q 120.6 53.2, 121.1 53.9 Q 121.6 54.7, 121.6 55.9 Q 121.6 57.6, 120.4 58.6 Q 119.2 59.5, 117.3 59.5 Q 116.2 59.5, 115.3 59.3 Q 114.5 59.0, 113.5 58.6 L 114.0 57.2 " fill="#CCCC00"/>
<path class="atom-6" d="M 12.1 103.5 L 14.0 101.7 L 11.5 101.2 L 11.9 99.9 L 14.1 101.0 L 13.8 98.6 L 15.2 98.5 L 14.8 101.0 L 17.1 99.9 L 17.5 101.2 L 15.0 101.6 L 16.8 103.5 L 15.7 104.3 L 14.4 102.0 L 13.2 104.3 L 12.1 103.5 " fill="#191919"/>
<path class="legend" d="M 58.3 141.1 L 60.8 141.1 L 60.8 132.6 L 58.1 133.5 L 57.7 132.5 L 61.2 131.0 L 62.3 131.2 L 62.3 141.1 L 64.6 141.1 L 64.6 142.4 L 58.3 142.4 L 58.3 141.1 " fill="#000000"/>
<path class="legend" d="M 71.9 132.3 L 66.0 132.3 L 66.0 131.0 L 73.5 131.0 L 73.5 132.2 L 68.9 142.4 L 67.4 142.4 L 71.9 132.3 " fill="#000000"/>
<path class="legend" d="M 80.6 132.3 L 74.7 132.3 L 74.7 131.0 L 82.2 131.0 L 82.2 132.2 L 77.6 142.4 L 76.1 142.4 L 80.6 132.3 " fill="#000000"/>
<path class="legend" d="M 87.9 135.3 Q 88.8 135.3, 89.6 135.7 Q 90.4 136.2, 90.8 136.9 Q 91.3 137.7, 91.3 138.7 Q 91.3 139.8, 90.8 140.7 Q 90.3 141.5, 89.4 142.0 Q 88.6 142.5, 87.5 142.5 Q 85.5 142.5, 84.4 141.1 Q 83.4 139.8, 83.4 137.0 Q 83.4 134.0, 84.7 132.5 Q 85.9 130.9, 88.4 130.9 Q 89.1 130.9, 89.6 131.1 Q 90.3 131.2, 90.8 131.6 L 90.2 132.6 Q 89.4 132.2, 88.4 132.2 Q 86.8 132.2, 86.0 133.2 Q 85.1 134.3, 85.0 136.4 Q 85.6 135.9, 86.3 135.6 Q 87.1 135.3, 87.9 135.3 M 87.5 141.2 Q 88.1 141.2, 88.6 140.9 Q 89.1 140.5, 89.4 140.0 Q 89.7 139.4, 89.7 138.7 Q 89.7 137.7, 89.1 137.2 Q 88.6 136.6, 87.6 136.6 Q 86.9 136.6, 86.2 136.9 Q 85.5 137.1, 85.0 137.6 Q 85.1 139.5, 85.7 140.3 Q 86.3 141.2, 87.5 141.2 " fill="#000000"/>
</svg>