<svg xmlns="http://www.w3.org/2000/svg" xmlns:rdkit="http://www.rdkit.org/xml" xmlns:xlink="http://www.w3.org/1999/xlink" version="1.1" baseProfile="full" xml:space="preserve" width="150px" height="150px" viewBox="0 0 150 150">
<!-- END OF HEADER -->
<rect style="opacity:1.0;fill:#FFFFFF;stroke:none" width="150.0" height="150.0" x="0.0" y="0.0"> </rect>
<ellipse cx="45.3" cy="88.6" rx="4.9" ry="4.9" class="atom-0" style="fill:#E5E533;fill-rule:evenodd;stroke:#E5E533;stroke-width:1.0px;stroke-linecap:butt;stroke-linejoin:miter;stroke-opacity:1"/>
<ellipse cx="53.5" cy="65.7" rx="4.9" ry="4.9" class="atom-2" style="fill:#E5E533;fill-rule:evenodd;stroke:#E5E533;stroke-width:1.0px;stroke-linecap:butt;stroke-linejoin:miter;stroke-opacity:1"/>
<ellipse cx="37.7" cy="47.2" rx="4.9" ry="4.9" class="atom-3" style="fill:#E5E533;fill-rule:evenodd;stroke:#E5E533;stroke-width:1.0px;stroke-linecap:butt;stroke-linejoin:miter;stroke-opacity:1"/>
<ellipse cx="77.4" cy="61.4" rx="4.9" ry="4.9" class="atom-8" style="fill:#9999E5;fill-rule:evenodd;stroke:#9999E5;stroke-width:1.0px;stroke-linecap:butt;stroke-linejoin:miter;stroke-opacity:1"/>
<path class="bond-0 atom-0 atom-1" d="M 45.3,88.6 L 24.9,92.3" style="fill:none;fill-rule:evenodd;stroke:#E5E5E5;stroke-width:1.3px;stroke-linecap:butt;stroke-linejoin:miter;stroke-opacity:1"/>
<path class="bond-0 atom-0 atom-1" d="M 42.6,85.4 L 24.2,88.7" style="fill:none;fill-rule:evenodd;stroke:#E5E5E5;stroke-width:1.3px;stroke-linecap:butt;stroke-linejoin:miter;stroke-opacity:1;stroke-dasharray:6,4"/>
<path class="bond-1 atom-0 atom-2" d="M 45.3,88.6 L 53.5,65.7" style="fill:none;fill-rule:evenodd;stroke:#000000;stroke-width:2.0px;stroke-linecap:butt;stroke-linejoin:miter;stroke-opacity:1"/>
<path class="bond-1 atom-0 atom-2" d="M 42.6,85.4 L 49.3,66.5" style="fill:none;fill-rule:evenodd;stroke:#000000;stroke-width:2.0px;stroke-linecap:butt;stroke-linejoin:miter;stroke-opacity:1;stroke-dasharray:6,4"/>
<path class="bond-2 atom-3 atom-4" d="M 37.7,47.2 L 17.3,50.9" style="fill:none;fill-rule:evenodd;stroke:#E5E5E5;stroke-width:1.3px;stroke-linecap:butt;stroke-linejoin:miter;stroke-opacity:1"/>
<path class="bond-2 atom-3 atom-4" d="M 36.3,51.2 L 18.0,54.5" style="fill:none;fill-rule:evenodd;stroke:#E5E5E5;stroke-width:1.3px;stroke-linecap:butt;stroke-linejoin:miter;stroke-opacity:1;stroke-dasharray:6,4"/>
<path class="bond-3 atom-3 atom-2" d="M 37.7,47.2 L 53.5,65.7" style="fill:none;fill-rule:evenodd;stroke:#000000;stroke-width:2.0px;stroke-linecap:butt;stroke-linejoin:miter;stroke-opacity:1"/>
<path class="bond-3 atom-3 atom-2" d="M 36.3,51.2 L 49.3,66.5" style="fill:none;fill-rule:evenodd;stroke:#000000;stroke-width:2.0px;stroke-linecap:butt;stroke-linejoin:miter;stroke-opacity:1;stroke-dasharray:6,4"/>
<path class="bond-4 atom-5 atom-6" d="M 117.0,75.5 L 93.1,79.9" style="fill:none;fill-rule:evenodd;stroke:#000000;stroke-width:2.0px;stroke-linecap:butt;stroke-linejoin:miter;stroke-opacity:1"/>
<path class="bond-5 atom-5 atom-7" d="M 117.0,75.5 L 138.4,71.6" style="fill:none;fill-rule:evenodd;stroke:#E5E5E5;stroke-width:1.3px;stroke-linecap:butt;stroke-linejoin:miter;stroke-opacity:1"/>
<path class="bond-5 atom-5 atom-7" d="M 116.3,71.9 L 137.8,68.0" style="fill:none;fill-rule:evenodd;stroke:#E5E5E5;stroke-width:1.3px;stroke-linecap:butt;stroke-linejoin:miter;stroke-opacity:1"/>
<path class="bond-5 atom-5 atom-7" d="M 117.6,79.1 L 139.1,75.2" style="fill:none;fill-rule:evenodd;stroke:#E5E5E5;stroke-width:1.3px;stroke-linecap:butt;stroke-linejoin:miter;stroke-opacity:1"/>
<path class="bond-6 atom-6 atom-8" d="M 93.1,79.9 L 86.9,72.6" style="fill:none;fill-rule:evenodd;stroke:#000000;stroke-width:2.0px;stroke-linecap:butt;stroke-linejoin:miter;stroke-opacity:1"/>
<path class="bond-6 atom-6 atom-8" d="M 86.9,72.6 L 80.8,65.4" style="fill:none;fill-rule:evenodd;stroke:#0000FF;stroke-width:2.0px;stroke-linecap:butt;stroke-linejoin:miter;stroke-opacity:1"/>
<path class="bond-7 atom-2 atom-8" d="M 53.5,65.7 L 63.7,63.9" style="fill:none;fill-rule:evenodd;stroke:#000000;stroke-width:2.0px;stroke-linecap:butt;stroke-linejoin:miter;stroke-opacity:1"/>
<path class="bond-7 atom-2 atom-8" d="M 63.7,63.9 L 73.9,62.0" style="fill:none;fill-rule:evenodd;stroke:#0000FF;stroke-width:2.0px;stroke-linecap:butt;stroke-linejoin:miter;stroke-opacity:1"/>
<path d="M 44.8,88.7 L 45.3,88.6 L 45.5,88.0" style="fill:none;stroke:#E5E5E5;stroke-width:1.3px;stroke-linecap:butt;stroke-linejoin:miter;stroke-opacity:1;"/>
<path d="M 37.2,47.3 L 37.7,47.2 L 38.1,47.7" style="fill:none;stroke:#E5E5E5;stroke-width:1.3px;stroke-linecap:butt;stroke-linejoin:miter;stroke-opacity:1;"/>
<path d="M 116.4,75.6 L 117.0,75.5 L 117.5,75.4" style="fill:none;stroke:#000000;stroke-width:2.0px;stroke-linecap:butt;stroke-linejoin:miter;stroke-opacity:1;"/>
<path d="M 94.3,79.7 L 93.1,79.9 L 92.8,79.5" style="fill:none;stroke:#000000;stroke-width:2.0px;stroke-linecap:butt;stroke-linejoin:miter;stroke-opacity:1;"/>
<path class="atom-1" d="M 14.7 90.4 L 15.7 89.4 L 14.4 89.1 L 14.6 88.4 L 15.8 89.0 L 15.7 87.7 L 16.4 87.7 L 16.2 89.0 L 17.4 88.4 L 17.6 89.1 L 16.3 89.3 L 17.3 90.4 L 16.7 90.8 L 16.0 89.5 L 15.3 90.8 L 14.7 90.4 " fill="#191919"/>
<path class="atom-1" d="M 18.4 87.8 L 19.3 87.8 L 19.3 90.7 L 22.8 90.7 L 22.8 87.8 L 23.7 87.8 L 23.7 94.7 L 22.8 94.7 L 22.8 91.5 L 19.3 91.5 L 19.3 94.7 L 18.4 94.7 L 18.4 87.8 " fill="#191919"/>
<path class="atom-4" d="M 7.8 52.6 L 8.8 51.6 L 7.5 51.3 L 7.7 50.6 L 8.9 51.2 L 8.8 49.9 L 9.5 49.9 L 9.3 51.2 L 10.5 50.6 L 10.8 51.3 L 9.4 51.5 L 10.4 52.6 L 9.8 53.0 L 9.1 51.7 L 8.4 53.0 L 7.8 52.6 " fill="#191919"/>
<path class="atom-4" d="M 11.5 50.0 L 12.4 50.0 L 12.4 52.9 L 15.9 52.9 L 15.9 50.0 L 16.9 50.0 L 16.9 56.8 L 15.9 56.8 L 15.9 53.7 L 12.4 53.7 L 12.4 56.8 L 11.5 56.8 L 11.5 50.0 " fill="#191919"/>
<path class="atom-7" d="M 139.6 70.4 L 140.6 69.4 L 139.2 69.1 L 139.4 68.4 L 140.7 69.0 L 140.5 67.7 L 141.2 67.7 L 141.0 69.0 L 142.3 68.4 L 142.5 69.1 L 141.1 69.4 L 142.1 70.4 L 141.5 70.8 L 140.8 69.5 L 140.2 70.8 L 139.6 70.4 " fill="#191919"/>
<path class="atom-8" d="M 75.8 57.9 L 78.1 61.6 Q 78.3 61.9, 78.7 62.6 Q 79.0 63.2, 79.1 63.3 L 79.1 57.9 L 80.0 57.9 L 80.0 64.8 L 79.0 64.8 L 76.6 60.8 Q 76.3 60.4, 76.0 59.8 Q 75.7 59.3, 75.6 59.1 L 75.6 64.8 L 74.7 64.8 L 74.7 57.9 L 75.8 57.9 " fill="#0000FF"/>
<path class="atom-8" d="M 74.7 50.4 L 75.6 50.4 L 75.6 53.3 L 79.1 53.3 L 79.1 50.4 L 80.0 50.4 L 80.0 57.2 L 79.1 57.2 L 79.1 54.1 L 75.6 54.1 L 75.6 57.2 L 74.7 57.2 L 74.7 50.4 " fill="#0000FF"/>
<path class="legend" d="M 57.7 141.1 L 60.2 141.1 L 60.2 132.6 L 57.5 133.4 L 57.1 132.5 L 60.6 130.9 L 61.7 131.1 L 61.7 141.1 L 63.9 141.1 L 63.9 142.3 L 57.7 142.3 L 57.7 141.1 " fill="#000000"/>
<path class="legend" d="M 71.3 132.3 L 65.4 132.3 L 65.4 131.0 L 72.9 131.0 L 72.9 132.1 L 68.3 142.3 L 66.8 142.3 L 71.3 132.3 " fill="#000000"/>
<path class="legend" d="M 79.9 136.3 Q 80.9 136.8, 81.5 137.5 Q 82.1 138.1, 82.1 139.2 Q 82.1 140.2, 81.6 140.9 Q 81.1 141.7, 80.2 142.1 Q 79.4 142.5, 78.2 142.5 Q 76.3 142.5, 75.2 141.6 Q 74.1 140.8, 74.1 139.2 Q 74.1 138.3, 74.6 137.6 Q 75.1 136.9, 76.1 136.4 Q 75.3 136.0, 74.9 135.4 Q 74.5 134.7, 74.5 133.8 Q 74.5 132.5, 75.5 131.7 Q 76.5 130.9, 78.1 130.9 Q 79.8 130.9, 80.7 131.7 Q 81.7 132.5, 81.7 133.8 Q 81.7 134.6, 81.2 135.2 Q 80.8 135.8, 79.9 136.3 M 78.1 132.1 Q 77.2 132.1, 76.6 132.5 Q 76.1 133.0, 76.1 133.8 Q 76.1 134.4, 76.5 134.8 Q 76.8 135.2, 77.3 135.4 Q 77.8 135.6, 78.8 135.9 Q 79.5 135.5, 79.8 134.9 Q 80.1 134.4, 80.1 133.8 Q 80.1 133.0, 79.6 132.5 Q 79.1 132.1, 78.1 132.1 M 78.2 141.3 Q 79.2 141.3, 79.9 140.7 Q 80.5 140.2, 80.5 139.2 Q 80.5 138.6, 80.2 138.2 Q 79.8 137.8, 79.3 137.6 Q 78.8 137.4, 77.9 137.1 L 77.2 136.9 Q 76.4 137.3, 76.1 137.9 Q 75.7 138.5, 75.7 139.2 Q 75.7 140.2, 76.4 140.7 Q 77.1 141.3, 78.2 141.3 " fill="#000000"/>
<path class="legend" d="M 89.7 136.3 Q 90.7 136.8, 91.3 137.5 Q 91.9 138.1, 91.9 139.2 Q 91.9 140.2, 91.4 140.9 Q 90.9 141.7, 90.0 142.1 Q 89.1 142.5, 88.0 142.5 Q 86.1 142.5, 85.0 141.6 Q 83.9 140.8, 83.9 139.2 Q 83.9 138.3, 84.4 137.6 Q 84.8 136.9, 85.8 136.4 Q 85.1 136.0, 84.7 135.4 Q 84.3 134.7, 84.3 133.8 Q 84.3 132.5, 85.3 131.7 Q 86.2 130.9, 87.9 130.9 Q 89.5 130.9, 90.5 131.7 Q 91.5 132.5, 91.5 133.8 Q 91.5 134.6, 91.0 135.2 Q 90.6 135.8, 89.7 136.3 M 87.9 132.1 Q 86.9 132.1, 86.4 132.5 Q 85.9 133.0, 85.9 133.8 Q 85.9 134.4, 86.3 134.8 Q 86.6 135.2, 87.1 135.4 Q 87.6 135.6, 88.6 135.9 Q 89.3 135.5, 89.6 134.9 Q 89.9 134.4, 89.9 133.8 Q 89.9 133.0, 89.3 132.5 Q 88.8 132.1, 87.9 132.1 M 88.0 141.3 Q 89.0 141.3, 89.6 140.7 Q 90.3 140.2, 90.3 139.2 Q 90.3 138.6, 90.0 138.2 Q 89.6 137.8, 89.1 137.6 Q 88.6 137.4, 87.7 137.1 L 87.0 136.9 Q 86.2 137.3, 85.8 137.9 Q 85.5 138.5, 85.5 139.2 Q 85.5 140.2, 86.2 140.7 Q 86.8 141.3, 88.0 141.3 " fill="#000000"/>
</svg>