<svg xmlns="http://www.w3.org/2000/svg" xmlns:rdkit="http://www.rdkit.org/xml" xmlns:xlink="http://www.w3.org/1999/xlink" version="1.1" baseProfile="full" xml:space="preserve" width="150px" height="150px" viewBox="0 0 150 150">
<!-- END OF HEADER -->
<rect style="opacity:1.0;fill:#FFFFFF;stroke:none" width="150.0" height="150.0" x="0.0" y="0.0"> </rect>
<ellipse cx="32.7" cy="64.4" rx="6.6" ry="6.6" class="atom-3" style="fill:#E5E533;fill-rule:evenodd;stroke:#E5E533;stroke-width:1.0px;stroke-linecap:butt;stroke-linejoin:miter;stroke-opacity:1"/>
<ellipse cx="87.6" cy="79.8" rx="6.6" ry="6.6" class="atom-5" style="fill:#9999E5;fill-rule:evenodd;stroke:#9999E5;stroke-width:1.0px;stroke-linecap:butt;stroke-linejoin:miter;stroke-opacity:1"/>
<path class="bond-0 atom-0 atom-1" d="M 142.5,95.2 L 133.7,86.2" style="fill:none;fill-rule:evenodd;stroke:#000000;stroke-width:2.0px;stroke-linecap:butt;stroke-linejoin:miter;stroke-opacity:1"/>
<path class="bond-0 atom-0 atom-1" d="M 133.7,86.2 L 124.9,77.2" style="fill:none;fill-rule:evenodd;stroke:#FF0000;stroke-width:2.0px;stroke-linecap:butt;stroke-linejoin:miter;stroke-opacity:1"/>
<path class="bond-1 atom-2 atom-3" d="M 23.1,89.6 L 30.7,62.4" style="fill:none;fill-rule:evenodd;stroke:#E5E5E5;stroke-width:1.8px;stroke-linecap:butt;stroke-linejoin:miter;stroke-opacity:1"/>
<path class="bond-1 atom-2 atom-3" d="M 27.8,91.0 L 35.5,63.7" style="fill:none;fill-rule:evenodd;stroke:#E5E5E5;stroke-width:1.8px;stroke-linecap:butt;stroke-linejoin:miter;stroke-opacity:1;stroke-dasharray:6,4"/>
<path class="bond-2 atom-4 atom-3" d="M 64.6,56.3 L 32.7,64.4" style="fill:none;fill-rule:evenodd;stroke:#000000;stroke-width:2.0px;stroke-linecap:butt;stroke-linejoin:miter;stroke-opacity:1"/>
<path class="bond-3 atom-4 atom-5" d="M 64.6,56.3 L 73.8,65.7" style="fill:none;fill-rule:evenodd;stroke:#000000;stroke-width:2.0px;stroke-linecap:butt;stroke-linejoin:miter;stroke-opacity:1"/>
<path class="bond-3 atom-4 atom-5" d="M 73.8,65.7 L 83.0,75.1" style="fill:none;fill-rule:evenodd;stroke:#0000FF;stroke-width:2.0px;stroke-linecap:butt;stroke-linejoin:miter;stroke-opacity:1"/>
<path class="bond-3 atom-4 atom-5" d="M 63.1,61.8 L 71.3,70.1" style="fill:none;fill-rule:evenodd;stroke:#000000;stroke-width:2.0px;stroke-linecap:butt;stroke-linejoin:miter;stroke-opacity:1"/>
<path class="bond-3 atom-4 atom-5" d="M 71.3,70.1 L 79.5,78.5" style="fill:none;fill-rule:evenodd;stroke:#0000FF;stroke-width:2.0px;stroke-linecap:butt;stroke-linejoin:miter;stroke-opacity:1"/>
<path class="bond-4 atom-3 atom-6" d="M 35.5,63.7 L 12.1,39.8" style="fill:none;fill-rule:evenodd;stroke:#E5E5E5;stroke-width:1.8px;stroke-linecap:butt;stroke-linejoin:miter;stroke-opacity:1"/>
<path class="bond-4 atom-3 atom-6" d="M 31.9,67.2 L 8.5,43.2" style="fill:none;fill-rule:evenodd;stroke:#E5E5E5;stroke-width:1.8px;stroke-linecap:butt;stroke-linejoin:miter;stroke-opacity:1;stroke-dasharray:6,4"/>
<path class="bond-5 atom-5 atom-1" d="M 92.2,78.6 L 103.2,75.8" style="fill:none;fill-rule:evenodd;stroke:#0000FF;stroke-width:2.0px;stroke-linecap:butt;stroke-linejoin:miter;stroke-opacity:1"/>
<path class="bond-5 atom-5 atom-1" d="M 103.2,75.8 L 114.1,73.0" style="fill:none;fill-rule:evenodd;stroke:#FF0000;stroke-width:2.0px;stroke-linecap:butt;stroke-linejoin:miter;stroke-opacity:1"/>
<path d="M 63.0,56.7 L 64.6,56.3 L 65.1,56.7" style="fill:none;stroke:#000000;stroke-width:2.0px;stroke-linecap:butt;stroke-linejoin:miter;stroke-opacity:1;"/>
<path class="atom-1" d="M 115.2 71.7 Q 115.2 69.5, 116.3 68.2 Q 117.4 66.9, 119.5 66.9 Q 121.6 66.9, 122.7 68.2 Q 123.8 69.5, 123.8 71.7 Q 123.8 74.0, 122.7 75.2 Q 121.5 76.5, 119.5 76.5 Q 117.4 76.5, 116.3 75.2 Q 115.2 74.0, 115.2 71.7 M 119.5 75.5 Q 120.9 75.5, 121.7 74.5 Q 122.5 73.6, 122.5 71.7 Q 122.5 69.9, 121.7 68.9 Q 120.9 68.0, 119.5 68.0 Q 118.1 68.0, 117.3 68.9 Q 116.5 69.8, 116.5 71.7 Q 116.5 73.6, 117.3 74.5 Q 118.1 75.5, 119.5 75.5 " fill="#FF0000"/>
<path class="atom-2" d="M 22.1 95.1 L 23.4 93.7 L 21.6 93.3 L 21.9 92.4 L 23.6 93.2 L 23.3 91.4 L 24.3 91.4 L 24.0 93.2 L 25.7 92.4 L 26.0 93.3 L 24.2 93.7 L 25.5 95.1 L 24.7 95.6 L 23.8 93.9 L 22.9 95.6 L 22.1 95.1 " fill="#191919"/>
<path class="atom-2" d="M 27.0 91.5 L 28.3 91.5 L 28.3 95.5 L 33.0 95.5 L 33.0 91.5 L 34.3 91.5 L 34.3 100.9 L 33.0 100.9 L 33.0 96.6 L 28.3 96.6 L 28.3 100.9 L 27.0 100.9 L 27.0 91.5 " fill="#191919"/>
<path class="atom-5" d="M 85.5 75.2 L 88.6 80.1 Q 88.9 80.6, 89.4 81.5 Q 89.9 82.3, 89.9 82.4 L 89.9 75.2 L 91.1 75.2 L 91.1 84.5 L 89.9 84.5 L 86.6 79.1 Q 86.2 78.4, 85.8 77.7 Q 85.4 77.0, 85.3 76.8 L 85.3 84.5 L 84.1 84.5 L 84.1 75.2 L 85.5 75.2 " fill="#0000FF"/>
<path class="atom-6" d="M 7.9 39.8 L 9.3 38.4 L 7.5 38.1 L 7.8 37.1 L 9.4 38.0 L 9.2 36.2 L 10.2 36.1 L 9.9 38.0 L 11.6 37.2 L 11.9 38.1 L 10.1 38.4 L 11.4 39.8 L 10.6 40.4 L 9.7 38.7 L 8.8 40.4 L 7.9 39.8 " fill="#191919"/>
<path class="legend" d="M 57.5 141.1 L 60.0 141.1 L 60.0 132.6 L 57.3 133.4 L 56.9 132.5 L 60.4 130.9 L 61.5 131.1 L 61.5 141.1 L 63.7 141.1 L 63.7 142.3 L 57.5 142.3 L 57.5 141.1 " fill="#000000"/>
<path class="legend" d="M 70.9 136.3 Q 72.0 136.8, 72.6 137.5 Q 73.1 138.1, 73.1 139.2 Q 73.1 140.2, 72.6 140.9 Q 72.2 141.7, 71.3 142.1 Q 70.4 142.5, 69.2 142.5 Q 67.3 142.5, 66.2 141.6 Q 65.1 140.8, 65.1 139.2 Q 65.1 138.3, 65.6 137.6 Q 66.1 136.9, 67.1 136.4 Q 66.4 136.0, 66.0 135.4 Q 65.6 134.7, 65.6 133.8 Q 65.6 132.5, 66.5 131.7 Q 67.5 130.9, 69.1 130.9 Q 70.8 130.9, 71.8 131.7 Q 72.7 132.5, 72.7 133.8 Q 72.7 134.6, 72.3 135.2 Q 71.8 135.8, 70.9 136.3 M 69.1 132.1 Q 68.2 132.1, 67.7 132.5 Q 67.2 133.0, 67.2 133.8 Q 67.2 134.4, 67.5 134.8 Q 67.9 135.2, 68.4 135.4 Q 68.9 135.6, 69.8 135.9 Q 70.5 135.5, 70.8 134.9 Q 71.1 134.4, 71.1 133.8 Q 71.1 133.0, 70.6 132.5 Q 70.1 132.1, 69.1 132.1 M 69.2 141.3 Q 70.3 141.3, 70.9 140.7 Q 71.5 140.2, 71.5 139.2 Q 71.5 138.6, 71.2 138.2 Q 70.9 137.8, 70.4 137.6 Q 69.9 137.4, 69.0 137.1 L 68.2 136.9 Q 67.4 137.3, 67.1 137.9 Q 66.7 138.5, 66.7 139.2 Q 66.7 140.2, 67.4 140.7 Q 68.1 141.3, 69.2 141.3 " fill="#000000"/>
<path class="legend" d="M 74.9 133.2 Q 75.4 132.1, 76.4 131.5 Q 77.3 130.9, 78.7 130.9 Q 80.4 130.9, 81.4 131.8 Q 82.4 132.7, 82.4 134.4 Q 82.4 136.1, 81.1 137.6 Q 79.9 139.2, 77.3 141.1 L 82.5 141.1 L 82.5 142.3 L 74.9 142.3 L 74.9 141.3 Q 77.0 139.8, 78.3 138.6 Q 79.5 137.5, 80.1 136.5 Q 80.8 135.5, 80.8 134.5 Q 80.8 133.4, 80.2 132.8 Q 79.7 132.2, 78.7 132.2 Q 77.8 132.2, 77.2 132.5 Q 76.6 132.9, 76.2 133.7 L 74.9 133.2 " fill="#000000"/>
<path class="legend" d="M 88.7 135.3 Q 89.7 135.3, 90.5 135.7 Q 91.3 136.1, 91.7 136.9 Q 92.1 137.7, 92.1 138.7 Q 92.1 139.8, 91.6 140.7 Q 91.1 141.5, 90.3 142.0 Q 89.4 142.5, 88.3 142.5 Q 86.3 142.5, 85.3 141.1 Q 84.3 139.7, 84.3 137.0 Q 84.3 134.0, 85.5 132.5 Q 86.8 130.9, 89.2 130.9 Q 89.9 130.9, 90.5 131.0 Q 91.1 131.2, 91.7 131.5 L 91.0 132.6 Q 90.2 132.2, 89.2 132.2 Q 87.6 132.2, 86.8 133.2 Q 86.0 134.2, 85.9 136.4 Q 86.5 135.8, 87.2 135.6 Q 87.9 135.3, 88.7 135.3 M 88.3 141.2 Q 88.9 141.2, 89.4 140.8 Q 89.9 140.5, 90.2 140.0 Q 90.5 139.4, 90.5 138.7 Q 90.5 137.7, 90.0 137.1 Q 89.4 136.5, 88.4 136.5 Q 87.7 136.5, 87.0 136.8 Q 86.4 137.1, 85.9 137.6 Q 85.9 139.5, 86.5 140.3 Q 87.1 141.2, 88.3 141.2 " fill="#000000"/>
</svg>