<svg xmlns="http://www.w3.org/2000/svg" xmlns:rdkit="http://www.rdkit.org/xml" xmlns:xlink="http://www.w3.org/1999/xlink" version="1.1" baseProfile="full" xml:space="preserve" width="150px" height="150px" viewBox="0 0 150 150">
<!-- END OF HEADER -->
<rect style="opacity:1.0;fill:#FFFFFF;stroke:none" width="150.0" height="150.0" x="0.0" y="0.0"> </rect>
<ellipse cx="39.7" cy="106.7" rx="5.2" ry="5.2" class="atom-0" style="fill:#E5E533;fill-rule:evenodd;stroke:#E5E533;stroke-width:1.0px;stroke-linecap:butt;stroke-linejoin:miter;stroke-opacity:1"/>
<ellipse cx="56.4" cy="86.9" rx="5.2" ry="5.2" class="atom-2" style="fill:#E5E533;fill-rule:evenodd;stroke:#E5E533;stroke-width:1.0px;stroke-linecap:butt;stroke-linejoin:miter;stroke-opacity:1"/>
<ellipse cx="47.6" cy="62.6" rx="5.2" ry="5.2" class="atom-3" style="fill:#E5E533;fill-rule:evenodd;stroke:#E5E533;stroke-width:1.0px;stroke-linecap:butt;stroke-linejoin:miter;stroke-opacity:1"/>
<ellipse cx="89.8" cy="47.4" rx="5.2" ry="5.2" class="atom-5" style="fill:#E5E533;fill-rule:evenodd;stroke:#E5E533;stroke-width:1.0px;stroke-linecap:butt;stroke-linejoin:miter;stroke-opacity:1"/>
<ellipse cx="98.6" cy="71.7" rx="5.2" ry="5.2" class="atom-7" style="fill:#E5E533;fill-rule:evenodd;stroke:#E5E533;stroke-width:1.0px;stroke-linecap:butt;stroke-linejoin:miter;stroke-opacity:1"/>
<ellipse cx="81.9" cy="91.5" rx="5.2" ry="5.2" class="atom-8" style="fill:#9999E5;fill-rule:evenodd;stroke:#9999E5;stroke-width:1.0px;stroke-linecap:butt;stroke-linejoin:miter;stroke-opacity:1"/>
<ellipse cx="124.1" cy="76.3" rx="5.2" ry="5.2" class="atom-10" style="fill:#E5E533;fill-rule:evenodd;stroke:#E5E533;stroke-width:1.0px;stroke-linecap:butt;stroke-linejoin:miter;stroke-opacity:1"/>
<path class="bond-0 atom-0 atom-1" d="M 39.7,106.7 L 18.0,102.8" style="fill:none;fill-rule:evenodd;stroke:#E5E5E5;stroke-width:1.4px;stroke-linecap:butt;stroke-linejoin:miter;stroke-opacity:1"/>
<path class="bond-0 atom-0 atom-1" d="M 38.2,102.5 L 18.7,99.0" style="fill:none;fill-rule:evenodd;stroke:#E5E5E5;stroke-width:1.4px;stroke-linecap:butt;stroke-linejoin:miter;stroke-opacity:1;stroke-dasharray:6,4"/>
<path class="bond-1 atom-0 atom-2" d="M 39.7,106.7 L 56.4,86.9" style="fill:none;fill-rule:evenodd;stroke:#000000;stroke-width:2.0px;stroke-linecap:butt;stroke-linejoin:miter;stroke-opacity:1"/>
<path class="bond-1 atom-0 atom-2" d="M 38.2,102.5 L 52.0,86.2" style="fill:none;fill-rule:evenodd;stroke:#000000;stroke-width:2.0px;stroke-linecap:butt;stroke-linejoin:miter;stroke-opacity:1;stroke-dasharray:6,4"/>
<path class="bond-2 atom-3 atom-4" d="M 47.6,62.6 L 25.9,58.7" style="fill:none;fill-rule:evenodd;stroke:#E5E5E5;stroke-width:1.4px;stroke-linecap:butt;stroke-linejoin:miter;stroke-opacity:1"/>
<path class="bond-2 atom-3 atom-4" d="M 44.7,66.0 L 25.2,62.5" style="fill:none;fill-rule:evenodd;stroke:#E5E5E5;stroke-width:1.4px;stroke-linecap:butt;stroke-linejoin:miter;stroke-opacity:1;stroke-dasharray:6,4"/>
<path class="bond-3 atom-3 atom-2" d="M 47.6,62.6 L 56.4,86.9" style="fill:none;fill-rule:evenodd;stroke:#000000;stroke-width:2.0px;stroke-linecap:butt;stroke-linejoin:miter;stroke-opacity:1"/>
<path class="bond-3 atom-3 atom-2" d="M 44.7,66.0 L 52.0,86.2" style="fill:none;fill-rule:evenodd;stroke:#000000;stroke-width:2.0px;stroke-linecap:butt;stroke-linejoin:miter;stroke-opacity:1;stroke-dasharray:6,4"/>
<path class="bond-4 atom-5 atom-6" d="M 89.8,47.4 L 106.1,28.0" style="fill:none;fill-rule:evenodd;stroke:#E5E5E5;stroke-width:1.4px;stroke-linecap:butt;stroke-linejoin:miter;stroke-opacity:1"/>
<path class="bond-4 atom-5 atom-6" d="M 94.2,48.1 L 109.0,30.5" style="fill:none;fill-rule:evenodd;stroke:#E5E5E5;stroke-width:1.4px;stroke-linecap:butt;stroke-linejoin:miter;stroke-opacity:1;stroke-dasharray:6,4"/>
<path class="bond-5 atom-5 atom-7" d="M 89.8,47.4 L 98.6,71.7" style="fill:none;fill-rule:evenodd;stroke:#000000;stroke-width:2.0px;stroke-linecap:butt;stroke-linejoin:miter;stroke-opacity:1"/>
<path class="bond-5 atom-5 atom-7" d="M 94.2,48.1 L 101.5,68.3" style="fill:none;fill-rule:evenodd;stroke:#000000;stroke-width:2.0px;stroke-linecap:butt;stroke-linejoin:miter;stroke-opacity:1;stroke-dasharray:6,4"/>
<path class="bond-6 atom-2 atom-8" d="M 56.4,86.9 L 67.4,88.9" style="fill:none;fill-rule:evenodd;stroke:#000000;stroke-width:2.0px;stroke-linecap:butt;stroke-linejoin:miter;stroke-opacity:1"/>
<path class="bond-6 atom-2 atom-8" d="M 67.4,88.9 L 78.3,90.8" style="fill:none;fill-rule:evenodd;stroke:#0000FF;stroke-width:2.0px;stroke-linecap:butt;stroke-linejoin:miter;stroke-opacity:1"/>
<path class="bond-7 atom-9 atom-10" d="M 133.5,95.1 L 125.2,81.8" style="fill:none;fill-rule:evenodd;stroke:#E5E5E5;stroke-width:1.4px;stroke-linecap:butt;stroke-linejoin:miter;stroke-opacity:1"/>
<path class="bond-7 atom-9 atom-10" d="M 136.8,93.0 L 128.5,79.7" style="fill:none;fill-rule:evenodd;stroke:#E5E5E5;stroke-width:1.4px;stroke-linecap:butt;stroke-linejoin:miter;stroke-opacity:1;stroke-dasharray:6,4"/>
<path class="bond-8 atom-7 atom-8" d="M 98.6,71.7 L 92.1,79.4" style="fill:none;fill-rule:evenodd;stroke:#000000;stroke-width:2.0px;stroke-linecap:butt;stroke-linejoin:miter;stroke-opacity:1"/>
<path class="bond-8 atom-7 atom-8" d="M 92.1,79.4 L 85.6,87.2" style="fill:none;fill-rule:evenodd;stroke:#0000FF;stroke-width:2.0px;stroke-linecap:butt;stroke-linejoin:miter;stroke-opacity:1"/>
<path class="bond-9 atom-7 atom-10" d="M 98.6,71.7 L 109.5,73.7" style="fill:none;fill-rule:evenodd;stroke:#000000;stroke-width:2.0px;stroke-linecap:butt;stroke-linejoin:miter;stroke-opacity:1"/>
<path class="bond-9 atom-7 atom-10" d="M 109.5,73.7 L 120.4,75.6" style="fill:none;fill-rule:evenodd;stroke:#0000FF;stroke-width:2.0px;stroke-linecap:butt;stroke-linejoin:miter;stroke-opacity:1"/>
<path class="bond-9 atom-7 atom-10" d="M 101.5,68.3 L 111.3,70.0" style="fill:none;fill-rule:evenodd;stroke:#000000;stroke-width:2.0px;stroke-linecap:butt;stroke-linejoin:miter;stroke-opacity:1;stroke-dasharray:6,4"/>
<path class="bond-9 atom-7 atom-10" d="M 111.3,70.0 L 121.1,71.8" style="fill:none;fill-rule:evenodd;stroke:#0000FF;stroke-width:2.0px;stroke-linecap:butt;stroke-linejoin:miter;stroke-opacity:1;stroke-dasharray:6,4"/>
<path class="bond-10 atom-11 atom-10" d="M 141.8,58.2 L 129.2,73.2" style="fill:none;fill-rule:evenodd;stroke:#E5E5E5;stroke-width:1.4px;stroke-linecap:butt;stroke-linejoin:miter;stroke-opacity:1"/>
<path class="bond-10 atom-11 atom-10" d="M 138.9,55.7 L 126.2,70.7" style="fill:none;fill-rule:evenodd;stroke:#E5E5E5;stroke-width:1.4px;stroke-linecap:butt;stroke-linejoin:miter;stroke-opacity:1;stroke-dasharray:6,4"/>
<path d="M 39.2,106.6 L 39.7,106.7 L 40.2,106.2" style="fill:none;stroke:#E5E5E5;stroke-width:1.4px;stroke-linecap:butt;stroke-linejoin:miter;stroke-opacity:1;"/>
<path d="M 47.1,62.5 L 47.6,62.6 L 47.9,63.2" style="fill:none;stroke:#E5E5E5;stroke-width:1.4px;stroke-linecap:butt;stroke-linejoin:miter;stroke-opacity:1;"/>
<path d="M 90.2,46.9 L 89.8,47.4 L 90.0,48.0" style="fill:none;stroke:#E5E5E5;stroke-width:1.4px;stroke-linecap:butt;stroke-linejoin:miter;stroke-opacity:1;"/>
<path class="atom-1" d="M 7.9 99.5 L 8.9 98.4 L 7.5 98.1 L 7.7 97.3 L 9.0 98.0 L 8.8 96.6 L 9.6 96.5 L 9.4 98.0 L 10.7 97.4 L 11.0 98.1 L 9.5 98.3 L 10.6 99.4 L 9.9 99.9 L 9.2 98.5 L 8.5 99.9 L 7.9 99.5 " fill="#191919"/>
<path class="atom-1" d="M 11.7 96.7 L 12.7 96.7 L 12.7 99.8 L 16.5 99.8 L 16.5 96.7 L 17.5 96.7 L 17.5 104.0 L 16.5 104.0 L 16.5 100.6 L 12.7 100.6 L 12.7 104.0 L 11.7 104.0 L 11.7 96.7 " fill="#191919"/>
<path class="atom-4" d="M 15.1 59.1 L 16.1 58.0 L 14.7 57.8 L 14.9 57.0 L 16.2 57.7 L 16.0 56.2 L 16.8 56.2 L 16.6 57.7 L 17.9 57.0 L 18.2 57.8 L 16.7 58.0 L 17.8 59.1 L 17.1 59.6 L 16.4 58.2 L 15.7 59.6 L 15.1 59.1 " fill="#191919"/>
<path class="atom-4" d="M 18.9 56.4 L 19.9 56.4 L 19.9 59.5 L 23.7 59.5 L 23.7 56.4 L 24.7 56.4 L 24.7 63.7 L 23.7 63.7 L 23.7 60.3 L 19.9 60.3 L 19.9 63.7 L 18.9 63.7 L 18.9 56.4 " fill="#191919"/>
<path class="atom-6" d="M 106.6 28.0 L 107.7 26.9 L 106.2 26.6 L 106.5 25.9 L 107.8 26.5 L 107.6 25.1 L 108.4 25.1 L 108.1 26.5 L 109.5 25.9 L 109.7 26.6 L 108.3 26.9 L 109.3 28.0 L 108.7 28.4 L 107.9 27.1 L 107.2 28.4 L 106.6 28.0 " fill="#191919"/>
<path class="atom-8" d="M 80.3 87.8 L 82.7 91.7 Q 82.9 92.1, 83.3 92.8 Q 83.7 93.5, 83.7 93.5 L 83.7 87.8 L 84.7 87.8 L 84.7 95.2 L 83.7 95.2 L 81.1 90.9 Q 80.8 90.4, 80.5 89.8 Q 80.2 89.3, 80.1 89.1 L 80.1 95.2 L 79.1 95.2 L 79.1 87.8 L 80.3 87.8 " fill="#0000FF"/>
<path class="atom-8" d="M 79.0 95.9 L 80.0 95.9 L 80.0 99.0 L 83.8 99.0 L 83.8 95.9 L 84.8 95.9 L 84.8 103.2 L 83.8 103.2 L 83.8 99.8 L 80.0 99.8 L 80.0 103.2 L 79.0 103.2 L 79.0 95.9 " fill="#0000FF"/>
<path class="atom-9" d="M 136.4 97.4 L 137.4 96.3 L 136.0 96.0 L 136.2 95.3 L 137.5 96.0 L 137.4 94.5 L 138.1 94.5 L 137.9 95.9 L 139.3 95.3 L 139.5 96.0 L 138.0 96.3 L 139.1 97.4 L 138.4 97.9 L 137.7 96.5 L 137.0 97.9 L 136.4 97.4 " fill="#191919"/>
<path class="atom-10" d="M 122.5 72.6 L 124.9 76.5 Q 125.1 76.9, 125.5 77.5 Q 125.9 78.2, 125.9 78.3 L 125.9 72.6 L 126.9 72.6 L 126.9 79.9 L 125.9 79.9 L 123.3 75.7 Q 123.0 75.2, 122.7 74.6 Q 122.3 74.0, 122.3 73.9 L 122.3 79.9 L 121.3 79.9 L 121.3 72.6 L 122.5 72.6 " fill="#0000FF"/>
<path class="atom-11" d="M 139.4 55.6 L 140.5 54.5 L 139.0 54.3 L 139.2 53.5 L 140.6 54.2 L 140.4 52.7 L 141.2 52.7 L 140.9 54.2 L 142.3 53.6 L 142.5 54.3 L 141.1 54.5 L 142.1 55.6 L 141.5 56.1 L 140.7 54.7 L 140.0 56.1 L 139.4 55.6 " fill="#191919"/>
<path class="legend" d="M 57.5 141.1 L 60.0 141.1 L 60.0 132.6 L 57.3 133.4 L 56.9 132.5 L 60.4 130.9 L 61.5 131.1 L 61.5 141.1 L 63.7 141.1 L 63.7 142.3 L 57.5 142.3 L 57.5 141.1 " fill="#000000"/>
<path class="legend" d="M 70.9 136.3 Q 72.0 136.8, 72.6 137.5 Q 73.1 138.1, 73.1 139.2 Q 73.1 140.2, 72.6 140.9 Q 72.2 141.7, 71.3 142.1 Q 70.4 142.5, 69.2 142.5 Q 67.3 142.5, 66.2 141.6 Q 65.1 140.8, 65.1 139.2 Q 65.1 138.3, 65.6 137.6 Q 66.1 136.9, 67.1 136.4 Q 66.4 136.0, 66.0 135.4 Q 65.6 134.7, 65.6 133.8 Q 65.6 132.5, 66.5 131.7 Q 67.5 130.9, 69.1 130.9 Q 70.8 130.9, 71.8 131.7 Q 72.7 132.5, 72.7 133.8 Q 72.7 134.6, 72.3 135.2 Q 71.8 135.8, 70.9 136.3 M 69.1 132.1 Q 68.2 132.1, 67.7 132.5 Q 67.2 133.0, 67.2 133.8 Q 67.2 134.4, 67.5 134.8 Q 67.9 135.2, 68.4 135.4 Q 68.9 135.6, 69.8 135.9 Q 70.5 135.5, 70.8 134.9 Q 71.1 134.4, 71.1 133.8 Q 71.1 133.0, 70.6 132.5 Q 70.1 132.1, 69.1 132.1 M 69.2 141.3 Q 70.3 141.3, 70.9 140.7 Q 71.5 140.2, 71.5 139.2 Q 71.5 138.6, 71.2 138.2 Q 70.9 137.8, 70.4 137.6 Q 69.9 137.4, 69.0 137.1 L 68.2 136.9 Q 67.4 137.3, 67.1 137.9 Q 66.7 138.5, 66.7 139.2 Q 66.7 140.2, 67.4 140.7 Q 68.1 141.3, 69.2 141.3 " fill="#000000"/>
<path class="legend" d="M 74.9 133.2 Q 75.4 132.1, 76.4 131.5 Q 77.3 130.9, 78.7 130.9 Q 80.4 130.9, 81.4 131.8 Q 82.4 132.7, 82.4 134.4 Q 82.4 136.1, 81.1 137.6 Q 79.9 139.2, 77.3 141.1 L 82.5 141.1 L 82.5 142.3 L 74.9 142.3 L 74.9 141.3 Q 77.0 139.8, 78.3 138.6 Q 79.5 137.5, 80.1 136.5 Q 80.8 135.5, 80.8 134.5 Q 80.8 133.4, 80.2 132.8 Q 79.7 132.2, 78.7 132.2 Q 77.8 132.2, 77.2 132.5 Q 76.6 132.9, 76.2 133.7 L 74.9 133.2 " fill="#000000"/>
<path class="legend" d="M 88.1 130.9 Q 90.1 130.9, 91.1 132.3 Q 92.1 133.6, 92.1 136.3 Q 92.1 139.3, 90.9 140.9 Q 89.6 142.5, 87.2 142.5 Q 86.5 142.5, 85.9 142.3 Q 85.3 142.1, 84.7 141.8 L 85.3 140.7 Q 86.2 141.2, 87.2 141.2 Q 88.8 141.2, 89.6 140.2 Q 90.4 139.1, 90.5 137.0 Q 89.9 137.5, 89.2 137.8 Q 88.5 138.1, 87.7 138.1 Q 86.7 138.1, 85.9 137.7 Q 85.1 137.2, 84.7 136.4 Q 84.3 135.7, 84.3 134.7 Q 84.3 133.6, 84.7 132.7 Q 85.2 131.8, 86.1 131.4 Q 87.0 130.9, 88.1 130.9 M 85.9 134.6 Q 85.9 135.7, 86.4 136.2 Q 87.0 136.8, 88.0 136.8 Q 88.7 136.8, 89.3 136.5 Q 90.0 136.2, 90.5 135.8 Q 90.4 133.9, 89.8 133.0 Q 89.3 132.2, 88.1 132.2 Q 87.4 132.2, 86.9 132.5 Q 86.4 132.8, 86.1 133.4 Q 85.9 134.0, 85.9 134.6 " fill="#000000"/>
</svg>