<svg xmlns="http://www.w3.org/2000/svg" xmlns:rdkit="http://www.rdkit.org/xml" xmlns:xlink="http://www.w3.org/1999/xlink" version="1.1" baseProfile="full" xml:space="preserve" width="150px" height="150px" viewBox="0 0 150 150">
<!-- END OF HEADER -->
<rect style="opacity:1.0;fill:#FFFFFF;stroke:none" width="150.0" height="150.0" x="0.0" y="0.0"> </rect>
<ellipse cx="90.4" cy="96.4" rx="5.7" ry="5.7" class="atom-0" style="fill:#E5E533;fill-rule:evenodd;stroke:#E5E533;stroke-width:1.0px;stroke-linecap:butt;stroke-linejoin:miter;stroke-opacity:1"/>
<ellipse cx="98.6" cy="69.1" rx="5.7" ry="5.7" class="atom-2" style="fill:#E5E533;fill-rule:evenodd;stroke:#E5E533;stroke-width:1.0px;stroke-linecap:butt;stroke-linejoin:miter;stroke-opacity:1"/>
<ellipse cx="43.1" cy="82.1" rx="5.7" ry="5.7" class="atom-3" style="fill:#E5E533;fill-rule:evenodd;stroke:#E5E533;stroke-width:1.0px;stroke-linecap:butt;stroke-linejoin:miter;stroke-opacity:1"/>
<ellipse cx="79.1" cy="48.3" rx="5.7" ry="5.7" class="atom-4" style="fill:#9999E5;fill-rule:evenodd;stroke:#9999E5;stroke-width:1.0px;stroke-linecap:butt;stroke-linejoin:miter;stroke-opacity:1"/>
<ellipse cx="51.4" cy="54.8" rx="5.7" ry="5.7" class="atom-5" style="fill:#E5E533;fill-rule:evenodd;stroke:#E5E533;stroke-width:1.0px;stroke-linecap:butt;stroke-linejoin:miter;stroke-opacity:1"/>
<path class="bond-0 atom-0 atom-1" d="M 90.4,96.4 L 69.1,101.4" style="fill:none;fill-rule:evenodd;stroke:#E5E5E5;stroke-width:1.5px;stroke-linecap:butt;stroke-linejoin:miter;stroke-opacity:1"/>
<path class="bond-1 atom-0 atom-2" d="M 90.4,96.4 L 98.6,69.1" style="fill:none;fill-rule:evenodd;stroke:#000000;stroke-width:2.0px;stroke-linecap:butt;stroke-linejoin:miter;stroke-opacity:1"/>
<path class="bond-1 atom-0 atom-2" d="M 87.0,92.8 L 93.8,70.2" style="fill:none;fill-rule:evenodd;stroke:#000000;stroke-width:2.0px;stroke-linecap:butt;stroke-linejoin:miter;stroke-opacity:1"/>
<path class="bond-2 atom-1 atom-3" d="M 57.9,97.9 L 43.1,82.1" style="fill:none;fill-rule:evenodd;stroke:#E5E5E5;stroke-width:1.5px;stroke-linecap:butt;stroke-linejoin:miter;stroke-opacity:1"/>
<path class="bond-2 atom-1 atom-3" d="M 61.0,94.9 L 47.9,81.0" style="fill:none;fill-rule:evenodd;stroke:#E5E5E5;stroke-width:1.5px;stroke-linecap:butt;stroke-linejoin:miter;stroke-opacity:1"/>
<path class="bond-3 atom-4 atom-2" d="M 79.1,48.3 L 98.6,69.1" style="fill:none;fill-rule:evenodd;stroke:#000000;stroke-width:2.0px;stroke-linecap:butt;stroke-linejoin:miter;stroke-opacity:1"/>
<path class="bond-4 atom-4 atom-5" d="M 79.1,48.3 L 51.4,54.8" style="fill:none;fill-rule:evenodd;stroke:#000000;stroke-width:2.0px;stroke-linecap:butt;stroke-linejoin:miter;stroke-opacity:1"/>
<path class="bond-4 atom-4 atom-5" d="M 77.7,53.0 L 54.7,58.4" style="fill:none;fill-rule:evenodd;stroke:#000000;stroke-width:2.0px;stroke-linecap:butt;stroke-linejoin:miter;stroke-opacity:1"/>
<path class="bond-5 atom-2 atom-6" d="M 98.6,69.1 L 110.5,66.3" style="fill:none;fill-rule:evenodd;stroke:#000000;stroke-width:2.0px;stroke-linecap:butt;stroke-linejoin:miter;stroke-opacity:1"/>
<path class="bond-5 atom-2 atom-6" d="M 110.5,66.3 L 122.4,63.6" style="fill:none;fill-rule:evenodd;stroke:#0000FF;stroke-width:2.0px;stroke-linecap:butt;stroke-linejoin:miter;stroke-opacity:1"/>
<path class="bond-6 atom-5 atom-3" d="M 51.4,54.8 L 43.1,82.1" style="fill:none;fill-rule:evenodd;stroke:#000000;stroke-width:2.0px;stroke-linecap:butt;stroke-linejoin:miter;stroke-opacity:1"/>
<path class="bond-7 atom-5 atom-7" d="M 51.4,54.8 L 43.3,46.2" style="fill:none;fill-rule:evenodd;stroke:#000000;stroke-width:2.0px;stroke-linecap:butt;stroke-linejoin:miter;stroke-opacity:1"/>
<path class="bond-7 atom-5 atom-7" d="M 43.3,46.2 L 35.2,37.6" style="fill:none;fill-rule:evenodd;stroke:#33CCCC;stroke-width:2.0px;stroke-linecap:butt;stroke-linejoin:miter;stroke-opacity:1"/>
<path class="bond-8 atom-3 atom-8" d="M 43.1,82.1 L 19.4,87.7" style="fill:none;fill-rule:evenodd;stroke:#E5E5E5;stroke-width:1.5px;stroke-linecap:butt;stroke-linejoin:miter;stroke-opacity:1"/>
<path d="M 89.9,96.5 L 90.4,96.4 L 90.6,95.7" style="fill:none;stroke:#E5E5E5;stroke-width:1.5px;stroke-linecap:butt;stroke-linejoin:miter;stroke-opacity:1;"/>
<path d="M 80.1,49.4 L 79.1,48.3 L 77.7,48.6" style="fill:none;stroke:#000000;stroke-width:2.0px;stroke-linecap:butt;stroke-linejoin:miter;stroke-opacity:1;"/>
<path class="atom-1" d="M 57.5 102.0 L 58.7 100.8 L 57.1 100.5 L 57.4 99.7 L 58.8 100.4 L 58.6 98.8 L 59.5 98.8 L 59.2 100.4 L 60.7 99.7 L 60.9 100.5 L 59.3 100.8 L 60.5 102.0 L 59.8 102.5 L 59.0 101.0 L 58.2 102.5 L 57.5 102.0 " fill="#191919"/>
<path class="atom-1" d="M 61.8 98.9 L 62.9 98.9 L 62.9 102.4 L 67.0 102.4 L 67.0 98.9 L 68.1 98.9 L 68.1 107.0 L 67.0 107.0 L 67.0 103.3 L 62.9 103.3 L 62.9 107.0 L 61.8 107.0 L 61.8 98.9 " fill="#191919"/>
<path class="atom-6" d="M 124.6 58.6 L 127.3 62.9 Q 127.5 63.3, 128.0 64.1 Q 128.4 64.8, 128.4 64.9 L 128.4 58.6 L 129.5 58.6 L 129.5 66.7 L 128.4 66.7 L 125.5 62.0 Q 125.2 61.4, 124.8 60.8 Q 124.5 60.2, 124.4 60.0 L 124.4 66.7 L 123.4 66.7 L 123.4 58.6 L 124.6 58.6 " fill="#0000FF"/>
<path class="atom-6" d="M 131.0 58.6 L 132.1 58.6 L 132.1 62.0 L 136.2 62.0 L 136.2 58.6 L 137.3 58.6 L 137.3 66.7 L 136.2 66.7 L 136.2 62.9 L 132.1 62.9 L 132.1 66.7 L 131.0 66.7 L 131.0 58.6 " fill="#0000FF"/>
<path class="atom-6" d="M 138.9 66.4 Q 139.1 65.9, 139.6 65.6 Q 140.1 65.3, 140.7 65.3 Q 141.5 65.3, 142.0 65.8 Q 142.4 66.2, 142.4 67.0 Q 142.4 67.8, 141.8 68.5 Q 141.2 69.2, 140.0 70.1 L 142.5 70.1 L 142.5 70.7 L 138.9 70.7 L 138.9 70.2 Q 139.9 69.5, 140.5 69.0 Q 141.1 68.4, 141.4 68.0 Q 141.7 67.5, 141.7 67.0 Q 141.7 66.5, 141.4 66.2 Q 141.1 65.9, 140.7 65.9 Q 140.3 65.9, 140.0 66.1 Q 139.7 66.3, 139.5 66.6 L 138.9 66.4 " fill="#0000FF"/>
<path class="atom-7" d="M 29.5 30.0 L 34.3 30.0 L 34.3 30.9 L 30.5 30.9 L 30.5 33.4 L 33.8 33.4 L 33.8 34.3 L 30.5 34.3 L 30.5 38.1 L 29.5 38.1 L 29.5 30.0 " fill="#33CCCC"/>
<path class="atom-8" d="M 7.9 87.7 L 9.1 86.5 L 7.5 86.2 L 7.7 85.4 L 9.2 86.1 L 9.0 84.5 L 9.8 84.5 L 9.6 86.1 L 11.1 85.4 L 11.3 86.2 L 9.7 86.5 L 10.9 87.7 L 10.2 88.2 L 9.4 86.7 L 8.6 88.2 L 7.9 87.7 " fill="#191919"/>
<path class="atom-8" d="M 12.2 84.6 L 13.3 84.6 L 13.3 88.1 L 17.4 88.1 L 17.4 84.6 L 18.5 84.6 L 18.5 92.7 L 17.4 92.7 L 17.4 89.0 L 13.3 89.0 L 13.3 92.7 L 12.2 92.7 L 12.2 84.6 " fill="#191919"/>
<path class="legend" d="M 57.8 141.1 L 60.2 141.1 L 60.2 132.6 L 57.5 133.4 L 57.1 132.5 L 60.6 130.9 L 61.8 131.1 L 61.8 141.1 L 64.0 141.1 L 64.0 142.3 L 57.8 142.3 L 57.8 141.1 " fill="#000000"/>
<path class="legend" d="M 71.2 136.3 Q 72.2 136.8, 72.8 137.5 Q 73.4 138.1, 73.4 139.2 Q 73.4 140.2, 72.9 140.9 Q 72.4 141.7, 71.5 142.1 Q 70.6 142.5, 69.5 142.5 Q 67.6 142.5, 66.5 141.6 Q 65.4 140.8, 65.4 139.2 Q 65.4 138.3, 65.9 137.6 Q 66.4 136.9, 67.3 136.4 Q 66.6 136.0, 66.2 135.4 Q 65.8 134.7, 65.8 133.8 Q 65.8 132.5, 66.8 131.7 Q 67.7 130.9, 69.4 130.9 Q 71.0 130.9, 72.0 131.7 Q 73.0 132.5, 73.0 133.8 Q 73.0 134.6, 72.5 135.2 Q 72.1 135.8, 71.2 136.3 M 69.4 132.1 Q 68.5 132.1, 67.9 132.5 Q 67.4 133.0, 67.4 133.8 Q 67.4 134.4, 67.8 134.8 Q 68.1 135.2, 68.6 135.4 Q 69.1 135.6, 70.1 135.9 Q 70.8 135.5, 71.1 134.9 Q 71.4 134.4, 71.4 133.8 Q 71.4 133.0, 70.9 132.5 Q 70.3 132.1, 69.4 132.1 M 69.5 141.3 Q 70.5 141.3, 71.2 140.7 Q 71.8 140.2, 71.8 139.2 Q 71.8 138.6, 71.5 138.2 Q 71.1 137.8, 70.6 137.6 Q 70.1 137.4, 69.2 137.1 L 68.5 136.9 Q 67.7 137.3, 67.3 137.9 Q 67.0 138.5, 67.0 139.2 Q 67.0 140.2, 67.7 140.7 Q 68.3 141.3, 69.5 141.3 " fill="#000000"/>
<path class="legend" d="M 79.3 135.3 Q 80.3 135.3, 81.1 135.7 Q 81.9 136.1, 82.4 136.9 Q 82.8 137.7, 82.8 138.8 Q 82.8 139.9, 82.2 140.8 Q 81.7 141.6, 80.8 142.0 Q 79.8 142.5, 78.8 142.5 Q 77.7 142.5, 76.8 142.1 Q 75.8 141.7, 75.2 141.0 L 76.1 140.0 Q 76.6 140.5, 77.4 140.9 Q 78.1 141.2, 78.8 141.2 Q 79.8 141.2, 80.5 140.5 Q 81.2 139.9, 81.2 138.8 Q 81.2 137.6, 80.5 137.0 Q 79.8 136.5, 78.7 136.5 Q 77.7 136.5, 76.6 136.9 L 75.7 136.5 L 76.3 131.0 L 82.1 131.0 L 82.0 132.3 L 77.6 132.3 L 77.3 135.7 Q 78.3 135.3, 79.3 135.3 " fill="#000000"/>
<path class="legend" d="M 90.3 132.3 L 84.3 132.3 L 84.3 131.0 L 91.9 131.0 L 91.9 132.1 L 87.3 142.3 L 85.7 142.3 L 90.3 132.3 " fill="#000000"/>
</svg>