<svg xmlns="http://www.w3.org/2000/svg" xmlns:rdkit="http://www.rdkit.org/xml" xmlns:xlink="http://www.w3.org/1999/xlink" version="1.1" baseProfile="full" xml:space="preserve" width="150px" height="150px" viewBox="0 0 150 150">
<!-- END OF HEADER -->
<rect style="opacity:1.0;fill:#FFFFFF;stroke:none" width="150.0" height="150.0" x="0.0" y="0.0"> </rect>
<ellipse cx="88.3" cy="74.0" rx="8.3" ry="8.3" class="atom-1" style="fill:#E5E533;fill-rule:evenodd;stroke:#E5E533;stroke-width:1.0px;stroke-linecap:butt;stroke-linejoin:miter;stroke-opacity:1"/>
<ellipse cx="51.4" cy="54.9" rx="8.3" ry="8.3" class="atom-3" style="fill:#E5E533;fill-rule:evenodd;stroke:#E5E533;stroke-width:1.0px;stroke-linecap:butt;stroke-linejoin:miter;stroke-opacity:1"/>
<ellipse cx="40.5" cy="121.2" rx="8.3" ry="8.3" class="atom-4" style="fill:#9999E5;fill-rule:evenodd;stroke:#9999E5;stroke-width:1.0px;stroke-linecap:butt;stroke-linejoin:miter;stroke-opacity:1"/>
<ellipse cx="81.5" cy="114.9" rx="8.3" ry="8.3" class="atom-5" style="fill:#CCCCCC;fill-rule:evenodd;stroke:#CCCCCC;stroke-width:1.0px;stroke-linecap:butt;stroke-linejoin:miter;stroke-opacity:1"/>
<ellipse cx="21.9" cy="84.1" rx="8.3" ry="8.3" class="atom-6" style="fill:#CCCCCC;fill-rule:evenodd;stroke:#CCCCCC;stroke-width:1.0px;stroke-linecap:butt;stroke-linejoin:miter;stroke-opacity:1"/>
<path class="bond-0 atom-0 atom-1" d="M 122.0,52.4 L 88.3,74.0" style="fill:none;fill-rule:evenodd;stroke:#E5E5E5;stroke-width:2.2px;stroke-linecap:butt;stroke-linejoin:miter;stroke-opacity:1"/>
<path class="bond-1 atom-2 atom-3" d="M 49.5,14.2 L 51.4,54.9" style="fill:none;fill-rule:evenodd;stroke:#E5E5E5;stroke-width:2.2px;stroke-linecap:butt;stroke-linejoin:miter;stroke-opacity:1"/>
<path class="bond-2 atom-4 atom-5" d="M 40.5,121.2 L 57.6,118.6" style="fill:none;fill-rule:evenodd;stroke:#000000;stroke-width:2.0px;stroke-linecap:butt;stroke-linejoin:miter;stroke-opacity:1"/>
<path class="bond-2 atom-4 atom-5" d="M 57.6,118.6 L 74.8,116.0" style="fill:none;fill-rule:evenodd;stroke:#FF0000;stroke-width:2.0px;stroke-linecap:butt;stroke-linejoin:miter;stroke-opacity:1"/>
<path class="bond-3 atom-4 atom-6" d="M 40.5,121.2 L 33.1,106.4" style="fill:none;fill-rule:evenodd;stroke:#000000;stroke-width:2.0px;stroke-linecap:butt;stroke-linejoin:miter;stroke-opacity:1"/>
<path class="bond-3 atom-4 atom-6" d="M 33.1,106.4 L 25.6,91.6" style="fill:none;fill-rule:evenodd;stroke:#FF0000;stroke-width:2.0px;stroke-linecap:butt;stroke-linejoin:miter;stroke-opacity:1"/>
<path class="bond-4 atom-1 atom-3" d="M 88.3,74.0 L 51.4,54.9" style="fill:none;fill-rule:evenodd;stroke:#E5E5E5;stroke-width:2.2px;stroke-linecap:butt;stroke-linejoin:miter;stroke-opacity:1"/>
<path class="bond-4 atom-1 atom-3" d="M 81.4,77.4 L 52.6,62.5" style="fill:none;fill-rule:evenodd;stroke:#E5E5E5;stroke-width:2.2px;stroke-linecap:butt;stroke-linejoin:miter;stroke-opacity:1"/>
<path class="bond-5 atom-1 atom-5" d="M 88.3,74.0 L 85.5,90.8" style="fill:none;fill-rule:evenodd;stroke:#000000;stroke-width:2.0px;stroke-linecap:butt;stroke-linejoin:miter;stroke-opacity:1"/>
<path class="bond-5 atom-1 atom-5" d="M 85.5,90.8 L 82.7,107.6" style="fill:none;fill-rule:evenodd;stroke:#FF0000;stroke-width:2.0px;stroke-linecap:butt;stroke-linejoin:miter;stroke-opacity:1"/>
<path class="bond-6 atom-3 atom-6" d="M 51.4,54.9 L 40.0,66.2" style="fill:none;fill-rule:evenodd;stroke:#000000;stroke-width:2.0px;stroke-linecap:butt;stroke-linejoin:miter;stroke-opacity:1"/>
<path class="bond-6 atom-3 atom-6" d="M 40.0,66.2 L 28.6,77.4" style="fill:none;fill-rule:evenodd;stroke:#FF0000;stroke-width:2.0px;stroke-linecap:butt;stroke-linejoin:miter;stroke-opacity:1"/>
<path d="M 41.4,121.1 L 40.5,121.2 L 40.1,120.5" style="fill:none;stroke:#000000;stroke-width:2.0px;stroke-linecap:butt;stroke-linejoin:miter;stroke-opacity:1;"/>
<path class="atom-0" d="M 121.0 50.3 L 122.7 48.5 L 120.4 48.0 L 120.8 46.9 L 122.9 47.9 L 122.6 45.6 L 123.8 45.6 L 123.5 47.9 L 125.6 46.9 L 126.0 48.0 L 123.7 48.5 L 125.3 50.3 L 124.3 51.0 L 123.2 48.8 L 122.0 51.0 L 121.0 50.3 " fill="#191919"/>
<path class="atom-0" d="M 127.2 45.8 L 128.8 45.8 L 128.8 50.8 L 134.8 50.8 L 134.8 45.8 L 136.4 45.8 L 136.4 57.6 L 134.8 57.6 L 134.8 52.1 L 128.8 52.1 L 128.8 57.6 L 127.2 57.6 L 127.2 45.8 " fill="#191919"/>
<path class="atom-2" d="M 47.2 12.2 L 49.0 10.4 L 46.7 9.9 L 47.0 8.8 L 49.1 9.8 L 48.8 7.5 L 50.1 7.5 L 49.7 9.8 L 51.9 8.8 L 52.2 9.9 L 49.9 10.4 L 51.6 12.1 L 50.6 12.9 L 49.4 10.7 L 48.3 12.9 L 47.2 12.2 " fill="#191919"/>
<path class="atom-2" d="M 53.5 7.7 L 55.1 7.7 L 55.1 12.7 L 61.1 12.7 L 61.1 7.7 L 62.7 7.7 L 62.7 19.5 L 61.1 19.5 L 61.1 14.0 L 55.1 14.0 L 55.1 19.5 L 53.5 19.5 L 53.5 7.7 " fill="#191919"/>
<path class="atom-5" d="M 76.1 115.0 Q 76.1 112.2, 77.5 110.6 Q 78.9 109.0, 81.5 109.0 Q 84.1 109.0, 85.5 110.6 Q 86.9 112.2, 86.9 115.0 Q 86.9 117.8, 85.5 119.5 Q 84.1 121.1, 81.5 121.1 Q 79.0 121.1, 77.5 119.5 Q 76.1 117.8, 76.1 115.0 M 81.5 119.7 Q 83.3 119.7, 84.3 118.5 Q 85.3 117.3, 85.3 115.0 Q 85.3 112.7, 84.3 111.5 Q 83.3 110.3, 81.5 110.3 Q 79.8 110.3, 78.8 111.5 Q 77.8 112.6, 77.8 115.0 Q 77.8 117.3, 78.8 118.5 Q 79.8 119.7, 81.5 119.7 " fill="#FF0000"/>
<path class="atom-6" d="M 16.5 84.1 Q 16.5 81.3, 17.9 79.7 Q 19.3 78.2, 21.9 78.2 Q 24.5 78.2, 25.9 79.7 Q 27.3 81.3, 27.3 84.1 Q 27.3 87.0, 25.9 88.6 Q 24.5 90.2, 21.9 90.2 Q 19.3 90.2, 17.9 88.6 Q 16.5 87.0, 16.5 84.1 M 21.9 88.9 Q 23.7 88.9, 24.6 87.7 Q 25.6 86.5, 25.6 84.1 Q 25.6 81.8, 24.6 80.7 Q 23.7 79.5, 21.9 79.5 Q 20.1 79.5, 19.1 80.7 Q 18.1 81.8, 18.1 84.1 Q 18.1 86.5, 19.1 87.7 Q 20.1 88.9, 21.9 88.9 " fill="#FF0000"/>
<path class="legend" d="M 57.6 141.1 L 60.0 141.1 L 60.0 132.6 L 57.3 133.4 L 56.9 132.5 L 60.4 130.9 L 61.5 131.1 L 61.5 141.1 L 63.8 141.1 L 63.8 142.3 L 57.6 142.3 L 57.6 141.1 " fill="#000000"/>
<path class="legend" d="M 71.0 136.3 Q 72.0 136.8, 72.6 137.5 Q 73.2 138.1, 73.2 139.2 Q 73.2 140.2, 72.7 140.9 Q 72.2 141.7, 71.3 142.1 Q 70.4 142.5, 69.3 142.5 Q 67.4 142.5, 66.3 141.6 Q 65.2 140.8, 65.2 139.2 Q 65.2 138.3, 65.7 137.6 Q 66.2 136.9, 67.1 136.4 Q 66.4 136.0, 66.0 135.4 Q 65.6 134.7, 65.6 133.8 Q 65.6 132.5, 66.6 131.7 Q 67.5 130.9, 69.2 130.9 Q 70.8 130.9, 71.8 131.7 Q 72.8 132.5, 72.8 133.8 Q 72.8 134.6, 72.3 135.2 Q 71.9 135.8, 71.0 136.3 M 69.2 132.1 Q 68.2 132.1, 67.7 132.5 Q 67.2 133.0, 67.2 133.8 Q 67.2 134.4, 67.6 134.8 Q 67.9 135.2, 68.4 135.4 Q 68.9 135.6, 69.9 135.9 Q 70.6 135.5, 70.9 134.9 Q 71.2 134.4, 71.2 133.8 Q 71.2 133.0, 70.6 132.5 Q 70.1 132.1, 69.2 132.1 M 69.3 141.3 Q 70.3 141.3, 71.0 140.7 Q 71.6 140.2, 71.6 139.2 Q 71.6 138.6, 71.3 138.2 Q 70.9 137.8, 70.4 137.6 Q 69.9 137.4, 69.0 137.1 L 68.3 136.9 Q 67.5 137.3, 67.1 137.9 Q 66.8 138.5, 66.8 139.2 Q 66.8 140.2, 67.5 140.7 Q 68.1 141.3, 69.3 141.3 " fill="#000000"/>
<path class="legend" d="M 79.4 135.3 Q 80.4 135.3, 81.2 135.7 Q 82.0 136.1, 82.4 136.9 Q 82.8 137.7, 82.8 138.7 Q 82.8 139.8, 82.3 140.7 Q 81.8 141.5, 81.0 142.0 Q 80.1 142.5, 79.0 142.5 Q 77.0 142.5, 76.0 141.1 Q 75.0 139.7, 75.0 137.0 Q 75.0 134.0, 76.2 132.5 Q 77.5 130.9, 79.9 130.9 Q 80.6 130.9, 81.2 131.0 Q 81.8 131.2, 82.4 131.5 L 81.7 132.6 Q 80.9 132.2, 79.9 132.2 Q 78.3 132.2, 77.5 133.2 Q 76.7 134.2, 76.6 136.4 Q 77.2 135.8, 77.9 135.6 Q 78.6 135.3, 79.4 135.3 M 79.0 141.2 Q 79.6 141.2, 80.1 140.8 Q 80.6 140.5, 80.9 140.0 Q 81.2 139.4, 81.2 138.7 Q 81.2 137.7, 80.7 137.1 Q 80.1 136.5, 79.1 136.5 Q 78.4 136.5, 77.7 136.8 Q 77.1 137.1, 76.6 137.6 Q 76.6 139.5, 77.2 140.3 Q 77.8 141.2, 79.0 141.2 " fill="#000000"/>
<path class="legend" d="M 89.9 136.4 Q 91.0 136.7, 91.5 137.4 Q 92.1 138.1, 92.1 139.2 Q 92.1 140.2, 91.6 140.9 Q 91.1 141.7, 90.2 142.1 Q 89.3 142.5, 88.2 142.5 Q 87.0 142.5, 86.1 142.1 Q 85.2 141.7, 84.5 140.8 L 85.4 139.9 Q 86.1 140.6, 86.7 140.9 Q 87.3 141.2, 88.2 141.2 Q 89.2 141.2, 89.8 140.7 Q 90.5 140.1, 90.5 139.2 Q 90.5 138.1, 89.8 137.6 Q 89.2 137.0, 87.8 137.0 L 87.0 137.0 L 87.0 135.9 L 87.7 135.9 Q 88.9 135.9, 89.6 135.3 Q 90.2 134.8, 90.2 133.8 Q 90.2 133.0, 89.7 132.6 Q 89.1 132.2, 88.2 132.2 Q 87.3 132.2, 86.7 132.5 Q 86.1 132.8, 85.7 133.7 L 84.5 133.1 Q 84.9 132.1, 85.9 131.5 Q 86.9 130.9, 88.2 130.9 Q 89.9 130.9, 90.9 131.7 Q 91.8 132.5, 91.8 133.8 Q 91.8 134.7, 91.3 135.3 Q 90.8 136.0, 89.9 136.4 " fill="#000000"/>
</svg>