<svg xmlns="http://www.w3.org/2000/svg" xmlns:rdkit="http://www.rdkit.org/xml" xmlns:xlink="http://www.w3.org/1999/xlink" version="1.1" baseProfile="full" xml:space="preserve" width="150px" height="150px" viewBox="0 0 150 150">
<!-- END OF HEADER -->
<rect style="opacity:1.0;fill:#FFFFFF;stroke:none" width="150.0" height="150.0" x="0.0" y="0.0"> </rect>
<ellipse cx="72.4" cy="57.1" rx="4.9" ry="4.9" class="atom-1" style="fill:#9999E5;fill-rule:evenodd;stroke:#9999E5;stroke-width:1.0px;stroke-linecap:butt;stroke-linejoin:miter;stroke-opacity:1"/>
<ellipse cx="93.5" cy="93.6" rx="4.9" ry="4.9" class="atom-3" style="fill:#E5E533;fill-rule:evenodd;stroke:#E5E533;stroke-width:1.0px;stroke-linecap:butt;stroke-linejoin:miter;stroke-opacity:1"/>
<ellipse cx="114.6" cy="57.1" rx="4.9" ry="4.9" class="atom-5" style="fill:#E5E533;fill-rule:evenodd;stroke:#E5E533;stroke-width:1.0px;stroke-linecap:butt;stroke-linejoin:miter;stroke-opacity:1"/>
<ellipse cx="93.5" cy="69.3" rx="4.9" ry="4.9" class="atom-6" style="fill:#E5E533;fill-rule:evenodd;stroke:#E5E533;stroke-width:1.0px;stroke-linecap:butt;stroke-linejoin:miter;stroke-opacity:1"/>
<path class="bond-0 atom-0 atom-1" d="M 72.4,32.8 L 72.4,57.1" style="fill:none;fill-rule:evenodd;stroke:#000000;stroke-width:2.0px;stroke-linecap:butt;stroke-linejoin:miter;stroke-opacity:1"/>
<path class="bond-1 atom-2 atom-3" d="M 112.1,104.4 L 93.5,93.6" style="fill:none;fill-rule:evenodd;stroke:#E5E5E5;stroke-width:1.3px;stroke-linecap:butt;stroke-linejoin:miter;stroke-opacity:1"/>
<path class="bond-1 atom-2 atom-3" d="M 114.0,101.2 L 97.1,91.5" style="fill:none;fill-rule:evenodd;stroke:#E5E5E5;stroke-width:1.3px;stroke-linecap:butt;stroke-linejoin:miter;stroke-opacity:1;stroke-dasharray:6,4"/>
<path class="bond-2 atom-4 atom-5" d="M 133.2,67.9 L 114.6,57.1" style="fill:none;fill-rule:evenodd;stroke:#E5E5E5;stroke-width:1.3px;stroke-linecap:butt;stroke-linejoin:miter;stroke-opacity:1"/>
<path class="bond-2 atom-4 atom-5" d="M 131.4,71.0 L 114.6,61.3" style="fill:none;fill-rule:evenodd;stroke:#E5E5E5;stroke-width:1.3px;stroke-linecap:butt;stroke-linejoin:miter;stroke-opacity:1;stroke-dasharray:6,4"/>
<path class="bond-3 atom-3 atom-6" d="M 93.5,93.6 L 93.5,69.3" style="fill:none;fill-rule:evenodd;stroke:#000000;stroke-width:2.0px;stroke-linecap:butt;stroke-linejoin:miter;stroke-opacity:1"/>
<path class="bond-3 atom-3 atom-6" d="M 97.1,91.5 L 97.1,71.4" style="fill:none;fill-rule:evenodd;stroke:#000000;stroke-width:2.0px;stroke-linecap:butt;stroke-linejoin:miter;stroke-opacity:1;stroke-dasharray:6,4"/>
<path class="bond-4 atom-5 atom-6" d="M 114.6,57.1 L 93.5,69.3" style="fill:none;fill-rule:evenodd;stroke:#000000;stroke-width:2.0px;stroke-linecap:butt;stroke-linejoin:miter;stroke-opacity:1"/>
<path class="bond-4 atom-5 atom-6" d="M 114.6,61.3 L 97.1,71.4" style="fill:none;fill-rule:evenodd;stroke:#000000;stroke-width:2.0px;stroke-linecap:butt;stroke-linejoin:miter;stroke-opacity:1;stroke-dasharray:6,4"/>
<path class="bond-5 atom-1 atom-6" d="M 72.4,57.1 L 93.5,69.3" style="fill:none;fill-rule:evenodd;stroke:#000000;stroke-width:2.0px;stroke-linecap:butt;stroke-linejoin:miter;stroke-opacity:1"/>
<path class="bond-6 atom-1 atom-7" d="M 72.4,57.1 L 63.6,62.2" style="fill:none;fill-rule:evenodd;stroke:#000000;stroke-width:2.0px;stroke-linecap:butt;stroke-linejoin:miter;stroke-opacity:1"/>
<path class="bond-6 atom-1 atom-7" d="M 63.6,62.2 L 54.7,67.3" style="fill:none;fill-rule:evenodd;stroke:#0000FF;stroke-width:2.0px;stroke-linecap:butt;stroke-linejoin:miter;stroke-opacity:1"/>
<path class="bond-7 atom-8 atom-9" d="M 11.6,67.9 L 30.2,57.1" style="fill:none;fill-rule:evenodd;stroke:#E5E5E5;stroke-width:1.3px;stroke-linecap:butt;stroke-linejoin:miter;stroke-opacity:1"/>
<path class="bond-8 atom-9 atom-7" d="M 30.2,57.1 L 39.1,62.2" style="fill:none;fill-rule:evenodd;stroke:#000000;stroke-width:2.0px;stroke-linecap:butt;stroke-linejoin:miter;stroke-opacity:1"/>
<path class="bond-8 atom-9 atom-7" d="M 39.1,62.2 L 47.9,67.3" style="fill:none;fill-rule:evenodd;stroke:#0000FF;stroke-width:2.0px;stroke-linecap:butt;stroke-linejoin:miter;stroke-opacity:1"/>
<path class="bond-8 atom-9 atom-7" d="M 32.0,54.0 L 40.9,59.1" style="fill:none;fill-rule:evenodd;stroke:#000000;stroke-width:2.0px;stroke-linecap:butt;stroke-linejoin:miter;stroke-opacity:1"/>
<path class="bond-8 atom-9 atom-7" d="M 40.9,59.1 L 49.7,64.2" style="fill:none;fill-rule:evenodd;stroke:#0000FF;stroke-width:2.0px;stroke-linecap:butt;stroke-linejoin:miter;stroke-opacity:1"/>
<path class="bond-9 atom-9 atom-10" d="M 30.2,57.1 L 30.2,33.2" style="fill:none;fill-rule:evenodd;stroke:#E5E5E5;stroke-width:1.3px;stroke-linecap:butt;stroke-linejoin:miter;stroke-opacity:1"/>
<path d="M 94.0,93.9 L 93.5,93.6 L 93.5,93.0" style="fill:none;stroke:#E5E5E5;stroke-width:1.3px;stroke-linecap:butt;stroke-linejoin:miter;stroke-opacity:1;"/>
<path d="M 115.0,57.4 L 114.6,57.1 L 114.0,57.4" style="fill:none;stroke:#E5E5E5;stroke-width:1.3px;stroke-linecap:butt;stroke-linejoin:miter;stroke-opacity:1;"/>
<path class="atom-2" d="M 114.2 103.5 L 115.2 102.4 L 113.9 102.2 L 114.1 101.5 L 115.3 102.1 L 115.1 100.7 L 115.9 100.7 L 115.6 102.1 L 116.9 101.5 L 117.1 102.2 L 115.8 102.4 L 116.7 103.5 L 116.1 103.9 L 115.5 102.6 L 114.8 103.9 L 114.2 103.5 " fill="#191919"/>
<path class="atom-2" d="M 117.8 100.8 L 118.8 100.8 L 118.8 103.8 L 122.3 103.8 L 122.3 100.8 L 123.2 100.8 L 123.2 107.7 L 122.3 107.7 L 122.3 104.6 L 118.8 104.6 L 118.8 107.7 L 117.8 107.7 L 117.8 100.8 " fill="#191919"/>
<path class="atom-4" d="M 133.4 70.1 L 134.5 69.1 L 133.1 68.8 L 133.3 68.1 L 134.6 68.7 L 134.4 67.4 L 135.1 67.4 L 134.9 68.7 L 136.2 68.1 L 136.4 68.8 L 135.0 69.1 L 136.0 70.1 L 135.4 70.5 L 134.7 69.2 L 134.0 70.5 L 133.4 70.1 " fill="#191919"/>
<path class="atom-4" d="M 137.1 67.5 L 138.0 67.5 L 138.0 70.4 L 141.6 70.4 L 141.6 67.5 L 142.5 67.5 L 142.5 74.4 L 141.6 74.4 L 141.6 71.2 L 138.0 71.2 L 138.0 74.4 L 137.1 74.4 L 137.1 67.5 " fill="#191919"/>
<path class="atom-7" d="M 49.8 65.8 L 52.0 69.5 Q 52.3 69.9, 52.6 70.5 Q 53.0 71.2, 53.0 71.2 L 53.0 65.8 L 53.9 65.8 L 53.9 72.7 L 53.0 72.7 L 50.6 68.7 Q 50.3 68.3, 50.0 67.7 Q 49.7 67.2, 49.6 67.0 L 49.6 72.7 L 48.7 72.7 L 48.7 65.8 L 49.8 65.8 " fill="#0000FF"/>
<path class="atom-8" d="M 7.8 68.5 L 8.8 67.5 L 7.5 67.2 L 7.7 66.5 L 8.9 67.1 L 8.8 65.8 L 9.5 65.8 L 9.3 67.1 L 10.5 66.6 L 10.8 67.2 L 9.4 67.5 L 10.4 68.5 L 9.8 68.9 L 9.1 67.7 L 8.4 68.9 L 7.8 68.5 " fill="#191919"/>
<path class="atom-10" d="M 28.9 32.0 L 29.9 31.0 L 28.6 30.7 L 28.8 30.0 L 30.0 30.6 L 29.9 29.3 L 30.6 29.3 L 30.4 30.6 L 31.6 30.0 L 31.9 30.7 L 30.5 30.9 L 31.5 32.0 L 30.9 32.4 L 30.2 31.1 L 29.5 32.4 L 28.9 32.0 " fill="#191919"/>
<path class="atom-10" d="M 32.6 29.4 L 33.5 29.4 L 33.5 32.3 L 37.0 32.3 L 37.0 29.4 L 38.0 29.4 L 38.0 36.3 L 37.0 36.3 L 37.0 33.1 L 33.5 33.1 L 33.5 36.3 L 32.6 36.3 L 32.6 29.4 " fill="#191919"/>
<path class="legend" d="M 57.0 141.1 L 59.4 141.1 L 59.4 132.6 L 56.7 133.4 L 56.3 132.5 L 59.8 130.9 L 60.9 131.1 L 60.9 141.1 L 63.2 141.1 L 63.2 142.3 L 57.0 142.3 L 57.0 141.1 " fill="#000000"/>
<path class="legend" d="M 70.4 136.3 Q 71.4 136.8, 72.0 137.5 Q 72.6 138.1, 72.6 139.2 Q 72.6 140.2, 72.1 140.9 Q 71.6 141.7, 70.7 142.1 Q 69.9 142.5, 68.7 142.5 Q 66.8 142.5, 65.7 141.6 Q 64.6 140.8, 64.6 139.2 Q 64.6 138.3, 65.1 137.6 Q 65.6 136.9, 66.6 136.4 Q 65.8 136.0, 65.4 135.4 Q 65.0 134.7, 65.0 133.8 Q 65.0 132.5, 66.0 131.7 Q 67.0 130.9, 68.6 130.9 Q 70.3 130.9, 71.2 131.7 Q 72.2 132.5, 72.2 133.8 Q 72.2 134.6, 71.7 135.2 Q 71.3 135.8, 70.4 136.3 M 68.6 132.1 Q 67.7 132.1, 67.2 132.5 Q 66.6 133.0, 66.6 133.8 Q 66.6 134.4, 67.0 134.8 Q 67.3 135.2, 67.8 135.4 Q 68.4 135.6, 69.3 135.9 Q 70.0 135.5, 70.3 134.9 Q 70.6 134.4, 70.6 133.8 Q 70.6 133.0, 70.1 132.5 Q 69.6 132.1, 68.6 132.1 M 68.7 141.3 Q 69.7 141.3, 70.4 140.7 Q 71.0 140.2, 71.0 139.2 Q 71.0 138.6, 70.7 138.2 Q 70.4 137.8, 69.8 137.6 Q 69.3 137.4, 68.5 137.1 L 67.7 136.9 Q 66.9 137.3, 66.6 137.9 Q 66.2 138.5, 66.2 139.2 Q 66.2 140.2, 66.9 140.7 Q 67.6 141.3, 68.7 141.3 " fill="#000000"/>
<path class="legend" d="M 78.9 135.3 Q 79.8 135.3, 80.6 135.7 Q 81.4 136.1, 81.8 136.9 Q 82.3 137.7, 82.3 138.7 Q 82.3 139.8, 81.8 140.7 Q 81.3 141.5, 80.4 142.0 Q 79.6 142.5, 78.5 142.5 Q 76.5 142.5, 75.4 141.1 Q 74.4 139.7, 74.4 137.0 Q 74.4 134.0, 75.7 132.5 Q 76.9 130.9, 79.3 130.9 Q 80.1 130.9, 80.6 131.0 Q 81.3 131.2, 81.8 131.5 L 81.2 132.6 Q 80.4 132.2, 79.4 132.2 Q 77.8 132.2, 76.9 133.2 Q 76.1 134.2, 76.0 136.4 Q 76.6 135.8, 77.3 135.6 Q 78.1 135.3, 78.9 135.3 M 78.5 141.2 Q 79.1 141.2, 79.6 140.8 Q 80.1 140.5, 80.4 140.0 Q 80.7 139.4, 80.7 138.7 Q 80.7 137.7, 80.1 137.1 Q 79.6 136.5, 78.6 136.5 Q 77.9 136.5, 77.2 136.8 Q 76.5 137.1, 76.0 137.6 Q 76.1 139.5, 76.7 140.3 Q 77.3 141.2, 78.5 141.2 " fill="#000000"/>
<path class="legend" d="M 91.3 138.5 L 92.7 138.5 L 92.7 139.7 L 91.3 139.7 L 91.3 142.3 L 89.8 142.3 L 89.8 139.7 L 83.9 139.7 L 83.9 138.7 L 88.9 131.0 L 91.3 131.0 L 91.3 138.5 M 85.8 138.5 L 89.8 138.5 L 89.8 132.0 L 85.8 138.5 " fill="#000000"/>
</svg>