<svg xmlns="http://www.w3.org/2000/svg" xmlns:rdkit="http://www.rdkit.org/xml" xmlns:xlink="http://www.w3.org/1999/xlink" version="1.1" baseProfile="full" xml:space="preserve" width="150px" height="150px" viewBox="0 0 150 150">
<!-- END OF HEADER -->
<rect style="opacity:1.0;fill:#FFFFFF;stroke:none" width="150.0" height="150.0" x="0.0" y="0.0"> </rect>
<ellipse cx="28.4" cy="102.8" rx="5.4" ry="5.4" class="atom-0" style="fill:#E5E533;fill-rule:evenodd;stroke:#E5E533;stroke-width:1.0px;stroke-linecap:butt;stroke-linejoin:miter;stroke-opacity:1"/>
<ellipse cx="55.4" cy="102.7" rx="5.4" ry="5.4" class="atom-2" style="fill:#E5E533;fill-rule:evenodd;stroke:#E5E533;stroke-width:1.0px;stroke-linecap:butt;stroke-linejoin:miter;stroke-opacity:1"/>
<ellipse cx="28.3" cy="56.1" rx="5.4" ry="5.4" class="atom-3" style="fill:#E5E533;fill-rule:evenodd;stroke:#E5E533;stroke-width:1.0px;stroke-linecap:butt;stroke-linejoin:miter;stroke-opacity:1"/>
<ellipse cx="68.8" cy="79.4" rx="5.4" ry="5.4" class="atom-4" style="fill:#9999E5;fill-rule:evenodd;stroke:#9999E5;stroke-width:1.0px;stroke-linecap:butt;stroke-linejoin:miter;stroke-opacity:1"/>
<ellipse cx="55.3" cy="56.0" rx="5.4" ry="5.4" class="atom-5" style="fill:#E5E533;fill-rule:evenodd;stroke:#E5E533;stroke-width:1.0px;stroke-linecap:butt;stroke-linejoin:miter;stroke-opacity:1"/>
<ellipse cx="114.8" cy="60.2" rx="5.4" ry="5.4" class="atom-6" style="fill:#CCCCCC;fill-rule:evenodd;stroke:#CCCCCC;stroke-width:1.0px;stroke-linecap:butt;stroke-linejoin:miter;stroke-opacity:1"/>
<ellipse cx="95.8" cy="79.3" rx="5.4" ry="5.4" class="atom-8" style="fill:#CCCCCC;fill-rule:evenodd;stroke:#CCCCCC;stroke-width:1.0px;stroke-linecap:butt;stroke-linejoin:miter;stroke-opacity:1"/>
<ellipse cx="114.9" cy="98.4" rx="5.4" ry="5.4" class="atom-9" style="fill:#CCCCCC;fill-rule:evenodd;stroke:#CCCCCC;stroke-width:1.0px;stroke-linecap:butt;stroke-linejoin:miter;stroke-opacity:1"/>
<ellipse cx="114.8" cy="73.2" rx="5.4" ry="5.4" class="atom-10" style="fill:#CCCCCC;fill-rule:evenodd;stroke:#CCCCCC;stroke-width:1.0px;stroke-linecap:butt;stroke-linejoin:miter;stroke-opacity:1"/>
<path class="bond-0 atom-0 atom-1" d="M 28.4,102.8 L 17.6,84.2" style="fill:none;fill-rule:evenodd;stroke:#E5E5E5;stroke-width:1.4px;stroke-linecap:butt;stroke-linejoin:miter;stroke-opacity:1"/>
<path class="bond-1 atom-0 atom-2" d="M 28.4,102.8 L 55.4,102.7" style="fill:none;fill-rule:evenodd;stroke:#000000;stroke-width:2.0px;stroke-linecap:butt;stroke-linejoin:miter;stroke-opacity:1"/>
<path class="bond-1 atom-0 atom-2" d="M 30.7,98.9 L 53.1,98.9" style="fill:none;fill-rule:evenodd;stroke:#000000;stroke-width:2.0px;stroke-linecap:butt;stroke-linejoin:miter;stroke-opacity:1"/>
<path class="bond-2 atom-1 atom-3" d="M 17.6,74.9 L 28.3,56.1" style="fill:none;fill-rule:evenodd;stroke:#E5E5E5;stroke-width:1.4px;stroke-linecap:butt;stroke-linejoin:miter;stroke-opacity:1"/>
<path class="bond-2 atom-1 atom-3" d="M 20.9,76.8 L 30.6,60.0" style="fill:none;fill-rule:evenodd;stroke:#E5E5E5;stroke-width:1.4px;stroke-linecap:butt;stroke-linejoin:miter;stroke-opacity:1"/>
<path class="bond-3 atom-2 atom-4" d="M 55.4,102.7 L 68.8,79.4" style="fill:none;fill-rule:evenodd;stroke:#000000;stroke-width:2.0px;stroke-linecap:butt;stroke-linejoin:miter;stroke-opacity:1"/>
<path class="bond-4 atom-3 atom-5" d="M 28.3,56.1 L 55.3,56.0" style="fill:none;fill-rule:evenodd;stroke:#000000;stroke-width:2.0px;stroke-linecap:butt;stroke-linejoin:miter;stroke-opacity:1"/>
<path class="bond-5 atom-6 atom-7" d="M 114.8,60.2 L 131.3,76.6" style="fill:none;fill-rule:evenodd;stroke:#E5E5E5;stroke-width:1.4px;stroke-linecap:butt;stroke-linejoin:miter;stroke-opacity:1"/>
<path class="bond-6 atom-6 atom-8" d="M 114.8,60.2 L 95.8,79.3" style="fill:none;fill-rule:evenodd;stroke:#000000;stroke-width:2.0px;stroke-linecap:butt;stroke-linejoin:miter;stroke-opacity:1"/>
<path class="bond-7 atom-9 atom-7" d="M 114.9,98.4 L 133.4,79.7" style="fill:none;fill-rule:evenodd;stroke:#E5E5E5;stroke-width:1.4px;stroke-linecap:butt;stroke-linejoin:miter;stroke-opacity:1"/>
<path class="bond-8 atom-9 atom-8" d="M 114.9,98.4 L 95.8,79.3" style="fill:none;fill-rule:evenodd;stroke:#000000;stroke-width:2.0px;stroke-linecap:butt;stroke-linejoin:miter;stroke-opacity:1"/>
<path class="bond-9 atom-10 atom-7" d="M 114.8,73.2 L 131.3,78.4" style="fill:none;fill-rule:evenodd;stroke:#E5E5E5;stroke-width:1.4px;stroke-linecap:butt;stroke-linejoin:miter;stroke-opacity:1"/>
<path class="bond-10 atom-10 atom-8" d="M 114.8,73.2 L 95.8,79.3" style="fill:none;fill-rule:evenodd;stroke:#000000;stroke-width:2.0px;stroke-linecap:butt;stroke-linejoin:miter;stroke-opacity:1"/>
<path class="bond-11 atom-4 atom-5" d="M 68.8,79.4 L 55.3,56.0" style="fill:none;fill-rule:evenodd;stroke:#000000;stroke-width:2.0px;stroke-linecap:butt;stroke-linejoin:miter;stroke-opacity:1"/>
<path class="bond-11 atom-4 atom-5" d="M 64.3,79.4 L 53.1,59.9" style="fill:none;fill-rule:evenodd;stroke:#000000;stroke-width:2.0px;stroke-linecap:butt;stroke-linejoin:miter;stroke-opacity:1"/>
<path class="bond-12 atom-4 atom-8" d="M 68.8,79.4 L 95.8,79.3" style="fill:none;fill-rule:evenodd;stroke:#000000;stroke-width:2.0px;stroke-linecap:butt;stroke-linejoin:miter;stroke-opacity:1"/>
<path class="bond-13 atom-5 atom-11" d="M 55.3,56.0 L 60.6,46.8" style="fill:none;fill-rule:evenodd;stroke:#000000;stroke-width:2.0px;stroke-linecap:butt;stroke-linejoin:miter;stroke-opacity:1"/>
<path class="bond-13 atom-5 atom-11" d="M 60.6,46.8 L 66.0,37.5" style="fill:none;fill-rule:evenodd;stroke:#FF0000;stroke-width:2.0px;stroke-linecap:butt;stroke-linejoin:miter;stroke-opacity:1"/>
<path d="M 28.2,102.3 L 28.4,102.8 L 29.1,102.8" style="fill:none;stroke:#E5E5E5;stroke-width:1.4px;stroke-linecap:butt;stroke-linejoin:miter;stroke-opacity:1;"/>
<path d="M 54.0,102.7 L 55.4,102.7 L 56.1,101.6" style="fill:none;stroke:#000000;stroke-width:2.0px;stroke-linecap:butt;stroke-linejoin:miter;stroke-opacity:1;"/>
<path d="M 28.1,56.6 L 28.3,56.1 L 29.0,56.1" style="fill:none;stroke:#E5E5E5;stroke-width:1.4px;stroke-linecap:butt;stroke-linejoin:miter;stroke-opacity:1;"/>
<path d="M 115.2,60.6 L 114.8,60.2 L 114.3,60.7" style="fill:none;stroke:#E5E5E5;stroke-width:1.4px;stroke-linecap:butt;stroke-linejoin:miter;stroke-opacity:1;"/>
<path d="M 115.3,97.9 L 114.9,98.4 L 114.4,97.9" style="fill:none;stroke:#E5E5E5;stroke-width:1.4px;stroke-linecap:butt;stroke-linejoin:miter;stroke-opacity:1;"/>
<path d="M 115.3,73.3 L 114.8,73.2 L 114.4,73.4" style="fill:none;stroke:#E5E5E5;stroke-width:1.4px;stroke-linecap:butt;stroke-linejoin:miter;stroke-opacity:1;"/>
<path class="atom-1" d="M 7.9 78.6 L 9.0 77.5 L 7.5 77.2 L 7.7 76.4 L 9.1 77.1 L 8.9 75.6 L 9.7 75.6 L 9.5 77.1 L 10.9 76.4 L 11.1 77.2 L 9.6 77.4 L 10.7 78.6 L 10.0 79.1 L 9.3 77.7 L 8.5 79.1 L 7.9 78.6 " fill="#191919"/>
<path class="atom-1" d="M 11.9 75.7 L 13.0 75.7 L 13.0 79.0 L 16.9 79.0 L 16.9 75.7 L 17.9 75.7 L 17.9 83.3 L 16.9 83.3 L 16.9 79.8 L 13.0 79.8 L 13.0 83.3 L 11.9 83.3 L 11.9 75.7 " fill="#191919"/>
<path class="atom-7" d="M 132.5 78.4 L 133.6 77.3 L 132.1 77.0 L 132.3 76.2 L 133.7 76.9 L 133.5 75.4 L 134.3 75.4 L 134.1 76.9 L 135.5 76.2 L 135.7 77.0 L 134.2 77.3 L 135.3 78.4 L 134.6 78.9 L 133.9 77.5 L 133.1 78.9 L 132.5 78.4 " fill="#191919"/>
<path class="atom-7" d="M 136.5 75.5 L 137.6 75.5 L 137.6 78.8 L 141.5 78.8 L 141.5 75.5 L 142.5 75.5 L 142.5 83.2 L 141.5 83.2 L 141.5 79.6 L 137.6 79.6 L 137.6 83.2 L 136.5 83.2 L 136.5 75.5 " fill="#191919"/>
<path class="atom-11" d="M 65.2 32.7 Q 65.2 30.9, 66.2 29.8 Q 67.1 28.8, 68.8 28.8 Q 70.4 28.8, 71.4 29.8 Q 72.3 30.9, 72.3 32.7 Q 72.3 34.6, 71.3 35.6 Q 70.4 36.7, 68.8 36.7 Q 67.1 36.7, 66.2 35.6 Q 65.2 34.6, 65.2 32.7 M 68.8 35.8 Q 69.9 35.8, 70.5 35.0 Q 71.2 34.2, 71.2 32.7 Q 71.2 31.2, 70.5 30.4 Q 69.9 29.7, 68.8 29.7 Q 67.6 29.7, 67.0 30.4 Q 66.3 31.2, 66.3 32.7 Q 66.3 34.2, 67.0 35.0 Q 67.6 35.8, 68.8 35.8 " fill="#FF0000"/>
<path class="atom-11" d="M 73.4 28.9 L 74.5 28.9 L 74.5 32.1 L 78.4 32.1 L 78.4 28.9 L 79.4 28.9 L 79.4 36.5 L 78.4 36.5 L 78.4 33.0 L 74.5 33.0 L 74.5 36.5 L 73.4 36.5 L 73.4 28.9 " fill="#FF0000"/>
<path class="legend" d="M 57.6 141.1 L 60.1 141.1 L 60.1 132.6 L 57.4 133.5 L 57.0 132.5 L 60.5 131.0 L 61.6 131.2 L 61.6 141.1 L 63.9 141.1 L 63.9 142.4 L 57.6 142.4 L 57.6 141.1 " fill="#000000"/>
<path class="legend" d="M 69.1 130.9 Q 71.1 130.9, 72.1 132.3 Q 73.1 133.7, 73.1 136.4 Q 73.1 139.4, 71.9 140.9 Q 70.6 142.5, 68.2 142.5 Q 67.5 142.5, 66.9 142.3 Q 66.3 142.2, 65.7 141.8 L 66.3 140.8 Q 67.2 141.2, 68.2 141.2 Q 69.8 141.2, 70.6 140.2 Q 71.4 139.2, 71.5 137.0 Q 70.9 137.6, 70.2 137.8 Q 69.5 138.1, 68.7 138.1 Q 67.7 138.1, 66.9 137.7 Q 66.1 137.3, 65.7 136.5 Q 65.3 135.7, 65.3 134.7 Q 65.3 133.6, 65.8 132.7 Q 66.3 131.9, 67.1 131.4 Q 68.0 130.9, 69.1 130.9 M 66.9 134.7 Q 66.9 135.7, 67.4 136.3 Q 68.0 136.8, 69.0 136.8 Q 69.7 136.8, 70.3 136.6 Q 71.0 136.3, 71.5 135.8 Q 71.5 133.9, 70.9 133.1 Q 70.3 132.2, 69.1 132.2 Q 68.5 132.2, 67.9 132.5 Q 67.5 132.9, 67.2 133.4 Q 66.9 134.0, 66.9 134.7 " fill="#000000"/>
<path class="legend" d="M 79.4 135.3 Q 80.4 135.3, 81.2 135.7 Q 82.0 136.2, 82.4 136.9 Q 82.8 137.7, 82.8 138.7 Q 82.8 139.8, 82.3 140.7 Q 81.9 141.5, 81.0 142.0 Q 80.1 142.5, 79.0 142.5 Q 77.0 142.5, 76.0 141.1 Q 75.0 139.8, 75.0 137.0 Q 75.0 134.0, 76.2 132.5 Q 77.5 130.9, 79.9 130.9 Q 80.6 130.9, 81.2 131.1 Q 81.8 131.2, 82.4 131.6 L 81.8 132.6 Q 80.9 132.2, 79.9 132.2 Q 78.3 132.2, 77.5 133.2 Q 76.7 134.3, 76.6 136.4 Q 77.2 135.9, 77.9 135.6 Q 78.6 135.3, 79.4 135.3 M 79.0 141.2 Q 79.6 141.2, 80.1 140.9 Q 80.7 140.5, 80.9 140.0 Q 81.2 139.4, 81.2 138.7 Q 81.2 137.7, 80.7 137.2 Q 80.1 136.6, 79.1 136.6 Q 78.4 136.6, 77.7 136.9 Q 77.1 137.1, 76.6 137.6 Q 76.7 139.5, 77.2 140.3 Q 77.8 141.2, 79.0 141.2 " fill="#000000"/>
<path class="legend" d="M 90.4 132.3 L 84.5 132.3 L 84.5 131.0 L 92.0 131.0 L 92.0 132.2 L 87.4 142.4 L 85.9 142.4 L 90.4 132.3 " fill="#000000"/>
</svg>