<svg xmlns="http://www.w3.org/2000/svg" xmlns:rdkit="http://www.rdkit.org/xml" xmlns:xlink="http://www.w3.org/1999/xlink" version="1.1" baseProfile="full" xml:space="preserve" width="150px" height="150px" viewBox="0 0 150 150">
<!-- END OF HEADER -->
<rect style="opacity:1.0;fill:#FFFFFF;stroke:none" width="150.0" height="150.0" x="0.0" y="0.0"> </rect>
<ellipse cx="84.6" cy="72.0" rx="8.9" ry="8.9" class="atom-5" style="fill:#9999E5;fill-rule:evenodd;stroke:#9999E5;stroke-width:1.0px;stroke-linecap:butt;stroke-linejoin:miter;stroke-opacity:1"/>
<path class="bond-0 atom-0 atom-1" d="M 29.9,19.0 L 39.4,53.2" style="fill:none;fill-rule:evenodd;stroke:#E5E5E5;stroke-width:2.4px;stroke-linecap:butt;stroke-linejoin:miter;stroke-opacity:1"/>
<path class="bond-1 atom-2 atom-3" d="M 135.1,124.7 L 102.7,116.4" style="fill:none;fill-rule:evenodd;stroke:#E5E5E5;stroke-width:2.4px;stroke-linecap:butt;stroke-linejoin:miter;stroke-opacity:1"/>
<path class="bond-2 atom-4 atom-1" d="M 14.9,88.1 L 35.3,67.3" style="fill:none;fill-rule:evenodd;stroke:#E5E5E5;stroke-width:2.4px;stroke-linecap:butt;stroke-linejoin:miter;stroke-opacity:1"/>
<path class="bond-3 atom-5 atom-3" d="M 84.6,72.0 L 89.5,89.5" style="fill:none;fill-rule:evenodd;stroke:#000000;stroke-width:2.0px;stroke-linecap:butt;stroke-linejoin:miter;stroke-opacity:1"/>
<path class="bond-3 atom-5 atom-3" d="M 89.5,89.5 L 94.3,107.1" style="fill:none;fill-rule:evenodd;stroke:#0000FF;stroke-width:2.0px;stroke-linecap:butt;stroke-linejoin:miter;stroke-opacity:1"/>
<path class="bond-3 atom-5 atom-3" d="M 91.0,70.2 L 95.9,87.7" style="fill:none;fill-rule:evenodd;stroke:#000000;stroke-width:2.0px;stroke-linecap:butt;stroke-linejoin:miter;stroke-opacity:1"/>
<path class="bond-3 atom-5 atom-3" d="M 95.9,87.7 L 100.8,105.3" style="fill:none;fill-rule:evenodd;stroke:#0000FF;stroke-width:2.0px;stroke-linecap:butt;stroke-linejoin:miter;stroke-opacity:1"/>
<path class="bond-4 atom-5 atom-1" d="M 84.6,72.0 L 66.2,67.3" style="fill:none;fill-rule:evenodd;stroke:#000000;stroke-width:2.0px;stroke-linecap:butt;stroke-linejoin:miter;stroke-opacity:1"/>
<path class="bond-4 atom-5 atom-1" d="M 66.2,67.3 L 47.8,62.5" style="fill:none;fill-rule:evenodd;stroke:#0000FF;stroke-width:2.0px;stroke-linecap:butt;stroke-linejoin:miter;stroke-opacity:1"/>
<path class="bond-5 atom-5 atom-6" d="M 84.6,72.0 L 97.4,59.0" style="fill:none;fill-rule:evenodd;stroke:#000000;stroke-width:2.0px;stroke-linecap:butt;stroke-linejoin:miter;stroke-opacity:1"/>
<path class="bond-5 atom-5 atom-6" d="M 97.4,59.0 L 110.2,45.9" style="fill:none;fill-rule:evenodd;stroke:#CCCC00;stroke-width:2.0px;stroke-linecap:butt;stroke-linejoin:miter;stroke-opacity:1"/>
<path class="atom-0" d="M 27.3 16.7 L 29.1 14.9 L 26.7 14.4 L 27.1 13.1 L 29.3 14.2 L 29.0 11.8 L 30.3 11.8 L 30.0 14.2 L 32.2 13.2 L 32.6 14.4 L 30.1 14.8 L 31.9 16.7 L 30.8 17.5 L 29.6 15.2 L 28.4 17.5 L 27.3 16.7 " fill="#191919"/>
<path class="atom-0" d="M 34.0 12.0 L 35.7 12.0 L 35.7 17.3 L 42.1 17.3 L 42.1 12.0 L 43.8 12.0 L 43.8 24.5 L 42.1 24.5 L 42.1 18.7 L 35.7 18.7 L 35.7 24.5 L 34.0 24.5 L 34.0 12.0 " fill="#191919"/>
<path class="atom-0" d="M 50.1 26.5 Q 50.9 26.7, 51.3 27.2 Q 51.7 27.7, 51.7 28.6 Q 51.7 29.3, 51.4 29.8 Q 51.0 30.4, 50.4 30.7 Q 49.7 31.0, 48.9 31.0 Q 48.0 31.0, 47.3 30.7 Q 46.7 30.3, 46.1 29.7 L 46.8 29.0 Q 47.3 29.6, 47.8 29.8 Q 48.2 30.0, 48.9 30.0 Q 49.6 30.0, 50.1 29.6 Q 50.5 29.2, 50.5 28.6 Q 50.5 27.7, 50.1 27.3 Q 49.6 26.9, 48.6 26.9 L 48.0 26.9 L 48.0 26.1 L 48.5 26.1 Q 49.4 26.1, 49.9 25.7 Q 50.4 25.3, 50.4 24.6 Q 50.4 24.0, 50.0 23.7 Q 49.6 23.4, 48.9 23.4 Q 48.2 23.4, 47.8 23.6 Q 47.3 23.9, 47.0 24.5 L 46.2 24.1 Q 46.5 23.4, 47.2 22.9 Q 47.9 22.4, 48.9 22.4 Q 50.1 22.4, 50.8 23.0 Q 51.5 23.6, 51.5 24.6 Q 51.5 25.2, 51.2 25.7 Q 50.8 26.2, 50.1 26.5 " fill="#191919"/>
<path class="atom-1" d="M 38.8 54.7 L 42.9 61.3 Q 43.3 62.0, 44.0 63.2 Q 44.6 64.4, 44.7 64.4 L 44.7 54.7 L 46.3 54.7 L 46.3 67.2 L 44.6 67.2 L 40.2 59.9 Q 39.7 59.1, 39.1 58.1 Q 38.6 57.1, 38.4 56.8 L 38.4 67.2 L 36.8 67.2 L 36.8 54.7 L 38.8 54.7 " fill="#0000FF"/>
<path class="atom-2" d="M 137.2 124.5 L 139.0 122.6 L 136.5 122.1 L 136.9 120.8 L 139.2 122.0 L 138.9 119.5 L 140.2 119.5 L 139.8 122.0 L 142.1 120.9 L 142.5 122.1 L 140.0 122.6 L 141.8 124.5 L 140.7 125.2 L 139.5 122.9 L 138.2 125.2 L 137.2 124.5 " fill="#191919"/>
<path class="atom-3" d="M 93.7 108.5 L 97.8 115.2 Q 98.3 115.8, 98.9 117.0 Q 99.6 118.2, 99.6 118.3 L 99.6 108.5 L 101.3 108.5 L 101.3 121.1 L 99.6 121.1 L 95.1 113.8 Q 94.6 113.0, 94.1 112.0 Q 93.5 111.0, 93.4 110.7 L 93.4 121.1 L 91.7 121.1 L 91.7 108.5 L 93.7 108.5 " fill="#0000FF"/>
<path class="atom-4" d="M 8.1 91.3 L 10.0 89.4 L 7.5 88.9 L 7.9 87.6 L 10.1 88.8 L 9.8 86.3 L 11.1 86.3 L 10.8 88.7 L 13.1 87.7 L 13.5 88.9 L 11.0 89.3 L 12.7 91.2 L 11.7 92.0 L 10.4 89.7 L 9.2 92.0 L 8.1 91.3 " fill="#191919"/>
<path class="atom-6" d="M 112.1 44.6 Q 112.3 44.7, 112.9 44.9 Q 113.5 45.2, 114.1 45.3 Q 114.7 45.5, 115.4 45.5 Q 116.6 45.5, 117.3 44.9 Q 118.0 44.3, 118.0 43.3 Q 118.0 42.6, 117.6 42.2 Q 117.3 41.8, 116.7 41.5 Q 116.2 41.3, 115.3 41.0 Q 114.2 40.7, 113.5 40.4 Q 112.9 40.1, 112.4 39.4 Q 111.9 38.7, 111.9 37.6 Q 111.9 36.0, 113.0 35.0 Q 114.1 34.0, 116.2 34.0 Q 117.7 34.0, 119.3 34.7 L 118.9 36.1 Q 117.4 35.5, 116.3 35.5 Q 115.0 35.5, 114.4 36.0 Q 113.7 36.5, 113.7 37.4 Q 113.7 38.0, 114.0 38.5 Q 114.4 38.9, 114.9 39.1 Q 115.4 39.3, 116.3 39.6 Q 117.4 39.9, 118.1 40.3 Q 118.7 40.7, 119.2 41.4 Q 119.7 42.1, 119.7 43.3 Q 119.7 45.1, 118.6 46.0 Q 117.4 46.9, 115.5 46.9 Q 114.3 46.9, 113.5 46.7 Q 112.7 46.4, 111.7 46.0 L 112.1 44.6 " fill="#CCCC00"/>
<path class="atom-6" d="M 121.5 34.0 L 123.2 34.0 L 123.2 39.4 L 129.6 39.4 L 129.6 34.0 L 131.3 34.0 L 131.3 46.6 L 129.6 46.6 L 129.6 40.8 L 123.2 40.8 L 123.2 46.6 L 121.5 46.6 L 121.5 34.0 " fill="#CCCC00"/>
<path class="legend" d="M 57.4 141.1 L 59.9 141.1 L 59.9 132.6 L 57.1 133.5 L 56.8 132.5 L 60.2 131.0 L 61.4 131.2 L 61.4 141.1 L 63.6 141.1 L 63.6 142.4 L 57.4 142.4 L 57.4 141.1 " fill="#000000"/>
<path class="legend" d="M 68.8 130.9 Q 70.9 130.9, 71.9 132.3 Q 72.9 133.7, 72.9 136.4 Q 72.9 139.4, 71.6 140.9 Q 70.4 142.5, 68.0 142.5 Q 67.3 142.5, 66.7 142.3 Q 66.1 142.2, 65.5 141.8 L 66.1 140.8 Q 66.9 141.2, 68.0 141.2 Q 69.6 141.2, 70.4 140.2 Q 71.2 139.2, 71.3 137.0 Q 70.7 137.6, 70.0 137.8 Q 69.2 138.1, 68.5 138.1 Q 67.5 138.1, 66.7 137.7 Q 65.9 137.3, 65.5 136.5 Q 65.0 135.7, 65.0 134.7 Q 65.0 133.6, 65.5 132.7 Q 66.0 131.9, 66.9 131.4 Q 67.7 130.9, 68.8 130.9 M 66.6 134.7 Q 66.6 135.7, 67.2 136.3 Q 67.8 136.8, 68.8 136.8 Q 69.4 136.8, 70.1 136.6 Q 70.8 136.3, 71.3 135.8 Q 71.2 133.9, 70.6 133.1 Q 70.0 132.2, 68.8 132.2 Q 68.2 132.2, 67.7 132.5 Q 67.2 132.9, 66.9 133.4 Q 66.6 134.0, 66.6 134.7 " fill="#000000"/>
<path class="legend" d="M 80.7 132.3 L 74.8 132.3 L 74.8 131.0 L 82.3 131.0 L 82.3 132.2 L 77.7 142.4 L 76.2 142.4 L 80.7 132.3 " fill="#000000"/>
<path class="legend" d="M 90.9 138.5 L 92.2 138.5 L 92.2 139.8 L 90.9 139.8 L 90.9 142.4 L 89.4 142.4 L 89.4 139.8 L 83.5 139.8 L 83.5 138.8 L 88.5 131.0 L 90.9 131.0 L 90.9 138.5 M 85.4 138.5 L 89.4 138.5 L 89.4 132.1 L 85.4 138.5 " fill="#000000"/>
</svg>