<svg xmlns="http://www.w3.org/2000/svg" xmlns:rdkit="http://www.rdkit.org/xml" xmlns:xlink="http://www.w3.org/1999/xlink" version="1.1" baseProfile="full" xml:space="preserve" width="150px" height="150px" viewBox="0 0 150 150">
<!-- END OF HEADER -->
<rect style="opacity:1.0;fill:#FFFFFF;stroke:none" width="150.0" height="150.0" x="0.0" y="0.0"> </rect>
<ellipse cx="37.9" cy="30.8" rx="4.8" ry="4.8" class="atom-1" style="fill:#E5E533;fill-rule:evenodd;stroke:#E5E533;stroke-width:1.0px;stroke-linecap:butt;stroke-linejoin:miter;stroke-opacity:1"/>
<ellipse cx="39.3" cy="72.2" rx="4.8" ry="4.8" class="atom-3" style="fill:#E5E533;fill-rule:evenodd;stroke:#E5E533;stroke-width:1.0px;stroke-linecap:butt;stroke-linejoin:miter;stroke-opacity:1"/>
<ellipse cx="111.0" cy="69.7" rx="4.8" ry="4.8" class="atom-5" style="fill:#E5E533;fill-rule:evenodd;stroke:#E5E533;stroke-width:1.0px;stroke-linecap:butt;stroke-linejoin:miter;stroke-opacity:1"/>
<ellipse cx="109.6" cy="28.3" rx="4.8" ry="4.8" class="atom-7" style="fill:#E5E533;fill-rule:evenodd;stroke:#E5E533;stroke-width:1.0px;stroke-linecap:butt;stroke-linejoin:miter;stroke-opacity:1"/>
<ellipse cx="55.0" cy="86.8" rx="4.8" ry="4.8" class="atom-9" style="fill:#E5E533;fill-rule:evenodd;stroke:#E5E533;stroke-width:1.0px;stroke-linecap:butt;stroke-linejoin:miter;stroke-opacity:1"/>
<ellipse cx="50.6" cy="51.1" rx="4.8" ry="4.8" class="atom-10" style="fill:#E5E533;fill-rule:evenodd;stroke:#E5E533;stroke-width:1.0px;stroke-linecap:butt;stroke-linejoin:miter;stroke-opacity:1"/>
<ellipse cx="98.4" cy="49.4" rx="4.8" ry="4.8" class="atom-11" style="fill:#E5E533;fill-rule:evenodd;stroke:#E5E533;stroke-width:1.0px;stroke-linecap:butt;stroke-linejoin:miter;stroke-opacity:1"/>
<ellipse cx="75.3" cy="74.1" rx="4.8" ry="4.8" class="atom-12" style="fill:#E5E533;fill-rule:evenodd;stroke:#E5E533;stroke-width:1.0px;stroke-linecap:butt;stroke-linejoin:miter;stroke-opacity:1"/>
<ellipse cx="96.4" cy="85.4" rx="4.8" ry="4.8" class="atom-14" style="fill:#E5E533;fill-rule:evenodd;stroke:#E5E533;stroke-width:1.0px;stroke-linecap:butt;stroke-linejoin:miter;stroke-opacity:1"/>
<ellipse cx="74.5" cy="50.2" rx="4.8" ry="4.8" class="atom-15" style="fill:#9999E5;fill-rule:evenodd;stroke:#9999E5;stroke-width:1.0px;stroke-linecap:butt;stroke-linejoin:miter;stroke-opacity:1"/>
<path class="bond-0 atom-0 atom-1" d="M 17.4,31.5 L 37.9,30.8" style="fill:none;fill-rule:evenodd;stroke:#E5E5E5;stroke-width:1.3px;stroke-linecap:butt;stroke-linejoin:miter;stroke-opacity:1"/>
<path class="bond-0 atom-0 atom-1" d="M 17.5,35.0 L 36.0,34.3" style="fill:none;fill-rule:evenodd;stroke:#E5E5E5;stroke-width:1.3px;stroke-linecap:butt;stroke-linejoin:miter;stroke-opacity:1;stroke-dasharray:6,4"/>
<path class="bond-1 atom-2 atom-3" d="M 18.9,72.9 L 39.3,72.2" style="fill:none;fill-rule:evenodd;stroke:#E5E5E5;stroke-width:1.3px;stroke-linecap:butt;stroke-linejoin:miter;stroke-opacity:1"/>
<path class="bond-1 atom-2 atom-3" d="M 18.7,69.4 L 37.2,68.8" style="fill:none;fill-rule:evenodd;stroke:#E5E5E5;stroke-width:1.3px;stroke-linecap:butt;stroke-linejoin:miter;stroke-opacity:1;stroke-dasharray:6,4"/>
<path class="bond-2 atom-4 atom-5" d="M 132.6,68.9 L 111.0,69.7" style="fill:none;fill-rule:evenodd;stroke:#E5E5E5;stroke-width:1.3px;stroke-linecap:butt;stroke-linejoin:miter;stroke-opacity:1"/>
<path class="bond-2 atom-4 atom-5" d="M 132.5,65.5 L 112.9,66.1" style="fill:none;fill-rule:evenodd;stroke:#E5E5E5;stroke-width:1.3px;stroke-linecap:butt;stroke-linejoin:miter;stroke-opacity:1;stroke-dasharray:6,4"/>
<path class="bond-3 atom-6 atom-7" d="M 131.1,27.5 L 109.6,28.3" style="fill:none;fill-rule:evenodd;stroke:#E5E5E5;stroke-width:1.3px;stroke-linecap:butt;stroke-linejoin:miter;stroke-opacity:1"/>
<path class="bond-3 atom-6 atom-7" d="M 131.3,31.0 L 111.7,31.7" style="fill:none;fill-rule:evenodd;stroke:#E5E5E5;stroke-width:1.3px;stroke-linecap:butt;stroke-linejoin:miter;stroke-opacity:1;stroke-dasharray:6,4"/>
<path class="bond-4 atom-8 atom-9" d="M 55.7,106.5 L 55.0,86.8" style="fill:none;fill-rule:evenodd;stroke:#E5E5E5;stroke-width:1.3px;stroke-linecap:butt;stroke-linejoin:miter;stroke-opacity:1"/>
<path class="bond-4 atom-8 atom-9" d="M 59.2,106.4 L 58.6,88.7" style="fill:none;fill-rule:evenodd;stroke:#E5E5E5;stroke-width:1.3px;stroke-linecap:butt;stroke-linejoin:miter;stroke-opacity:1;stroke-dasharray:6,4"/>
<path class="bond-5 atom-1 atom-10" d="M 37.9,30.8 L 50.6,51.1" style="fill:none;fill-rule:evenodd;stroke:#000000;stroke-width:2.0px;stroke-linecap:butt;stroke-linejoin:miter;stroke-opacity:1"/>
<path class="bond-5 atom-1 atom-10" d="M 36.0,34.3 L 46.6,51.2" style="fill:none;fill-rule:evenodd;stroke:#000000;stroke-width:2.0px;stroke-linecap:butt;stroke-linejoin:miter;stroke-opacity:1;stroke-dasharray:6,4"/>
<path class="bond-6 atom-3 atom-10" d="M 39.3,72.2 L 50.6,51.1" style="fill:none;fill-rule:evenodd;stroke:#000000;stroke-width:2.0px;stroke-linecap:butt;stroke-linejoin:miter;stroke-opacity:1"/>
<path class="bond-6 atom-3 atom-10" d="M 37.2,68.8 L 46.6,51.2" style="fill:none;fill-rule:evenodd;stroke:#000000;stroke-width:2.0px;stroke-linecap:butt;stroke-linejoin:miter;stroke-opacity:1;stroke-dasharray:6,4"/>
<path class="bond-7 atom-5 atom-11" d="M 111.0,69.7 L 98.4,49.4" style="fill:none;fill-rule:evenodd;stroke:#000000;stroke-width:2.0px;stroke-linecap:butt;stroke-linejoin:miter;stroke-opacity:1"/>
<path class="bond-7 atom-5 atom-11" d="M 112.9,66.1 L 102.4,49.3" style="fill:none;fill-rule:evenodd;stroke:#000000;stroke-width:2.0px;stroke-linecap:butt;stroke-linejoin:miter;stroke-opacity:1;stroke-dasharray:6,4"/>
<path class="bond-8 atom-7 atom-11" d="M 109.6,28.3 L 98.4,49.4" style="fill:none;fill-rule:evenodd;stroke:#000000;stroke-width:2.0px;stroke-linecap:butt;stroke-linejoin:miter;stroke-opacity:1"/>
<path class="bond-8 atom-7 atom-11" d="M 111.7,31.7 L 102.4,49.3" style="fill:none;fill-rule:evenodd;stroke:#000000;stroke-width:2.0px;stroke-linecap:butt;stroke-linejoin:miter;stroke-opacity:1;stroke-dasharray:6,4"/>
<path class="bond-9 atom-9 atom-12" d="M 55.0,86.8 L 75.3,74.1" style="fill:none;fill-rule:evenodd;stroke:#000000;stroke-width:2.0px;stroke-linecap:butt;stroke-linejoin:miter;stroke-opacity:1"/>
<path class="bond-9 atom-9 atom-12" d="M 58.6,88.7 L 75.4,78.2" style="fill:none;fill-rule:evenodd;stroke:#000000;stroke-width:2.0px;stroke-linecap:butt;stroke-linejoin:miter;stroke-opacity:1;stroke-dasharray:6,4"/>
<path class="bond-10 atom-13 atom-14" d="M 95.4,105.1 L 94.6,84.4" style="fill:none;fill-rule:evenodd;stroke:#E5E5E5;stroke-width:1.3px;stroke-linecap:butt;stroke-linejoin:miter;stroke-opacity:1"/>
<path class="bond-10 atom-13 atom-14" d="M 98.9,105.0 L 98.1,84.8" style="fill:none;fill-rule:evenodd;stroke:#E5E5E5;stroke-width:1.3px;stroke-linecap:butt;stroke-linejoin:miter;stroke-opacity:1;stroke-dasharray:6,4"/>
<path class="bond-11 atom-10 atom-15" d="M 50.6,51.1 L 74.5,50.2" style="fill:none;fill-rule:evenodd;stroke:#000000;stroke-width:2.0px;stroke-linecap:butt;stroke-linejoin:miter;stroke-opacity:1"/>
<path class="bond-12 atom-11 atom-15" d="M 98.4,49.4 L 74.5,50.2" style="fill:none;fill-rule:evenodd;stroke:#000000;stroke-width:2.0px;stroke-linecap:butt;stroke-linejoin:miter;stroke-opacity:1"/>
<path class="bond-13 atom-12 atom-14" d="M 75.3,74.1 L 96.4,85.4" style="fill:none;fill-rule:evenodd;stroke:#000000;stroke-width:2.0px;stroke-linecap:butt;stroke-linejoin:miter;stroke-opacity:1"/>
<path class="bond-13 atom-12 atom-14" d="M 75.4,78.2 L 93.0,87.5" style="fill:none;fill-rule:evenodd;stroke:#000000;stroke-width:2.0px;stroke-linecap:butt;stroke-linejoin:miter;stroke-opacity:1;stroke-dasharray:6,4"/>
<path class="bond-14 atom-12 atom-15" d="M 75.3,74.1 L 74.5,50.2" style="fill:none;fill-rule:evenodd;stroke:#000000;stroke-width:2.0px;stroke-linecap:butt;stroke-linejoin:miter;stroke-opacity:1"/>
<path class="bond-15 atom-14 atom-16" d="M 96.4,85.4 L 107.2,81.9" style="fill:none;fill-rule:evenodd;stroke:#E5E5E5;stroke-width:1.3px;stroke-linecap:butt;stroke-linejoin:miter;stroke-opacity:1"/>
<path class="bond-16 atom-15 atom-17" d="M 74.5,50.2 L 74.1,40.4" style="fill:none;fill-rule:evenodd;stroke:#000000;stroke-width:2.0px;stroke-linecap:butt;stroke-linejoin:miter;stroke-opacity:1"/>
<path class="bond-16 atom-15 atom-17" d="M 74.1,40.4 L 73.8,30.6" style="fill:none;fill-rule:evenodd;stroke:#FF0000;stroke-width:2.0px;stroke-linecap:butt;stroke-linejoin:miter;stroke-opacity:1"/>
<path d="M 37.4,30.8 L 37.9,30.8 L 38.2,31.3" style="fill:none;stroke:#E5E5E5;stroke-width:1.3px;stroke-linecap:butt;stroke-linejoin:miter;stroke-opacity:1;"/>
<path d="M 38.8,72.2 L 39.3,72.2 L 39.6,71.7" style="fill:none;stroke:#E5E5E5;stroke-width:1.3px;stroke-linecap:butt;stroke-linejoin:miter;stroke-opacity:1;"/>
<path d="M 111.6,69.7 L 111.0,69.7 L 110.7,69.2" style="fill:none;stroke:#E5E5E5;stroke-width:1.3px;stroke-linecap:butt;stroke-linejoin:miter;stroke-opacity:1;"/>
<path d="M 110.1,28.3 L 109.6,28.3 L 109.3,28.8" style="fill:none;stroke:#E5E5E5;stroke-width:1.3px;stroke-linecap:butt;stroke-linejoin:miter;stroke-opacity:1;"/>
<path d="M 55.0,87.3 L 55.0,86.8 L 55.5,86.5" style="fill:none;stroke:#E5E5E5;stroke-width:1.3px;stroke-linecap:butt;stroke-linejoin:miter;stroke-opacity:1;"/>
<path class="atom-0" d="M 7.8 32.6 L 8.8 31.6 L 7.5 31.3 L 7.7 30.6 L 8.9 31.3 L 8.7 29.9 L 9.5 29.9 L 9.3 31.2 L 10.5 30.7 L 10.7 31.3 L 9.4 31.6 L 10.3 32.6 L 9.7 33.0 L 9.1 31.8 L 8.4 33.0 L 7.8 32.6 " fill="#191919"/>
<path class="atom-0" d="M 11.4 30.0 L 12.3 30.0 L 12.3 32.9 L 15.8 32.9 L 15.8 30.0 L 16.7 30.0 L 16.7 36.8 L 15.8 36.8 L 15.8 33.7 L 12.3 33.7 L 12.3 36.8 L 11.4 36.8 L 11.4 30.0 " fill="#191919"/>
<path class="atom-2" d="M 9.1 70.5 L 10.1 69.5 L 8.8 69.2 L 9.0 68.6 L 10.2 69.2 L 10.1 67.8 L 10.8 67.8 L 10.6 69.2 L 11.8 68.6 L 12.0 69.2 L 10.7 69.5 L 11.6 70.5 L 11.1 70.9 L 10.4 69.7 L 9.7 70.9 L 9.1 70.5 " fill="#191919"/>
<path class="atom-2" d="M 12.7 67.9 L 13.7 67.9 L 13.7 70.8 L 17.1 70.8 L 17.1 67.9 L 18.0 67.9 L 18.0 74.7 L 17.1 74.7 L 17.1 71.6 L 13.7 71.6 L 13.7 74.7 L 12.7 74.7 L 12.7 67.9 " fill="#191919"/>
<path class="atom-4" d="M 133.6 66.4 L 134.6 65.3 L 133.3 65.1 L 133.5 64.4 L 134.7 65.0 L 134.5 63.7 L 135.2 63.7 L 135.0 65.0 L 136.3 64.4 L 136.5 65.1 L 135.1 65.3 L 136.1 66.3 L 135.5 66.8 L 134.9 65.5 L 134.2 66.8 L 133.6 66.4 " fill="#191919"/>
<path class="atom-4" d="M 137.2 63.8 L 138.1 63.8 L 138.1 66.7 L 141.6 66.7 L 141.6 63.8 L 142.5 63.8 L 142.5 70.6 L 141.6 70.6 L 141.6 67.4 L 138.1 67.4 L 138.1 70.6 L 137.2 70.6 L 137.2 63.8 " fill="#191919"/>
<path class="atom-6" d="M 132.3 28.4 L 133.3 27.4 L 132.0 27.2 L 132.2 26.5 L 133.4 27.1 L 133.2 25.8 L 133.9 25.8 L 133.7 27.1 L 135.0 26.5 L 135.2 27.2 L 133.8 27.4 L 134.8 28.4 L 134.2 28.9 L 133.5 27.6 L 132.9 28.9 L 132.3 28.4 " fill="#191919"/>
<path class="atom-6" d="M 135.9 25.9 L 136.8 25.9 L 136.8 28.8 L 140.3 28.8 L 140.3 25.9 L 141.2 25.9 L 141.2 32.6 L 140.3 32.6 L 140.3 29.5 L 136.8 29.5 L 136.8 32.6 L 135.9 32.6 L 135.9 25.9 " fill="#191919"/>
<path class="atom-8" d="M 56.3 109.9 L 57.3 108.9 L 56.0 108.6 L 56.2 107.9 L 57.4 108.5 L 57.2 107.2 L 58.0 107.2 L 57.8 108.5 L 59.0 108.0 L 59.2 108.6 L 57.9 108.9 L 58.8 109.9 L 58.2 110.3 L 57.6 109.0 L 56.9 110.3 L 56.3 109.9 " fill="#191919"/>
<path class="atom-8" d="M 59.9 107.3 L 60.8 107.3 L 60.8 110.2 L 64.3 110.2 L 64.3 107.3 L 65.2 107.3 L 65.2 114.1 L 64.3 114.1 L 64.3 111.0 L 60.8 111.0 L 60.8 114.1 L 59.9 114.1 L 59.9 107.3 " fill="#191919"/>
<path class="atom-13" d="M 96.0 108.5 L 97.0 107.5 L 95.7 107.2 L 95.9 106.5 L 97.1 107.2 L 96.9 105.8 L 97.6 105.8 L 97.4 107.2 L 98.6 106.6 L 98.9 107.2 L 97.5 107.5 L 98.5 108.5 L 97.9 108.9 L 97.2 107.7 L 96.6 108.9 L 96.0 108.5 " fill="#191919"/>
<path class="atom-13" d="M 99.6 105.9 L 100.5 105.9 L 100.5 108.8 L 103.9 108.8 L 103.9 105.9 L 104.9 105.9 L 104.9 112.7 L 103.9 112.7 L 103.9 109.6 L 100.5 109.6 L 100.5 112.7 L 99.6 112.7 L 99.6 105.9 " fill="#191919"/>
<path class="atom-16" d="M 107.2 80.7 L 108.2 79.7 L 106.9 79.4 L 107.1 78.7 L 108.3 79.3 L 108.2 78.0 L 108.9 78.0 L 108.7 79.3 L 109.9 78.8 L 110.1 79.4 L 108.8 79.7 L 109.7 80.7 L 109.1 81.1 L 108.5 79.8 L 107.8 81.1 L 107.2 80.7 " fill="#191919"/>
<path class="atom-16" d="M 110.8 78.1 L 111.7 78.1 L 111.7 81.0 L 115.2 81.0 L 115.2 78.1 L 116.1 78.1 L 116.1 84.9 L 115.2 84.9 L 115.2 81.8 L 111.7 81.8 L 111.7 84.9 L 110.8 84.9 L 110.8 78.1 " fill="#191919"/>
<path class="atom-17" d="M 70.5 26.4 Q 70.5 24.7, 71.3 23.8 Q 72.1 22.9, 73.6 22.9 Q 75.1 22.9, 75.9 23.8 Q 76.8 24.7, 76.8 26.4 Q 76.8 28.0, 75.9 28.9 Q 75.1 29.9, 73.6 29.9 Q 72.2 29.9, 71.3 28.9 Q 70.5 28.0, 70.5 26.4 M 73.6 29.1 Q 74.7 29.1, 75.2 28.4 Q 75.8 27.7, 75.8 26.4 Q 75.8 25.0, 75.2 24.4 Q 74.7 23.7, 73.6 23.7 Q 72.6 23.7, 72.0 24.3 Q 71.5 25.0, 71.5 26.4 Q 71.5 27.7, 72.0 28.4 Q 72.6 29.1, 73.6 29.1 " fill="#FF0000"/>
<path class="atom-17" d="M 77.8 23.0 L 78.7 23.0 L 78.7 25.9 L 82.2 25.9 L 82.2 23.0 L 83.1 23.0 L 83.1 29.8 L 82.2 29.8 L 82.2 26.6 L 78.7 26.6 L 78.7 29.8 L 77.8 29.8 L 77.8 23.0 " fill="#FF0000"/>
<path class="legend" d="M 55.9 133.2 Q 56.3 132.1, 57.3 131.5 Q 58.3 130.9, 59.7 130.9 Q 61.4 130.9, 62.3 131.8 Q 63.3 132.8, 63.3 134.4 Q 63.3 136.1, 62.0 137.7 Q 60.8 139.2, 58.2 141.1 L 63.5 141.1 L 63.5 142.4 L 55.8 142.4 L 55.8 141.3 Q 58.0 139.8, 59.2 138.7 Q 60.5 137.6, 61.1 136.5 Q 61.7 135.5, 61.7 134.5 Q 61.7 133.4, 61.1 132.8 Q 60.6 132.2, 59.7 132.2 Q 58.7 132.2, 58.1 132.6 Q 57.5 132.9, 57.1 133.7 L 55.9 133.2 " fill="#000000"/>
<path class="legend" d="M 69.4 142.5 Q 67.3 142.5, 66.3 141.0 Q 65.2 139.4, 65.2 136.7 Q 65.2 134.0, 66.3 132.4 Q 67.3 130.9, 69.4 130.9 Q 71.5 130.9, 72.5 132.4 Q 73.5 134.0, 73.5 136.7 Q 73.5 139.4, 72.5 141.0 Q 71.5 142.5, 69.4 142.5 M 69.4 141.2 Q 70.6 141.2, 71.3 140.1 Q 71.9 138.9, 71.9 136.7 Q 71.9 134.5, 71.3 133.3 Q 70.6 132.2, 69.4 132.2 Q 68.2 132.2, 67.5 133.3 Q 66.8 134.5, 66.8 136.7 Q 66.8 138.9, 67.5 140.1 Q 68.2 141.2, 69.4 141.2 " fill="#000000"/>
<path class="legend" d="M 79.5 142.5 Q 77.4 142.5, 76.4 141.0 Q 75.4 139.4, 75.4 136.7 Q 75.4 134.0, 76.4 132.4 Q 77.4 130.9, 79.5 130.9 Q 81.6 130.9, 82.6 132.4 Q 83.7 134.0, 83.7 136.7 Q 83.7 139.4, 82.6 141.0 Q 81.6 142.5, 79.5 142.5 M 79.5 141.2 Q 80.7 141.2, 81.4 140.1 Q 82.1 138.9, 82.1 136.7 Q 82.1 134.5, 81.4 133.3 Q 80.7 132.2, 79.5 132.2 Q 78.3 132.2, 77.6 133.3 Q 77.0 134.5, 77.0 136.7 Q 77.0 138.9, 77.6 140.1 Q 78.3 141.2, 79.5 141.2 " fill="#000000"/>
<path class="legend" d="M 89.6 135.3 Q 90.6 135.3, 91.4 135.7 Q 92.2 136.1, 92.7 136.9 Q 93.2 137.7, 93.2 138.8 Q 93.2 140.0, 92.6 140.8 Q 92.0 141.6, 91.1 142.1 Q 90.2 142.5, 89.1 142.5 Q 88.1 142.5, 87.1 142.1 Q 86.1 141.7, 85.5 141.0 L 86.4 140.0 Q 87.0 140.6, 87.7 140.9 Q 88.4 141.2, 89.2 141.2 Q 90.2 141.2, 90.8 140.6 Q 91.6 140.0, 91.6 138.8 Q 91.6 137.6, 90.8 137.1 Q 90.2 136.5, 89.1 136.5 Q 88.1 136.5, 87.0 136.9 L 86.1 136.5 L 86.6 131.0 L 92.4 131.0 L 92.3 132.3 L 87.9 132.3 L 87.6 135.7 Q 88.6 135.3, 89.6 135.3 " fill="#000000"/>
</svg>