<svg xmlns="http://www.w3.org/2000/svg" xmlns:rdkit="http://www.rdkit.org/xml" xmlns:xlink="http://www.w3.org/1999/xlink" version="1.1" baseProfile="full" xml:space="preserve" width="150px" height="150px" viewBox="0 0 150 150">
<!-- END OF HEADER -->
<rect style="opacity:1.0;fill:#FFFFFF;stroke:none" width="150.0" height="150.0" x="0.0" y="0.0"> </rect>
<ellipse cx="29.8" cy="77.1" rx="4.7" ry="4.7" class="atom-9" style="fill:#E5E533;fill-rule:evenodd;stroke:#E5E533;stroke-width:1.0px;stroke-linecap:butt;stroke-linejoin:miter;stroke-opacity:1"/>
<ellipse cx="76.0" cy="67.2" rx="4.7" ry="4.7" class="atom-11" style="fill:#9999E5;fill-rule:evenodd;stroke:#9999E5;stroke-width:1.0px;stroke-linecap:butt;stroke-linejoin:miter;stroke-opacity:1"/>
<path class="bond-0 atom-0 atom-1" d="M 128.4,94.7 L 114.9,79.8" style="fill:none;fill-rule:evenodd;stroke:#E5E5E5;stroke-width:1.3px;stroke-linecap:butt;stroke-linejoin:miter;stroke-opacity:1"/>
<path class="bond-1 atom-2 atom-3" d="M 65.0,33.6 L 48.0,49.0" style="fill:none;fill-rule:evenodd;stroke:#E5E5E5;stroke-width:1.3px;stroke-linecap:butt;stroke-linejoin:miter;stroke-opacity:1"/>
<path class="bond-2 atom-4 atom-5" d="M 84.6,107.2 L 91.8,84.7" style="fill:none;fill-rule:evenodd;stroke:#000000;stroke-width:2.0px;stroke-linecap:butt;stroke-linejoin:miter;stroke-opacity:1"/>
<path class="bond-3 atom-6 atom-7" d="M 57.8,95.2 L 52.9,72.1" style="fill:none;fill-rule:evenodd;stroke:#000000;stroke-width:2.0px;stroke-linecap:butt;stroke-linejoin:miter;stroke-opacity:1"/>
<path class="bond-4 atom-1 atom-5" d="M 114.9,79.8 L 91.8,84.7" style="fill:none;fill-rule:evenodd;stroke:#000000;stroke-width:2.0px;stroke-linecap:butt;stroke-linejoin:miter;stroke-opacity:1"/>
<path class="bond-5 atom-3 atom-7" d="M 48.0,49.0 L 52.9,72.1" style="fill:none;fill-rule:evenodd;stroke:#000000;stroke-width:2.0px;stroke-linecap:butt;stroke-linejoin:miter;stroke-opacity:1"/>
<path class="bond-6 atom-8 atom-9" d="M 22.2,94.8 L 28.4,75.5" style="fill:none;fill-rule:evenodd;stroke:#E5E5E5;stroke-width:1.3px;stroke-linecap:butt;stroke-linejoin:miter;stroke-opacity:1"/>
<path class="bond-6 atom-8 atom-9" d="M 25.6,95.9 L 31.8,76.6" style="fill:none;fill-rule:evenodd;stroke:#E5E5E5;stroke-width:1.3px;stroke-linecap:butt;stroke-linejoin:miter;stroke-opacity:1;stroke-dasharray:6,4"/>
<path class="bond-7 atom-10 atom-9" d="M 18.7,62.1 L 31.8,76.6" style="fill:none;fill-rule:evenodd;stroke:#E5E5E5;stroke-width:1.3px;stroke-linecap:butt;stroke-linejoin:miter;stroke-opacity:1"/>
<path class="bond-7 atom-10 atom-9" d="M 16.1,64.5 L 29.2,79.0" style="fill:none;fill-rule:evenodd;stroke:#E5E5E5;stroke-width:1.3px;stroke-linecap:butt;stroke-linejoin:miter;stroke-opacity:1;stroke-dasharray:6,4"/>
<path class="bond-8 atom-11 atom-5" d="M 76.0,67.2 L 91.8,84.7" style="fill:none;fill-rule:evenodd;stroke:#000000;stroke-width:2.0px;stroke-linecap:butt;stroke-linejoin:miter;stroke-opacity:1"/>
<path class="bond-9 atom-11 atom-7" d="M 76.0,67.2 L 52.9,72.1" style="fill:none;fill-rule:evenodd;stroke:#000000;stroke-width:2.0px;stroke-linecap:butt;stroke-linejoin:miter;stroke-opacity:1"/>
<path class="bond-10 atom-9 atom-7" d="M 29.8,77.1 L 52.9,72.1" style="fill:none;fill-rule:evenodd;stroke:#000000;stroke-width:2.0px;stroke-linecap:butt;stroke-linejoin:miter;stroke-opacity:1"/>
<path d="M 115.3,80.2 L 114.9,79.8 L 114.4,79.9" style="fill:none;stroke:#E5E5E5;stroke-width:1.3px;stroke-linecap:butt;stroke-linejoin:miter;stroke-opacity:1;"/>
<path d="M 48.4,48.6 L 48.0,49.0 L 48.1,49.6" style="fill:none;stroke:#E5E5E5;stroke-width:1.3px;stroke-linecap:butt;stroke-linejoin:miter;stroke-opacity:1;"/>
<path d="M 76.8,68.1 L 76.0,67.2 L 74.9,67.4" style="fill:none;stroke:#000000;stroke-width:2.0px;stroke-linecap:butt;stroke-linejoin:miter;stroke-opacity:1;"/>
<path class="atom-0" d="M 129.5 96.6 L 130.5 95.6 L 129.2 95.3 L 129.4 94.7 L 130.6 95.3 L 130.4 94.0 L 131.1 93.9 L 130.9 95.3 L 132.1 94.7 L 132.3 95.3 L 131.0 95.6 L 132.0 96.6 L 131.4 97.0 L 130.7 95.8 L 130.1 97.0 L 129.5 96.6 " fill="#191919"/>
<path class="atom-0" d="M 133.1 94.1 L 134.0 94.1 L 134.0 96.9 L 137.4 96.9 L 137.4 94.1 L 138.3 94.1 L 138.3 100.7 L 137.4 100.7 L 137.4 97.7 L 134.0 97.7 L 134.0 100.7 L 133.1 100.7 L 133.1 94.1 " fill="#191919"/>
<path class="atom-0" d="M 141.7 101.8 Q 142.1 101.9, 142.3 102.2 Q 142.5 102.4, 142.5 102.9 Q 142.5 103.3, 142.3 103.5 Q 142.1 103.8, 141.8 104.0 Q 141.4 104.2, 141.0 104.2 Q 140.5 104.2, 140.2 104.0 Q 139.8 103.8, 139.5 103.5 L 139.9 103.1 Q 140.2 103.4, 140.4 103.5 Q 140.6 103.7, 141.0 103.7 Q 141.4 103.7, 141.6 103.4 Q 141.9 103.2, 141.9 102.9 Q 141.9 102.4, 141.6 102.2 Q 141.4 102.0, 140.8 102.0 L 140.5 102.0 L 140.5 101.6 L 140.8 101.6 Q 141.3 101.6, 141.5 101.4 Q 141.8 101.1, 141.8 100.8 Q 141.8 100.5, 141.6 100.3 Q 141.4 100.1, 141.0 100.1 Q 140.6 100.1, 140.4 100.3 Q 140.2 100.4, 140.0 100.7 L 139.6 100.5 Q 139.7 100.1, 140.1 99.9 Q 140.5 99.6, 141.0 99.6 Q 141.6 99.6, 142.0 99.9 Q 142.4 100.2, 142.4 100.8 Q 142.4 101.1, 142.2 101.4 Q 142.0 101.6, 141.7 101.8 " fill="#191919"/>
<path class="atom-2" d="M 64.3 32.4 L 65.2 31.4 L 63.9 31.2 L 64.1 30.5 L 65.3 31.1 L 65.2 29.8 L 65.9 29.8 L 65.7 31.1 L 66.9 30.5 L 67.1 31.2 L 65.8 31.4 L 66.7 32.4 L 66.2 32.9 L 65.5 31.6 L 64.8 32.9 L 64.3 32.4 " fill="#191919"/>
<path class="atom-2" d="M 67.8 29.9 L 68.7 29.9 L 68.7 32.8 L 72.1 32.8 L 72.1 29.9 L 73.1 29.9 L 73.1 36.6 L 72.1 36.6 L 72.1 33.5 L 68.7 33.5 L 68.7 36.6 L 67.8 36.6 L 67.8 29.9 " fill="#191919"/>
<path class="atom-2" d="M 76.4 37.6 Q 76.8 37.7, 77.0 38.0 Q 77.3 38.3, 77.3 38.7 Q 77.3 39.1, 77.1 39.4 Q 76.9 39.7, 76.5 39.8 Q 76.2 40.0, 75.7 40.0 Q 75.3 40.0, 74.9 39.8 Q 74.6 39.7, 74.3 39.3 L 74.6 39.0 Q 74.9 39.3, 75.2 39.4 Q 75.4 39.5, 75.7 39.5 Q 76.1 39.5, 76.4 39.3 Q 76.6 39.1, 76.6 38.7 Q 76.6 38.3, 76.4 38.1 Q 76.1 37.9, 75.6 37.9 L 75.3 37.9 L 75.3 37.4 L 75.6 37.4 Q 76.0 37.4, 76.3 37.2 Q 76.5 37.0, 76.5 36.6 Q 76.5 36.3, 76.3 36.1 Q 76.1 36.0, 75.8 36.0 Q 75.4 36.0, 75.2 36.1 Q 74.9 36.2, 74.8 36.6 L 74.3 36.3 Q 74.5 36.0, 74.9 35.7 Q 75.2 35.5, 75.8 35.5 Q 76.4 35.5, 76.8 35.8 Q 77.2 36.1, 77.2 36.6 Q 77.2 37.0, 77.0 37.2 Q 76.8 37.5, 76.4 37.6 " fill="#191919"/>
<path class="atom-8" d="M 21.3 98.8 L 22.2 97.8 L 20.9 97.5 L 21.1 96.8 L 22.3 97.4 L 22.2 96.1 L 22.9 96.1 L 22.7 97.4 L 23.9 96.9 L 24.1 97.5 L 22.8 97.8 L 23.7 98.8 L 23.2 99.2 L 22.5 97.9 L 21.8 99.2 L 21.3 98.8 " fill="#191919"/>
<path class="atom-8" d="M 24.8 96.2 L 25.7 96.2 L 25.7 99.1 L 29.1 99.1 L 29.1 96.2 L 30.0 96.2 L 30.0 102.9 L 29.1 102.9 L 29.1 99.8 L 25.7 99.8 L 25.7 102.9 L 24.8 102.9 L 24.8 96.2 " fill="#191919"/>
<path class="atom-10" d="M 7.8 58.8 L 8.8 57.8 L 7.5 57.5 L 7.7 56.8 L 8.9 57.4 L 8.7 56.1 L 9.4 56.1 L 9.2 57.4 L 10.5 56.9 L 10.7 57.5 L 9.3 57.7 L 10.3 58.8 L 9.7 59.2 L 9.1 57.9 L 8.4 59.2 L 7.8 58.8 " fill="#191919"/>
<path class="atom-10" d="M 11.4 56.2 L 12.3 56.2 L 12.3 59.1 L 15.7 59.1 L 15.7 56.2 L 16.6 56.2 L 16.6 62.9 L 15.7 62.9 L 15.7 59.8 L 12.3 59.8 L 12.3 62.9 L 11.4 62.9 L 11.4 56.2 " fill="#191919"/>
<path class="legend" d="M 56.3 133.2 Q 56.7 132.1, 57.7 131.5 Q 58.7 130.9, 60.1 130.9 Q 61.8 130.9, 62.7 131.8 Q 63.7 132.8, 63.7 134.4 Q 63.7 136.1, 62.4 137.7 Q 61.2 139.2, 58.6 141.1 L 63.9 141.1 L 63.9 142.4 L 56.2 142.4 L 56.2 141.3 Q 58.4 139.8, 59.6 138.7 Q 60.9 137.6, 61.5 136.5 Q 62.1 135.5, 62.1 134.5 Q 62.1 133.4, 61.5 132.8 Q 61.0 132.2, 60.1 132.2 Q 59.1 132.2, 58.5 132.6 Q 57.9 132.9, 57.5 133.7 L 56.3 133.2 " fill="#000000"/>
<path class="legend" d="M 69.8 142.5 Q 67.7 142.5, 66.7 141.0 Q 65.6 139.4, 65.6 136.7 Q 65.6 134.0, 66.7 132.4 Q 67.7 130.9, 69.8 130.9 Q 71.9 130.9, 72.9 132.4 Q 73.9 134.0, 73.9 136.7 Q 73.9 139.4, 72.9 141.0 Q 71.9 142.5, 69.8 142.5 M 69.8 141.2 Q 71.0 141.2, 71.7 140.1 Q 72.3 138.9, 72.3 136.7 Q 72.3 134.5, 71.7 133.3 Q 71.0 132.2, 69.8 132.2 Q 68.6 132.2, 67.9 133.3 Q 67.2 134.5, 67.2 136.7 Q 67.2 138.9, 67.9 140.1 Q 68.6 141.2, 69.8 141.2 " fill="#000000"/>
<path class="legend" d="M 76.4 141.1 L 78.8 141.1 L 78.8 132.6 L 76.1 133.5 L 75.7 132.5 L 79.2 131.0 L 80.3 131.2 L 80.3 141.1 L 82.6 141.1 L 82.6 142.4 L 76.4 142.4 L 76.4 141.1 " fill="#000000"/>
<path class="legend" d="M 91.4 138.5 L 92.8 138.5 L 92.8 139.8 L 91.4 139.8 L 91.4 142.4 L 89.9 142.4 L 89.9 139.8 L 84.0 139.8 L 84.0 138.8 L 89.0 131.0 L 91.4 131.0 L 91.4 138.5 M 85.9 138.5 L 89.9 138.5 L 89.9 132.1 L 85.9 138.5 " fill="#000000"/>
</svg>