<svg xmlns="http://www.w3.org/2000/svg" xmlns:rdkit="http://www.rdkit.org/xml" xmlns:xlink="http://www.w3.org/1999/xlink" version="1.1" baseProfile="full" xml:space="preserve" width="150px" height="150px" viewBox="0 0 150 150">
<!-- END OF HEADER -->
<rect style="opacity:1.0;fill:#FFFFFF;stroke:none" width="150.0" height="150.0" x="0.0" y="0.0"> </rect>
<ellipse cx="52.3" cy="98.7" rx="4.9" ry="4.9" class="atom-1" style="fill:#E5E533;fill-rule:evenodd;stroke:#E5E533;stroke-width:1.0px;stroke-linecap:butt;stroke-linejoin:miter;stroke-opacity:1"/>
<ellipse cx="56.5" cy="74.4" rx="4.9" ry="4.9" class="atom-2" style="fill:#E5E533;fill-rule:evenodd;stroke:#E5E533;stroke-width:1.0px;stroke-linecap:butt;stroke-linejoin:miter;stroke-opacity:1"/>
<ellipse cx="37.5" cy="58.6" rx="4.9" ry="4.9" class="atom-4" style="fill:#E5E533;fill-rule:evenodd;stroke:#E5E533;stroke-width:1.0px;stroke-linecap:butt;stroke-linejoin:miter;stroke-opacity:1"/>
<ellipse cx="107.0" cy="32.8" rx="4.9" ry="4.9" class="atom-5" style="fill:#CCCCCC;fill-rule:evenodd;stroke:#CCCCCC;stroke-width:1.0px;stroke-linecap:butt;stroke-linejoin:miter;stroke-opacity:1"/>
<ellipse cx="83.8" cy="41.4" rx="4.9" ry="4.9" class="atom-7" style="fill:#CCCCCC;fill-rule:evenodd;stroke:#CCCCCC;stroke-width:1.0px;stroke-linecap:butt;stroke-linejoin:miter;stroke-opacity:1"/>
<ellipse cx="121.8" cy="73.0" rx="4.9" ry="4.9" class="atom-8" style="fill:#CCCCCC;fill-rule:evenodd;stroke:#CCCCCC;stroke-width:1.0px;stroke-linecap:butt;stroke-linejoin:miter;stroke-opacity:1"/>
<ellipse cx="79.6" cy="65.8" rx="4.9" ry="4.9" class="atom-9" style="fill:#9999E5;fill-rule:evenodd;stroke:#9999E5;stroke-width:1.0px;stroke-linecap:butt;stroke-linejoin:miter;stroke-opacity:1"/>
<ellipse cx="98.7" cy="81.5" rx="4.9" ry="4.9" class="atom-12" style="fill:#CCCCCC;fill-rule:evenodd;stroke:#CCCCCC;stroke-width:1.0px;stroke-linecap:butt;stroke-linejoin:miter;stroke-opacity:1"/>
<path class="bond-0 atom-0 atom-1" d="M 32.7,106.0 L 52.3,98.7" style="fill:none;fill-rule:evenodd;stroke:#E5E5E5;stroke-width:1.3px;stroke-linecap:butt;stroke-linejoin:miter;stroke-opacity:1"/>
<path class="bond-0 atom-0 atom-1" d="M 31.4,102.5 L 49.0,96.0" style="fill:none;fill-rule:evenodd;stroke:#E5E5E5;stroke-width:1.3px;stroke-linecap:butt;stroke-linejoin:miter;stroke-opacity:1;stroke-dasharray:6,4"/>
<path class="bond-1 atom-1 atom-2" d="M 52.3,98.7 L 56.5,74.4" style="fill:none;fill-rule:evenodd;stroke:#000000;stroke-width:2.0px;stroke-linecap:butt;stroke-linejoin:miter;stroke-opacity:1"/>
<path class="bond-1 atom-1 atom-2" d="M 49.0,96.0 L 52.5,75.8" style="fill:none;fill-rule:evenodd;stroke:#000000;stroke-width:2.0px;stroke-linecap:butt;stroke-linejoin:miter;stroke-opacity:1;stroke-dasharray:6,4"/>
<path class="bond-2 atom-3 atom-4" d="M 17.2,64.1 L 37.8,56.5" style="fill:none;fill-rule:evenodd;stroke:#E5E5E5;stroke-width:1.3px;stroke-linecap:butt;stroke-linejoin:miter;stroke-opacity:1"/>
<path class="bond-2 atom-3 atom-4" d="M 18.5,67.6 L 39.1,59.9" style="fill:none;fill-rule:evenodd;stroke:#E5E5E5;stroke-width:1.3px;stroke-linecap:butt;stroke-linejoin:miter;stroke-opacity:1;stroke-dasharray:6,4"/>
<path class="bond-3 atom-5 atom-6" d="M 107.0,32.8 L 123.5,46.6" style="fill:none;fill-rule:evenodd;stroke:#E5E5E5;stroke-width:1.3px;stroke-linecap:butt;stroke-linejoin:miter;stroke-opacity:1"/>
<path class="bond-4 atom-5 atom-7" d="M 107.0,32.8 L 97.4,36.4" style="fill:none;fill-rule:evenodd;stroke:#000000;stroke-width:2.0px;stroke-linecap:butt;stroke-linejoin:miter;stroke-opacity:1"/>
<path class="bond-4 atom-5 atom-7" d="M 97.4,36.4 L 87.8,39.9" style="fill:none;fill-rule:evenodd;stroke:#FF0000;stroke-width:2.0px;stroke-linecap:butt;stroke-linejoin:miter;stroke-opacity:1"/>
<path class="bond-5 atom-6 atom-8" d="M 125.9,49.1 L 121.8,73.0" style="fill:none;fill-rule:evenodd;stroke:#E5E5E5;stroke-width:1.3px;stroke-linecap:butt;stroke-linejoin:miter;stroke-opacity:1"/>
<path class="bond-6 atom-2 atom-4" d="M 56.5,74.4 L 37.5,58.6" style="fill:none;fill-rule:evenodd;stroke:#000000;stroke-width:2.0px;stroke-linecap:butt;stroke-linejoin:miter;stroke-opacity:1"/>
<path class="bond-6 atom-2 atom-4" d="M 52.5,75.8 L 36.7,62.8" style="fill:none;fill-rule:evenodd;stroke:#000000;stroke-width:2.0px;stroke-linecap:butt;stroke-linejoin:miter;stroke-opacity:1;stroke-dasharray:6,4"/>
<path class="bond-7 atom-2 atom-9" d="M 56.5,74.4 L 79.6,65.8" style="fill:none;fill-rule:evenodd;stroke:#000000;stroke-width:2.0px;stroke-linecap:butt;stroke-linejoin:miter;stroke-opacity:1"/>
<path class="bond-8 atom-10 atom-8" d="M 138.4,86.7 L 121.8,73.0" style="fill:none;fill-rule:evenodd;stroke:#E5E5E5;stroke-width:1.3px;stroke-linecap:butt;stroke-linejoin:miter;stroke-opacity:1"/>
<path class="bond-9 atom-4 atom-11" d="M 37.5,58.6 L 41.5,34.7" style="fill:none;fill-rule:evenodd;stroke:#E5E5E5;stroke-width:1.3px;stroke-linecap:butt;stroke-linejoin:miter;stroke-opacity:1"/>
<path class="bond-10 atom-8 atom-12" d="M 121.8,73.0 L 112.3,76.5" style="fill:none;fill-rule:evenodd;stroke:#000000;stroke-width:2.0px;stroke-linecap:butt;stroke-linejoin:miter;stroke-opacity:1"/>
<path class="bond-10 atom-8 atom-12" d="M 112.3,76.5 L 102.7,80.1" style="fill:none;fill-rule:evenodd;stroke:#FF0000;stroke-width:2.0px;stroke-linecap:butt;stroke-linejoin:miter;stroke-opacity:1"/>
<path class="bond-11 atom-9 atom-7" d="M 79.6,65.8 L 81.3,55.8" style="fill:none;fill-rule:evenodd;stroke:#000000;stroke-width:2.0px;stroke-linecap:butt;stroke-linejoin:miter;stroke-opacity:1"/>
<path class="bond-11 atom-9 atom-7" d="M 81.3,55.8 L 83.0,45.9" style="fill:none;fill-rule:evenodd;stroke:#FF0000;stroke-width:2.0px;stroke-linecap:butt;stroke-linejoin:miter;stroke-opacity:1"/>
<path class="bond-12 atom-9 atom-12" d="M 79.6,65.8 L 87.1,72.0" style="fill:none;fill-rule:evenodd;stroke:#000000;stroke-width:2.0px;stroke-linecap:butt;stroke-linejoin:miter;stroke-opacity:1"/>
<path class="bond-12 atom-9 atom-12" d="M 87.1,72.0 L 94.6,78.2" style="fill:none;fill-rule:evenodd;stroke:#FF0000;stroke-width:2.0px;stroke-linecap:butt;stroke-linejoin:miter;stroke-opacity:1"/>
<path d="M 51.8,98.9 L 52.3,98.7 L 52.4,98.1" style="fill:none;stroke:#E5E5E5;stroke-width:1.3px;stroke-linecap:butt;stroke-linejoin:miter;stroke-opacity:1;"/>
<path d="M 107.4,33.2 L 107.0,32.8 L 106.7,32.9" style="fill:none;stroke:#E5E5E5;stroke-width:1.3px;stroke-linecap:butt;stroke-linejoin:miter;stroke-opacity:1;"/>
<path class="atom-0" d="M 22.1 104.8 L 23.1 103.7 L 21.7 103.4 L 21.9 102.7 L 23.2 103.4 L 23.0 102.0 L 23.7 102.0 L 23.5 103.4 L 24.8 102.8 L 25.0 103.4 L 23.6 103.7 L 24.6 104.8 L 24.0 105.2 L 23.3 103.9 L 22.7 105.2 L 22.1 104.8 " fill="#191919"/>
<path class="atom-0" d="M 25.8 102.1 L 26.7 102.1 L 26.7 105.1 L 30.3 105.1 L 30.3 102.1 L 31.2 102.1 L 31.2 109.1 L 30.3 109.1 L 30.3 105.9 L 26.7 105.9 L 26.7 109.1 L 25.8 109.1 L 25.8 102.1 " fill="#191919"/>
<path class="atom-3" d="M 7.8 66.4 L 8.9 65.3 L 7.5 65.0 L 7.7 64.3 L 9.0 65.0 L 8.8 63.6 L 9.5 63.6 L 9.3 65.0 L 10.6 64.4 L 10.8 65.0 L 9.4 65.3 L 10.4 66.4 L 9.8 66.8 L 9.1 65.5 L 8.4 66.8 L 7.8 66.4 " fill="#191919"/>
<path class="atom-3" d="M 11.5 63.7 L 12.5 63.7 L 12.5 66.7 L 16.1 66.7 L 16.1 63.7 L 17.0 63.7 L 17.0 70.7 L 16.1 70.7 L 16.1 67.5 L 12.5 67.5 L 12.5 70.7 L 11.5 70.7 L 11.5 63.7 " fill="#191919"/>
<path class="atom-6" d="M 124.7 47.8 L 125.7 46.8 L 124.3 46.5 L 124.5 45.8 L 125.8 46.4 L 125.6 45.1 L 126.4 45.1 L 126.1 46.4 L 127.4 45.8 L 127.6 46.5 L 126.3 46.8 L 127.2 47.8 L 126.6 48.3 L 126.0 47.0 L 125.3 48.3 L 124.7 47.8 " fill="#191919"/>
<path class="atom-6" d="M 128.4 45.2 L 129.3 45.2 L 129.3 48.1 L 132.9 48.1 L 132.9 45.2 L 133.9 45.2 L 133.9 52.2 L 132.9 52.2 L 132.9 48.9 L 129.3 48.9 L 129.3 52.2 L 128.4 52.2 L 128.4 45.2 " fill="#191919"/>
<path class="atom-7" d="M 80.6 41.4 Q 80.6 39.8, 81.4 38.8 Q 82.2 37.9, 83.8 37.9 Q 85.3 37.9, 86.2 38.8 Q 87.0 39.8, 87.0 41.4 Q 87.0 43.1, 86.2 44.1 Q 85.3 45.1, 83.8 45.1 Q 82.3 45.1, 81.4 44.1 Q 80.6 43.1, 80.6 41.4 M 83.8 44.3 Q 84.9 44.3, 85.4 43.6 Q 86.0 42.8, 86.0 41.4 Q 86.0 40.1, 85.4 39.4 Q 84.9 38.7, 83.8 38.7 Q 82.7 38.7, 82.1 39.4 Q 81.6 40.1, 81.6 41.4 Q 81.6 42.8, 82.1 43.6 Q 82.7 44.3, 83.8 44.3 " fill="#FF0000"/>
<path class="atom-10" d="M 139.5 88.0 L 140.6 86.9 L 139.2 86.6 L 139.4 85.9 L 140.7 86.6 L 140.5 85.2 L 141.2 85.2 L 141.0 86.6 L 142.3 86.0 L 142.5 86.6 L 141.1 86.9 L 142.1 88.0 L 141.5 88.4 L 140.8 87.1 L 140.1 88.4 L 139.5 88.0 " fill="#191919"/>
<path class="atom-11" d="M 40.3 33.4 L 41.3 32.4 L 40.0 32.1 L 40.2 31.4 L 41.4 32.0 L 41.2 30.7 L 42.0 30.7 L 41.8 32.0 L 43.0 31.4 L 43.3 32.1 L 41.9 32.4 L 42.9 33.4 L 42.3 33.9 L 41.6 32.6 L 40.9 33.9 L 40.3 33.4 " fill="#191919"/>
<path class="atom-12" d="M 95.4 81.6 Q 95.4 79.9, 96.3 78.9 Q 97.1 78.0, 98.7 78.0 Q 100.2 78.0, 101.0 78.9 Q 101.9 79.9, 101.9 81.6 Q 101.9 83.3, 101.0 84.2 Q 100.2 85.2, 98.7 85.2 Q 97.1 85.2, 96.3 84.2 Q 95.4 83.3, 95.4 81.6 M 98.7 84.4 Q 99.7 84.4, 100.3 83.7 Q 100.9 83.0, 100.9 81.6 Q 100.9 80.2, 100.3 79.5 Q 99.7 78.8, 98.7 78.8 Q 97.6 78.8, 97.0 79.5 Q 96.4 80.2, 96.4 81.6 Q 96.4 83.0, 97.0 83.7 Q 97.6 84.4, 98.7 84.4 " fill="#FF0000"/>
<path class="legend" d="M 56.7 133.2 Q 57.1 132.1, 58.1 131.5 Q 59.1 130.9, 60.5 130.9 Q 62.2 130.9, 63.2 131.8 Q 64.1 132.8, 64.1 134.4 Q 64.1 136.1, 62.9 137.7 Q 61.6 139.2, 59.1 141.1 L 64.3 141.1 L 64.3 142.4 L 56.7 142.4 L 56.7 141.3 Q 58.8 139.8, 60.0 138.7 Q 61.3 137.6, 61.9 136.5 Q 62.5 135.5, 62.5 134.5 Q 62.5 133.4, 62.0 132.8 Q 61.4 132.2, 60.5 132.2 Q 59.6 132.2, 59.0 132.6 Q 58.4 132.9, 57.9 133.7 L 56.7 133.2 " fill="#000000"/>
<path class="legend" d="M 70.2 142.5 Q 68.1 142.5, 67.1 141.0 Q 66.0 139.4, 66.0 136.7 Q 66.0 134.0, 67.1 132.4 Q 68.1 130.9, 70.2 130.9 Q 72.3 130.9, 73.3 132.4 Q 74.3 134.0, 74.3 136.7 Q 74.3 139.4, 73.3 141.0 Q 72.3 142.5, 70.2 142.5 M 70.2 141.2 Q 71.4 141.2, 72.1 140.1 Q 72.7 138.9, 72.7 136.7 Q 72.7 134.5, 72.1 133.3 Q 71.4 132.2, 70.2 132.2 Q 69.0 132.2, 68.3 133.3 Q 67.6 134.5, 67.6 136.7 Q 67.6 138.9, 68.3 140.1 Q 69.0 141.2, 70.2 141.2 " fill="#000000"/>
<path class="legend" d="M 76.2 133.2 Q 76.6 132.1, 77.6 131.5 Q 78.6 130.9, 79.9 130.9 Q 81.6 130.9, 82.6 131.8 Q 83.6 132.8, 83.6 134.4 Q 83.6 136.1, 82.3 137.7 Q 81.1 139.2, 78.5 141.1 L 83.8 141.1 L 83.8 142.4 L 76.1 142.4 L 76.1 141.3 Q 78.2 139.8, 79.5 138.7 Q 80.8 137.6, 81.4 136.5 Q 82.0 135.5, 82.0 134.5 Q 82.0 133.4, 81.4 132.8 Q 80.9 132.2, 79.9 132.2 Q 79.0 132.2, 78.4 132.6 Q 77.8 132.9, 77.4 133.7 L 76.2 133.2 " fill="#000000"/>
<path class="legend" d="M 86.1 141.1 L 88.6 141.1 L 88.6 132.6 L 85.8 133.5 L 85.5 132.5 L 89.0 131.0 L 90.1 131.2 L 90.1 141.1 L 92.3 141.1 L 92.3 142.4 L 86.1 142.4 L 86.1 141.1 " fill="#000000"/>
</svg>