<svg xmlns="http://www.w3.org/2000/svg" xmlns:rdkit="http://www.rdkit.org/xml" xmlns:xlink="http://www.w3.org/1999/xlink" version="1.1" baseProfile="full" xml:space="preserve" width="150px" height="150px" viewBox="0 0 150 150">
<!-- END OF HEADER -->
<rect style="opacity:1.0;fill:#FFFFFF;stroke:none" width="150.0" height="150.0" x="0.0" y="0.0"> </rect>
<ellipse cx="33.1" cy="117.8" rx="5.4" ry="5.4" class="atom-1" style="fill:#E5E533;fill-rule:evenodd;stroke:#E5E533;stroke-width:1.0px;stroke-linecap:butt;stroke-linejoin:miter;stroke-opacity:1"/>
<ellipse cx="78.7" cy="107.2" rx="5.4" ry="5.4" class="atom-2" style="fill:#E5E533;fill-rule:evenodd;stroke:#E5E533;stroke-width:1.0px;stroke-linecap:butt;stroke-linejoin:miter;stroke-opacity:1"/>
<ellipse cx="27.0" cy="91.5" rx="5.4" ry="5.4" class="atom-3" style="fill:#E5E533;fill-rule:evenodd;stroke:#E5E533;stroke-width:1.0px;stroke-linecap:butt;stroke-linejoin:miter;stroke-opacity:1"/>
<ellipse cx="72.5" cy="80.9" rx="5.4" ry="5.4" class="atom-4" style="fill:#E5E533;fill-rule:evenodd;stroke:#E5E533;stroke-width:1.0px;stroke-linecap:butt;stroke-linejoin:miter;stroke-opacity:1"/>
<ellipse cx="46.7" cy="73.0" rx="5.4" ry="5.4" class="atom-5" style="fill:#9999E5;fill-rule:evenodd;stroke:#9999E5;stroke-width:1.0px;stroke-linecap:butt;stroke-linejoin:miter;stroke-opacity:1"/>
<ellipse cx="88.0" cy="58.7" rx="5.4" ry="5.4" class="atom-7" style="fill:#E5E533;fill-rule:evenodd;stroke:#E5E533;stroke-width:1.0px;stroke-linecap:butt;stroke-linejoin:miter;stroke-opacity:1"/>
<ellipse cx="46.2" cy="46.1" rx="5.4" ry="5.4" class="atom-8" style="fill:#E5E533;fill-rule:evenodd;stroke:#E5E533;stroke-width:1.0px;stroke-linecap:butt;stroke-linejoin:miter;stroke-opacity:1"/>
<ellipse cx="71.7" cy="37.2" rx="5.4" ry="5.4" class="atom-9" style="fill:#E5E533;fill-rule:evenodd;stroke:#E5E533;stroke-width:1.0px;stroke-linecap:butt;stroke-linejoin:miter;stroke-opacity:1"/>
<path class="bond-0 atom-0 atom-1" d="M 52.9,123.8 L 33.1,117.8" style="fill:none;fill-rule:evenodd;stroke:#E5E5E5;stroke-width:1.4px;stroke-linecap:butt;stroke-linejoin:miter;stroke-opacity:1"/>
<path class="bond-1 atom-0 atom-2" d="M 63.9,121.0 L 78.7,107.2" style="fill:none;fill-rule:evenodd;stroke:#E5E5E5;stroke-width:1.4px;stroke-linecap:butt;stroke-linejoin:miter;stroke-opacity:1"/>
<path class="bond-1 atom-0 atom-2" d="M 61.2,118.0 L 74.2,105.8" style="fill:none;fill-rule:evenodd;stroke:#E5E5E5;stroke-width:1.4px;stroke-linecap:butt;stroke-linejoin:miter;stroke-opacity:1"/>
<path class="bond-2 atom-1 atom-3" d="M 33.1,117.8 L 27.0,91.5" style="fill:none;fill-rule:evenodd;stroke:#000000;stroke-width:2.0px;stroke-linecap:butt;stroke-linejoin:miter;stroke-opacity:1"/>
<path class="bond-2 atom-1 atom-3" d="M 36.6,114.6 L 31.5,92.8" style="fill:none;fill-rule:evenodd;stroke:#000000;stroke-width:2.0px;stroke-linecap:butt;stroke-linejoin:miter;stroke-opacity:1"/>
<path class="bond-3 atom-2 atom-4" d="M 78.7,107.2 L 72.5,80.9" style="fill:none;fill-rule:evenodd;stroke:#000000;stroke-width:2.0px;stroke-linecap:butt;stroke-linejoin:miter;stroke-opacity:1"/>
<path class="bond-4 atom-3 atom-5" d="M 27.0,91.5 L 46.7,73.0" style="fill:none;fill-rule:evenodd;stroke:#000000;stroke-width:2.0px;stroke-linecap:butt;stroke-linejoin:miter;stroke-opacity:1"/>
<path class="bond-5 atom-6 atom-7" d="M 112.3,58.3 L 91.8,58.7" style="fill:none;fill-rule:evenodd;stroke:#E5E5E5;stroke-width:1.4px;stroke-linecap:butt;stroke-linejoin:miter;stroke-opacity:1"/>
<path class="bond-6 atom-4 atom-5" d="M 72.5,80.9 L 46.7,73.0" style="fill:none;fill-rule:evenodd;stroke:#000000;stroke-width:2.0px;stroke-linecap:butt;stroke-linejoin:miter;stroke-opacity:1"/>
<path class="bond-6 atom-4 atom-5" d="M 69.1,84.1 L 47.8,77.6" style="fill:none;fill-rule:evenodd;stroke:#000000;stroke-width:2.0px;stroke-linecap:butt;stroke-linejoin:miter;stroke-opacity:1"/>
<path class="bond-7 atom-4 atom-7" d="M 72.5,80.9 L 78.6,72.2" style="fill:none;fill-rule:evenodd;stroke:#000000;stroke-width:2.0px;stroke-linecap:butt;stroke-linejoin:miter;stroke-opacity:1"/>
<path class="bond-7 atom-4 atom-7" d="M 78.6,72.2 L 84.7,63.4" style="fill:none;fill-rule:evenodd;stroke:#0000FF;stroke-width:2.0px;stroke-linecap:butt;stroke-linejoin:miter;stroke-opacity:1"/>
<path class="bond-8 atom-5 atom-8" d="M 46.7,73.0 L 46.5,62.0" style="fill:none;fill-rule:evenodd;stroke:#000000;stroke-width:2.0px;stroke-linecap:butt;stroke-linejoin:miter;stroke-opacity:1"/>
<path class="bond-8 atom-5 atom-8" d="M 46.5,62.0 L 46.3,51.0" style="fill:none;fill-rule:evenodd;stroke:#CCCC00;stroke-width:2.0px;stroke-linecap:butt;stroke-linejoin:miter;stroke-opacity:1"/>
<path class="bond-9 atom-9 atom-7" d="M 71.7,37.2 L 84.4,54.0" style="fill:none;fill-rule:evenodd;stroke:#E5E5E5;stroke-width:1.4px;stroke-linecap:butt;stroke-linejoin:miter;stroke-opacity:1"/>
<path class="bond-10 atom-9 atom-10" d="M 73.2,39.2 L 81.3,12.5" style="fill:none;fill-rule:evenodd;stroke:#E5E5E5;stroke-width:1.4px;stroke-linecap:butt;stroke-linejoin:miter;stroke-opacity:1"/>
<path class="bond-10 atom-9 atom-10" d="M 69.3,38.0 L 77.4,11.3" style="fill:none;fill-rule:evenodd;stroke:#E5E5E5;stroke-width:1.4px;stroke-linecap:butt;stroke-linejoin:miter;stroke-opacity:1"/>
<path class="bond-11 atom-9 atom-8" d="M 71.7,37.2 L 60.6,41.1" style="fill:none;fill-rule:evenodd;stroke:#000000;stroke-width:2.0px;stroke-linecap:butt;stroke-linejoin:miter;stroke-opacity:1"/>
<path class="bond-11 atom-9 atom-8" d="M 60.6,41.1 L 49.5,44.9" style="fill:none;fill-rule:evenodd;stroke:#CCCC00;stroke-width:2.0px;stroke-linecap:butt;stroke-linejoin:miter;stroke-opacity:1"/>
<path d="M 33.6,117.9 L 33.1,117.8 L 33.0,117.1" style="fill:none;stroke:#E5E5E5;stroke-width:1.4px;stroke-linecap:butt;stroke-linejoin:miter;stroke-opacity:1;"/>
<path d="M 78.3,107.5 L 78.7,107.2 L 78.5,106.5" style="fill:none;stroke:#E5E5E5;stroke-width:1.4px;stroke-linecap:butt;stroke-linejoin:miter;stroke-opacity:1;"/>
<path d="M 27.3,92.8 L 27.0,91.5 L 28.0,90.6" style="fill:none;stroke:#000000;stroke-width:2.0px;stroke-linecap:butt;stroke-linejoin:miter;stroke-opacity:1;"/>
<path d="M 72.0,37.6 L 71.7,37.2 L 71.4,37.3" style="fill:none;stroke:#E5E5E5;stroke-width:1.4px;stroke-linecap:butt;stroke-linejoin:miter;stroke-opacity:1;"/>
<path class="atom-0" d="M 54.1 124.8 L 55.3 123.6 L 53.8 123.3 L 54.0 122.5 L 55.4 123.2 L 55.2 121.7 L 56.0 121.7 L 55.8 123.2 L 57.2 122.6 L 57.4 123.3 L 55.9 123.6 L 57.0 124.7 L 56.3 125.2 L 55.6 123.8 L 54.8 125.2 L 54.1 124.8 " fill="#191919"/>
<path class="atom-0" d="M 58.2 121.9 L 59.2 121.9 L 59.2 125.1 L 63.1 125.1 L 63.1 121.9 L 64.2 121.9 L 64.2 129.5 L 63.1 129.5 L 63.1 126.0 L 59.2 126.0 L 59.2 129.5 L 58.2 129.5 L 58.2 121.9 " fill="#191919"/>
<path class="atom-6" d="M 113.5 57.4 L 114.6 56.2 L 113.2 55.9 L 113.4 55.1 L 114.8 55.8 L 114.6 54.3 L 115.4 54.3 L 115.1 55.8 L 116.5 55.2 L 116.8 55.9 L 115.3 56.2 L 116.3 57.3 L 115.7 57.8 L 114.9 56.4 L 114.2 57.8 L 113.5 57.4 " fill="#191919"/>
<path class="atom-6" d="M 117.6 54.5 L 118.6 54.5 L 118.6 57.7 L 122.5 57.7 L 122.5 54.5 L 123.6 54.5 L 123.6 62.1 L 122.5 62.1 L 122.5 58.6 L 118.6 58.6 L 118.6 62.1 L 117.6 62.1 L 117.6 54.5 " fill="#191919"/>
<path class="atom-6" d="M 125.0 61.8 Q 125.2 61.3, 125.6 61.1 Q 126.1 60.8, 126.7 60.8 Q 127.4 60.8, 127.9 61.2 Q 128.3 61.6, 128.3 62.4 Q 128.3 63.1, 127.7 63.8 Q 127.2 64.5, 126.1 65.3 L 128.4 65.3 L 128.4 65.9 L 125.0 65.9 L 125.0 65.4 Q 125.9 64.8, 126.5 64.3 Q 127.0 63.8, 127.3 63.3 Q 127.6 62.9, 127.6 62.4 Q 127.6 61.9, 127.3 61.7 Q 127.1 61.4, 126.7 61.4 Q 126.3 61.4, 126.0 61.5 Q 125.7 61.7, 125.5 62.1 L 125.0 61.8 " fill="#191919"/>
<path class="atom-7" d="M 86.3 54.9 L 88.8 59.0 Q 89.0 59.4, 89.4 60.1 Q 89.8 60.8, 89.9 60.9 L 89.9 54.9 L 90.9 54.9 L 90.9 62.6 L 89.8 62.6 L 87.1 58.1 Q 86.8 57.6, 86.5 57.0 Q 86.2 56.4, 86.1 56.2 L 86.1 62.6 L 85.1 62.6 L 85.1 54.9 L 86.3 54.9 " fill="#0000FF"/>
<path class="atom-8" d="M 44.0 48.7 Q 44.1 48.7, 44.5 48.9 Q 44.8 49.0, 45.2 49.1 Q 45.6 49.2, 46.0 49.2 Q 46.7 49.2, 47.2 48.9 Q 47.6 48.5, 47.6 47.9 Q 47.6 47.5, 47.4 47.2 Q 47.2 46.9, 46.8 46.8 Q 46.5 46.7, 46.0 46.5 Q 45.3 46.3, 44.9 46.1 Q 44.5 45.9, 44.2 45.5 Q 43.9 45.1, 43.9 44.4 Q 43.9 43.4, 44.6 42.8 Q 45.2 42.2, 46.5 42.2 Q 47.4 42.2, 48.4 42.7 L 48.1 43.5 Q 47.2 43.1, 46.5 43.1 Q 45.8 43.1, 45.4 43.4 Q 45.0 43.7, 45.0 44.3 Q 45.0 44.7, 45.2 44.9 Q 45.4 45.2, 45.7 45.3 Q 46.0 45.5, 46.5 45.6 Q 47.2 45.8, 47.6 46.0 Q 48.0 46.3, 48.3 46.7 Q 48.6 47.1, 48.6 47.9 Q 48.6 48.9, 47.9 49.5 Q 47.2 50.1, 46.1 50.1 Q 45.4 50.1, 44.9 49.9 Q 44.3 49.8, 43.7 49.5 L 44.0 48.7 " fill="#CCCC00"/>
<path class="atom-10" d="M 78.1 10.5 L 79.2 9.4 L 77.7 9.1 L 77.9 8.3 L 79.3 9.0 L 79.1 7.5 L 79.9 7.5 L 79.7 9.0 L 81.1 8.4 L 81.3 9.1 L 79.8 9.4 L 80.9 10.5 L 80.2 11.0 L 79.5 9.6 L 78.7 11.0 L 78.1 10.5 " fill="#191919"/>
<path class="legend" d="M 56.3 133.2 Q 56.7 132.1, 57.7 131.5 Q 58.7 130.9, 60.1 130.9 Q 61.8 130.9, 62.8 131.8 Q 63.7 132.7, 63.7 134.4 Q 63.7 136.1, 62.5 137.6 Q 61.2 139.2, 58.7 141.1 L 63.9 141.1 L 63.9 142.3 L 56.3 142.3 L 56.3 141.3 Q 58.4 139.8, 59.6 138.6 Q 60.9 137.5, 61.5 136.5 Q 62.1 135.5, 62.1 134.5 Q 62.1 133.4, 61.6 132.8 Q 61.0 132.2, 60.1 132.2 Q 59.2 132.2, 58.6 132.5 Q 58.0 132.9, 57.5 133.7 L 56.3 133.2 " fill="#000000"/>
<path class="legend" d="M 69.8 142.5 Q 67.7 142.5, 66.7 140.9 Q 65.6 139.4, 65.6 136.7 Q 65.6 133.9, 66.7 132.4 Q 67.7 130.9, 69.8 130.9 Q 71.9 130.9, 72.9 132.4 Q 73.9 133.9, 73.9 136.7 Q 73.9 139.4, 72.9 140.9 Q 71.9 142.5, 69.8 142.5 M 69.8 141.2 Q 71.0 141.2, 71.7 140.1 Q 72.3 138.9, 72.3 136.7 Q 72.3 134.4, 71.7 133.3 Q 71.0 132.2, 69.8 132.2 Q 68.6 132.2, 67.9 133.3 Q 67.2 134.4, 67.2 136.7 Q 67.2 138.9, 67.9 140.1 Q 68.6 141.2, 69.8 141.2 " fill="#000000"/>
<path class="legend" d="M 81.2 136.4 Q 82.3 136.7, 82.8 137.4 Q 83.4 138.1, 83.4 139.2 Q 83.4 140.2, 82.9 140.9 Q 82.4 141.7, 81.5 142.1 Q 80.6 142.5, 79.5 142.5 Q 78.3 142.5, 77.4 142.1 Q 76.5 141.7, 75.8 140.8 L 76.7 139.9 Q 77.4 140.6, 78.0 140.9 Q 78.6 141.2, 79.5 141.2 Q 80.5 141.2, 81.1 140.7 Q 81.8 140.1, 81.8 139.2 Q 81.8 138.1, 81.1 137.6 Q 80.5 137.0, 79.1 137.0 L 78.3 137.0 L 78.3 135.9 L 79.0 135.9 Q 80.2 135.9, 80.9 135.3 Q 81.5 134.8, 81.5 133.8 Q 81.5 133.0, 81.0 132.6 Q 80.4 132.2, 79.5 132.2 Q 78.6 132.2, 78.0 132.5 Q 77.4 132.8, 77.0 133.7 L 75.8 133.1 Q 76.2 132.1, 77.2 131.5 Q 78.2 130.9, 79.5 130.9 Q 81.2 130.9, 82.2 131.7 Q 83.1 132.5, 83.1 133.8 Q 83.1 134.7, 82.6 135.3 Q 82.1 136.0, 81.2 136.4 " fill="#000000"/>
<path class="legend" d="M 85.1 133.2 Q 85.5 132.1, 86.5 131.5 Q 87.5 130.9, 88.9 130.9 Q 90.6 130.9, 91.6 131.8 Q 92.5 132.7, 92.5 134.4 Q 92.5 136.1, 91.3 137.6 Q 90.1 139.2, 87.5 141.1 L 92.7 141.1 L 92.7 142.3 L 85.1 142.3 L 85.1 141.3 Q 87.2 139.8, 88.5 138.6 Q 89.7 137.5, 90.3 136.5 Q 90.9 135.5, 90.9 134.5 Q 90.9 133.4, 90.4 132.8 Q 89.8 132.2, 88.9 132.2 Q 88.0 132.2, 87.4 132.5 Q 86.8 132.9, 86.3 133.7 L 85.1 133.2 " fill="#000000"/>
</svg>