<svg xmlns="http://www.w3.org/2000/svg" xmlns:rdkit="http://www.rdkit.org/xml" xmlns:xlink="http://www.w3.org/1999/xlink" version="1.1" baseProfile="full" xml:space="preserve" width="150px" height="150px" viewBox="0 0 150 150">
<!-- END OF HEADER -->
<rect style="opacity:1.0;fill:#FFFFFF;stroke:none" width="150.0" height="150.0" x="0.0" y="0.0"> </rect>
<ellipse cx="35.1" cy="70.3" rx="5.8" ry="5.8" class="atom-1" style="fill:#E5E533;fill-rule:evenodd;stroke:#E5E533;stroke-width:1.0px;stroke-linecap:butt;stroke-linejoin:miter;stroke-opacity:1"/>
<ellipse cx="83.1" cy="85.4" rx="5.8" ry="5.8" class="atom-3" style="fill:#9999E5;fill-rule:evenodd;stroke:#9999E5;stroke-width:1.0px;stroke-linecap:butt;stroke-linejoin:miter;stroke-opacity:1"/>
<path class="bond-0 atom-0 atom-1" d="M 25.9,92.2 L 33.4,68.5" style="fill:none;fill-rule:evenodd;stroke:#E5E5E5;stroke-width:1.5px;stroke-linecap:butt;stroke-linejoin:miter;stroke-opacity:1"/>
<path class="bond-0 atom-0 atom-1" d="M 30.1,93.5 L 37.5,69.8" style="fill:none;fill-rule:evenodd;stroke:#E5E5E5;stroke-width:1.5px;stroke-linecap:butt;stroke-linejoin:miter;stroke-opacity:1;stroke-dasharray:6,4"/>
<path class="bond-1 atom-2 atom-1" d="M 21.3,52.0 L 37.5,69.8" style="fill:none;fill-rule:evenodd;stroke:#E5E5E5;stroke-width:1.5px;stroke-linecap:butt;stroke-linejoin:miter;stroke-opacity:1"/>
<path class="bond-1 atom-2 atom-1" d="M 18.0,55.0 L 34.3,72.7" style="fill:none;fill-rule:evenodd;stroke:#E5E5E5;stroke-width:1.5px;stroke-linecap:butt;stroke-linejoin:miter;stroke-opacity:1;stroke-dasharray:6,4"/>
<path class="bond-2 atom-3 atom-4" d="M 83.1,85.4 L 111.4,79.1" style="fill:none;fill-rule:evenodd;stroke:#000000;stroke-width:2.0px;stroke-linecap:butt;stroke-linejoin:miter;stroke-opacity:1"/>
<path class="bond-3 atom-3 atom-5" d="M 83.1,85.4 L 63.4,64.0" style="fill:none;fill-rule:evenodd;stroke:#000000;stroke-width:2.0px;stroke-linecap:butt;stroke-linejoin:miter;stroke-opacity:1"/>
<path class="bond-4 atom-4 atom-6" d="M 111.4,79.1 L 118.9,87.3" style="fill:none;fill-rule:evenodd;stroke:#000000;stroke-width:2.0px;stroke-linecap:butt;stroke-linejoin:miter;stroke-opacity:1"/>
<path class="bond-4 atom-4 atom-6" d="M 118.9,87.3 L 126.3,95.4" style="fill:none;fill-rule:evenodd;stroke:#FF0000;stroke-width:2.0px;stroke-linecap:butt;stroke-linejoin:miter;stroke-opacity:1"/>
<path class="bond-5 atom-1 atom-5" d="M 35.1,70.3 L 63.4,64.0" style="fill:none;fill-rule:evenodd;stroke:#000000;stroke-width:2.0px;stroke-linecap:butt;stroke-linejoin:miter;stroke-opacity:1"/>
<path class="bond-6 atom-5 atom-7" d="M 65.1,65.9 L 68.9,54.1" style="fill:none;fill-rule:evenodd;stroke:#000000;stroke-width:2.0px;stroke-linecap:butt;stroke-linejoin:miter;stroke-opacity:1"/>
<path class="bond-6 atom-5 atom-7" d="M 68.9,54.1 L 72.6,42.2" style="fill:none;fill-rule:evenodd;stroke:#FF0000;stroke-width:2.0px;stroke-linecap:butt;stroke-linejoin:miter;stroke-opacity:1"/>
<path class="bond-6 atom-5 atom-7" d="M 61.0,64.6 L 64.7,52.8" style="fill:none;fill-rule:evenodd;stroke:#000000;stroke-width:2.0px;stroke-linecap:butt;stroke-linejoin:miter;stroke-opacity:1"/>
<path class="bond-6 atom-5 atom-7" d="M 64.7,52.8 L 68.4,40.9" style="fill:none;fill-rule:evenodd;stroke:#FF0000;stroke-width:2.0px;stroke-linecap:butt;stroke-linejoin:miter;stroke-opacity:1"/>
<path d="M 84.5,85.1 L 83.1,85.4 L 82.1,84.4" style="fill:none;stroke:#000000;stroke-width:2.0px;stroke-linecap:butt;stroke-linejoin:miter;stroke-opacity:1;"/>
<path d="M 110.0,79.4 L 111.4,79.1 L 111.8,79.5" style="fill:none;stroke:#000000;stroke-width:2.0px;stroke-linecap:butt;stroke-linejoin:miter;stroke-opacity:1;"/>
<path d="M 64.4,65.1 L 63.4,64.0 L 62.0,64.3" style="fill:none;stroke:#000000;stroke-width:2.0px;stroke-linecap:butt;stroke-linejoin:miter;stroke-opacity:1;"/>
<path class="atom-0" d="M 24.8 97.1 L 26.0 95.9 L 24.4 95.5 L 24.7 94.7 L 26.1 95.5 L 25.9 93.8 L 26.8 93.8 L 26.6 95.5 L 28.1 94.8 L 28.3 95.5 L 26.7 95.8 L 27.9 97.1 L 27.1 97.6 L 26.3 96.1 L 25.5 97.6 L 24.8 97.1 " fill="#191919"/>
<path class="atom-0" d="M 29.2 94.0 L 30.3 94.0 L 30.3 97.5 L 34.5 97.5 L 34.5 94.0 L 35.6 94.0 L 35.6 102.2 L 34.5 102.2 L 34.5 98.4 L 30.3 98.4 L 30.3 102.2 L 29.2 102.2 L 29.2 94.0 " fill="#191919"/>
<path class="atom-2" d="M 7.9 48.0 L 9.1 46.8 L 7.5 46.5 L 7.7 45.6 L 9.2 46.4 L 9.0 44.8 L 9.9 44.8 L 9.6 46.4 L 11.1 45.7 L 11.4 46.5 L 9.8 46.8 L 10.9 48.0 L 10.2 48.5 L 9.4 47.0 L 8.6 48.5 L 7.9 48.0 " fill="#191919"/>
<path class="atom-2" d="M 12.3 44.9 L 13.4 44.9 L 13.4 48.4 L 17.6 48.4 L 17.6 44.9 L 18.7 44.9 L 18.7 53.1 L 17.6 53.1 L 17.6 49.3 L 13.4 49.3 L 13.4 53.1 L 12.3 53.1 L 12.3 44.9 " fill="#191919"/>
<path class="atom-6" d="M 127.2 100.6 Q 127.2 98.6, 128.2 97.5 Q 129.2 96.4, 131.0 96.4 Q 132.8 96.4, 133.8 97.5 Q 134.8 98.6, 134.8 100.6 Q 134.8 102.5, 133.8 103.7 Q 132.8 104.8, 131.0 104.8 Q 129.2 104.8, 128.2 103.7 Q 127.2 102.6, 127.2 100.6 M 131.0 103.9 Q 132.3 103.9, 132.9 103.0 Q 133.6 102.2, 133.6 100.6 Q 133.6 98.9, 132.9 98.1 Q 132.3 97.3, 131.0 97.3 Q 129.8 97.3, 129.1 98.1 Q 128.4 98.9, 128.4 100.6 Q 128.4 102.2, 129.1 103.0 Q 129.8 103.9, 131.0 103.9 " fill="#FF0000"/>
<path class="atom-6" d="M 136.1 96.5 L 137.2 96.5 L 137.2 100.0 L 141.4 100.0 L 141.4 96.5 L 142.5 96.5 L 142.5 104.7 L 141.4 104.7 L 141.4 100.9 L 137.2 100.9 L 137.2 104.7 L 136.1 104.7 L 136.1 96.5 " fill="#FF0000"/>
<path class="atom-7" d="M 68.4 36.4 Q 68.4 34.4, 69.4 33.3 Q 70.3 32.2, 72.1 32.2 Q 74.0 32.2, 74.9 33.3 Q 75.9 34.4, 75.9 36.4 Q 75.9 38.4, 74.9 39.5 Q 73.9 40.6, 72.1 40.6 Q 70.3 40.6, 69.4 39.5 Q 68.4 38.4, 68.4 36.4 M 72.1 39.7 Q 73.4 39.7, 74.1 38.9 Q 74.8 38.0, 74.8 36.4 Q 74.8 34.8, 74.1 33.9 Q 73.4 33.1, 72.1 33.1 Q 70.9 33.1, 70.2 33.9 Q 69.5 34.7, 69.5 36.4 Q 69.5 38.0, 70.2 38.9 Q 70.9 39.7, 72.1 39.7 " fill="#FF0000"/>
<path class="legend" d="M 56.4 133.2 Q 56.8 132.1, 57.8 131.5 Q 58.8 130.9, 60.1 130.9 Q 61.9 130.9, 62.8 131.8 Q 63.8 132.7, 63.8 134.4 Q 63.8 136.1, 62.5 137.6 Q 61.3 139.2, 58.7 141.1 L 64.0 141.1 L 64.0 142.3 L 56.3 142.3 L 56.3 141.3 Q 58.4 139.8, 59.7 138.6 Q 61.0 137.5, 61.6 136.5 Q 62.2 135.5, 62.2 134.5 Q 62.2 133.4, 61.6 132.8 Q 61.1 132.2, 60.1 132.2 Q 59.2 132.2, 58.6 132.5 Q 58.0 132.9, 57.6 133.7 L 56.4 133.2 " fill="#000000"/>
<path class="legend" d="M 69.8 142.5 Q 67.8 142.5, 66.7 140.9 Q 65.7 139.4, 65.7 136.7 Q 65.7 133.9, 66.7 132.4 Q 67.8 130.9, 69.8 130.9 Q 71.9 130.9, 73.0 132.4 Q 74.0 133.9, 74.0 136.7 Q 74.0 139.4, 73.0 140.9 Q 71.9 142.5, 69.8 142.5 M 69.8 141.2 Q 71.1 141.2, 71.7 140.1 Q 72.4 138.9, 72.4 136.7 Q 72.4 134.4, 71.7 133.3 Q 71.1 132.2, 69.8 132.2 Q 68.6 132.2, 68.0 133.3 Q 67.3 134.4, 67.3 136.7 Q 67.3 138.9, 68.0 140.1 Q 68.6 141.2, 69.8 141.2 " fill="#000000"/>
<path class="legend" d="M 81.2 136.4 Q 82.4 136.7, 82.9 137.4 Q 83.4 138.1, 83.4 139.2 Q 83.4 140.2, 82.9 140.9 Q 82.5 141.7, 81.6 142.1 Q 80.7 142.5, 79.6 142.5 Q 78.3 142.5, 77.4 142.1 Q 76.5 141.7, 75.8 140.8 L 76.7 139.9 Q 77.4 140.6, 78.0 140.9 Q 78.6 141.2, 79.6 141.2 Q 80.6 141.2, 81.2 140.7 Q 81.8 140.1, 81.8 139.2 Q 81.8 138.1, 81.2 137.6 Q 80.5 137.0, 79.1 137.0 L 78.3 137.0 L 78.3 135.9 L 79.0 135.9 Q 80.3 135.9, 80.9 135.3 Q 81.6 134.8, 81.6 133.8 Q 81.6 133.0, 81.0 132.6 Q 80.5 132.2, 79.6 132.2 Q 78.6 132.2, 78.0 132.5 Q 77.5 132.8, 77.0 133.7 L 75.9 133.1 Q 76.3 132.1, 77.3 131.5 Q 78.2 130.9, 79.6 130.9 Q 81.2 130.9, 82.2 131.7 Q 83.2 132.5, 83.2 133.8 Q 83.2 134.7, 82.7 135.3 Q 82.2 136.0, 81.2 136.4 " fill="#000000"/>
<path class="legend" d="M 91.1 132.3 L 85.1 132.3 L 85.1 131.0 L 92.7 131.0 L 92.7 132.1 L 88.1 142.3 L 86.6 142.3 L 91.1 132.3 " fill="#000000"/>
</svg>