<svg xmlns="http://www.w3.org/2000/svg" xmlns:rdkit="http://www.rdkit.org/xml" xmlns:xlink="http://www.w3.org/1999/xlink" version="1.1" baseProfile="full" xml:space="preserve" width="150px" height="150px" viewBox="0 0 150 150">
<!-- END OF HEADER -->
<rect style="opacity:1.0;fill:#FFFFFF;stroke:none" width="150.0" height="150.0" x="0.0" y="0.0"> </rect>
<ellipse cx="82.1" cy="44.6" rx="5.2" ry="5.2" class="atom-2" style="fill:#9999E5;fill-rule:evenodd;stroke:#9999E5;stroke-width:1.0px;stroke-linecap:butt;stroke-linejoin:miter;stroke-opacity:1"/>
<ellipse cx="123.4" cy="63.6" rx="5.2" ry="5.2" class="atom-6" style="fill:#CCCCCC;fill-rule:evenodd;stroke:#CCCCCC;stroke-width:1.0px;stroke-linecap:butt;stroke-linejoin:miter;stroke-opacity:1"/>
<path class="bond-0 atom-0 atom-1" d="M 18.5,27.7 L 37.6,25.9" style="fill:none;fill-rule:evenodd;stroke:#E5E5E5;stroke-width:1.4px;stroke-linecap:butt;stroke-linejoin:miter;stroke-opacity:1"/>
<path class="bond-1 atom-2 atom-3" d="M 82.1,44.6 L 56.0,47.1" style="fill:none;fill-rule:evenodd;stroke:#000000;stroke-width:2.0px;stroke-linecap:butt;stroke-linejoin:miter;stroke-opacity:1"/>
<path class="bond-2 atom-2 atom-4" d="M 82.1,44.6 L 97.3,66.0" style="fill:none;fill-rule:evenodd;stroke:#000000;stroke-width:2.0px;stroke-linecap:butt;stroke-linejoin:miter;stroke-opacity:1"/>
<path class="bond-3 atom-3 atom-1" d="M 56.0,47.1 L 50.0,38.6" style="fill:none;fill-rule:evenodd;stroke:#000000;stroke-width:2.0px;stroke-linecap:butt;stroke-linejoin:miter;stroke-opacity:1"/>
<path class="bond-3 atom-3 atom-1" d="M 50.0,38.6 L 44.1,30.2" style="fill:none;fill-rule:evenodd;stroke:#CCCC00;stroke-width:2.0px;stroke-linecap:butt;stroke-linejoin:miter;stroke-opacity:1"/>
<path class="bond-4 atom-4 atom-5" d="M 97.3,66.0 L 86.3,89.9" style="fill:none;fill-rule:evenodd;stroke:#000000;stroke-width:2.0px;stroke-linecap:butt;stroke-linejoin:miter;stroke-opacity:1"/>
<path class="bond-5 atom-4 atom-6" d="M 97.3,66.0 L 108.5,65.0" style="fill:none;fill-rule:evenodd;stroke:#000000;stroke-width:2.0px;stroke-linecap:butt;stroke-linejoin:miter;stroke-opacity:1"/>
<path class="bond-5 atom-4 atom-6" d="M 108.5,65.0 L 119.7,63.9" style="fill:none;fill-rule:evenodd;stroke:#0000FF;stroke-width:2.0px;stroke-linecap:butt;stroke-linejoin:miter;stroke-opacity:1"/>
<path class="bond-6 atom-7 atom-6" d="M 138.1,80.3 L 127.1,67.8" style="fill:none;fill-rule:evenodd;stroke:#E5E5E5;stroke-width:1.4px;stroke-linecap:butt;stroke-linejoin:miter;stroke-opacity:1"/>
<path class="bond-7 atom-5 atom-8" d="M 87.3,87.8 L 62.7,90.1" style="fill:none;fill-rule:evenodd;stroke:#E5E5E5;stroke-width:1.4px;stroke-linecap:butt;stroke-linejoin:miter;stroke-opacity:1"/>
<path class="bond-7 atom-5 atom-8" d="M 87.7,91.7 L 63.0,94.0" style="fill:none;fill-rule:evenodd;stroke:#E5E5E5;stroke-width:1.4px;stroke-linecap:butt;stroke-linejoin:miter;stroke-opacity:1"/>
<path class="bond-8 atom-5 atom-9" d="M 86.3,89.9 L 98.9,107.6" style="fill:none;fill-rule:evenodd;stroke:#E5E5E5;stroke-width:1.4px;stroke-linecap:butt;stroke-linejoin:miter;stroke-opacity:1"/>
<path class="bond-9 atom-10 atom-6" d="M 136.5,41.5 L 126.1,59.0" style="fill:none;fill-rule:evenodd;stroke:#E5E5E5;stroke-width:1.4px;stroke-linecap:butt;stroke-linejoin:miter;stroke-opacity:1"/>
<path d="M 80.8,44.7 L 82.1,44.6 L 82.9,45.7" style="fill:none;stroke:#000000;stroke-width:2.0px;stroke-linecap:butt;stroke-linejoin:miter;stroke-opacity:1;"/>
<path d="M 57.3,46.9 L 56.0,47.1 L 55.7,46.6" style="fill:none;stroke:#000000;stroke-width:2.0px;stroke-linecap:butt;stroke-linejoin:miter;stroke-opacity:1;"/>
<path d="M 86.6,89.3 L 86.3,89.9 L 86.7,90.3" style="fill:none;stroke:#000000;stroke-width:2.0px;stroke-linecap:butt;stroke-linejoin:miter;stroke-opacity:1;"/>
<path class="atom-0" d="M 7.9 27.2 L 8.9 26.1 L 7.5 25.8 L 7.7 25.1 L 9.1 25.8 L 8.9 24.3 L 9.7 24.3 L 9.4 25.8 L 10.8 25.1 L 11.0 25.8 L 9.5 26.1 L 10.6 27.2 L 10.0 27.7 L 9.2 26.3 L 8.5 27.7 L 7.9 27.2 " fill="#191919"/>
<path class="atom-0" d="M 11.8 24.4 L 12.8 24.4 L 12.8 27.6 L 16.6 27.6 L 16.6 24.4 L 17.6 24.4 L 17.6 31.8 L 16.6 31.8 L 16.6 28.4 L 12.8 28.4 L 12.8 31.8 L 11.8 31.8 L 11.8 24.4 " fill="#191919"/>
<path class="atom-0" d="M 21.3 33.0 Q 21.8 33.1, 22.1 33.4 Q 22.3 33.7, 22.3 34.2 Q 22.3 34.6, 22.1 35.0 Q 21.9 35.3, 21.5 35.5 Q 21.1 35.6, 20.6 35.6 Q 20.1 35.6, 19.7 35.5 Q 19.3 35.3, 19.0 34.9 L 19.4 34.5 Q 19.7 34.8, 19.9 35.0 Q 20.2 35.1, 20.6 35.1 Q 21.1 35.1, 21.3 34.8 Q 21.6 34.6, 21.6 34.2 Q 21.6 33.7, 21.3 33.5 Q 21.0 33.3, 20.4 33.3 L 20.1 33.3 L 20.1 32.8 L 20.4 32.8 Q 20.9 32.8, 21.2 32.5 Q 21.5 32.3, 21.5 31.9 Q 21.5 31.5, 21.3 31.4 Q 21.0 31.2, 20.6 31.2 Q 20.2 31.2, 20.0 31.3 Q 19.7 31.4, 19.5 31.8 L 19.0 31.6 Q 19.2 31.2, 19.6 30.9 Q 20.0 30.6, 20.6 30.6 Q 21.3 30.6, 21.8 30.9 Q 22.2 31.3, 22.2 31.9 Q 22.2 32.3, 22.0 32.5 Q 21.8 32.8, 21.3 33.0 " fill="#191919"/>
<path class="atom-1" d="M 38.7 28.2 Q 38.8 28.2, 39.2 28.4 Q 39.5 28.5, 39.9 28.6 Q 40.3 28.7, 40.7 28.7 Q 41.4 28.7, 41.8 28.4 Q 42.2 28.0, 42.2 27.4 Q 42.2 27.0, 42.0 26.8 Q 41.8 26.5, 41.5 26.4 Q 41.1 26.2, 40.6 26.1 Q 40.0 25.9, 39.6 25.7 Q 39.2 25.5, 38.9 25.1 Q 38.6 24.7, 38.6 24.0 Q 38.6 23.1, 39.2 22.5 Q 39.9 21.9, 41.1 21.9 Q 42.0 21.9, 43.0 22.3 L 42.7 23.2 Q 41.8 22.8, 41.2 22.8 Q 40.5 22.8, 40.1 23.1 Q 39.7 23.4, 39.7 23.9 Q 39.7 24.3, 39.9 24.5 Q 40.1 24.8, 40.4 24.9 Q 40.7 25.1, 41.2 25.2 Q 41.8 25.4, 42.2 25.6 Q 42.6 25.8, 42.9 26.3 Q 43.2 26.7, 43.2 27.4 Q 43.2 28.4, 42.5 29.0 Q 41.8 29.5, 40.7 29.5 Q 40.0 29.5, 39.5 29.4 Q 39.0 29.3, 38.5 29.0 L 38.7 28.2 " fill="#CCCC00"/>
<path class="atom-6" d="M 121.8 59.9 L 124.2 63.8 Q 124.5 64.2, 124.8 64.9 Q 125.2 65.6, 125.3 65.7 L 125.3 59.9 L 126.2 59.9 L 126.2 67.3 L 125.2 67.3 L 122.6 63.0 Q 122.3 62.5, 122.0 61.9 Q 121.7 61.4, 121.6 61.2 L 121.6 67.3 L 120.6 67.3 L 120.6 59.9 L 121.8 59.9 " fill="#0000FF"/>
<path class="atom-7" d="M 139.3 82.5 L 140.4 81.4 L 139.0 81.1 L 139.2 80.3 L 140.5 81.0 L 140.3 79.5 L 141.1 79.5 L 140.9 81.0 L 142.3 80.4 L 142.5 81.1 L 141.0 81.4 L 142.1 82.5 L 141.4 82.9 L 140.7 81.6 L 140.0 82.9 L 139.3 82.5 " fill="#191919"/>
<path class="atom-8" d="M 58.8 91.5 L 59.9 90.4 L 58.5 90.1 L 58.7 89.3 L 60.0 90.0 L 59.8 88.5 L 60.6 88.5 L 60.4 90.0 L 61.7 89.4 L 62.0 90.1 L 60.5 90.3 L 61.6 91.5 L 60.9 91.9 L 60.2 90.5 L 59.5 91.9 L 58.8 91.5 " fill="#191919"/>
<path class="atom-9" d="M 100.1 110.5 L 101.2 109.3 L 99.7 109.0 L 100.0 108.3 L 101.3 109.0 L 101.1 107.5 L 101.9 107.5 L 101.7 109.0 L 103.0 108.3 L 103.3 109.0 L 101.8 109.3 L 102.8 110.4 L 102.2 110.9 L 101.5 109.5 L 100.7 110.9 L 100.1 110.5 " fill="#191919"/>
<path class="atom-9" d="M 104.0 107.6 L 105.0 107.6 L 105.0 110.8 L 108.8 110.8 L 108.8 107.6 L 109.9 107.6 L 109.9 115.1 L 108.8 115.1 L 108.8 111.6 L 105.0 111.6 L 105.0 115.1 L 104.0 115.1 L 104.0 107.6 " fill="#191919"/>
<path class="atom-10" d="M 135.4 40.2 L 136.5 39.1 L 135.1 38.8 L 135.3 38.1 L 136.6 38.7 L 136.4 37.3 L 137.2 37.3 L 137.0 38.7 L 138.3 38.1 L 138.6 38.8 L 137.1 39.1 L 138.2 40.2 L 137.5 40.7 L 136.8 39.3 L 136.1 40.7 L 135.4 40.2 " fill="#191919"/>
<path class="legend" d="M 62.4 133.3 Q 62.8 132.2, 63.8 131.7 Q 64.8 131.0, 66.1 131.0 Q 67.8 131.0, 68.8 132.0 Q 69.8 132.9, 69.8 134.5 Q 69.8 136.2, 68.5 137.8 Q 67.3 139.4, 64.7 141.2 L 70.0 141.2 L 70.0 142.5 L 62.3 142.5 L 62.3 141.4 Q 64.4 139.9, 65.7 138.8 Q 67.0 137.7, 67.6 136.7 Q 68.2 135.7, 68.2 134.6 Q 68.2 133.5, 67.6 132.9 Q 67.1 132.3, 66.1 132.3 Q 65.2 132.3, 64.6 132.7 Q 64.0 133.1, 63.6 133.9 L 62.4 133.3 " fill="#000000"/>
<path class="legend" d="M 72.3 141.2 L 74.7 141.2 L 74.7 132.8 L 72.0 133.6 L 71.6 132.7 L 75.1 131.1 L 76.2 131.3 L 76.2 141.2 L 78.5 141.2 L 78.5 142.5 L 72.3 142.5 L 72.3 141.2 " fill="#000000"/>
<path class="legend" d="M 80.5 141.2 L 82.9 141.2 L 82.9 132.8 L 80.2 133.6 L 79.8 132.7 L 83.3 131.1 L 84.4 131.3 L 84.4 141.2 L 86.7 141.2 L 86.7 142.5 L 80.5 142.5 L 80.5 141.2 " fill="#000000"/>
</svg>