<svg xmlns="http://www.w3.org/2000/svg" xmlns:rdkit="http://www.rdkit.org/xml" xmlns:xlink="http://www.w3.org/1999/xlink" version="1.1" baseProfile="full" xml:space="preserve" width="150px" height="150px" viewBox="0 0 150 150">
<!-- END OF HEADER -->
<rect style="opacity:1.0;fill:#FFFFFF;stroke:none" width="150.0" height="150.0" x="0.0" y="0.0"> </rect>
<ellipse cx="40.7" cy="79.4" rx="7.2" ry="7.2" class="atom-3" style="fill:#9999E5;fill-rule:evenodd;stroke:#9999E5;stroke-width:1.0px;stroke-linecap:butt;stroke-linejoin:miter;stroke-opacity:1"/>
<ellipse cx="102.4" cy="71.5" rx="7.2" ry="7.2" class="atom-6" style="fill:#E5E533;fill-rule:evenodd;stroke:#E5E533;stroke-width:1.0px;stroke-linecap:butt;stroke-linejoin:miter;stroke-opacity:1"/>
<path class="bond-0 atom-0 atom-1" d="M 64.7,22.0 L 69.3,57.6" style="fill:none;fill-rule:evenodd;stroke:#000000;stroke-width:2.0px;stroke-linecap:butt;stroke-linejoin:miter;stroke-opacity:1"/>
<path class="bond-1 atom-2 atom-3" d="M 7.5,65.5 L 21.6,71.4" style="fill:none;fill-rule:evenodd;stroke:#000000;stroke-width:2.0px;stroke-linecap:butt;stroke-linejoin:miter;stroke-opacity:1"/>
<path class="bond-1 atom-2 atom-3" d="M 21.6,71.4 L 35.6,77.3" style="fill:none;fill-rule:evenodd;stroke:#0000FF;stroke-width:2.0px;stroke-linecap:butt;stroke-linejoin:miter;stroke-opacity:1"/>
<path class="bond-2 atom-4 atom-3" d="M 45.2,115.0 L 43.3,100.4" style="fill:none;fill-rule:evenodd;stroke:#000000;stroke-width:2.0px;stroke-linecap:butt;stroke-linejoin:miter;stroke-opacity:1"/>
<path class="bond-2 atom-4 atom-3" d="M 43.3,100.4 L 41.5,85.7" style="fill:none;fill-rule:evenodd;stroke:#0000FF;stroke-width:2.0px;stroke-linecap:butt;stroke-linejoin:miter;stroke-opacity:1"/>
<path class="bond-3 atom-5 atom-6" d="M 103.5,101.2 L 99.6,70.3" style="fill:none;fill-rule:evenodd;stroke:#E5E5E5;stroke-width:1.9px;stroke-linecap:butt;stroke-linejoin:miter;stroke-opacity:1"/>
<path class="bond-3 atom-5 atom-6" d="M 108.8,100.5 L 104.9,69.6" style="fill:none;fill-rule:evenodd;stroke:#E5E5E5;stroke-width:1.9px;stroke-linecap:butt;stroke-linejoin:miter;stroke-opacity:1;stroke-dasharray:6,4"/>
<path class="bond-4 atom-7 atom-6" d="M 131.8,52.6 L 102.8,74.6" style="fill:none;fill-rule:evenodd;stroke:#E5E5E5;stroke-width:1.9px;stroke-linecap:butt;stroke-linejoin:miter;stroke-opacity:1"/>
<path class="bond-4 atom-7 atom-6" d="M 128.5,48.3 L 99.6,70.3" style="fill:none;fill-rule:evenodd;stroke:#E5E5E5;stroke-width:1.9px;stroke-linecap:butt;stroke-linejoin:miter;stroke-opacity:1;stroke-dasharray:6,4"/>
<path class="bond-5 atom-1 atom-6" d="M 69.3,57.6 L 102.4,71.5" style="fill:none;fill-rule:evenodd;stroke:#000000;stroke-width:2.0px;stroke-linecap:butt;stroke-linejoin:miter;stroke-opacity:1"/>
<path class="bond-6 atom-1 atom-3" d="M 69.3,57.6 L 57.5,66.6" style="fill:none;fill-rule:evenodd;stroke:#000000;stroke-width:2.0px;stroke-linecap:butt;stroke-linejoin:miter;stroke-opacity:1"/>
<path class="bond-6 atom-1 atom-3" d="M 57.5,66.6 L 45.7,75.5" style="fill:none;fill-rule:evenodd;stroke:#0000FF;stroke-width:2.0px;stroke-linecap:butt;stroke-linejoin:miter;stroke-opacity:1"/>
<path class="atom-3" d="M 38.4 74.3 L 41.7 79.7 Q 42.1 80.2, 42.6 81.2 Q 43.1 82.1, 43.2 82.2 L 43.2 74.3 L 44.5 74.3 L 44.5 84.5 L 43.1 84.5 L 39.5 78.6 Q 39.1 77.9, 38.7 77.1 Q 38.2 76.3, 38.1 76.1 L 38.1 84.5 L 36.8 84.5 L 36.8 74.3 L 38.4 74.3 " fill="#0000FF"/>
<path class="atom-5" d="M 105.1 106.1 L 106.5 104.5 L 104.6 104.1 L 104.9 103.1 L 106.7 104.0 L 106.4 102.0 L 107.5 102.0 L 107.2 104.0 L 109.1 103.1 L 109.4 104.1 L 107.4 104.5 L 108.8 106.0 L 107.9 106.7 L 106.9 104.8 L 105.9 106.7 L 105.1 106.1 " fill="#191919"/>
<path class="atom-5" d="M 110.5 102.2 L 111.8 102.2 L 111.8 106.5 L 117.0 106.5 L 117.0 102.2 L 118.4 102.2 L 118.4 112.4 L 117.0 112.4 L 117.0 107.7 L 111.8 107.7 L 111.8 112.4 L 110.5 112.4 L 110.5 102.2 " fill="#191919"/>
<path class="atom-7" d="M 129.1 48.6 L 130.6 47.1 L 128.6 46.7 L 128.9 45.7 L 130.8 46.6 L 130.5 44.6 L 131.6 44.6 L 131.3 46.6 L 133.1 45.7 L 133.5 46.7 L 131.4 47.1 L 132.9 48.6 L 132.0 49.2 L 131.0 47.3 L 130.0 49.2 L 129.1 48.6 " fill="#191919"/>
<path class="atom-7" d="M 134.5 44.8 L 135.9 44.8 L 135.9 49.1 L 141.1 49.1 L 141.1 44.8 L 142.5 44.8 L 142.5 54.9 L 141.1 54.9 L 141.1 50.2 L 135.9 50.2 L 135.9 54.9 L 134.5 54.9 L 134.5 44.8 " fill="#191919"/>
<path class="legend" d="M 60.7 133.2 Q 61.1 132.1, 62.1 131.5 Q 63.1 130.9, 64.5 130.9 Q 66.2 130.9, 67.1 131.8 Q 68.1 132.8, 68.1 134.4 Q 68.1 136.1, 66.9 137.7 Q 65.6 139.2, 63.1 141.1 L 68.3 141.1 L 68.3 142.4 L 60.7 142.4 L 60.7 141.3 Q 62.8 139.8, 64.0 138.7 Q 65.3 137.6, 65.9 136.5 Q 66.5 135.5, 66.5 134.5 Q 66.5 133.4, 66.0 132.8 Q 65.4 132.2, 64.5 132.2 Q 63.6 132.2, 63.0 132.6 Q 62.3 132.9, 61.9 133.7 L 60.7 133.2 " fill="#000000"/>
<path class="legend" d="M 74.5 135.3 Q 75.5 135.3, 76.3 135.7 Q 77.1 136.2, 77.5 136.9 Q 77.9 137.7, 77.9 138.7 Q 77.9 139.8, 77.4 140.7 Q 76.9 141.5, 76.1 142.0 Q 75.2 142.5, 74.1 142.5 Q 72.1 142.5, 71.1 141.1 Q 70.1 139.8, 70.1 137.0 Q 70.1 134.0, 71.3 132.5 Q 72.6 130.9, 75.0 130.9 Q 75.7 130.9, 76.3 131.1 Q 76.9 131.2, 77.5 131.6 L 76.9 132.6 Q 76.0 132.2, 75.0 132.2 Q 73.4 132.2, 72.6 133.2 Q 71.8 134.3, 71.7 136.4 Q 72.3 135.9, 73.0 135.6 Q 73.7 135.3, 74.5 135.3 M 74.1 141.2 Q 74.7 141.2, 75.2 140.9 Q 75.7 140.5, 76.0 140.0 Q 76.3 139.4, 76.3 138.7 Q 76.3 137.7, 75.8 137.2 Q 75.2 136.6, 74.2 136.6 Q 73.5 136.6, 72.8 136.9 Q 72.2 137.1, 71.7 137.6 Q 71.7 139.5, 72.3 140.3 Q 72.9 141.2, 74.1 141.2 " fill="#000000"/>
<path class="legend" d="M 87.0 138.5 L 88.3 138.5 L 88.3 139.8 L 87.0 139.8 L 87.0 142.4 L 85.5 142.4 L 85.5 139.8 L 79.6 139.8 L 79.6 138.8 L 84.6 131.0 L 87.0 131.0 L 87.0 138.5 M 81.5 138.5 L 85.5 138.5 L 85.5 132.1 L 81.5 138.5 " fill="#000000"/>
</svg>