<svg xmlns="http://www.w3.org/2000/svg" xmlns:rdkit="http://www.rdkit.org/xml" xmlns:xlink="http://www.w3.org/1999/xlink" version="1.1" baseProfile="full" xml:space="preserve" width="150px" height="150px" viewBox="0 0 150 150">
<!-- END OF HEADER -->
<rect style="opacity:1.0;fill:#FFFFFF;stroke:none" width="150.0" height="150.0" x="0.0" y="0.0"> </rect>
<ellipse cx="83.9" cy="64.5" rx="5.6" ry="5.6" class="atom-3" style="fill:#9999E5;fill-rule:evenodd;stroke:#9999E5;stroke-width:1.0px;stroke-linecap:butt;stroke-linejoin:miter;stroke-opacity:1"/>
<path class="bond-0 atom-0 atom-1" d="M 36.4,53.2 L 56.9,72.5" style="fill:none;fill-rule:evenodd;stroke:#000000;stroke-width:2.0px;stroke-linecap:butt;stroke-linejoin:miter;stroke-opacity:1"/>
<path class="bond-1 atom-0 atom-2" d="M 36.4,53.2 L 12.2,60.4" style="fill:none;fill-rule:evenodd;stroke:#E5E5E5;stroke-width:1.5px;stroke-linecap:butt;stroke-linejoin:miter;stroke-opacity:1"/>
<path class="bond-2 atom-1 atom-3" d="M 56.9,72.5 L 68.4,69.1" style="fill:none;fill-rule:evenodd;stroke:#000000;stroke-width:2.0px;stroke-linecap:butt;stroke-linejoin:miter;stroke-opacity:1"/>
<path class="bond-2 atom-1 atom-3" d="M 68.4,69.1 L 79.9,65.6" style="fill:none;fill-rule:evenodd;stroke:#0000FF;stroke-width:2.0px;stroke-linecap:butt;stroke-linejoin:miter;stroke-opacity:1"/>
<path class="bond-3 atom-4 atom-3" d="M 104.4,83.8 L 96.1,76.0" style="fill:none;fill-rule:evenodd;stroke:#000000;stroke-width:2.0px;stroke-linecap:butt;stroke-linejoin:miter;stroke-opacity:1"/>
<path class="bond-3 atom-4 atom-3" d="M 96.1,76.0 L 87.8,68.2" style="fill:none;fill-rule:evenodd;stroke:#0000FF;stroke-width:2.0px;stroke-linecap:butt;stroke-linejoin:miter;stroke-opacity:1"/>
<path class="bond-3 atom-4 atom-3" d="M 105.5,79.1 L 98.1,72.1" style="fill:none;fill-rule:evenodd;stroke:#000000;stroke-width:2.0px;stroke-linecap:butt;stroke-linejoin:miter;stroke-opacity:1"/>
<path class="bond-3 atom-4 atom-3" d="M 98.1,72.1 L 90.7,65.1" style="fill:none;fill-rule:evenodd;stroke:#0000FF;stroke-width:2.0px;stroke-linecap:butt;stroke-linejoin:miter;stroke-opacity:1"/>
<path class="bond-4 atom-4 atom-5" d="M 104.4,83.8 L 115.6,80.5" style="fill:none;fill-rule:evenodd;stroke:#000000;stroke-width:2.0px;stroke-linecap:butt;stroke-linejoin:miter;stroke-opacity:1"/>
<path class="bond-4 atom-4 atom-5" d="M 115.6,80.5 L 126.8,77.1" style="fill:none;fill-rule:evenodd;stroke:#FF0000;stroke-width:2.0px;stroke-linecap:butt;stroke-linejoin:miter;stroke-opacity:1"/>
<path d="M 36.9,53.7 L 36.4,53.2 L 35.8,53.4" style="fill:none;stroke:#000000;stroke-width:2.0px;stroke-linecap:butt;stroke-linejoin:miter;stroke-opacity:1;"/>
<path d="M 55.8,71.6 L 56.9,72.5 L 57.4,72.4" style="fill:none;stroke:#000000;stroke-width:2.0px;stroke-linecap:butt;stroke-linejoin:miter;stroke-opacity:1;"/>
<path d="M 103.9,83.4 L 104.4,83.8 L 104.9,83.6" style="fill:none;stroke:#000000;stroke-width:2.0px;stroke-linecap:butt;stroke-linejoin:miter;stroke-opacity:1;"/>
<path class="atom-2" d="M 7.9 60.4 L 9.1 59.2 L 7.5 58.9 L 7.7 58.1 L 9.2 58.8 L 9.0 57.2 L 9.8 57.2 L 9.6 58.8 L 11.0 58.1 L 11.3 58.9 L 9.7 59.2 L 10.8 60.4 L 10.1 60.9 L 9.4 59.4 L 8.6 60.9 L 7.9 60.4 " fill="#191919"/>
<path class="atom-3" d="M 82.1 60.5 L 84.7 64.7 Q 85.0 65.1, 85.4 65.9 Q 85.8 66.6, 85.8 66.7 L 85.8 60.5 L 86.9 60.5 L 86.9 68.5 L 85.8 68.5 L 83.0 63.8 Q 82.7 63.3, 82.3 62.7 Q 82.0 62.1, 81.9 61.9 L 81.9 68.5 L 80.8 68.5 L 80.8 60.5 L 82.1 60.5 " fill="#0000FF"/>
<path class="atom-5" d="M 127.7 75.8 Q 127.7 73.8, 128.6 72.8 Q 129.6 71.7, 131.4 71.7 Q 133.1 71.7, 134.1 72.8 Q 135.0 73.8, 135.0 75.8 Q 135.0 77.7, 134.1 78.8 Q 133.1 79.9, 131.4 79.9 Q 129.6 79.9, 128.6 78.8 Q 127.7 77.7, 127.7 75.8 M 131.4 79.0 Q 132.6 79.0, 133.2 78.2 Q 133.9 77.4, 133.9 75.8 Q 133.9 74.2, 133.2 73.4 Q 132.6 72.6, 131.4 72.6 Q 130.1 72.6, 129.5 73.4 Q 128.8 74.2, 128.8 75.8 Q 128.8 77.4, 129.5 78.2 Q 130.1 79.0, 131.4 79.0 " fill="#FF0000"/>
<path class="atom-5" d="M 136.3 71.8 L 137.3 71.8 L 137.3 75.2 L 141.4 75.2 L 141.4 71.8 L 142.5 71.8 L 142.5 79.8 L 141.4 79.8 L 141.4 76.1 L 137.3 76.1 L 137.3 79.8 L 136.3 79.8 L 136.3 71.8 " fill="#FF0000"/>
<path class="legend" d="M 61.2 133.2 Q 61.6 132.1, 62.6 131.5 Q 63.6 130.9, 64.9 130.9 Q 66.6 130.9, 67.6 131.8 Q 68.6 132.8, 68.6 134.4 Q 68.6 136.1, 67.3 137.7 Q 66.1 139.2, 63.5 141.1 L 68.8 141.1 L 68.8 142.4 L 61.1 142.4 L 61.1 141.3 Q 63.2 139.8, 64.5 138.7 Q 65.8 137.6, 66.4 136.5 Q 67.0 135.5, 67.0 134.5 Q 67.0 133.4, 66.4 132.8 Q 65.9 132.2, 64.9 132.2 Q 64.0 132.2, 63.4 132.6 Q 62.8 132.9, 62.4 133.7 L 61.2 133.2 " fill="#000000"/>
<path class="legend" d="M 74.9 135.3 Q 75.9 135.3, 76.7 135.7 Q 77.5 136.2, 77.9 136.9 Q 78.4 137.7, 78.4 138.7 Q 78.4 139.8, 77.9 140.7 Q 77.4 141.5, 76.5 142.0 Q 75.7 142.5, 74.5 142.5 Q 72.5 142.5, 71.5 141.1 Q 70.5 139.8, 70.5 137.0 Q 70.5 134.0, 71.7 132.5 Q 73.0 130.9, 75.4 130.9 Q 76.1 130.9, 76.7 131.1 Q 77.3 131.2, 77.9 131.6 L 77.3 132.6 Q 76.5 132.2, 75.4 132.2 Q 73.8 132.2, 73.0 133.2 Q 72.2 134.3, 72.1 136.4 Q 72.7 135.9, 73.4 135.6 Q 74.1 135.3, 74.9 135.3 M 74.6 141.2 Q 75.2 141.2, 75.7 140.9 Q 76.2 140.5, 76.5 140.0 Q 76.8 139.4, 76.8 138.7 Q 76.8 137.7, 76.2 137.2 Q 75.6 136.6, 74.6 136.6 Q 74.0 136.6, 73.3 136.9 Q 72.6 137.1, 72.1 137.6 Q 72.2 139.5, 72.8 140.3 Q 73.4 141.2, 74.6 141.2 " fill="#000000"/>
<path class="legend" d="M 84.4 135.3 Q 85.4 135.3, 86.2 135.7 Q 87.0 136.2, 87.4 136.9 Q 87.9 137.7, 87.9 138.7 Q 87.9 139.8, 87.4 140.7 Q 86.9 141.5, 86.0 142.0 Q 85.2 142.5, 84.1 142.5 Q 82.0 142.5, 81.0 141.1 Q 80.0 139.8, 80.0 137.0 Q 80.0 134.0, 81.3 132.5 Q 82.5 130.9, 84.9 130.9 Q 85.6 130.9, 86.2 131.1 Q 86.8 131.2, 87.4 131.6 L 86.8 132.6 Q 86.0 132.2, 85.0 132.2 Q 83.4 132.2, 82.5 133.2 Q 81.7 134.3, 81.6 136.4 Q 82.2 135.9, 82.9 135.6 Q 83.7 135.3, 84.4 135.3 M 84.1 141.2 Q 84.7 141.2, 85.2 140.9 Q 85.7 140.5, 86.0 140.0 Q 86.3 139.4, 86.3 138.7 Q 86.3 137.7, 85.7 137.2 Q 85.2 136.6, 84.2 136.6 Q 83.5 136.6, 82.8 136.9 Q 82.1 137.1, 81.6 137.6 Q 81.7 139.5, 82.3 140.3 Q 82.9 141.2, 84.1 141.2 " fill="#000000"/>
</svg>