<svg xmlns="http://www.w3.org/2000/svg" xmlns:rdkit="http://www.rdkit.org/xml" xmlns:xlink="http://www.w3.org/1999/xlink" version="1.1" baseProfile="full" xml:space="preserve" width="150px" height="150px" viewBox="0 0 150 150">
<!-- END OF HEADER -->
<rect style="opacity:1.0;fill:#FFFFFF;stroke:none" width="150.0" height="150.0" x="0.0" y="0.0"> </rect>
<ellipse cx="119.1" cy="93.3" rx="5.6" ry="5.6" class="atom-0" style="fill:#E5E533;fill-rule:evenodd;stroke:#E5E533;stroke-width:1.0px;stroke-linecap:butt;stroke-linejoin:miter;stroke-opacity:1"/>
<ellipse cx="91.3" cy="92.5" rx="5.6" ry="5.6" class="atom-1" style="fill:#E5E533;fill-rule:evenodd;stroke:#E5E533;stroke-width:1.0px;stroke-linecap:butt;stroke-linejoin:miter;stroke-opacity:1"/>
<ellipse cx="78.1" cy="68.1" rx="5.6" ry="5.6" class="atom-3" style="fill:#9999E5;fill-rule:evenodd;stroke:#9999E5;stroke-width:1.0px;stroke-linecap:butt;stroke-linejoin:miter;stroke-opacity:1"/>
<ellipse cx="120.4" cy="45.2" rx="5.6" ry="5.6" class="atom-4" style="fill:#E5E533;fill-rule:evenodd;stroke:#E5E533;stroke-width:1.0px;stroke-linecap:butt;stroke-linejoin:miter;stroke-opacity:1"/>
<ellipse cx="92.7" cy="44.4" rx="5.6" ry="5.6" class="atom-5" style="fill:#E5E533;fill-rule:evenodd;stroke:#E5E533;stroke-width:1.0px;stroke-linecap:butt;stroke-linejoin:miter;stroke-opacity:1"/>
<path class="bond-0 atom-0 atom-1" d="M 119.1,93.3 L 91.3,92.5" style="fill:none;fill-rule:evenodd;stroke:#000000;stroke-width:2.0px;stroke-linecap:butt;stroke-linejoin:miter;stroke-opacity:1"/>
<path class="bond-1 atom-0 atom-2" d="M 119.1,93.3 L 133.3,70.2" style="fill:none;fill-rule:evenodd;stroke:#E5E5E5;stroke-width:1.5px;stroke-linecap:butt;stroke-linejoin:miter;stroke-opacity:1"/>
<path class="bond-1 atom-0 atom-2" d="M 116.8,89.1 L 129.8,68.0" style="fill:none;fill-rule:evenodd;stroke:#E5E5E5;stroke-width:1.5px;stroke-linecap:butt;stroke-linejoin:miter;stroke-opacity:1"/>
<path class="bond-2 atom-1 atom-3" d="M 91.3,92.5 L 78.1,68.1" style="fill:none;fill-rule:evenodd;stroke:#000000;stroke-width:2.0px;stroke-linecap:butt;stroke-linejoin:miter;stroke-opacity:1"/>
<path class="bond-2 atom-1 atom-3" d="M 93.8,88.4 L 82.9,68.2" style="fill:none;fill-rule:evenodd;stroke:#000000;stroke-width:2.0px;stroke-linecap:butt;stroke-linejoin:miter;stroke-opacity:1"/>
<path class="bond-3 atom-2 atom-4" d="M 131.0,64.7 L 123.1,50.1" style="fill:none;fill-rule:evenodd;stroke:#E5E5E5;stroke-width:1.5px;stroke-linecap:butt;stroke-linejoin:miter;stroke-opacity:1"/>
<path class="bond-4 atom-5 atom-3" d="M 92.7,44.4 L 78.1,68.1" style="fill:none;fill-rule:evenodd;stroke:#000000;stroke-width:2.0px;stroke-linecap:butt;stroke-linejoin:miter;stroke-opacity:1"/>
<path class="bond-5 atom-5 atom-4" d="M 92.7,44.4 L 104.6,44.8" style="fill:none;fill-rule:evenodd;stroke:#000000;stroke-width:2.0px;stroke-linecap:butt;stroke-linejoin:miter;stroke-opacity:1"/>
<path class="bond-5 atom-5 atom-4" d="M 104.6,44.8 L 116.5,45.1" style="fill:none;fill-rule:evenodd;stroke:#0000FF;stroke-width:2.0px;stroke-linecap:butt;stroke-linejoin:miter;stroke-opacity:1"/>
<path class="bond-5 atom-5 atom-4" d="M 95.0,48.7 L 105.7,49.0" style="fill:none;fill-rule:evenodd;stroke:#000000;stroke-width:2.0px;stroke-linecap:butt;stroke-linejoin:miter;stroke-opacity:1"/>
<path class="bond-5 atom-5 atom-4" d="M 105.7,49.0 L 116.4,49.3" style="fill:none;fill-rule:evenodd;stroke:#0000FF;stroke-width:2.0px;stroke-linecap:butt;stroke-linejoin:miter;stroke-opacity:1"/>
<path class="bond-6 atom-3 atom-6" d="M 78.1,68.1 L 66.2,67.8" style="fill:none;fill-rule:evenodd;stroke:#000000;stroke-width:2.0px;stroke-linecap:butt;stroke-linejoin:miter;stroke-opacity:1"/>
<path class="bond-6 atom-3 atom-6" d="M 66.2,67.8 L 54.2,67.4" style="fill:none;fill-rule:evenodd;stroke:#0000FF;stroke-width:2.0px;stroke-linecap:butt;stroke-linejoin:miter;stroke-opacity:1"/>
<path class="bond-7 atom-7 atom-8" d="M 12.1,42.2 L 33.2,42.8" style="fill:none;fill-rule:evenodd;stroke:#E5E5E5;stroke-width:1.5px;stroke-linecap:butt;stroke-linejoin:miter;stroke-opacity:1"/>
<path class="bond-8 atom-6 atom-8" d="M 45.9,63.5 L 37.9,48.7" style="fill:none;fill-rule:evenodd;stroke:#0000FF;stroke-width:2.0px;stroke-linecap:butt;stroke-linejoin:miter;stroke-opacity:1"/>
<path class="bond-8 atom-6 atom-8" d="M 49.6,61.5 L 41.6,46.8" style="fill:none;fill-rule:evenodd;stroke:#0000FF;stroke-width:2.0px;stroke-linecap:butt;stroke-linejoin:miter;stroke-opacity:1"/>
<path d="M 118.4,93.3 L 119.1,93.3 L 119.5,92.7" style="fill:none;stroke:#000000;stroke-width:2.0px;stroke-linecap:butt;stroke-linejoin:miter;stroke-opacity:1;"/>
<path d="M 92.7,92.6 L 91.3,92.5 L 90.7,91.3" style="fill:none;stroke:#000000;stroke-width:2.0px;stroke-linecap:butt;stroke-linejoin:miter;stroke-opacity:1;"/>
<path d="M 91.9,45.6 L 92.7,44.4 L 93.3,44.5" style="fill:none;stroke:#000000;stroke-width:2.0px;stroke-linecap:butt;stroke-linejoin:miter;stroke-opacity:1;"/>
<path class="atom-2" d="M 132.2 68.8 L 133.3 67.6 L 131.8 67.3 L 132.0 66.5 L 133.4 67.2 L 133.2 65.7 L 134.1 65.7 L 133.8 67.2 L 135.3 66.5 L 135.5 67.3 L 134.0 67.6 L 135.1 68.8 L 134.4 69.3 L 133.6 67.8 L 132.8 69.3 L 132.2 68.8 " fill="#191919"/>
<path class="atom-2" d="M 136.3 65.8 L 137.4 65.8 L 137.4 69.1 L 141.4 69.1 L 141.4 65.8 L 142.5 65.8 L 142.5 73.7 L 141.4 73.7 L 141.4 70.0 L 137.4 70.0 L 137.4 73.7 L 136.3 73.7 L 136.3 65.8 " fill="#191919"/>
<path class="atom-4" d="M 118.7 41.3 L 121.3 45.5 Q 121.5 45.9, 121.9 46.6 Q 122.4 47.4, 122.4 47.4 L 122.4 41.3 L 123.4 41.3 L 123.4 49.2 L 122.3 49.2 L 119.6 44.6 Q 119.3 44.1, 118.9 43.5 Q 118.6 42.8, 118.5 42.7 L 118.5 49.2 L 117.5 49.2 L 117.5 41.3 L 118.7 41.3 " fill="#0000FF"/>
<path class="atom-6" d="M 48.6 63.4 L 51.2 67.6 Q 51.4 68.0, 51.9 68.7 Q 52.3 69.5, 52.3 69.5 L 52.3 63.4 L 53.3 63.4 L 53.3 71.3 L 52.3 71.3 L 49.5 66.7 Q 49.2 66.2, 48.8 65.6 Q 48.5 65.0, 48.4 64.8 L 48.4 71.3 L 47.4 71.3 L 47.4 63.4 L 48.6 63.4 " fill="#0000FF"/>
<path class="atom-7" d="M 7.9 41.2 L 9.0 40.1 L 7.5 39.8 L 7.7 39.0 L 9.1 39.7 L 8.9 38.1 L 9.8 38.1 L 9.5 39.7 L 11.0 39.0 L 11.2 39.8 L 9.7 40.0 L 10.8 41.2 L 10.1 41.7 L 9.3 40.3 L 8.6 41.7 L 7.9 41.2 " fill="#191919"/>
<path class="atom-8" d="M 35.4 39.0 L 38.0 43.1 Q 38.2 43.5, 38.6 44.3 Q 39.0 45.0, 39.1 45.1 L 39.1 39.0 L 40.1 39.0 L 40.1 46.8 L 39.0 46.8 L 36.3 42.3 Q 35.9 41.7, 35.6 41.1 Q 35.3 40.5, 35.2 40.3 L 35.2 46.8 L 34.1 46.8 L 34.1 39.0 L 35.4 39.0 " fill="#0000FF"/>
<path class="legend" d="M 66.7 136.4 Q 67.8 136.7, 68.3 137.4 Q 68.8 138.1, 68.8 139.2 Q 68.8 140.2, 68.4 140.9 Q 67.9 141.7, 67.0 142.1 Q 66.1 142.5, 65.0 142.5 Q 63.8 142.5, 62.8 142.1 Q 61.9 141.7, 61.2 140.8 L 62.1 139.9 Q 62.8 140.6, 63.4 140.9 Q 64.0 141.2, 65.0 141.2 Q 66.0 141.2, 66.6 140.7 Q 67.2 140.1, 67.2 139.2 Q 67.2 138.1, 66.6 137.6 Q 65.9 137.0, 64.6 137.0 L 63.7 137.0 L 63.7 135.9 L 64.5 135.9 Q 65.7 135.9, 66.3 135.3 Q 67.0 134.8, 67.0 133.8 Q 67.0 133.0, 66.5 132.6 Q 65.9 132.2, 65.0 132.2 Q 64.0 132.2, 63.4 132.5 Q 62.9 132.8, 62.4 133.7 L 61.3 133.1 Q 61.7 132.1, 62.7 131.5 Q 63.6 130.9, 65.0 130.9 Q 66.6 130.9, 67.6 131.7 Q 68.6 132.5, 68.6 133.8 Q 68.6 134.7, 68.1 135.3 Q 67.6 136.0, 66.7 136.4 " fill="#000000"/>
<path class="legend" d="M 70.6 133.2 Q 71.0 132.1, 72.0 131.5 Q 73.0 130.9, 74.4 130.9 Q 76.1 130.9, 77.0 131.8 Q 78.0 132.7, 78.0 134.4 Q 78.0 136.1, 76.7 137.6 Q 75.5 139.2, 73.0 141.1 L 78.2 141.1 L 78.2 142.3 L 70.6 142.3 L 70.6 141.3 Q 72.7 139.8, 73.9 138.6 Q 75.2 137.5, 75.8 136.5 Q 76.4 135.5, 76.4 134.5 Q 76.4 133.4, 75.9 132.8 Q 75.3 132.2, 74.4 132.2 Q 73.5 132.2, 72.8 132.5 Q 72.2 132.9, 71.8 133.7 L 70.6 133.2 " fill="#000000"/>
<path class="legend" d="M 84.4 135.3 Q 85.3 135.3, 86.1 135.7 Q 86.9 136.1, 87.3 136.9 Q 87.8 137.7, 87.8 138.7 Q 87.8 139.8, 87.3 140.7 Q 86.8 141.5, 85.9 142.0 Q 85.1 142.5, 84.0 142.5 Q 82.0 142.5, 80.9 141.1 Q 79.9 139.7, 79.9 137.0 Q 79.9 134.0, 81.2 132.5 Q 82.4 130.9, 84.8 130.9 Q 85.6 130.9, 86.1 131.0 Q 86.8 131.2, 87.3 131.5 L 86.7 132.6 Q 85.9 132.2, 84.9 132.2 Q 83.3 132.2, 82.4 133.2 Q 81.6 134.2, 81.5 136.4 Q 82.1 135.8, 82.8 135.6 Q 83.6 135.3, 84.4 135.3 M 84.0 141.2 Q 84.6 141.2, 85.1 140.8 Q 85.6 140.5, 85.9 140.0 Q 86.2 139.4, 86.2 138.7 Q 86.2 137.7, 85.6 137.1 Q 85.1 136.5, 84.1 136.5 Q 83.4 136.5, 82.7 136.8 Q 82.0 137.1, 81.5 137.6 Q 81.6 139.5, 82.2 140.3 Q 82.8 141.2, 84.0 141.2 " fill="#000000"/>
</svg>