<svg xmlns="http://www.w3.org/2000/svg" xmlns:rdkit="http://www.rdkit.org/xml" xmlns:xlink="http://www.w3.org/1999/xlink" version="1.1" baseProfile="full" xml:space="preserve" width="150px" height="150px" viewBox="0 0 150 150">
<!-- END OF HEADER -->
<rect style="opacity:1.0;fill:#FFFFFF;stroke:none" width="150.0" height="150.0" x="0.0" y="0.0"> </rect>
<ellipse cx="82.6" cy="108.8" rx="6.4" ry="6.4" class="atom-3" style="fill:#9999E5;fill-rule:evenodd;stroke:#9999E5;stroke-width:1.0px;stroke-linecap:butt;stroke-linejoin:miter;stroke-opacity:1"/>
<ellipse cx="113.4" cy="101.0" rx="6.4" ry="6.4" class="atom-4" style="fill:#E5E533;fill-rule:evenodd;stroke:#E5E533;stroke-width:1.0px;stroke-linecap:butt;stroke-linejoin:miter;stroke-opacity:1"/>
<ellipse cx="65.6" cy="82.0" rx="6.4" ry="6.4" class="atom-5" style="fill:#E5E533;fill-rule:evenodd;stroke:#E5E533;stroke-width:1.0px;stroke-linecap:butt;stroke-linejoin:miter;stroke-opacity:1"/>
<ellipse cx="115.4" cy="69.3" rx="6.4" ry="6.4" class="atom-6" style="fill:#E5E533;fill-rule:evenodd;stroke:#E5E533;stroke-width:1.0px;stroke-linecap:butt;stroke-linejoin:miter;stroke-opacity:1"/>
<ellipse cx="85.9" cy="57.5" rx="6.4" ry="6.4" class="atom-8" style="fill:#E5E533;fill-rule:evenodd;stroke:#E5E533;stroke-width:1.0px;stroke-linecap:butt;stroke-linejoin:miter;stroke-opacity:1"/>
<path class="bond-0 atom-0 atom-1" d="M 19.9,100.9 L 33.9,79.9" style="fill:none;fill-rule:evenodd;stroke:#E5E5E5;stroke-width:1.7px;stroke-linecap:butt;stroke-linejoin:miter;stroke-opacity:1"/>
<path class="bond-1 atom-2 atom-1" d="M 24.9,61.6 L 33.9,79.9" style="fill:none;fill-rule:evenodd;stroke:#E5E5E5;stroke-width:1.7px;stroke-linecap:butt;stroke-linejoin:miter;stroke-opacity:1"/>
<path class="bond-2 atom-3 atom-4" d="M 82.6,108.8 L 95.7,105.5" style="fill:none;fill-rule:evenodd;stroke:#000000;stroke-width:2.0px;stroke-linecap:butt;stroke-linejoin:miter;stroke-opacity:1"/>
<path class="bond-2 atom-3 atom-4" d="M 95.7,105.5 L 108.9,102.1" style="fill:none;fill-rule:evenodd;stroke:#0000FF;stroke-width:2.0px;stroke-linecap:butt;stroke-linejoin:miter;stroke-opacity:1"/>
<path class="bond-2 atom-3 atom-4" d="M 84.7,103.4 L 96.2,100.4" style="fill:none;fill-rule:evenodd;stroke:#000000;stroke-width:2.0px;stroke-linecap:butt;stroke-linejoin:miter;stroke-opacity:1"/>
<path class="bond-2 atom-3 atom-4" d="M 96.2,100.4 L 107.7,97.5" style="fill:none;fill-rule:evenodd;stroke:#0000FF;stroke-width:2.0px;stroke-linecap:butt;stroke-linejoin:miter;stroke-opacity:1"/>
<path class="bond-3 atom-3 atom-5" d="M 82.6,108.8 L 75.8,98.2" style="fill:none;fill-rule:evenodd;stroke:#000000;stroke-width:2.0px;stroke-linecap:butt;stroke-linejoin:miter;stroke-opacity:1"/>
<path class="bond-3 atom-3 atom-5" d="M 75.8,98.2 L 69.1,87.5" style="fill:none;fill-rule:evenodd;stroke:#0000FF;stroke-width:2.0px;stroke-linecap:butt;stroke-linejoin:miter;stroke-opacity:1"/>
<path class="bond-4 atom-1 atom-5" d="M 33.9,79.9 L 47.5,80.8" style="fill:none;fill-rule:evenodd;stroke:#000000;stroke-width:2.0px;stroke-linecap:butt;stroke-linejoin:miter;stroke-opacity:1"/>
<path class="bond-4 atom-1 atom-5" d="M 47.5,80.8 L 61.1,81.7" style="fill:none;fill-rule:evenodd;stroke:#0000FF;stroke-width:2.0px;stroke-linecap:butt;stroke-linejoin:miter;stroke-opacity:1"/>
<path class="bond-5 atom-6 atom-7" d="M 115.4,69.3 L 139.6,50.2" style="fill:none;fill-rule:evenodd;stroke:#E5E5E5;stroke-width:1.7px;stroke-linecap:butt;stroke-linejoin:miter;stroke-opacity:1"/>
<path class="bond-6 atom-6 atom-8" d="M 115.4,69.3 L 85.9,57.5" style="fill:none;fill-rule:evenodd;stroke:#E5E5E5;stroke-width:1.7px;stroke-linecap:butt;stroke-linejoin:miter;stroke-opacity:1"/>
<path class="bond-6 atom-6 atom-8" d="M 110.4,72.5 L 87.4,63.2" style="fill:none;fill-rule:evenodd;stroke:#E5E5E5;stroke-width:1.7px;stroke-linecap:butt;stroke-linejoin:miter;stroke-opacity:1"/>
<path class="bond-7 atom-6 atom-4" d="M 115.4,69.3 L 114.6,82.4" style="fill:none;fill-rule:evenodd;stroke:#000000;stroke-width:2.0px;stroke-linecap:butt;stroke-linejoin:miter;stroke-opacity:1"/>
<path class="bond-7 atom-6 atom-4" d="M 114.6,82.4 L 113.7,95.5" style="fill:none;fill-rule:evenodd;stroke:#0000FF;stroke-width:2.0px;stroke-linecap:butt;stroke-linejoin:miter;stroke-opacity:1"/>
<path class="bond-8 atom-8 atom-9" d="M 85.9,57.5 L 81.4,26.7" style="fill:none;fill-rule:evenodd;stroke:#E5E5E5;stroke-width:1.7px;stroke-linecap:butt;stroke-linejoin:miter;stroke-opacity:1"/>
<path class="bond-9 atom-8 atom-5" d="M 85.9,57.5 L 78.0,67.1" style="fill:none;fill-rule:evenodd;stroke:#000000;stroke-width:2.0px;stroke-linecap:butt;stroke-linejoin:miter;stroke-opacity:1"/>
<path class="bond-9 atom-8 atom-5" d="M 78.0,67.1 L 70.1,76.6" style="fill:none;fill-rule:evenodd;stroke:#0000FF;stroke-width:2.0px;stroke-linecap:butt;stroke-linejoin:miter;stroke-opacity:1"/>
<path d="M 83.2,108.7 L 82.6,108.8 L 82.2,108.3" style="fill:none;stroke:#000000;stroke-width:2.0px;stroke-linecap:butt;stroke-linejoin:miter;stroke-opacity:1;"/>
<path class="atom-0" d="M 7.9 105.3 L 9.3 104.0 L 7.5 103.6 L 7.8 102.7 L 9.4 103.5 L 9.2 101.8 L 10.1 101.7 L 9.8 103.5 L 11.5 102.8 L 11.8 103.6 L 10.0 103.9 L 11.2 105.3 L 10.5 105.9 L 9.6 104.2 L 8.7 105.9 L 7.9 105.3 " fill="#191919"/>
<path class="atom-0" d="M 12.7 101.9 L 13.9 101.9 L 13.9 105.7 L 18.5 105.7 L 18.5 101.9 L 19.8 101.9 L 19.8 110.9 L 18.5 110.9 L 18.5 106.7 L 13.9 106.7 L 13.9 110.9 L 12.7 110.9 L 12.7 101.9 " fill="#191919"/>
<path class="atom-0" d="M 24.3 112.3 Q 24.8 112.4, 25.1 112.8 Q 25.4 113.2, 25.4 113.8 Q 25.4 114.3, 25.2 114.7 Q 24.9 115.1, 24.4 115.3 Q 24.0 115.5, 23.4 115.5 Q 22.7 115.5, 22.3 115.3 Q 21.8 115.0, 21.4 114.6 L 21.9 114.1 Q 22.3 114.5, 22.6 114.7 Q 22.9 114.8, 23.4 114.8 Q 23.9 114.8, 24.2 114.5 Q 24.6 114.2, 24.6 113.8 Q 24.6 113.2, 24.2 112.9 Q 23.9 112.6, 23.2 112.6 L 22.7 112.6 L 22.7 112.0 L 23.1 112.0 Q 23.8 112.0, 24.1 111.7 Q 24.4 111.4, 24.4 110.9 Q 24.4 110.5, 24.2 110.3 Q 23.9 110.1, 23.4 110.1 Q 22.9 110.1, 22.6 110.2 Q 22.3 110.4, 22.0 110.9 L 21.5 110.6 Q 21.7 110.1, 22.2 109.7 Q 22.7 109.4, 23.4 109.4 Q 24.3 109.4, 24.8 109.8 Q 25.3 110.2, 25.3 110.9 Q 25.3 111.4, 25.0 111.7 Q 24.8 112.1, 24.3 112.3 " fill="#191919"/>
<path class="atom-2" d="M 11.5 50.4 L 12.8 49.1 L 11.1 48.7 L 11.4 47.8 L 13.0 48.6 L 12.7 46.8 L 13.7 46.8 L 13.4 48.6 L 15.1 47.8 L 15.3 48.7 L 13.6 49.0 L 14.8 50.4 L 14.1 50.9 L 13.2 49.3 L 12.3 50.9 L 11.5 50.4 " fill="#191919"/>
<path class="atom-2" d="M 16.3 47.0 L 17.5 47.0 L 17.5 50.8 L 22.1 50.8 L 22.1 47.0 L 23.3 47.0 L 23.3 56.0 L 22.1 56.0 L 22.1 51.8 L 17.5 51.8 L 17.5 56.0 L 16.3 56.0 L 16.3 47.0 " fill="#191919"/>
<path class="atom-2" d="M 27.9 57.4 Q 28.4 57.5, 28.7 57.9 Q 29.0 58.3, 29.0 58.9 Q 29.0 59.4, 28.7 59.8 Q 28.5 60.1, 28.0 60.4 Q 27.6 60.6, 27.0 60.6 Q 26.3 60.6, 25.9 60.3 Q 25.4 60.1, 25.0 59.7 L 25.5 59.2 Q 25.9 59.6, 26.2 59.7 Q 26.5 59.9, 27.0 59.9 Q 27.5 59.9, 27.8 59.6 Q 28.2 59.3, 28.2 58.8 Q 28.2 58.2, 27.8 58.0 Q 27.5 57.7, 26.8 57.7 L 26.3 57.7 L 26.3 57.1 L 26.7 57.1 Q 27.3 57.1, 27.7 56.8 Q 28.0 56.5, 28.0 56.0 Q 28.0 55.6, 27.7 55.4 Q 27.5 55.1, 27.0 55.1 Q 26.5 55.1, 26.2 55.3 Q 25.9 55.5, 25.6 55.9 L 25.1 55.6 Q 25.3 55.1, 25.8 54.8 Q 26.3 54.5, 27.0 54.5 Q 27.8 54.5, 28.4 54.9 Q 28.9 55.3, 28.9 56.0 Q 28.9 56.5, 28.6 56.8 Q 28.4 57.2, 27.9 57.4 " fill="#191919"/>
<path class="atom-4" d="M 111.4 96.5 L 114.3 101.3 Q 114.6 101.8, 115.1 102.6 Q 115.5 103.5, 115.6 103.5 L 115.6 96.5 L 116.8 96.5 L 116.8 105.5 L 115.5 105.5 L 112.4 100.3 Q 112.0 99.7, 111.6 99.0 Q 111.2 98.3, 111.1 98.1 L 111.1 105.5 L 109.9 105.5 L 109.9 96.5 L 111.4 96.5 " fill="#0000FF"/>
<path class="atom-5" d="M 63.6 77.5 L 66.6 82.2 Q 66.8 82.7, 67.3 83.6 Q 67.8 84.4, 67.8 84.5 L 67.8 77.5 L 69.0 77.5 L 69.0 86.5 L 67.8 86.5 L 64.6 81.3 Q 64.2 80.7, 63.8 80.0 Q 63.5 79.3, 63.3 79.0 L 63.3 86.5 L 62.2 86.5 L 62.2 77.5 L 63.6 77.5 " fill="#0000FF"/>
<path class="atom-7" d="M 138.7 48.6 L 140.0 47.3 L 138.2 46.9 L 138.5 46.0 L 140.1 46.8 L 139.9 45.1 L 140.8 45.1 L 140.6 46.8 L 142.2 46.1 L 142.5 46.9 L 140.7 47.3 L 142.0 48.6 L 141.2 49.2 L 140.3 47.5 L 139.4 49.2 L 138.7 48.6 " fill="#191919"/>
<path class="atom-9" d="M 79.6 25.1 L 81.0 23.7 L 79.2 23.4 L 79.5 22.5 L 81.1 23.3 L 80.9 21.5 L 81.8 21.5 L 81.6 23.3 L 83.2 22.5 L 83.5 23.4 L 81.7 23.7 L 83.0 25.1 L 82.2 25.6 L 81.3 24.0 L 80.4 25.6 L 79.6 25.1 " fill="#191919"/>
<path class="legend" d="M 67.2 136.4 Q 68.3 136.7, 68.9 137.4 Q 69.4 138.1, 69.4 139.2 Q 69.4 140.2, 68.9 140.9 Q 68.4 141.7, 67.6 142.1 Q 66.7 142.5, 65.5 142.5 Q 64.3 142.5, 63.4 142.1 Q 62.5 141.7, 61.8 140.8 L 62.7 139.9 Q 63.4 140.6, 64.0 140.9 Q 64.6 141.2, 65.5 141.2 Q 66.6 141.2, 67.2 140.7 Q 67.8 140.1, 67.8 139.2 Q 67.8 138.1, 67.1 137.6 Q 66.5 137.0, 65.1 137.0 L 64.3 137.0 L 64.3 135.9 L 65.0 135.9 Q 66.3 135.9, 66.9 135.3 Q 67.6 134.8, 67.6 133.8 Q 67.6 133.0, 67.0 132.6 Q 66.5 132.2, 65.5 132.2 Q 64.6 132.2, 64.0 132.5 Q 63.4 132.8, 63.0 133.7 L 61.9 133.1 Q 62.3 132.1, 63.2 131.5 Q 64.2 130.9, 65.5 130.9 Q 67.2 130.9, 68.2 131.7 Q 69.2 132.5, 69.2 133.8 Q 69.2 134.7, 68.7 135.3 Q 68.2 136.0, 67.2 136.4 " fill="#000000"/>
<path class="legend" d="M 76.5 136.4 Q 77.6 136.7, 78.2 137.4 Q 78.7 138.1, 78.7 139.2 Q 78.7 140.2, 78.2 140.9 Q 77.7 141.7, 76.9 142.1 Q 76.0 142.5, 74.8 142.5 Q 73.6 142.5, 72.7 142.1 Q 71.8 141.7, 71.1 140.8 L 72.0 139.9 Q 72.7 140.6, 73.3 140.9 Q 73.9 141.2, 74.8 141.2 Q 75.9 141.2, 76.5 140.7 Q 77.1 140.1, 77.1 139.2 Q 77.1 138.1, 76.4 137.6 Q 75.8 137.0, 74.4 137.0 L 73.6 137.0 L 73.6 135.9 L 74.3 135.9 Q 75.5 135.9, 76.2 135.3 Q 76.9 134.8, 76.9 133.8 Q 76.9 133.0, 76.3 132.6 Q 75.8 132.2, 74.8 132.2 Q 73.9 132.2, 73.3 132.5 Q 72.7 132.8, 72.3 133.7 L 71.2 133.1 Q 71.6 132.1, 72.5 131.5 Q 73.5 130.9, 74.8 130.9 Q 76.5 130.9, 77.5 131.7 Q 78.5 132.5, 78.5 133.8 Q 78.5 134.7, 78.0 135.3 Q 77.5 136.0, 76.5 136.4 " fill="#000000"/>
<path class="legend" d="M 81.0 141.1 L 83.5 141.1 L 83.5 132.6 L 80.7 133.4 L 80.4 132.5 L 83.9 130.9 L 85.0 131.1 L 85.0 141.1 L 87.2 141.1 L 87.2 142.3 L 81.0 142.3 L 81.0 141.1 " fill="#000000"/>
</svg>