<svg xmlns="http://www.w3.org/2000/svg" xmlns:rdkit="http://www.rdkit.org/xml" xmlns:xlink="http://www.w3.org/1999/xlink" version="1.1" baseProfile="full" xml:space="preserve" width="150px" height="150px" viewBox="0 0 150 150">
<!-- END OF HEADER -->
<rect style="opacity:1.0;fill:#FFFFFF;stroke:none" width="150.0" height="150.0" x="0.0" y="0.0"> </rect>
<ellipse cx="41.6" cy="66.9" rx="8.1" ry="8.1" class="atom-0" style="fill:#9999E5;fill-rule:evenodd;stroke:#9999E5;stroke-width:1.0px;stroke-linecap:butt;stroke-linejoin:miter;stroke-opacity:1"/>
<path class="bond-0 atom-0 atom-1" d="M 41.6,66.9 L 81.9,69.9" style="fill:none;fill-rule:evenodd;stroke:#000000;stroke-width:2.0px;stroke-linecap:butt;stroke-linejoin:miter;stroke-opacity:1"/>
<path class="bond-1 atom-0 atom-2" d="M 41.6,66.9 L 34.6,52.3" style="fill:none;fill-rule:evenodd;stroke:#000000;stroke-width:2.0px;stroke-linecap:butt;stroke-linejoin:miter;stroke-opacity:1"/>
<path class="bond-1 atom-0 atom-2" d="M 34.6,52.3 L 27.6,37.8" style="fill:none;fill-rule:evenodd;stroke:#FF0000;stroke-width:2.0px;stroke-linecap:butt;stroke-linejoin:miter;stroke-opacity:1"/>
<path class="bond-2 atom-1 atom-3" d="M 81.9,69.9 L 89.0,84.6" style="fill:none;fill-rule:evenodd;stroke:#000000;stroke-width:2.0px;stroke-linecap:butt;stroke-linejoin:miter;stroke-opacity:1"/>
<path class="bond-2 atom-1 atom-3" d="M 89.0,84.6 L 96.1,99.3" style="fill:none;fill-rule:evenodd;stroke:#CCCC00;stroke-width:2.0px;stroke-linecap:butt;stroke-linejoin:miter;stroke-opacity:1"/>
<path class="bond-3 atom-4 atom-3" d="M 135.7,109.0 L 104.5,106.7" style="fill:none;fill-rule:evenodd;stroke:#E5E5E5;stroke-width:2.2px;stroke-linecap:butt;stroke-linejoin:miter;stroke-opacity:1"/>
<path d="M 43.6,67.0 L 41.6,66.9 L 41.3,66.2" style="fill:none;stroke:#000000;stroke-width:2.0px;stroke-linecap:butt;stroke-linejoin:miter;stroke-opacity:1;"/>
<path d="M 79.9,69.7 L 81.9,69.9 L 82.3,70.6" style="fill:none;stroke:#000000;stroke-width:2.0px;stroke-linecap:butt;stroke-linejoin:miter;stroke-opacity:1;"/>
<path class="atom-2" d="M 7.5 24.8 L 9.1 24.8 L 9.1 29.7 L 14.9 29.7 L 14.9 24.8 L 16.5 24.8 L 16.5 36.3 L 14.9 36.3 L 14.9 31.0 L 9.1 31.0 L 9.1 36.3 L 7.5 36.3 L 7.5 24.8 " fill="#FF0000"/>
<path class="atom-2" d="M 18.8 30.5 Q 18.8 27.8, 20.2 26.2 Q 21.5 24.7, 24.1 24.7 Q 26.6 24.7, 28.0 26.2 Q 29.3 27.8, 29.3 30.5 Q 29.3 33.3, 27.9 34.9 Q 26.6 36.4, 24.1 36.4 Q 21.5 36.4, 20.2 34.9 Q 18.8 33.3, 18.8 30.5 M 24.1 35.2 Q 25.8 35.2, 26.7 34.0 Q 27.7 32.8, 27.7 30.5 Q 27.7 28.3, 26.7 27.1 Q 25.8 26.0, 24.1 26.0 Q 22.3 26.0, 21.4 27.1 Q 20.4 28.2, 20.4 30.5 Q 20.4 32.8, 21.4 34.0 Q 22.3 35.2, 24.1 35.2 " fill="#FF0000"/>
<path class="atom-3" d="M 96.2 110.2 Q 96.4 110.3, 96.9 110.5 Q 97.4 110.7, 98.0 110.9 Q 98.6 111.0, 99.2 111.0 Q 100.3 111.0, 100.9 110.5 Q 101.6 110.0, 101.6 109.0 Q 101.6 108.4, 101.2 108.0 Q 100.9 107.6, 100.4 107.4 Q 100.0 107.2, 99.1 107.0 Q 98.1 106.7, 97.5 106.4 Q 96.9 106.1, 96.5 105.5 Q 96.1 104.8, 96.1 103.8 Q 96.1 102.4, 97.0 101.5 Q 98.0 100.6, 100.0 100.6 Q 101.3 100.6, 102.8 101.2 L 102.4 102.5 Q 101.0 101.9, 100.0 101.9 Q 98.9 101.9, 98.3 102.4 Q 97.7 102.8, 97.7 103.6 Q 97.7 104.2, 98.0 104.6 Q 98.3 105.0, 98.8 105.2 Q 99.2 105.4, 100.0 105.6 Q 101.0 106.0, 101.6 106.3 Q 102.3 106.6, 102.7 107.3 Q 103.2 107.9, 103.2 109.0 Q 103.2 110.6, 102.1 111.5 Q 101.0 112.3, 99.3 112.3 Q 98.3 112.3, 97.5 112.1 Q 96.7 111.9, 95.8 111.5 L 96.2 110.2 " fill="#CCCC00"/>
<path class="atom-4" d="M 137.6 108.0 L 139.3 106.3 L 137.1 105.9 L 137.4 104.7 L 139.5 105.7 L 139.2 103.5 L 140.4 103.5 L 140.1 105.7 L 142.1 104.8 L 142.5 105.9 L 140.2 106.3 L 141.9 108.0 L 140.9 108.7 L 139.8 106.6 L 138.6 108.7 L 137.6 108.0 " fill="#191919"/>
<path class="legend" d="M 66.4 136.4 Q 67.5 136.7, 68.0 137.4 Q 68.5 138.1, 68.5 139.2 Q 68.5 140.2, 68.1 140.9 Q 67.6 141.7, 66.7 142.1 Q 65.8 142.5, 64.7 142.5 Q 63.4 142.5, 62.5 142.1 Q 61.6 141.7, 60.9 140.8 L 61.8 139.9 Q 62.5 140.6, 63.1 140.9 Q 63.7 141.2, 64.7 141.2 Q 65.7 141.2, 66.3 140.7 Q 66.9 140.1, 66.9 139.2 Q 66.9 138.1, 66.3 137.6 Q 65.6 137.0, 64.2 137.0 L 63.4 137.0 L 63.4 135.9 L 64.1 135.9 Q 65.4 135.9, 66.0 135.3 Q 66.7 134.8, 66.7 133.8 Q 66.7 133.0, 66.1 132.6 Q 65.6 132.2, 64.7 132.2 Q 63.7 132.2, 63.1 132.5 Q 62.6 132.8, 62.1 133.7 L 61.0 133.1 Q 61.4 132.1, 62.4 131.5 Q 63.3 130.9, 64.7 130.9 Q 66.3 130.9, 67.3 131.7 Q 68.3 132.5, 68.3 133.8 Q 68.3 134.7, 67.8 135.3 Q 67.3 136.0, 66.4 136.4 " fill="#000000"/>
<path class="legend" d="M 74.7 135.3 Q 75.7 135.3, 76.5 135.7 Q 77.3 136.1, 77.7 136.9 Q 78.1 137.7, 78.1 138.7 Q 78.1 139.8, 77.6 140.7 Q 77.1 141.5, 76.3 142.0 Q 75.4 142.5, 74.3 142.5 Q 72.3 142.5, 71.3 141.1 Q 70.3 139.7, 70.3 137.0 Q 70.3 134.0, 71.5 132.5 Q 72.8 130.9, 75.2 130.9 Q 75.9 130.9, 76.5 131.0 Q 77.1 131.2, 77.7 131.5 L 77.1 132.6 Q 76.2 132.2, 75.2 132.2 Q 73.6 132.2, 72.8 133.2 Q 72.0 134.2, 71.9 136.4 Q 72.5 135.8, 73.2 135.6 Q 73.9 135.3, 74.7 135.3 M 74.3 141.2 Q 74.9 141.2, 75.4 140.8 Q 75.9 140.5, 76.2 140.0 Q 76.5 139.4, 76.5 138.7 Q 76.5 137.7, 76.0 137.1 Q 75.4 136.5, 74.4 136.5 Q 73.7 136.5, 73.0 136.8 Q 72.4 137.1, 71.9 137.6 Q 71.9 139.5, 72.5 140.3 Q 73.1 141.2, 74.3 141.2 " fill="#000000"/>
<path class="legend" d="M 83.9 142.5 Q 81.9 142.5, 80.8 140.9 Q 79.8 139.4, 79.8 136.7 Q 79.8 133.9, 80.8 132.4 Q 81.8 130.9, 83.9 130.9 Q 86.0 130.9, 87.1 132.4 Q 88.1 133.9, 88.1 136.7 Q 88.1 139.4, 87.0 140.9 Q 86.0 142.5, 83.9 142.5 M 83.9 141.2 Q 85.2 141.2, 85.8 140.1 Q 86.5 138.9, 86.5 136.7 Q 86.5 134.4, 85.8 133.3 Q 85.2 132.2, 83.9 132.2 Q 82.7 132.2, 82.1 133.3 Q 81.4 134.4, 81.4 136.7 Q 81.4 138.9, 82.1 140.1 Q 82.7 141.2, 83.9 141.2 " fill="#000000"/>
</svg>