<svg xmlns="http://www.w3.org/2000/svg" xmlns:rdkit="http://www.rdkit.org/xml" xmlns:xlink="http://www.w3.org/1999/xlink" version="1.1" baseProfile="full" xml:space="preserve" width="150px" height="150px" viewBox="0 0 150 150">
<!-- END OF HEADER -->
<rect style="opacity:1.0;fill:#FFFFFF;stroke:none" width="150.0" height="150.0" x="0.0" y="0.0"> </rect>
<ellipse cx="100.7" cy="109.3" rx="5.7" ry="5.7" class="atom-0" style="fill:#E5E533;fill-rule:evenodd;stroke:#E5E533;stroke-width:1.0px;stroke-linecap:butt;stroke-linejoin:miter;stroke-opacity:1"/>
<ellipse cx="72.9" cy="102.0" rx="5.7" ry="5.7" class="atom-1" style="fill:#E5E533;fill-rule:evenodd;stroke:#E5E533;stroke-width:1.0px;stroke-linecap:butt;stroke-linejoin:miter;stroke-opacity:1"/>
<ellipse cx="65.4" cy="74.4" rx="5.7" ry="5.7" class="atom-3" style="fill:#9999E5;fill-rule:evenodd;stroke:#9999E5;stroke-width:1.0px;stroke-linecap:butt;stroke-linejoin:miter;stroke-opacity:1"/>
<ellipse cx="113.2" cy="61.2" rx="5.7" ry="5.7" class="atom-4" style="fill:#E5E533;fill-rule:evenodd;stroke:#E5E533;stroke-width:1.0px;stroke-linecap:butt;stroke-linejoin:miter;stroke-opacity:1"/>
<ellipse cx="85.5" cy="54.0" rx="5.7" ry="5.7" class="atom-5" style="fill:#E5E533;fill-rule:evenodd;stroke:#E5E533;stroke-width:1.0px;stroke-linecap:butt;stroke-linejoin:miter;stroke-opacity:1"/>
<path class="bond-0 atom-0 atom-1" d="M 100.7,109.3 L 72.9,102.0" style="fill:none;fill-rule:evenodd;stroke:#000000;stroke-width:2.0px;stroke-linecap:butt;stroke-linejoin:miter;stroke-opacity:1"/>
<path class="bond-1 atom-0 atom-2" d="M 100.7,109.3 L 120.3,89.4" style="fill:none;fill-rule:evenodd;stroke:#E5E5E5;stroke-width:1.5px;stroke-linecap:butt;stroke-linejoin:miter;stroke-opacity:1"/>
<path class="bond-1 atom-0 atom-2" d="M 99.4,104.5 L 117.2,86.4" style="fill:none;fill-rule:evenodd;stroke:#E5E5E5;stroke-width:1.5px;stroke-linecap:butt;stroke-linejoin:miter;stroke-opacity:1"/>
<path class="bond-2 atom-1 atom-3" d="M 72.9,102.0 L 65.4,74.4" style="fill:none;fill-rule:evenodd;stroke:#000000;stroke-width:2.0px;stroke-linecap:butt;stroke-linejoin:miter;stroke-opacity:1"/>
<path class="bond-2 atom-1 atom-3" d="M 76.4,98.5 L 70.2,75.6" style="fill:none;fill-rule:evenodd;stroke:#000000;stroke-width:2.0px;stroke-linecap:butt;stroke-linejoin:miter;stroke-opacity:1"/>
<path class="bond-3 atom-2 atom-4" d="M 119.4,83.8 L 113.2,61.2" style="fill:none;fill-rule:evenodd;stroke:#E5E5E5;stroke-width:1.5px;stroke-linecap:butt;stroke-linejoin:miter;stroke-opacity:1"/>
<path class="bond-4 atom-3 atom-5" d="M 65.4,74.4 L 85.5,54.0" style="fill:none;fill-rule:evenodd;stroke:#000000;stroke-width:2.0px;stroke-linecap:butt;stroke-linejoin:miter;stroke-opacity:1"/>
<path class="bond-5 atom-3 atom-6" d="M 65.4,74.4 L 37.6,67.1" style="fill:none;fill-rule:evenodd;stroke:#000000;stroke-width:2.0px;stroke-linecap:butt;stroke-linejoin:miter;stroke-opacity:1"/>
<path class="bond-6 atom-4 atom-5" d="M 113.2,61.2 L 85.5,54.0" style="fill:none;fill-rule:evenodd;stroke:#000000;stroke-width:2.0px;stroke-linecap:butt;stroke-linejoin:miter;stroke-opacity:1"/>
<path class="bond-6 atom-4 atom-5" d="M 109.7,64.8 L 86.8,58.8" style="fill:none;fill-rule:evenodd;stroke:#000000;stroke-width:2.0px;stroke-linecap:butt;stroke-linejoin:miter;stroke-opacity:1"/>
<path class="bond-7 atom-4 atom-7" d="M 113.2,61.2 L 132.8,41.4" style="fill:none;fill-rule:evenodd;stroke:#E5E5E5;stroke-width:1.5px;stroke-linecap:butt;stroke-linejoin:miter;stroke-opacity:1"/>
<path class="bond-8 atom-5 atom-8" d="M 85.5,54.0 L 82.5,42.9" style="fill:none;fill-rule:evenodd;stroke:#000000;stroke-width:2.0px;stroke-linecap:butt;stroke-linejoin:miter;stroke-opacity:1"/>
<path class="bond-8 atom-5 atom-8" d="M 82.5,42.9 L 79.4,31.8" style="fill:none;fill-rule:evenodd;stroke:#00CC00;stroke-width:2.0px;stroke-linecap:butt;stroke-linejoin:miter;stroke-opacity:1"/>
<path class="bond-9 atom-6 atom-9" d="M 37.6,67.1 L 25.5,63.9" style="fill:none;fill-rule:evenodd;stroke:#000000;stroke-width:2.0px;stroke-linecap:butt;stroke-linejoin:miter;stroke-opacity:1"/>
<path class="bond-9 atom-6 atom-9" d="M 25.5,63.9 L 13.3,60.7" style="fill:none;fill-rule:evenodd;stroke:#33CCCC;stroke-width:2.0px;stroke-linecap:butt;stroke-linejoin:miter;stroke-opacity:1"/>
<path class="bond-10 atom-6 atom-10" d="M 37.6,67.1 L 40.6,55.8" style="fill:none;fill-rule:evenodd;stroke:#000000;stroke-width:2.0px;stroke-linecap:butt;stroke-linejoin:miter;stroke-opacity:1"/>
<path class="bond-10 atom-6 atom-10" d="M 40.6,55.8 L 43.6,44.4" style="fill:none;fill-rule:evenodd;stroke:#33CCCC;stroke-width:2.0px;stroke-linecap:butt;stroke-linejoin:miter;stroke-opacity:1"/>
<path class="bond-11 atom-6 atom-11" d="M 37.6,67.1 L 34.7,78.5" style="fill:none;fill-rule:evenodd;stroke:#000000;stroke-width:2.0px;stroke-linecap:butt;stroke-linejoin:miter;stroke-opacity:1"/>
<path class="bond-11 atom-6 atom-11" d="M 34.7,78.5 L 31.7,89.8" style="fill:none;fill-rule:evenodd;stroke:#33CCCC;stroke-width:2.0px;stroke-linecap:butt;stroke-linejoin:miter;stroke-opacity:1"/>
<path d="M 100.0,109.1 L 100.7,109.3 L 101.2,108.8" style="fill:none;stroke:#000000;stroke-width:2.0px;stroke-linecap:butt;stroke-linejoin:miter;stroke-opacity:1;"/>
<path d="M 74.3,102.4 L 72.9,102.0 L 72.6,100.6" style="fill:none;stroke:#000000;stroke-width:2.0px;stroke-linecap:butt;stroke-linejoin:miter;stroke-opacity:1;"/>
<path class="atom-2" d="M 119.3 88.0 L 120.5 86.8 L 118.9 86.4 L 119.1 85.6 L 120.6 86.4 L 120.4 84.8 L 121.2 84.8 L 121.0 86.3 L 122.5 85.7 L 122.7 86.4 L 121.1 86.7 L 122.3 88.0 L 121.6 88.5 L 120.8 87.0 L 120.0 88.5 L 119.3 88.0 " fill="#191919"/>
<path class="atom-2" d="M 123.6 84.9 L 124.7 84.9 L 124.7 88.3 L 128.8 88.3 L 128.8 84.9 L 129.9 84.9 L 129.9 93.0 L 128.8 93.0 L 128.8 89.3 L 124.7 89.3 L 124.7 93.0 L 123.6 93.0 L 123.6 84.9 " fill="#191919"/>
<path class="atom-7" d="M 131.8 40.0 L 133.0 38.7 L 131.5 38.4 L 131.7 37.6 L 133.2 38.3 L 132.9 36.7 L 133.8 36.7 L 133.6 38.3 L 135.0 37.6 L 135.3 38.4 L 133.7 38.7 L 134.8 39.9 L 134.1 40.4 L 133.3 38.9 L 132.5 40.4 L 131.8 40.0 " fill="#191919"/>
<path class="atom-7" d="M 136.1 36.9 L 137.2 36.9 L 137.2 40.3 L 141.4 40.3 L 141.4 36.9 L 142.5 36.9 L 142.5 45.0 L 141.4 45.0 L 141.4 41.2 L 137.2 41.2 L 137.2 45.0 L 136.1 45.0 L 136.1 36.9 " fill="#191919"/>
<path class="atom-8" d="M 74.8 26.6 Q 74.8 24.6, 75.7 23.6 Q 76.7 22.5, 78.5 22.5 Q 80.2 22.5, 81.1 23.7 L 80.3 24.3 Q 79.6 23.4, 78.5 23.4 Q 77.3 23.4, 76.6 24.3 Q 76.0 25.1, 76.0 26.6 Q 76.0 28.2, 76.6 29.1 Q 77.3 29.9, 78.6 29.9 Q 79.5 29.9, 80.6 29.4 L 80.9 30.2 Q 80.4 30.5, 79.8 30.6 Q 79.2 30.8, 78.5 30.8 Q 76.7 30.8, 75.7 29.7 Q 74.8 28.7, 74.8 26.6 " fill="#00CC00"/>
<path class="atom-8" d="M 81.9 22.0 L 82.9 22.0 L 82.9 30.7 L 81.9 30.7 L 81.9 22.0 " fill="#00CC00"/>
<path class="atom-9" d="M 7.5 55.8 L 12.3 55.8 L 12.3 56.7 L 8.6 56.7 L 8.6 59.2 L 11.9 59.2 L 11.9 60.1 L 8.6 60.1 L 8.6 63.9 L 7.5 63.9 L 7.5 55.8 " fill="#33CCCC"/>
<path class="atom-10" d="M 42.5 35.3 L 47.3 35.3 L 47.3 36.3 L 43.6 36.3 L 43.6 38.7 L 46.9 38.7 L 46.9 39.7 L 43.6 39.7 L 43.6 43.5 L 42.5 43.5 L 42.5 35.3 " fill="#33CCCC"/>
<path class="atom-11" d="M 28.0 90.8 L 32.8 90.8 L 32.8 91.7 L 29.1 91.7 L 29.1 94.2 L 32.4 94.2 L 32.4 95.1 L 29.1 95.1 L 29.1 98.9 L 28.0 98.9 L 28.0 90.8 " fill="#33CCCC"/>
<path class="legend" d="M 68.2 138.6 L 69.5 138.6 L 69.5 139.9 L 68.2 139.9 L 68.2 142.5 L 66.7 142.5 L 66.7 139.9 L 60.8 139.9 L 60.8 138.9 L 65.8 131.2 L 68.2 131.2 L 68.2 138.6 M 62.7 138.6 L 66.7 138.6 L 66.7 132.2 L 62.7 138.6 " fill="#000000"/>
<path class="legend" d="M 71.8 141.2 L 74.2 141.2 L 74.2 132.8 L 71.5 133.6 L 71.1 132.7 L 74.6 131.1 L 75.7 131.3 L 75.7 141.2 L 78.0 141.2 L 78.0 142.5 L 71.8 142.5 L 71.8 141.2 " fill="#000000"/>
<path class="legend" d="M 86.8 138.6 L 88.2 138.6 L 88.2 139.9 L 86.8 139.9 L 86.8 142.5 L 85.3 142.5 L 85.3 139.9 L 79.5 139.9 L 79.5 138.9 L 84.4 131.2 L 86.8 131.2 L 86.8 138.6 M 81.3 138.6 L 85.3 138.6 L 85.3 132.2 L 81.3 138.6 " fill="#000000"/>
</svg>