<svg xmlns="http://www.w3.org/2000/svg" xmlns:rdkit="http://www.rdkit.org/xml" xmlns:xlink="http://www.w3.org/1999/xlink" version="1.1" baseProfile="full" xml:space="preserve" width="150px" height="150px" viewBox="0 0 150 150">
<!-- END OF HEADER -->
<rect style="opacity:1.0;fill:#FFFFFF;stroke:none" width="150.0" height="150.0" x="0.0" y="0.0"> </rect>
<ellipse cx="86.1" cy="86.3" rx="5.9" ry="5.9" class="atom-0" style="fill:#9999E5;fill-rule:evenodd;stroke:#9999E5;stroke-width:1.0px;stroke-linecap:butt;stroke-linejoin:miter;stroke-opacity:1"/>
<ellipse cx="60.7" cy="71.2" rx="5.9" ry="5.9" class="atom-1" style="fill:#E5E533;fill-rule:evenodd;stroke:#E5E533;stroke-width:1.0px;stroke-linecap:butt;stroke-linejoin:miter;stroke-opacity:1"/>
<ellipse cx="111.9" cy="71.8" rx="5.9" ry="5.9" class="atom-2" style="fill:#E5E533;fill-rule:evenodd;stroke:#E5E533;stroke-width:1.0px;stroke-linecap:butt;stroke-linejoin:miter;stroke-opacity:1"/>
<ellipse cx="112.3" cy="42.2" rx="5.9" ry="5.9" class="atom-4" style="fill:#E5E533;fill-rule:evenodd;stroke:#E5E533;stroke-width:1.0px;stroke-linecap:butt;stroke-linejoin:miter;stroke-opacity:1"/>
<ellipse cx="61.1" cy="41.6" rx="5.9" ry="5.9" class="atom-5" style="fill:#E5E533;fill-rule:evenodd;stroke:#E5E533;stroke-width:1.0px;stroke-linecap:butt;stroke-linejoin:miter;stroke-opacity:1"/>
<ellipse cx="34.9" cy="85.6" rx="5.9" ry="5.9" class="atom-6" style="fill:#E5E533;fill-rule:evenodd;stroke:#E5E533;stroke-width:1.0px;stroke-linecap:butt;stroke-linejoin:miter;stroke-opacity:1"/>
<path class="bond-0 atom-0 atom-1" d="M 86.1,86.3 L 60.7,71.2" style="fill:none;fill-rule:evenodd;stroke:#000000;stroke-width:2.0px;stroke-linecap:butt;stroke-linejoin:miter;stroke-opacity:1"/>
<path class="bond-1 atom-0 atom-2" d="M 86.1,86.3 L 111.9,71.8" style="fill:none;fill-rule:evenodd;stroke:#000000;stroke-width:2.0px;stroke-linecap:butt;stroke-linejoin:miter;stroke-opacity:1"/>
<path class="bond-1 atom-0 atom-2" d="M 86.2,81.2 L 107.5,69.2" style="fill:none;fill-rule:evenodd;stroke:#000000;stroke-width:2.0px;stroke-linecap:butt;stroke-linejoin:miter;stroke-opacity:1"/>
<path class="bond-2 atom-3 atom-4" d="M 93.5,31.1 L 112.3,42.2" style="fill:none;fill-rule:evenodd;stroke:#E5E5E5;stroke-width:1.6px;stroke-linecap:butt;stroke-linejoin:miter;stroke-opacity:1"/>
<path class="bond-2 atom-3 atom-4" d="M 91.3,34.9 L 107.8,44.8" style="fill:none;fill-rule:evenodd;stroke:#E5E5E5;stroke-width:1.6px;stroke-linecap:butt;stroke-linejoin:miter;stroke-opacity:1"/>
<path class="bond-3 atom-3 atom-5" d="M 85.0,28.2 L 61.1,41.6" style="fill:none;fill-rule:evenodd;stroke:#E5E5E5;stroke-width:1.6px;stroke-linecap:butt;stroke-linejoin:miter;stroke-opacity:1"/>
<path class="bond-4 atom-1 atom-5" d="M 60.7,71.2 L 61.1,41.6" style="fill:none;fill-rule:evenodd;stroke:#000000;stroke-width:2.0px;stroke-linecap:butt;stroke-linejoin:miter;stroke-opacity:1"/>
<path class="bond-4 atom-1 atom-5" d="M 65.2,68.7 L 65.5,44.2" style="fill:none;fill-rule:evenodd;stroke:#000000;stroke-width:2.0px;stroke-linecap:butt;stroke-linejoin:miter;stroke-opacity:1"/>
<path class="bond-5 atom-1 atom-6" d="M 60.7,71.2 L 34.9,85.6" style="fill:none;fill-rule:evenodd;stroke:#000000;stroke-width:2.0px;stroke-linecap:butt;stroke-linejoin:miter;stroke-opacity:1"/>
<path class="bond-6 atom-2 atom-4" d="M 111.9,71.8 L 112.3,42.2" style="fill:none;fill-rule:evenodd;stroke:#000000;stroke-width:2.0px;stroke-linecap:butt;stroke-linejoin:miter;stroke-opacity:1"/>
<path class="bond-7 atom-2 atom-7" d="M 111.9,71.8 L 122.5,78.1" style="fill:none;fill-rule:evenodd;stroke:#000000;stroke-width:2.0px;stroke-linecap:butt;stroke-linejoin:miter;stroke-opacity:1"/>
<path class="bond-7 atom-2 atom-7" d="M 122.5,78.1 L 133.1,84.4" style="fill:none;fill-rule:evenodd;stroke:#00CC00;stroke-width:2.0px;stroke-linecap:butt;stroke-linejoin:miter;stroke-opacity:1"/>
<path class="bond-8 atom-4 atom-8" d="M 112.3,42.2 L 137.1,28.3" style="fill:none;fill-rule:evenodd;stroke:#E5E5E5;stroke-width:1.6px;stroke-linecap:butt;stroke-linejoin:miter;stroke-opacity:1"/>
<path class="bond-9 atom-5 atom-9" d="M 61.1,41.6 L 36.6,27.0" style="fill:none;fill-rule:evenodd;stroke:#E5E5E5;stroke-width:1.6px;stroke-linecap:butt;stroke-linejoin:miter;stroke-opacity:1"/>
<path class="bond-10 atom-6 atom-10" d="M 37.1,84.4 L 11.5,69.2" style="fill:none;fill-rule:evenodd;stroke:#E5E5E5;stroke-width:1.6px;stroke-linecap:butt;stroke-linejoin:miter;stroke-opacity:1"/>
<path class="bond-10 atom-6 atom-10" d="M 34.9,88.2 L 9.3,73.0" style="fill:none;fill-rule:evenodd;stroke:#E5E5E5;stroke-width:1.6px;stroke-linecap:butt;stroke-linejoin:miter;stroke-opacity:1;stroke-dasharray:6,4"/>
<path class="bond-11 atom-6 atom-11" d="M 32.7,84.3 L 32.4,109.9" style="fill:none;fill-rule:evenodd;stroke:#E5E5E5;stroke-width:1.6px;stroke-linecap:butt;stroke-linejoin:miter;stroke-opacity:1"/>
<path class="bond-11 atom-6 atom-11" d="M 37.1,84.4 L 36.8,110.0" style="fill:none;fill-rule:evenodd;stroke:#E5E5E5;stroke-width:1.6px;stroke-linecap:butt;stroke-linejoin:miter;stroke-opacity:1"/>
<path d="M 84.8,85.5 L 86.1,86.3 L 87.4,85.6" style="fill:none;stroke:#000000;stroke-width:2.0px;stroke-linecap:butt;stroke-linejoin:miter;stroke-opacity:1;"/>
<path d="M 35.9,83.6 L 37.1,84.4 L 37.1,85.7" style="fill:none;stroke:#E5E5E5;stroke-width:1.6px;stroke-linecap:butt;stroke-linejoin:miter;stroke-opacity:1;"/>
<path class="atom-3" d="M 81.6 26.2 L 82.8 25.0 L 81.2 24.6 L 81.4 23.8 L 82.9 24.5 L 82.7 22.9 L 83.6 22.9 L 83.3 24.5 L 84.9 23.8 L 85.1 24.6 L 83.5 24.9 L 84.7 26.2 L 83.9 26.7 L 83.1 25.2 L 82.3 26.7 L 81.6 26.2 " fill="#191919"/>
<path class="atom-3" d="M 86.0 23.0 L 87.1 23.0 L 87.1 26.6 L 91.4 26.6 L 91.4 23.0 L 92.6 23.0 L 92.6 31.4 L 91.4 31.4 L 91.4 27.5 L 87.1 27.5 L 87.1 31.4 L 86.0 31.4 L 86.0 23.0 " fill="#191919"/>
<path class="atom-7" d="M 134.1 87.2 Q 134.1 85.1, 135.1 84.0 Q 136.1 82.9, 137.9 82.9 Q 139.6 82.9, 140.6 84.2 L 139.8 84.8 Q 139.1 83.9, 137.9 83.9 Q 136.6 83.9, 136.0 84.8 Q 135.3 85.6, 135.3 87.2 Q 135.3 88.9, 136.0 89.7 Q 136.7 90.6, 138.0 90.6 Q 139.0 90.6, 140.0 90.0 L 140.4 90.9 Q 139.9 91.2, 139.3 91.4 Q 138.6 91.5, 137.9 91.5 Q 136.1 91.5, 135.1 90.4 Q 134.1 89.3, 134.1 87.2 " fill="#00CC00"/>
<path class="atom-7" d="M 141.4 82.4 L 142.5 82.4 L 142.5 91.4 L 141.4 91.4 L 141.4 82.4 " fill="#00CC00"/>
<path class="atom-8" d="M 136.5 26.9 L 137.7 25.6 L 136.1 25.3 L 136.4 24.4 L 137.9 25.2 L 137.6 23.5 L 138.5 23.5 L 138.3 25.2 L 139.8 24.5 L 140.1 25.3 L 138.4 25.6 L 139.6 26.8 L 138.9 27.4 L 138.1 25.8 L 137.2 27.4 L 136.5 26.9 " fill="#191919"/>
<path class="atom-9" d="M 34.1 25.6 L 35.3 24.3 L 33.7 24.0 L 33.9 23.1 L 35.4 23.9 L 35.2 22.2 L 36.1 22.2 L 35.8 23.9 L 37.4 23.2 L 37.6 24.0 L 36.0 24.3 L 37.2 25.5 L 36.4 26.1 L 35.6 24.5 L 34.8 26.1 L 34.1 25.6 " fill="#191919"/>
<path class="atom-10" d="M 7.9 69.6 L 9.1 68.3 L 7.5 68.0 L 7.7 67.2 L 9.3 67.9 L 9.0 66.3 L 9.9 66.3 L 9.7 67.9 L 11.2 67.2 L 11.5 68.0 L 9.8 68.3 L 11.0 69.6 L 10.3 70.1 L 9.5 68.5 L 8.6 70.1 L 7.9 69.6 " fill="#191919"/>
<path class="atom-11" d="M 32.9 114.3 L 34.2 113.0 L 32.5 112.7 L 32.8 111.8 L 34.3 112.6 L 34.1 110.9 L 35.0 110.9 L 34.7 112.6 L 36.2 111.9 L 36.5 112.7 L 34.9 113.0 L 36.0 114.2 L 35.3 114.8 L 34.5 113.2 L 33.7 114.8 L 32.9 114.3 " fill="#191919"/>
<path class="legend" d="M 68.2 138.5 L 69.6 138.5 L 69.6 139.7 L 68.2 139.7 L 68.2 142.3 L 66.7 142.3 L 66.7 139.7 L 60.8 139.7 L 60.8 138.7 L 65.8 131.0 L 68.2 131.0 L 68.2 138.5 M 62.7 138.5 L 66.7 138.5 L 66.7 132.0 L 62.7 138.5 " fill="#000000"/>
<path class="legend" d="M 71.2 133.2 Q 71.6 132.1, 72.6 131.5 Q 73.6 130.9, 75.0 130.9 Q 76.7 130.9, 77.6 131.8 Q 78.6 132.7, 78.6 134.4 Q 78.6 136.1, 77.3 137.6 Q 76.1 139.2, 73.5 141.1 L 78.8 141.1 L 78.8 142.3 L 71.1 142.3 L 71.1 141.3 Q 73.3 139.8, 74.5 138.6 Q 75.8 137.5, 76.4 136.5 Q 77.0 135.5, 77.0 134.5 Q 77.0 133.4, 76.4 132.8 Q 75.9 132.2, 75.0 132.2 Q 74.0 132.2, 73.4 132.5 Q 72.8 132.9, 72.4 133.7 L 71.2 133.2 " fill="#000000"/>
<path class="legend" d="M 86.0 136.4 Q 87.1 136.7, 87.6 137.4 Q 88.2 138.1, 88.2 139.2 Q 88.2 140.2, 87.7 140.9 Q 87.2 141.7, 86.3 142.1 Q 85.4 142.5, 84.3 142.5 Q 83.1 142.5, 82.2 142.1 Q 81.3 141.7, 80.5 140.8 L 81.5 139.9 Q 82.2 140.6, 82.7 140.9 Q 83.3 141.2, 84.3 141.2 Q 85.3 141.2, 85.9 140.7 Q 86.6 140.1, 86.6 139.2 Q 86.6 138.1, 85.9 137.6 Q 85.3 137.0, 83.9 137.0 L 83.1 137.0 L 83.1 135.9 L 83.8 135.9 Q 85.0 135.9, 85.7 135.3 Q 86.3 134.8, 86.3 133.8 Q 86.3 133.0, 85.8 132.6 Q 85.2 132.2, 84.3 132.2 Q 83.4 132.2, 82.8 132.5 Q 82.2 132.8, 81.7 133.7 L 80.6 133.1 Q 81.0 132.1, 82.0 131.5 Q 83.0 130.9, 84.3 130.9 Q 86.0 130.9, 86.9 131.7 Q 87.9 132.5, 87.9 133.8 Q 87.9 134.7, 87.4 135.3 Q 86.9 136.0, 86.0 136.4 " fill="#000000"/>
</svg>