<svg xmlns="http://www.w3.org/2000/svg" xmlns:rdkit="http://www.rdkit.org/xml" xmlns:xlink="http://www.w3.org/1999/xlink" version="1.1" baseProfile="full" xml:space="preserve" width="150px" height="150px" viewBox="0 0 150 150">
<!-- END OF HEADER -->
<rect style="opacity:1.0;fill:#FFFFFF;stroke:none" width="150.0" height="150.0" x="0.0" y="0.0"> </rect>
<ellipse cx="99.5" cy="77.9" rx="5.7" ry="5.7" class="atom-0" style="fill:#E5E533;fill-rule:evenodd;stroke:#E5E533;stroke-width:1.0px;stroke-linecap:butt;stroke-linejoin:miter;stroke-opacity:1"/>
<ellipse cx="92.4" cy="50.1" rx="5.7" ry="5.7" class="atom-2" style="fill:#E5E533;fill-rule:evenodd;stroke:#E5E533;stroke-width:1.0px;stroke-linecap:butt;stroke-linejoin:miter;stroke-opacity:1"/>
<ellipse cx="51.3" cy="90.2" rx="5.7" ry="5.7" class="atom-3" style="fill:#E5E533;fill-rule:evenodd;stroke:#E5E533;stroke-width:1.0px;stroke-linecap:butt;stroke-linejoin:miter;stroke-opacity:1"/>
<ellipse cx="64.7" cy="42.3" rx="5.7" ry="5.7" class="atom-4" style="fill:#9999E5;fill-rule:evenodd;stroke:#9999E5;stroke-width:1.0px;stroke-linecap:butt;stroke-linejoin:miter;stroke-opacity:1"/>
<ellipse cx="44.2" cy="62.4" rx="5.7" ry="5.7" class="atom-5" style="fill:#E5E533;fill-rule:evenodd;stroke:#E5E533;stroke-width:1.0px;stroke-linecap:butt;stroke-linejoin:miter;stroke-opacity:1"/>
<path class="bond-0 atom-0 atom-1" d="M 99.5,77.9 L 84.0,93.0" style="fill:none;fill-rule:evenodd;stroke:#E5E5E5;stroke-width:1.5px;stroke-linecap:butt;stroke-linejoin:miter;stroke-opacity:1"/>
<path class="bond-1 atom-0 atom-2" d="M 99.5,77.9 L 92.4,50.1" style="fill:none;fill-rule:evenodd;stroke:#000000;stroke-width:2.0px;stroke-linecap:butt;stroke-linejoin:miter;stroke-opacity:1"/>
<path class="bond-1 atom-0 atom-2" d="M 94.7,76.5 L 88.8,53.5" style="fill:none;fill-rule:evenodd;stroke:#000000;stroke-width:2.0px;stroke-linecap:butt;stroke-linejoin:miter;stroke-opacity:1"/>
<path class="bond-2 atom-1 atom-3" d="M 72.5,96.1 L 51.3,90.2" style="fill:none;fill-rule:evenodd;stroke:#E5E5E5;stroke-width:1.5px;stroke-linecap:butt;stroke-linejoin:miter;stroke-opacity:1"/>
<path class="bond-2 atom-1 atom-3" d="M 73.6,92.0 L 54.8,86.7" style="fill:none;fill-rule:evenodd;stroke:#E5E5E5;stroke-width:1.5px;stroke-linecap:butt;stroke-linejoin:miter;stroke-opacity:1"/>
<path class="bond-3 atom-4 atom-2" d="M 64.7,42.3 L 92.4,50.1" style="fill:none;fill-rule:evenodd;stroke:#000000;stroke-width:2.0px;stroke-linecap:butt;stroke-linejoin:miter;stroke-opacity:1"/>
<path class="bond-4 atom-4 atom-5" d="M 64.7,42.3 L 44.2,62.4" style="fill:none;fill-rule:evenodd;stroke:#000000;stroke-width:2.0px;stroke-linecap:butt;stroke-linejoin:miter;stroke-opacity:1"/>
<path class="bond-4 atom-4 atom-5" d="M 66.0,47.1 L 49.0,63.7" style="fill:none;fill-rule:evenodd;stroke:#000000;stroke-width:2.0px;stroke-linecap:butt;stroke-linejoin:miter;stroke-opacity:1"/>
<path class="bond-5 atom-6 atom-7" d="M 137.1,39.0 L 116.4,33.2" style="fill:none;fill-rule:evenodd;stroke:#E5E5E5;stroke-width:1.5px;stroke-linecap:butt;stroke-linejoin:miter;stroke-opacity:1"/>
<path class="bond-5 atom-6 atom-7" d="M 138.3,34.9 L 117.5,29.1" style="fill:none;fill-rule:evenodd;stroke:#E5E5E5;stroke-width:1.5px;stroke-linecap:butt;stroke-linejoin:miter;stroke-opacity:1"/>
<path class="bond-6 atom-8 atom-9" d="M 11.7,26.8 L 17.4,49.0" style="fill:none;fill-rule:evenodd;stroke:#E5E5E5;stroke-width:1.5px;stroke-linecap:butt;stroke-linejoin:miter;stroke-opacity:1"/>
<path class="bond-6 atom-8 atom-9" d="M 7.5,27.8 L 13.2,50.1" style="fill:none;fill-rule:evenodd;stroke:#E5E5E5;stroke-width:1.5px;stroke-linecap:butt;stroke-linejoin:miter;stroke-opacity:1"/>
<path class="bond-7 atom-2 atom-7" d="M 92.4,50.1 L 100.6,42.0" style="fill:none;fill-rule:evenodd;stroke:#000000;stroke-width:2.0px;stroke-linecap:butt;stroke-linejoin:miter;stroke-opacity:1"/>
<path class="bond-7 atom-2 atom-7" d="M 100.6,42.0 L 108.9,33.9" style="fill:none;fill-rule:evenodd;stroke:#0000FF;stroke-width:2.0px;stroke-linecap:butt;stroke-linejoin:miter;stroke-opacity:1"/>
<path class="bond-8 atom-5 atom-3" d="M 44.2,62.4 L 51.3,90.2" style="fill:none;fill-rule:evenodd;stroke:#000000;stroke-width:2.0px;stroke-linecap:butt;stroke-linejoin:miter;stroke-opacity:1"/>
<path class="bond-9 atom-5 atom-9" d="M 44.2,62.4 L 32.4,59.0" style="fill:none;fill-rule:evenodd;stroke:#000000;stroke-width:2.0px;stroke-linecap:butt;stroke-linejoin:miter;stroke-opacity:1"/>
<path class="bond-9 atom-5 atom-9" d="M 32.4,59.0 L 20.6,55.7" style="fill:none;fill-rule:evenodd;stroke:#0000FF;stroke-width:2.0px;stroke-linecap:butt;stroke-linejoin:miter;stroke-opacity:1"/>
<path class="bond-10 atom-3 atom-10" d="M 51.3,90.2 L 34.9,106.2" style="fill:none;fill-rule:evenodd;stroke:#E5E5E5;stroke-width:1.5px;stroke-linecap:butt;stroke-linejoin:miter;stroke-opacity:1"/>
<path d="M 99.1,78.3 L 99.5,77.9 L 99.3,77.2" style="fill:none;stroke:#E5E5E5;stroke-width:1.5px;stroke-linecap:butt;stroke-linejoin:miter;stroke-opacity:1;"/>
<path d="M 66.1,42.7 L 64.7,42.3 L 63.7,43.3" style="fill:none;stroke:#000000;stroke-width:2.0px;stroke-linecap:butt;stroke-linejoin:miter;stroke-opacity:1;"/>
<path class="atom-1" d="M 73.8 97.0 L 75.0 95.8 L 73.4 95.5 L 73.6 94.7 L 75.1 95.4 L 74.9 93.8 L 75.8 93.8 L 75.5 95.4 L 77.0 94.7 L 77.3 95.5 L 75.6 95.8 L 76.8 97.0 L 76.1 97.5 L 75.3 96.0 L 74.5 97.5 L 73.8 97.0 " fill="#191919"/>
<path class="atom-1" d="M 78.1 93.9 L 79.2 93.9 L 79.2 97.4 L 83.4 97.4 L 83.4 93.9 L 84.5 93.9 L 84.5 102.1 L 83.4 102.1 L 83.4 98.3 L 79.2 98.3 L 79.2 102.1 L 78.1 102.1 L 78.1 93.9 " fill="#191919"/>
<path class="atom-6" d="M 139.0 36.9 L 140.2 35.6 L 138.7 35.3 L 138.9 34.5 L 140.4 35.2 L 140.1 33.6 L 141.0 33.6 L 140.8 35.2 L 142.2 34.5 L 142.5 35.3 L 140.9 35.6 L 142.0 36.8 L 141.3 37.4 L 140.5 35.8 L 139.7 37.4 L 139.0 36.9 " fill="#191919"/>
<path class="atom-7" d="M 111.1 25.9 L 113.8 30.2 Q 114.1 30.7, 114.5 31.4 Q 114.9 32.2, 114.9 32.3 L 114.9 25.9 L 116.0 25.9 L 116.0 34.1 L 114.9 34.1 L 112.0 29.4 Q 111.7 28.8, 111.4 28.2 Q 111.0 27.5, 110.9 27.3 L 110.9 34.1 L 109.8 34.1 L 109.8 25.9 L 111.1 25.9 " fill="#0000FF"/>
<path class="atom-8" d="M 7.9 25.9 L 9.1 24.6 L 7.5 24.3 L 7.8 23.5 L 9.2 24.2 L 9.0 22.6 L 9.9 22.6 L 9.6 24.2 L 11.1 23.5 L 11.4 24.3 L 9.8 24.6 L 10.9 25.8 L 10.2 26.4 L 9.4 24.8 L 8.6 26.4 L 7.9 25.9 " fill="#191919"/>
<path class="atom-9" d="M 14.8 50.5 L 17.4 54.8 Q 17.7 55.3, 18.1 56.0 Q 18.5 56.8, 18.6 56.8 L 18.6 50.5 L 19.6 50.5 L 19.6 58.7 L 18.5 58.7 L 15.7 53.9 Q 15.3 53.4, 15.0 52.8 Q 14.6 52.1, 14.5 51.9 L 14.5 58.7 L 13.5 58.7 L 13.5 50.5 L 14.8 50.5 " fill="#0000FF"/>
<path class="atom-10" d="M 23.2 109.3 L 24.4 108.1 L 22.9 107.8 L 23.1 107.0 L 24.6 107.7 L 24.4 106.1 L 25.2 106.1 L 25.0 107.7 L 26.5 107.0 L 26.7 107.8 L 25.1 108.1 L 26.2 109.3 L 25.5 109.8 L 24.8 108.3 L 24.0 109.8 L 23.2 109.3 " fill="#191919"/>
<path class="atom-10" d="M 27.6 106.2 L 28.7 106.2 L 28.7 109.7 L 32.8 109.7 L 32.8 106.2 L 33.9 106.2 L 33.9 114.4 L 32.8 114.4 L 32.8 110.6 L 28.7 110.6 L 28.7 114.4 L 27.6 114.4 L 27.6 106.2 " fill="#191919"/>
<path class="legend" d="M 72.9 138.6 L 74.3 138.6 L 74.3 139.9 L 72.9 139.9 L 72.9 142.5 L 71.4 142.5 L 71.4 139.9 L 65.6 139.9 L 65.6 138.9 L 70.5 131.2 L 72.9 131.2 L 72.9 138.6 M 67.4 138.6 L 71.4 138.6 L 71.4 132.2 L 67.4 138.6 " fill="#000000"/>
<path class="legend" d="M 81.8 132.5 L 75.9 132.5 L 75.9 131.2 L 83.4 131.2 L 83.4 132.3 L 78.8 142.5 L 77.3 142.5 L 81.8 132.5 " fill="#000000"/>
</svg>