<svg xmlns="http://www.w3.org/2000/svg" xmlns:rdkit="http://www.rdkit.org/xml" xmlns:xlink="http://www.w3.org/1999/xlink" version="1.1" baseProfile="full" xml:space="preserve" width="150px" height="150px" viewBox="0 0 150 150">
<!-- END OF HEADER -->
<rect style="opacity:1.0;fill:#FFFFFF;stroke:none" width="150.0" height="150.0" x="0.0" y="0.0"> </rect>
<ellipse cx="96.0" cy="53.9" rx="6.0" ry="6.0" class="atom-3" style="fill:#E5E533;fill-rule:evenodd;stroke:#E5E533;stroke-width:1.0px;stroke-linecap:butt;stroke-linejoin:miter;stroke-opacity:1"/>
<ellipse cx="65.8" cy="53.1" rx="6.0" ry="6.0" class="atom-4" style="fill:#9999E5;fill-rule:evenodd;stroke:#9999E5;stroke-width:1.0px;stroke-linecap:butt;stroke-linejoin:miter;stroke-opacity:1"/>
<ellipse cx="64.4" cy="105.3" rx="6.0" ry="6.0" class="atom-6" style="fill:#E5E533;fill-rule:evenodd;stroke:#E5E533;stroke-width:1.0px;stroke-linecap:butt;stroke-linejoin:miter;stroke-opacity:1"/>
<ellipse cx="110.3" cy="80.4" rx="6.0" ry="6.0" class="atom-7" style="fill:#E5E533;fill-rule:evenodd;stroke:#E5E533;stroke-width:1.0px;stroke-linecap:butt;stroke-linejoin:miter;stroke-opacity:1"/>
<ellipse cx="50.0" cy="78.8" rx="6.0" ry="6.0" class="atom-8" style="fill:#E5E533;fill-rule:evenodd;stroke:#E5E533;stroke-width:1.0px;stroke-linecap:butt;stroke-linejoin:miter;stroke-opacity:1"/>
<path class="bond-0 atom-0 atom-1" d="M 21.3,25.7 L 51.5,26.5" style="fill:none;fill-rule:evenodd;stroke:#000000;stroke-width:2.0px;stroke-linecap:butt;stroke-linejoin:miter;stroke-opacity:1"/>
<path class="bond-1 atom-2 atom-3" d="M 111.8,28.2 L 96.0,53.9" style="fill:none;fill-rule:evenodd;stroke:#000000;stroke-width:2.0px;stroke-linecap:butt;stroke-linejoin:miter;stroke-opacity:1"/>
<path class="bond-2 atom-1 atom-4" d="M 51.5,26.5 L 65.8,53.1" style="fill:none;fill-rule:evenodd;stroke:#000000;stroke-width:2.0px;stroke-linecap:butt;stroke-linejoin:miter;stroke-opacity:1"/>
<path class="bond-3 atom-5 atom-6" d="M 91.5,106.0 L 64.4,105.3" style="fill:none;fill-rule:evenodd;stroke:#E5E5E5;stroke-width:1.6px;stroke-linecap:butt;stroke-linejoin:miter;stroke-opacity:1"/>
<path class="bond-4 atom-5 atom-7" d="M 97.7,100.9 L 110.3,80.4" style="fill:none;fill-rule:evenodd;stroke:#E5E5E5;stroke-width:1.6px;stroke-linecap:butt;stroke-linejoin:miter;stroke-opacity:1"/>
<path class="bond-4 atom-5 atom-7" d="M 93.9,98.6 L 105.1,80.3" style="fill:none;fill-rule:evenodd;stroke:#E5E5E5;stroke-width:1.6px;stroke-linecap:butt;stroke-linejoin:miter;stroke-opacity:1"/>
<path class="bond-5 atom-6 atom-8" d="M 64.4,105.3 L 50.0,78.8" style="fill:none;fill-rule:evenodd;stroke:#000000;stroke-width:2.0px;stroke-linecap:butt;stroke-linejoin:miter;stroke-opacity:1"/>
<path class="bond-5 atom-6 atom-8" d="M 67.1,100.8 L 55.2,78.9" style="fill:none;fill-rule:evenodd;stroke:#000000;stroke-width:2.0px;stroke-linecap:butt;stroke-linejoin:miter;stroke-opacity:1"/>
<path class="bond-6 atom-3 atom-4" d="M 96.0,53.9 L 65.8,53.1" style="fill:none;fill-rule:evenodd;stroke:#000000;stroke-width:2.0px;stroke-linecap:butt;stroke-linejoin:miter;stroke-opacity:1"/>
<path class="bond-6 atom-3 atom-4" d="M 93.2,58.3 L 68.3,57.7" style="fill:none;fill-rule:evenodd;stroke:#000000;stroke-width:2.0px;stroke-linecap:butt;stroke-linejoin:miter;stroke-opacity:1"/>
<path class="bond-7 atom-3 atom-7" d="M 96.0,53.9 L 110.3,80.4" style="fill:none;fill-rule:evenodd;stroke:#000000;stroke-width:2.0px;stroke-linecap:butt;stroke-linejoin:miter;stroke-opacity:1"/>
<path class="bond-8 atom-4 atom-8" d="M 65.8,53.1 L 50.0,78.8" style="fill:none;fill-rule:evenodd;stroke:#000000;stroke-width:2.0px;stroke-linecap:butt;stroke-linejoin:miter;stroke-opacity:1"/>
<path class="bond-9 atom-7 atom-9" d="M 110.3,80.4 L 137.5,81.2" style="fill:none;fill-rule:evenodd;stroke:#E5E5E5;stroke-width:1.6px;stroke-linecap:butt;stroke-linejoin:miter;stroke-opacity:1"/>
<path class="bond-10 atom-8 atom-10" d="M 50.0,78.8 L 37.4,78.4" style="fill:none;fill-rule:evenodd;stroke:#000000;stroke-width:2.0px;stroke-linecap:butt;stroke-linejoin:miter;stroke-opacity:1"/>
<path class="bond-10 atom-8 atom-10" d="M 37.4,78.4 L 24.8,78.0" style="fill:none;fill-rule:evenodd;stroke:#FF0000;stroke-width:2.0px;stroke-linecap:butt;stroke-linejoin:miter;stroke-opacity:1"/>
<path d="M 50.0,26.5 L 51.5,26.5 L 52.2,27.8" style="fill:none;stroke:#000000;stroke-width:2.0px;stroke-linecap:butt;stroke-linejoin:miter;stroke-opacity:1;"/>
<path d="M 65.0,105.3 L 64.4,105.3 L 64.0,104.6" style="fill:none;stroke:#E5E5E5;stroke-width:1.6px;stroke-linecap:butt;stroke-linejoin:miter;stroke-opacity:1;"/>
<path class="atom-5" d="M 92.9 105.2 L 94.2 103.9 L 92.5 103.6 L 92.7 102.7 L 94.3 103.5 L 94.1 101.8 L 95.0 101.8 L 94.7 103.5 L 96.3 102.7 L 96.5 103.6 L 94.8 103.9 L 96.1 105.2 L 95.3 105.7 L 94.5 104.1 L 93.6 105.7 L 92.9 105.2 " fill="#191919"/>
<path class="atom-5" d="M 97.4 101.9 L 98.6 101.9 L 98.6 105.6 L 103.0 105.6 L 103.0 101.9 L 104.1 101.9 L 104.1 110.5 L 103.0 110.5 L 103.0 106.5 L 98.6 106.5 L 98.6 110.5 L 97.4 110.5 L 97.4 101.9 " fill="#191919"/>
<path class="atom-9" d="M 138.9 80.3 L 140.1 79.0 L 138.5 78.7 L 138.7 77.8 L 140.2 78.6 L 140.0 76.9 L 140.9 76.9 L 140.7 78.6 L 142.2 77.9 L 142.5 78.7 L 140.8 79.0 L 142.0 80.3 L 141.3 80.8 L 140.4 79.2 L 139.6 80.8 L 138.9 80.3 " fill="#191919"/>
<path class="atom-10" d="M 7.5 73.7 L 8.7 73.7 L 8.7 77.3 L 13.0 77.3 L 13.0 73.7 L 14.2 73.7 L 14.2 82.2 L 13.0 82.2 L 13.0 78.3 L 8.7 78.3 L 8.7 82.2 L 7.5 82.2 L 7.5 73.7 " fill="#FF0000"/>
<path class="atom-10" d="M 15.9 77.9 Q 15.9 75.9, 17.0 74.7 Q 18.0 73.6, 19.9 73.6 Q 21.8 73.6, 22.8 74.7 Q 23.8 75.9, 23.8 77.9 Q 23.8 80.0, 22.8 81.2 Q 21.7 82.4, 19.9 82.4 Q 18.0 82.4, 17.0 81.2 Q 15.9 80.0, 15.9 77.9 M 19.9 81.4 Q 21.2 81.4, 21.9 80.5 Q 22.6 79.6, 22.6 77.9 Q 22.6 76.3, 21.9 75.4 Q 21.2 74.6, 19.9 74.6 Q 18.6 74.6, 17.8 75.4 Q 17.1 76.2, 17.1 77.9 Q 17.1 79.7, 17.8 80.5 Q 18.6 81.4, 19.9 81.4 " fill="#FF0000"/>
<path class="legend" d="M 65.5 135.3 Q 66.5 135.3, 67.3 135.7 Q 68.2 136.1, 68.6 136.9 Q 69.1 137.7, 69.1 138.8 Q 69.1 139.9, 68.5 140.8 Q 68.0 141.6, 67.0 142.0 Q 66.1 142.5, 65.0 142.5 Q 64.0 142.5, 63.0 142.1 Q 62.1 141.7, 61.4 141.0 L 62.4 140.0 Q 62.9 140.5, 63.6 140.9 Q 64.4 141.2, 65.1 141.2 Q 66.1 141.2, 66.8 140.5 Q 67.5 139.9, 67.5 138.8 Q 67.5 137.6, 66.8 137.0 Q 66.1 136.5, 65.0 136.5 Q 64.0 136.5, 62.9 136.9 L 62.0 136.5 L 62.6 131.0 L 68.4 131.0 L 68.2 132.3 L 63.9 132.3 L 63.5 135.7 Q 64.5 135.3, 65.5 135.3 " fill="#000000"/>
<path class="legend" d="M 76.1 136.4 Q 77.2 136.7, 77.7 137.4 Q 78.2 138.1, 78.2 139.2 Q 78.2 140.2, 77.8 140.9 Q 77.3 141.7, 76.4 142.1 Q 75.5 142.5, 74.4 142.5 Q 73.1 142.5, 72.2 142.1 Q 71.3 141.7, 70.6 140.8 L 71.5 139.9 Q 72.2 140.6, 72.8 140.9 Q 73.4 141.2, 74.4 141.2 Q 75.4 141.2, 76.0 140.7 Q 76.6 140.1, 76.6 139.2 Q 76.6 138.1, 76.0 137.6 Q 75.3 137.0, 73.9 137.0 L 73.1 137.0 L 73.1 135.9 L 73.9 135.9 Q 75.1 135.9, 75.7 135.3 Q 76.4 134.8, 76.4 133.8 Q 76.4 133.0, 75.9 132.6 Q 75.3 132.2, 74.4 132.2 Q 73.4 132.2, 72.8 132.5 Q 72.3 132.8, 71.8 133.7 L 70.7 133.1 Q 71.1 132.1, 72.1 131.5 Q 73.0 130.9, 74.4 130.9 Q 76.0 130.9, 77.0 131.7 Q 78.0 132.5, 78.0 133.8 Q 78.0 134.7, 77.5 135.3 Q 77.0 136.0, 76.1 136.4 " fill="#000000"/>
<path class="legend" d="M 80.0 133.2 Q 80.4 132.1, 81.4 131.5 Q 82.4 130.9, 83.8 130.9 Q 85.5 130.9, 86.4 131.8 Q 87.4 132.7, 87.4 134.4 Q 87.4 136.1, 86.1 137.6 Q 84.9 139.2, 82.3 141.1 L 87.6 141.1 L 87.6 142.3 L 79.9 142.3 L 79.9 141.3 Q 82.1 139.8, 83.3 138.6 Q 84.6 137.5, 85.2 136.5 Q 85.8 135.5, 85.8 134.5 Q 85.8 133.4, 85.2 132.8 Q 84.7 132.2, 83.8 132.2 Q 82.8 132.2, 82.2 132.5 Q 81.6 132.9, 81.2 133.7 L 80.0 133.2 " fill="#000000"/>
</svg>