<svg xmlns="http://www.w3.org/2000/svg" xmlns:rdkit="http://www.rdkit.org/xml" xmlns:xlink="http://www.w3.org/1999/xlink" version="1.1" baseProfile="full" xml:space="preserve" width="150px" height="150px" viewBox="0 0 150 150">
<!-- END OF HEADER -->
<rect style="opacity:1.0;fill:#FFFFFF;stroke:none" width="150.0" height="150.0" x="0.0" y="0.0"> </rect>
<ellipse cx="34.7" cy="44.4" rx="4.9" ry="4.9" class="atom-1" style="fill:#CCCCCC;fill-rule:evenodd;stroke:#CCCCCC;stroke-width:1.0px;stroke-linecap:butt;stroke-linejoin:miter;stroke-opacity:1"/>
<ellipse cx="57.6" cy="80.0" rx="4.9" ry="4.9" class="atom-3" style="fill:#CCCCCC;fill-rule:evenodd;stroke:#CCCCCC;stroke-width:1.0px;stroke-linecap:butt;stroke-linejoin:miter;stroke-opacity:1"/>
<ellipse cx="56.4" cy="55.6" rx="4.9" ry="4.9" class="atom-4" style="fill:#CCCCCC;fill-rule:evenodd;stroke:#CCCCCC;stroke-width:1.0px;stroke-linecap:butt;stroke-linejoin:miter;stroke-opacity:1"/>
<ellipse cx="76.9" cy="42.4" rx="4.9" ry="4.9" class="atom-5" style="fill:#9999E5;fill-rule:evenodd;stroke:#9999E5;stroke-width:1.0px;stroke-linecap:butt;stroke-linejoin:miter;stroke-opacity:1"/>
<path class="bond-0 atom-0 atom-1" d="M 17.7,55.4 L 34.7,44.4" style="fill:none;fill-rule:evenodd;stroke:#E5E5E5;stroke-width:1.3px;stroke-linecap:butt;stroke-linejoin:miter;stroke-opacity:1"/>
<path class="bond-1 atom-2 atom-3" d="M 40.6,90.9 L 57.6,80.0" style="fill:none;fill-rule:evenodd;stroke:#E5E5E5;stroke-width:1.3px;stroke-linecap:butt;stroke-linejoin:miter;stroke-opacity:1"/>
<path class="bond-2 atom-1 atom-4" d="M 34.7,44.4 L 43.9,49.1" style="fill:none;fill-rule:evenodd;stroke:#000000;stroke-width:2.0px;stroke-linecap:butt;stroke-linejoin:miter;stroke-opacity:1"/>
<path class="bond-2 atom-1 atom-4" d="M 43.9,49.1 L 53.0,53.8" style="fill:none;fill-rule:evenodd;stroke:#0000FF;stroke-width:2.0px;stroke-linecap:butt;stroke-linejoin:miter;stroke-opacity:1"/>
<path class="bond-3 atom-3 atom-4" d="M 57.6,80.0 L 57.1,69.9" style="fill:none;fill-rule:evenodd;stroke:#000000;stroke-width:2.0px;stroke-linecap:butt;stroke-linejoin:miter;stroke-opacity:1"/>
<path class="bond-3 atom-3 atom-4" d="M 57.1,69.9 L 56.6,59.9" style="fill:none;fill-rule:evenodd;stroke:#0000FF;stroke-width:2.0px;stroke-linecap:butt;stroke-linejoin:miter;stroke-opacity:1"/>
<path class="bond-4 atom-5 atom-6" d="M 76.9,42.4 L 98.6,53.5" style="fill:none;fill-rule:evenodd;stroke:#000000;stroke-width:2.0px;stroke-linecap:butt;stroke-linejoin:miter;stroke-opacity:1"/>
<path class="bond-5 atom-5 atom-4" d="M 76.9,42.4 L 68.4,47.9" style="fill:none;fill-rule:evenodd;stroke:#000000;stroke-width:2.0px;stroke-linecap:butt;stroke-linejoin:miter;stroke-opacity:1"/>
<path class="bond-5 atom-5 atom-4" d="M 68.4,47.9 L 59.9,53.4" style="fill:none;fill-rule:evenodd;stroke:#0000FF;stroke-width:2.0px;stroke-linecap:butt;stroke-linejoin:miter;stroke-opacity:1"/>
<path class="bond-6 atom-6 atom-7" d="M 98.6,53.5 L 106.9,48.2" style="fill:none;fill-rule:evenodd;stroke:#000000;stroke-width:2.0px;stroke-linecap:butt;stroke-linejoin:miter;stroke-opacity:1"/>
<path class="bond-6 atom-6 atom-7" d="M 106.9,48.2 L 115.2,42.9" style="fill:none;fill-rule:evenodd;stroke:#FF0000;stroke-width:2.0px;stroke-linecap:butt;stroke-linejoin:miter;stroke-opacity:1"/>
<path class="bond-7 atom-8 atom-7" d="M 138.4,50.2 L 123.1,42.4" style="fill:none;fill-rule:evenodd;stroke:#E5E5E5;stroke-width:1.3px;stroke-linecap:butt;stroke-linejoin:miter;stroke-opacity:1"/>
<path d="M 34.3,44.7 L 34.7,44.4 L 35.0,44.6" style="fill:none;stroke:#E5E5E5;stroke-width:1.3px;stroke-linecap:butt;stroke-linejoin:miter;stroke-opacity:1;"/>
<path d="M 57.2,80.3 L 57.6,80.0 L 57.6,79.7" style="fill:none;stroke:#E5E5E5;stroke-width:1.3px;stroke-linecap:butt;stroke-linejoin:miter;stroke-opacity:1;"/>
<path d="M 78.0,42.9 L 76.9,42.4 L 76.5,42.7" style="fill:none;stroke:#000000;stroke-width:2.0px;stroke-linecap:butt;stroke-linejoin:miter;stroke-opacity:1;"/>
<path d="M 97.6,53.0 L 98.6,53.5 L 99.1,53.3" style="fill:none;stroke:#000000;stroke-width:2.0px;stroke-linecap:butt;stroke-linejoin:miter;stroke-opacity:1;"/>
<path class="atom-0" d="M 7.8 56.9 L 8.8 55.9 L 7.5 55.6 L 7.7 54.9 L 8.9 55.5 L 8.8 54.2 L 9.5 54.1 L 9.3 55.5 L 10.6 54.9 L 10.8 55.6 L 9.4 55.8 L 10.4 56.9 L 9.8 57.3 L 9.1 56.0 L 8.4 57.3 L 7.8 56.9 " fill="#191919"/>
<path class="atom-0" d="M 11.5 54.3 L 12.4 54.3 L 12.4 57.2 L 16.0 57.2 L 16.0 54.3 L 16.9 54.3 L 16.9 61.2 L 16.0 61.2 L 16.0 58.0 L 12.4 58.0 L 12.4 61.2 L 11.5 61.2 L 11.5 54.3 " fill="#191919"/>
<path class="atom-0" d="M 18.2 60.9 Q 18.4 60.5, 18.8 60.3 Q 19.2 60.0, 19.7 60.0 Q 20.4 60.0, 20.8 60.4 Q 21.2 60.8, 21.2 61.4 Q 21.2 62.1, 20.7 62.7 Q 20.2 63.4, 19.2 64.1 L 21.3 64.1 L 21.3 64.6 L 18.2 64.6 L 18.2 64.2 Q 19.0 63.6, 19.5 63.1 Q 20.1 62.7, 20.3 62.3 Q 20.5 61.9, 20.5 61.5 Q 20.5 61.0, 20.3 60.8 Q 20.1 60.5, 19.7 60.5 Q 19.4 60.5, 19.1 60.7 Q 18.9 60.8, 18.7 61.2 L 18.2 60.9 " fill="#191919"/>
<path class="atom-2" d="M 30.7 92.4 L 31.7 91.4 L 30.4 91.1 L 30.6 90.4 L 31.8 91.0 L 31.7 89.7 L 32.4 89.7 L 32.2 91.0 L 33.4 90.5 L 33.7 91.1 L 32.3 91.4 L 33.3 92.4 L 32.7 92.8 L 32.0 91.6 L 31.3 92.8 L 30.7 92.4 " fill="#191919"/>
<path class="atom-2" d="M 34.4 89.8 L 35.3 89.8 L 35.3 92.7 L 38.9 92.7 L 38.9 89.8 L 39.8 89.8 L 39.8 96.7 L 38.9 96.7 L 38.9 93.5 L 35.3 93.5 L 35.3 96.7 L 34.4 96.7 L 34.4 89.8 " fill="#191919"/>
<path class="atom-2" d="M 41.1 96.5 Q 41.3 96.0, 41.7 95.8 Q 42.1 95.6, 42.6 95.6 Q 43.3 95.6, 43.7 95.9 Q 44.1 96.3, 44.1 97.0 Q 44.1 97.6, 43.6 98.3 Q 43.1 98.9, 42.0 99.6 L 44.2 99.6 L 44.2 100.2 L 41.1 100.2 L 41.1 99.7 Q 41.9 99.1, 42.4 98.7 Q 42.9 98.2, 43.2 97.8 Q 43.4 97.4, 43.4 97.0 Q 43.4 96.6, 43.2 96.3 Q 43.0 96.1, 42.6 96.1 Q 42.2 96.1, 42.0 96.2 Q 41.8 96.4, 41.6 96.7 L 41.1 96.5 " fill="#191919"/>
<path class="atom-4" d="M 54.9 52.1 L 57.2 55.8 Q 57.4 56.2, 57.8 56.8 Q 58.1 57.5, 58.1 57.5 L 58.1 52.1 L 59.1 52.1 L 59.1 59.1 L 58.1 59.1 L 55.7 55.1 Q 55.4 54.6, 55.1 54.1 Q 54.8 53.5, 54.7 53.3 L 54.7 59.1 L 53.8 59.1 L 53.8 52.1 L 54.9 52.1 " fill="#0000FF"/>
<path class="atom-7" d="M 116.0 40.4 Q 116.0 38.7, 116.8 37.8 Q 117.6 36.8, 119.2 36.8 Q 120.7 36.8, 121.5 37.8 Q 122.3 38.7, 122.3 40.4 Q 122.3 42.0, 121.5 43.0 Q 120.7 43.9, 119.2 43.9 Q 117.6 43.9, 116.8 43.0 Q 116.0 42.0, 116.0 40.4 M 119.2 43.2 Q 120.2 43.2, 120.8 42.4 Q 121.4 41.7, 121.4 40.4 Q 121.4 39.0, 120.8 38.3 Q 120.2 37.6, 119.2 37.6 Q 118.1 37.6, 117.5 38.3 Q 117.0 39.0, 117.0 40.4 Q 117.0 41.7, 117.5 42.4 Q 118.1 43.2, 119.2 43.2 " fill="#FF0000"/>
<path class="atom-8" d="M 139.6 50.7 L 140.6 49.7 L 139.2 49.4 L 139.4 48.7 L 140.7 49.3 L 140.5 48.0 L 141.2 48.0 L 141.0 49.3 L 142.3 48.7 L 142.5 49.4 L 141.1 49.7 L 142.1 50.7 L 141.5 51.1 L 140.8 49.8 L 140.2 51.1 L 139.6 50.7 " fill="#191919"/>
<path class="legend" d="M 65.5 135.3 Q 66.5 135.3, 67.4 135.7 Q 68.2 136.1, 68.6 136.9 Q 69.1 137.7, 69.1 138.8 Q 69.1 139.9, 68.5 140.8 Q 68.0 141.6, 67.0 142.0 Q 66.1 142.5, 65.0 142.5 Q 64.0 142.5, 63.0 142.1 Q 62.1 141.7, 61.4 141.0 L 62.4 140.0 Q 62.9 140.5, 63.6 140.9 Q 64.4 141.2, 65.1 141.2 Q 66.1 141.2, 66.8 140.5 Q 67.5 139.9, 67.5 138.8 Q 67.5 137.6, 66.8 137.0 Q 66.1 136.5, 65.0 136.5 Q 64.0 136.5, 62.9 136.9 L 62.0 136.5 L 62.6 131.0 L 68.4 131.0 L 68.2 132.3 L 63.9 132.3 L 63.5 135.7 Q 64.6 135.3, 65.5 135.3 " fill="#000000"/>
<path class="legend" d="M 76.1 136.4 Q 77.2 136.7, 77.7 137.4 Q 78.2 138.1, 78.2 139.2 Q 78.2 140.2, 77.8 140.9 Q 77.3 141.7, 76.4 142.1 Q 75.5 142.5, 74.4 142.5 Q 73.2 142.5, 72.2 142.1 Q 71.3 141.7, 70.6 140.8 L 71.5 139.9 Q 72.2 140.6, 72.8 140.9 Q 73.4 141.2, 74.4 141.2 Q 75.4 141.2, 76.0 140.7 Q 76.6 140.1, 76.6 139.2 Q 76.6 138.1, 76.0 137.6 Q 75.3 137.0, 74.0 137.0 L 73.1 137.0 L 73.1 135.9 L 73.9 135.9 Q 75.1 135.9, 75.7 135.3 Q 76.4 134.8, 76.4 133.8 Q 76.4 133.0, 75.9 132.6 Q 75.3 132.2, 74.4 132.2 Q 73.4 132.2, 72.9 132.5 Q 72.3 132.8, 71.8 133.7 L 70.7 133.1 Q 71.1 132.1, 72.1 131.5 Q 73.0 130.9, 74.4 130.9 Q 76.1 130.9, 77.0 131.7 Q 78.0 132.5, 78.0 133.8 Q 78.0 134.7, 77.5 135.3 Q 77.0 136.0, 76.1 136.4 " fill="#000000"/>
<path class="legend" d="M 85.4 136.4 Q 86.5 136.7, 87.0 137.4 Q 87.6 138.1, 87.6 139.2 Q 87.6 140.2, 87.1 140.9 Q 86.6 141.7, 85.7 142.1 Q 84.8 142.5, 83.7 142.5 Q 82.5 142.5, 81.6 142.1 Q 80.7 141.7, 80.0 140.8 L 80.9 139.9 Q 81.6 140.6, 82.2 140.9 Q 82.8 141.2, 83.7 141.2 Q 84.7 141.2, 85.3 140.7 Q 86.0 140.1, 86.0 139.2 Q 86.0 138.1, 85.3 137.6 Q 84.7 137.0, 83.3 137.0 L 82.5 137.0 L 82.5 135.9 L 83.2 135.9 Q 84.4 135.9, 85.1 135.3 Q 85.7 134.8, 85.7 133.8 Q 85.7 133.0, 85.2 132.6 Q 84.6 132.2, 83.7 132.2 Q 82.8 132.2, 82.2 132.5 Q 81.6 132.8, 81.2 133.7 L 80.0 133.1 Q 80.4 132.1, 81.4 131.5 Q 82.4 130.9, 83.7 130.9 Q 85.4 130.9, 86.4 131.7 Q 87.3 132.5, 87.3 133.8 Q 87.3 134.7, 86.8 135.3 Q 86.3 136.0, 85.4 136.4 " fill="#000000"/>
</svg>