<svg xmlns="http://www.w3.org/2000/svg" xmlns:rdkit="http://www.rdkit.org/xml" xmlns:xlink="http://www.w3.org/1999/xlink" version="1.1" baseProfile="full" xml:space="preserve" width="150px" height="150px" viewBox="0 0 150 150">
<!-- END OF HEADER -->
<rect style="opacity:1.0;fill:#FFFFFF;stroke:none" width="150.0" height="150.0" x="0.0" y="0.0"> </rect>
<ellipse cx="33.9" cy="73.8" rx="6.4" ry="6.4" class="atom-3" style="fill:#E5E533;fill-rule:evenodd;stroke:#E5E533;stroke-width:1.0px;stroke-linecap:butt;stroke-linejoin:miter;stroke-opacity:1"/>
<ellipse cx="88.2" cy="83.9" rx="6.4" ry="6.4" class="atom-6" style="fill:#9999E5;fill-rule:evenodd;stroke:#9999E5;stroke-width:1.0px;stroke-linecap:butt;stroke-linejoin:miter;stroke-opacity:1"/>
<path class="bond-0 atom-0 atom-1" d="M 142.5,93.9 L 132.6,85.5" style="fill:none;fill-rule:evenodd;stroke:#000000;stroke-width:2.0px;stroke-linecap:butt;stroke-linejoin:miter;stroke-opacity:1"/>
<path class="bond-0 atom-0 atom-1" d="M 132.6,85.5 L 122.7,77.0" style="fill:none;fill-rule:evenodd;stroke:#0000FF;stroke-width:2.0px;stroke-linecap:butt;stroke-linejoin:miter;stroke-opacity:1"/>
<path class="bond-1 atom-2 atom-3" d="M 26.8,99.1 L 31.8,72.0" style="fill:none;fill-rule:evenodd;stroke:#E5E5E5;stroke-width:1.7px;stroke-linecap:butt;stroke-linejoin:miter;stroke-opacity:1"/>
<path class="bond-1 atom-2 atom-3" d="M 31.5,100.0 L 36.5,72.9" style="fill:none;fill-rule:evenodd;stroke:#E5E5E5;stroke-width:1.7px;stroke-linecap:butt;stroke-linejoin:miter;stroke-opacity:1;stroke-dasharray:6,4"/>
<path class="bond-2 atom-3 atom-4" d="M 36.5,72.9 L 11.9,51.9" style="fill:none;fill-rule:evenodd;stroke:#E5E5E5;stroke-width:1.7px;stroke-linecap:butt;stroke-linejoin:miter;stroke-opacity:1"/>
<path class="bond-2 atom-3 atom-4" d="M 33.4,76.5 L 8.8,55.5" style="fill:none;fill-rule:evenodd;stroke:#E5E5E5;stroke-width:1.7px;stroke-linecap:butt;stroke-linejoin:miter;stroke-opacity:1;stroke-dasharray:6,4"/>
<path class="bond-3 atom-3 atom-5" d="M 33.9,73.8 L 63.9,63.2" style="fill:none;fill-rule:evenodd;stroke:#000000;stroke-width:2.0px;stroke-linecap:butt;stroke-linejoin:miter;stroke-opacity:1"/>
<path class="bond-4 atom-5 atom-6" d="M 63.9,63.2 L 73.8,71.6" style="fill:none;fill-rule:evenodd;stroke:#000000;stroke-width:2.0px;stroke-linecap:butt;stroke-linejoin:miter;stroke-opacity:1"/>
<path class="bond-4 atom-5 atom-6" d="M 73.8,71.6 L 83.7,80.0" style="fill:none;fill-rule:evenodd;stroke:#0000FF;stroke-width:2.0px;stroke-linecap:butt;stroke-linejoin:miter;stroke-opacity:1"/>
<path class="bond-4 atom-5 atom-6" d="M 67.0,59.5 L 76.9,68.0" style="fill:none;fill-rule:evenodd;stroke:#000000;stroke-width:2.0px;stroke-linecap:butt;stroke-linejoin:miter;stroke-opacity:1"/>
<path class="bond-4 atom-5 atom-6" d="M 76.9,68.0 L 86.8,76.4" style="fill:none;fill-rule:evenodd;stroke:#0000FF;stroke-width:2.0px;stroke-linecap:butt;stroke-linejoin:miter;stroke-opacity:1"/>
<path class="bond-5 atom-5 atom-7" d="M 63.9,63.2 L 66.3,50.4" style="fill:none;fill-rule:evenodd;stroke:#000000;stroke-width:2.0px;stroke-linecap:butt;stroke-linejoin:miter;stroke-opacity:1"/>
<path class="bond-5 atom-5 atom-7" d="M 66.3,50.4 L 68.7,37.6" style="fill:none;fill-rule:evenodd;stroke:#FF0000;stroke-width:2.0px;stroke-linecap:butt;stroke-linejoin:miter;stroke-opacity:1"/>
<path class="bond-6 atom-1 atom-6" d="M 113.8,74.8 L 92.7,82.3" style="fill:none;fill-rule:evenodd;stroke:#0000FF;stroke-width:2.0px;stroke-linecap:butt;stroke-linejoin:miter;stroke-opacity:1"/>
<path class="atom-1" d="M 116.3 68.7 L 119.2 73.5 Q 119.5 74.0, 120.0 74.8 Q 120.4 75.7, 120.5 75.7 L 120.5 68.7 L 121.7 68.7 L 121.7 77.7 L 120.4 77.7 L 117.3 72.5 Q 116.9 71.9, 116.5 71.2 Q 116.1 70.5, 116.0 70.3 L 116.0 77.7 L 114.8 77.7 L 114.8 68.7 L 116.3 68.7 " fill="#0000FF"/>
<path class="atom-1" d="M 114.7 58.8 L 115.9 58.8 L 115.9 62.6 L 120.6 62.6 L 120.6 58.8 L 121.8 58.8 L 121.8 67.8 L 120.6 67.8 L 120.6 63.6 L 115.9 63.6 L 115.9 67.8 L 114.7 67.8 L 114.7 58.8 " fill="#0000FF"/>
<path class="atom-2" d="M 26.4 104.2 L 27.7 102.8 L 25.9 102.4 L 26.2 101.5 L 27.8 102.4 L 27.6 100.6 L 28.6 100.6 L 28.3 102.3 L 29.9 101.6 L 30.2 102.4 L 28.4 102.8 L 29.7 104.1 L 28.9 104.7 L 28.1 103.0 L 27.2 104.7 L 26.4 104.2 " fill="#191919"/>
<path class="atom-2" d="M 31.2 100.7 L 32.4 100.7 L 32.4 104.6 L 37.0 104.6 L 37.0 100.7 L 38.2 100.7 L 38.2 109.8 L 37.0 109.8 L 37.0 105.6 L 32.4 105.6 L 32.4 109.8 L 31.2 109.8 L 31.2 100.7 " fill="#191919"/>
<path class="atom-4" d="M 7.9 52.1 L 9.3 50.7 L 7.5 50.4 L 7.8 49.5 L 9.4 50.3 L 9.2 48.5 L 10.1 48.5 L 9.8 50.3 L 11.5 49.5 L 11.8 50.4 L 10.0 50.7 L 11.3 52.1 L 10.5 52.6 L 9.6 51.0 L 8.7 52.6 L 7.9 52.1 " fill="#191919"/>
<path class="atom-6" d="M 86.2 79.4 L 89.2 84.1 Q 89.5 84.6, 89.9 85.5 Q 90.4 86.3, 90.4 86.4 L 90.4 79.4 L 91.6 79.4 L 91.6 88.4 L 90.4 88.4 L 87.2 83.2 Q 86.8 82.5, 86.4 81.8 Q 86.1 81.1, 85.9 80.9 L 85.9 88.4 L 84.8 88.4 L 84.8 79.4 L 86.2 79.4 " fill="#0000FF"/>
<path class="atom-7" d="M 65.6 31.8 Q 65.6 29.7, 66.7 28.5 Q 67.7 27.2, 69.7 27.2 Q 71.7 27.2, 72.8 28.5 Q 73.9 29.7, 73.9 31.8 Q 73.9 34.0, 72.8 35.3 Q 71.7 36.5, 69.7 36.5 Q 67.8 36.5, 66.7 35.3 Q 65.6 34.0, 65.6 31.8 M 69.7 35.5 Q 71.1 35.5, 71.9 34.6 Q 72.6 33.6, 72.6 31.8 Q 72.6 30.1, 71.9 29.2 Q 71.1 28.3, 69.7 28.3 Q 68.4 28.3, 67.6 29.2 Q 66.9 30.0, 66.9 31.8 Q 66.9 33.7, 67.6 34.6 Q 68.4 35.5, 69.7 35.5 " fill="#FF0000"/>
<path class="atom-7" d="M 75.3 27.3 L 76.5 27.3 L 76.5 31.2 L 81.1 31.2 L 81.1 27.3 L 82.4 27.3 L 82.4 36.4 L 81.1 36.4 L 81.1 32.2 L 76.5 32.2 L 76.5 36.4 L 75.3 36.4 L 75.3 27.3 " fill="#FF0000"/>
<path class="legend" d="M 65.0 135.3 Q 66.0 135.3, 66.8 135.7 Q 67.6 136.1, 68.1 136.9 Q 68.6 137.7, 68.6 138.8 Q 68.6 140.0, 68.0 140.8 Q 67.4 141.6, 66.5 142.1 Q 65.6 142.5, 64.5 142.5 Q 63.5 142.5, 62.5 142.1 Q 61.6 141.7, 60.9 141.0 L 61.9 140.0 Q 62.4 140.6, 63.1 140.9 Q 63.8 141.2, 64.6 141.2 Q 65.6 141.2, 66.3 140.6 Q 67.0 140.0, 67.0 138.8 Q 67.0 137.6, 66.3 137.1 Q 65.6 136.5, 64.5 136.5 Q 63.5 136.5, 62.4 136.9 L 61.5 136.5 L 62.0 131.0 L 67.9 131.0 L 67.7 132.3 L 63.3 132.3 L 63.0 135.7 Q 64.0 135.3, 65.0 135.3 " fill="#000000"/>
<path class="legend" d="M 77.5 138.5 L 78.9 138.5 L 78.9 139.8 L 77.5 139.8 L 77.5 142.4 L 76.0 142.4 L 76.0 139.8 L 70.1 139.8 L 70.1 138.8 L 75.1 131.0 L 77.5 131.0 L 77.5 138.5 M 72.0 138.5 L 76.0 138.5 L 76.0 132.1 L 72.0 138.5 " fill="#000000"/>
<path class="legend" d="M 84.5 135.3 Q 85.5 135.3, 86.4 135.7 Q 87.2 136.1, 87.6 136.9 Q 88.1 137.7, 88.1 138.8 Q 88.1 140.0, 87.5 140.8 Q 87.0 141.6, 86.0 142.1 Q 85.1 142.5, 84.1 142.5 Q 83.0 142.5, 82.1 142.1 Q 81.1 141.7, 80.4 141.0 L 81.4 140.0 Q 81.9 140.6, 82.6 140.9 Q 83.4 141.2, 84.1 141.2 Q 85.1 141.2, 85.8 140.6 Q 86.5 140.0, 86.5 138.8 Q 86.5 137.6, 85.8 137.1 Q 85.1 136.5, 84.0 136.5 Q 83.0 136.5, 81.9 136.9 L 81.0 136.5 L 81.6 131.0 L 87.4 131.0 L 87.2 132.3 L 82.9 132.3 L 82.5 135.7 Q 83.6 135.3, 84.5 135.3 " fill="#000000"/>
</svg>