<svg xmlns="http://www.w3.org/2000/svg" xmlns:rdkit="http://www.rdkit.org/xml" xmlns:xlink="http://www.w3.org/1999/xlink" version="1.1" baseProfile="full" xml:space="preserve" width="150px" height="150px" viewBox="0 0 150 150">
<!-- END OF HEADER -->
<rect style="opacity:1.0;fill:#FFFFFF;stroke:none" width="150.0" height="150.0" x="0.0" y="0.0"> </rect>
<ellipse cx="39.0" cy="81.5" rx="5.5" ry="5.5" class="atom-1" style="fill:#CCCCCC;fill-rule:evenodd;stroke:#CCCCCC;stroke-width:1.0px;stroke-linecap:butt;stroke-linejoin:miter;stroke-opacity:1"/>
<ellipse cx="118.9" cy="30.0" rx="5.5" ry="5.5" class="atom-2" style="fill:#E5E533;fill-rule:evenodd;stroke:#E5E533;stroke-width:1.0px;stroke-linecap:butt;stroke-linejoin:miter;stroke-opacity:1"/>
<ellipse cx="91.5" cy="31.4" rx="5.5" ry="5.5" class="atom-4" style="fill:#E5E533;fill-rule:evenodd;stroke:#E5E533;stroke-width:1.0px;stroke-linecap:butt;stroke-linejoin:miter;stroke-opacity:1"/>
<ellipse cx="121.2" cy="77.5" rx="5.5" ry="5.5" class="atom-5" style="fill:#E5E533;fill-rule:evenodd;stroke:#E5E533;stroke-width:1.0px;stroke-linecap:butt;stroke-linejoin:miter;stroke-opacity:1"/>
<ellipse cx="79.0" cy="55.8" rx="5.5" ry="5.5" class="atom-6" style="fill:#9999E5;fill-rule:evenodd;stroke:#9999E5;stroke-width:1.0px;stroke-linecap:butt;stroke-linejoin:miter;stroke-opacity:1"/>
<ellipse cx="93.8" cy="78.8" rx="5.5" ry="5.5" class="atom-7" style="fill:#E5E533;fill-rule:evenodd;stroke:#E5E533;stroke-width:1.0px;stroke-linecap:butt;stroke-linejoin:miter;stroke-opacity:1"/>
<ellipse cx="51.6" cy="57.1" rx="5.5" ry="5.5" class="atom-8" style="fill:#CCCCCC;fill-rule:evenodd;stroke:#CCCCCC;stroke-width:1.0px;stroke-linecap:butt;stroke-linejoin:miter;stroke-opacity:1"/>
<ellipse cx="36.7" cy="34.0" rx="5.5" ry="5.5" class="atom-10" style="fill:#CCCCCC;fill-rule:evenodd;stroke:#CCCCCC;stroke-width:1.0px;stroke-linecap:butt;stroke-linejoin:miter;stroke-opacity:1"/>
<path class="bond-0 atom-0 atom-1" d="M 51.1,100.3 L 42.1,86.3" style="fill:none;fill-rule:evenodd;stroke:#E5E5E5;stroke-width:1.5px;stroke-linecap:butt;stroke-linejoin:miter;stroke-opacity:1"/>
<path class="bond-1 atom-2 atom-3" d="M 118.9,30.0 L 131.0,48.8" style="fill:none;fill-rule:evenodd;stroke:#E5E5E5;stroke-width:1.5px;stroke-linecap:butt;stroke-linejoin:miter;stroke-opacity:1"/>
<path class="bond-1 atom-2 atom-3" d="M 116.7,34.3 L 127.6,51.1" style="fill:none;fill-rule:evenodd;stroke:#E5E5E5;stroke-width:1.5px;stroke-linecap:butt;stroke-linejoin:miter;stroke-opacity:1"/>
<path class="bond-2 atom-2 atom-4" d="M 118.9,30.0 L 91.5,31.4" style="fill:none;fill-rule:evenodd;stroke:#000000;stroke-width:2.0px;stroke-linecap:butt;stroke-linejoin:miter;stroke-opacity:1"/>
<path class="bond-3 atom-3 atom-5" d="M 133.5,53.6 L 121.2,77.5" style="fill:none;fill-rule:evenodd;stroke:#E5E5E5;stroke-width:1.5px;stroke-linecap:butt;stroke-linejoin:miter;stroke-opacity:1"/>
<path class="bond-4 atom-4 atom-6" d="M 91.5,31.4 L 79.0,55.8" style="fill:none;fill-rule:evenodd;stroke:#000000;stroke-width:2.0px;stroke-linecap:butt;stroke-linejoin:miter;stroke-opacity:1"/>
<path class="bond-4 atom-4 atom-6" d="M 94.1,35.4 L 83.7,55.5" style="fill:none;fill-rule:evenodd;stroke:#000000;stroke-width:2.0px;stroke-linecap:butt;stroke-linejoin:miter;stroke-opacity:1"/>
<path class="bond-5 atom-5 atom-7" d="M 121.2,77.5 L 93.8,78.8" style="fill:none;fill-rule:evenodd;stroke:#000000;stroke-width:2.0px;stroke-linecap:butt;stroke-linejoin:miter;stroke-opacity:1"/>
<path class="bond-5 atom-5 atom-7" d="M 118.7,73.5 L 96.0,74.6" style="fill:none;fill-rule:evenodd;stroke:#000000;stroke-width:2.0px;stroke-linecap:butt;stroke-linejoin:miter;stroke-opacity:1"/>
<path class="bond-6 atom-6 atom-7" d="M 79.0,55.8 L 93.8,78.8" style="fill:none;fill-rule:evenodd;stroke:#000000;stroke-width:2.0px;stroke-linecap:butt;stroke-linejoin:miter;stroke-opacity:1"/>
<path class="bond-7 atom-6 atom-8" d="M 79.0,55.8 L 51.6,57.1" style="fill:none;fill-rule:evenodd;stroke:#000000;stroke-width:2.0px;stroke-linecap:butt;stroke-linejoin:miter;stroke-opacity:1"/>
<path class="bond-8 atom-7 atom-9" d="M 93.8,78.8 L 88.8,88.6" style="fill:none;fill-rule:evenodd;stroke:#000000;stroke-width:2.0px;stroke-linecap:butt;stroke-linejoin:miter;stroke-opacity:1"/>
<path class="bond-8 atom-7 atom-9" d="M 88.8,88.6 L 83.8,98.4" style="fill:none;fill-rule:evenodd;stroke:#FF0000;stroke-width:2.0px;stroke-linecap:butt;stroke-linejoin:miter;stroke-opacity:1"/>
<path class="bond-9 atom-8 atom-10" d="M 51.6,57.1 L 45.7,48.0" style="fill:none;fill-rule:evenodd;stroke:#000000;stroke-width:2.0px;stroke-linecap:butt;stroke-linejoin:miter;stroke-opacity:1"/>
<path class="bond-9 atom-8 atom-10" d="M 45.7,48.0 L 39.8,38.8" style="fill:none;fill-rule:evenodd;stroke:#0000FF;stroke-width:2.0px;stroke-linecap:butt;stroke-linejoin:miter;stroke-opacity:1"/>
<path class="bond-10 atom-8 atom-1" d="M 51.6,57.1 L 46.5,66.9" style="fill:none;fill-rule:evenodd;stroke:#000000;stroke-width:2.0px;stroke-linecap:butt;stroke-linejoin:miter;stroke-opacity:1"/>
<path class="bond-10 atom-8 atom-1" d="M 46.5,66.9 L 41.5,76.7" style="fill:none;fill-rule:evenodd;stroke:#0000FF;stroke-width:2.0px;stroke-linecap:butt;stroke-linejoin:miter;stroke-opacity:1"/>
<path class="bond-11 atom-11 atom-10" d="M 12.0,33.2 L 32.8,32.2" style="fill:none;fill-rule:evenodd;stroke:#E5E5E5;stroke-width:1.5px;stroke-linecap:butt;stroke-linejoin:miter;stroke-opacity:1"/>
<path class="bond-11 atom-11 atom-10" d="M 12.2,37.3 L 33.0,36.3" style="fill:none;fill-rule:evenodd;stroke:#E5E5E5;stroke-width:1.5px;stroke-linecap:butt;stroke-linejoin:miter;stroke-opacity:1"/>
<path class="bond-12 atom-12 atom-1" d="M 14.4,82.7 L 35.2,81.7" style="fill:none;fill-rule:evenodd;stroke:#E5E5E5;stroke-width:1.5px;stroke-linecap:butt;stroke-linejoin:miter;stroke-opacity:1"/>
<path d="M 119.2,30.5 L 118.9,30.0 L 118.2,30.1" style="fill:none;stroke:#E5E5E5;stroke-width:1.5px;stroke-linecap:butt;stroke-linejoin:miter;stroke-opacity:1;"/>
<path d="M 92.9,31.3 L 91.5,31.4 L 90.9,32.6" style="fill:none;stroke:#000000;stroke-width:2.0px;stroke-linecap:butt;stroke-linejoin:miter;stroke-opacity:1;"/>
<path d="M 121.5,76.9 L 121.2,77.5 L 120.5,77.5" style="fill:none;stroke:#E5E5E5;stroke-width:1.5px;stroke-linecap:butt;stroke-linejoin:miter;stroke-opacity:1;"/>
<path class="atom-0" d="M 52.4 103.7 L 53.6 102.5 L 52.0 102.2 L 52.3 101.4 L 53.7 102.1 L 53.5 100.6 L 54.3 100.6 L 54.1 102.1 L 55.5 101.5 L 55.7 102.2 L 54.2 102.5 L 55.3 103.7 L 54.6 104.1 L 53.9 102.7 L 53.1 104.1 L 52.4 103.7 " fill="#191919"/>
<path class="atom-0" d="M 56.6 100.7 L 57.6 100.7 L 57.6 104.0 L 61.6 104.0 L 61.6 100.7 L 62.6 100.7 L 62.6 108.5 L 61.6 108.5 L 61.6 104.9 L 57.6 104.9 L 57.6 108.5 L 56.6 108.5 L 56.6 100.7 " fill="#191919"/>
<path class="atom-0" d="M 66.5 109.7 Q 67.0 109.8, 67.3 110.1 Q 67.5 110.5, 67.5 111.0 Q 67.5 111.4, 67.3 111.7 Q 67.1 112.1, 66.7 112.3 Q 66.3 112.4, 65.8 112.4 Q 65.2 112.4, 64.8 112.3 Q 64.4 112.1, 64.1 111.7 L 64.5 111.3 Q 64.8 111.6, 65.1 111.7 Q 65.3 111.9, 65.8 111.9 Q 66.2 111.9, 66.5 111.6 Q 66.8 111.4, 66.8 111.0 Q 66.8 110.4, 66.5 110.2 Q 66.2 110.0, 65.6 110.0 L 65.2 110.0 L 65.2 109.4 L 65.5 109.4 Q 66.1 109.4, 66.4 109.2 Q 66.7 109.0, 66.7 108.5 Q 66.7 108.2, 66.4 108.0 Q 66.2 107.8, 65.8 107.8 Q 65.3 107.8, 65.1 107.9 Q 64.8 108.1, 64.6 108.5 L 64.1 108.2 Q 64.3 107.8, 64.7 107.5 Q 65.2 107.2, 65.8 107.2 Q 66.5 107.2, 67.0 107.5 Q 67.4 107.9, 67.4 108.5 Q 67.4 108.9, 67.2 109.2 Q 67.0 109.5, 66.5 109.7 " fill="#191919"/>
<path class="atom-1" d="M 37.3 77.6 L 39.9 81.7 Q 40.1 82.1, 40.5 82.9 Q 40.9 83.6, 41.0 83.6 L 41.0 77.6 L 42.0 77.6 L 42.0 85.4 L 40.9 85.4 L 38.2 80.9 Q 37.9 80.3, 37.5 79.7 Q 37.2 79.1, 37.1 78.9 L 37.1 85.4 L 36.1 85.4 L 36.1 77.6 L 37.3 77.6 " fill="#0000FF"/>
<path class="atom-3" d="M 132.3 52.2 L 133.4 51.1 L 131.9 50.8 L 132.2 50.0 L 133.6 50.7 L 133.4 49.2 L 134.2 49.1 L 133.9 50.7 L 135.4 50.0 L 135.6 50.8 L 134.1 51.0 L 135.2 52.2 L 134.5 52.7 L 133.7 51.3 L 133.0 52.7 L 132.3 52.2 " fill="#191919"/>
<path class="atom-3" d="M 136.4 49.3 L 137.5 49.3 L 137.5 52.6 L 141.4 52.6 L 141.4 49.3 L 142.5 49.3 L 142.5 57.0 L 141.4 57.0 L 141.4 53.5 L 137.5 53.5 L 137.5 57.0 L 136.4 57.0 L 136.4 49.3 " fill="#191919"/>
<path class="atom-9" d="M 70.0 99.4 L 71.1 99.4 L 71.1 102.7 L 75.1 102.7 L 75.1 99.4 L 76.1 99.4 L 76.1 107.1 L 75.1 107.1 L 75.1 103.5 L 71.1 103.5 L 71.1 107.1 L 70.0 107.1 L 70.0 99.4 " fill="#FF0000"/>
<path class="atom-9" d="M 77.7 103.2 Q 77.7 101.4, 78.6 100.3 Q 79.6 99.3, 81.3 99.3 Q 83.0 99.3, 83.9 100.3 Q 84.8 101.4, 84.8 103.2 Q 84.8 105.1, 83.9 106.2 Q 83.0 107.3, 81.3 107.3 Q 79.6 107.3, 78.6 106.2 Q 77.7 105.1, 77.7 103.2 M 81.3 106.4 Q 82.5 106.4, 83.1 105.6 Q 83.8 104.8, 83.8 103.2 Q 83.8 101.7, 83.1 100.9 Q 82.5 100.2, 81.3 100.2 Q 80.1 100.2, 79.4 100.9 Q 78.8 101.7, 78.8 103.2 Q 78.8 104.8, 79.4 105.6 Q 80.1 106.4, 81.3 106.4 " fill="#FF0000"/>
<path class="atom-10" d="M 35.0 30.1 L 37.6 34.3 Q 37.8 34.7, 38.2 35.4 Q 38.6 36.1, 38.6 36.2 L 38.6 30.1 L 39.7 30.1 L 39.7 37.9 L 38.6 37.9 L 35.9 33.4 Q 35.6 32.9, 35.2 32.3 Q 34.9 31.7, 34.8 31.5 L 34.8 37.9 L 33.8 37.9 L 33.8 30.1 L 35.0 30.1 " fill="#0000FF"/>
<path class="atom-11" d="M 7.9 34.5 L 9.0 33.3 L 7.5 33.0 L 7.7 32.2 L 9.1 32.9 L 8.9 31.4 L 9.7 31.4 L 9.5 32.9 L 10.9 32.3 L 11.2 33.0 L 9.6 33.3 L 10.7 34.5 L 10.1 35.0 L 9.3 33.5 L 8.5 35.0 L 7.9 34.5 " fill="#191919"/>
<path class="atom-12" d="M 10.2 81.9 L 11.3 80.8 L 9.8 80.5 L 10.0 79.7 L 11.4 80.4 L 11.2 78.9 L 12.1 78.9 L 11.8 80.4 L 13.2 79.7 L 13.5 80.5 L 11.9 80.8 L 13.0 81.9 L 12.4 82.4 L 11.6 81.0 L 10.8 82.4 L 10.2 81.9 " fill="#191919"/>
<path class="legend" d="M 64.9 135.3 Q 65.9 135.3, 66.7 135.7 Q 67.5 136.1, 68.0 136.9 Q 68.5 137.7, 68.5 138.8 Q 68.5 140.0, 67.9 140.8 Q 67.3 141.6, 66.4 142.1 Q 65.5 142.5, 64.4 142.5 Q 63.4 142.5, 62.4 142.1 Q 61.5 141.7, 60.8 141.0 L 61.8 140.0 Q 62.3 140.6, 63.0 140.9 Q 63.7 141.2, 64.5 141.2 Q 65.5 141.2, 66.2 140.6 Q 66.9 140.0, 66.9 138.8 Q 66.9 137.6, 66.2 137.1 Q 65.5 136.5, 64.4 136.5 Q 63.4 136.5, 62.3 136.9 L 61.4 136.5 L 61.9 131.0 L 67.8 131.0 L 67.6 132.3 L 63.2 132.3 L 62.9 135.7 Q 63.9 135.3, 64.9 135.3 " fill="#000000"/>
<path class="legend" d="M 77.4 138.5 L 78.8 138.5 L 78.8 139.8 L 77.4 139.8 L 77.4 142.4 L 75.9 142.4 L 75.9 139.8 L 70.0 139.8 L 70.0 138.8 L 75.0 131.0 L 77.4 131.0 L 77.4 138.5 M 71.9 138.5 L 75.9 138.5 L 75.9 132.1 L 71.9 138.5 " fill="#000000"/>
<path class="legend" d="M 84.8 135.3 Q 85.8 135.3, 86.6 135.7 Q 87.3 136.2, 87.8 136.9 Q 88.2 137.7, 88.2 138.7 Q 88.2 139.8, 87.7 140.7 Q 87.2 141.5, 86.4 142.0 Q 85.5 142.5, 84.4 142.5 Q 82.4 142.5, 81.4 141.1 Q 80.3 139.8, 80.3 137.0 Q 80.3 134.0, 81.6 132.5 Q 82.9 130.9, 85.3 130.9 Q 86.0 130.9, 86.6 131.1 Q 87.2 131.2, 87.8 131.6 L 87.1 132.6 Q 86.3 132.2, 85.3 132.2 Q 83.7 132.2, 82.9 133.2 Q 82.1 134.3, 82.0 136.4 Q 82.5 135.9, 83.3 135.6 Q 84.0 135.3, 84.8 135.3 M 84.4 141.2 Q 85.0 141.2, 85.5 140.9 Q 86.0 140.5, 86.3 140.0 Q 86.6 139.4, 86.6 138.7 Q 86.6 137.7, 86.0 137.2 Q 85.5 136.6, 84.5 136.6 Q 83.8 136.6, 83.1 136.9 Q 82.4 137.1, 82.0 137.6 Q 82.0 139.5, 82.6 140.3 Q 83.2 141.2, 84.4 141.2 " fill="#000000"/>
</svg>