<svg xmlns="http://www.w3.org/2000/svg" xmlns:rdkit="http://www.rdkit.org/xml" xmlns:xlink="http://www.w3.org/1999/xlink" version="1.1" baseProfile="full" xml:space="preserve" width="150px" height="150px" viewBox="0 0 150 150">
<!-- END OF HEADER -->
<rect style="opacity:1.0;fill:#FFFFFF;stroke:none" width="150.0" height="150.0" x="0.0" y="0.0"> </rect>
<ellipse cx="24.2" cy="29.0" rx="8.0" ry="8.0" class="atom-2" style="fill:#E5E533;fill-rule:evenodd;stroke:#E5E533;stroke-width:1.0px;stroke-linecap:butt;stroke-linejoin:miter;stroke-opacity:1"/>
<ellipse cx="63.6" cy="22.4" rx="8.0" ry="8.0" class="atom-3" style="fill:#E5E533;fill-rule:evenodd;stroke:#E5E533;stroke-width:1.0px;stroke-linecap:butt;stroke-linejoin:miter;stroke-opacity:1"/>
<ellipse cx="89.0" cy="53.2" rx="8.0" ry="8.0" class="atom-5" style="fill:#9999E5;fill-rule:evenodd;stroke:#9999E5;stroke-width:1.0px;stroke-linecap:butt;stroke-linejoin:miter;stroke-opacity:1"/>
<ellipse cx="35.6" cy="97.2" rx="8.0" ry="8.0" class="atom-6" style="fill:#E5E533;fill-rule:evenodd;stroke:#E5E533;stroke-width:1.0px;stroke-linecap:butt;stroke-linejoin:miter;stroke-opacity:1"/>
<ellipse cx="75.0" cy="90.7" rx="8.0" ry="8.0" class="atom-7" style="fill:#E5E533;fill-rule:evenodd;stroke:#E5E533;stroke-width:1.0px;stroke-linecap:butt;stroke-linejoin:miter;stroke-opacity:1"/>
<path class="bond-0 atom-0 atom-1" d="M 142.5,9.2 L 136.8,24.4" style="fill:none;fill-rule:evenodd;stroke:#000000;stroke-width:2.0px;stroke-linecap:butt;stroke-linejoin:miter;stroke-opacity:1"/>
<path class="bond-0 atom-0 atom-1" d="M 136.8,24.4 L 131.1,39.6" style="fill:none;fill-rule:evenodd;stroke:#FF0000;stroke-width:2.0px;stroke-linecap:butt;stroke-linejoin:miter;stroke-opacity:1"/>
<path class="bond-1 atom-2 atom-3" d="M 24.2,29.0 L 63.6,22.4" style="fill:none;fill-rule:evenodd;stroke:#000000;stroke-width:2.0px;stroke-linecap:butt;stroke-linejoin:miter;stroke-opacity:1"/>
<path class="bond-2 atom-2 atom-4" d="M 24.2,29.0 L 12.8,59.3" style="fill:none;fill-rule:evenodd;stroke:#E5E5E5;stroke-width:2.1px;stroke-linecap:butt;stroke-linejoin:miter;stroke-opacity:1"/>
<path class="bond-2 atom-2 atom-4" d="M 28.6,34.3 L 18.4,61.4" style="fill:none;fill-rule:evenodd;stroke:#E5E5E5;stroke-width:2.1px;stroke-linecap:butt;stroke-linejoin:miter;stroke-opacity:1"/>
<path class="bond-3 atom-3 atom-5" d="M 63.6,22.4 L 89.0,53.2" style="fill:none;fill-rule:evenodd;stroke:#000000;stroke-width:2.0px;stroke-linecap:butt;stroke-linejoin:miter;stroke-opacity:1"/>
<path class="bond-3 atom-3 atom-5" d="M 61.2,28.9 L 82.2,54.4" style="fill:none;fill-rule:evenodd;stroke:#000000;stroke-width:2.0px;stroke-linecap:butt;stroke-linejoin:miter;stroke-opacity:1"/>
<path class="bond-4 atom-6 atom-4" d="M 35.6,97.2 L 10.8,67.1" style="fill:none;fill-rule:evenodd;stroke:#E5E5E5;stroke-width:2.1px;stroke-linecap:butt;stroke-linejoin:miter;stroke-opacity:1"/>
<path class="bond-5 atom-6 atom-7" d="M 35.6,97.2 L 75.0,90.7" style="fill:none;fill-rule:evenodd;stroke:#000000;stroke-width:2.0px;stroke-linecap:butt;stroke-linejoin:miter;stroke-opacity:1"/>
<path class="bond-5 atom-6 atom-7" d="M 38.0,90.8 L 70.6,85.3" style="fill:none;fill-rule:evenodd;stroke:#000000;stroke-width:2.0px;stroke-linecap:butt;stroke-linejoin:miter;stroke-opacity:1"/>
<path class="bond-6 atom-7 atom-5" d="M 75.0,90.7 L 89.0,53.2" style="fill:none;fill-rule:evenodd;stroke:#000000;stroke-width:2.0px;stroke-linecap:butt;stroke-linejoin:miter;stroke-opacity:1"/>
<path class="bond-7 atom-7 atom-8" d="M 75.0,90.7 L 85.0,102.8" style="fill:none;fill-rule:evenodd;stroke:#000000;stroke-width:2.0px;stroke-linecap:butt;stroke-linejoin:miter;stroke-opacity:1"/>
<path class="bond-7 atom-7 atom-8" d="M 85.0,102.8 L 94.9,114.8" style="fill:none;fill-rule:evenodd;stroke:#00CC00;stroke-width:2.0px;stroke-linecap:butt;stroke-linejoin:miter;stroke-opacity:1"/>
<path class="bond-8 atom-5 atom-1" d="M 89.0,53.2 L 105.5,50.5" style="fill:none;fill-rule:evenodd;stroke:#000000;stroke-width:2.0px;stroke-linecap:butt;stroke-linejoin:miter;stroke-opacity:1"/>
<path class="bond-8 atom-5 atom-1" d="M 105.5,50.5 L 122.0,47.8" style="fill:none;fill-rule:evenodd;stroke:#FF0000;stroke-width:2.0px;stroke-linecap:butt;stroke-linejoin:miter;stroke-opacity:1"/>
<path d="M 25.2,28.8 L 24.2,29.0 L 23.9,29.7" style="fill:none;stroke:#000000;stroke-width:2.0px;stroke-linecap:butt;stroke-linejoin:miter;stroke-opacity:1;"/>
<path d="M 61.7,22.7 L 63.6,22.4 L 64.9,23.9" style="fill:none;stroke:#000000;stroke-width:2.0px;stroke-linecap:butt;stroke-linejoin:miter;stroke-opacity:1;"/>
<path d="M 35.0,96.5 L 35.6,97.2 L 36.6,97.1" style="fill:none;stroke:#E5E5E5;stroke-width:2.1px;stroke-linecap:butt;stroke-linejoin:miter;stroke-opacity:1;"/>
<path class="atom-1" d="M 123.3 46.7 Q 123.3 44.0, 124.6 42.5 Q 126.0 41.0, 128.5 41.0 Q 131.0 41.0, 132.3 42.5 Q 133.7 44.0, 133.7 46.7 Q 133.7 49.5, 132.3 51.0 Q 131.0 52.6, 128.5 52.6 Q 126.0 52.6, 124.6 51.0 Q 123.3 49.5, 123.3 46.7 M 128.5 51.3 Q 130.2 51.3, 131.1 50.1 Q 132.1 49.0, 132.1 46.7 Q 132.1 44.5, 131.1 43.4 Q 130.2 42.2, 128.5 42.2 Q 126.7 42.2, 125.8 43.4 Q 124.9 44.5, 124.9 46.7 Q 124.9 49.0, 125.8 50.1 Q 126.7 51.3, 128.5 51.3 " fill="#FF0000"/>
<path class="atom-4" d="M 8.0 65.1 L 9.7 63.4 L 7.5 63.0 L 7.8 61.8 L 9.9 62.9 L 9.6 60.6 L 10.8 60.6 L 10.4 62.8 L 12.5 61.9 L 12.9 63.0 L 10.6 63.4 L 12.2 65.1 L 11.2 65.8 L 10.1 63.7 L 9.0 65.8 L 8.0 65.1 " fill="#191919"/>
<path class="atom-8" d="M 96.1 121.9 Q 96.1 119.1, 97.4 117.6 Q 98.7 116.2, 101.2 116.2 Q 103.5 116.2, 104.8 117.8 L 103.7 118.7 Q 102.8 117.5, 101.2 117.5 Q 99.5 117.5, 98.6 118.6 Q 97.7 119.8, 97.7 121.9 Q 97.7 124.2, 98.6 125.3 Q 99.6 126.5, 101.4 126.5 Q 102.6 126.5, 104.1 125.7 L 104.5 126.9 Q 103.9 127.3, 103.0 127.5 Q 102.1 127.8, 101.2 127.8 Q 98.7 127.8, 97.4 126.3 Q 96.1 124.7, 96.1 121.9 " fill="#00CC00"/>
<path class="atom-8" d="M 105.9 115.5 L 107.4 115.5 L 107.4 127.6 L 105.9 127.6 L 105.9 115.5 " fill="#00CC00"/>
<path class="legend" d="M 65.1 135.3 Q 66.1 135.3, 66.9 135.7 Q 67.7 136.1, 68.2 136.9 Q 68.6 137.7, 68.6 138.8 Q 68.6 140.0, 68.1 140.8 Q 67.5 141.6, 66.6 142.1 Q 65.7 142.5, 64.6 142.5 Q 63.6 142.5, 62.6 142.1 Q 61.6 141.7, 61.0 141.0 L 61.9 140.0 Q 62.5 140.6, 63.2 140.9 Q 63.9 141.2, 64.6 141.2 Q 65.7 141.2, 66.3 140.6 Q 67.0 140.0, 67.0 138.8 Q 67.0 137.6, 66.3 137.1 Q 65.7 136.5, 64.5 136.5 Q 63.6 136.5, 62.5 136.9 L 61.6 136.5 L 62.1 131.0 L 67.9 131.0 L 67.8 132.3 L 63.4 132.3 L 63.1 135.7 Q 64.1 135.3, 65.1 135.3 " fill="#000000"/>
<path class="legend" d="M 74.6 135.3 Q 75.6 135.3, 76.4 135.7 Q 77.2 136.2, 77.6 136.9 Q 78.1 137.7, 78.1 138.7 Q 78.1 139.8, 77.6 140.7 Q 77.1 141.5, 76.2 142.0 Q 75.4 142.5, 74.3 142.5 Q 72.2 142.5, 71.2 141.1 Q 70.2 139.8, 70.2 137.0 Q 70.2 134.0, 71.5 132.5 Q 72.7 130.9, 75.1 130.9 Q 75.8 130.9, 76.4 131.1 Q 77.0 131.2, 77.6 131.6 L 77.0 132.6 Q 76.2 132.2, 75.1 132.2 Q 73.5 132.2, 72.7 133.2 Q 71.9 134.3, 71.8 136.4 Q 72.4 135.9, 73.1 135.6 Q 73.9 135.3, 74.6 135.3 M 74.3 141.2 Q 74.9 141.2, 75.4 140.9 Q 75.9 140.5, 76.2 140.0 Q 76.5 139.4, 76.5 138.7 Q 76.5 137.7, 75.9 137.2 Q 75.3 136.6, 74.3 136.6 Q 73.7 136.6, 73.0 136.9 Q 72.3 137.1, 71.8 137.6 Q 71.9 139.5, 72.5 140.3 Q 73.1 141.2, 74.3 141.2 " fill="#000000"/>
<path class="legend" d="M 83.9 142.5 Q 81.8 142.5, 80.8 141.0 Q 79.7 139.4, 79.7 136.7 Q 79.7 134.0, 80.8 132.4 Q 81.8 130.9, 83.9 130.9 Q 86.0 130.9, 87.0 132.4 Q 88.0 134.0, 88.0 136.7 Q 88.0 139.4, 87.0 141.0 Q 86.0 142.5, 83.9 142.5 M 83.9 141.2 Q 85.1 141.2, 85.8 140.1 Q 86.4 138.9, 86.4 136.7 Q 86.4 134.5, 85.8 133.3 Q 85.1 132.2, 83.9 132.2 Q 82.7 132.2, 82.0 133.3 Q 81.3 134.5, 81.3 136.7 Q 81.3 138.9, 82.0 140.1 Q 82.7 141.2, 83.9 141.2 " fill="#000000"/>
</svg>