<svg xmlns="http://www.w3.org/2000/svg" xmlns:rdkit="http://www.rdkit.org/xml" xmlns:xlink="http://www.w3.org/1999/xlink" version="1.1" baseProfile="full" xml:space="preserve" width="150px" height="150px" viewBox="0 0 150 150">
<!-- END OF HEADER -->
<rect style="opacity:1.0;fill:#FFFFFF;stroke:none" width="150.0" height="150.0" x="0.0" y="0.0"> </rect>
<ellipse cx="110.9" cy="81.3" rx="6.3" ry="6.3" class="atom-1" style="fill:#E5E533;fill-rule:evenodd;stroke:#E5E533;stroke-width:1.0px;stroke-linecap:butt;stroke-linejoin:miter;stroke-opacity:1"/>
<ellipse cx="95.1" cy="108.6" rx="6.3" ry="6.3" class="atom-2" style="fill:#E5E533;fill-rule:evenodd;stroke:#E5E533;stroke-width:1.0px;stroke-linecap:butt;stroke-linejoin:miter;stroke-opacity:1"/>
<ellipse cx="47.8" cy="81.3" rx="6.3" ry="6.3" class="atom-4" style="fill:#E5E533;fill-rule:evenodd;stroke:#E5E533;stroke-width:1.0px;stroke-linecap:butt;stroke-linejoin:miter;stroke-opacity:1"/>
<ellipse cx="95.1" cy="53.9" rx="6.3" ry="6.3" class="atom-5" style="fill:#9999E5;fill-rule:evenodd;stroke:#9999E5;stroke-width:1.0px;stroke-linecap:butt;stroke-linejoin:miter;stroke-opacity:1"/>
<ellipse cx="63.5" cy="53.9" rx="6.3" ry="6.3" class="atom-6" style="fill:#E5E533;fill-rule:evenodd;stroke:#E5E533;stroke-width:1.0px;stroke-linecap:butt;stroke-linejoin:miter;stroke-opacity:1"/>
<path class="bond-0 atom-0 atom-1" d="M 142.5,81.3 L 110.9,81.3" style="fill:none;fill-rule:evenodd;stroke:#000000;stroke-width:2.0px;stroke-linecap:butt;stroke-linejoin:miter;stroke-opacity:1"/>
<path class="bond-1 atom-2 atom-3" d="M 95.1,108.6 L 68.1,108.6" style="fill:none;fill-rule:evenodd;stroke:#E5E5E5;stroke-width:1.7px;stroke-linecap:butt;stroke-linejoin:miter;stroke-opacity:1"/>
<path class="bond-1 atom-2 atom-3" d="M 92.4,103.9 L 68.1,103.9" style="fill:none;fill-rule:evenodd;stroke:#E5E5E5;stroke-width:1.7px;stroke-linecap:butt;stroke-linejoin:miter;stroke-opacity:1"/>
<path class="bond-2 atom-2 atom-1" d="M 95.1,108.6 L 110.9,81.3" style="fill:none;fill-rule:evenodd;stroke:#000000;stroke-width:2.0px;stroke-linecap:butt;stroke-linejoin:miter;stroke-opacity:1"/>
<path class="bond-3 atom-3 atom-4" d="M 60.4,103.2 L 47.8,81.3" style="fill:none;fill-rule:evenodd;stroke:#E5E5E5;stroke-width:1.7px;stroke-linecap:butt;stroke-linejoin:miter;stroke-opacity:1"/>
<path class="bond-4 atom-1 atom-5" d="M 110.9,81.3 L 95.1,53.9" style="fill:none;fill-rule:evenodd;stroke:#000000;stroke-width:2.0px;stroke-linecap:butt;stroke-linejoin:miter;stroke-opacity:1"/>
<path class="bond-4 atom-1 atom-5" d="M 105.4,81.3 L 92.4,58.6" style="fill:none;fill-rule:evenodd;stroke:#000000;stroke-width:2.0px;stroke-linecap:butt;stroke-linejoin:miter;stroke-opacity:1"/>
<path class="bond-5 atom-4 atom-6" d="M 47.8,81.3 L 63.5,53.9" style="fill:none;fill-rule:evenodd;stroke:#000000;stroke-width:2.0px;stroke-linecap:butt;stroke-linejoin:miter;stroke-opacity:1"/>
<path class="bond-5 atom-4 atom-6" d="M 53.2,81.3 L 66.3,58.6" style="fill:none;fill-rule:evenodd;stroke:#000000;stroke-width:2.0px;stroke-linecap:butt;stroke-linejoin:miter;stroke-opacity:1"/>
<path class="bond-6 atom-4 atom-7" d="M 47.8,81.3 L 20.7,81.3" style="fill:none;fill-rule:evenodd;stroke:#E5E5E5;stroke-width:1.7px;stroke-linecap:butt;stroke-linejoin:miter;stroke-opacity:1"/>
<path class="bond-7 atom-5 atom-6" d="M 95.1,53.9 L 63.5,53.9" style="fill:none;fill-rule:evenodd;stroke:#000000;stroke-width:2.0px;stroke-linecap:butt;stroke-linejoin:miter;stroke-opacity:1"/>
<path class="bond-8 atom-5 atom-8" d="M 95.1,53.9 L 101.4,43.0" style="fill:none;fill-rule:evenodd;stroke:#000000;stroke-width:2.0px;stroke-linecap:butt;stroke-linejoin:miter;stroke-opacity:1"/>
<path class="bond-8 atom-5 atom-8" d="M 101.4,43.0 L 107.7,32.1" style="fill:none;fill-rule:evenodd;stroke:#33CCCC;stroke-width:2.0px;stroke-linecap:butt;stroke-linejoin:miter;stroke-opacity:1"/>
<path class="bond-9 atom-6 atom-9" d="M 63.5,53.9 L 57.2,43.0" style="fill:none;fill-rule:evenodd;stroke:#000000;stroke-width:2.0px;stroke-linecap:butt;stroke-linejoin:miter;stroke-opacity:1"/>
<path class="bond-9 atom-6 atom-9" d="M 57.2,43.0 L 50.9,32.1" style="fill:none;fill-rule:evenodd;stroke:#33CCCC;stroke-width:2.0px;stroke-linecap:butt;stroke-linejoin:miter;stroke-opacity:1"/>
<path d="M 94.5,108.6 L 95.1,108.6 L 95.5,107.9" style="fill:none;stroke:#E5E5E5;stroke-width:1.7px;stroke-linecap:butt;stroke-linejoin:miter;stroke-opacity:1;"/>
<path class="atom-3" d="M 55.3 107.6 L 56.6 106.3 L 54.9 105.9 L 55.1 105.0 L 56.7 105.8 L 56.5 104.1 L 57.5 104.1 L 57.2 105.8 L 58.8 105.1 L 59.1 105.9 L 57.3 106.2 L 58.6 107.6 L 57.8 108.1 L 57.0 106.5 L 56.1 108.1 L 55.3 107.6 " fill="#191919"/>
<path class="atom-3" d="M 60.0 104.2 L 61.3 104.2 L 61.3 108.0 L 65.8 108.0 L 65.8 104.2 L 67.0 104.2 L 67.0 113.2 L 65.8 113.2 L 65.8 109.0 L 61.3 109.0 L 61.3 113.2 L 60.0 113.2 L 60.0 104.2 " fill="#191919"/>
<path class="atom-7" d="M 7.9 80.3 L 9.2 78.9 L 7.5 78.6 L 7.8 77.7 L 9.4 78.5 L 9.1 76.7 L 10.1 76.7 L 9.8 78.5 L 11.5 77.7 L 11.7 78.6 L 10.0 78.9 L 11.2 80.2 L 10.5 80.8 L 9.6 79.1 L 8.7 80.8 L 7.9 80.3 " fill="#191919"/>
<path class="atom-7" d="M 12.7 76.9 L 13.9 76.9 L 13.9 80.7 L 18.5 80.7 L 18.5 76.9 L 19.7 76.9 L 19.7 85.8 L 18.5 85.8 L 18.5 81.7 L 13.9 81.7 L 13.9 85.8 L 12.7 85.8 L 12.7 76.9 " fill="#191919"/>
<path class="atom-8" d="M 108.3 22.1 L 113.6 22.1 L 113.6 23.1 L 109.5 23.1 L 109.5 25.8 L 113.1 25.8 L 113.1 26.9 L 109.5 26.9 L 109.5 31.0 L 108.3 31.0 L 108.3 22.1 " fill="#33CCCC"/>
<path class="atom-9" d="M 45.1 22.1 L 50.4 22.1 L 50.4 23.1 L 46.3 23.1 L 46.3 25.8 L 50.0 25.8 L 50.0 26.9 L 46.3 26.9 L 46.3 31.0 L 45.1 31.0 L 45.1 22.1 " fill="#33CCCC"/>
<path class="legend" d="M 64.7 135.3 Q 65.7 135.3, 66.5 135.7 Q 67.3 136.2, 67.7 136.9 Q 68.1 137.7, 68.1 138.7 Q 68.1 139.8, 67.6 140.7 Q 67.2 141.5, 66.3 142.0 Q 65.4 142.5, 64.3 142.5 Q 62.3 142.5, 61.3 141.1 Q 60.3 139.8, 60.3 137.0 Q 60.3 134.0, 61.5 132.5 Q 62.8 130.9, 65.2 130.9 Q 65.9 130.9, 66.5 131.1 Q 67.1 131.2, 67.7 131.6 L 67.1 132.6 Q 66.2 132.2, 65.2 132.2 Q 63.6 132.2, 62.8 133.2 Q 62.0 134.3, 61.9 136.4 Q 62.5 135.9, 63.2 135.6 Q 63.9 135.3, 64.7 135.3 M 64.3 141.2 Q 65.0 141.2, 65.4 140.9 Q 66.0 140.5, 66.2 140.0 Q 66.5 139.4, 66.5 138.7 Q 66.5 137.7, 66.0 137.2 Q 65.4 136.6, 64.4 136.6 Q 63.7 136.6, 63.0 136.9 Q 62.4 137.1, 61.9 137.6 Q 62.0 139.5, 62.6 140.3 Q 63.1 141.2, 64.3 141.2 " fill="#000000"/>
<path class="legend" d="M 74.0 142.5 Q 71.9 142.5, 70.9 141.0 Q 69.8 139.4, 69.8 136.7 Q 69.8 134.0, 70.9 132.4 Q 71.9 130.9, 74.0 130.9 Q 76.1 130.9, 77.1 132.4 Q 78.1 134.0, 78.1 136.7 Q 78.1 139.4, 77.1 141.0 Q 76.1 142.5, 74.0 142.5 M 74.0 141.2 Q 75.2 141.2, 75.9 140.1 Q 76.5 138.9, 76.5 136.7 Q 76.5 134.5, 75.9 133.3 Q 75.2 132.2, 74.0 132.2 Q 72.8 132.2, 72.1 133.3 Q 71.4 134.5, 71.4 136.7 Q 71.4 138.9, 72.1 140.1 Q 72.8 141.2, 74.0 141.2 " fill="#000000"/>
<path class="legend" d="M 87.4 138.5 L 88.7 138.5 L 88.7 139.8 L 87.4 139.8 L 87.4 142.4 L 85.9 142.4 L 85.9 139.8 L 80.0 139.8 L 80.0 138.8 L 85.0 131.0 L 87.4 131.0 L 87.4 138.5 M 81.9 138.5 L 85.9 138.5 L 85.9 132.1 L 81.9 138.5 " fill="#000000"/>
</svg>