<svg xmlns="http://www.w3.org/2000/svg" xmlns:rdkit="http://www.rdkit.org/xml" xmlns:xlink="http://www.w3.org/1999/xlink" version="1.1" baseProfile="full" xml:space="preserve" width="150px" height="150px" viewBox="0 0 150 150">
<!-- END OF HEADER -->
<rect style="opacity:1.0;fill:#FFFFFF;stroke:none" width="150.0" height="150.0" x="0.0" y="0.0"> </rect>
<ellipse cx="123.9" cy="77.7" rx="8.1" ry="8.1" class="atom-1" style="fill:#CCCCCC;fill-rule:evenodd;stroke:#CCCCCC;stroke-width:1.0px;stroke-linecap:butt;stroke-linejoin:miter;stroke-opacity:1"/>
<ellipse cx="69.4" cy="80.8" rx="8.1" ry="8.1" class="atom-4" style="fill:#CCCCCC;fill-rule:evenodd;stroke:#CCCCCC;stroke-width:1.0px;stroke-linecap:butt;stroke-linejoin:miter;stroke-opacity:1"/>
<ellipse cx="89.3" cy="72.3" rx="8.1" ry="8.1" class="atom-5" style="fill:#9999E5;fill-rule:evenodd;stroke:#9999E5;stroke-width:1.0px;stroke-linecap:butt;stroke-linejoin:miter;stroke-opacity:1"/>
<path class="bond-0 atom-0 atom-1" d="M 120.0,110.7 L 123.9,77.7" style="fill:none;fill-rule:evenodd;stroke:#E5E5E5;stroke-width:2.2px;stroke-linecap:butt;stroke-linejoin:miter;stroke-opacity:1"/>
<path class="bond-1 atom-2 atom-1" d="M 104.6,63.3 L 123.9,77.7" style="fill:none;fill-rule:evenodd;stroke:#E5E5E5;stroke-width:2.2px;stroke-linecap:butt;stroke-linejoin:miter;stroke-opacity:1"/>
<path class="bond-2 atom-3 atom-4" d="M 34.9,55.0 L 69.4,80.8" style="fill:none;fill-rule:evenodd;stroke:#E5E5E5;stroke-width:2.2px;stroke-linecap:butt;stroke-linejoin:miter;stroke-opacity:1"/>
<path class="bond-3 atom-1 atom-5" d="M 123.9,77.7 L 89.3,72.3" style="fill:none;fill-rule:evenodd;stroke:#000000;stroke-width:2.0px;stroke-linecap:butt;stroke-linejoin:miter;stroke-opacity:1"/>
<path class="bond-4 atom-4 atom-5" d="M 69.4,80.8 L 89.3,72.3" style="fill:none;fill-rule:evenodd;stroke:#000000;stroke-width:2.0px;stroke-linecap:butt;stroke-linejoin:miter;stroke-opacity:1"/>
<path class="bond-5 atom-4 atom-6" d="M 69.4,80.8 L 53.6,103.7" style="fill:none;fill-rule:evenodd;stroke:#E5E5E5;stroke-width:2.2px;stroke-linecap:butt;stroke-linejoin:miter;stroke-opacity:1"/>
<path class="bond-6 atom-5 atom-7" d="M 92.4,72.7 L 95.4,46.9" style="fill:none;fill-rule:evenodd;stroke:#000000;stroke-width:2.0px;stroke-linecap:butt;stroke-linejoin:miter;stroke-opacity:1"/>
<path class="bond-6 atom-5 atom-7" d="M 95.4,46.9 L 98.5,21.0" style="fill:none;fill-rule:evenodd;stroke:#FF0000;stroke-width:2.0px;stroke-linecap:butt;stroke-linejoin:miter;stroke-opacity:1"/>
<path class="bond-6 atom-5 atom-7" d="M 86.0,73.7 L 89.2,46.1" style="fill:none;fill-rule:evenodd;stroke:#000000;stroke-width:2.0px;stroke-linecap:butt;stroke-linejoin:miter;stroke-opacity:1"/>
<path class="bond-6 atom-5 atom-7" d="M 89.2,46.1 L 92.3,20.3" style="fill:none;fill-rule:evenodd;stroke:#FF0000;stroke-width:2.0px;stroke-linecap:butt;stroke-linejoin:miter;stroke-opacity:1"/>
<path d="M 91.0,72.5 L 89.3,72.3 L 88.3,72.7" style="fill:none;stroke:#000000;stroke-width:2.0px;stroke-linecap:butt;stroke-linejoin:miter;stroke-opacity:1;"/>
<path class="atom-0" d="M 117.0 116.7 L 118.7 114.9 L 116.4 114.5 L 116.8 113.3 L 118.8 114.4 L 118.5 112.1 L 119.8 112.1 L 119.4 114.4 L 121.5 113.4 L 121.9 114.5 L 119.6 114.9 L 121.2 116.6 L 120.2 117.4 L 119.1 115.2 L 118.0 117.4 L 117.0 116.7 " fill="#191919"/>
<path class="atom-0" d="M 123.1 112.3 L 124.6 112.3 L 124.6 117.2 L 130.5 117.2 L 130.5 112.3 L 132.1 112.3 L 132.1 123.8 L 130.5 123.8 L 130.5 118.5 L 124.6 118.5 L 124.6 123.8 L 123.1 123.8 L 123.1 112.3 " fill="#191919"/>
<path class="atom-0" d="M 134.2 123.4 Q 134.5 122.6, 135.1 122.3 Q 135.8 121.8, 136.7 121.8 Q 137.9 121.8, 138.5 122.5 Q 139.1 123.1, 139.1 124.2 Q 139.1 125.3, 138.3 126.4 Q 137.5 127.4, 135.8 128.6 L 139.3 128.6 L 139.3 129.5 L 134.2 129.5 L 134.2 128.8 Q 135.6 127.8, 136.4 127.0 Q 137.3 126.3, 137.7 125.6 Q 138.1 124.9, 138.1 124.2 Q 138.1 123.5, 137.7 123.1 Q 137.3 122.7, 136.7 122.7 Q 136.1 122.7, 135.7 122.9 Q 135.3 123.2, 135.0 123.7 L 134.2 123.4 " fill="#191919"/>
<path class="atom-2" d="M 80.9 52.2 L 82.6 50.5 L 80.4 50.0 L 80.7 48.9 L 82.8 49.9 L 82.5 47.7 L 83.7 47.7 L 83.3 49.9 L 85.4 48.9 L 85.8 50.0 L 83.5 50.5 L 85.1 52.2 L 84.2 52.9 L 83.0 50.8 L 81.9 52.9 L 80.9 52.2 " fill="#191919"/>
<path class="atom-2" d="M 87.0 47.9 L 88.6 47.9 L 88.6 52.7 L 94.4 52.7 L 94.4 47.9 L 96.0 47.9 L 96.0 59.3 L 94.4 59.3 L 94.4 54.0 L 88.6 54.0 L 88.6 59.3 L 87.0 59.3 L 87.0 47.9 " fill="#191919"/>
<path class="atom-2" d="M 98.1 58.9 Q 98.4 58.2, 99.1 57.8 Q 99.7 57.4, 100.6 57.4 Q 101.8 57.4, 102.4 58.0 Q 103.1 58.6, 103.1 59.7 Q 103.1 60.9, 102.2 61.9 Q 101.4 63.0, 99.7 64.2 L 103.2 64.2 L 103.2 65.1 L 98.1 65.1 L 98.1 64.3 Q 99.5 63.3, 100.3 62.6 Q 101.2 61.8, 101.6 61.2 Q 102.0 60.5, 102.0 59.8 Q 102.0 59.1, 101.6 58.7 Q 101.3 58.3, 100.6 58.3 Q 100.0 58.3, 99.6 58.5 Q 99.2 58.8, 98.9 59.3 L 98.1 58.9 " fill="#191919"/>
<path class="atom-3" d="M 11.3 43.9 L 13.0 42.2 L 10.7 41.8 L 11.1 40.6 L 13.1 41.7 L 12.8 39.4 L 14.1 39.4 L 13.7 41.6 L 15.8 40.7 L 16.2 41.8 L 13.9 42.2 L 15.5 43.9 L 14.5 44.6 L 13.4 42.5 L 12.3 44.6 L 11.3 43.9 " fill="#191919"/>
<path class="atom-3" d="M 17.4 39.6 L 18.9 39.6 L 18.9 44.5 L 24.8 44.5 L 24.8 39.6 L 26.4 39.6 L 26.4 51.0 L 24.8 51.0 L 24.8 45.8 L 18.9 45.8 L 18.9 51.0 L 17.4 51.0 L 17.4 39.6 " fill="#191919"/>
<path class="atom-3" d="M 28.5 50.6 Q 28.8 49.9, 29.4 49.5 Q 30.1 49.1, 31.0 49.1 Q 32.2 49.1, 32.8 49.7 Q 33.4 50.4, 33.4 51.5 Q 33.4 52.6, 32.6 53.6 Q 31.8 54.7, 30.1 55.9 L 33.6 55.9 L 33.6 56.8 L 28.5 56.8 L 28.5 56.1 Q 29.9 55.1, 30.7 54.3 Q 31.6 53.6, 32.0 52.9 Q 32.4 52.2, 32.4 51.5 Q 32.4 50.8, 32.0 50.4 Q 31.6 50.0, 31.0 50.0 Q 30.4 50.0, 30.0 50.2 Q 29.6 50.5, 29.3 51.0 L 28.5 50.6 " fill="#191919"/>
<path class="atom-6" d="M 47.4 108.4 L 49.0 106.7 L 46.8 106.2 L 47.1 105.1 L 49.2 106.1 L 48.9 103.8 L 50.1 103.8 L 49.8 106.1 L 51.9 105.1 L 52.2 106.2 L 50.0 106.6 L 51.6 108.4 L 50.6 109.1 L 49.5 106.9 L 48.3 109.1 L 47.4 108.4 " fill="#191919"/>
<path class="atom-7" d="M 91.0 13.3 Q 91.0 10.6, 92.4 9.0 Q 93.7 7.5, 96.3 7.5 Q 98.8 7.5, 100.2 9.0 Q 101.5 10.6, 101.5 13.3 Q 101.5 16.1, 100.2 17.7 Q 98.8 19.3, 96.3 19.3 Q 93.8 19.3, 92.4 17.7 Q 91.0 16.1, 91.0 13.3 M 96.3 18.0 Q 98.0 18.0, 99.0 16.8 Q 99.9 15.6, 99.9 13.3 Q 99.9 11.1, 99.0 9.9 Q 98.0 8.8, 96.3 8.8 Q 94.5 8.8, 93.6 9.9 Q 92.6 11.1, 92.6 13.3 Q 92.6 15.6, 93.6 16.8 Q 94.5 18.0, 96.3 18.0 " fill="#FF0000"/>
<path class="legend" d="M 66.7 135.3 Q 67.7 135.3, 68.5 135.7 Q 69.2 136.2, 69.7 136.9 Q 70.1 137.7, 70.1 138.7 Q 70.1 139.8, 69.6 140.7 Q 69.1 141.5, 68.3 142.0 Q 67.4 142.5, 66.3 142.5 Q 64.3 142.5, 63.3 141.1 Q 62.2 139.8, 62.2 137.0 Q 62.2 134.0, 63.5 132.5 Q 64.8 130.9, 67.2 130.9 Q 67.9 130.9, 68.5 131.1 Q 69.1 131.2, 69.7 131.6 L 69.0 132.6 Q 68.2 132.2, 67.2 132.2 Q 65.6 132.2, 64.8 133.2 Q 64.0 134.3, 63.9 136.4 Q 64.4 135.9, 65.2 135.6 Q 65.9 135.3, 66.7 135.3 M 66.3 141.2 Q 66.9 141.2, 67.4 140.9 Q 67.9 140.5, 68.2 140.0 Q 68.5 139.4, 68.5 138.7 Q 68.5 137.7, 67.9 137.2 Q 67.4 136.6, 66.4 136.6 Q 65.7 136.6, 65.0 136.9 Q 64.3 137.1, 63.9 137.6 Q 63.9 139.5, 64.5 140.3 Q 65.1 141.2, 66.3 141.2 " fill="#000000"/>
<path class="legend" d="M 72.3 141.1 L 74.8 141.1 L 74.8 132.6 L 72.1 133.5 L 71.7 132.5 L 75.2 131.0 L 76.3 131.2 L 76.3 141.1 L 78.5 141.1 L 78.5 142.4 L 72.3 142.4 L 72.3 141.1 " fill="#000000"/>
<path class="legend" d="M 80.5 141.1 L 83.0 141.1 L 83.0 132.6 L 80.3 133.5 L 79.9 132.5 L 83.4 131.0 L 84.5 131.2 L 84.5 141.1 L 86.8 141.1 L 86.8 142.4 L 80.5 142.4 L 80.5 141.1 " fill="#000000"/>
</svg>