<svg xmlns="http://www.w3.org/2000/svg" xmlns:rdkit="http://www.rdkit.org/xml" xmlns:xlink="http://www.w3.org/1999/xlink" version="1.1" baseProfile="full" xml:space="preserve" width="150px" height="150px" viewBox="0 0 150 150">
<!-- END OF HEADER -->
<rect style="opacity:1.0;fill:#FFFFFF;stroke:none" width="150.0" height="150.0" x="0.0" y="0.0"> </rect>
<ellipse cx="119.1" cy="46.7" rx="5.3" ry="5.3" class="atom-1" style="fill:#E5E533;fill-rule:evenodd;stroke:#E5E533;stroke-width:1.0px;stroke-linecap:butt;stroke-linejoin:miter;stroke-opacity:1"/>
<ellipse cx="77.7" cy="66.9" rx="5.3" ry="5.3" class="atom-4" style="fill:#9999E5;fill-rule:evenodd;stroke:#9999E5;stroke-width:1.0px;stroke-linecap:butt;stroke-linejoin:miter;stroke-opacity:1"/>
<ellipse cx="51.1" cy="65.0" rx="5.3" ry="5.3" class="atom-8" style="fill:#E5E533;fill-rule:evenodd;stroke:#E5E533;stroke-width:1.0px;stroke-linecap:butt;stroke-linejoin:miter;stroke-opacity:1"/>
<ellipse cx="34.0" cy="85.4" rx="5.3" ry="5.3" class="atom-10" style="fill:#E5E533;fill-rule:evenodd;stroke:#E5E533;stroke-width:1.0px;stroke-linecap:butt;stroke-linejoin:miter;stroke-opacity:1"/>
<ellipse cx="37.0" cy="42.4" rx="5.3" ry="5.3" class="atom-12" style="fill:#E5E533;fill-rule:evenodd;stroke:#E5E533;stroke-width:1.0px;stroke-linecap:butt;stroke-linejoin:miter;stroke-opacity:1"/>
<path class="bond-0 atom-0 atom-1" d="M 126.7,66.8 L 116.8,46.5" style="fill:none;fill-rule:evenodd;stroke:#E5E5E5;stroke-width:1.4px;stroke-linecap:butt;stroke-linejoin:miter;stroke-opacity:1"/>
<path class="bond-0 atom-0 atom-1" d="M 130.3,65.0 L 120.4,44.8" style="fill:none;fill-rule:evenodd;stroke:#E5E5E5;stroke-width:1.4px;stroke-linecap:butt;stroke-linejoin:miter;stroke-opacity:1;stroke-dasharray:6,4"/>
<path class="bond-1 atom-2 atom-3" d="M 89.3,90.8 L 115.9,92.7" style="fill:none;fill-rule:evenodd;stroke:#000000;stroke-width:2.0px;stroke-linecap:butt;stroke-linejoin:miter;stroke-opacity:1"/>
<path class="bond-2 atom-2 atom-4" d="M 89.3,90.8 L 77.7,66.9" style="fill:none;fill-rule:evenodd;stroke:#000000;stroke-width:2.0px;stroke-linecap:butt;stroke-linejoin:miter;stroke-opacity:1"/>
<path class="bond-3 atom-3 atom-5" d="M 115.9,92.7 L 125.3,111.9" style="fill:none;fill-rule:evenodd;stroke:#E5E5E5;stroke-width:1.4px;stroke-linecap:butt;stroke-linejoin:miter;stroke-opacity:1"/>
<path class="bond-4 atom-6 atom-1" d="M 92.6,44.8 L 119.1,46.7" style="fill:none;fill-rule:evenodd;stroke:#000000;stroke-width:2.0px;stroke-linecap:butt;stroke-linejoin:miter;stroke-opacity:1"/>
<path class="bond-5 atom-6 atom-4" d="M 92.6,44.8 L 77.7,66.9" style="fill:none;fill-rule:evenodd;stroke:#000000;stroke-width:2.0px;stroke-linecap:butt;stroke-linejoin:miter;stroke-opacity:1"/>
<path class="bond-5 atom-6 atom-4" d="M 94.6,49.0 L 82.3,67.2" style="fill:none;fill-rule:evenodd;stroke:#000000;stroke-width:2.0px;stroke-linecap:butt;stroke-linejoin:miter;stroke-opacity:1"/>
<path class="bond-6 atom-7 atom-1" d="M 135.3,26.2 L 120.1,48.7" style="fill:none;fill-rule:evenodd;stroke:#E5E5E5;stroke-width:1.4px;stroke-linecap:butt;stroke-linejoin:miter;stroke-opacity:1"/>
<path class="bond-6 atom-7 atom-1" d="M 132.0,24.0 L 116.8,46.5" style="fill:none;fill-rule:evenodd;stroke:#E5E5E5;stroke-width:1.4px;stroke-linecap:butt;stroke-linejoin:miter;stroke-opacity:1;stroke-dasharray:6,4"/>
<path class="bond-7 atom-4 atom-8" d="M 77.7,66.9 L 51.1,65.0" style="fill:none;fill-rule:evenodd;stroke:#000000;stroke-width:2.0px;stroke-linecap:butt;stroke-linejoin:miter;stroke-opacity:1"/>
<path class="bond-8 atom-9 atom-10" d="M 11.3,74.1 L 31.0,82.1" style="fill:none;fill-rule:evenodd;stroke:#E5E5E5;stroke-width:1.4px;stroke-linecap:butt;stroke-linejoin:miter;stroke-opacity:1"/>
<path class="bond-8 atom-9 atom-10" d="M 9.8,77.8 L 29.5,85.8" style="fill:none;fill-rule:evenodd;stroke:#E5E5E5;stroke-width:1.4px;stroke-linecap:butt;stroke-linejoin:miter;stroke-opacity:1;stroke-dasharray:6,4"/>
<path class="bond-9 atom-11 atom-12" d="M 13.3,46.3 L 33.2,41.3" style="fill:none;fill-rule:evenodd;stroke:#E5E5E5;stroke-width:1.4px;stroke-linecap:butt;stroke-linejoin:miter;stroke-opacity:1"/>
<path class="bond-9 atom-11 atom-12" d="M 14.3,50.2 L 34.2,45.2" style="fill:none;fill-rule:evenodd;stroke:#E5E5E5;stroke-width:1.4px;stroke-linecap:butt;stroke-linejoin:miter;stroke-opacity:1;stroke-dasharray:6,4"/>
<path class="bond-10 atom-8 atom-10" d="M 51.1,65.0 L 44.4,73.0" style="fill:none;fill-rule:evenodd;stroke:#000000;stroke-width:2.0px;stroke-linecap:butt;stroke-linejoin:miter;stroke-opacity:1"/>
<path class="bond-10 atom-8 atom-10" d="M 44.4,73.0 L 37.7,81.0" style="fill:none;fill-rule:evenodd;stroke:#0000FF;stroke-width:2.0px;stroke-linecap:butt;stroke-linejoin:miter;stroke-opacity:1"/>
<path class="bond-10 atom-8 atom-10" d="M 48.0,62.5 L 41.3,70.4" style="fill:none;fill-rule:evenodd;stroke:#000000;stroke-width:2.0px;stroke-linecap:butt;stroke-linejoin:miter;stroke-opacity:1;stroke-dasharray:6,4"/>
<path class="bond-10 atom-8 atom-10" d="M 41.3,70.4 L 34.7,78.4" style="fill:none;fill-rule:evenodd;stroke:#0000FF;stroke-width:2.0px;stroke-linecap:butt;stroke-linejoin:miter;stroke-opacity:1;stroke-dasharray:6,4"/>
<path class="bond-11 atom-8 atom-12" d="M 51.1,65.0 L 45.6,56.2" style="fill:none;fill-rule:evenodd;stroke:#000000;stroke-width:2.0px;stroke-linecap:butt;stroke-linejoin:miter;stroke-opacity:1"/>
<path class="bond-11 atom-8 atom-12" d="M 45.6,56.2 L 40.0,47.3" style="fill:none;fill-rule:evenodd;stroke:#CCCC00;stroke-width:2.0px;stroke-linecap:butt;stroke-linejoin:miter;stroke-opacity:1"/>
<path class="bond-11 atom-8 atom-12" d="M 47.7,67.1 L 42.2,58.3" style="fill:none;fill-rule:evenodd;stroke:#000000;stroke-width:2.0px;stroke-linecap:butt;stroke-linejoin:miter;stroke-opacity:1;stroke-dasharray:6,4"/>
<path class="bond-11 atom-8 atom-12" d="M 42.2,58.3 L 36.6,49.4" style="fill:none;fill-rule:evenodd;stroke:#CCCC00;stroke-width:2.0px;stroke-linecap:butt;stroke-linejoin:miter;stroke-opacity:1;stroke-dasharray:6,4"/>
<path d="M 90.7,90.9 L 89.3,90.8 L 88.8,89.6" style="fill:none;stroke:#000000;stroke-width:2.0px;stroke-linecap:butt;stroke-linejoin:miter;stroke-opacity:1;"/>
<path d="M 115.2,92.6 L 115.9,92.7 L 116.1,93.2" style="fill:none;stroke:#000000;stroke-width:2.0px;stroke-linecap:butt;stroke-linejoin:miter;stroke-opacity:1;"/>
<path d="M 93.9,44.9 L 92.6,44.8 L 91.8,45.9" style="fill:none;stroke:#000000;stroke-width:2.0px;stroke-linecap:butt;stroke-linejoin:miter;stroke-opacity:1;"/>
<path class="atom-0" d="M 129.4 69.8 L 130.5 68.6 L 129.0 68.3 L 129.2 67.6 L 130.6 68.3 L 130.4 66.8 L 131.2 66.8 L 131.0 68.3 L 132.4 67.6 L 132.6 68.3 L 131.1 68.6 L 132.2 69.8 L 131.5 70.2 L 130.8 68.8 L 130.0 70.2 L 129.4 69.8 " fill="#191919"/>
<path class="atom-0" d="M 133.4 66.9 L 134.4 66.9 L 134.4 70.1 L 138.3 70.1 L 138.3 66.9 L 139.3 66.9 L 139.3 74.4 L 138.3 74.4 L 138.3 71.0 L 134.4 71.0 L 134.4 74.4 L 133.4 74.4 L 133.4 66.9 " fill="#191919"/>
<path class="atom-5" d="M 126.2 115.8 L 127.3 114.7 L 125.8 114.4 L 126.0 113.6 L 127.4 114.3 L 127.2 112.8 L 128.0 112.8 L 127.8 114.3 L 129.1 113.6 L 129.4 114.4 L 127.9 114.6 L 128.9 115.8 L 128.3 116.2 L 127.6 114.8 L 126.8 116.2 L 126.2 115.8 " fill="#191919"/>
<path class="atom-7" d="M 132.6 23.8 L 133.7 22.6 L 132.2 22.3 L 132.5 21.6 L 133.8 22.2 L 133.6 20.8 L 134.4 20.8 L 134.2 22.2 L 135.6 21.6 L 135.8 22.3 L 134.3 22.6 L 135.4 23.7 L 134.7 24.2 L 134.0 22.8 L 133.2 24.2 L 132.6 23.8 " fill="#191919"/>
<path class="atom-7" d="M 136.6 20.9 L 137.6 20.9 L 137.6 24.1 L 141.5 24.1 L 141.5 20.9 L 142.5 20.9 L 142.5 28.4 L 141.5 28.4 L 141.5 24.9 L 137.6 24.9 L 137.6 28.4 L 136.6 28.4 L 136.6 20.9 " fill="#191919"/>
<path class="atom-9" d="M 7.9 74.6 L 9.0 73.5 L 7.5 73.2 L 7.7 72.4 L 9.1 73.1 L 8.9 71.6 L 9.7 71.6 L 9.5 73.1 L 10.8 72.5 L 11.1 73.2 L 9.6 73.5 L 10.6 74.6 L 10.0 75.1 L 9.3 73.7 L 8.5 75.1 L 7.9 74.6 " fill="#191919"/>
<path class="atom-10" d="M 32.3 81.7 L 34.8 85.7 Q 35.0 86.1, 35.4 86.8 Q 35.8 87.5, 35.8 87.5 L 35.8 81.7 L 36.8 81.7 L 36.8 89.2 L 35.8 89.2 L 33.2 84.8 Q 32.8 84.3, 32.5 83.7 Q 32.2 83.2, 32.1 83.0 L 32.1 89.2 L 31.1 89.2 L 31.1 81.7 L 32.3 81.7 " fill="#0000FF"/>
<path class="atom-11" d="M 9.7 48.0 L 10.8 46.9 L 9.4 46.6 L 9.6 45.9 L 10.9 46.5 L 10.7 45.1 L 11.5 45.1 L 11.3 46.5 L 12.7 45.9 L 12.9 46.6 L 11.4 46.9 L 12.5 48.0 L 11.9 48.5 L 11.1 47.1 L 10.4 48.5 L 9.7 48.0 " fill="#191919"/>
<path class="atom-12" d="M 34.9 45.0 Q 34.9 45.1, 35.3 45.2 Q 35.6 45.4, 36.0 45.5 Q 36.4 45.5, 36.8 45.5 Q 37.5 45.5, 37.9 45.2 Q 38.3 44.9, 38.3 44.2 Q 38.3 43.8, 38.1 43.6 Q 37.9 43.3, 37.6 43.2 Q 37.3 43.0, 36.8 42.9 Q 36.1 42.7, 35.7 42.5 Q 35.3 42.3, 35.0 41.9 Q 34.7 41.5, 34.7 40.8 Q 34.7 39.9, 35.4 39.3 Q 36.0 38.7, 37.3 38.7 Q 38.2 38.7, 39.2 39.1 L 38.9 39.9 Q 38.0 39.5, 37.3 39.5 Q 36.6 39.5, 36.2 39.9 Q 35.8 40.2, 35.8 40.7 Q 35.8 41.1, 36.0 41.3 Q 36.2 41.6, 36.5 41.7 Q 36.8 41.8, 37.3 42.0 Q 38.0 42.2, 38.4 42.4 Q 38.8 42.6, 39.1 43.1 Q 39.4 43.5, 39.4 44.2 Q 39.4 45.3, 38.7 45.9 Q 38.0 46.4, 36.8 46.4 Q 36.2 46.4, 35.7 46.3 Q 35.2 46.1, 34.6 45.9 L 34.9 45.0 " fill="#CCCC00"/>
<path class="legend" d="M 66.2 135.3 Q 67.2 135.3, 68.0 135.7 Q 68.8 136.2, 69.2 136.9 Q 69.7 137.7, 69.7 138.7 Q 69.7 139.8, 69.2 140.7 Q 68.7 141.5, 67.8 142.0 Q 67.0 142.5, 65.9 142.5 Q 63.8 142.5, 62.8 141.1 Q 61.8 139.8, 61.8 137.0 Q 61.8 134.0, 63.1 132.5 Q 64.3 130.9, 66.7 130.9 Q 67.4 130.9, 68.0 131.1 Q 68.6 131.2, 69.2 131.6 L 68.6 132.6 Q 67.8 132.2, 66.7 132.2 Q 65.1 132.2, 64.3 133.2 Q 63.5 134.3, 63.4 136.4 Q 64.0 135.9, 64.7 135.6 Q 65.5 135.3, 66.2 135.3 M 65.9 141.2 Q 66.5 141.2, 67.0 140.9 Q 67.5 140.5, 67.8 140.0 Q 68.1 139.4, 68.1 138.7 Q 68.1 137.7, 67.5 137.2 Q 66.9 136.6, 65.9 136.6 Q 65.3 136.6, 64.6 136.9 Q 63.9 137.1, 63.4 137.6 Q 63.5 139.5, 64.1 140.3 Q 64.7 141.2, 65.9 141.2 " fill="#000000"/>
<path class="legend" d="M 71.9 141.1 L 74.4 141.1 L 74.4 132.6 L 71.7 133.5 L 71.3 132.5 L 74.8 131.0 L 75.9 131.2 L 75.9 141.1 L 78.1 141.1 L 78.1 142.4 L 71.9 142.4 L 71.9 141.1 " fill="#000000"/>
<path class="legend" d="M 83.6 135.3 Q 84.6 135.3, 85.5 135.7 Q 86.3 136.1, 86.7 136.9 Q 87.2 137.7, 87.2 138.8 Q 87.2 140.0, 86.6 140.8 Q 86.1 141.6, 85.1 142.1 Q 84.2 142.5, 83.1 142.5 Q 82.1 142.5, 81.1 142.1 Q 80.2 141.7, 79.5 141.0 L 80.5 140.0 Q 81.0 140.6, 81.7 140.9 Q 82.5 141.2, 83.2 141.2 Q 84.2 141.2, 84.9 140.6 Q 85.6 140.0, 85.6 138.8 Q 85.6 137.6, 84.9 137.1 Q 84.2 136.5, 83.1 136.5 Q 82.1 136.5, 81.0 136.9 L 80.1 136.5 L 80.7 131.0 L 86.5 131.0 L 86.3 132.3 L 82.0 132.3 L 81.6 135.7 Q 82.7 135.3, 83.6 135.3 " fill="#000000"/>
</svg>