<svg xmlns="http://www.w3.org/2000/svg" xmlns:rdkit="http://www.rdkit.org/xml" xmlns:xlink="http://www.w3.org/1999/xlink" version="1.1" baseProfile="full" xml:space="preserve" width="150px" height="150px" viewBox="0 0 150 150">
<!-- END OF HEADER -->
<rect style="opacity:1.0;fill:#FFFFFF;stroke:none" width="150.0" height="150.0" x="0.0" y="0.0"> </rect>
<ellipse cx="69.6" cy="63.0" rx="4.7" ry="4.7" class="atom-3" style="fill:#9999E5;fill-rule:evenodd;stroke:#9999E5;stroke-width:1.0px;stroke-linecap:butt;stroke-linejoin:miter;stroke-opacity:1"/>
<ellipse cx="32.3" cy="69.4" rx="4.7" ry="4.7" class="atom-5" style="fill:#CCCCCC;fill-rule:evenodd;stroke:#CCCCCC;stroke-width:1.0px;stroke-linecap:butt;stroke-linejoin:miter;stroke-opacity:1"/>
<ellipse cx="48.6" cy="52.6" rx="4.7" ry="4.7" class="atom-6" style="fill:#CCCCCC;fill-rule:evenodd;stroke:#CCCCCC;stroke-width:1.0px;stroke-linecap:butt;stroke-linejoin:miter;stroke-opacity:1"/>
<ellipse cx="66.2" cy="86.2" rx="4.7" ry="4.7" class="atom-7" style="fill:#CCCCCC;fill-rule:evenodd;stroke:#CCCCCC;stroke-width:1.0px;stroke-linecap:butt;stroke-linejoin:miter;stroke-opacity:1"/>
<ellipse cx="43.2" cy="90.1" rx="4.7" ry="4.7" class="atom-9" style="fill:#CCCCCC;fill-rule:evenodd;stroke:#CCCCCC;stroke-width:1.0px;stroke-linecap:butt;stroke-linejoin:miter;stroke-opacity:1"/>
<path class="bond-0 atom-0 atom-1" d="M 130.0,54.1 L 114.0,62.5" style="fill:none;fill-rule:evenodd;stroke:#E5E5E5;stroke-width:1.2px;stroke-linecap:butt;stroke-linejoin:miter;stroke-opacity:1"/>
<path class="bond-1 atom-2 atom-3" d="M 90.3,52.1 L 69.6,63.0" style="fill:none;fill-rule:evenodd;stroke:#000000;stroke-width:2.0px;stroke-linecap:butt;stroke-linejoin:miter;stroke-opacity:1"/>
<path class="bond-1 atom-2 atom-3" d="M 90.2,56.1 L 72.8,65.3" style="fill:none;fill-rule:evenodd;stroke:#000000;stroke-width:2.0px;stroke-linecap:butt;stroke-linejoin:miter;stroke-opacity:1"/>
<path class="bond-2 atom-2 atom-1" d="M 90.3,52.1 L 98.3,57.1" style="fill:none;fill-rule:evenodd;stroke:#000000;stroke-width:2.0px;stroke-linecap:butt;stroke-linejoin:miter;stroke-opacity:1"/>
<path class="bond-2 atom-2 atom-1" d="M 98.3,57.1 L 106.3,62.1" style="fill:none;fill-rule:evenodd;stroke:#FF0000;stroke-width:2.0px;stroke-linecap:butt;stroke-linejoin:miter;stroke-opacity:1"/>
<path class="bond-3 atom-4 atom-5" d="M 11.4,66.4 L 29.0,68.9" style="fill:none;fill-rule:evenodd;stroke:#E5E5E5;stroke-width:1.2px;stroke-linecap:butt;stroke-linejoin:miter;stroke-opacity:1"/>
<path class="bond-4 atom-3 atom-6" d="M 69.6,63.0 L 48.6,52.6" style="fill:none;fill-rule:evenodd;stroke:#000000;stroke-width:2.0px;stroke-linecap:butt;stroke-linejoin:miter;stroke-opacity:1"/>
<path class="bond-5 atom-3 atom-7" d="M 69.6,63.0 L 68.2,72.5" style="fill:none;fill-rule:evenodd;stroke:#000000;stroke-width:2.0px;stroke-linecap:butt;stroke-linejoin:miter;stroke-opacity:1"/>
<path class="bond-5 atom-3 atom-7" d="M 68.2,72.5 L 66.8,82.1" style="fill:none;fill-rule:evenodd;stroke:#CCCC00;stroke-width:2.0px;stroke-linecap:butt;stroke-linejoin:miter;stroke-opacity:1"/>
<path class="bond-6 atom-6 atom-5" d="M 48.6,52.6 L 42.1,59.3" style="fill:none;fill-rule:evenodd;stroke:#000000;stroke-width:2.0px;stroke-linecap:butt;stroke-linejoin:miter;stroke-opacity:1"/>
<path class="bond-6 atom-6 atom-5" d="M 42.1,59.3 L 35.5,66.0" style="fill:none;fill-rule:evenodd;stroke:#0000FF;stroke-width:2.0px;stroke-linecap:butt;stroke-linejoin:miter;stroke-opacity:1"/>
<path class="bond-7 atom-6 atom-8" d="M 50.5,53.6 L 48.8,43.5" style="fill:none;fill-rule:evenodd;stroke:#000000;stroke-width:2.0px;stroke-linecap:butt;stroke-linejoin:miter;stroke-opacity:1"/>
<path class="bond-7 atom-6 atom-8" d="M 48.8,43.5 L 47.1,33.5" style="fill:none;fill-rule:evenodd;stroke:#FF0000;stroke-width:2.0px;stroke-linecap:butt;stroke-linejoin:miter;stroke-opacity:1"/>
<path class="bond-7 atom-6 atom-8" d="M 47.1,54.2 L 45.3,44.1" style="fill:none;fill-rule:evenodd;stroke:#000000;stroke-width:2.0px;stroke-linecap:butt;stroke-linejoin:miter;stroke-opacity:1"/>
<path class="bond-7 atom-6 atom-8" d="M 45.3,44.1 L 43.6,34.1" style="fill:none;fill-rule:evenodd;stroke:#FF0000;stroke-width:2.0px;stroke-linecap:butt;stroke-linejoin:miter;stroke-opacity:1"/>
<path class="bond-8 atom-9 atom-5" d="M 43.2,90.1 L 34.4,73.5" style="fill:none;fill-rule:evenodd;stroke:#E5E5E5;stroke-width:1.2px;stroke-linecap:butt;stroke-linejoin:miter;stroke-opacity:1"/>
<path class="bond-9 atom-9 atom-10" d="M 42.2,88.2 L 33.3,106.2" style="fill:none;fill-rule:evenodd;stroke:#E5E5E5;stroke-width:1.2px;stroke-linecap:butt;stroke-linejoin:miter;stroke-opacity:1"/>
<path class="bond-9 atom-9 atom-10" d="M 45.3,89.8 L 36.4,107.8" style="fill:none;fill-rule:evenodd;stroke:#E5E5E5;stroke-width:1.2px;stroke-linecap:butt;stroke-linejoin:miter;stroke-opacity:1"/>
<path class="bond-10 atom-9 atom-7" d="M 43.2,90.1 L 53.3,88.4" style="fill:none;fill-rule:evenodd;stroke:#000000;stroke-width:2.0px;stroke-linecap:butt;stroke-linejoin:miter;stroke-opacity:1"/>
<path class="bond-10 atom-9 atom-7" d="M 53.3,88.4 L 63.3,86.7" style="fill:none;fill-rule:evenodd;stroke:#CCCC00;stroke-width:2.0px;stroke-linecap:butt;stroke-linejoin:miter;stroke-opacity:1"/>
<path d="M 89.3,52.6 L 90.3,52.1 L 90.7,52.3" style="fill:none;stroke:#000000;stroke-width:2.0px;stroke-linecap:butt;stroke-linejoin:miter;stroke-opacity:1;"/>
<path d="M 49.6,53.1 L 48.6,52.6 L 48.3,53.0" style="fill:none;stroke:#000000;stroke-width:2.0px;stroke-linecap:butt;stroke-linejoin:miter;stroke-opacity:1;"/>
<path d="M 42.9,89.7 L 43.2,90.1 L 43.4,90.1" style="fill:none;stroke:#E5E5E5;stroke-width:1.2px;stroke-linecap:butt;stroke-linejoin:miter;stroke-opacity:1;"/>
<path class="atom-0" d="M 129.6 52.9 L 130.6 51.9 L 129.3 51.6 L 129.5 51.0 L 130.7 51.6 L 130.5 50.3 L 131.2 50.3 L 131.0 51.6 L 132.2 51.0 L 132.4 51.6 L 131.1 51.9 L 132.1 52.9 L 131.5 53.3 L 130.8 52.1 L 130.2 53.3 L 129.6 52.9 " fill="#191919"/>
<path class="atom-0" d="M 133.1 50.4 L 134.0 50.4 L 134.0 53.2 L 137.4 53.2 L 137.4 50.4 L 138.3 50.4 L 138.3 57.0 L 137.4 57.0 L 137.4 54.0 L 134.0 54.0 L 134.0 57.0 L 133.1 57.0 L 133.1 50.4 " fill="#191919"/>
<path class="atom-0" d="M 139.6 56.8 Q 139.7 56.4, 140.1 56.1 Q 140.5 55.9, 141.0 55.9 Q 141.7 55.9, 142.1 56.3 Q 142.4 56.6, 142.4 57.3 Q 142.4 57.9, 141.9 58.5 Q 141.5 59.1, 140.5 59.8 L 142.5 59.8 L 142.5 60.3 L 139.6 60.3 L 139.6 59.9 Q 140.4 59.3, 140.8 58.9 Q 141.3 58.5, 141.6 58.1 Q 141.8 57.7, 141.8 57.3 Q 141.8 56.9, 141.6 56.6 Q 141.4 56.4, 141.0 56.4 Q 140.7 56.4, 140.4 56.5 Q 140.2 56.7, 140.0 57.0 L 139.6 56.8 " fill="#191919"/>
<path class="atom-1" d="M 107.1 64.6 Q 107.1 63.0, 107.9 62.1 Q 108.7 61.2, 110.1 61.2 Q 111.6 61.2, 112.4 62.1 Q 113.2 63.0, 113.2 64.6 Q 113.2 66.2, 112.4 67.1 Q 111.6 68.0, 110.1 68.0 Q 108.7 68.0, 107.9 67.1 Q 107.1 66.2, 107.1 64.6 M 110.1 67.3 Q 111.1 67.3, 111.7 66.6 Q 112.2 65.9, 112.2 64.6 Q 112.2 63.3, 111.7 62.6 Q 111.1 62.0, 110.1 62.0 Q 109.1 62.0, 108.6 62.6 Q 108.0 63.3, 108.0 64.6 Q 108.0 65.9, 108.6 66.6 Q 109.1 67.3, 110.1 67.3 " fill="#FF0000"/>
<path class="atom-4" d="M 7.8 65.3 L 8.8 64.3 L 7.5 64.1 L 7.7 63.4 L 8.9 64.0 L 8.7 62.7 L 9.4 62.7 L 9.2 64.0 L 10.4 63.4 L 10.6 64.1 L 9.3 64.3 L 10.3 65.3 L 9.7 65.7 L 9.0 64.5 L 8.4 65.7 L 7.8 65.3 " fill="#191919"/>
<path class="atom-5" d="M 30.8 66.1 L 33.0 69.6 Q 33.2 70.0, 33.5 70.6 Q 33.9 71.2, 33.9 71.2 L 33.9 66.1 L 34.8 66.1 L 34.8 72.7 L 33.9 72.7 L 31.5 68.9 Q 31.3 68.4, 31.0 67.9 Q 30.7 67.4, 30.6 67.2 L 30.6 72.7 L 29.7 72.7 L 29.7 66.1 L 30.8 66.1 " fill="#0000FF"/>
<path class="atom-7" d="M 64.4 88.4 Q 64.4 88.5, 64.8 88.6 Q 65.1 88.7, 65.4 88.8 Q 65.8 88.9, 66.1 88.9 Q 66.7 88.9, 67.1 88.6 Q 67.4 88.3, 67.4 87.7 Q 67.4 87.4, 67.3 87.2 Q 67.1 86.9, 66.8 86.8 Q 66.5 86.7, 66.1 86.5 Q 65.5 86.4, 65.1 86.2 Q 64.8 86.0, 64.5 85.7 Q 64.3 85.3, 64.3 84.7 Q 64.3 83.9, 64.8 83.4 Q 65.4 82.9, 66.5 82.9 Q 67.3 82.9, 68.2 83.2 L 67.9 83.9 Q 67.1 83.6, 66.5 83.6 Q 65.9 83.6, 65.5 83.9 Q 65.2 84.1, 65.2 84.6 Q 65.2 85.0, 65.4 85.2 Q 65.6 85.4, 65.8 85.5 Q 66.1 85.6, 66.5 85.8 Q 67.1 86.0, 67.5 86.2 Q 67.9 86.3, 68.1 86.7 Q 68.4 87.1, 68.4 87.7 Q 68.4 88.7, 67.8 89.2 Q 67.1 89.6, 66.1 89.6 Q 65.5 89.6, 65.1 89.5 Q 64.6 89.4, 64.1 89.2 L 64.4 88.4 " fill="#CCCC00"/>
<path class="atom-8" d="M 41.6 29.6 Q 41.6 28.0, 42.4 27.1 Q 43.1 26.2, 44.6 26.2 Q 46.1 26.2, 46.9 27.1 Q 47.7 28.0, 47.7 29.6 Q 47.7 31.2, 46.9 32.1 Q 46.1 33.0, 44.6 33.0 Q 43.2 33.0, 42.4 32.1 Q 41.6 31.2, 41.6 29.6 M 44.6 32.3 Q 45.6 32.3, 46.2 31.6 Q 46.7 30.9, 46.7 29.6 Q 46.7 28.3, 46.2 27.6 Q 45.6 26.9, 44.6 26.9 Q 43.6 26.9, 43.0 27.6 Q 42.5 28.3, 42.5 29.6 Q 42.5 30.9, 43.0 31.6 Q 43.6 32.3, 44.6 32.3 " fill="#FF0000"/>
<path class="atom-10" d="M 31.6 110.4 L 32.5 109.4 L 31.2 109.2 L 31.4 108.5 L 32.6 109.1 L 32.5 107.8 L 33.2 107.8 L 33.0 109.1 L 34.2 108.5 L 34.4 109.2 L 33.1 109.4 L 34.0 110.4 L 33.4 110.8 L 32.8 109.6 L 32.1 110.8 L 31.6 110.4 " fill="#191919"/>
<path class="legend" d="M 65.6 135.3 Q 66.6 135.3, 67.4 135.7 Q 68.1 136.1, 68.6 136.9 Q 69.0 137.7, 69.0 138.7 Q 69.0 139.8, 68.5 140.7 Q 68.0 141.5, 67.2 142.0 Q 66.3 142.5, 65.2 142.5 Q 63.2 142.5, 62.2 141.1 Q 61.1 139.7, 61.1 137.0 Q 61.1 134.0, 62.4 132.5 Q 63.7 130.9, 66.1 130.9 Q 66.8 130.9, 67.4 131.0 Q 68.0 131.2, 68.6 131.5 L 67.9 132.6 Q 67.1 132.2, 66.1 132.2 Q 64.5 132.2, 63.7 133.2 Q 62.9 134.2, 62.8 136.4 Q 63.3 135.8, 64.1 135.6 Q 64.8 135.3, 65.6 135.3 M 65.2 141.2 Q 65.8 141.2, 66.3 140.8 Q 66.8 140.5, 67.1 140.0 Q 67.4 139.4, 67.4 138.7 Q 67.4 137.7, 66.8 137.1 Q 66.3 136.5, 65.3 136.5 Q 64.6 136.5, 63.9 136.8 Q 63.2 137.1, 62.8 137.6 Q 62.8 139.5, 63.4 140.3 Q 64.0 141.2, 65.2 141.2 " fill="#000000"/>
<path class="legend" d="M 76.1 136.4 Q 77.2 136.7, 77.7 137.4 Q 78.3 138.1, 78.3 139.2 Q 78.3 140.2, 77.8 140.9 Q 77.3 141.7, 76.4 142.1 Q 75.6 142.5, 74.4 142.5 Q 73.2 142.5, 72.3 142.1 Q 71.4 141.7, 70.7 140.8 L 71.6 139.9 Q 72.3 140.6, 72.9 140.9 Q 73.5 141.2, 74.4 141.2 Q 75.4 141.2, 76.1 140.7 Q 76.7 140.1, 76.7 139.2 Q 76.7 138.1, 76.0 137.6 Q 75.4 137.0, 74.0 137.0 L 73.2 137.0 L 73.2 135.9 L 73.9 135.9 Q 75.1 135.9, 75.8 135.3 Q 76.4 134.8, 76.4 133.8 Q 76.4 133.0, 75.9 132.6 Q 75.3 132.2, 74.4 132.2 Q 73.5 132.2, 72.9 132.5 Q 72.3 132.8, 71.9 133.7 L 70.8 133.1 Q 71.2 132.1, 72.1 131.5 Q 73.1 130.9, 74.4 130.9 Q 76.1 130.9, 77.1 131.7 Q 78.0 132.5, 78.0 133.8 Q 78.0 134.7, 77.5 135.3 Q 77.0 136.0, 76.1 136.4 " fill="#000000"/>
<path class="legend" d="M 83.8 130.9 Q 85.8 130.9, 86.8 132.3 Q 87.9 133.6, 87.9 136.3 Q 87.9 139.3, 86.6 140.9 Q 85.3 142.5, 82.9 142.5 Q 82.2 142.5, 81.6 142.3 Q 81.0 142.1, 80.4 141.8 L 81.1 140.7 Q 81.9 141.2, 82.9 141.2 Q 84.5 141.2, 85.3 140.2 Q 86.1 139.1, 86.2 137.0 Q 85.7 137.5, 84.9 137.8 Q 84.2 138.1, 83.4 138.1 Q 82.4 138.1, 81.6 137.7 Q 80.9 137.2, 80.4 136.4 Q 80.0 135.7, 80.0 134.7 Q 80.0 133.6, 80.5 132.7 Q 81.0 131.8, 81.8 131.4 Q 82.7 130.9, 83.8 130.9 M 81.6 134.6 Q 81.6 135.7, 82.2 136.2 Q 82.7 136.8, 83.7 136.8 Q 84.4 136.8, 85.1 136.5 Q 85.8 136.2, 86.2 135.8 Q 86.2 133.9, 85.6 133.0 Q 85.0 132.2, 83.8 132.2 Q 83.2 132.2, 82.7 132.5 Q 82.2 132.8, 81.9 133.4 Q 81.6 134.0, 81.6 134.6 " fill="#000000"/>
</svg>