<svg xmlns="http://www.w3.org/2000/svg" xmlns:rdkit="http://www.rdkit.org/xml" xmlns:xlink="http://www.w3.org/1999/xlink" version="1.1" baseProfile="full" xml:space="preserve" width="150px" height="150px" viewBox="0 0 150 150">
<!-- END OF HEADER -->
<rect style="opacity:1.0;fill:#FFFFFF;stroke:none" width="150.0" height="150.0" x="0.0" y="0.0"> </rect>
<ellipse cx="41.4" cy="64.3" rx="5.7" ry="5.7" class="atom-1" style="fill:#E5E533;fill-rule:evenodd;stroke:#E5E533;stroke-width:1.0px;stroke-linecap:butt;stroke-linejoin:miter;stroke-opacity:1"/>
<ellipse cx="136.8" cy="65.2" rx="5.7" ry="5.7" class="atom-2" style="fill:#E5E533;fill-rule:evenodd;stroke:#E5E533;stroke-width:1.0px;stroke-linecap:butt;stroke-linejoin:miter;stroke-opacity:1"/>
<ellipse cx="115.8" cy="45.8" rx="5.7" ry="5.7" class="atom-3" style="fill:#E5E533;fill-rule:evenodd;stroke:#E5E533;stroke-width:1.0px;stroke-linecap:butt;stroke-linejoin:miter;stroke-opacity:1"/>
<ellipse cx="124.8" cy="91.2" rx="5.7" ry="5.7" class="atom-4" style="fill:#E5E533;fill-rule:evenodd;stroke:#E5E533;stroke-width:1.0px;stroke-linecap:butt;stroke-linejoin:miter;stroke-opacity:1"/>
<ellipse cx="90.8" cy="59.8" rx="5.7" ry="5.7" class="atom-5" style="fill:#9999E5;fill-rule:evenodd;stroke:#9999E5;stroke-width:1.0px;stroke-linecap:butt;stroke-linejoin:miter;stroke-opacity:1"/>
<ellipse cx="96.3" cy="87.8" rx="5.7" ry="5.7" class="atom-8" style="fill:#E5E533;fill-rule:evenodd;stroke:#E5E533;stroke-width:1.0px;stroke-linecap:butt;stroke-linejoin:miter;stroke-opacity:1"/>
<path class="bond-0 atom-0 atom-1" d="M 41.4,87.9 L 39.1,63.2" style="fill:none;fill-rule:evenodd;stroke:#E5E5E5;stroke-width:1.5px;stroke-linecap:butt;stroke-linejoin:miter;stroke-opacity:1"/>
<path class="bond-0 atom-0 atom-1" d="M 45.6,87.5 L 43.4,62.8" style="fill:none;fill-rule:evenodd;stroke:#E5E5E5;stroke-width:1.5px;stroke-linecap:butt;stroke-linejoin:miter;stroke-opacity:1;stroke-dasharray:6,4"/>
<path class="bond-1 atom-2 atom-3" d="M 136.8,65.2 L 115.8,45.8" style="fill:none;fill-rule:evenodd;stroke:#000000;stroke-width:2.0px;stroke-linecap:butt;stroke-linejoin:miter;stroke-opacity:1"/>
<path class="bond-1 atom-2 atom-3" d="M 131.6,66.3 L 115.1,51.0" style="fill:none;fill-rule:evenodd;stroke:#000000;stroke-width:2.0px;stroke-linecap:butt;stroke-linejoin:miter;stroke-opacity:1"/>
<path class="bond-2 atom-2 atom-4" d="M 136.8,65.2 L 127.1,86.2" style="fill:none;fill-rule:evenodd;stroke:#E5E5E5;stroke-width:1.5px;stroke-linecap:butt;stroke-linejoin:miter;stroke-opacity:1"/>
<path class="bond-3 atom-3 atom-5" d="M 115.8,45.8 L 105.3,51.6" style="fill:none;fill-rule:evenodd;stroke:#000000;stroke-width:2.0px;stroke-linecap:butt;stroke-linejoin:miter;stroke-opacity:1"/>
<path class="bond-3 atom-3 atom-5" d="M 105.3,51.6 L 94.8,57.5" style="fill:none;fill-rule:evenodd;stroke:#0000FF;stroke-width:2.0px;stroke-linecap:butt;stroke-linejoin:miter;stroke-opacity:1"/>
<path class="bond-4 atom-6 atom-1" d="M 20.4,52.2 L 43.4,62.8" style="fill:none;fill-rule:evenodd;stroke:#E5E5E5;stroke-width:1.5px;stroke-linecap:butt;stroke-linejoin:miter;stroke-opacity:1"/>
<path class="bond-4 atom-6 atom-1" d="M 18.6,56.1 L 41.6,66.7" style="fill:none;fill-rule:evenodd;stroke:#E5E5E5;stroke-width:1.5px;stroke-linecap:butt;stroke-linejoin:miter;stroke-opacity:1;stroke-dasharray:6,4"/>
<path class="bond-5 atom-7 atom-1" d="M 64.8,47.7 L 41.4,64.3" style="fill:none;fill-rule:evenodd;stroke:#000000;stroke-width:2.0px;stroke-linecap:butt;stroke-linejoin:miter;stroke-opacity:1"/>
<path class="bond-6 atom-7 atom-5" d="M 64.8,47.7 L 75.7,52.8" style="fill:none;fill-rule:evenodd;stroke:#000000;stroke-width:2.0px;stroke-linecap:butt;stroke-linejoin:miter;stroke-opacity:1"/>
<path class="bond-6 atom-7 atom-5" d="M 75.7,52.8 L 86.7,57.9" style="fill:none;fill-rule:evenodd;stroke:#0000FF;stroke-width:2.0px;stroke-linecap:butt;stroke-linejoin:miter;stroke-opacity:1"/>
<path class="bond-7 atom-8 atom-4" d="M 96.3,87.8 L 108.5,89.3" style="fill:none;fill-rule:evenodd;stroke:#000000;stroke-width:2.0px;stroke-linecap:butt;stroke-linejoin:miter;stroke-opacity:1"/>
<path class="bond-7 atom-8 atom-4" d="M 108.5,89.3 L 120.7,90.7" style="fill:none;fill-rule:evenodd;stroke:#0000FF;stroke-width:2.0px;stroke-linecap:butt;stroke-linejoin:miter;stroke-opacity:1"/>
<path class="bond-7 atom-8 atom-4" d="M 99.9,83.9 L 110.6,85.2" style="fill:none;fill-rule:evenodd;stroke:#000000;stroke-width:2.0px;stroke-linecap:butt;stroke-linejoin:miter;stroke-opacity:1"/>
<path class="bond-7 atom-8 atom-4" d="M 110.6,85.2 L 121.3,86.5" style="fill:none;fill-rule:evenodd;stroke:#0000FF;stroke-width:2.0px;stroke-linecap:butt;stroke-linejoin:miter;stroke-opacity:1"/>
<path class="bond-8 atom-8 atom-5" d="M 96.3,87.8 L 94.0,76.3" style="fill:none;fill-rule:evenodd;stroke:#000000;stroke-width:2.0px;stroke-linecap:butt;stroke-linejoin:miter;stroke-opacity:1"/>
<path class="bond-8 atom-8 atom-5" d="M 94.0,76.3 L 91.8,64.8" style="fill:none;fill-rule:evenodd;stroke:#0000FF;stroke-width:2.0px;stroke-linecap:butt;stroke-linejoin:miter;stroke-opacity:1"/>
<path d="M 136.2,64.7 L 136.8,65.2 L 136.5,65.8" style="fill:none;stroke:#000000;stroke-width:2.0px;stroke-linecap:butt;stroke-linejoin:miter;stroke-opacity:1;"/>
<path d="M 116.8,46.7 L 115.8,45.8 L 115.2,46.1" style="fill:none;stroke:#000000;stroke-width:2.0px;stroke-linecap:butt;stroke-linejoin:miter;stroke-opacity:1;"/>
<path d="M 63.6,48.6 L 64.8,47.7 L 65.3,48.0" style="fill:none;stroke:#000000;stroke-width:2.0px;stroke-linecap:butt;stroke-linejoin:miter;stroke-opacity:1;"/>
<path d="M 96.9,87.9 L 96.3,87.8 L 96.2,87.3" style="fill:none;stroke:#000000;stroke-width:2.0px;stroke-linecap:butt;stroke-linejoin:miter;stroke-opacity:1;"/>
<path class="atom-0" d="M 42.4 91.9 L 43.6 90.7 L 42.0 90.3 L 42.3 89.5 L 43.7 90.3 L 43.5 88.7 L 44.4 88.7 L 44.2 90.3 L 45.6 89.6 L 45.9 90.3 L 44.3 90.6 L 45.4 91.9 L 44.7 92.4 L 43.9 90.9 L 43.1 92.4 L 42.4 91.9 " fill="#191919"/>
<path class="atom-0" d="M 46.7 88.8 L 47.8 88.8 L 47.8 92.2 L 52.0 92.2 L 52.0 88.8 L 53.1 88.8 L 53.1 96.9 L 52.0 96.9 L 52.0 93.2 L 47.8 93.2 L 47.8 96.9 L 46.7 96.9 L 46.7 88.8 " fill="#191919"/>
<path class="atom-4" d="M 123.0 87.2 L 125.6 91.5 Q 125.9 91.9, 126.3 92.7 Q 126.7 93.4, 126.8 93.5 L 126.8 87.2 L 127.8 87.2 L 127.8 95.3 L 126.7 95.3 L 123.9 90.6 Q 123.5 90.0, 123.2 89.4 Q 122.9 88.8, 122.7 88.6 L 122.7 95.3 L 121.7 95.3 L 121.7 87.2 L 123.0 87.2 " fill="#0000FF"/>
<path class="atom-5" d="M 89.0 55.7 L 91.6 60.0 Q 91.9 60.4, 92.3 61.2 Q 92.7 62.0, 92.8 62.0 L 92.8 55.7 L 93.8 55.7 L 93.8 63.8 L 92.7 63.8 L 89.9 59.1 Q 89.5 58.6, 89.2 57.9 Q 88.8 57.3, 88.7 57.1 L 88.7 63.8 L 87.7 63.8 L 87.7 55.7 L 89.0 55.7 " fill="#0000FF"/>
<path class="atom-6" d="M 7.9 51.4 L 9.1 50.1 L 7.5 49.8 L 7.7 49.0 L 9.2 49.7 L 9.0 48.1 L 9.8 48.1 L 9.6 49.7 L 11.1 49.0 L 11.3 49.8 L 9.7 50.1 L 10.9 51.3 L 10.2 51.8 L 9.4 50.3 L 8.6 51.8 L 7.9 51.4 " fill="#191919"/>
<path class="atom-6" d="M 12.2 48.3 L 13.3 48.3 L 13.3 51.7 L 17.4 51.7 L 17.4 48.3 L 18.5 48.3 L 18.5 56.4 L 17.4 56.4 L 17.4 52.6 L 13.3 52.6 L 13.3 56.4 L 12.2 56.4 L 12.2 48.3 " fill="#191919"/>
<path class="legend" d="M 67.2 132.3 L 61.2 132.3 L 61.2 131.0 L 68.8 131.0 L 68.8 132.2 L 64.2 142.4 L 62.7 142.4 L 67.2 132.3 " fill="#000000"/>
<path class="legend" d="M 74.2 142.5 Q 72.1 142.5, 71.0 141.0 Q 70.0 139.4, 70.0 136.7 Q 70.0 134.0, 71.0 132.4 Q 72.1 130.9, 74.2 130.9 Q 76.3 130.9, 77.3 132.4 Q 78.3 134.0, 78.3 136.7 Q 78.3 139.4, 77.3 141.0 Q 76.2 142.5, 74.2 142.5 M 74.2 141.2 Q 75.4 141.2, 76.0 140.1 Q 76.7 138.9, 76.7 136.7 Q 76.7 134.5, 76.0 133.3 Q 75.4 132.2, 74.2 132.2 Q 72.9 132.2, 72.3 133.3 Q 71.6 134.5, 71.6 136.7 Q 71.6 138.9, 72.3 140.1 Q 72.9 141.2, 74.2 141.2 " fill="#000000"/>
<path class="legend" d="M 80.2 133.2 Q 80.6 132.1, 81.6 131.5 Q 82.6 130.9, 83.9 130.9 Q 85.6 130.9, 86.6 131.8 Q 87.6 132.8, 87.6 134.4 Q 87.6 136.1, 86.3 137.7 Q 85.1 139.2, 82.5 141.1 L 87.8 141.1 L 87.8 142.4 L 80.1 142.4 L 80.1 141.3 Q 82.2 139.8, 83.5 138.7 Q 84.7 137.6, 85.4 136.5 Q 86.0 135.5, 86.0 134.5 Q 86.0 133.4, 85.4 132.8 Q 84.9 132.2, 83.9 132.2 Q 83.0 132.2, 82.4 132.6 Q 81.8 132.9, 81.4 133.7 L 80.2 133.2 " fill="#000000"/>
</svg>