<svg xmlns="http://www.w3.org/2000/svg" xmlns:rdkit="http://www.rdkit.org/xml" xmlns:xlink="http://www.w3.org/1999/xlink" version="1.1" baseProfile="full" xml:space="preserve" width="150px" height="150px" viewBox="0 0 150 150">
<!-- END OF HEADER -->
<rect style="opacity:1.0;fill:#FFFFFF;stroke:none" width="150.0" height="150.0" x="0.0" y="0.0"> </rect>
<ellipse cx="114.4" cy="27.3" rx="5.2" ry="5.2" class="atom-1" style="fill:#CCCCCC;fill-rule:evenodd;stroke:#CCCCCC;stroke-width:1.0px;stroke-linecap:butt;stroke-linejoin:miter;stroke-opacity:1"/>
<ellipse cx="70.0" cy="20.7" rx="5.2" ry="5.2" class="atom-2" style="fill:#CCCCCC;fill-rule:evenodd;stroke:#CCCCCC;stroke-width:1.0px;stroke-linecap:butt;stroke-linejoin:miter;stroke-opacity:1"/>
<ellipse cx="110.6" cy="53.0" rx="5.2" ry="5.2" class="atom-3" style="fill:#CCCCCC;fill-rule:evenodd;stroke:#CCCCCC;stroke-width:1.0px;stroke-linecap:butt;stroke-linejoin:miter;stroke-opacity:1"/>
<ellipse cx="66.2" cy="46.4" rx="5.2" ry="5.2" class="atom-4" style="fill:#CCCCCC;fill-rule:evenodd;stroke:#CCCCCC;stroke-width:1.0px;stroke-linecap:butt;stroke-linejoin:miter;stroke-opacity:1"/>
<ellipse cx="86.5" cy="62.5" rx="5.2" ry="5.2" class="atom-7" style="fill:#9999E5;fill-rule:evenodd;stroke:#9999E5;stroke-width:1.0px;stroke-linecap:butt;stroke-linejoin:miter;stroke-opacity:1"/>
<ellipse cx="103.0" cy="104.2" rx="5.2" ry="5.2" class="atom-9" style="fill:#E5E533;fill-rule:evenodd;stroke:#E5E533;stroke-width:1.0px;stroke-linecap:butt;stroke-linejoin:miter;stroke-opacity:1"/>
<path class="bond-0 atom-0 atom-1" d="M 104.5,19.5 L 114.4,27.3" style="fill:none;fill-rule:evenodd;stroke:#E5E5E5;stroke-width:1.4px;stroke-linecap:butt;stroke-linejoin:miter;stroke-opacity:1"/>
<path class="bond-1 atom-0 atom-2" d="M 92.5,11.9 L 70.0,20.7" style="fill:none;fill-rule:evenodd;stroke:#E5E5E5;stroke-width:1.4px;stroke-linecap:butt;stroke-linejoin:miter;stroke-opacity:1"/>
<path class="bond-2 atom-1 atom-3" d="M 114.4,27.3 L 110.6,53.0" style="fill:none;fill-rule:evenodd;stroke:#000000;stroke-width:2.0px;stroke-linecap:butt;stroke-linejoin:miter;stroke-opacity:1"/>
<path class="bond-3 atom-2 atom-4" d="M 70.0,20.7 L 66.2,46.4" style="fill:none;fill-rule:evenodd;stroke:#000000;stroke-width:2.0px;stroke-linecap:butt;stroke-linejoin:miter;stroke-opacity:1"/>
<path class="bond-4 atom-5 atom-6" d="M 42.1,55.9 L 30.1,46.4" style="fill:none;fill-rule:evenodd;stroke:#E5E5E5;stroke-width:1.4px;stroke-linecap:butt;stroke-linejoin:miter;stroke-opacity:1"/>
<path class="bond-5 atom-5 atom-4" d="M 42.1,55.9 L 66.2,46.4" style="fill:none;fill-rule:evenodd;stroke:#000000;stroke-width:2.0px;stroke-linecap:butt;stroke-linejoin:miter;stroke-opacity:1"/>
<path class="bond-6 atom-3 atom-7" d="M 110.6,53.0 L 100.4,57.0" style="fill:none;fill-rule:evenodd;stroke:#000000;stroke-width:2.0px;stroke-linecap:butt;stroke-linejoin:miter;stroke-opacity:1"/>
<path class="bond-6 atom-3 atom-7" d="M 100.4,57.0 L 90.1,61.1" style="fill:none;fill-rule:evenodd;stroke:#0000FF;stroke-width:2.0px;stroke-linecap:butt;stroke-linejoin:miter;stroke-opacity:1"/>
<path class="bond-7 atom-8 atom-9" d="M 126.6,97.0 L 102.6,106.5" style="fill:none;fill-rule:evenodd;stroke:#E5E5E5;stroke-width:1.4px;stroke-linecap:butt;stroke-linejoin:miter;stroke-opacity:1"/>
<path class="bond-7 atom-8 atom-9" d="M 125.1,93.4 L 101.2,102.8" style="fill:none;fill-rule:evenodd;stroke:#E5E5E5;stroke-width:1.4px;stroke-linecap:butt;stroke-linejoin:miter;stroke-opacity:1;stroke-dasharray:6,4"/>
<path class="bond-8 atom-10 atom-9" d="M 82.7,88.1 L 103.0,104.2" style="fill:none;fill-rule:evenodd;stroke:#000000;stroke-width:2.0px;stroke-linecap:butt;stroke-linejoin:miter;stroke-opacity:1"/>
<path class="bond-9 atom-10 atom-7" d="M 82.7,88.1 L 84.2,77.6" style="fill:none;fill-rule:evenodd;stroke:#000000;stroke-width:2.0px;stroke-linecap:butt;stroke-linejoin:miter;stroke-opacity:1"/>
<path class="bond-9 atom-10 atom-7" d="M 84.2,77.6 L 85.8,67.0" style="fill:none;fill-rule:evenodd;stroke:#0000FF;stroke-width:2.0px;stroke-linecap:butt;stroke-linejoin:miter;stroke-opacity:1"/>
<path class="bond-10 atom-9 atom-11" d="M 101.2,102.8 L 97.9,125.0" style="fill:none;fill-rule:evenodd;stroke:#E5E5E5;stroke-width:1.4px;stroke-linecap:butt;stroke-linejoin:miter;stroke-opacity:1"/>
<path class="bond-10 atom-9 atom-11" d="M 105.1,103.4 L 101.8,125.6" style="fill:none;fill-rule:evenodd;stroke:#E5E5E5;stroke-width:1.4px;stroke-linecap:butt;stroke-linejoin:miter;stroke-opacity:1;stroke-dasharray:6,4"/>
<path class="bond-11 atom-4 atom-7" d="M 66.2,46.4 L 74.5,53.0" style="fill:none;fill-rule:evenodd;stroke:#000000;stroke-width:2.0px;stroke-linecap:butt;stroke-linejoin:miter;stroke-opacity:1"/>
<path class="bond-11 atom-4 atom-7" d="M 74.5,53.0 L 82.9,59.6" style="fill:none;fill-rule:evenodd;stroke:#0000FF;stroke-width:2.0px;stroke-linecap:butt;stroke-linejoin:miter;stroke-opacity:1"/>
<path d="M 114.2,27.2 L 114.4,27.3 L 114.3,28.0" style="fill:none;stroke:#E5E5E5;stroke-width:1.4px;stroke-linecap:butt;stroke-linejoin:miter;stroke-opacity:1;"/>
<path d="M 70.6,20.5 L 70.0,20.7 L 69.9,21.4" style="fill:none;stroke:#E5E5E5;stroke-width:1.4px;stroke-linecap:butt;stroke-linejoin:miter;stroke-opacity:1;"/>
<path d="M 110.8,51.7 L 110.6,53.0 L 110.1,53.2" style="fill:none;stroke:#000000;stroke-width:2.0px;stroke-linecap:butt;stroke-linejoin:miter;stroke-opacity:1;"/>
<path d="M 41.8,55.7 L 42.1,55.9 L 42.7,55.7" style="fill:none;stroke:#E5E5E5;stroke-width:1.4px;stroke-linecap:butt;stroke-linejoin:miter;stroke-opacity:1;"/>
<path d="M 83.7,88.9 L 82.7,88.1 L 82.8,87.6" style="fill:none;stroke:#000000;stroke-width:2.0px;stroke-linecap:butt;stroke-linejoin:miter;stroke-opacity:1;"/>
<path class="atom-0" d="M 89.5 10.4 L 90.5 9.3 L 89.1 9.0 L 89.3 8.3 L 90.7 9.0 L 90.5 7.5 L 91.2 7.5 L 91.0 8.9 L 92.4 8.3 L 92.6 9.0 L 91.1 9.3 L 92.2 10.4 L 91.5 10.9 L 90.8 9.5 L 90.1 10.9 L 89.5 10.4 " fill="#191919"/>
<path class="atom-0" d="M 93.4 7.6 L 94.4 7.6 L 94.4 10.7 L 98.1 10.7 L 98.1 7.6 L 99.1 7.6 L 99.1 15.0 L 98.1 15.0 L 98.1 11.6 L 94.4 11.6 L 94.4 15.0 L 93.4 15.0 L 93.4 7.6 " fill="#191919"/>
<path class="atom-0" d="M 100.5 14.7 Q 100.7 14.2, 101.1 14.0 Q 101.5 13.7, 102.1 13.7 Q 102.8 13.7, 103.2 14.1 Q 103.6 14.5, 103.6 15.2 Q 103.6 16.0, 103.1 16.6 Q 102.6 17.3, 101.5 18.1 L 103.7 18.1 L 103.7 18.6 L 100.5 18.6 L 100.5 18.2 Q 101.4 17.5, 101.9 17.1 Q 102.4 16.6, 102.7 16.1 Q 103.0 15.7, 103.0 15.3 Q 103.0 14.8, 102.7 14.5 Q 102.5 14.3, 102.1 14.3 Q 101.7 14.3, 101.4 14.4 Q 101.2 14.6, 101.0 14.9 L 100.5 14.7 " fill="#191919"/>
<path class="atom-6" d="M 15.0 39.0 L 16.1 37.9 L 14.7 37.6 L 14.9 36.8 L 16.2 37.5 L 16.0 36.1 L 16.8 36.0 L 16.6 37.5 L 17.9 36.9 L 18.2 37.6 L 16.7 37.8 L 17.7 38.9 L 17.1 39.4 L 16.4 38.0 L 15.7 39.4 L 15.0 39.0 " fill="#191919"/>
<path class="atom-6" d="M 18.9 36.2 L 19.9 36.2 L 19.9 39.3 L 23.7 39.3 L 23.7 36.2 L 24.7 36.2 L 24.7 43.5 L 23.7 43.5 L 23.7 40.1 L 19.9 40.1 L 19.9 43.5 L 18.9 43.5 L 18.9 36.2 " fill="#191919"/>
<path class="atom-6" d="M 26.0 43.2 Q 26.2 42.8, 26.6 42.5 Q 27.1 42.3, 27.7 42.3 Q 28.4 42.3, 28.8 42.7 Q 29.2 43.1, 29.2 43.8 Q 29.2 44.5, 28.7 45.2 Q 28.2 45.8, 27.1 46.6 L 29.3 46.6 L 29.3 47.2 L 26.0 47.2 L 26.0 46.7 Q 26.9 46.1, 27.5 45.6 Q 28.0 45.1, 28.3 44.7 Q 28.5 44.3, 28.5 43.8 Q 28.5 43.3, 28.3 43.1 Q 28.1 42.8, 27.7 42.8 Q 27.3 42.8, 27.0 43.0 Q 26.7 43.1, 26.6 43.5 L 26.0 43.2 " fill="#191919"/>
<path class="atom-7" d="M 84.9 58.8 L 87.3 62.7 Q 87.5 63.1, 87.9 63.8 Q 88.3 64.5, 88.3 64.5 L 88.3 58.8 L 89.3 58.8 L 89.3 66.2 L 88.3 66.2 L 85.7 61.9 Q 85.4 61.4, 85.1 60.8 Q 84.8 60.3, 84.7 60.1 L 84.7 66.2 L 83.7 66.2 L 83.7 58.8 L 84.9 58.8 " fill="#0000FF"/>
<path class="atom-8" d="M 125.7 93.9 L 126.8 92.8 L 125.3 92.5 L 125.6 91.8 L 126.9 92.4 L 126.7 91.0 L 127.5 91.0 L 127.2 92.4 L 128.6 91.8 L 128.8 92.5 L 127.4 92.8 L 128.4 93.9 L 127.8 94.4 L 127.0 93.0 L 126.3 94.4 L 125.7 93.9 " fill="#191919"/>
<path class="atom-8" d="M 129.6 91.1 L 130.6 91.1 L 130.6 94.2 L 134.3 94.2 L 134.3 91.1 L 135.3 91.1 L 135.3 98.5 L 134.3 98.5 L 134.3 95.1 L 130.6 95.1 L 130.6 98.5 L 129.6 98.5 L 129.6 91.1 " fill="#191919"/>
<path class="atom-11" d="M 97.8 129.1 L 98.8 128.0 L 97.4 127.7 L 97.6 126.9 L 99.0 127.6 L 98.8 126.2 L 99.5 126.1 L 99.3 127.6 L 100.7 127.0 L 100.9 127.7 L 99.4 127.9 L 100.5 129.0 L 99.8 129.5 L 99.1 128.1 L 98.4 129.5 L 97.8 129.1 " fill="#191919"/>
<path class="legend" d="M 67.1 132.3 L 61.1 132.3 L 61.1 131.0 L 68.6 131.0 L 68.6 132.2 L 64.1 142.4 L 62.5 142.4 L 67.1 132.3 " fill="#000000"/>
<path class="legend" d="M 74.0 142.5 Q 72.0 142.5, 70.9 141.0 Q 69.9 139.4, 69.9 136.7 Q 69.9 134.0, 70.9 132.4 Q 71.9 130.9, 74.0 130.9 Q 76.1 130.9, 77.2 132.4 Q 78.2 134.0, 78.2 136.7 Q 78.2 139.4, 77.1 141.0 Q 76.1 142.5, 74.0 142.5 M 74.0 141.2 Q 75.3 141.2, 75.9 140.1 Q 76.6 138.9, 76.6 136.7 Q 76.6 134.5, 75.9 133.3 Q 75.3 132.2, 74.0 132.2 Q 72.8 132.2, 72.2 133.3 Q 71.5 134.5, 71.5 136.7 Q 71.5 138.9, 72.2 140.1 Q 72.8 141.2, 74.0 141.2 " fill="#000000"/>
<path class="legend" d="M 83.8 130.9 Q 85.8 130.9, 86.8 132.3 Q 87.9 133.7, 87.9 136.4 Q 87.9 139.4, 86.6 140.9 Q 85.4 142.5, 82.9 142.5 Q 82.2 142.5, 81.6 142.3 Q 81.0 142.2, 80.5 141.8 L 81.1 140.8 Q 81.9 141.2, 82.9 141.2 Q 84.5 141.2, 85.3 140.2 Q 86.2 139.2, 86.3 137.0 Q 85.7 137.6, 84.9 137.8 Q 84.2 138.1, 83.4 138.1 Q 82.4 138.1, 81.7 137.7 Q 80.9 137.3, 80.4 136.5 Q 80.0 135.7, 80.0 134.7 Q 80.0 133.6, 80.5 132.7 Q 81.0 131.9, 81.9 131.4 Q 82.7 130.9, 83.8 130.9 M 81.6 134.7 Q 81.6 135.7, 82.2 136.3 Q 82.7 136.8, 83.7 136.8 Q 84.4 136.8, 85.1 136.6 Q 85.8 136.3, 86.3 135.8 Q 86.2 133.9, 85.6 133.1 Q 85.0 132.2, 83.8 132.2 Q 83.2 132.2, 82.7 132.5 Q 82.2 132.9, 81.9 133.4 Q 81.6 134.0, 81.6 134.7 " fill="#000000"/>
</svg>