<svg xmlns="http://www.w3.org/2000/svg" xmlns:rdkit="http://www.rdkit.org/xml" xmlns:xlink="http://www.w3.org/1999/xlink" version="1.1" baseProfile="full" xml:space="preserve" width="150px" height="150px" viewBox="0 0 150 150">
<!-- END OF HEADER -->
<rect style="opacity:1.0;fill:#FFFFFF;stroke:none" width="150.0" height="150.0" x="0.0" y="0.0"> </rect>
<ellipse cx="50.4" cy="72.9" rx="6.8" ry="6.8" class="atom-0" style="fill:#9999E5;fill-rule:evenodd;stroke:#9999E5;stroke-width:1.0px;stroke-linecap:butt;stroke-linejoin:miter;stroke-opacity:1"/>
<path class="bond-0 atom-0 atom-1" d="M 50.4,72.9 L 83.2,63.9" style="fill:none;fill-rule:evenodd;stroke:#000000;stroke-width:2.0px;stroke-linecap:butt;stroke-linejoin:miter;stroke-opacity:1"/>
<path class="bond-1 atom-0 atom-2" d="M 50.4,72.9 L 40.6,63.3" style="fill:none;fill-rule:evenodd;stroke:#000000;stroke-width:2.0px;stroke-linecap:butt;stroke-linejoin:miter;stroke-opacity:1"/>
<path class="bond-1 atom-0 atom-2" d="M 40.6,63.3 L 30.9,53.8" style="fill:none;fill-rule:evenodd;stroke:#0000FF;stroke-width:2.0px;stroke-linecap:butt;stroke-linejoin:miter;stroke-opacity:1"/>
<path class="bond-2 atom-1 atom-3" d="M 83.2,63.9 L 92.5,73.1" style="fill:none;fill-rule:evenodd;stroke:#000000;stroke-width:2.0px;stroke-linecap:butt;stroke-linejoin:miter;stroke-opacity:1"/>
<path class="bond-2 atom-1 atom-3" d="M 92.5,73.1 L 101.9,82.3" style="fill:none;fill-rule:evenodd;stroke:#FF0000;stroke-width:2.0px;stroke-linecap:butt;stroke-linejoin:miter;stroke-opacity:1"/>
<path class="bond-3 atom-4 atom-3" d="M 137.9,79.3 L 113.0,86.2" style="fill:none;fill-rule:evenodd;stroke:#E5E5E5;stroke-width:1.8px;stroke-linecap:butt;stroke-linejoin:miter;stroke-opacity:1"/>
<path d="M 52.0,72.5 L 50.4,72.9 L 49.9,72.5" style="fill:none;stroke:#000000;stroke-width:2.0px;stroke-linecap:butt;stroke-linejoin:miter;stroke-opacity:1;"/>
<path d="M 81.5,64.3 L 83.2,63.9 L 83.6,64.3" style="fill:none;stroke:#000000;stroke-width:2.0px;stroke-linecap:butt;stroke-linejoin:miter;stroke-opacity:1;"/>
<path class="atom-2" d="M 7.5 44.2 L 8.8 44.2 L 8.8 48.3 L 13.7 48.3 L 13.7 44.2 L 15.0 44.2 L 15.0 53.9 L 13.7 53.9 L 13.7 49.4 L 8.8 49.4 L 8.8 53.9 L 7.5 53.9 L 7.5 44.2 " fill="#0000FF"/>
<path class="atom-2" d="M 16.9 53.5 Q 17.2 52.9, 17.7 52.6 Q 18.3 52.3, 19.0 52.3 Q 20.0 52.3, 20.5 52.8 Q 21.1 53.3, 21.1 54.2 Q 21.1 55.2, 20.4 56.0 Q 19.7 56.9, 18.3 58.0 L 21.2 58.0 L 21.2 58.7 L 16.9 58.7 L 16.9 58.1 Q 18.1 57.2, 18.8 56.6 Q 19.5 56.0, 19.8 55.4 Q 20.2 54.9, 20.2 54.3 Q 20.2 53.7, 19.9 53.3 Q 19.6 53.0, 19.0 53.0 Q 18.5 53.0, 18.2 53.2 Q 17.9 53.4, 17.6 53.8 L 16.9 53.5 " fill="#0000FF"/>
<path class="atom-2" d="M 24.0 44.2 L 27.1 49.3 Q 27.4 49.8, 27.9 50.8 Q 28.5 51.7, 28.5 51.7 L 28.5 44.2 L 29.8 44.2 L 29.8 53.9 L 28.4 53.9 L 25.0 48.3 Q 24.7 47.6, 24.2 46.9 Q 23.8 46.1, 23.7 45.9 L 23.7 53.9 L 22.4 53.9 L 22.4 44.2 L 24.0 44.2 " fill="#0000FF"/>
<path class="atom-3" d="M 103.0 87.8 Q 103.0 85.5, 104.1 84.2 Q 105.3 82.9, 107.4 82.9 Q 109.6 82.9, 110.7 84.2 Q 111.8 85.5, 111.8 87.8 Q 111.8 90.1, 110.7 91.4 Q 109.5 92.8, 107.4 92.8 Q 105.3 92.8, 104.1 91.4 Q 103.0 90.1, 103.0 87.8 M 107.4 91.7 Q 108.9 91.7, 109.7 90.7 Q 110.5 89.7, 110.5 87.8 Q 110.5 85.9, 109.7 84.9 Q 108.9 84.0, 107.4 84.0 Q 105.9 84.0, 105.1 84.9 Q 104.4 85.9, 104.4 87.8 Q 104.4 89.7, 105.1 90.7 Q 105.9 91.7, 107.4 91.7 " fill="#FF0000"/>
<path class="atom-4" d="M 138.4 77.6 L 139.8 76.2 L 137.9 75.8 L 138.2 74.8 L 140.0 75.7 L 139.7 73.8 L 140.7 73.8 L 140.4 75.7 L 142.2 74.9 L 142.5 75.8 L 140.6 76.1 L 142.0 77.6 L 141.1 78.2 L 140.2 76.4 L 139.2 78.2 L 138.4 77.6 " fill="#191919"/>
<path class="legend" d="M 67.0 132.3 L 61.1 132.3 L 61.1 131.0 L 68.6 131.0 L 68.6 132.1 L 64.0 142.3 L 62.5 142.3 L 67.0 132.3 " fill="#000000"/>
<path class="legend" d="M 75.3 136.4 Q 76.4 136.7, 76.9 137.4 Q 77.5 138.1, 77.5 139.2 Q 77.5 140.2, 77.0 140.9 Q 76.5 141.7, 75.6 142.1 Q 74.7 142.5, 73.6 142.5 Q 72.4 142.5, 71.5 142.1 Q 70.6 141.7, 69.9 140.8 L 70.8 139.9 Q 71.5 140.6, 72.1 140.9 Q 72.7 141.2, 73.6 141.2 Q 74.6 141.2, 75.2 140.7 Q 75.9 140.1, 75.9 139.2 Q 75.9 138.1, 75.2 137.6 Q 74.6 137.0, 73.2 137.0 L 72.4 137.0 L 72.4 135.9 L 73.1 135.9 Q 74.3 135.9, 75.0 135.3 Q 75.6 134.8, 75.6 133.8 Q 75.6 133.0, 75.1 132.6 Q 74.5 132.2, 73.6 132.2 Q 72.7 132.2, 72.1 132.5 Q 71.5 132.8, 71.1 133.7 L 69.9 133.1 Q 70.3 132.1, 71.3 131.5 Q 72.3 130.9, 73.6 130.9 Q 75.3 130.9, 76.3 131.7 Q 77.2 132.5, 77.2 133.8 Q 77.2 134.7, 76.7 135.3 Q 76.2 136.0, 75.3 136.4 " fill="#000000"/>
<path class="legend" d="M 86.6 138.5 L 87.9 138.5 L 87.9 139.7 L 86.6 139.7 L 86.6 142.3 L 85.1 142.3 L 85.1 139.7 L 79.2 139.7 L 79.2 138.7 L 84.2 131.0 L 86.6 131.0 L 86.6 138.5 M 81.1 138.5 L 85.1 138.5 L 85.1 132.0 L 81.1 138.5 " fill="#000000"/>
</svg>