<svg xmlns="http://www.w3.org/2000/svg" xmlns:rdkit="http://www.rdkit.org/xml" xmlns:xlink="http://www.w3.org/1999/xlink" version="1.1" baseProfile="full" xml:space="preserve" width="150px" height="150px" viewBox="0 0 150 150">
<!-- END OF HEADER -->
<rect style="opacity:1.0;fill:#FFFFFF;stroke:none" width="150.0" height="150.0" x="0.0" y="0.0"> </rect>
<ellipse cx="108.6" cy="72.5" rx="4.7" ry="4.7" class="atom-1" style="fill:#E5E533;fill-rule:evenodd;stroke:#E5E533;stroke-width:1.0px;stroke-linecap:butt;stroke-linejoin:miter;stroke-opacity:1"/>
<ellipse cx="70.8" cy="73.2" rx="4.7" ry="4.7" class="atom-5" style="fill:#9999E5;fill-rule:evenodd;stroke:#9999E5;stroke-width:1.0px;stroke-linecap:butt;stroke-linejoin:miter;stroke-opacity:1"/>
<ellipse cx="89.9" cy="86.6" rx="4.7" ry="4.7" class="atom-6" style="fill:#E5E533;fill-rule:evenodd;stroke:#E5E533;stroke-width:1.0px;stroke-linecap:butt;stroke-linejoin:miter;stroke-opacity:1"/>
<ellipse cx="101.0" cy="50.4" rx="4.7" ry="4.7" class="atom-7" style="fill:#E5E533;fill-rule:evenodd;stroke:#E5E533;stroke-width:1.0px;stroke-linecap:butt;stroke-linejoin:miter;stroke-opacity:1"/>
<ellipse cx="77.6" cy="50.8" rx="4.7" ry="4.7" class="atom-8" style="fill:#E5E533;fill-rule:evenodd;stroke:#E5E533;stroke-width:1.0px;stroke-linecap:butt;stroke-linejoin:miter;stroke-opacity:1"/>
<path class="bond-0 atom-0 atom-1" d="M 128.6,78.6 L 108.6,72.5" style="fill:none;fill-rule:evenodd;stroke:#E5E5E5;stroke-width:1.2px;stroke-linecap:butt;stroke-linejoin:miter;stroke-opacity:1"/>
<path class="bond-1 atom-2 atom-3" d="M 31.1,65.5 L 48.8,80.8" style="fill:none;fill-rule:evenodd;stroke:#000000;stroke-width:2.0px;stroke-linecap:butt;stroke-linejoin:miter;stroke-opacity:1"/>
<path class="bond-1 atom-2 atom-3" d="M 30.4,69.4 L 46.5,83.4" style="fill:none;fill-rule:evenodd;stroke:#000000;stroke-width:2.0px;stroke-linecap:butt;stroke-linejoin:miter;stroke-opacity:1"/>
<path class="bond-2 atom-2 atom-4" d="M 31.1,65.5 L 11.4,72.3" style="fill:none;fill-rule:evenodd;stroke:#E5E5E5;stroke-width:1.2px;stroke-linecap:butt;stroke-linejoin:miter;stroke-opacity:1"/>
<path class="bond-3 atom-3 atom-5" d="M 48.8,80.8 L 70.8,73.2" style="fill:none;fill-rule:evenodd;stroke:#000000;stroke-width:2.0px;stroke-linecap:butt;stroke-linejoin:miter;stroke-opacity:1"/>
<path class="bond-4 atom-6 atom-1" d="M 89.9,86.6 L 108.6,72.5" style="fill:none;fill-rule:evenodd;stroke:#000000;stroke-width:2.0px;stroke-linecap:butt;stroke-linejoin:miter;stroke-opacity:1"/>
<path class="bond-4 atom-6 atom-1" d="M 89.9,82.2 L 104.4,71.2" style="fill:none;fill-rule:evenodd;stroke:#000000;stroke-width:2.0px;stroke-linecap:butt;stroke-linejoin:miter;stroke-opacity:1"/>
<path class="bond-5 atom-6 atom-5" d="M 89.9,86.6 L 70.8,73.2" style="fill:none;fill-rule:evenodd;stroke:#000000;stroke-width:2.0px;stroke-linecap:butt;stroke-linejoin:miter;stroke-opacity:1"/>
<path class="bond-6 atom-1 atom-7" d="M 108.6,72.5 L 102.4,54.5" style="fill:none;fill-rule:evenodd;stroke:#E5E5E5;stroke-width:1.2px;stroke-linecap:butt;stroke-linejoin:miter;stroke-opacity:1"/>
<path class="bond-7 atom-5 atom-8" d="M 70.8,73.2 L 73.6,64.0" style="fill:none;fill-rule:evenodd;stroke:#000000;stroke-width:2.0px;stroke-linecap:butt;stroke-linejoin:miter;stroke-opacity:1"/>
<path class="bond-7 atom-5 atom-8" d="M 73.6,64.0 L 76.4,54.9" style="fill:none;fill-rule:evenodd;stroke:#0000FF;stroke-width:2.0px;stroke-linecap:butt;stroke-linejoin:miter;stroke-opacity:1"/>
<path class="bond-7 atom-5 atom-8" d="M 74.9,71.8 L 77.3,63.9" style="fill:none;fill-rule:evenodd;stroke:#000000;stroke-width:2.0px;stroke-linecap:butt;stroke-linejoin:miter;stroke-opacity:1"/>
<path class="bond-7 atom-5 atom-8" d="M 77.3,63.9 L 79.7,55.9" style="fill:none;fill-rule:evenodd;stroke:#0000FF;stroke-width:2.0px;stroke-linecap:butt;stroke-linejoin:miter;stroke-opacity:1"/>
<path class="bond-8 atom-7 atom-8" d="M 97.7,50.5 L 80.9,50.8" style="fill:none;fill-rule:evenodd;stroke:#0000FF;stroke-width:2.0px;stroke-linecap:butt;stroke-linejoin:miter;stroke-opacity:1"/>
<path d="M 31.6,65.8 L 31.1,65.5 L 30.6,65.6" style="fill:none;stroke:#000000;stroke-width:2.0px;stroke-linecap:butt;stroke-linejoin:miter;stroke-opacity:1;"/>
<path d="M 47.9,80.0 L 48.8,80.8 L 49.9,80.4" style="fill:none;stroke:#000000;stroke-width:2.0px;stroke-linecap:butt;stroke-linejoin:miter;stroke-opacity:1;"/>
<path d="M 90.9,85.9 L 89.9,86.6 L 89.0,85.9" style="fill:none;stroke:#000000;stroke-width:2.0px;stroke-linecap:butt;stroke-linejoin:miter;stroke-opacity:1;"/>
<path class="atom-0" d="M 129.7 78.6 L 130.6 77.6 L 129.3 77.3 L 129.5 76.7 L 130.7 77.3 L 130.6 76.0 L 131.3 76.0 L 131.1 77.3 L 132.3 76.7 L 132.5 77.3 L 131.2 77.6 L 132.1 78.6 L 131.5 79.0 L 130.9 77.8 L 130.2 79.0 L 129.7 78.6 " fill="#191919"/>
<path class="atom-0" d="M 133.2 76.1 L 134.1 76.1 L 134.1 78.9 L 137.5 78.9 L 137.5 76.1 L 138.3 76.1 L 138.3 82.7 L 137.5 82.7 L 137.5 79.6 L 134.1 79.6 L 134.1 82.7 L 133.2 82.7 L 133.2 76.1 " fill="#191919"/>
<path class="atom-0" d="M 141.7 83.7 Q 142.1 83.8, 142.3 84.1 Q 142.5 84.4, 142.5 84.8 Q 142.5 85.2, 142.3 85.5 Q 142.1 85.7, 141.8 85.9 Q 141.5 86.1, 141.0 86.1 Q 140.5 86.1, 140.2 85.9 Q 139.8 85.7, 139.6 85.4 L 139.9 85.0 Q 140.2 85.3, 140.4 85.5 Q 140.6 85.6, 141.0 85.6 Q 141.4 85.6, 141.6 85.4 Q 141.9 85.1, 141.9 84.8 Q 141.9 84.4, 141.6 84.2 Q 141.4 84.0, 140.8 84.0 L 140.5 84.0 L 140.5 83.5 L 140.8 83.5 Q 141.3 83.5, 141.5 83.3 Q 141.8 83.1, 141.8 82.7 Q 141.8 82.4, 141.6 82.3 Q 141.4 82.1, 141.0 82.1 Q 140.7 82.1, 140.4 82.2 Q 140.2 82.3, 140.0 82.7 L 139.6 82.4 Q 139.8 82.1, 140.1 81.8 Q 140.5 81.6, 141.0 81.6 Q 141.7 81.6, 142.0 81.9 Q 142.4 82.2, 142.4 82.7 Q 142.4 83.1, 142.2 83.3 Q 142.0 83.6, 141.7 83.7 " fill="#191919"/>
<path class="atom-4" d="M 7.8 72.3 L 8.8 71.3 L 7.5 71.1 L 7.7 70.4 L 8.9 71.0 L 8.7 69.7 L 9.4 69.7 L 9.2 71.0 L 10.4 70.4 L 10.6 71.1 L 9.3 71.3 L 10.3 72.3 L 9.7 72.7 L 9.0 71.5 L 8.4 72.7 L 7.8 72.3 " fill="#191919"/>
<path class="atom-7" d="M 99.5 47.1 L 101.7 50.6 Q 101.9 51.0, 102.2 51.6 Q 102.6 52.2, 102.6 52.3 L 102.6 47.1 L 103.5 47.1 L 103.5 53.7 L 102.6 53.7 L 100.3 49.9 Q 100.0 49.5, 99.7 49.0 Q 99.4 48.4, 99.3 48.3 L 99.3 53.7 L 98.5 53.7 L 98.5 47.1 L 99.5 47.1 " fill="#0000FF"/>
<path class="atom-7" d="M 104.8 47.1 L 105.7 47.1 L 105.7 49.9 L 109.1 49.9 L 109.1 47.1 L 109.9 47.1 L 109.9 53.7 L 109.1 53.7 L 109.1 50.7 L 105.7 50.7 L 105.7 53.7 L 104.8 53.7 L 104.8 47.1 " fill="#0000FF"/>
<path class="atom-8" d="M 76.2 47.5 L 78.4 51.0 Q 78.6 51.4, 78.9 52.0 Q 79.3 52.6, 79.3 52.7 L 79.3 47.5 L 80.2 47.5 L 80.2 54.2 L 79.2 54.2 L 76.9 50.3 Q 76.7 49.9, 76.4 49.4 Q 76.1 48.9, 76.0 48.7 L 76.0 54.2 L 75.1 54.2 L 75.1 47.5 L 76.2 47.5 " fill="#0000FF"/>
<path class="legend" d="M 72.3 132.3 L 66.3 132.3 L 66.3 131.0 L 73.8 131.0 L 73.8 132.1 L 69.3 142.3 L 67.7 142.3 L 72.3 132.3 " fill="#000000"/>
<path class="legend" d="M 80.5 136.4 Q 81.6 136.7, 82.1 137.4 Q 82.7 138.1, 82.7 139.2 Q 82.7 140.2, 82.2 140.9 Q 81.7 141.7, 80.8 142.1 Q 80.0 142.5, 78.8 142.5 Q 77.6 142.5, 76.7 142.1 Q 75.8 141.7, 75.1 140.8 L 76.0 139.9 Q 76.7 140.6, 77.3 140.9 Q 77.9 141.2, 78.8 141.2 Q 79.8 141.2, 80.5 140.7 Q 81.1 140.1, 81.1 139.2 Q 81.1 138.1, 80.4 137.6 Q 79.8 137.0, 78.4 137.0 L 77.6 137.0 L 77.6 135.9 L 78.3 135.9 Q 79.5 135.9, 80.2 135.3 Q 80.8 134.8, 80.8 133.8 Q 80.8 133.0, 80.3 132.6 Q 79.8 132.2, 78.8 132.2 Q 77.9 132.2, 77.3 132.5 Q 76.7 132.8, 76.3 133.7 L 75.2 133.1 Q 75.6 132.1, 76.5 131.5 Q 77.5 130.9, 78.8 130.9 Q 80.5 130.9, 81.5 131.7 Q 82.4 132.5, 82.4 133.8 Q 82.4 134.7, 81.9 135.3 Q 81.4 136.0, 80.5 136.4 " fill="#000000"/>
</svg>