<svg xmlns="http://www.w3.org/2000/svg" xmlns:rdkit="http://www.rdkit.org/xml" xmlns:xlink="http://www.w3.org/1999/xlink" version="1.1" baseProfile="full" xml:space="preserve" width="150px" height="150px" viewBox="0 0 150 150">
<!-- END OF HEADER -->
<rect style="opacity:1.0;fill:#FFFFFF;stroke:none" width="150.0" height="150.0" x="0.0" y="0.0"> </rect>
<ellipse cx="34.8" cy="119.1" rx="5.5" ry="5.5" class="atom-0" style="fill:#E5E533;fill-rule:evenodd;stroke:#E5E533;stroke-width:1.0px;stroke-linecap:butt;stroke-linejoin:miter;stroke-opacity:1"/>
<ellipse cx="61.4" cy="111.7" rx="5.5" ry="5.5" class="atom-2" style="fill:#E5E533;fill-rule:evenodd;stroke:#E5E533;stroke-width:1.0px;stroke-linecap:butt;stroke-linejoin:miter;stroke-opacity:1"/>
<ellipse cx="22.0" cy="72.9" rx="5.5" ry="5.5" class="atom-3" style="fill:#E5E533;fill-rule:evenodd;stroke:#E5E533;stroke-width:1.0px;stroke-linecap:butt;stroke-linejoin:miter;stroke-opacity:1"/>
<ellipse cx="68.4" cy="85.0" rx="5.5" ry="5.5" class="atom-4" style="fill:#9999E5;fill-rule:evenodd;stroke:#9999E5;stroke-width:1.0px;stroke-linecap:butt;stroke-linejoin:miter;stroke-opacity:1"/>
<ellipse cx="48.7" cy="65.6" rx="5.5" ry="5.5" class="atom-5" style="fill:#E5E533;fill-rule:evenodd;stroke:#E5E533;stroke-width:1.0px;stroke-linecap:butt;stroke-linejoin:miter;stroke-opacity:1"/>
<ellipse cx="92.9" cy="72.3" rx="5.5" ry="5.5" class="atom-8" style="fill:#CCCCCC;fill-rule:evenodd;stroke:#CCCCCC;stroke-width:1.0px;stroke-linecap:butt;stroke-linejoin:miter;stroke-opacity:1"/>
<ellipse cx="61.0" cy="40.9" rx="5.5" ry="5.5" class="atom-9" style="fill:#CCCCCC;fill-rule:evenodd;stroke:#CCCCCC;stroke-width:1.0px;stroke-linecap:butt;stroke-linejoin:miter;stroke-opacity:1"/>
<ellipse cx="88.4" cy="45.0" rx="5.5" ry="5.5" class="atom-10" style="fill:#CCCCCC;fill-rule:evenodd;stroke:#CCCCCC;stroke-width:1.0px;stroke-linecap:butt;stroke-linejoin:miter;stroke-opacity:1"/>
<path class="bond-0 atom-0 atom-1" d="M 34.8,119.1 L 19.1,103.6" style="fill:none;fill-rule:evenodd;stroke:#E5E5E5;stroke-width:1.5px;stroke-linecap:butt;stroke-linejoin:miter;stroke-opacity:1"/>
<path class="bond-1 atom-0 atom-2" d="M 34.8,119.1 L 61.4,111.7" style="fill:none;fill-rule:evenodd;stroke:#000000;stroke-width:2.0px;stroke-linecap:butt;stroke-linejoin:miter;stroke-opacity:1"/>
<path class="bond-1 atom-0 atom-2" d="M 36.0,114.4 L 58.0,108.4" style="fill:none;fill-rule:evenodd;stroke:#000000;stroke-width:2.0px;stroke-linecap:butt;stroke-linejoin:miter;stroke-opacity:1"/>
<path class="bond-2 atom-1 atom-3" d="M 16.3,94.9 L 22.0,72.9" style="fill:none;fill-rule:evenodd;stroke:#E5E5E5;stroke-width:1.5px;stroke-linecap:butt;stroke-linejoin:miter;stroke-opacity:1"/>
<path class="bond-2 atom-1 atom-3" d="M 20.3,96.0 L 25.5,76.3" style="fill:none;fill-rule:evenodd;stroke:#E5E5E5;stroke-width:1.5px;stroke-linecap:butt;stroke-linejoin:miter;stroke-opacity:1"/>
<path class="bond-3 atom-2 atom-4" d="M 61.4,111.7 L 68.4,85.0" style="fill:none;fill-rule:evenodd;stroke:#000000;stroke-width:2.0px;stroke-linecap:butt;stroke-linejoin:miter;stroke-opacity:1"/>
<path class="bond-4 atom-3 atom-5" d="M 22.0,72.9 L 48.7,65.6" style="fill:none;fill-rule:evenodd;stroke:#000000;stroke-width:2.0px;stroke-linecap:butt;stroke-linejoin:miter;stroke-opacity:1"/>
<path class="bond-5 atom-6 atom-7" d="M 117.6,84.6 L 139.9,69.9" style="fill:none;fill-rule:evenodd;stroke:#E5E5E5;stroke-width:1.5px;stroke-linecap:butt;stroke-linejoin:miter;stroke-opacity:1"/>
<path class="bond-6 atom-6 atom-8" d="M 117.6,84.6 L 92.9,72.3" style="fill:none;fill-rule:evenodd;stroke:#000000;stroke-width:2.0px;stroke-linecap:butt;stroke-linejoin:miter;stroke-opacity:1"/>
<path class="bond-7 atom-4 atom-5" d="M 68.4,85.0 L 48.7,65.6" style="fill:none;fill-rule:evenodd;stroke:#000000;stroke-width:2.0px;stroke-linecap:butt;stroke-linejoin:miter;stroke-opacity:1"/>
<path class="bond-7 atom-4 atom-5" d="M 63.7,86.3 L 47.5,70.2" style="fill:none;fill-rule:evenodd;stroke:#000000;stroke-width:2.0px;stroke-linecap:butt;stroke-linejoin:miter;stroke-opacity:1"/>
<path class="bond-8 atom-4 atom-8" d="M 68.4,85.0 L 92.9,72.3" style="fill:none;fill-rule:evenodd;stroke:#000000;stroke-width:2.0px;stroke-linecap:butt;stroke-linejoin:miter;stroke-opacity:1"/>
<path class="bond-9 atom-5 atom-9" d="M 48.7,65.6 L 61.0,40.9" style="fill:none;fill-rule:evenodd;stroke:#000000;stroke-width:2.0px;stroke-linecap:butt;stroke-linejoin:miter;stroke-opacity:1"/>
<path class="bond-10 atom-8 atom-10" d="M 92.9,72.3 L 91.0,61.1" style="fill:none;fill-rule:evenodd;stroke:#000000;stroke-width:2.0px;stroke-linecap:butt;stroke-linejoin:miter;stroke-opacity:1"/>
<path class="bond-10 atom-8 atom-10" d="M 91.0,61.1 L 89.2,50.0" style="fill:none;fill-rule:evenodd;stroke:#FF0000;stroke-width:2.0px;stroke-linecap:butt;stroke-linejoin:miter;stroke-opacity:1"/>
<path class="bond-11 atom-9 atom-11" d="M 63.6,41.3 L 50.4,15.9" style="fill:none;fill-rule:evenodd;stroke:#E5E5E5;stroke-width:1.5px;stroke-linecap:butt;stroke-linejoin:miter;stroke-opacity:1"/>
<path class="bond-11 atom-9 atom-11" d="M 59.9,43.2 L 46.8,17.8" style="fill:none;fill-rule:evenodd;stroke:#E5E5E5;stroke-width:1.5px;stroke-linecap:butt;stroke-linejoin:miter;stroke-opacity:1"/>
<path class="bond-12 atom-9 atom-10" d="M 61.0,40.9 L 83.9,44.3" style="fill:none;fill-rule:evenodd;stroke:#E5E5E5;stroke-width:1.5px;stroke-linecap:butt;stroke-linejoin:miter;stroke-opacity:1"/>
<path d="M 34.4,118.7 L 34.8,119.1 L 35.4,118.9" style="fill:none;stroke:#E5E5E5;stroke-width:1.5px;stroke-linecap:butt;stroke-linejoin:miter;stroke-opacity:1;"/>
<path d="M 60.1,112.1 L 61.4,111.7 L 61.7,110.4" style="fill:none;stroke:#000000;stroke-width:2.0px;stroke-linecap:butt;stroke-linejoin:miter;stroke-opacity:1;"/>
<path d="M 21.9,73.5 L 22.0,72.9 L 22.7,72.8" style="fill:none;stroke:#E5E5E5;stroke-width:1.5px;stroke-linecap:butt;stroke-linejoin:miter;stroke-opacity:1;"/>
<path d="M 118.1,84.3 L 117.6,84.6 L 117.0,84.3" style="fill:none;stroke:#E5E5E5;stroke-width:1.5px;stroke-linecap:butt;stroke-linejoin:miter;stroke-opacity:1;"/>
<path d="M 60.7,41.5 L 61.0,40.9 L 61.6,41.0" style="fill:none;stroke:#000000;stroke-width:2.0px;stroke-linecap:butt;stroke-linejoin:miter;stroke-opacity:1;"/>
<path class="atom-1" d="M 7.9 98.8 L 9.0 97.6 L 7.5 97.3 L 7.7 96.5 L 9.1 97.3 L 8.9 95.7 L 9.8 95.7 L 9.5 97.2 L 11.0 96.6 L 11.2 97.3 L 9.7 97.6 L 10.8 98.8 L 10.1 99.3 L 9.3 97.8 L 8.5 99.3 L 7.9 98.8 " fill="#191919"/>
<path class="atom-1" d="M 12.0 95.8 L 13.1 95.8 L 13.1 99.2 L 17.1 99.2 L 17.1 95.8 L 18.1 95.8 L 18.1 103.7 L 17.1 103.7 L 17.1 100.0 L 13.1 100.0 L 13.1 103.7 L 12.0 103.7 L 12.0 95.8 " fill="#191919"/>
<path class="atom-7" d="M 139.2 68.6 L 140.3 67.4 L 138.8 67.1 L 139.0 66.3 L 140.4 67.0 L 140.2 65.5 L 141.1 65.5 L 140.8 67.0 L 142.3 66.3 L 142.5 67.1 L 141.0 67.4 L 142.1 68.5 L 141.4 69.0 L 140.6 67.6 L 139.8 69.0 L 139.2 68.6 " fill="#191919"/>
<path class="atom-10" d="M 84.8 45.0 Q 84.8 43.2, 85.7 42.1 Q 86.6 41.1, 88.4 41.1 Q 90.1 41.1, 91.0 42.1 Q 92.0 43.2, 92.0 45.0 Q 92.0 46.9, 91.0 48.0 Q 90.1 49.1, 88.4 49.1 Q 86.6 49.1, 85.7 48.0 Q 84.8 47.0, 84.8 45.0 M 88.4 48.2 Q 89.6 48.2, 90.2 47.4 Q 90.8 46.6, 90.8 45.0 Q 90.8 43.5, 90.2 42.7 Q 89.6 42.0, 88.4 42.0 Q 87.2 42.0, 86.5 42.7 Q 85.9 43.5, 85.9 45.0 Q 85.9 46.6, 86.5 47.4 Q 87.2 48.2, 88.4 48.2 " fill="#FF0000"/>
<path class="atom-11" d="M 46.8 15.5 L 48.0 14.3 L 46.5 14.0 L 46.7 13.2 L 48.1 13.9 L 47.9 12.4 L 48.7 12.4 L 48.5 13.9 L 49.9 13.3 L 50.2 14.0 L 48.6 14.3 L 49.7 15.5 L 49.1 16.0 L 48.3 14.5 L 47.5 16.0 L 46.8 15.5 " fill="#191919"/>
<path class="legend" d="M 67.9 132.3 L 62.0 132.3 L 62.0 131.0 L 69.5 131.0 L 69.5 132.2 L 64.9 142.4 L 63.4 142.4 L 67.9 132.3 " fill="#000000"/>
<path class="legend" d="M 75.1 135.3 Q 76.1 135.3, 76.9 135.7 Q 77.7 136.2, 78.1 136.9 Q 78.6 137.7, 78.6 138.7 Q 78.6 139.8, 78.1 140.7 Q 77.6 141.5, 76.7 142.0 Q 75.9 142.5, 74.8 142.5 Q 72.7 142.5, 71.7 141.1 Q 70.7 139.8, 70.7 137.0 Q 70.7 134.0, 72.0 132.5 Q 73.2 130.9, 75.6 130.9 Q 76.3 130.9, 76.9 131.1 Q 77.5 131.2, 78.1 131.6 L 77.5 132.6 Q 76.7 132.2, 75.7 132.2 Q 74.1 132.2, 73.2 133.2 Q 72.4 134.3, 72.3 136.4 Q 72.9 135.9, 73.6 135.6 Q 74.4 135.3, 75.1 135.3 M 74.8 141.2 Q 75.4 141.2, 75.9 140.9 Q 76.4 140.5, 76.7 140.0 Q 77.0 139.4, 77.0 138.7 Q 77.0 137.7, 76.4 137.2 Q 75.8 136.6, 74.9 136.6 Q 74.2 136.6, 73.5 136.9 Q 72.8 137.1, 72.3 137.6 Q 72.4 139.5, 73.0 140.3 Q 73.6 141.2, 74.8 141.2 " fill="#000000"/>
<path class="legend" d="M 80.8 141.1 L 83.3 141.1 L 83.3 132.6 L 80.6 133.5 L 80.2 132.5 L 83.7 131.0 L 84.8 131.2 L 84.8 141.1 L 87.0 141.1 L 87.0 142.4 L 80.8 142.4 L 80.8 141.1 " fill="#000000"/>
</svg>