<svg xmlns="http://www.w3.org/2000/svg" xmlns:rdkit="http://www.rdkit.org/xml" xmlns:xlink="http://www.w3.org/1999/xlink" version="1.1" baseProfile="full" xml:space="preserve" width="150px" height="150px" viewBox="0 0 150 150">
<!-- END OF HEADER -->
<rect style="opacity:1.0;fill:#FFFFFF;stroke:none" width="150.0" height="150.0" x="0.0" y="0.0"> </rect>
<ellipse cx="108.3" cy="69.6" rx="5.0" ry="5.0" class="atom-1" style="fill:#E5E533;fill-rule:evenodd;stroke:#E5E533;stroke-width:1.0px;stroke-linecap:butt;stroke-linejoin:miter;stroke-opacity:1"/>
<ellipse cx="83.1" cy="70.2" rx="5.0" ry="5.0" class="atom-5" style="fill:#E5E533;fill-rule:evenodd;stroke:#E5E533;stroke-width:1.0px;stroke-linecap:butt;stroke-linejoin:miter;stroke-opacity:1"/>
<ellipse cx="116.7" cy="93.4" rx="5.0" ry="5.0" class="atom-6" style="fill:#E5E533;fill-rule:evenodd;stroke:#E5E533;stroke-width:1.0px;stroke-linecap:butt;stroke-linejoin:miter;stroke-opacity:1"/>
<ellipse cx="75.9" cy="94.3" rx="5.0" ry="5.0" class="atom-7" style="fill:#9999E5;fill-rule:evenodd;stroke:#9999E5;stroke-width:1.0px;stroke-linecap:butt;stroke-linejoin:miter;stroke-opacity:1"/>
<ellipse cx="96.6" cy="108.7" rx="5.0" ry="5.0" class="atom-10" style="fill:#E5E533;fill-rule:evenodd;stroke:#E5E533;stroke-width:1.0px;stroke-linecap:butt;stroke-linejoin:miter;stroke-opacity:1"/>
<path class="bond-0 atom-0 atom-1" d="M 122.4,49.4 L 108.3,69.6" style="fill:none;fill-rule:evenodd;stroke:#E5E5E5;stroke-width:1.3px;stroke-linecap:butt;stroke-linejoin:miter;stroke-opacity:1"/>
<path class="bond-1 atom-2 atom-3" d="M 33.0,86.2 L 11.7,93.7" style="fill:none;fill-rule:evenodd;stroke:#E5E5E5;stroke-width:1.3px;stroke-linecap:butt;stroke-linejoin:miter;stroke-opacity:1"/>
<path class="bond-2 atom-2 atom-4" d="M 33.0,86.2 L 40.8,92.9" style="fill:none;fill-rule:evenodd;stroke:#000000;stroke-width:2.0px;stroke-linecap:butt;stroke-linejoin:miter;stroke-opacity:1"/>
<path class="bond-2 atom-2 atom-4" d="M 40.8,92.9 L 48.6,99.6" style="fill:none;fill-rule:evenodd;stroke:#0000FF;stroke-width:2.0px;stroke-linecap:butt;stroke-linejoin:miter;stroke-opacity:1"/>
<path class="bond-2 atom-2 atom-4" d="M 32.2,90.5 L 39.1,96.5" style="fill:none;fill-rule:evenodd;stroke:#000000;stroke-width:2.0px;stroke-linecap:butt;stroke-linejoin:miter;stroke-opacity:1"/>
<path class="bond-2 atom-2 atom-4" d="M 39.1,96.5 L 46.1,102.5" style="fill:none;fill-rule:evenodd;stroke:#0000FF;stroke-width:2.0px;stroke-linecap:butt;stroke-linejoin:miter;stroke-opacity:1"/>
<path class="bond-3 atom-1 atom-5" d="M 108.3,69.6 L 83.1,70.2" style="fill:none;fill-rule:evenodd;stroke:#000000;stroke-width:2.0px;stroke-linecap:butt;stroke-linejoin:miter;stroke-opacity:1"/>
<path class="bond-4 atom-1 atom-6" d="M 108.3,69.6 L 116.7,93.4" style="fill:none;fill-rule:evenodd;stroke:#E5E5E5;stroke-width:1.3px;stroke-linecap:butt;stroke-linejoin:miter;stroke-opacity:1"/>
<path class="bond-4 atom-1 atom-6" d="M 105.7,73.5 L 112.2,92.1" style="fill:none;fill-rule:evenodd;stroke:#E5E5E5;stroke-width:1.3px;stroke-linecap:butt;stroke-linejoin:miter;stroke-opacity:1"/>
<path class="bond-5 atom-5 atom-7" d="M 83.1,70.2 L 75.9,94.3" style="fill:none;fill-rule:evenodd;stroke:#000000;stroke-width:2.0px;stroke-linecap:butt;stroke-linejoin:miter;stroke-opacity:1"/>
<path class="bond-5 atom-5 atom-7" d="M 86.0,73.9 L 80.3,92.8" style="fill:none;fill-rule:evenodd;stroke:#000000;stroke-width:2.0px;stroke-linecap:butt;stroke-linejoin:miter;stroke-opacity:1"/>
<path class="bond-6 atom-5 atom-8" d="M 83.1,70.2 L 67.9,50.1" style="fill:none;fill-rule:evenodd;stroke:#000000;stroke-width:2.0px;stroke-linecap:butt;stroke-linejoin:miter;stroke-opacity:1"/>
<path class="bond-7 atom-6 atom-9" d="M 116.7,93.4 L 138.3,99.9" style="fill:none;fill-rule:evenodd;stroke:#E5E5E5;stroke-width:1.3px;stroke-linecap:butt;stroke-linejoin:miter;stroke-opacity:1"/>
<path class="bond-8 atom-6 atom-10" d="M 116.7,93.4 L 108.2,99.9" style="fill:none;fill-rule:evenodd;stroke:#000000;stroke-width:2.0px;stroke-linecap:butt;stroke-linejoin:miter;stroke-opacity:1"/>
<path class="bond-8 atom-6 atom-10" d="M 108.2,99.9 L 99.7,106.3" style="fill:none;fill-rule:evenodd;stroke:#CCCC00;stroke-width:2.0px;stroke-linecap:butt;stroke-linejoin:miter;stroke-opacity:1"/>
<path class="bond-9 atom-7 atom-4" d="M 75.9,94.3 L 65.8,97.9" style="fill:none;fill-rule:evenodd;stroke:#000000;stroke-width:2.0px;stroke-linecap:butt;stroke-linejoin:miter;stroke-opacity:1"/>
<path class="bond-9 atom-7 atom-4" d="M 65.8,97.9 L 55.6,101.4" style="fill:none;fill-rule:evenodd;stroke:#0000FF;stroke-width:2.0px;stroke-linecap:butt;stroke-linejoin:miter;stroke-opacity:1"/>
<path class="bond-10 atom-7 atom-10" d="M 75.9,94.3 L 84.7,100.4" style="fill:none;fill-rule:evenodd;stroke:#000000;stroke-width:2.0px;stroke-linecap:butt;stroke-linejoin:miter;stroke-opacity:1"/>
<path class="bond-10 atom-7 atom-10" d="M 84.7,100.4 L 93.5,106.5" style="fill:none;fill-rule:evenodd;stroke:#CCCC00;stroke-width:2.0px;stroke-linecap:butt;stroke-linejoin:miter;stroke-opacity:1"/>
<path class="bond-11 atom-8 atom-11" d="M 69.2,51.9 L 79.1,28.1" style="fill:none;fill-rule:evenodd;stroke:#E5E5E5;stroke-width:1.3px;stroke-linecap:butt;stroke-linejoin:miter;stroke-opacity:1"/>
<path class="bond-11 atom-8 atom-11" d="M 65.7,50.4 L 75.7,26.6" style="fill:none;fill-rule:evenodd;stroke:#E5E5E5;stroke-width:1.3px;stroke-linecap:butt;stroke-linejoin:miter;stroke-opacity:1"/>
<path class="bond-12 atom-8 atom-12" d="M 67.9,50.1 L 45.4,53.0" style="fill:none;fill-rule:evenodd;stroke:#E5E5E5;stroke-width:1.3px;stroke-linecap:butt;stroke-linejoin:miter;stroke-opacity:1"/>
<path d="M 32.5,86.4 L 33.0,86.2 L 33.2,86.4" style="fill:none;stroke:#E5E5E5;stroke-width:1.3px;stroke-linecap:butt;stroke-linejoin:miter;stroke-opacity:1;"/>
<path d="M 68.2,50.6 L 67.9,50.1 L 67.3,50.2" style="fill:none;stroke:#000000;stroke-width:2.0px;stroke-linecap:butt;stroke-linejoin:miter;stroke-opacity:1;"/>
<path class="atom-0" d="M 121.3 48.1 L 122.4 47.0 L 121.0 46.8 L 121.2 46.0 L 122.5 46.7 L 122.3 45.3 L 123.1 45.3 L 122.9 46.7 L 124.2 46.1 L 124.4 46.8 L 123.0 47.0 L 124.0 48.1 L 123.4 48.5 L 122.7 47.2 L 122.0 48.5 L 121.3 48.1 " fill="#191919"/>
<path class="atom-0" d="M 125.1 45.4 L 126.1 45.4 L 126.1 48.4 L 129.8 48.4 L 129.8 45.4 L 130.7 45.4 L 130.7 52.5 L 129.8 52.5 L 129.8 49.2 L 126.1 49.2 L 126.1 52.5 L 125.1 52.5 L 125.1 45.4 " fill="#191919"/>
<path class="atom-0" d="M 134.3 53.6 Q 134.8 53.8, 135.0 54.1 Q 135.2 54.4, 135.2 54.8 Q 135.2 55.2, 135.0 55.5 Q 134.8 55.8, 134.5 56.0 Q 134.1 56.2, 133.6 56.2 Q 133.1 56.2, 132.7 56.0 Q 132.3 55.8, 132.0 55.5 L 132.4 55.1 Q 132.7 55.4, 133.0 55.5 Q 133.2 55.6, 133.6 55.6 Q 134.0 55.6, 134.3 55.4 Q 134.6 55.2, 134.6 54.8 Q 134.6 54.3, 134.3 54.1 Q 134.0 53.9, 133.4 53.9 L 133.1 53.9 L 133.1 53.4 L 133.4 53.4 Q 133.9 53.4, 134.2 53.2 Q 134.5 53.0, 134.5 52.5 Q 134.5 52.2, 134.2 52.1 Q 134.0 51.9, 133.6 51.9 Q 133.2 51.9, 133.0 52.0 Q 132.7 52.2, 132.5 52.5 L 132.1 52.3 Q 132.3 51.9, 132.7 51.6 Q 133.1 51.3, 133.6 51.3 Q 134.3 51.3, 134.7 51.7 Q 135.1 52.0, 135.1 52.5 Q 135.1 52.9, 134.9 53.2 Q 134.7 53.5, 134.3 53.6 " fill="#191919"/>
<path class="atom-3" d="M 7.8 93.8 L 8.9 92.7 L 7.5 92.4 L 7.7 91.7 L 9.0 92.3 L 8.8 90.9 L 9.6 90.9 L 9.4 92.3 L 10.7 91.7 L 10.9 92.4 L 9.5 92.7 L 10.5 93.7 L 9.9 94.2 L 9.2 92.9 L 8.5 94.2 L 7.8 93.8 " fill="#191919"/>
<path class="atom-4" d="M 50.5 99.1 L 52.9 102.9 Q 53.1 103.3, 53.5 103.9 Q 53.8 104.6, 53.9 104.6 L 53.9 99.1 L 54.8 99.1 L 54.8 106.2 L 53.8 106.2 L 51.3 102.1 Q 51.0 101.6, 50.7 101.1 Q 50.4 100.5, 50.3 100.3 L 50.3 106.2 L 49.4 106.2 L 49.4 99.1 L 50.5 99.1 " fill="#0000FF"/>
<path class="atom-9" d="M 139.5 99.9 L 140.5 98.8 L 139.1 98.5 L 139.3 97.8 L 140.6 98.5 L 140.4 97.1 L 141.2 97.0 L 141.0 98.4 L 142.3 97.8 L 142.5 98.5 L 141.1 98.8 L 142.1 99.9 L 141.5 100.3 L 140.8 99.0 L 140.1 100.3 L 139.5 99.9 " fill="#191919"/>
<path class="atom-10" d="M 94.6 111.2 Q 94.7 111.2, 95.0 111.3 Q 95.3 111.5, 95.7 111.6 Q 96.1 111.6, 96.4 111.6 Q 97.1 111.6, 97.5 111.3 Q 97.9 111.0, 97.9 110.4 Q 97.9 110.0, 97.7 109.8 Q 97.5 109.5, 97.2 109.4 Q 96.9 109.3, 96.4 109.1 Q 95.8 108.9, 95.4 108.7 Q 95.0 108.6, 94.7 108.2 Q 94.5 107.8, 94.5 107.1 Q 94.5 106.2, 95.1 105.7 Q 95.7 105.1, 96.9 105.1 Q 97.7 105.1, 98.7 105.5 L 98.4 106.3 Q 97.6 106.0, 96.9 106.0 Q 96.2 106.0, 95.9 106.2 Q 95.5 106.5, 95.5 107.0 Q 95.5 107.4, 95.7 107.6 Q 95.9 107.9, 96.2 108.0 Q 96.4 108.1, 96.9 108.3 Q 97.6 108.5, 98.0 108.7 Q 98.3 108.9, 98.6 109.3 Q 98.9 109.7, 98.9 110.4 Q 98.9 111.4, 98.2 111.9 Q 97.6 112.5, 96.5 112.5 Q 95.8 112.5, 95.4 112.3 Q 94.9 112.2, 94.3 111.9 L 94.6 111.2 " fill="#CCCC00"/>
<path class="atom-11" d="M 76.3 26.1 L 77.3 25.0 L 75.9 24.7 L 76.1 24.0 L 77.4 24.7 L 77.2 23.3 L 78.0 23.3 L 77.8 24.7 L 79.1 24.1 L 79.3 24.7 L 77.9 25.0 L 78.9 26.1 L 78.3 26.5 L 77.6 25.2 L 76.9 26.5 L 76.3 26.1 " fill="#191919"/>
<path class="atom-12" d="M 41.5 52.5 L 42.6 51.5 L 41.2 51.2 L 41.4 50.5 L 42.7 51.1 L 42.5 49.7 L 43.2 49.7 L 43.0 51.1 L 44.3 50.5 L 44.5 51.2 L 43.1 51.5 L 44.1 52.5 L 43.5 53.0 L 42.8 51.6 L 42.1 53.0 L 41.5 52.5 " fill="#191919"/>
<path class="legend" d="M 67.4 132.3 L 61.5 132.3 L 61.5 131.0 L 69.0 131.0 L 69.0 132.2 L 64.4 142.4 L 62.9 142.4 L 67.4 132.3 " fill="#000000"/>
<path class="legend" d="M 74.0 130.9 Q 76.0 130.9, 77.0 132.3 Q 78.1 133.7, 78.1 136.4 Q 78.1 139.4, 76.8 140.9 Q 75.5 142.5, 73.1 142.5 Q 72.4 142.5, 71.8 142.3 Q 71.2 142.2, 70.7 141.8 L 71.3 140.8 Q 72.1 141.2, 73.1 141.2 Q 74.7 141.2, 75.5 140.2 Q 76.3 139.2, 76.4 137.0 Q 75.9 137.6, 75.1 137.8 Q 74.4 138.1, 73.6 138.1 Q 72.6 138.1, 71.9 137.7 Q 71.1 137.3, 70.6 136.5 Q 70.2 135.7, 70.2 134.7 Q 70.2 133.6, 70.7 132.7 Q 71.2 131.9, 72.0 131.4 Q 72.9 130.9, 74.0 130.9 M 71.8 134.7 Q 71.8 135.7, 72.4 136.3 Q 72.9 136.8, 73.9 136.8 Q 74.6 136.8, 75.3 136.6 Q 76.0 136.3, 76.4 135.8 Q 76.4 133.9, 75.8 133.1 Q 75.2 132.2, 74.0 132.2 Q 73.4 132.2, 72.9 132.5 Q 72.4 132.9, 72.1 133.4 Q 71.8 134.0, 71.8 134.7 " fill="#000000"/>
<path class="legend" d="M 79.9 133.2 Q 80.4 132.1, 81.4 131.5 Q 82.3 130.9, 83.7 130.9 Q 85.4 130.9, 86.4 131.8 Q 87.4 132.8, 87.4 134.4 Q 87.4 136.1, 86.1 137.7 Q 84.9 139.2, 82.3 141.1 L 87.5 141.1 L 87.5 142.4 L 79.9 142.4 L 79.9 141.3 Q 82.0 139.8, 83.3 138.7 Q 84.5 137.6, 85.1 136.5 Q 85.8 135.5, 85.8 134.5 Q 85.8 133.4, 85.2 132.8 Q 84.7 132.2, 83.7 132.2 Q 82.8 132.2, 82.2 132.6 Q 81.6 132.9, 81.2 133.7 L 79.9 133.2 " fill="#000000"/>
</svg>