<svg xmlns="http://www.w3.org/2000/svg" xmlns:rdkit="http://www.rdkit.org/xml" xmlns:xlink="http://www.w3.org/1999/xlink" version="1.1" baseProfile="full" xml:space="preserve" width="150px" height="150px" viewBox="0 0 150 150">
<!-- END OF HEADER -->
<rect style="opacity:1.0;fill:#FFFFFF;stroke:none" width="150.0" height="150.0" x="0.0" y="0.0"> </rect>
<ellipse cx="79.1" cy="56.2" rx="5.5" ry="5.5" class="atom-1" style="fill:#9999E5;fill-rule:evenodd;stroke:#9999E5;stroke-width:1.0px;stroke-linecap:butt;stroke-linejoin:miter;stroke-opacity:1"/>
<ellipse cx="118.7" cy="82.4" rx="5.5" ry="5.5" class="atom-3" style="fill:#E5E533;fill-rule:evenodd;stroke:#E5E533;stroke-width:1.0px;stroke-linecap:butt;stroke-linejoin:miter;stroke-opacity:1"/>
<path class="bond-0 atom-0 atom-1" d="M 94.2,33.4 L 88.3,42.4" style="fill:none;fill-rule:evenodd;stroke:#000000;stroke-width:2.0px;stroke-linecap:butt;stroke-linejoin:miter;stroke-opacity:1"/>
<path class="bond-0 atom-0 atom-1" d="M 88.3,42.4 L 82.3,51.5" style="fill:none;fill-rule:evenodd;stroke:#0000FF;stroke-width:2.0px;stroke-linecap:butt;stroke-linejoin:miter;stroke-opacity:1"/>
<path class="bond-1 atom-2 atom-3" d="M 135.2,61.3 L 119.7,84.6" style="fill:none;fill-rule:evenodd;stroke:#E5E5E5;stroke-width:1.5px;stroke-linecap:butt;stroke-linejoin:miter;stroke-opacity:1"/>
<path class="bond-1 atom-2 atom-3" d="M 131.7,59.0 L 116.3,82.3" style="fill:none;fill-rule:evenodd;stroke:#E5E5E5;stroke-width:1.5px;stroke-linecap:butt;stroke-linejoin:miter;stroke-opacity:1;stroke-dasharray:6,4"/>
<path class="bond-2 atom-4 atom-3" d="M 126.6,103.0 L 116.3,82.3" style="fill:none;fill-rule:evenodd;stroke:#E5E5E5;stroke-width:1.5px;stroke-linecap:butt;stroke-linejoin:miter;stroke-opacity:1"/>
<path class="bond-2 atom-4 atom-3" d="M 130.3,101.2 L 120.0,80.5" style="fill:none;fill-rule:evenodd;stroke:#E5E5E5;stroke-width:1.5px;stroke-linecap:butt;stroke-linejoin:miter;stroke-opacity:1;stroke-dasharray:6,4"/>
<path class="bond-3 atom-5 atom-3" d="M 91.3,80.7 L 118.7,82.4" style="fill:none;fill-rule:evenodd;stroke:#000000;stroke-width:2.0px;stroke-linecap:butt;stroke-linejoin:miter;stroke-opacity:1"/>
<path class="bond-4 atom-5 atom-1" d="M 91.3,80.7 L 86.4,70.9" style="fill:none;fill-rule:evenodd;stroke:#000000;stroke-width:2.0px;stroke-linecap:butt;stroke-linejoin:miter;stroke-opacity:1"/>
<path class="bond-4 atom-5 atom-1" d="M 86.4,70.9 L 81.5,61.0" style="fill:none;fill-rule:evenodd;stroke:#0000FF;stroke-width:2.0px;stroke-linecap:butt;stroke-linejoin:miter;stroke-opacity:1"/>
<path class="bond-5 atom-6 atom-7" d="M 12.1,75.8 L 36.7,77.4" style="fill:none;fill-rule:evenodd;stroke:#E5E5E5;stroke-width:1.5px;stroke-linecap:butt;stroke-linejoin:miter;stroke-opacity:1"/>
<path class="bond-6 atom-7 atom-8" d="M 36.7,77.4 L 51.8,54.5" style="fill:none;fill-rule:evenodd;stroke:#000000;stroke-width:2.0px;stroke-linecap:butt;stroke-linejoin:miter;stroke-opacity:1"/>
<path class="bond-7 atom-7 atom-9" d="M 34.3,77.2 L 44.6,98.0" style="fill:none;fill-rule:evenodd;stroke:#E5E5E5;stroke-width:1.5px;stroke-linecap:butt;stroke-linejoin:miter;stroke-opacity:1"/>
<path class="bond-7 atom-7 atom-9" d="M 38.0,75.4 L 48.3,96.1" style="fill:none;fill-rule:evenodd;stroke:#E5E5E5;stroke-width:1.5px;stroke-linecap:butt;stroke-linejoin:miter;stroke-opacity:1"/>
<path class="bond-8 atom-8 atom-1" d="M 51.8,54.5 L 63.5,55.3" style="fill:none;fill-rule:evenodd;stroke:#000000;stroke-width:2.0px;stroke-linecap:butt;stroke-linejoin:miter;stroke-opacity:1"/>
<path class="bond-8 atom-8 atom-1" d="M 63.5,55.3 L 75.3,56.0" style="fill:none;fill-rule:evenodd;stroke:#0000FF;stroke-width:2.0px;stroke-linecap:butt;stroke-linejoin:miter;stroke-opacity:1"/>
<path class="bond-9 atom-8 atom-10" d="M 54.2,54.7 L 49.0,44.4" style="fill:none;fill-rule:evenodd;stroke:#000000;stroke-width:2.0px;stroke-linecap:butt;stroke-linejoin:miter;stroke-opacity:1"/>
<path class="bond-9 atom-8 atom-10" d="M 49.0,44.4 L 43.9,34.1" style="fill:none;fill-rule:evenodd;stroke:#FF0000;stroke-width:2.0px;stroke-linecap:butt;stroke-linejoin:miter;stroke-opacity:1"/>
<path class="bond-9 atom-8 atom-10" d="M 50.5,56.5 L 45.3,46.2" style="fill:none;fill-rule:evenodd;stroke:#000000;stroke-width:2.0px;stroke-linecap:butt;stroke-linejoin:miter;stroke-opacity:1"/>
<path class="bond-9 atom-8 atom-10" d="M 45.3,46.2 L 40.2,35.9" style="fill:none;fill-rule:evenodd;stroke:#FF0000;stroke-width:2.0px;stroke-linecap:butt;stroke-linejoin:miter;stroke-opacity:1"/>
<path d="M 92.7,80.8 L 91.3,80.7 L 91.1,80.3" style="fill:none;stroke:#000000;stroke-width:2.0px;stroke-linecap:butt;stroke-linejoin:miter;stroke-opacity:1;"/>
<path d="M 36.0,77.3 L 36.7,77.4 L 37.0,76.8" style="fill:none;stroke:#E5E5E5;stroke-width:1.5px;stroke-linecap:butt;stroke-linejoin:miter;stroke-opacity:1;"/>
<path d="M 51.0,55.7 L 51.8,54.5 L 52.4,54.6" style="fill:none;stroke:#000000;stroke-width:2.0px;stroke-linecap:butt;stroke-linejoin:miter;stroke-opacity:1;"/>
<path class="atom-1" d="M 77.4 52.4 L 79.9 56.5 Q 80.2 56.9, 80.6 57.6 Q 81.0 58.3, 81.0 58.4 L 81.0 52.4 L 82.1 52.4 L 82.1 60.1 L 81.0 60.1 L 78.3 55.6 Q 78.0 55.1, 77.6 54.5 Q 77.3 53.9, 77.2 53.7 L 77.2 60.1 L 76.2 60.1 L 76.2 52.4 L 77.4 52.4 " fill="#0000FF"/>
<path class="atom-2" d="M 132.3 58.7 L 133.5 57.6 L 131.9 57.3 L 132.2 56.5 L 133.6 57.2 L 133.4 55.7 L 134.2 55.7 L 134.0 57.2 L 135.4 56.5 L 135.6 57.3 L 134.1 57.6 L 135.2 58.7 L 134.5 59.2 L 133.8 57.8 L 133.0 59.2 L 132.3 58.7 " fill="#191919"/>
<path class="atom-2" d="M 136.4 55.8 L 137.5 55.8 L 137.5 59.1 L 141.4 59.1 L 141.4 55.8 L 142.5 55.8 L 142.5 63.6 L 141.4 63.6 L 141.4 60.0 L 137.5 60.0 L 137.5 63.6 L 136.4 63.6 L 136.4 55.8 " fill="#191919"/>
<path class="atom-4" d="M 129.4 106.1 L 130.5 104.9 L 129.0 104.6 L 129.3 103.8 L 130.6 104.5 L 130.4 103.0 L 131.3 103.0 L 131.0 104.5 L 132.5 103.9 L 132.7 104.6 L 131.2 104.9 L 132.3 106.1 L 131.6 106.6 L 130.8 105.1 L 130.1 106.6 L 129.4 106.1 " fill="#191919"/>
<path class="atom-4" d="M 133.5 103.1 L 134.6 103.1 L 134.6 106.4 L 138.5 106.4 L 138.5 103.1 L 139.6 103.1 L 139.6 110.9 L 138.5 110.9 L 138.5 107.3 L 134.6 107.3 L 134.6 110.9 L 133.5 110.9 L 133.5 103.1 " fill="#191919"/>
<path class="atom-6" d="M 7.9 74.8 L 9.0 73.7 L 7.5 73.3 L 7.7 72.6 L 9.1 73.3 L 8.9 71.7 L 9.7 71.7 L 9.5 73.3 L 10.9 72.6 L 11.2 73.3 L 9.6 73.6 L 10.7 74.8 L 10.1 75.3 L 9.3 73.8 L 8.5 75.3 L 7.9 74.8 " fill="#191919"/>
<path class="atom-9" d="M 47.4 101.0 L 48.5 99.9 L 47.0 99.5 L 47.3 98.8 L 48.7 99.5 L 48.5 97.9 L 49.3 97.9 L 49.0 99.5 L 50.5 98.8 L 50.7 99.5 L 49.2 99.8 L 50.3 101.0 L 49.6 101.5 L 48.8 100.0 L 48.1 101.5 L 47.4 101.0 " fill="#191919"/>
<path class="atom-10" d="M 36.0 30.1 Q 36.0 28.2, 36.9 27.2 Q 37.9 26.1, 39.6 26.1 Q 41.3 26.1, 42.2 27.2 Q 43.1 28.2, 43.1 30.1 Q 43.1 31.9, 42.2 33.0 Q 41.3 34.1, 39.6 34.1 Q 37.9 34.1, 36.9 33.0 Q 36.0 31.9, 36.0 30.1 M 39.6 33.2 Q 40.8 33.2, 41.4 32.4 Q 42.1 31.6, 42.1 30.1 Q 42.1 28.5, 41.4 27.8 Q 40.8 27.0, 39.6 27.0 Q 38.4 27.0, 37.8 27.8 Q 37.1 28.5, 37.1 30.1 Q 37.1 31.6, 37.8 32.4 Q 38.4 33.2, 39.6 33.2 " fill="#FF0000"/>
<path class="legend" d="M 71.4 136.3 Q 72.5 136.8, 73.1 137.5 Q 73.7 138.1, 73.7 139.2 Q 73.7 140.2, 73.2 140.9 Q 72.7 141.7, 71.8 142.1 Q 70.9 142.5, 69.7 142.5 Q 67.8 142.5, 66.8 141.6 Q 65.7 140.8, 65.7 139.2 Q 65.7 138.3, 66.2 137.6 Q 66.6 136.9, 67.6 136.4 Q 66.9 136.0, 66.5 135.4 Q 66.1 134.7, 66.1 133.8 Q 66.1 132.5, 67.0 131.7 Q 68.0 130.9, 69.7 130.9 Q 71.3 130.9, 72.3 131.7 Q 73.3 132.5, 73.3 133.8 Q 73.3 134.6, 72.8 135.2 Q 72.3 135.8, 71.4 136.3 M 69.7 132.1 Q 68.7 132.1, 68.2 132.5 Q 67.7 133.0, 67.7 133.8 Q 67.7 134.4, 68.0 134.8 Q 68.4 135.2, 68.9 135.4 Q 69.4 135.6, 70.4 135.9 Q 71.1 135.5, 71.4 134.9 Q 71.7 134.4, 71.7 133.8 Q 71.7 133.0, 71.1 132.5 Q 70.6 132.1, 69.7 132.1 M 69.7 141.3 Q 70.8 141.3, 71.4 140.7 Q 72.1 140.2, 72.1 139.2 Q 72.1 138.6, 71.7 138.2 Q 71.4 137.8, 70.9 137.6 Q 70.4 137.4, 69.5 137.1 L 68.8 136.9 Q 68.0 137.3, 67.6 137.9 Q 67.3 138.5, 67.3 139.2 Q 67.3 140.2, 67.9 140.7 Q 68.6 141.3, 69.7 141.3 " fill="#000000"/>
<path class="legend" d="M 79.9 135.3 Q 80.9 135.3, 81.7 135.7 Q 82.5 136.1, 82.9 136.9 Q 83.3 137.7, 83.3 138.7 Q 83.3 139.8, 82.8 140.7 Q 82.4 141.5, 81.5 142.0 Q 80.6 142.5, 79.5 142.5 Q 77.5 142.5, 76.5 141.1 Q 75.5 139.7, 75.5 137.0 Q 75.5 134.0, 76.7 132.5 Q 78.0 130.9, 80.4 130.9 Q 81.1 130.9, 81.7 131.0 Q 82.3 131.2, 82.9 131.5 L 82.3 132.6 Q 81.4 132.2, 80.4 132.2 Q 78.8 132.2, 78.0 133.2 Q 77.2 134.2, 77.1 136.4 Q 77.7 135.8, 78.4 135.6 Q 79.1 135.3, 79.9 135.3 M 79.5 141.2 Q 80.1 141.2, 80.6 140.8 Q 81.2 140.5, 81.4 140.0 Q 81.7 139.4, 81.7 138.7 Q 81.7 137.7, 81.2 137.1 Q 80.6 136.5, 79.6 136.5 Q 78.9 136.5, 78.2 136.8 Q 77.6 137.1, 77.1 137.6 Q 77.2 139.5, 77.7 140.3 Q 78.3 141.2, 79.5 141.2 " fill="#000000"/>
</svg>