<svg xmlns="http://www.w3.org/2000/svg" xmlns:rdkit="http://www.rdkit.org/xml" xmlns:xlink="http://www.w3.org/1999/xlink" version="1.1" baseProfile="full" xml:space="preserve" width="150px" height="150px" viewBox="0 0 150 150">
<!-- END OF HEADER -->
<rect style="opacity:1.0;fill:#FFFFFF;stroke:none" width="150.0" height="150.0" x="0.0" y="0.0"> </rect>
<ellipse cx="78.7" cy="88.8" rx="7.2" ry="7.2" class="atom-2" style="fill:#9999E5;fill-rule:evenodd;stroke:#9999E5;stroke-width:1.0px;stroke-linecap:butt;stroke-linejoin:miter;stroke-opacity:1"/>
<path class="bond-0 atom-0 atom-1" d="M 28.9,88.1 L 45.1,101.4" style="fill:none;fill-rule:evenodd;stroke:#E5E5E5;stroke-width:1.9px;stroke-linecap:butt;stroke-linejoin:miter;stroke-opacity:1"/>
<path class="bond-1 atom-1 atom-2" d="M 45.1,101.4 L 78.7,88.8" style="fill:none;fill-rule:evenodd;stroke:#000000;stroke-width:2.0px;stroke-linecap:butt;stroke-linejoin:miter;stroke-opacity:1"/>
<path class="bond-2 atom-3 atom-4" d="M 106.5,111.6 L 138.3,99.6" style="fill:none;fill-rule:evenodd;stroke:#E5E5E5;stroke-width:1.9px;stroke-linecap:butt;stroke-linejoin:miter;stroke-opacity:1"/>
<path class="bond-3 atom-3 atom-2" d="M 106.5,111.6 L 78.7,88.8" style="fill:none;fill-rule:evenodd;stroke:#000000;stroke-width:2.0px;stroke-linecap:butt;stroke-linejoin:miter;stroke-opacity:1"/>
<path class="bond-3 atom-3 atom-2" d="M 107.5,105.4 L 84.6,86.6" style="fill:none;fill-rule:evenodd;stroke:#000000;stroke-width:2.0px;stroke-linecap:butt;stroke-linejoin:miter;stroke-opacity:1"/>
<path class="bond-4 atom-2 atom-5" d="M 78.7,88.8 L 84.6,53.4" style="fill:none;fill-rule:evenodd;stroke:#000000;stroke-width:2.0px;stroke-linecap:butt;stroke-linejoin:miter;stroke-opacity:1"/>
<path class="bond-5 atom-5 atom-6" d="M 84.6,53.4 L 62.0,34.8" style="fill:none;fill-rule:evenodd;stroke:#E5E5E5;stroke-width:1.9px;stroke-linecap:butt;stroke-linejoin:miter;stroke-opacity:1"/>
<path class="bond-6 atom-5 atom-7" d="M 84.1,56.4 L 117.4,43.9" style="fill:none;fill-rule:evenodd;stroke:#E5E5E5;stroke-width:1.9px;stroke-linecap:butt;stroke-linejoin:miter;stroke-opacity:1"/>
<path class="bond-6 atom-5 atom-7" d="M 82.2,51.4 L 115.5,38.9" style="fill:none;fill-rule:evenodd;stroke:#E5E5E5;stroke-width:1.9px;stroke-linecap:butt;stroke-linejoin:miter;stroke-opacity:1"/>
<path d="M 44.7,101.1 L 45.1,101.4 L 46.0,101.1" style="fill:none;stroke:#E5E5E5;stroke-width:1.9px;stroke-linecap:butt;stroke-linejoin:miter;stroke-opacity:1;"/>
<path d="M 107.3,111.3 L 106.5,111.6 L 105.8,111.0" style="fill:none;stroke:#E5E5E5;stroke-width:1.9px;stroke-linecap:butt;stroke-linejoin:miter;stroke-opacity:1;"/>
<path d="M 84.4,54.3 L 84.6,53.4 L 84.0,52.9" style="fill:none;stroke:#000000;stroke-width:2.0px;stroke-linecap:butt;stroke-linejoin:miter;stroke-opacity:1;"/>
<path class="atom-0" d="M 8.0 77.5 L 9.5 76.0 L 7.5 75.6 L 7.8 74.6 L 9.6 75.5 L 9.4 73.5 L 10.4 73.5 L 10.1 75.5 L 12.0 74.6 L 12.3 75.6 L 10.3 76.0 L 11.7 77.5 L 10.9 78.1 L 9.9 76.3 L 8.9 78.1 L 8.0 77.5 " fill="#191919"/>
<path class="atom-0" d="M 13.4 73.7 L 14.8 73.7 L 14.8 78.0 L 20.0 78.0 L 20.0 73.7 L 21.4 73.7 L 21.4 83.8 L 20.0 83.8 L 20.0 79.1 L 14.8 79.1 L 14.8 83.8 L 13.4 83.8 L 13.4 73.7 " fill="#191919"/>
<path class="atom-0" d="M 26.4 85.4 Q 27.1 85.6, 27.4 86.0 Q 27.7 86.4, 27.7 87.1 Q 27.7 87.6, 27.5 88.1 Q 27.2 88.5, 26.6 88.8 Q 26.1 89.0, 25.4 89.0 Q 24.7 89.0, 24.2 88.8 Q 23.7 88.5, 23.2 88.0 L 23.8 87.5 Q 24.2 87.9, 24.5 88.1 Q 24.9 88.3, 25.4 88.3 Q 26.1 88.3, 26.4 87.9 Q 26.8 87.6, 26.8 87.1 Q 26.8 86.4, 26.4 86.1 Q 26.0 85.8, 25.2 85.8 L 24.7 85.8 L 24.7 85.1 L 25.1 85.1 Q 25.9 85.1, 26.3 84.8 Q 26.6 84.4, 26.6 83.8 Q 26.6 83.4, 26.3 83.2 Q 26.0 82.9, 25.5 82.9 Q 24.9 82.9, 24.5 83.1 Q 24.2 83.3, 23.9 83.8 L 23.3 83.4 Q 23.5 82.9, 24.1 82.5 Q 24.7 82.1, 25.5 82.1 Q 26.4 82.1, 27.0 82.6 Q 27.6 83.1, 27.6 83.8 Q 27.6 84.4, 27.3 84.8 Q 27.0 85.2, 26.4 85.4 " fill="#191919"/>
<path class="atom-4" d="M 138.2 97.8 L 139.7 96.3 L 137.7 95.9 L 138.0 94.9 L 139.8 95.8 L 139.6 93.8 L 140.6 93.8 L 140.3 95.8 L 142.2 94.9 L 142.5 95.9 L 140.5 96.2 L 141.9 97.8 L 141.0 98.4 L 140.1 96.5 L 139.1 98.4 L 138.2 97.8 " fill="#191919"/>
<path class="atom-6" d="M 47.5 29.5 L 49.0 27.9 L 47.0 27.5 L 47.3 26.5 L 49.1 27.4 L 48.8 25.4 L 49.9 25.4 L 49.6 27.4 L 51.5 26.6 L 51.8 27.5 L 49.8 27.9 L 51.2 29.4 L 50.3 30.1 L 49.3 28.2 L 48.3 30.1 L 47.5 29.5 " fill="#191919"/>
<path class="atom-6" d="M 52.9 25.6 L 54.2 25.6 L 54.2 29.9 L 59.4 29.9 L 59.4 25.6 L 60.8 25.6 L 60.8 35.8 L 59.4 35.8 L 59.4 31.1 L 54.2 31.1 L 54.2 35.8 L 52.9 35.8 L 52.9 25.6 " fill="#191919"/>
<path class="atom-7" d="M 116.3 39.6 L 117.8 38.1 L 115.8 37.7 L 116.1 36.6 L 117.9 37.6 L 117.7 35.6 L 118.7 35.6 L 118.4 37.6 L 120.3 36.7 L 120.6 37.7 L 118.6 38.0 L 120.0 39.6 L 119.1 40.2 L 118.2 38.3 L 117.1 40.2 L 116.3 39.6 " fill="#191919"/>
<path class="legend" d="M 66.7 136.3 Q 67.8 136.8, 68.4 137.5 Q 68.9 138.1, 68.9 139.2 Q 68.9 140.2, 68.5 140.9 Q 68.0 141.7, 67.1 142.1 Q 66.2 142.5, 65.0 142.5 Q 63.1 142.5, 62.0 141.6 Q 60.9 140.8, 60.9 139.2 Q 60.9 138.3, 61.4 137.6 Q 61.9 136.9, 62.9 136.4 Q 62.2 136.0, 61.8 135.4 Q 61.4 134.7, 61.4 133.8 Q 61.4 132.5, 62.3 131.7 Q 63.3 130.9, 64.9 130.9 Q 66.6 130.9, 67.6 131.7 Q 68.5 132.5, 68.5 133.8 Q 68.5 134.6, 68.1 135.2 Q 67.6 135.8, 66.7 136.3 M 64.9 132.1 Q 64.0 132.1, 63.5 132.5 Q 63.0 133.0, 63.0 133.8 Q 63.0 134.4, 63.3 134.8 Q 63.7 135.2, 64.2 135.4 Q 64.7 135.6, 65.7 135.9 Q 66.3 135.5, 66.6 134.9 Q 66.9 134.4, 66.9 133.8 Q 66.9 133.0, 66.4 132.5 Q 65.9 132.1, 64.9 132.1 M 65.0 141.3 Q 66.1 141.3, 66.7 140.7 Q 67.3 140.2, 67.3 139.2 Q 67.3 138.6, 67.0 138.2 Q 66.7 137.8, 66.2 137.6 Q 65.7 137.4, 64.8 137.1 L 64.1 136.9 Q 63.3 137.3, 62.9 137.9 Q 62.5 138.5, 62.5 139.2 Q 62.5 140.2, 63.2 140.7 Q 63.9 141.3, 65.0 141.3 " fill="#000000"/>
<path class="legend" d="M 76.5 136.3 Q 77.6 136.8, 78.1 137.5 Q 78.7 138.1, 78.7 139.2 Q 78.7 140.2, 78.2 140.9 Q 77.7 141.7, 76.9 142.1 Q 76.0 142.5, 74.8 142.5 Q 72.9 142.5, 71.8 141.6 Q 70.7 140.8, 70.7 139.2 Q 70.7 138.3, 71.2 137.6 Q 71.7 136.9, 72.7 136.4 Q 72.0 136.0, 71.6 135.4 Q 71.2 134.7, 71.2 133.8 Q 71.2 132.5, 72.1 131.7 Q 73.1 130.9, 74.7 130.9 Q 76.4 130.9, 77.3 131.7 Q 78.3 132.5, 78.3 133.8 Q 78.3 134.6, 77.9 135.2 Q 77.4 135.8, 76.5 136.3 M 74.7 132.1 Q 73.8 132.1, 73.3 132.5 Q 72.8 133.0, 72.8 133.8 Q 72.8 134.4, 73.1 134.8 Q 73.5 135.2, 74.0 135.4 Q 74.5 135.6, 75.4 135.9 Q 76.1 135.5, 76.4 134.9 Q 76.7 134.4, 76.7 133.8 Q 76.7 133.0, 76.2 132.5 Q 75.7 132.1, 74.7 132.1 M 74.8 141.3 Q 75.9 141.3, 76.5 140.7 Q 77.1 140.2, 77.1 139.2 Q 77.1 138.6, 76.8 138.2 Q 76.5 137.8, 76.0 137.6 Q 75.5 137.4, 74.6 137.1 L 73.8 136.9 Q 73.0 137.3, 72.7 137.9 Q 72.3 138.5, 72.3 139.2 Q 72.3 140.2, 73.0 140.7 Q 73.7 141.3, 74.8 141.3 " fill="#000000"/>
<path class="legend" d="M 86.5 132.3 L 80.5 132.3 L 80.5 131.0 L 88.1 131.0 L 88.1 132.1 L 83.5 142.3 L 81.9 142.3 L 86.5 132.3 " fill="#000000"/>
</svg>