<svg xmlns="http://www.w3.org/2000/svg" xmlns:rdkit="http://www.rdkit.org/xml" xmlns:xlink="http://www.w3.org/1999/xlink" version="1.1" baseProfile="full" xml:space="preserve" width="150px" height="150px" viewBox="0 0 150 150">
<!-- END OF HEADER -->
<rect style="opacity:1.0;fill:#FFFFFF;stroke:none" width="150.0" height="150.0" x="0.0" y="0.0"> </rect>
<ellipse cx="106.1" cy="81.7" rx="5.8" ry="5.8" class="atom-4" style="fill:#CCCCCC;fill-rule:evenodd;stroke:#CCCCCC;stroke-width:1.0px;stroke-linecap:butt;stroke-linejoin:miter;stroke-opacity:1"/>
<ellipse cx="56.0" cy="78.6" rx="5.8" ry="5.8" class="atom-8" style="fill:#9999E5;fill-rule:evenodd;stroke:#9999E5;stroke-width:1.0px;stroke-linecap:butt;stroke-linejoin:miter;stroke-opacity:1"/>
<path class="bond-0 atom-0 atom-1" d="M 78.4,123.6 L 54.2,107.5" style="fill:none;fill-rule:evenodd;stroke:#000000;stroke-width:2.0px;stroke-linecap:butt;stroke-linejoin:miter;stroke-opacity:1"/>
<path class="bond-1 atom-2 atom-1" d="M 28.2,120.5 L 54.2,107.5" style="fill:none;fill-rule:evenodd;stroke:#000000;stroke-width:2.0px;stroke-linecap:butt;stroke-linejoin:miter;stroke-opacity:1"/>
<path class="bond-2 atom-3 atom-4" d="M 107.1,105.5 L 106.3,86.8" style="fill:none;fill-rule:evenodd;stroke:#E5E5E5;stroke-width:1.5px;stroke-linecap:butt;stroke-linejoin:miter;stroke-opacity:1"/>
<path class="bond-3 atom-5 atom-6" d="M 33.6,33.6 L 10.3,18.2" style="fill:none;fill-rule:evenodd;stroke:#E5E5E5;stroke-width:1.5px;stroke-linecap:butt;stroke-linejoin:miter;stroke-opacity:1"/>
<path class="bond-4 atom-5 atom-7" d="M 33.6,33.6 L 32.9,45.6" style="fill:none;fill-rule:evenodd;stroke:#000000;stroke-width:2.0px;stroke-linecap:butt;stroke-linejoin:miter;stroke-opacity:1"/>
<path class="bond-4 atom-5 atom-7" d="M 32.9,45.6 L 32.1,57.5" style="fill:none;fill-rule:evenodd;stroke:#0000FF;stroke-width:2.0px;stroke-linecap:butt;stroke-linejoin:miter;stroke-opacity:1"/>
<path class="bond-4 atom-5 atom-7" d="M 29.1,35.9 L 28.5,46.6" style="fill:none;fill-rule:evenodd;stroke:#000000;stroke-width:2.0px;stroke-linecap:butt;stroke-linejoin:miter;stroke-opacity:1"/>
<path class="bond-4 atom-5 atom-7" d="M 28.5,46.6 L 27.8,57.2" style="fill:none;fill-rule:evenodd;stroke:#0000FF;stroke-width:2.0px;stroke-linecap:butt;stroke-linejoin:miter;stroke-opacity:1"/>
<path class="bond-5 atom-1 atom-8" d="M 54.2,107.5 L 56.0,78.6" style="fill:none;fill-rule:evenodd;stroke:#000000;stroke-width:2.0px;stroke-linecap:butt;stroke-linejoin:miter;stroke-opacity:1"/>
<path class="bond-6 atom-9 atom-4" d="M 131.8,72.1 L 110.2,80.2" style="fill:none;fill-rule:evenodd;stroke:#E5E5E5;stroke-width:1.5px;stroke-linecap:butt;stroke-linejoin:miter;stroke-opacity:1"/>
<path class="bond-7 atom-8 atom-10" d="M 56.0,78.6 L 81.9,65.7" style="fill:none;fill-rule:evenodd;stroke:#000000;stroke-width:2.0px;stroke-linecap:butt;stroke-linejoin:miter;stroke-opacity:1"/>
<path class="bond-8 atom-8 atom-7" d="M 56.0,78.6 L 45.9,71.9" style="fill:none;fill-rule:evenodd;stroke:#000000;stroke-width:2.0px;stroke-linecap:butt;stroke-linejoin:miter;stroke-opacity:1"/>
<path class="bond-8 atom-8 atom-7" d="M 45.9,71.9 L 35.9,65.3" style="fill:none;fill-rule:evenodd;stroke:#0000FF;stroke-width:2.0px;stroke-linecap:butt;stroke-linejoin:miter;stroke-opacity:1"/>
<path class="bond-9 atom-10 atom-4" d="M 81.9,65.7 L 92.0,72.3" style="fill:none;fill-rule:evenodd;stroke:#000000;stroke-width:2.0px;stroke-linecap:butt;stroke-linejoin:miter;stroke-opacity:1"/>
<path class="bond-9 atom-10 atom-4" d="M 92.0,72.3 L 102.0,79.0" style="fill:none;fill-rule:evenodd;stroke:#0000FF;stroke-width:2.0px;stroke-linecap:butt;stroke-linejoin:miter;stroke-opacity:1"/>
<path class="bond-10 atom-10 atom-11" d="M 84.0,67.1 L 84.8,54.6" style="fill:none;fill-rule:evenodd;stroke:#000000;stroke-width:2.0px;stroke-linecap:butt;stroke-linejoin:miter;stroke-opacity:1"/>
<path class="bond-10 atom-10 atom-11" d="M 84.8,54.6 L 85.6,42.1" style="fill:none;fill-rule:evenodd;stroke:#FF0000;stroke-width:2.0px;stroke-linecap:butt;stroke-linejoin:miter;stroke-opacity:1"/>
<path class="bond-10 atom-10 atom-11" d="M 79.7,66.8 L 80.5,54.3" style="fill:none;fill-rule:evenodd;stroke:#000000;stroke-width:2.0px;stroke-linecap:butt;stroke-linejoin:miter;stroke-opacity:1"/>
<path class="bond-10 atom-10 atom-11" d="M 80.5,54.3 L 81.2,41.8" style="fill:none;fill-rule:evenodd;stroke:#FF0000;stroke-width:2.0px;stroke-linecap:butt;stroke-linejoin:miter;stroke-opacity:1"/>
<path d="M 33.0,33.3 L 33.6,33.6 L 33.6,33.9" style="fill:none;stroke:#E5E5E5;stroke-width:1.5px;stroke-linecap:butt;stroke-linejoin:miter;stroke-opacity:1;"/>
<path d="M 80.6,66.3 L 81.9,65.7 L 82.4,66.0" style="fill:none;stroke:#000000;stroke-width:2.0px;stroke-linecap:butt;stroke-linejoin:miter;stroke-opacity:1;"/>
<path class="atom-3" d="M 105.8 109.8 L 107.0 108.5 L 105.4 108.2 L 105.6 107.4 L 107.1 108.1 L 106.9 106.5 L 107.8 106.5 L 107.5 108.1 L 109.0 107.4 L 109.3 108.2 L 107.7 108.5 L 108.8 109.7 L 108.1 110.3 L 107.3 108.7 L 106.5 110.3 L 105.8 109.8 " fill="#191919"/>
<path class="atom-3" d="M 110.2 106.6 L 111.3 106.6 L 111.3 110.1 L 115.5 110.1 L 115.5 106.6 L 116.6 106.6 L 116.6 114.8 L 115.5 114.8 L 115.5 111.1 L 111.3 111.1 L 111.3 114.8 L 110.2 114.8 L 110.2 106.6 " fill="#191919"/>
<path class="atom-3" d="M 118.1 114.6 Q 118.3 114.0, 118.8 113.8 Q 119.3 113.5, 119.9 113.5 Q 120.7 113.5, 121.2 113.9 Q 121.7 114.4, 121.7 115.1 Q 121.7 115.9, 121.1 116.7 Q 120.5 117.4, 119.3 118.3 L 121.8 118.3 L 121.8 118.9 L 118.1 118.9 L 118.1 118.4 Q 119.1 117.7, 119.7 117.2 Q 120.3 116.6, 120.6 116.2 Q 120.9 115.7, 120.9 115.2 Q 120.9 114.7, 120.6 114.4 Q 120.4 114.1, 119.9 114.1 Q 119.5 114.1, 119.2 114.3 Q 118.9 114.4, 118.7 114.8 L 118.1 114.6 " fill="#191919"/>
<path class="atom-4" d="M 104.3 77.6 L 107.0 81.9 Q 107.2 82.4, 107.7 83.2 Q 108.1 83.9, 108.1 84.0 L 108.1 77.6 L 109.2 77.6 L 109.2 85.8 L 108.1 85.8 L 105.2 81.1 Q 104.9 80.5, 104.5 79.9 Q 104.2 79.2, 104.1 79.0 L 104.1 85.8 L 103.0 85.8 L 103.0 77.6 L 104.3 77.6 " fill="#0000FF"/>
<path class="atom-6" d="M 7.9 16.7 L 9.1 15.5 L 7.5 15.1 L 7.7 14.3 L 9.2 15.1 L 9.0 13.5 L 9.9 13.4 L 9.6 15.1 L 11.1 14.4 L 11.4 15.1 L 9.8 15.4 L 10.9 16.7 L 10.2 17.2 L 9.4 15.7 L 8.6 17.2 L 7.9 16.7 " fill="#191919"/>
<path class="atom-7" d="M 30.0 58.5 L 32.7 62.8 Q 33.0 63.2, 33.4 64.0 Q 33.8 64.8, 33.8 64.9 L 33.8 58.5 L 34.9 58.5 L 34.9 66.7 L 33.8 66.7 L 30.9 61.9 Q 30.6 61.4, 30.2 60.7 Q 29.9 60.1, 29.8 59.9 L 29.8 66.7 L 28.7 66.7 L 28.7 58.5 L 30.0 58.5 " fill="#0000FF"/>
<path class="atom-9" d="M 131.7 70.7 L 132.9 69.4 L 131.3 69.1 L 131.6 68.3 L 133.0 69.0 L 132.8 67.4 L 133.7 67.4 L 133.5 69.0 L 135.0 68.3 L 135.2 69.1 L 133.6 69.4 L 134.7 70.6 L 134.0 71.2 L 133.2 69.6 L 132.4 71.2 L 131.7 70.7 " fill="#191919"/>
<path class="atom-9" d="M 136.1 67.5 L 137.2 67.5 L 137.2 71.0 L 141.4 71.0 L 141.4 67.5 L 142.5 67.5 L 142.5 75.7 L 141.4 75.7 L 141.4 72.0 L 137.2 72.0 L 137.2 75.7 L 136.1 75.7 L 136.1 67.5 " fill="#191919"/>
<path class="atom-11" d="M 80.0 36.8 Q 80.0 34.8, 80.9 33.7 Q 81.9 32.6, 83.7 32.6 Q 85.6 32.6, 86.5 33.7 Q 87.5 34.8, 87.5 36.8 Q 87.5 38.8, 86.5 39.9 Q 85.5 41.0, 83.7 41.0 Q 81.9 41.0, 80.9 39.9 Q 80.0 38.8, 80.0 36.8 M 83.7 40.1 Q 85.0 40.1, 85.7 39.3 Q 86.3 38.4, 86.3 36.8 Q 86.3 35.2, 85.7 34.3 Q 85.0 33.5, 83.7 33.5 Q 82.5 33.5, 81.8 34.3 Q 81.1 35.1, 81.1 36.8 Q 81.1 38.4, 81.8 39.3 Q 82.5 40.1, 83.7 40.1 " fill="#FF0000"/>
<path class="legend" d="M 64.9 130.9 Q 66.9 130.9, 67.9 132.3 Q 68.9 133.7, 68.9 136.4 Q 68.9 139.4, 67.7 140.9 Q 66.4 142.5, 64.0 142.5 Q 63.3 142.5, 62.7 142.3 Q 62.1 142.2, 61.5 141.8 L 62.1 140.8 Q 63.0 141.2, 64.0 141.2 Q 65.6 141.2, 66.4 140.2 Q 67.2 139.2, 67.3 137.0 Q 66.7 137.6, 66.0 137.8 Q 65.3 138.1, 64.5 138.1 Q 63.5 138.1, 62.7 137.7 Q 61.9 137.3, 61.5 136.5 Q 61.1 135.7, 61.1 134.7 Q 61.1 133.6, 61.5 132.7 Q 62.0 131.9, 62.9 131.4 Q 63.8 130.9, 64.9 130.9 M 62.7 134.7 Q 62.7 135.7, 63.2 136.3 Q 63.8 136.8, 64.8 136.8 Q 65.5 136.8, 66.1 136.6 Q 66.8 136.3, 67.3 135.8 Q 67.2 133.9, 66.6 133.1 Q 66.1 132.2, 64.9 132.2 Q 64.2 132.2, 63.7 132.5 Q 63.2 132.9, 63.0 133.4 Q 62.7 134.0, 62.7 134.7 " fill="#000000"/>
<path class="legend" d="M 75.2 135.3 Q 76.2 135.3, 77.0 135.7 Q 77.8 136.2, 78.2 136.9 Q 78.6 137.7, 78.6 138.7 Q 78.6 139.8, 78.1 140.7 Q 77.7 141.5, 76.8 142.0 Q 75.9 142.5, 74.8 142.5 Q 72.8 142.5, 71.8 141.1 Q 70.8 139.8, 70.8 137.0 Q 70.8 134.0, 72.0 132.5 Q 73.3 130.9, 75.7 130.9 Q 76.4 130.9, 77.0 131.1 Q 77.6 131.2, 78.2 131.6 L 77.6 132.6 Q 76.7 132.2, 75.7 132.2 Q 74.1 132.2, 73.3 133.2 Q 72.5 134.3, 72.4 136.4 Q 73.0 135.9, 73.7 135.6 Q 74.4 135.3, 75.2 135.3 M 74.9 141.2 Q 75.5 141.2, 76.0 140.9 Q 76.5 140.5, 76.8 140.0 Q 77.0 139.4, 77.0 138.7 Q 77.0 137.7, 76.5 137.2 Q 75.9 136.6, 74.9 136.6 Q 74.2 136.6, 73.6 136.9 Q 72.9 137.1, 72.4 137.6 Q 72.5 139.5, 73.1 140.3 Q 73.7 141.2, 74.9 141.2 " fill="#000000"/>
<path class="legend" d="M 80.3 133.2 Q 80.8 132.1, 81.7 131.5 Q 82.7 130.9, 84.1 130.9 Q 85.8 130.9, 86.8 131.8 Q 87.7 132.8, 87.7 134.4 Q 87.7 136.1, 86.5 137.7 Q 85.3 139.2, 82.7 141.1 L 87.9 141.1 L 87.9 142.4 L 80.3 142.4 L 80.3 141.3 Q 82.4 139.8, 83.7 138.7 Q 84.9 137.6, 85.5 136.5 Q 86.1 135.5, 86.1 134.5 Q 86.1 133.4, 85.6 132.8 Q 85.1 132.2, 84.1 132.2 Q 83.2 132.2, 82.6 132.6 Q 82.0 132.9, 81.6 133.7 L 80.3 133.2 " fill="#000000"/>
</svg>